<?xml version="1.0" encoding="utf-8"?>
<!-- Generator: Adobe Illustrator 19.1.0, SVG Export Plug-In . SVG Version: 6.00 Build 0)  -->
<!DOCTYPE svg PUBLIC "-//W3C//DTD SVG 1.1//EN" "http://www.w3.org/Graphics/SVG/1.1/DTD/svg11.dtd">
<svg version="1.1" id="Layer_1" xmlns="http://www.w3.org/2000/svg" xmlns:xlink="http://www.w3.org/1999/xlink" x="0px" y="0px"
	 viewBox="0 0 77.5 69.6" enable-background="new 0 0 77.5 69.6" xml:space="preserve">
<g>
	<path d="M67.6,23.1C65.2,10,53.2,0,38.7,0C24.3,0,12.3,10,9.8,23.1H0v20.4h6.9c0-4.9,4-8.8,8.9-8.8s8.8,4,8.8,8.8h28.3
		c0-4.9,4-8.8,8.8-8.8s8.9,4,8.9,8.8h6.9V23.1H67.6z M36,23.1H14.9C17.2,13.6,25.6,6.2,36,5.1L36,23.1L36,23.1z M41.5,23.1V5.1
		c10.4,1.1,18.8,8.4,21.1,17.9H41.5z"/>
	<polygon points="44,55 44,46.4 33.5,46.4 33.5,55 20.8,55 10.5,69.6 38.1,69.6 39.3,69.6 66.9,69.6 56.6,55 	"/>
</g>
</svg>
