<?xml version="1.0" encoding="utf-8"?>
<!-- Generator: Adobe Illustrator 19.1.0, SVG Export Plug-In . SVG Version: 6.00 Build 0)  -->
<!DOCTYPE svg PUBLIC "-//W3C//DTD SVG 1.1//EN" "http://www.w3.org/Graphics/SVG/1.1/DTD/svg11.dtd">
<svg version="1.1" id="Layer_1" xmlns="http://www.w3.org/2000/svg" xmlns:xlink="http://www.w3.org/1999/xlink" x="0px" y="0px"
	 viewBox="0 0 50.5 51" enable-background="new 0 0 50.5 51" xml:space="preserve">
<g transform="translate(0,-1020.3622)">
	<path d="M29.1,1035.9c-0.9,0-1.7,0.6-1.8,1.5l-0.7,4c-0.8,0.6-1.5,1.3-2.1,2c1.3,1,2.3,2.1,3.1,3.4c1.8-2.3,4.5-3.6,7.4-3.6
		c5.1,0,9.3,4,9.3,9c0,5-4.2,9-9.3,9c0,0,0,0,0,0c-1.8,0-3.6-0.5-5.2-1.5c-0.1,0.7-0.3,1.3-0.5,2c-0.3,0.8-0.6,1.6-1,2.3
		c2,1.1,4.3,1.7,6.7,1.7c6,0,11.3-3.7,13.2-9.2c1.9-5.5,0-11.6-4.8-15.1l-0.7-4c-0.2-0.9-0.9-1.5-1.8-1.5H29.1z M35,1038.2
		c0.5,0,0.9,0.4,0.9,0.9c0,0,0,0,0,0v0.9c0,0.5-0.4,0.9-0.9,0.9c-0.5,0-0.9-0.4-0.9-0.9c0,0,0,0,0,0v-0.9
		C34.1,1038.7,34.5,1038.2,35,1038.2z"/>
	<path d="M8.6,1040.6c-0.9,0-1.7,0.6-1.8,1.5l-0.7,4c-4.8,3.5-6.7,9.6-4.8,15.1c1.9,5.5,7.3,9.2,13.3,9.2c6,0,11.3-3.7,13.2-9.2
		c1.9-5.5,0-11.6-4.8-15.1l-0.7-4c-0.2-0.9-0.9-1.5-1.8-1.5L8.6,1040.6z M14.5,1042.8c0.5,0,0.9,0.4,0.9,0.9c0,0,0,0,0,0v0.9
		c0,0.5-0.4,0.9-0.9,0.9c-0.5,0-0.9-0.4-0.9-0.9c0,0,0,0,0,0v-0.9C13.6,1043.2,14,1042.8,14.5,1042.8z M14.5,1047.9
		c5.1,0,9.3,4,9.3,9c0,5-4.2,9-9.3,9c0,0,0,0,0,0c-5.1,0-9.3-4-9.3-9c0,0,0,0,0,0C5.2,1051.9,9.4,1047.9,14.5,1047.9z"/>
	<path d="M23.2,1021.4c-1.8,0-3.3,1.5-3.3,3.3c0,0.1,0,0.2,0,0.3c-0.9,0.5-1.8,1.1-2.5,1.8c-0.4-0.2-0.8-0.2-1.2-0.2
		c-1.8,0-3.3,1.5-3.3,3.3c0,1,0.5,1.9,1.2,2.5c-0.2,0.9-0.3,1.9-0.3,2.9c-0.3,0.1-0.6,0.1-0.9,0.3v0c0,0,0,0,0,0
		c-0.9,0.5-1.4,1.4-1.4,2.4v1.4h1.9v-1.4c0-0.3,0.2-0.6,0.5-0.8c0.3-0.2,0.6-0.2,0.9,0c0,0,0,0,0,0c0.3,0.2,0.5,0.5,0.5,0.8
		c0,0,0,0,0,0v1.4h1.9v-1.3c0-1-0.5-1.9-1.4-2.4c-0.1-0.8,0-1.7,0.2-2.5c0.1,0,0.2,0,0.3,0c1.8,0,3.3-1.5,3.3-3.3
		c0-0.7-0.2-1.3-0.6-1.8c0.5-0.5,1.1-0.9,1.8-1.2c0.6,0.7,1.5,1.2,2.5,1.2c1.4,0,2.6-0.9,3.1-2.2c0.6,0.1,1.1,0.2,1.6,0.4
		c0,0.1,0,0.3,0,0.4c0,1.8,1.5,3.3,3.3,3.3c0.5,0,1-0.1,1.5-0.4c0.3,0.4,0.5,0.8,0.8,1.2c-0.8,0.5-1.3,1.4-1.3,2.4v1.4h1.9v-1.4
		c0-0.3,0.2-0.6,0.5-0.8c0.3-0.2,0.6-0.2,0.9,0c0,0,0,0,0,0c0.3,0.2,0.5,0.5,0.5,0.8c0,0,0,0,0,0v1.4h1.9v-1.3c0-1-0.5-1.9-1.4-2.4
		c-0.3-0.2-0.7-0.3-1-0.3c-0.3-0.8-0.8-1.5-1.3-2.2c0.3-0.5,0.4-1,0.4-1.6c0-1.8-1.5-3.3-3.3-3.3c-1,0-1.8,0.4-2.4,1.1
		c-0.8-0.3-1.6-0.4-2.4-0.5C26,1022.4,24.7,1021.4,23.2,1021.4L23.2,1021.4z M23.2,1023.3c0.8,0,1.4,0.6,1.4,1.4
		c0,0.8-0.6,1.4-1.4,1.4s-1.4-0.6-1.4-1.4C21.8,1023.9,22.5,1023.3,23.2,1023.3z M31.2,1025.1c0.8,0,1.4,0.6,1.4,1.4
		c0,0.8-0.6,1.4-1.4,1.4c-0.8,0-1.4-0.6-1.4-1.4C29.8,1025.8,30.4,1025.1,31.2,1025.1z M16.3,1028.4c0.8,0,1.4,0.6,1.4,1.4
		c0,0.8-0.6,1.4-1.4,1.4s-1.4-0.6-1.4-1.4C14.9,1029,15.5,1028.4,16.3,1028.4z"/>
</g>
</svg>
