<?xml version="1.0" encoding="utf-8"?>
<!-- Generator: Adobe Illustrator 19.1.0, SVG Export Plug-In . SVG Version: 6.00 Build 0)  -->
<!DOCTYPE svg PUBLIC "-//W3C//DTD SVG 1.1//EN" "http://www.w3.org/Graphics/SVG/1.1/DTD/svg11.dtd">
<svg version="1.1" id="Layer_1" xmlns="http://www.w3.org/2000/svg" xmlns:xlink="http://www.w3.org/1999/xlink" x="0px" y="0px"
	 viewBox="0 0 98 43.8" enable-background="new 0 0 98 43.8" xml:space="preserve">
<g>
	<path d="M97.9,41.2L79.6,1.1C79.3,0.4,78.7,0,77.9,0H20.2c-0.7,0-1.4,0.4-1.7,1.1L0.2,41.2C-0.1,41.8,0,42.4,0.3,43
		c0.3,0.5,0.9,0.8,1.5,0.8h94.3c0.6,0,1.2-0.3,1.5-0.8C98.1,42.4,98.2,41.7,97.9,41.2z M4.8,40.1L21.5,3.7h55.3l16.7,36.4H4.8z"/>
	<path d="M27.3,19.7c0-1.1-0.9-2-2-2h-1.2c-1.1,0-2,0.9-2,2s0.9,2,2,2h1.2C26.4,21.7,27.3,20.8,27.3,19.7z"/>
	<path d="M32.5,27.2c-0.1,0-0.5-0.2-0.6-0.2c-1.5-0.6-2.7-1.6-3.7-2.9c0,0-0.3-0.4-0.4-0.5c-0.4-0.6-1.2-0.7-1.8-0.3
		s-0.7,1.2-0.3,1.8c0.1,0.1,0.4,0.6,0.5,0.6c1.3,1.6,2.9,2.9,4.7,3.7c0.1,0,0.8,0.4,1.2,0.4c0.5,0,1-0.3,1.2-0.9
		C33.5,28.2,33.2,27.5,32.5,27.2z"/>
	<path d="M43.4,26.4c-0.1,0.1-0.5,0.3-0.6,0.3c-1.2,0.5-2.5,0.9-4,1.1c-0.3,0-1.3,0.1-1.4,0.1c-0.7,0-1.3,0.6-1.2,1.3
		c0,0.7,0.6,1.2,1.3,1.2c0.5,0,1.4-0.1,1.7-0.1c1.8-0.2,3.3-0.7,4.8-1.3c0.1,0,0.6-0.3,0.7-0.4c0.6-0.3,0.9-1.1,0.5-1.7
		C44.8,26.3,44,26,43.4,26.4z"/>
	<path d="M52.4,17.2c-0.6-0.4-1.4-0.2-1.8,0.3c-0.1,0.1-0.4,0.6-0.4,0.6c-0.4,0.6-0.7,1.2-1.1,1.7c-0.6,0.9-1.1,1.9-1.8,2.8
		c0,0-0.3,0.5-0.4,0.5c-0.4,0.6-0.3,1.4,0.2,1.8c0.2,0.2,0.5,0.3,0.8,0.3c0.4,0,0.8-0.2,1-0.5c0.1-0.1,0.4-0.6,0.5-0.6
		c0.7-1,1.3-2,1.9-3c0.3-0.6,0.7-1.1,1-1.7c0,0,0.3-0.5,0.4-0.6C53.1,18.4,53,17.6,52.4,17.2z"/>
	<path d="M62.1,11.8c0,0-0.7,0-0.8,0c-0.8,0-1.6,0.1-2.4,0.2c-1.2,0.2-2.4,0.5-3.4,1c-0.1,0-0.6,0.3-0.7,0.4
		c-0.6,0.4-0.8,1.1-0.5,1.7c0.2,0.4,0.7,0.6,1.1,0.6c0.2,0,0.4-0.1,0.6-0.2c0.1-0.1,0.5-0.3,0.5-0.3c0.8-0.4,1.7-0.6,2.6-0.8
		c0.7-0.1,1.4-0.2,2.1-0.2c0.1,0,0.7,0,0.7,0l0,0c0.7,0,1.3-0.6,1.3-1.3C63.4,12.4,62.8,11.8,62.1,11.8z"/>
	<path d="M70.6,18.8c0,0.1,0.2,0.4,0.2,0.4C71,19.7,71.5,20,72,20c0.1,0,0.3,0,0.4-0.1c0.7-0.2,1-1,0.8-1.6c0,0-0.3-0.6-0.3-0.7
		c-0.5-1-1.8-2.9-4.3-4.3c-0.1,0-0.6-0.3-0.7-0.4c-0.6-0.3-1.4,0-1.7,0.6s0,1.4,0.6,1.7c0.1,0,0.5,0.3,0.6,0.3
		C69.3,16.6,70.2,18,70.6,18.8z"/>
	<path d="M74.8,24.7l1.4-1.7c0.5-0.5,0.4-1.4-0.2-1.8c-0.5-0.5-1.4-0.4-1.8,0.2L72.9,23l-1.4-1.3c-0.5-0.5-1.3-0.4-1.8,0.1
		s-0.4,1.3,0.1,1.8l1.5,1.4l-1.4,1.7c-0.5,0.5-0.4,1.4,0.2,1.8c0.2,0.2,0.5,0.3,0.8,0.3c0.4,0,0.7-0.2,1-0.5l1.3-1.6l1.6,1.5
		c0.2,0.2,0.6,0.3,0.9,0.3c0.4,0,0.7-0.1,1-0.4c0.5-0.5,0.4-1.3-0.1-1.8L74.8,24.7z"/>
</g>
</svg>
