<svg version="1.1" id="Layer_1" xmlns="http://www.w3.org/2000/svg" xmlns:xlink="http://www.w3.org/1999/xlink" x="0px" y="0px"
	 viewBox="0 0 95.1 63.8" enable-background="new 0 0 95.1 63.8" xml:space="preserve">
<g>
	<path d="M85.1,19.7V9.9h-9.9V0H0v44.1h9.9v9.8h9.9v9.9h75.3V19.7H85.1z M70.3,27.5c-0.8,0.2-1.6,0.5-2.4,0.8
		c-4.2,1.8-7.4,5.3-8.9,9.6c-0.1,0.4-0.3,0.8-0.4,1.2h-42c-0.1-0.4-0.2-0.8-0.4-1.2c-1.5-4.3-4.7-7.8-8.9-9.6
		c-0.8-0.3-1.6-0.6-2.4-0.8V16.6c0.8-0.2,1.6-0.5,2.4-0.8c4.2-1.8,7.4-5.3,8.9-9.6c0.1-0.4,0.3-0.8,0.4-1.2h42.1
		c0.1,0.4,0.2,0.8,0.4,1.2c1.5,4.3,4.7,7.8,8.9,9.6c0.8,0.3,1.6,0.6,2.4,0.8L70.3,27.5L70.3,27.5z M70.3,32.7v6.5h-6.5
		c0.2-0.4,0.4-0.8,0.6-1.2c0.8-1.6,2-2.9,3.5-4C68.7,33.4,69.5,33,70.3,32.7z M70.3,11.4c-0.8-0.3-1.6-0.7-2.4-1.3
		c-1.5-1-2.7-2.4-3.5-4c-0.2-0.4-0.4-0.8-0.6-1.2h6.5V11.4z M11.4,4.9c-0.2,0.4-0.3,0.8-0.6,1.2c-0.8,1.6-2.1,3-3.5,4
		c-0.7,0.5-1.5,0.9-2.4,1.3V4.9H11.4z M4.9,32.7C5.7,33,6.5,33.4,7.3,34c1.5,1,2.7,2.4,3.5,4c0.2,0.4,0.4,0.8,0.6,1.2H4.9V32.7z
		 M14.8,44.1h60.5V14.8h4.9V49H14.8V44.1z M90.1,58.9H24.7v-5h60.5V24.7h4.9V58.9z"/>
	<path d="M37.6,11.2c-6,0-10.8,4.8-10.8,10.8s4.8,10.8,10.8,10.8S48.4,28,48.4,22C48.5,16.1,43.6,11.2,37.6,11.2z M37.6,27.9
		c-3.2,0-5.9-2.6-5.9-5.9c0-3.2,2.6-5.9,5.9-5.9s5.9,2.6,5.9,5.9S40.9,27.9,37.6,27.9z"/>
	<path d="M19,19.6h-6.7c-1.4,0-2.5,1.1-2.5,2.5s1.1,2.5,2.5,2.5H19c1.4,0,2.5-1.1,2.5-2.5S20.4,19.6,19,19.6z"/>
	<path d="M62.9,19.6h-6.7c-1.4,0-2.5,1.1-2.5,2.5s1.1,2.5,2.5,2.5h6.7c1.4,0,2.5-1.1,2.5-2.5S64.3,19.6,62.9,19.6z"/>
</g>
</svg>
