<?xml version="1.0" encoding="utf-8"?>
<!-- Generator: Adobe Illustrator 19.1.0, SVG Export Plug-In . SVG Version: 6.00 Build 0)  -->
<!DOCTYPE svg PUBLIC "-//W3C//DTD SVG 1.1//EN" "http://www.w3.org/Graphics/SVG/1.1/DTD/svg11.dtd">
<svg version="1.1" id="Layer_1" xmlns="http://www.w3.org/2000/svg" xmlns:xlink="http://www.w3.org/1999/xlink" x="0px" y="0px"
	 viewBox="0 0 93.6 80.9" enable-background="new 0 0 93.6 80.9" xml:space="preserve">
<g>
	<path d="M57.3,16.5c2.7-5.8,0.2-12.7-5.6-15.4S39,0.9,36.3,6.7c-1.5,3.1-1.5,6.7,0,9.9c-14.9,3.9-26.1,15.9-28,30.6H0v19.8h7.1
		l4.1,14h71.2l4.1-14h7.1V47.1h-8.3C83.4,32.4,72.2,20.4,57.3,16.5z M85.6,58.9H8v-3.8h77.6V58.9z M43.2,11.5c0-2,1.6-3.6,3.6-3.6
		c2,0,3.6,1.6,3.6,3.6s-1.6,3.6-3.6,3.6l0,0C44.8,15.1,43.2,13.5,43.2,11.5z M46.8,23.1c15.4,0,28.1,10.4,30.4,24H16.4
		C18.7,33.6,31.4,23.1,46.8,23.1z M76.4,72.9H17.2l-1.8-6h62.8L76.4,72.9z"/>
</g>
</svg>
