<?xml version="1.0" encoding="utf-8"?>
<!-- Generator: Adobe Illustrator 19.1.0, SVG Export Plug-In . SVG Version: 6.00 Build 0)  -->
<!DOCTYPE svg PUBLIC "-//W3C//DTD SVG 1.1//EN" "http://www.w3.org/Graphics/SVG/1.1/DTD/svg11.dtd">
<svg version="1.1" id="Layer_1" xmlns="http://www.w3.org/2000/svg" xmlns:xlink="http://www.w3.org/1999/xlink" x="0px" y="0px"
	 viewBox="0 0 64.3 59.9" enable-background="new 0 0 64.3 59.9" xml:space="preserve">
<path d="M63.9,48.2l-3-3.3c-0.3-0.3-0.6-0.5-1-0.5c-0.4,0-0.8,0.1-1.1,0.4L57.5,46l-7.3-7.9l6.2-5.7c0.6-0.6,0.6-1.5,0.1-2.1
	s-1.5-0.6-2.1-0.1L50.3,34l-7.4-8.1l10.8-11.7c0,0,0-0.1,0.1-0.1c0.1-0.1,0.1-0.2,0.2-0.3c0-0.1,0.1-0.1,0.1-0.2c0,0,0-0.1,0-0.1
	l2.1-11.6c0,0,0,0,0,0c0-0.1,0-0.1,0-0.2c0,0,0-0.1,0-0.1c0,0,0-0.1,0-0.1c0-0.1,0-0.1,0-0.2c0,0,0,0,0,0c0,0,0-0.1,0-0.1
	C56,1,56,0.9,56,0.9c0,0,0-0.1-0.1-0.1s0-0.1-0.1-0.1c0,0-0.1-0.1-0.1-0.1c0,0-0.1-0.1-0.1-0.1c0,0-0.1-0.1-0.1-0.1
	c0,0-0.1-0.1-0.1-0.1c0,0-0.1-0.1-0.2-0.1c0,0-0.1,0-0.1,0c-0.1,0-0.1,0-0.2-0.1c0,0,0,0-0.1,0c0,0,0,0,0,0c-0.1,0-0.1,0-0.2,0
	c0,0-0.1,0-0.1,0c-0.1,0-0.1,0-0.2,0c0,0-0.1,0-0.1,0c0,0,0,0,0,0l-11.4,3c-0.1,0-0.1,0-0.2,0.1c0,0,0,0,0,0
	c-0.2,0.1-0.3,0.2-0.5,0.3c0,0,0,0,0,0l0,0c0,0,0,0,0,0l-9.9,10.7L22.2,3.5c0,0,0,0,0,0c-0.1-0.1-0.3-0.2-0.4-0.3c0,0,0,0-0.1,0
	c-0.1,0-0.1-0.1-0.2-0.1l-11.4-3c0,0,0,0,0,0c0,0-0.1,0-0.1,0C9.9,0,9.8,0,9.8,0c0,0-0.1,0-0.1,0C9.6,0,9.5,0,9.5,0c0,0,0,0,0,0
	c0,0,0,0-0.1,0c-0.1,0-0.1,0-0.2,0.1c0,0-0.1,0-0.1,0C9,0.2,9,0.2,8.9,0.2c0,0-0.1,0-0.1,0.1c0,0-0.1,0.1-0.1,0.1
	c0,0-0.1,0.1-0.1,0.1c0,0-0.1,0.1-0.1,0.1c0,0-0.1,0.1-0.1,0.1c0,0-0.1,0.1-0.1,0.1c0,0.1,0,0.1-0.1,0.2c0,0,0,0.1,0,0.1
	c0,0,0,0,0,0c0,0.1,0,0.1,0,0.2c0,0,0,0.1,0,0.1c0,0,0,0.1,0,0.1c0,0.1,0,0.1,0,0.2c0,0,0,0,0,0l2.1,11.6c0,0,0,0.1,0,0.1
	c0,0.1,0,0.1,0.1,0.2c0,0.1,0.1,0.2,0.2,0.3c0,0,0,0.1,0.1,0.1l10.8,11.7L14,34l-4.1-3.8c-0.6-0.6-1.6-0.5-2.1,0.1
	c-0.6,0.6-0.5,1.6,0.1,2.1l5.2,4.8v0c0,0,0,0,0,0l1,0.9L6.8,46l-1.3-1.2c-0.3-0.3-0.7-0.4-1.1-0.4c-0.4,0-0.8,0.2-1,0.5l-3,3.3
	c-0.6,0.6-0.5,1.6,0.1,2.1l9.9,9.1c0.3,0.3,0.7,0.4,1,0.4c0.4,0,0.8-0.2,1.1-0.5l3-3.3c0.3-0.3,0.4-0.7,0.4-1.1c0-0.4-0.2-0.8-0.5-1
	l-1.3-1.2l7.3-7.9l6.2,5.7c0.3,0.3,0.7,0.4,1,0.4c0.4,0,0.8-0.2,1.1-0.5c0.6-0.6,0.5-1.6-0.1-2.1l-4.1-3.8l6.6-7.1l6.6,7.1l-4.1,3.8
	C34,49,34,49.9,34.5,50.5c0.3,0.3,0.7,0.5,1.1,0.5c0.4,0,0.7-0.1,1-0.4l6.2-5.7l7.3,7.9L48.9,54c-0.6,0.6-0.6,1.5-0.1,2.1l3,3.3
	c0.3,0.3,0.6,0.5,1,0.5c0,0,0,0,0.1,0c0.4,0,0.7-0.1,1-0.4l9.9-9.1C64.5,49.8,64.5,48.9,63.9,48.2z M48.1,36l-1,0.9c0,0,0,0,0,0
	s0,0,0,0l-1.5,1.4l-7.1-7.7l2.3-2.5L48.1,36z M13.2,12.4l-1.6-8.9l8.7,2.3l9.8,10.6l-6.6,7.2L13.2,12.4z M11.3,56.3l-7.7-7.1l1-1.1
	l1.3,1.2c0,0,0,0,0,0s0,0,0,0l5.2,4.7c0,0,0,0,0,0c0,0,0,0,0,0l1.3,1.2L11.3,56.3z M12,50.8l-3-2.7l7.3-7.9l3,2.7L12,50.8z
	 M20.9,40.3l16.5-17.9c0.6-0.6,0.5-1.6-0.1-2.1c-0.6-0.6-1.6-0.5-2.1,0.1L18.7,38.3l-1.5-1.4c0,0,0,0,0,0s0,0,0,0l-1-0.9L44,5.8
	l8.7-2.3l-1.6,8.9L23.4,42.6L20.9,40.3z M34.2,35.3l2.3-2.5l6.9,7.5l-2.5,2.3L34.2,35.3z M45.1,42.9l3-2.7l7.3,7.9l-3,2.7L45.1,42.9
	z M53,56.3l-1-1.1l1.3-1.2c0,0,0,0,0,0c0,0,0,0,0,0l5.2-4.7c0,0,0,0,0,0s0,0,0,0l1.3-1.2l1,1.1L53,56.3z"/>
</svg>
