<?xml version="1.0" encoding="utf-8"?>
<!-- Generator: Adobe Illustrator 19.1.0, SVG Export Plug-In . SVG Version: 6.00 Build 0)  -->
<!DOCTYPE svg PUBLIC "-//W3C//DTD SVG 1.1//EN" "http://www.w3.org/Graphics/SVG/1.1/DTD/svg11.dtd">
<svg version="1.1" id="Layer_1" xmlns="http://www.w3.org/2000/svg" xmlns:xlink="http://www.w3.org/1999/xlink" x="0px" y="0px"
	 viewBox="0 0 57.4 73.5" enable-background="new 0 0 57.4 73.5" xml:space="preserve">
<g>
	<path d="M56.1,33.3c-0.9-0.9-2.1-1.4-3.4-1.3l-15.2,0.8l8.4-9.5c1.2-1.4,1.5-3.2,1.1-4.8c-0.2-1.1-0.9-2.1-1.9-2.8
		c0,0-20-11.6-20-11.6c-1.6-0.9-3.7-0.7-5.1,0.5l-9.8,8.7c-1.8,1.6-2,4.4-0.4,6.2c1.6,1.8,4.4,2,6.2,0.4l7.4-6.6l6.1,3.6L18.7,29.1
		c-4.5,0.7-8.5,2.8-11.7,5.8l5.6,5.6c2.5-2.3,5.9-3.7,9.6-3.7c7.9,0,14.4,6.4,14.4,14.4c0,3.7-1.4,7.1-3.7,9.6l5.6,5.6
		c3.8-4,6.1-9.4,6.1-15.3c0-3.5-0.8-6.9-2.3-9.8l5.9-0.3l-1.4,17.6c-0.2,2.4,1.6,4.5,4,4.7c0.1,0,0.2,0,0.4,0c2.2,0,4.2-1.7,4.3-4
		l1.8-22.6C57.5,35.5,57,34.2,56.1,33.3z"/>
	<path d="M48.1,14.6c4,0,7.3-3.3,7.3-7.3c0-4-3.3-7.3-7.3-7.3c-4,0-7.3,3.3-7.3,7.3C40.8,11.3,44,14.6,48.1,14.6z"/>
	<path d="M22.3,65.5C14.4,65.5,8,59.1,8,51.1c0-3,0.9-5.8,2.5-8.1l-5.7-5.7C1.8,41.2,0,46,0,51.1c0,12.3,10,22.3,22.3,22.3
		c5.2,0,10-1.8,13.8-4.7L30.4,63C28.1,64.6,25.3,65.5,22.3,65.5z"/>
</g>
</svg>
