<svg xmlns="http://www.w3.org/2000/svg" width="1500" height="1500" viewBox="0 0 1500 1500"><g fill="none" fill-rule="evenodd"><path fill="#E04B4B" d="M750 0a173 173 0 1 1 0 346 173 173 0 0 1 0-346z"/><path fill="#4FADED" d="M750 1154a173 173 0 1 1-.2 346.2 173 173 0 0 1 .2-346.1z"/><path fill="#F4A140" d="M1162.2 173a173 173 0 1 1-.2 346 173 173 0 0 1 .2-346z"/><path fill="#5C377F" d="M458.7 1276.3A173 173 0 1 1 217 1028.8a172.8 172.8 0 0 1 244.5 2.8 173.2 173.2 0 0 1-2.8 244.7z"/><path fill="#FFD836" d="M1327 572.2a173 173 0 1 1 0 346 173 173 0 0 1 0-346z"/><circle cx="173" cy="753.2" r="173" fill="#A94CA6"/><path fill="#62B356" d="M1036.6 1281.3a173.3 173.3 0 0 1 0-244.8 173.3 173.3 0 0 1 244.7 0 173.3 173.3 0 0 1 0 244.8 173.3 173.3 0 0 1-244.7 0z"/></g></svg>