<svg xmlns="http://www.w3.org/2000/svg" width="600" height="200" viewBox="0 0 600 200">
  <g fill="none" fill-rule="evenodd">
    <rect width="600" height="200" fill="#FFF"/>
    <rect width="490" height="84" x="55" y="58" fill="#C00" fill-rule="nonzero" stroke="#C00" stroke-width="12"/>
    <g fill="#FFF" fill-rule="nonzero" transform="translate(61 64)">
      <path d="M58.1534714,0 L64,16.875 L61.6613886,17.890625 C53.9439708,8.75 48.5651644,2.734375 40.8477467,2.734375 C37.8075518,2.734375 36.3264312,4.21875 36.3264312,7.1875 L36.3264312,61.40625 C36.3264312,67.5 41.7831912,67.421875 46.8501827,67.265625 L46.8501827,70 L17.0718636,70 L17.0718636,67.265625 C21.8270402,67.34375 27.8294762,67.578125 27.8294762,60.390625 L27.8294762,6.796875 C27.8294762,2.8125 23.6199756,2.734375 22.9963459,2.734375 C15.7466504,2.734375 9.43239951,9.0625 2.33861145,17.890625 L0,16.875 L5.76857491,0 L58.1534714,0 Z"/>
      <path d="M88.8262454,0 L88.8262454,2.73132664 C84.4823815,2.80936455 80.217497,3.27759197 80.217497,9.20847269 L80.217497,32.3076923 L110.703524,32.3076923 L110.703524,9.67670011 C110.703524,2.80936455 105.806804,2.80936455 101.778858,2.80936455 L101.778858,0 L128,0 L128,2.73132664 C123.893074,2.80936455 119.391252,3.19955407 119.391252,9.20847269 L119.391252,60.7915273 C119.391252,67.0345596 124.208991,67.1125975 128,67.2686734 L128,70 L101.778858,70 L101.778858,67.2686734 C105.411908,67.2686734 110.703524,67.1906355 110.703524,60.7915273 L110.703524,35.819398 L80.217497,35.819398 L80.217497,61.4158305 C80.217497,66.8784838 85.1142163,67.0345596 88.8262454,67.1906355 L88.8262454,69.9219621 L63,69.9219621 L63,67.1125975 C66.3961118,67.1125975 71.6087485,66.8004459 71.6087485,60.6354515 L71.6087485,9.13043478 C71.6087485,5.07246377 69.5552855,2.65328874 65.0534629,2.65328874 L63,2.65328874 L63,0 L88.8262454,0 Z M180.915436,0 L186.910067,16.7222222 L184.418792,17.6555556 C175.699329,6.45555556 171.339597,2.8 157.871141,2.8 C151.175839,2.8 147.750336,3.73333333 147.750336,9.25555556 L147.750336,32.5111111 L153.978523,32.5111111 C166.045638,32.5111111 167.758389,26.7555556 168.77047,20.4555556 L171.339597,20.4555556 L171.339597,47.5222222 L168.77047,47.5222222 C168.45906,43.7888889 167.758389,35.3111111 153.978523,35.3111111 L147.750336,35.3111111 L147.750336,61.3666667 C147.750336,66.4222222 151.954362,67.1222222 156.469799,67.1222222 C168.848322,67.1222222 173.830872,66.1888889 185.66443,51.3333333 L188,52.2666667 L182.005369,70 L130,70 L130,67.4333333 C135.761074,67.3555556 139.108725,67.1222222 139.108725,59.1111111 L139.108725,9.25555556 C139.108725,3.03333333 134.359732,3.03333333 130,3.03333333 L130,0 L180.915436,0 Z M232.881842,0 L232.881842,2.73615635 C229.363162,2.81433225 224.827976,2.97068404 224.827976,6.95765472 C224.827976,7.73941368 225.140747,8.67752443 225.140747,8.91205212 L237.807993,54.9576547 L238.042572,54.9576547 L250.318853,12.1172638 C248.129453,5.31596091 245.783666,3.04885993 239.059079,2.97068404 L239.059079,0 L265.801043,0 L265.801043,2.73615635 C263.064292,2.81433225 257.434405,2.97068404 257.434405,7.19218241 C257.434405,7.66123779 257.668983,8.20846906 257.747176,8.67752443 L270.805387,55.0358306 L271.039965,55.0358306 L282.143354,14.228013 C282.456125,12.6644951 283.159861,10.3973941 283.159861,7.73941368 C283.159861,2.89250814 278.546481,2.73615635 275.653345,2.65798046 L275.653345,0 L297,0 L297,2.73615635 C290.74457,3.04885993 288.398784,4.76872964 285.192876,16.5732899 L270.258036,72 L267.208514,72 L252.039096,18.1368078 L251.804518,18.1368078 L236.713293,71.9218241 L233.976542,71.9218241 L217.008688,10.6319218 C214.975673,3.12703583 209.111208,2.81433225 207,2.81433225 L207,0 L232.881842,0 L232.881842,0 Z M351.915436,0 L357.910067,16.7781494 L355.418792,17.7146042 C346.699329,6.47714604 342.339597,2.80936455 328.871141,2.80936455 C322.175839,2.80936455 318.750336,3.7458194 318.750336,9.28651059 L318.750336,32.6198439 L324.978523,32.6198439 C337.045638,32.6198439 338.758389,26.845039 339.77047,20.5239688 L342.339597,20.5239688 L342.339597,47.6811594 L339.77047,47.6811594 C339.45906,43.93534 338.758389,35.4292085 324.978523,35.4292085 L318.750336,35.4292085 L318.750336,61.5719064 C318.750336,66.6443701 322.954362,67.3467113 327.469799,67.3467113 C339.848322,67.3467113 344.830872,66.4102564 356.66443,51.5050167 L359,52.4414716 L353.005369,70 L301,70 L301,67.4247492 C306.761074,67.3467113 310.108725,67.1125975 310.108725,59.0746934 L310.108725,9.28651059 C310.108725,3.04347826 305.359732,3.04347826 301,3.04347826 L301,0 L351.915436,0 Z"/>
      <path d="M407.915436,0 L413.910067,17.2 L411.418792,18.16 C402.699329,6.64 398.339597,2.88 384.871141,2.88 C378.175839,2.88 374.750336,3.84 374.750336,9.52 L374.750336,33.44 L380.978523,33.44 C393.045638,33.44 394.758389,27.52 395.77047,21.04 L398.339597,21.04 L398.339597,48.88 L395.77047,48.88 C395.45906,45.04 394.758389,36.32 380.978523,36.32 L374.750336,36.32 L374.750336,63.12 C374.750336,68.32 378.954362,69.04 383.469799,69.04 C395.848322,69.04 400.830872,68.08 412.66443,52.8 L415,53.76 L409.005369,72 L357,72 L357,69.36 C362.761074,69.28 366.108725,69.04 366.108725,60.8 L366.108725,9.52 C366.108725,3.12 361.359732,3.12 357,3.12 L357,0 L407.915436,0 Z"/>
      <path d="M439.522424,0 L439.522424,2.73132664 C434.324848,2.80936455 431.066667,3.04347826 431.066667,9.83277592 L431.066667,37.5362319 L454.106667,13.5785953 C455.813333,11.7837235 458.295758,8.74024526 458.295758,6.47714604 C458.295758,3.43366778 455.115152,2.96544036 451.85697,2.73132664 L451.85697,0 L475.052121,0 L475.052121,2.73132664 C470.785455,2.96544036 466.596364,4.44816054 462.252121,9.05239688 L445.495758,26.2207358 L467.682424,60.7134894 C471.173333,66.1761427 473.655758,66.9565217 478,67.1906355 L478,69.9219621 L451.934545,69.9219621 L451.934545,67.1906355 C454.261818,67.1125975 459.226667,66.9565217 459.226667,64.1471572 C459.226667,63.1326644 458.528485,61.9620959 458.450909,61.8060201 L439.522424,32.6198439 L431.066667,41.6722408 L431.066667,60.0111483 C431.066667,66.722408 435.02303,67.1125975 439.522424,67.2686734 L439.522424,70 L414,70 L414,67.2686734 C419.507879,67.1906355 422.688485,66.5663322 422.688485,57.9041249 L422.688485,10.3010033 C422.688485,3.19955407 418.964848,2.96544036 414.387879,2.80936455 L414.387879,0 L439.522424,0 Z"/>
    </g>
  </g>
</svg>
