<svg xmlns="http://www.w3.org/2000/svg" width="600" height="200" viewBox="0 0 600 200">
  <g fill="none" fill-rule="evenodd">
    <rect width="600" height="200" fill="#FFF"/>
    <path fill="#000" fill-rule="nonzero" d="M38.154264,6.9214876 C38.154264,1.38429752 32.9011407,0 28.7539381,0 L28.7539381,0.830578512 C31.2422596,0.830578512 33.1776209,1.66115702 33.1776209,3.59917355 C33.1776209,4.70661157 32.3481803,6.3677686 29.8598588,6.3677686 C27.9244976,6.3677686 23.7772949,5.26033058 20.736013,4.15289256 C17.1417708,2.76859504 13.8240087,1.66115702 11.059207,1.66115702 C5.52960348,1.66115702 1.65888104,5.81404959 1.65888104,10.5206612 C1.65888104,14.6735537 4.70016295,16.0578512 5.80608365,16.6115702 L6.08256382,16.0578512 C5.52960348,15.5041322 4.70016295,14.9504132 4.70016295,13.2892562 C4.70016295,12.1818182 5.80608365,10.2438017 8.57088539,10.2438017 C11.059207,10.2438017 14.376969,11.3512397 18.8006518,12.7355372 C22.6713743,13.8429752 26.8185769,14.6735537 29.0304183,14.9504132 L29.0304183,23.5330579 L24.8832156,27.1322314 L24.8832156,27.4090909 L29.0304183,31.0082645 L29.0304183,42.9132231 C26.8185769,44.2975207 24.3302553,44.5743802 22.1184139,44.5743802 C17.9712113,44.5743802 14.376969,43.4669421 11.3356871,40.1446281 L22.6713743,34.607438 L22.6713743,15.5041322 L8.84736556,21.5950413 C9.95328626,17.9958678 12.9945682,15.5041322 16.0358501,13.8429752 L15.7593699,13.0123967 C7.46496469,15.2272727 0,22.9793388 0,32.392562 C0,43.4669421 9.12384574,51.7727273 19.3536122,51.7727273 C30.4128191,51.7727273 37.6013036,42.9132231 37.6013036,33.7768595 L37.0483433,33.7768595 C35.3894622,37.3760331 32.9011407,40.6983471 29.8598588,42.3595041 L29.8598588,31.0082645 L34.2835416,27.4090909 L34.2835416,27.1322314 L29.8598588,23.5330579 L29.8598588,14.9504132 C34.0070614,14.9504132 38.154264,12.1818182 38.154264,6.9214876 Z M14.1004889,37.3760331 L10.7827268,39.0371901 C8.84736556,36.5454545 7.74144487,33.2231405 7.74144487,28.5165289 C7.74144487,26.5785124 7.74144487,24.3636364 8.29440521,22.7024793 L14.1004889,20.2107438 L14.1004889,37.3760331 L14.1004889,37.3760331 Z M43.4073873,43.7438017 L39.813145,46.5123967 L40.3661054,47.0661157 L42.0249864,45.6818182 L48.1075502,51.2190083 L56.4019555,45.6818182 L56.1254753,45.1280992 L53.9136339,46.5123967 L51.1488322,43.7438017 L51.1488322,24.9173554 L53.3606735,23.2561983 L58.0608365,27.1322314 L58.0608365,44.0206612 C58.0608365,54.5413223 55.8489951,56.2024793 51.1488322,57.8636364 L51.1488322,58.6942149 C58.890277,58.9710744 66.0787615,56.4793388 66.0787615,42.9132231 L66.0787615,24.6404959 L68.5670831,22.7024793 L68.0141228,22.1487603 L65.8022814,23.8099174 L58.890277,17.9958678 L51.1488322,23.8099174 L51.1488322,1.10743802 L50.5958718,1.10743802 L40.9190657,7.75206612 L40.9190657,8.30578512 C42.0249864,8.85950413 43.6838675,9.41322314 43.6838675,12.4586777 L43.4073873,43.7438017 L43.4073873,43.7438017 Z M94.0032591,40.6983471 L87.0912548,45.9586777 L80.1792504,40.4214876 L80.1792504,37.0991736 L93.1738186,28.2396694 L93.1738186,27.9628099 L86.5382944,17.9958678 L72.1613254,25.7479339 L72.1613254,44.0206612 L69.3965236,46.2355372 L69.949484,46.7892562 L72.4378055,44.8512397 L81.8381315,51.7727273 L94.2797393,41.8057851 L94.0032591,40.6983471 L94.0032591,40.6983471 Z M80.1792504,35.9917355 L80.1792504,22.4256198 L80.7322108,22.1487603 L86.8147746,31.838843 L80.1792504,35.9917355 Z M146.810972,4.42975207 C146.810972,3.59917355 146.534492,2.76859504 146.258012,1.93801653 L145.705052,1.93801653 C144.875611,4.15289256 143.76969,5.26033058 141.004889,5.26033058 C138.516567,5.26033058 136.857686,3.87603306 135.751765,2.76859504 L127.73384,11.9049587 L128.286801,12.4586777 L131.051602,9.96694215 C132.710483,11.3512397 134.092884,12.4586777 137.963607,12.7355372 L137.963607,35.714876 L121.651276,7.75206612 C120.268876,5.53719008 118.333514,2.49173554 114.462792,2.49173554 C110.039109,2.49173554 106.168387,6.3677686 106.721347,12.4586777 L107.550788,12.4586777 C107.827268,10.7975207 108.656708,8.85950413 110.59207,8.85950413 C111.97447,8.85950413 113.356871,10.2438017 114.186312,11.6280992 L114.186312,20.7644628 C109.209669,20.7644628 105.891907,22.9793388 105.891907,27.1322314 C105.891907,29.3471074 106.997827,32.6694215 110.315589,33.5 L110.315589,32.946281 C109.762629,32.392562 109.486149,31.838843 109.486149,31.0082645 C109.486149,29.6239669 110.59207,28.5165289 112.527431,28.5165289 L113.909832,28.5165289 L113.909832,40.1446281 C108.103748,40.1446281 103.403585,43.4669421 103.403585,49.0041322 C103.403585,54.2644628 107.827268,56.7561983 112.803911,56.4793388 L112.803911,55.9256198 C109.762629,55.6487603 108.380228,54.2644628 108.380228,52.3264463 C108.380228,49.8347107 110.039109,48.7272727 112.250951,48.7272727 C114.462792,48.7272727 116.398153,50.1115702 117.780554,51.7727273 L125.798479,42.9132231 L125.245519,42.3595041 L123.310158,44.5743802 C120.268876,41.8057851 118.609995,40.9752066 115.015752,40.4214876 L115.015752,12.7355372 L137.134166,51.4958678 L138.793047,51.4958678 L138.793047,12.7355372 C142.94025,12.4586777 146.810972,9.13636364 146.810972,4.42975207 L146.810972,4.42975207 Z M166.994025,40.6983471 L160.082021,45.9586777 L153.170016,40.4214876 L153.170016,37.0991736 L166.164584,28.2396694 L166.164584,27.9628099 L159.52906,17.9958678 L145.152091,25.7479339 L145.152091,44.0206612 L142.38729,46.2355372 L142.94025,46.7892562 L145.428571,44.8512397 L154.828897,51.7727273 L167.270505,41.8057851 L166.994025,40.6983471 L166.994025,40.6983471 Z M153.170016,35.9917355 L153.170016,22.4256198 L153.722977,22.1487603 L159.80554,31.838843 L153.170016,35.9917355 L153.170016,35.9917355 Z M212.060293,21.0413223 L210.124932,22.4256198 L204.871809,17.9958678 L198.789245,23.5330579 L201.277567,26.0247934 L201.277567,46.7892562 L194.642042,42.6363636 L194.642042,25.4710744 L196.853884,24.0867769 L190.49484,17.9958678 L184.412276,23.5330579 L186.900598,26.0247934 L186.900598,45.9586777 L186.071157,46.5123967 L180.265073,42.3595041 L180.265073,25.7479339 C180.265073,21.8719008 178.329712,20.7644628 176.117871,19.3801653 C174.18251,17.9958678 173.076589,17.1652893 173.076589,15.2272727 C173.076589,13.5661157 174.73547,12.7355372 175.56491,12.1818182 L175.56491,11.6280992 C173.353069,11.6280992 167.546985,13.8429752 167.546985,19.1033058 C167.546985,21.8719008 168.929386,22.9793388 170.311787,24.3636364 C171.694188,25.7479339 173.076589,26.8553719 173.076589,29.3471074 L173.076589,45.4049587 L170.035307,47.6198347 L170.588267,48.1735537 L173.353069,45.9586777 L179.712113,51.4958678 L186.624117,46.7892562 L194.365562,51.4958678 L209.019011,42.9132231 L209.019011,24.3636364 L212.613254,21.5950413 L212.060293,21.0413223 L212.060293,21.0413223 Z M263.485606,5.81404959 L260.720804,8.30578512 L254.63824,2.76859504 L245.514394,9.41322314 L245.514394,3.32231405 L244.684954,3.32231405 L244.961434,48.1735537 C244.131993,48.1735537 241.643672,47.6198347 239.708311,47.0661157 L239.15535,9.69008264 C239.15535,6.9214876 237.219989,3.04545455 232.243346,3.04545455 C227.266703,3.04545455 223.948941,6.9214876 223.948941,10.7975207 L224.778381,10.7975207 C225.054861,9.13636364 225.884302,7.75206612 227.543183,7.75206612 C229.202064,7.75206612 230.584465,8.85950413 230.584465,12.4586777 L230.584465,23.2561983 C225.607822,23.5330579 222.56654,26.3016529 222.56654,29.9008264 C222.56654,32.1157025 223.672461,35.4380165 226.990223,35.4380165 L226.990223,34.8842975 C225.884302,34.3305785 225.607822,33.5 225.607822,32.946281 C225.607822,31.285124 226.990223,30.731405 229.202064,30.731405 L230.307985,30.731405 L230.307985,47.8966942 C226.160782,49.2809917 224.501901,52.3264463 224.501901,55.6487603 C224.501901,60.3553719 228.096143,63.677686 233.625747,63.677686 C237.496469,63.677686 240.814231,63.1239669 244.131993,62.2933884 C246.896795,61.7396694 250.491037,60.9090909 252.149919,60.9090909 C254.36176,60.9090909 255.1912,62.0165289 255.1912,63.4008264 C255.1912,65.338843 254.36176,66.1694215 253.255839,66.446281 L253.255839,67 C257.679522,66.1694215 260.444324,63.4008264 260.444324,59.2479339 C260.444324,55.0950413 256.297121,52.6033058 251.873438,52.6033058 C249.661597,52.6033058 244.961434,53.4338843 241.643672,53.9876033 C237.772949,54.8181818 233.902227,55.3719008 232.796306,55.3719008 C230.860945,55.3719008 228.649104,54.5413223 228.649104,51.7727273 C228.649104,49.5578512 230.584465,47.6198347 235.284628,47.6198347 C237.772949,47.6198347 240.814231,47.8966942 243.855513,48.7272727 C247.173275,49.5578512 250.214557,50.3884298 252.979359,50.3884298 C257.126562,50.3884298 260.720804,49.0041322 260.720804,43.1900826 L260.720804,9.13636364 L264.038566,6.3677686 L263.485606,5.81404959 L263.485606,5.81404959 Z M252.149919,22.7024793 C251.320478,23.5330579 250.214557,24.3636364 248.832156,24.3636364 C247.449756,24.3636364 246.067355,23.5330579 245.514394,22.7024793 L245.514394,10.5206612 L248.279196,8.58264463 L252.149919,12.1818182 L252.149919,22.7024793 Z M252.149919,31.0082645 C251.596958,30.4545455 250.214557,29.6239669 248.832156,29.6239669 C247.449756,29.6239669 246.067355,30.4545455 245.514394,31.0082645 L245.514394,23.8099174 C246.067355,24.3636364 247.449756,25.1942149 248.832156,25.1942149 C250.214557,25.1942149 251.596958,24.3636364 252.149919,23.8099174 L252.149919,31.0082645 Z M252.149919,44.0206612 C252.149919,46.2355372 250.767518,48.4504132 247.726236,48.4504132 L245.514394,48.4504132 L245.514394,32.1157025 C246.067355,31.5619835 247.449756,30.731405 248.832156,30.731405 C250.214557,30.731405 251.320478,31.5619835 252.149919,32.1157025 L252.149919,44.0206612 L252.149919,44.0206612 Z M290.027702,24.3636364 L281.180337,17.9958678 L267.632808,25.7479339 L267.632808,43.7438017 L264.868007,45.9586777 L265.144487,46.5123967 L267.356328,44.8512397 L276.203694,51.4958678 L290.027702,43.1900826 L290.027702,24.3636364 L290.027702,24.3636364 Z M275.097773,41.8057851 L275.097773,21.8719008 L282.009777,26.8553719 L282.009777,46.5123967 L275.097773,41.8057851 L275.097773,41.8057851 Z M316.293319,18.5495868 L315.740359,18.5495868 C314.910918,19.1033058 314.081477,19.6570248 313.252037,19.6570248 C312.146116,19.6570248 310.763715,19.1033058 310.210755,18.2727273 L309.657795,18.2727273 L304.957632,23.5330579 L300.257469,18.2727273 L291.963064,23.8099174 L292.239544,24.3636364 L294.451385,22.9793388 L297.216187,26.0247934 L297.216187,43.4669421 L293.621945,46.2355372 L294.174905,46.7892562 L295.833786,45.4049587 L302.46931,50.9421488 L311.040196,45.1280992 L310.763715,44.5743802 L308.275394,45.9586777 L304.957632,43.1900826 L304.957632,23.8099174 C306.340033,25.1942149 307.998914,26.5785124 309.934275,26.5785124 C313.804997,26.8553719 316.016839,22.9793388 316.293319,18.5495868 L316.293319,18.5495868 Z M349.47094,45.1280992 L340.070614,51.4958678 L327.352526,32.1157025 L336.476372,17.9958678 L337.029332,17.9958678 C338.135253,19.1033058 339.794134,20.2107438 341.729495,20.2107438 C343.664856,20.2107438 345.047257,19.1033058 345.876697,17.9958678 L346.429658,17.9958678 C346.153178,23.5330579 342.282455,26.8553719 339.517653,26.8553719 C336.752852,26.8553719 335.370451,25.4710744 333.71157,24.6404959 L332.882129,26.0247934 L346.706138,46.5123967 L349.47094,44.8512397 L349.47094,45.1280992 L349.47094,45.1280992 Z M319.058121,43.7438017 L315.463878,46.5123967 L316.016839,47.0661157 L317.67572,45.6818182 L323.758284,51.2190083 L332.052689,45.6818182 L331.499728,45.1280992 L329.287887,46.5123967 L326.523085,43.7438017 L326.523085,1.10743802 L326.246605,1.10743802 L316.293319,7.75206612 L316.293319,8.30578512 C317.39924,8.85950413 319.058121,9.13636364 319.058121,12.4586777 L319.058121,43.7438017 L319.058121,43.7438017 Z M395.366649,6.9214876 C395.366649,1.38429752 390.113525,0 385.966323,0 L385.966323,0.830578512 C388.454644,0.830578512 390.390005,1.66115702 390.390005,3.59917355 C390.390005,4.70661157 389.560565,6.3677686 387.072243,6.3677686 C385.136882,6.3677686 380.98968,5.26033058 377.948398,4.15289256 C374.354155,3.04545455 371.036393,1.93801653 368.271592,1.93801653 C362.741988,1.93801653 358.871266,6.09090909 358.871266,10.7975207 C358.871266,14.9504132 361.912548,16.3347107 363.018468,16.8884298 L363.294948,16.3347107 C362.465508,15.7809917 361.636067,15.2272727 361.636067,13.5661157 C361.636067,12.4586777 362.741988,10.5206612 365.50679,10.5206612 C367.995111,10.5206612 371.312873,11.6280992 375.736556,13.0123967 C379.607279,14.1198347 383.754481,14.9504132 385.966323,15.2272727 L385.966323,23.8099174 L381.81912,27.4090909 L381.81912,27.6859504 L385.966323,31.285124 L385.966323,43.1900826 C383.754481,44.5743802 381.26616,44.8512397 379.054318,44.8512397 C374.907116,44.8512397 371.312873,43.7438017 368.271592,40.4214876 L379.607279,34.8842975 L379.607279,15.5041322 L365.78327,21.5950413 C367.165671,17.9958678 370.206953,15.5041322 372.971754,13.5661157 L372.695274,13.0123967 C364.400869,15.2272727 356.935904,22.7024793 356.935904,32.1157025 C356.935904,43.1900826 366.05975,51.4958678 376.289517,51.4958678 C387.348724,51.4958678 394.537208,42.6363636 394.537208,33.5 L393.984248,33.5 C392.325367,37.0991736 389.837045,40.4214876 386.795763,42.0826446 L386.795763,30.731405 L391.219446,27.1322314 L391.219446,26.8553719 L387.072243,23.2561983 L387.072243,14.9504132 C391.219446,14.9504132 395.366649,12.1818182 395.366649,6.9214876 Z M371.312873,37.3760331 L367.995111,39.0371901 C366.05975,36.5454545 364.953829,33.2231405 364.953829,28.5165289 C364.953829,26.5785124 365.23031,24.3636364 365.78327,22.7024793 L371.589354,20.2107438 L371.312873,37.3760331 L371.312873,37.3760331 Z M405.043455,4.15289256 L404.766974,4.15289256 L399.237371,8.85950413 L399.237371,9.13636364 L403.937534,14.3966942 L404.490494,14.3966942 L410.020098,9.69008264 L410.020098,9.41322314 L405.043455,4.15289256 L405.043455,4.15289256 Z M413.33786,45.1280992 L411.126018,46.5123967 L408.361217,43.7438017 L408.361217,24.6404959 L411.126018,22.7024793 L410.573058,22.1487603 L408.637697,23.8099174 L403.661054,17.9958678 L395.643129,23.5330579 L396.196089,24.3636364 L398.13145,22.9793388 L400.619772,26.0247934 L400.619772,44.0206612 L397.02553,46.7892562 L397.30201,47.3429752 L399.237371,45.9586777 L405.319935,51.4958678 L413.61434,45.9586777 L413.33786,45.1280992 L413.33786,45.1280992 Z M459.510049,44.8512397 L457.574688,46.2355372 L454.533406,43.4669421 L454.533406,24.6404959 L457.298207,22.4256198 L456.745247,21.8719008 L454.533406,23.8099174 L448.174362,17.9958678 L439.879957,23.8099174 L433.520913,17.9958678 L425.779468,23.8099174 L420.802825,17.9958678 L412.7849,23.5330579 L413.06138,24.3636364 L414.996741,22.9793388 L417.761543,26.0247934 L417.761543,44.0206612 L415.549701,46.2355372 L421.908745,51.4958678 L427.991309,45.9586777 L425.502988,43.4669421 L425.502988,24.6404959 L427.991309,22.9793388 L432.138512,26.8553719 L432.138512,43.4669421 L429.92667,45.6818182 L436.285714,50.9421488 L442.368278,45.4049587 L439.879957,42.9132231 L439.879957,24.6404959 L442.091798,23.2561983 L446.515481,27.1322314 L446.515481,43.7438017 L444.58012,45.6818182 L450.939163,51.4958678 L459.510049,45.6818182 L459.510049,44.8512397 L459.510049,44.8512397 Z M483.563824,40.6983471 L476.65182,45.9586777 L469.739815,40.4214876 L469.739815,37.0991736 L482.734383,28.2396694 L482.734383,27.9628099 L476.098859,17.9958678 L461.72189,25.7479339 L461.72189,44.5743802 L471.398696,51.4958678 L483.840304,41.5289256 L483.563824,40.6983471 L483.563824,40.6983471 Z M469.739815,35.9917355 L469.739815,22.4256198 L470.292776,22.1487603 L476.375339,31.838843 L469.739815,35.9917355 L469.739815,35.9917355 Z M508.72352,33.5 L503.470397,29.3471074 C507.064639,26.3016529 508.44704,22.1487603 508.44704,19.3801653 L508.44704,17.7190083 L507.894079,17.7190083 C507.341119,19.1033058 506.235198,20.4876033 504.023357,20.4876033 C501.811515,20.4876033 500.429115,19.3801653 499.046714,17.7190083 L486.605106,24.6404959 L486.605106,34.607438 L491.305269,38.2066116 C486.605106,42.3595041 485.775665,45.1280992 485.775665,47.3429752 C485.775665,50.1115702 487.158066,52.0495868 489.369908,52.8801653 L489.646388,52.3264463 C489.093427,51.7727273 488.540467,51.4958678 488.540467,50.1115702 C488.540467,49.2809917 489.646388,47.8966942 491.858229,47.8966942 C494.623031,47.8966942 496.281912,49.8347107 497.111353,50.6652893 L509,43.4669421 L509,33.5 L508.72352,33.5 L508.72352,33.5 Z M505.682238,25.1942149 C503.746877,28.5165289 499.599674,31.838843 497.111353,33.5 L494.070071,31.0082645 L494.070071,21.3181818 C495.175991,24.0867769 498.217273,26.3016529 501.258555,26.3016529 C503.193916,26.3016529 504.299837,26.0247934 505.682238,25.1942149 L505.682238,25.1942149 Z M500.982075,47.3429752 C499.599674,44.2975207 496.281912,42.0826446 492.96415,42.0826446 C492.134709,42.0826446 489.922868,42.0826446 487.711027,43.4669421 C489.093427,41.2520661 492.68767,37.3760331 497.387833,34.607438 L500.705595,37.3760331 L500.982075,47.3429752 L500.982075,47.3429752 Z" transform="translate(46 67)"/>
  </g>
</svg>
