<svg xmlns="http://www.w3.org/2000/svg" width="600" height="200" viewBox="0 0 600 200">
  <g fill="none" fill-rule="evenodd">
    <rect width="600" height="200" fill="#FFF"/>
    <g fill-rule="nonzero" transform="translate(57 71)">
      <g fill="#222">
        <path d="M0.4,0.7 L17.5,0.7 L47.3,38.4 L47.3,12.8 C47.3,10.3 46.6,8.2 45.1,6.7 C43.7,5.2 41.6,4.3 39,4.2 L39,0.7 L59.1,0.7 L59.1,4.2 C56.3,4.5 54.3,5.3 53.1,6.7 C51.9,8.1 51.3,10.1 51.3,12.8 L51.3,55.7 L47,55.7 L13,12.3 L13,42.3 C13,45.7 13.8,48.2 15.4,49.8 C17,51.4 18.9,52.2 21.3,52.2 L22.2,52.2 L22.2,55.7 L0,55.7 L0,52.2 L1.5,52.2 C3.7,52.2 5.5,51.3 7,49.6 C8.5,47.9 9.2,45.6 9.2,42.9 L9.2,7.5 C7.6,5.3 5.5,4.2 2.9,4.2 L0.4,4.2 L0.4,0.7 L0.4,0.7 Z"/>
        <path d="M89.5 39L65.1 39C65.2 43.9 66.2 47.5 68.1 49.8 70 52.1 72.4 53.3 75.4 53.3 77.5 53.3 79.5 52.7 81.4 51.5 83.3 50.3 85.3 48.2 87.3 45L90 46.7C87.9 50.4 85.5 53.1 82.8 54.7 80.1 56.3 76.8 57.1 72.9 57.1 67.2 57.1 62.6 55.4 59.1 51.9 55.6 48.4 53.8 44 53.8 38.6 53.8 33.2 55.6 28.6 59.1 25 62.6 21.4 67 19.5 72.1 19.5 75.7 19.5 78.7 20.2 81.3 21.7 83.9 23.2 85.9 25.3 87.3 28.1 88.7 30.8 89.4 34.5 89.5 39zM65.1 35.6L76.7 35.6C77.8 35.6 78.6 35.3 79 34.8 79.4 34.3 79.7 33.3 79.7 31.8 79.7 28.9 79 26.7 77.7 25.1 76.4 23.5 74.7 22.7 72.7 22.7 70.3 22.7 68.5 23.8 67.2 25.9 65.9 28 65.3 31.3 65.1 35.6zM88.2 20.9L106.2 20.9 106.2 24.2 105.2 24.2C104.1 24.2 103.3 24.4 102.8 24.7 102.4 25 102.1 25.4 102.1 25.9 102.1 26.2 102.2 26.6 102.4 27L109.7 43.1 116 28.1C115 26.2 114.2 25.1 113.7 24.8 113.1 24.4 112 24.2 110.6 24.2L110.6 20.9 130 20.9 130 24.2 128.8 24.2C127.6 24.2 126.8 24.4 126.3 24.7 125.9 25 125.6 25.5 125.6 26 125.6 26.6 125.8 27.3 126.1 28L133 43 139 28.5C139.1 28.1 139.2 27.6 139.2 27.2 139.2 26.3 138.9 25.6 138.4 25 137.9 24.5 137.2 24.2 136.4 24.2L135 24.2 135 20.9 149 20.9 149 24.2C146.1 24.4 144.1 26 142.9 29L131.7 57 128.9 57 118.2 33 108.4 57 105.6 57 92.3 27C91.8 25.9 91.3 25.2 90.8 24.9 90.3 24.5 89.5 24.3 88.3 24.3L88.2 20.9 88.2 20.9zM171.4 21.9L173.8 19 176.1 19 176.8 30.9 173.8 30.9C172.2 27.7 170.5 25.5 168.6 24.2 166.7 22.9 164.4 22.3 161.7 22.3 159.4 22.3 157.6 22.7 156.4 23.6 155.2 24.5 154.6 25.6 154.6 27 154.6 28.3 155.1 29.4 156 30.1 156.9 30.8 159.5 31.6 163.7 32.4 167.5 33.2 170.1 33.8 171.3 34.3 173.7 35.3 175.6 36.7 176.9 38.6 178.3 40.5 178.9 42.7 178.9 45.3 178.9 48.5 177.6 51.2 175 53.4 172.4 55.6 169 56.7 164.8 56.7 162.8 56.7 160.9 56.5 159.3 56 157.7 55.5 155.9 54.7 154.2 53.5L151.5 56.6 148.7 56.6 148 43.4 151.1 43.4C153.7 50 158.2 53.4 164.6 53.4 167.2 53.4 169.2 52.9 170.6 51.9 172 50.9 172.7 49.7 172.7 48.3 172.7 47 172.3 46 171.4 45.4 170.5 44.7 168.2 44 164.5 43.2 160.5 42.4 157.7 41.7 156.2 41.1 153.7 40.1 151.8 38.8 150.5 37.1 149.2 35.4 148.6 33.3 148.6 30.9 148.6 27.4 149.8 24.6 152.1 22.4 154.4 20.2 157.5 19.1 161.4 19.1 163.3 19.1 165 19.3 166.5 19.8 168.1 20.1 169.7 20.8 171.4 21.9zM193.6 4.2L193.6.7 221.8.7 221.8 4.2 217 4.2C215.6 4.2 214.7 4.5 214.1 5 213.5 5.5 213.3 6.4 213.3 7.5L213.3 48.4C213.3 50.1 213.6 51.1 214.1 51.6 214.6 52.1 215.8 52.3 217.8 52.3L225.7 52.3C228.6 52.3 231.4 50.9 234 48.1 236.6 45.3 238.5 40.8 239.9 34.7L243.2 34.7 241.9 55.7 193.5 55.7 193.5 52.2 198.3 52.2C199.4 52.2 200.2 51.9 200.7 51.4 201.2 50.9 201.5 50.1 201.5 49.1L201.5 7.1C201.5 6.1 201.2 5.3 200.7 4.9 200.1 4.4 199.2 4.2 197.8 4.2 197.8 4.2 193.6 4.2 193.6 4.2zM280.7 38.5L256.3 38.5C256.4 43.4 257.4 47 259.3 49.3 261.2 51.6 263.6 52.8 266.6 52.8 268.7 52.8 270.7 52.2 272.6 51 274.5 49.8 276.5 47.7 278.5 44.5L281.2 46.2C279.1 49.9 276.7 52.6 274 54.2 271.3 55.8 268 56.6 264.1 56.6 258.4 56.6 253.8 54.9 250.3 51.4 246.8 47.9 245 43.5 245 38.1 245 32.7 246.8 28.1 250.3 24.5 253.8 20.9 258.2 19 263.3 19 266.9 19 269.9 19.7 272.5 21.2 275.1 22.7 277.1 24.8 278.5 27.6 279.8 30.4 280.6 34 280.7 38.5zM256.3 35.1L267.9 35.1C269 35.1 269.8 34.8 270.2 34.3 270.7 33.8 270.9 32.8 270.9 31.3 270.9 28.4 270.2 26.2 268.9 24.6 267.6 23 265.9 22.2 263.9 22.2 261.5 22.2 259.7 23.3 258.4 25.4 257.2 27.6 256.5 30.8 256.3 35.1zM293.1 6.6L296.4 6.6 296.4 20.9 307.9 20.9 307.9 24.9 296.4 24.9 296.4 47C296.4 48.5 296.8 49.6 297.5 50.4 298.2 51.2 299.2 51.6 300.4 51.6 303.9 51.6 305.7 48.4 305.9 41.9L309.2 41.9C309.1 45.3 308.6 48.1 307.6 50.2 306.6 52.3 305.1 53.9 303.2 55.1 301.3 56.2 299.2 56.8 296.8 56.8 294.7 56.8 292.9 56.4 291.4 55.5 289.9 54.7 288.7 53.4 287.8 51.7 286.9 50 286.4 48.2 286.4 46.3L286.4 24.9 280.2 24.9 280.2 21.5C284 21 286.9 19.6 289 17.2 291.2 14.7 292.5 11.2 293.1 6.6zM323.1 6.6L326.4 6.6 326.4 20.9 337.9 20.9 337.9 24.9 326.4 24.9 326.4 47C326.4 48.5 326.8 49.6 327.5 50.4 328.2 51.2 329.2 51.6 330.4 51.6 333.9 51.6 335.7 48.4 335.9 41.9L339.2 41.9C339.1 45.3 338.6 48.1 337.6 50.2 336.6 52.3 335.1 53.9 333.2 55.1 331.3 56.2 329.2 56.8 326.8 56.8 324.7 56.8 322.9 56.4 321.4 55.5 319.9 54.7 318.7 53.4 317.8 51.7 316.9 50 316.4 48.2 316.4 46.3L316.4 24.9 310.2 24.9 310.2 21.5C314 21 316.9 19.6 319 17.2 321.3 14.7 322.6 11.2 323.1 6.6zM376.7 38.5L352.3 38.5C352.4 43.4 353.4 47 355.3 49.3 357.2 51.6 359.6 52.8 362.6 52.8 364.7 52.8 366.7 52.2 368.6 51 370.5 49.8 372.5 47.7 374.5 44.5L377.2 46.2C375.1 49.9 372.7 52.6 370 54.2 367.3 55.8 364 56.6 360.1 56.6 354.4 56.6 349.8 54.9 346.3 51.4 342.8 47.9 341 43.5 341 38.1 341 32.7 342.8 28.1 346.3 24.5 349.8 20.9 354.2 19 359.3 19 362.9 19 365.9 19.7 368.5 21.2 371.1 22.7 373.1 24.8 374.5 27.6 375.8 30.4 376.6 34 376.7 38.5zM352.3 35.1L363.9 35.1C365 35.1 365.8 34.8 366.2 34.3 366.6 33.8 366.9 32.8 366.9 31.3 366.9 28.4 366.2 26.2 364.9 24.6 363.6 23 361.9 22.2 359.9 22.2 357.5 22.2 355.7 23.3 354.4 25.4 353.1 27.5 352.5 30.8 352.3 35.1z"/>
        <path d="M400.2,52.2 L400.2,55.7 L375.9,55.7 L375.9,52.2 L378.9,52.2 C380.1,52.2 381,52 381.6,51.5 C382.2,51 382.5,50.4 382.5,49.5 L382.5,29 C382.5,27.3 382.1,26.1 381.4,25.4 C380.6,24.6 379.6,24.2 378.2,24.2 L376.2,24.2 L376.2,20.9 L391.1,20.1 L391.1,31.4 C392,27.6 393.5,24.7 395.6,22.7 C397.8,20.7 400.2,19.7 402.9,19.7 C405.2,19.7 407,20.3 408.4,21.5 C409.7,22.7 410.4,24.3 410.4,26.2 C410.4,27.9 409.9,29.2 409,30.2 C408.1,31.2 406.9,31.7 405.6,31.7 C404.4,31.7 403.4,31.3 402.5,30.4 C401.6,29.5 401.2,28.4 401.2,27 C401.2,26.2 401.4,25.4 401.8,24.6 C402,24.1 402.1,23.8 402.1,23.6 C402.1,23.3 402,23 401.9,22.8 C401.7,22.6 401.5,22.6 401.1,22.6 C400.2,22.6 399.2,23.1 398.2,24.2 C396.6,25.8 395.2,28.3 394.1,31.7 C393,35.1 392.4,38.5 392.4,42 L392.4,49.5 C392.4,50.4 392.6,51 393.1,51.5 C393.6,52 394.2,52.2 395.1,52.2 C395.1,52.2 400.2,52.2 400.2,52.2 Z"/>
      </g>
      <g fill="#282C71" transform="translate(424)">
        <path d="M33.2,50.1 C33.2,48.2 33.2,46.3 33.2,46.3 C33.2,46.3 33.1,46.3 32.8,46.3 C32.5,46.3 32.4,46.3 32.4,46.3 C32.4,46.3 32.9,47.6 32.8,50.3 C32.7,53 32.3,54 31.9,54.3 C31.6,54.6 31.1,55.1 31,55.2 C30.9,55.2 31.7,55.1 31.9,55 C32.1,54.8 32.3,54.7 32.3,54.7 L32.4,55.7 L32.8,54.8 C32.8,54.8 32.9,54.9 33.1,55.2 C33.3,55.5 33.9,55.7 33.9,55.7 C33.9,55.7 33.5,54.9 33.2,54.3 C33,53.7 33.1,51.9 33.2,50.1 Z"/>
        <path d="M34.4 53.5C34.1 53 34.1 50.9 34.1 50.3 34.1 49.2 34.3 46.2 34.3 46.2 34.3 46.2 34 46.3 33.8 46.3 33.6 46.3 33.5 46.3 33.5 46.3 33.5 46.3 33.4 51.9 33.7 53.4 33.8 54 34.2 54.6 34.6 55.1 35 55.5 35.5 55.7 35.5 55.7 35.5 55.7 35.4 55.5 35.3 55.2 35.2 55 35.2 54.7 35.2 54.7 35.2 54.7 35.6 54.9 35.8 54.9 36 54.9 36.4 55 36.4 55 36.4 55 36.4 55 36.2 54.9 36 54.8 35.8 54.5 35.8 54.5 35.8 54.5 36 54.5 36.4 54.5 36.8 54.5 37.1 54.4 37.1 54.4 37.1 54.4 36.9 54.4 36.7 54.3 36.5 54.2 34.6 53.7 34.4 53.5zM30.5 7.1C30.5 8.1 29.8 9 29 9 28.2 9 27.5 8.2 27.5 7.1 27.5 6.1 28.2 5.2 29 5.2 29.8 5.2 30.5 6.1 30.5 7.1zM29 6.8C28.5 6.8 28.1 7.2 28.1 7.7 28.1 8.2 28.5 8.7 29 8.7 29.5 8.7 29.9 8.3 29.9 7.8 29.9 7.3 29.5 6.8 29 6.8zM36.7 7.7C36.4 8.7 35.5 9.3 34.7 9 33.9 8.8 33.5 7.8 33.8 6.8 34.1 5.8 35 5.2 35.8 5.5 36.6 5.7 37 6.7 36.7 7.7zM35.4 6.9C34.9 6.7 34.4 7 34.2 7.5 34 8 34.3 8.5 34.8 8.7 35.3 8.9 35.8 8.6 36 8.1 36.1 7.6 35.9 7.1 35.4 6.9zM42.6 10C42 10.9 41 11.2 40.3 10.7 39.6 10.2 39.5 9.2 40.1 8.3 40.7 7.4 41.7 7.1 42.4 7.6 43.1 8.1 43.2 9.1 42.6 10zM40.2 9.1C39.9 9.5 40 10.1 40.5 10.4 40.9 10.7 41.5 10.6 41.8 10.1 42.1 9.6 42 9.1 41.5 8.8 41.1 8.6 40.5 8.7 40.2 9.1zM48 11.4C48.5 12.1 48.3 13.1 47.5 13.8 46.7 14.4 45.6 14.4 45.1 13.8 44.6 13.1 44.8 12.1 45.6 11.4 46.4 10.8 47.5 10.8 48 11.4zM45.5 12.3C45.1 12.6 45 13.2 45.4 13.6 45.7 14 46.3 14.1 46.7 13.7 47.1 13.4 47.2 12.8 46.8 12.4 46.4 12 45.9 12 45.5 12.3zM51.7 18.5C50.8 19 49.7 18.9 49.3 18.2 48.9 17.5 49.2 16.5 50.1 15.9 51 15.4 52.1 15.5 52.5 16.2 52.9 16.9 52.6 17.9 51.7 18.5zM49.9 16.7C49.5 17 49.3 17.5 49.6 18 49.9 18.4 50.4 18.6 50.9 18.3 51.3 18 51.5 17.5 51.2 17 50.9 16.6 50.3 16.4 49.9 16.7zM54.3 24.3C53.3 24.6 52.3 24.1 52.1 23.3 51.9 22.5 52.5 21.6 53.5 21.3 54.5 21 55.5 21.5 55.7 22.3 55.9 23.2 55.3 24 54.3 24.3zM54.2 22.8C54.1 22.3 53.5 22 53.1 22.1 52.6 22.2 52.3 22.8 52.4 23.2 52.5 23.7 53.1 24 53.5 23.9 54 23.8 54.3 23.3 54.2 22.8zM57.2 29.6C57.3 30.4 56.5 31.2 55.5 31.3 54.5 31.4 53.6 30.8 53.5 30 53.4 29.2 54.2 28.4 55.2 28.3 56.2 28.1 57.1 28.7 57.2 29.6zM54.6 28.9C54.1 28.9 53.7 29.4 53.8 29.9 53.8 30.4 54.3 30.8 54.8 30.7 55.3 30.7 55.7 30.2 55.6 29.7 55.6 29.2 55.1 28.8 54.6 28.9zM24.1 7.9C24.4 8.9 24 9.9 23.2 10.1 22.4 10.3 21.5 9.7 21.2 8.8 20.9 7.8 21.3 6.8 22.1 6.6 22.9 6.3 23.8 6.9 24.1 7.9zM22.6 8C22.1 8.2 21.8 8.7 22 9.2 22.2 9.7 22.7 10 23.2 9.8 23.7 9.6 24 9.1 23.8 8.6 23.6 8.2 23 7.9 22.6 8zM18.7 10.2C19.3 11.1 19.2 12.1 18.5 12.6 17.8 13.1 16.8 12.8 16.2 11.9 15.6 11 15.7 10 16.4 9.5 17.1 9 18.1 9.4 18.7 10.2zM17.2 10.8C16.8 11.1 16.7 11.7 16.9 12.1 17.2 12.5 17.8 12.6 18.2 12.4 18.6 12.1 18.7 11.5 18.5 11.1 18.2 10.6 17.7 10.5 17.2 10.8zM14.2 16.5C13.7 17.2 12.6 17.2 11.8 16.5 11 15.9 10.8 14.8 11.3 14.1 11.8 13.4 12.9 13.4 13.7 14.1 14.5 14.8 14.7 15.9 14.2 16.5zM12.5 15.2C12.2 15.6 12.2 16.2 12.6 16.5 13 16.8 13.6 16.8 13.9 16.4 14.2 16 14.2 15.4 13.8 15.1 13.4 14.7 12.8 14.7 12.5 15.2zM11.2 21.4C10.9 22.2 9.8 22.4 8.9 22 8 21.6 7.5 20.6 7.8 19.8 8.1 19 9.2 18.8 10.1 19.2 11 19.7 11.5 20.7 11.2 21.4zM10.4 20.1C9.9 19.9 9.4 20.1 9.2 20.6 9 21.1 9.2 21.6 9.7 21.8 10.2 22 10.7 21.8 10.9 21.3 11.1 20.9 10.9 20.3 10.4 20.1zM9.6 26.7C9.5 27.5 8.6 28.1 7.6 28 6.6 27.9 5.8 27.1 5.9 26.3 6 25.5 6.9 24.9 7.9 25 8.9 25.1 9.7 25.9 9.6 26.7zM8.5 25.6C8 25.5 7.5 25.9 7.5 26.4 7.4 26.9 7.8 27.4 8.3 27.4 8.8 27.5 9.3 27.1 9.3 26.6 9.3 26.2 9 25.7 8.5 25.6zM9.3 32.4C9.5 33.2 8.9 34.1 7.9 34.3 6.9 34.6 5.9 34.1 5.7 33.3 5.5 32.5 6.1 31.6 7.1 31.4 8.1 31.2 9.1 31.6 9.3 32.4zM7.8 31.8C7.3 31.9 7 32.4 7.1 32.9 7.2 33.4 7.7 33.7 8.2 33.6 8.7 33.5 9 33 8.9 32.5 8.8 32 8.3 31.7 7.8 31.8z"/>
        <path d="M42,39.7 C42.2,38.1 42,37.4 41.5,35.9 C41.1,34.8 40.4,33.9 39.8,33.3 C39.6,33 39.3,32.8 39.2,32.5 C38.8,31.8 38.3,29.6 38.4,28.1 L38.4,27.7 C38.4,26.4 38.5,25.3 38,24.3 C37.5,23.2 36.7,22.6 36.7,22.6 C36.6,22.6 36.6,22.5 36.6,22.4 C36.6,22.3 36.6,22.2 36.7,22.2 C36.9,22 37.3,21.6 38.1,21.5 C38.3,21.5 38.6,21.5 38.8,21.5 C38.6,21.5 38.4,21.4 38.2,21.4 C37.4,21.4 36.4,22 36.4,22 C36.3,22.1 36.1,22 36.1,21.9 C36,21.8 36,21.7 36.1,21.5 C36.1,21.5 36.4,21 36.8,20.7 C36.1,21 35.4,21.4 35.4,21.4 C35.3,21.5 35.2,21.4 35.1,21.4 C35,21.4 35,21.3 35,21.2 C35,21.1 35,21 35.3,20.6 C35.3,20.5 35.4,20.5 35.5,20.4 C35.5,20.4 35.4,20.4 35.4,20.5 C34.7,21 34.1,21.6 33.7,22.1 C33.1,22.9 32.9,23.8 32.9,24.5 C33.1,24.3 33.3,24.1 33.6,24 C34,23.9 34.4,23.9 34.7,24.2 C35.2,24.6 35.4,25.4 35.3,26.1 C35.2,26.7 35,27.1 34.7,27.7 C34.4,28.2 34.1,28.8 33.9,29.7 C33.4,31.4 34.1,34.2 34.1,34.2 C34.1,34.3 34.1,34.5 34,34.5 C34,34.5 31.7,35.8 29.4,37.9 C27.2,40 25.6,44.2 25.6,44.3 L25.6,44.3 C25.2,45.4 24.7,47.2 24.7,48.7 C24.6,51.2 25.9,52.5 25.9,52.5 C25.9,52.5 25.9,48.9 26.9,47.7 C27.9,46.5 29.8,45.5 31,45.7 C31.7,45.8 32.4,45.8 32.9,45.7 C35.4,45.6 37.5,44.9 38.8,44.3 C40.7,43.3 41.8,41.6 42,39.7 Z"/>
        <path d="M59.2,25 C59.5,24.3 59.7,23.5 59.7,22.7 C59.7,20.6 58.4,18.8 56.6,18 C56.7,17.6 56.7,17.2 56.7,16.8 C56.7,14.2 54.8,12.1 52.3,11.7 C52.2,8.9 50,6.7 47.2,6.7 C47,6.7 46.8,6.7 46.6,6.7 C45.9,4.7 44,3.2 41.7,3.2 C41,3.2 40.4,3.3 39.8,3.6 C38.9,2.2 37.3,1.2 35.5,1.2 C34.3,1.2 33.3,1.6 32.4,2.2 C31.5,1.4 30.3,0.8 28.9,0.8 C27.3,0.8 25.8,1.6 24.9,2.7 C24.2,2.3 23.3,2.1 22.5,2.1 C20.4,2.1 18.6,3.4 17.8,5.2 C17.5,5.1 17.1,5.1 16.7,5.1 C14.1,5.1 12,7 11.6,9.5 C8.8,9.6 6.6,11.8 6.6,14.6 C6.6,14.8 6.6,15 6.6,15.2 C4.5,15.9 3,17.8 3,20.1 C3,20.8 3.1,21.4 3.4,22 C2,22.9 1.1,24.5 1.1,26.3 C1.1,27.4 1.5,28.5 2.1,29.3 C1.2,30.2 0.7,31.5 0.7,32.9 C0.7,35.7 3,38 5.8,38 C6.4,38 7,37.9 7.5,37.7 L16.6,36.4 C16.6,36.4 18.5,39.1 21.2,41.3 C22.2,42.1 23.6,43 24.7,43.7 C25.2,42.5 26.6,39.3 28.5,37.5 C30.5,35.6 32.5,34.5 33.1,34.1 C33,33.4 32.6,31 33,29.5 C33.3,28.6 33.6,28 33.9,27.4 C34.2,26.9 34.4,26.5 34.4,26 C34.5,25.3 34.3,24.8 34,24.6 C33.8,24.5 33.7,24.4 33.5,24.5 C32.9,24.8 32.6,25.5 32.6,25.6 C32.6,25.7 32.5,25.8 32.3,25.8 C32.2,25.8 32.1,25.7 32,25.6 C32,25.5 31.6,23.4 32.9,21.8 C33.4,21.2 34,20.5 34.8,20 C35.8,19.3 36.9,18.9 37,18.9 C37.1,18.9 37.3,18.9 37.3,19 C37.4,19.1 37.3,19.3 37.2,19.4 C37,19.6 36.5,20 36,20.4 C36.4,20.2 36.8,20.1 37.1,20 C37.8,19.8 39.1,20 39.1,20 C39.2,20 39.3,20.1 39.3,20.3 C39.3,20.4 39.2,20.6 39.1,20.6 C39.1,20.6 38.2,20.8 37.5,21 C37.6,21 37.7,21 37.8,21 C39.4,21 40.3,22 40.4,22 C40.5,22.1 40.5,22.2 40.4,22.3 C40.3,22.4 40.2,22.5 40.1,22.4 C40.1,22.4 38.8,22 37.8,22.1 C37.4,22.2 37.1,22.3 37,22.4 C37.3,22.7 37.9,23.2 38.2,24.1 C38.7,25.2 38.7,26.4 38.6,27.7 L38.6,28.1 C38.6,29.6 39,31.6 39.3,32.2 C39.4,32.4 39.6,32.6 39.9,32.9 C40.5,33.6 41.3,34.5 41.7,35.7 C42.3,37.3 42.5,38.1 42.3,39.7 L42.4,39.6 C43.2,38.1 43.6,36.8 43.6,36.8 L48.3,34.9 C48.3,34.9 53.8,35 55.9,34.6 C57.6,34.3 58.7,33.8 59.5,32.7 C60.4,31.8 61,30.5 61,29.1 C61.3,27.4 60.5,25.9 59.2,25 Z M7.3,35.2 C5.6,35.6 4,35 3.7,33.8 C3.4,32.6 4.5,31.3 6.2,30.9 C7.9,30.5 9.5,31.1 9.8,32.3 C10.1,33.5 9,34.8 7.3,35.2 Z M6.8,28.6 C5.1,28.4 3.8,27.3 4,26 C4.1,24.8 5.6,24 7.4,24.2 C9.1,24.4 10.4,25.5 10.2,26.8 C10,28 8.5,28.8 6.8,28.6 Z M11.7,21.7 C11.2,22.8 9.5,23.1 7.9,22.4 C6.3,21.7 5.5,20.2 6,19.1 C6.5,18 8.2,17.7 9.8,18.4 C11.3,19.1 12.2,20.6 11.7,21.7 Z M14.6,16.9 C13.8,17.8 12.1,17.7 10.8,16.7 C9.5,15.6 9,14 9.8,13 C10.6,12.1 12.3,12.2 13.6,13.2 C14.9,14.2 15.4,15.9 14.6,16.9 Z M18.8,13.1 C17.8,13.8 16.2,13.2 15.2,11.7 C14.2,10.3 14.3,8.6 15.3,7.9 C16.3,7.2 17.9,7.8 18.9,9.2 C19.8,10.7 19.8,12.4 18.8,13.1 Z M23.4,10.6 C22.2,11 20.9,9.9 20.4,8.3 C19.9,6.7 20.4,5 21.6,4.7 C22.8,4.3 24.1,5.4 24.6,7 C25.1,8.7 24.5,10.3 23.4,10.6 Z M29,9.6 C27.8,9.6 26.8,8.2 26.8,6.5 C26.8,4.8 27.8,3.4 29,3.4 C30.2,3.4 31.2,4.8 31.2,6.5 C31.2,8.2 30.2,9.6 29,9.6 Z M37.6,7.2 C37.1,8.8 35.7,9.9 34.6,9.5 C33.4,9.1 32.9,7.5 33.4,5.9 C33.9,4.3 35.3,3.2 36.4,3.6 C37.6,3.9 38.1,5.6 37.6,7.2 Z M43.6,9.8 C42.6,11.2 41,11.8 40,11.2 C39,10.5 38.9,8.8 39.9,7.4 C40.9,6 42.5,5.4 43.5,6 C44.5,6.6 44.6,8.4 43.6,9.8 Z M48.5,13.9 C47.2,15 45.5,15.1 44.7,14.1 C43.9,13.2 44.4,11.5 45.7,10.4 C47,9.3 48.7,9.2 49.5,10.2 C50.3,11.2 49.8,12.8 48.5,13.9 Z M48.8,18.4 C48.2,17.4 48.8,15.8 50.3,14.9 C51.8,14 53.5,14.1 54.1,15.1 C54.7,16.1 54.1,17.7 52.6,18.6 C51.2,19.6 49.5,19.5 48.8,18.4 Z M51.6,23.5 C51.3,22.3 52.4,21 54,20.5 C55.7,20 57.3,20.6 57.6,21.8 C57.9,23 56.8,24.3 55.2,24.8 C53.5,25.3 51.9,24.7 51.6,23.5 Z M56.2,31.9 C54.5,32.1 53,31.2 52.9,30 C52.8,28.8 54.1,27.7 55.8,27.5 C57.5,27.3 59,28.2 59.1,29.4 C59.3,30.6 58,31.7 56.2,31.9 Z"/>
      </g>
    </g>
  </g>
</svg>
