<svg xmlns="http://www.w3.org/2000/svg" width="600" height="200" viewBox="0 0 600 200">
  <g fill="none" fill-rule="evenodd">
    <rect width="600" height="200" fill="#FFF"/>
    <path fill="#42306A" fill-rule="nonzero" d="M512.427776 2C505.890636 2.11051693 499.555771 2.11051693 493.469151 2.11051693 487.382531 2.11051693 481.516574 2.11051693 476 2L476 3.69459299C480.716671 4.11824124 482.206146 7.20350564 482.206146 14.1200238L482.206146 51.8799762C482.206146 58.7872846 480.716671 61.872549 476 62.2961973L476 64C482.629083 63.8894831 489.000726 63.7881759 495.206872 63.7881759 501.413017 63.7881759 507.297363 63.8986928 512.924268 64L514 49.1170529 512.676022 48.896019C510.028067 57.295306 506.800871 60.0582294 500.502782 60.0582294 494.793128 60.0582294 492.972659 57.8294712 492.972659 51.6589424L492.972659 34.7498515 500.328091 34.7498515C504.925236 34.7498515 507.361723 36.8773024 508.189209 42.1176471L509.513187 42.1176471 509.513187 23.2653001 508.189209 23.2653001C507.940963 28.1556744 505.210259 30.7067736 500.079845 30.7067736L492.954271 30.7067736 492.954271 5.84046346 501.486571 5.84046346C507.113477 5.84046346 510.018872 8.71390374 511.094604 15.5199049L512.418582 15.5199049 512.427776 2zM473.981837 2C467.851665 2.11051693 461.794147 2.11051693 455.745711 2.11051693 449.697275 2.11051693 443.884965 2.11051693 438 2L438 3.69459299C442.65893 4.11824124 444.130172 7.20350564 444.130172 14.1200238L444.130172 51.8799762C444.130172 58.7872846 442.65893 61.872549 438 62.2961973L438 64C441.514632 63.8894831 445.192735 63.7881759 449.043391 63.7881759 452.894046 63.7881759 456.817356 63.8986928 460.904137 64L460.904137 62.2869875C456.245207 61.8633393 454.773966 58.7780749 454.773966 51.8707665L454.773966 34.7498515 462.039354 34.7498515C466.580222 34.7498515 468.986882 36.8773024 469.81332 42.1176471L471.12109 42.1176471 471.12109 23.2653001 469.81332 23.2653001C469.649849 28.0543672 466.952573 30.7067736 461.794147 30.7067736L454.773966 30.7067736 454.773966 5.84046346 463.528759 5.84046346C468.759839 5.84046346 471.629667 8.92572787 472.69223 15.5199049L474 15.5199049 473.981837 2zM428.844171 51.8707665L428.844171 14.110814C428.844171 7.20350564 430.32157 4.11824124 435 3.68538324L435 2C431.224425 2.21182412 427.357653 2.32234106 423.5 2.32234106 419.642347 2.32234106 415.857653 2.21182412 412 2L412 3.69459299C416.67843 4.11824124 418.155829 7.20350564 418.155829 14.1200238L418.155829 51.8799762C418.155829 58.7872846 416.67843 61.872549 412 62.2961973L412 64C415.857653 63.7881759 419.642347 63.6776589 423.5 63.6776589 427.357653 63.6776589 431.215305 63.7881759 435 64L435 62.2869875C430.32157 61.8633393 428.844171 58.7780749 428.844171 51.8707665M389.167064 51.8707665L389.167064 14.110814C389.167064 7.20350564 390.672784 4.11824124 395.440896 3.68538324L395.440896 2C391.592946 2.11051693 387.65205 2.11051693 383.720448 2.11051693 379.788847 2.11051693 375.931602 2.11051693 372 2L372 3.69459299C376.768112 4.11824124 378.273832 7.20350564 378.273832 14.1200238L378.273832 51.8799762C378.273832 58.7872846 376.768112 61.872549 372 62.2961973L372 64C377.771926 63.8894831 383.804099 63.7881759 390.077931 63.7881759 396.351764 63.7881759 402.885844 63.8986928 409.661582 64L411 48.0487225 409.745234 47.6250743C406.956864 55.7020202 402.309581 60.0674391 396.602717 60.0674391 390.895853 60.0674391 389.167064 57.8386809 389.167064 51.8799762M332.441611 51.8781756L332.441611 31.1347497 344.341094 9.94919031C346.502956 6.1173674 348.498522 3.98960036 352 3.67642252L352 2C349.422395 2.11053335 346.761641 2.21185559 343.925351 2.21185559 341.597191 2.21185559 339.102735 2.10132224 336.534368 2L336.534368 3.69484475C339.361419 4.01416332 340.774945 5.39583024 340.774945 7.83984549 340.774945 9.433368 339.278271 11.883524 337.033259 15.9272025L330.566149 27.6253157 322.075758 11.5703462C321.230815 10.1360519 320.692915 8.54285664 320.495935 6.89110088 320.495935 5.18704502 321.576866 4.22908929 323.821877 3.70405586L323.821877 2C320.329638 2.21492596 316.75117 2.32238895 313.086475 2.32238895 309.390983 2.32238895 305.769401 2.21185559 302 2L302 3.69484475C304.577605 3.90670034 306.822616 6.03446739 308.984479 10.1426237L321.632299 33.861239 321.632299 51.8781756C321.632299 58.7865102 320.135625 61.872233 315.396157 62.2959441L315.396157 64C319.304139 63.7881444 323.128973 63.6776111 327.046194 63.6776111 330.963415 63.6776111 334.862158 63.7881444 338.696231 64L338.696231 62.2959441C333.956763 61.872233 332.460089 58.7865102 332.460089 51.8781756M301.822238 50.1669638C298.658444 43.7201426 296.077453 36.7667855 291.32251 31.664587 297.6501 29.7489602 301.156176 24.6467617 301.156176 17.4171123 301.156176 8.59417706 295.605659 2 286.410303 2L259 2 259 3.69459299C263.745692 4.11824124 265.244332 7.20350564 265.244332 14.1200238L265.244332 51.8799762C265.244332 58.7872846 263.745692 61.872549 259 62.2961973L259 64C262.913114 63.7881759 266.752222 63.6776589 270.665336 63.6776589 274.578451 63.6776589 278.491565 63.7881759 282.330673 64L282.330673 62.2869875C277.584981 61.8633393 276.086341 58.7780749 276.086341 51.8707665L276.086341 34.2156863 278.334301 34.2156863C282.247415 34.2156863 285.161437 38.4705882 288.834029 46.6580511 291.831308 53.3535354 293.746236 59.7358883 297.418828 63.9907903L310 63.9907903 310 62.2869875C307.900054 61.7896613 305.402322 57.5071301 301.822238 50.1669638zM278.824596 30.2831254L276.049338 30.2831254 276.049338 5.9325609 279.129875 5.9325609C286.123526 5.9325609 289.546345 9.76381462 289.546345 17.8407605 289.574098 26.7926322 286.151279 30.2831254 278.824596 30.2831254zM229.710358 5.85675169L229.710358 51.862228C229.710358 58.7796512 228.236717 61.8694336 223.570188 62.2937023L223.570188 64C227.418028 63.7878657 231.183998 63.6771869 235.040934 63.6771869 238.897871 63.6771869 242.663841 63.7878657 246.429812 64L246.429812 62.2937023C241.763283 61.8694336 240.289642 58.7796512 240.289642 51.862228L240.289642 5.85675169 243.728137 5.85675169C251.17821 5.85675169 255.117015 9.04798962 255.690097 16.0023058L257 16.0023058 257 0 255.690097 0C255.362621 1.28202911 254.134588 1.91843205 251.924127 1.91843205L218.075873 1.91843205C215.865412 1.91843205 214.637379 1.28202911 214.309903 0L213 0 213 15.9746361 214.309903 15.9746361C214.882985 9.05721285 218.858177 5.829082 226.271863 5.829082L229.710358 5.85675169zM166.071869 51.3647993L166.071869 14.525805 202.349076 64 203.762834 64 203.762834 13.9970593C203.762834 7.15982944 205.259754 4.10586678 210 3.67740038L210 2C207.418891 2.21271382 204.837782 2.31907072 202.256674 2.31907072 199.595483 2.31907072 197.017454 2.20967505 194.439425 2L194.439425 3.67740038C199.179671 4.09675048 200.676591 7.15071313 200.676591 13.9970593L200.676591 42.9504485 170.562628 2C168.147844 2.21271382 165.73614 2.31907072 163.327515 2.31907072 160.915811 2.31907072 158.504107 2.20967505 156 2L156 3.67740038C158.772074 4.58903102 161.156057 6.83164241 162.985626 10.2046758L162.985626 51.3647993C162.985626 58.2020291 161.488706 61.2559918 156.74846 61.6753419L156.74846 63.3618586C159.326489 63.1521835 161.904517 63.0427878 164.565708 63.0427878 167.226899 63.0427878 169.721766 63.1521835 172.309035 63.3618586L172.309035 61.6753419C167.568789 61.2559918 166.071869 58.2020291 166.071869 51.3647993M112.989488 44.9537145L112.989488 14.0295995C112.989488 7.17382472 114.479632 4.11157864 119.198423 3.68195009L119.198423 2C115.390276 2.21024376 111.490145 2.31993616 107.599212 2.31993616 103.708279 2.31993616 99.890933 2.21024376 96 2L96 3.68195009C100.718791 4.10243761 102.208936 7.16468369 102.208936 14.0295995L102.208936 43.9756239C102.208936 58.1168021 107.25887 65 117.69908 65 124.321945 65 129.960578 62.0474463 135.010512 55.8589669L135.010512 63.5648578C137.82523 63.354614 140.639947 63.2449216 143.546649 63.2449216 146.453351 63.2449216 149.176084 63.354614 152 63.5648578L152 61.8372026C147.281209 61.416715 145.791064 58.3544689 145.791064 51.4986941L145.791064 14.0204585C145.791064 7.16468369 147.281209 4.10243761 152 3.67280905L152 2C148.191853 2.21024376 144.291721 2.31993616 140.400788 2.31993616 136.509855 2.31993616 132.69251 2.21024376 128.801577 2L128.801577 3.68195009C133.520368 4.10243761 135.010512 7.16468369 135.010512 14.0295995L135.010512 50.9685142C130.871222 56.983314 126.308804 59.9358677 121.672799 59.9358677 115.298292 59.9358677 112.971091 55.1825305 112.971091 44.9537145M72.0415704 0C56.4849885 0 46 12.9834137 46 32.4447122 46 51.9060108 56.4849885 65 72.0415704 65 87.5981524 65 98 51.9152254 98 32.4447122 98 12.974199 87.5981524 0 72.0415704 0zM71.9584296 61.4984406C62.6374134 61.4984406 57.5658199 51.601928 57.5658199 32.4539269 57.5658199 13.3059257 62.6466513 3.26197902 71.9584296 3.26197902 81.2702079 3.26197902 86.4341801 13.2967111 86.4341801 32.4539269 86.4341801 51.6111426 81.2794457 61.4984406 71.9584296 61.4984406zM45 51.8127941L44.0115924 50.4306282C39.728493 55.9592919 34.447834 58.8341971 28.9292251 58.8341971 18.3770592 58.8341971 11.2934716 48.1915193 11.2934716 30.3247209 11.2934716 14.042806 17.9652227 3.40934267 26.6229408 3.40934267 34.2007322 3.40934267 41.2111043 11.1771153 42.776083 23.0913857L44.0939597 23.0913857 44.0939597.958301723 42.7669311.958301723C42.6021965 2.87490517 41.5405735 4.045139 39.966443 4.045139 37.4130567 4.045139 32.3794997 0 25.3233679 0 17.1598536 0 9.99389872 4.79150861 5.95790116 11.9142705 1.9219036 19.0370323 0 25.5332122 0 33.512917 0 44.1555948 3.45942648 53.1949601 9.50884686 58.9355559 13.5295307 62.8816911 18.9400419 65.0620049 24.5546065 64.9986572 32.5533862 64.9986572 39.7101891 60.3269363 45 51.8127941" transform="translate(43 68)"/>
  </g>
</svg>
