<svg xmlns="http://www.w3.org/2000/svg" width="540" height="300" viewBox="0 0 540 300"><g fill="none" fill-rule="evenodd"><path fill="#1DA1F2" d="M0 0h540v300H0z"/><path fill="#FFF" fill-rule="nonzero" d="M333 111.075a51.844 51.844 0 01-14.847 4.054c5.337-3.187 9.436-8.233 11.366-14.246a51.892 51.892 0 01-16.415 6.249A25.865 25.865 0 00294.234 99c-14.276 0-25.85 11.53-25.85 25.75 0 2.018.229 3.983.67 5.868-21.485-1.074-40.533-11.326-53.283-26.905a25.553 25.553 0 00-3.5 12.946c0 8.933 4.565 16.815 11.5 21.433a25.824 25.824 0 01-11.708-3.22c-.002.107-.002.214-.002.323 0 12.476 8.91 22.884 20.736 25.249a25.98 25.98 0 01-11.674.441c3.29 10.23 12.836 17.675 24.148 17.883-8.847 6.906-19.993 11.023-32.104 11.023-2.087 0-4.145-.122-6.167-.36A73.376 73.376 0 00246.626 201c47.549 0 73.55-39.237 73.55-73.265 0-1.116-.025-2.227-.075-3.33A52.428 52.428 0 00333 111.074"/><path fill="#EB4C4C" fill-rule="nonzero" d="M270 42c-59.576 0-108 48.43-108 108s48.424 108 108 108 108-48.43 108-108S329.576 42 270 42zm.052 200C219.305 242 178 200.684 178 149.938c0-22.396 8.025-42.966 21.42-58.938L329 220.605C313.009 233.985 292.474 242 270.052 242zm70.528-33L211 79.403C226.991 66.019 247.526 58 269.948 58 320.695 58 362 99.332 362 150.098c0 22.346-8.025 42.923-21.42 58.902z"/></g></svg>