<svg xmlns="http://www.w3.org/2000/svg" width="100" height="50"><g fill="#FFF" fill-opacity=".4" fill-rule="nonzero"><path d="M100 0H0v44.987a44.022 44.022 0 019.419-2.093c6.994-.794 14.125-.15 20.956 1.212.212.044.425.088.637.125 7.3 1.5 14.482 3.688 21.725 5.763H100V0z"/><path d="M29.9 36.313c.2.05.4.106.594.156 12.262 3.281 24.294 8.343 37.094 11.037C78.475 49.794 89.43 49.331 100 46.87V0H0v35.931A38.631 38.631 0 0110.069 34c6.706-.413 13.412.638 19.831 2.313z"/><path d="M0 0v26.837c3.475-1.15 7.094-1.706 10.713-1.73 6.425-.05 12.7 1.418 18.706 3.405l.556.188c11.475 3.875 22.856 9.131 35.15 12.006 11.669 2.731 23.519 2.15 34.869-.787V0H0z"/><path d="M11.363 16.212c6.137.375 11.993 2.2 17.58 4.507.176.069.345.143.52.212 10.687 4.475 21.418 9.906 33.206 12.982 12.425 3.237 25.212 2.55 37.331-.925V0H0v17.7a30.219 30.219 0 0111.363-1.488z"/><path d="M100 0H0v8.519a26.895 26.895 0 0112.012-1.2c5.85.756 11.282 2.981 16.457 5.6l.481.243c9.9 5.07 19.981 10.682 31.269 13.95 13.156 3.813 26.925 3.063 39.787-1.037V0H100z"/><path d="M28.431 5.394c9.113 5.668 18.544 11.437 29.325 14.918 13.038 4.213 26.957 3.8 39.869-.33.8-.257 1.588-.526 2.381-.807V0h-82c3.5 1.331 6.794 3.163 9.982 5.125.15.088.293.181.443.269z"/><path d="M100 0H31.125C38.506 5.362 46.344 10.281 55.3 13.512c11.987 4.325 25 4.67 37.188 1.32 2.55-.7 5.068-1.576 7.518-2.607V0H100z"/><path d="M87.344 9.675a53.804 53.804 0 008.662-2.738A52.419 52.419 0 00100 5.095V0H40.212c3.932 2.606 8.107 4.888 12.632 6.713 10.931 4.418 23.044 5.543 34.5 2.962z"/><path d="M82.206 4.525A45.868 45.868 0 0095.756 0H50.57c9.856 4.438 20.975 6.313 31.637 4.525z"/></g></svg>