<svg xmlns="http://www.w3.org/2000/svg" width="600" height="200" viewBox="0 0 600 200"><g fill="none" fill-rule="evenodd"><path fill="#FFF" d="M0 0h600v200H0z"/><g fill-rule="nonzero"><path fill="#333" d="M117.464 90.961c0-4.627-.082-8.51-.329-11.982h8.744l.412 5.951h.248c1.981-3.14 5.61-6.86 12.375-6.86 5.281 0 9.404 2.978 11.136 7.438h.166c1.402-2.232 3.052-3.887 4.948-5.04 2.23-1.572 4.785-2.397 8.086-2.397 6.683 0 13.446 4.544 13.446 17.436v23.713h-9.9V96.993c0-6.694-2.308-10.66-7.178-10.66-3.465 0-6.02 2.48-7.092 5.371-.25.991-.495 2.231-.495 3.388v24.127h-9.901v-23.3c0-5.62-2.227-9.587-6.93-9.587-3.792 0-6.35 2.975-7.259 5.784-.412.993-.575 2.148-.575 3.307v23.796h-9.902V90.96zm74.982-11.982l7.26 21.568c.826 2.48 1.653 5.537 2.23 7.85h.246c.66-2.313 1.404-5.29 2.144-7.93l6.27-21.486h10.89l-10.064 27.435c-5.526 15.037-9.24 21.727-14.024 25.86-3.962 3.556-8.086 4.878-10.644 5.21l-2.307-8.599c1.732-.412 3.878-1.319 5.94-2.807 1.897-1.238 4.125-3.64 5.526-6.362.413-.75.66-1.322.66-1.82 0-.412-.083-.99-.578-1.982l-14.683-36.938h11.134v.001z"/><g fill="#333"><path d="M227.68 108.239c3.29 1.895 8.228 3.544 13.412 3.544 6.502 0 10.122-3.048 10.122-7.576 0-4.204-2.797-6.676-9.874-9.229-9.136-3.296-14.979-8.155-14.979-16.146 0-9.062 7.573-15.981 19.588-15.981 6.007 0 10.452 1.316 13.332 2.8l-2.47 8.154c-1.976-1.07-5.844-2.636-11.027-2.636-6.421 0-9.218 3.461-9.218 6.675 0 4.282 3.21 6.26 10.617 9.143 9.628 3.627 14.319 8.486 14.319 16.477 0 8.896-6.75 16.722-21.066 16.722-5.846 0-11.934-1.73-14.98-3.54l2.223-8.407zm118.902 9.806c-2.134.983-6.331 2.137-11.355 2.137-12.506 0-20.656-8.073-20.656-20.51 0-12.026 8.23-21.419 22.305-21.419 3.705 0 7.487.825 9.792 1.896l-1.808 7.578c-1.644-.74-4.033-1.565-7.654-1.565-7.733 0-12.346 5.683-12.26 13.016 0 8.238 5.348 12.93 12.26 12.93 3.536 0 6.01-.741 7.983-1.564l1.393 7.501zM354.075 119.279V79.161h10.202v40.118zM364.854 67.958c0 3.049-2.224 5.438-5.76 5.438-3.376 0-5.599-2.39-5.599-5.438 0-3.131 2.308-5.52 5.68-5.52 3.455 0 5.598 2.39 5.679 5.52zm17.44 34.104c.25 7.25 5.93 10.379 12.35 10.379 4.69 0 8.06-.657 11.11-1.815l1.478 7.005c-3.46 1.398-8.228 2.551-13.989 2.551-13.002 0-20.656-8.073-20.656-20.344 0-11.123 6.748-21.584 19.584-21.584 13.084 0 17.281 10.71 17.281 19.527 0 1.892-.16 3.376-.326 4.28h-26.832zm17.616-7.082c.084-3.71-1.564-9.804-8.31-9.804-6.26 0-8.895 5.683-9.305 9.804h17.615zM429.2 68.863v10.298h9.631v7.58h-9.631v17.711c0 4.86 1.317 7.415 5.184 7.415 1.893 0 2.795-.165 3.951-.495l.166 7.746c-1.483.572-4.117 1.068-7.323 1.068-3.706 0-6.832-1.319-8.725-3.375-2.139-2.306-3.125-5.935-3.125-11.205V86.742h-5.76v-7.58h5.76v-7.413l9.872-2.886zm24.192 10.298l7.248 21.501c.821 2.472 1.639 5.52 2.219 7.826h.246c.66-2.305 1.402-5.273 2.138-7.906l6.256-21.419h10.859l-10.037 27.35c-5.515 14.991-9.215 21.664-13.989 25.786-3.952 3.544-8.069 4.858-10.614 5.19l-2.309-8.57c1.729-.41 3.871-1.318 5.926-2.802 1.893-1.233 4.116-3.625 5.514-6.338.416-.747.66-1.322.66-1.815 0-.41-.084-.991-.575-1.976l-14.646-36.825h11.106l-.002-.002z"/></g><g transform="translate(264 76)"><path fill="#ED1C24" d="M22.953.539a5.19 5.19 0 11.002 10.38A5.19 5.19 0 0122.953.54z"/><path fill="#29ABE2" d="M22.953 35.215a5.191 5.191 0 110 10.385 5.191 5.191 0 010-10.385z"/><path fill="#F7931E" d="M35.354 5.757a5.194 5.194 0 015.193 5.19 5.194 5.194 0 01-5.193 5.191 5.19 5.19 0 110-10.38z"/><path fill="#662D91" d="M14.178 38.901a5.202 5.202 0 01-7.34-.085 5.188 5.188 0 01.087-7.34 5.185 5.185 0 017.336.08 5.197 5.197 0 01-.083 7.345z"/><path fill="#FCEE21" d="M40.29 17.732a5.192 5.192 0 015.192 5.19 5.19 5.19 0 11-5.192-5.19z"/><circle cx="5.616" cy="23.214" r="5.192" fill="#93278F"/><path fill="#8CC63F" d="M31.543 39a5.201 5.201 0 010-7.346 5.2 5.2 0 017.341 0 5.199 5.199 0 010 7.346 5.199 5.199 0 01-7.34 0z"/></g></g></g></svg>