<?xml version="1.0" encoding="utf-8"?>
<!-- Generator: Adobe Illustrator 16.0.0, SVG Export Plug-In . SVG Version: 6.00 Build 0)  -->
<!DOCTYPE svg PUBLIC "-//W3C//DTD SVG 1.1//EN" "http://www.w3.org/Graphics/SVG/1.1/DTD/svg11.dtd">
<svg version="1.1" id="Logo" xmlns="http://www.w3.org/2000/svg" xmlns:xlink="http://www.w3.org/1999/xlink" x="0px" y="0px"
	 width="518.896px" height="106.65px" viewBox="38.193 365.623 518.896 106.65"
	 enable-background="new 38.193 365.623 518.896 106.65" xml:space="preserve">
<g id="logo-my">
	<g>
		<path fill="#333333" d="M38.659,406.362c0-6.555-0.117-12.056-0.467-16.975h12.408l0.585,8.431h0.352
			c2.811-4.449,7.959-9.718,17.56-9.718c7.494,0,13.345,4.218,15.803,10.537h0.235c1.99-3.163,4.331-5.507,7.021-7.142
			c3.164-2.226,6.79-3.395,11.475-3.395c9.483,0,19.08,6.438,19.08,24.702v33.593h-14.047v-31.488
			c0-9.483-3.276-15.102-10.187-15.102c-4.917,0-8.544,3.513-10.064,7.609c-0.354,1.404-0.702,3.161-0.702,4.799v34.18H73.66
			v-33.009c0-7.961-3.159-13.58-9.832-13.58c-5.383,0-9.013,4.214-10.302,8.194c-0.585,1.407-0.816,3.042-0.816,4.684v33.711H38.659
			V406.362z"/>
		<path fill="#333333" d="M145.062,389.387l10.302,30.554c1.172,3.513,2.345,7.845,3.164,11.121h0.35
			c0.936-3.276,1.991-7.494,3.042-11.235l8.898-30.437h15.453l-14.281,38.866c-7.843,21.303-13.112,30.78-19.902,36.636
			c-5.621,5.036-11.474,6.91-15.104,7.381l-3.274-12.183c2.458-0.584,5.504-1.868,8.429-3.976c2.693-1.754,5.854-5.157,7.842-9.014
			c0.587-1.061,0.936-1.873,0.936-2.579c0-0.583-0.117-1.402-0.819-2.807l-20.836-52.329H145.062L145.062,389.387z"/>
	</g>
</g>
<g id="logo-society">
	<g>
		<path fill="#333333" d="M194.811,430.708c4.681,2.693,11.706,5.036,19.08,5.036c9.248,0,14.398-4.331,14.398-10.766
			c0-5.974-3.979-9.487-14.046-13.114c-12.995-4.684-21.307-11.589-21.307-22.945c0-12.877,10.772-22.71,27.864-22.71
			c8.544,0,14.867,1.871,18.964,3.979l-3.513,11.588c-2.811-1.521-8.314-3.747-15.686-3.747c-9.134,0-13.113,4.919-13.113,9.486
			c0,6.085,4.567,8.895,15.103,12.993c13.696,5.154,20.368,12.059,20.368,23.415c0,12.641-9.601,23.762-29.966,23.762
			c-8.315,0-16.975-2.458-21.307-5.031L194.811,430.708z"/>
		<path fill="#333333" d="M363.948,444.643c-3.036,1.397-9.006,3.036-16.152,3.036c-17.79,0-29.383-11.472-29.383-29.145
			c0-17.089,11.706-30.437,31.728-30.437c5.271,0,10.651,1.172,13.929,2.694l-2.572,10.768c-2.338-1.05-5.736-2.223-10.887-2.223
			c-11,0-17.562,8.076-17.441,18.496c0,11.707,7.609,18.375,17.441,18.375c5.03,0,8.549-1.054,11.356-2.224L363.948,444.643z"/>
		<path fill="#333333" d="M374.606,446.396v-57.009h14.513v57.009H374.606z"/>
		<path fill="#333333" d="M389.939,373.466c0,4.333-3.163,7.728-8.193,7.728c-4.802,0-7.964-3.395-7.964-7.728
			c0-4.449,3.283-7.843,8.078-7.843C386.776,365.623,389.825,369.018,389.939,373.466z"/>
		<path fill="#333333" d="M414.748,421.93c0.356,10.303,8.435,14.749,17.568,14.749c6.67,0,11.465-0.934,15.803-2.579l2.103,9.954
			c-4.922,1.987-11.705,3.626-19.899,3.626c-18.496,0-29.383-11.472-29.383-28.91c0-15.807,9.598-30.672,27.858-30.672
			c18.611,0,24.582,15.219,24.582,27.748c0,2.689-0.229,4.798-0.464,6.084H414.748z M439.806,411.866
			c0.12-5.271-2.225-13.932-11.821-13.932c-8.904,0-12.652,8.076-13.236,13.932H439.806z"/>
		<path fill="#333333" d="M481.472,374.753v14.634h13.7v10.772h-13.7v25.168c0,6.905,1.874,10.537,7.374,10.537
			c2.693,0,3.976-0.235,5.621-0.704l0.235,11.007c-2.109,0.813-5.856,1.519-10.416,1.519c-5.272,0-9.719-1.875-12.412-4.796
			c-3.042-3.277-4.445-8.435-4.445-15.924V400.16h-8.194v-10.772h8.194v-10.534L481.472,374.753z"/>
		<path fill="#333333" d="M515.885,389.387l10.31,30.554c1.168,3.513,2.331,7.845,3.156,11.121h0.35
			c0.939-3.276,1.994-7.494,3.041-11.235l8.9-30.437h15.446l-14.277,38.866c-7.845,21.303-13.109,30.785-19.899,36.642
			c-5.622,5.037-11.478,6.904-15.098,7.375l-3.285-12.177c2.459-0.584,5.507-1.874,8.429-3.982c2.694-1.753,5.856-5.151,7.844-9.007
			c0.592-1.061,0.94-1.879,0.94-2.579c0-0.583-0.12-1.409-0.819-2.808l-20.833-52.331h15.797L515.885,389.387L515.885,389.387z"/>
	</g>
</g>
<g id="logo-colourwheel">
	<g>
		<path fill="#ED1C24" d="M279.434,385.761c4.052,0,7.336,3.283,7.336,7.335c0,4.05-3.284,7.334-7.336,7.334
			c-4.05,0-7.333-3.284-7.333-7.334C272.101,389.044,275.384,385.761,279.434,385.761z"/>
		<path fill="#29ABE2" d="M279.434,434.76c4.052,0,7.336,3.29,7.336,7.337c0,4.052-3.284,7.336-7.336,7.336
			c-4.05,0-7.333-3.284-7.333-7.336C272.101,438.05,275.384,434.76,279.434,434.76z"/>
		<path fill="#F7931E" d="M296.957,393.135c4.046,0,7.337,3.284,7.337,7.333c0,4.053-3.291,7.336-7.337,7.336
			c-4.052,0-7.336-3.283-7.336-7.336C289.622,396.419,292.906,393.135,296.957,393.135z"/>
		<path fill="#662D91" d="M267.034,439.969c-2.896,2.819-7.543,2.77-10.372-0.121c-2.833-2.902-2.775-7.545,0.124-10.372
			c2.893-2.833,7.536-2.782,10.366,0.114S269.932,437.122,267.034,439.969z"/>
		<path fill="#FCEE21" d="M303.932,410.056c4.046,0,7.336,3.28,7.336,7.333c0,4.045-3.29,7.33-7.336,7.33s-7.33-3.284-7.33-7.33
			C296.602,413.336,299.886,410.056,303.932,410.056z"/>
		<circle fill="#93278F" cx="254.936" cy="417.802" r="7.336"/>
		<path fill="#8CC63F" d="M291.572,440.108c-2.861-2.872-2.861-7.508,0-10.38c2.865-2.857,7.509-2.857,10.373,0
			c2.863,2.872,2.863,7.508,0,10.38C299.079,442.966,294.436,442.966,291.572,440.108z"/>
	</g>
</g>
</svg>
