<?xml version="1.0" encoding="utf-8"?>
<!-- Generator: Adobe Illustrator 19.1.0, SVG Export Plug-In . SVG Version: 6.00 Build 0)  -->
<!DOCTYPE svg PUBLIC "-//W3C//DTD SVG 1.1//EN" "http://www.w3.org/Graphics/SVG/1.1/DTD/svg11.dtd">
<svg version="1.1" id="Layer_1" xmlns="http://www.w3.org/2000/svg" xmlns:xlink="http://www.w3.org/1999/xlink" x="0px" y="0px"
	 viewBox="0 0 340 365.5" enable-background="new 0 0 340 365.5" xml:space="preserve">
<g>
	<g>
		<path fill="none" stroke="#E2DFD9" stroke-width="2" stroke-miterlimit="10" d="M94,231.5c0,3.5-4,3.5-4,6.9c0,3.5,4,3.5,4,6.9
			c0,3.5-4,3.5-4,6.9c0,3.5,4,3.5,4,6.9c0,3.5-4,3.5-4,6.9c0,3.5,4,3.5,4,6.9c0,3.5-4,3.5-4,6.9c0,3.5,4,3.5,4,6.9
			c0,3.5-4,3.5-4,6.9c0,3.5,4,3.5,4,6.9c0,3.5-4,3.5-4,6.9c0,3.5,4,3.5,4,6.9c0,3.5-4,3.5-4,6.9c0,3.5,4,3.5,4,6.9
			c0,3.5-4,3.5-4,6.9c0,3.5,4,3.5,4,6.9c0,3.5-4,3.5-4,6.9"/>
	</g>
	<path fill="#FED100" d="M110.5,43.9c-2.8-0.8-4.9-3-5.7-5.7c-0.1-0.3-0.6-0.3-0.7,0c-0.8,2.8-3,4.9-5.7,5.7c-0.3,0.1-0.3,0.6,0,0.7
		c2.8,0.8,4.9,3,5.7,5.7c0.1,0.3,0.6,0.3,0.7,0c0.8-2.8,3-4.9,5.7-5.7C110.8,44.5,110.8,44,110.5,43.9z"/>
	<path fill="#FED100" d="M207.9,15.7c-2.8-0.8-4.9-3-5.7-5.7c-0.1-0.3-0.6-0.3-0.7,0c-0.8,2.8-3,4.9-5.7,5.7c-0.3,0.1-0.3,0.6,0,0.7
		c2.8,0.8,4.9,3,5.7,5.7c0.1,0.3,0.6,0.3,0.7,0c0.8-2.8,3-4.9,5.7-5.7C208.3,16.3,208.3,15.8,207.9,15.7z"/>
	<path fill="#FED100" d="M37.6,277.3c-2.8-0.8-4.9-3-5.7-5.7c-0.1-0.3-0.6-0.3-0.7,0c-0.8,2.8-3,4.9-5.7,5.7c-0.3,0.1-0.3,0.6,0,0.7
		c2.8,0.8,4.9,3,5.7,5.7c0.1,0.3,0.6,0.3,0.7,0c0.8-2.8,3-4.9,5.7-5.7C37.9,277.9,37.9,277.4,37.6,277.3z"/>
	<path fill="#FED100" d="M323.4,138.7c-4-1.2-7.2-4.4-8.4-8.4c-0.1-0.5-0.9-0.5-1,0c-1.2,4-4.4,7.2-8.4,8.4c-0.5,0.1-0.5,0.9,0,1
		c4,1.2,7.2,4.4,8.4,8.4c0.1,0.5,0.9,0.5,1,0c1.2-4,4.4-7.2,8.4-8.4C323.9,139.6,323.9,138.9,323.4,138.7z"/>
	<path fill="#FED100" d="M284.7,21.7c-4.9-1.4-8.7-5.3-10.2-10.2c-0.2-0.6-1.1-0.6-1.2,0c-1.4,4.9-5.3,8.7-10.2,10.2
		c-0.6,0.2-0.6,1.1,0,1.2c4.9,1.4,8.7,5.3,10.2,10.2c0.2,0.6,1.1,0.6,1.2,0c1.4-4.9,5.3-8.7,10.2-10.2
		C285.3,22.8,285.3,21.9,284.7,21.7z"/>
	<path fill="#FED100" d="M29.6,43.6c-4.9-1.4-8.7-5.3-10.2-10.2c-0.2-0.6-1.1-0.6-1.2,0c-1.4,4.9-5.3,8.7-10.2,10.2
		c-0.6,0.2-0.6,1.1,0,1.2c4.9,1.4,8.7,5.3,10.2,10.2c0.2,0.6,1.1,0.6,1.2,0c1.4-4.9,5.3-8.7,10.2-10.2
		C30.3,44.7,30.3,43.8,29.6,43.6z"/>
	<g>
		<path fill="none" stroke="#E2DFD9" stroke-width="2" stroke-miterlimit="10" d="M245,216.5c0,3.5-4,3.5-4,6.9c0,3.5,4,3.5,4,6.9
			c0,3.5-4,3.5-4,6.9c0,3.5,4,3.5,4,6.9c0,3.5-4,3.5-4,6.9c0,3.5,4,3.5,4,6.9c0,3.5-4,3.5-4,6.9c0,3.5,4,3.5,4,6.9
			c0,3.5-4,3.5-4,6.9c0,3.5,4,3.5,4,6.9c0,3.5-4,3.5-4,6.9c0,3.5,4,3.5,4,6.9c0,3.5-4,3.5-4,6.9c0,3.5,4,3.5,4,6.9
			c0,3.5-4,3.5-4,6.9c0,3.5,4,3.5,4,6.9c0,3.5-4,3.5-4,6.9"/>
	</g>
	<path fill="#4FADED" d="M81.8,246.6l10.4-10.4l10.4,10.4C98,250.8,87,251.1,81.8,246.6z"/>
	<path fill="#564233" d="M81.8,246.6l1.1,1.1l9.3-9.3l9.3,9.3l1.1-1.1l-1-1.1c-0.9,0.9-2.3,1.6-3.9,2.1c-1.6,0.5-3.5,0.8-5.3,0.8
		c-1.8,0-3.7-0.2-5.3-0.7c-1.6-0.5-3.1-1.2-4.2-2.2L81.8,246.6l1.1,1.1L81.8,246.6l-1,1.1c1.5,1.3,3.3,2.2,5.3,2.7
		c2,0.6,4.1,0.9,6.2,0.9c2.2,0,4.3-0.3,6.2-0.9c1.9-0.6,3.7-1.5,5.1-2.8c0.3-0.3,0.5-0.7,0.5-1.1c0-0.4-0.2-0.8-0.4-1.1l-10.4-10.4
		c-0.6-0.6-1.5-0.6-2.1,0l-10.4,10.4c-0.3,0.3-0.5,0.7-0.4,1.1s0.2,0.8,0.5,1.1L81.8,246.6z"/>
	<path fill="#4FADED" d="M140.7,143.5c0,20.6-23.3,63.4-37.5,87.6c-4.8,8.2-16.6,8.2-21.4,0c-14.2-24.2-37.5-67-37.5-87.6
		c0-29.7,21.6-53.7,48.3-53.7C119.1,89.7,140.7,113.8,140.7,143.5"/>
	<path fill="#564233" d="M140.7,143.5h-1.5c0,4.9-1.4,11.3-3.8,18.5c-7.1,21.6-22.9,50.2-33.5,68.3c-1.1,1.8-2.5,3.1-4.1,4
		c-1.6,0.9-3.5,1.3-5.3,1.3c-1.8,0-3.7-0.5-5.3-1.3c-1.6-0.9-3.1-2.2-4.1-4c-7.1-12.1-16.5-28.8-24-45c-3.8-8.1-7.1-16.1-9.5-23.3
		c-2.4-7.2-3.8-13.6-3.8-18.5c0-14.5,5.3-27.6,13.8-37c8.5-9.4,20.1-15.2,33-15.2c12.9,0,24.5,5.8,33,15.2
		c8.5,9.4,13.8,22.5,13.8,37H140.7h1.5c0-15.2-5.5-29-14.5-39c-9-10-21.5-16.2-35.2-16.2c-13.8,0-26.3,6.2-35.2,16.2
		c-9,10-14.5,23.8-14.5,39c0,5.4,1.5,12.1,3.9,19.5c7.3,22.1,23.1,50.7,33.8,68.9c1.3,2.3,3.2,4,5.3,5.2c2.1,1.1,4.4,1.7,6.7,1.7
		s4.7-0.6,6.7-1.7c2.1-1.1,3.9-2.9,5.3-5.2c7.1-12.1,16.5-28.9,24.2-45.2c3.8-8.2,7.2-16.3,9.6-23.6c2.4-7.4,3.9-14,3.9-19.5H140.7"
		/>
	<path fill="#A7D6F6" d="M81.8,106.8c-3.7,0-7,1.1-9.8,3c-4.3,2.8-7.6,7.3-9.8,12.2c-2.2,4.9-3.4,10.3-3.4,15.1c0,0.7,0,1.4,0.1,2.1
		c0.1,0.8,0.7,1.4,1.5,1.4c0,0,0.1,0,0.1,0c0.8-0.1,1.4-0.8,1.4-1.6v0c0-0.6-0.1-1.2-0.1-1.9c0-5.8,2-12.8,5.5-18.2
		c1.8-2.7,3.9-5,6.4-6.6c2.4-1.6,5.2-2.5,8.2-2.5c0.8,0,1.5-0.7,1.5-1.5C83.3,107.5,82.7,106.8,81.8,106.8
		C81.8,106.8,81.8,106.8,81.8,106.8"/>
	<path fill="#F4A140" d="M232.6,211.6l10.4-10.4l10.4,10.4C248.8,215.8,237.9,216.1,232.6,211.6z"/>
	<path fill="#564233" d="M232.6,211.6l1.1,1.1l9.3-9.3l9.3,9.3l1.1-1.1l-1-1.1c-0.9,0.9-2.3,1.6-3.9,2.1c-1.6,0.5-3.5,0.8-5.3,0.8
		c-1.8,0-3.7-0.2-5.3-0.7c-1.6-0.5-3.1-1.2-4.2-2.2L232.6,211.6l1.1,1.1L232.6,211.6l-1,1.1c1.5,1.3,3.3,2.2,5.3,2.7
		c2,0.6,4.1,0.9,6.2,0.9c2.2,0,4.3-0.3,6.2-0.9c1.9-0.6,3.7-1.5,5.1-2.8c0.3-0.3,0.5-0.7,0.5-1.1s-0.2-0.8-0.4-1.1l-10.4-10.4
		c-0.6-0.6-1.5-0.6-2.1,0l-10.4,10.4c-0.3,0.3-0.5,0.7-0.4,1.1c0,0.4,0.2,0.8,0.5,1.1L232.6,211.6z"/>
	<path fill="#F4A140" d="M291.6,108.5c0,20.6-23.3,63.4-37.5,87.6c-4.8,8.2-16.6,8.2-21.4,0c-14.2-24.2-37.5-67-37.5-87.6
		c0-29.7,21.6-53.7,48.3-53.7C270,54.7,291.6,78.8,291.6,108.5"/>
	<path fill="#564233" d="M291.6,108.5h-1.5c0,4.9-1.4,11.3-3.8,18.5c-7.1,21.6-22.9,50.2-33.5,68.3c-1.1,1.8-2.5,3.1-4.1,4
		c-1.6,0.9-3.5,1.3-5.3,1.3c-1.8,0-3.7-0.5-5.3-1.3c-1.6-0.9-3.1-2.2-4.1-4c-7.1-12.1-16.5-28.8-24-45c-3.8-8.1-7.1-16.1-9.5-23.3
		c-2.4-7.2-3.8-13.6-3.8-18.5c0-14.5,5.3-27.6,13.8-37c8.5-9.4,20.1-15.2,33-15.2c12.9,0,24.5,5.8,33,15.2
		c8.5,9.4,13.8,22.5,13.8,37H291.6h1.5c0-15.2-5.5-29-14.5-39c-9-10-21.5-16.2-35.2-16.2c-13.8,0-26.3,6.2-35.2,16.2
		c-9,10-14.5,23.8-14.5,39c0,5.4,1.5,12.1,3.9,19.5c7.3,22.1,23.1,50.7,33.8,68.9c1.3,2.3,3.2,4,5.3,5.2c2.1,1.1,4.4,1.7,6.7,1.7
		c2.3,0,4.7-0.6,6.7-1.7c2.1-1.1,3.9-2.9,5.3-5.2c7.1-12.1,16.5-28.9,24.2-45.2c3.8-8.2,7.2-16.3,9.6-23.6c2.4-7.4,3.9-14,3.9-19.5
		H291.6"/>
	<path fill="#FAD0A0" d="M232.7,71.8c-3.7,0-7,1.1-9.8,3c-4.3,2.8-7.6,7.3-9.8,12.2c-2.2,4.9-3.4,10.3-3.4,15.1c0,0.7,0,1.4,0.1,2.1
		c0.1,0.8,0.7,1.4,1.5,1.4c0,0,0.1,0,0.1,0c0.8-0.1,1.4-0.8,1.4-1.6c0-0.6-0.1-1.2-0.1-1.9c0-5.8,2-12.8,5.5-18.2
		c1.8-2.7,3.9-5,6.4-6.6c2.4-1.6,5.2-2.5,8.2-2.5c0.8,0,1.5-0.7,1.5-1.5C234.2,72.5,233.5,71.8,232.7,71.8
		C232.7,71.8,232.7,71.8,232.7,71.8"/>
	<path fill="#A7D6F6" d="M61.3,145c-0.1,0-0.2,0-0.4,0c-0.8,0.2-1.3,1-1.1,1.8l1.6,6.5c0.2,0.7,0.8,1.1,1.5,1.1c0.1,0,0.2,0,0.4,0
		c0.8-0.2,1.3-1,1.1-1.8l-1.6-6.5C62.6,145.4,61.9,145,61.3,145"/>
	<path fill="#FAD0A0" d="M213.3,114c-0.1,0-0.2,0-0.4,0c-0.8,0.2-1.3,1-1.1,1.8l1.6,6.5c0.2,0.7,0.8,1.1,1.5,1.1c0.1,0,0.2,0,0.4,0
		c0.8-0.2,1.3-1,1.1-1.8l-1.6-6.5C214.6,114.4,213.9,114,213.3,114"/>
</g>
</svg>
