<svg xmlns="http://www.w3.org/2000/svg" viewBox="0 0 340 372.8"><path fill="none" stroke="#E2DFD9" stroke-width="2" stroke-miterlimit="10" d="M82 199.5c0 3.5-4 3.5-4 6.9 0 3.5 4 3.5 4 6.9 0 3.5-4 3.5-4 6.9 0 3.5 4 3.5 4 6.9 0 3.5-4 3.5-4 6.9 0 3.5 4 3.5 4 6.9 0 3.5-4 3.5-4 6.9 0 3.5 4 3.5 4 6.9 0 3.5-4 3.5-4 6.9 0 3.5 4 3.5 4 6.9 0 3.5-4 3.5-4 6.9 0 3.5 4 3.5 4 6.9 0 3.5-4 3.5-4 6.9 0 3.5 4 3.5 4 6.9 0 3.5-4 3.5-4 6.9 0 3.5 4 3.5 4 6.9 0 3.5-4 3.5-4 6.9M225 246.5c0 3.5-4 3.5-4 6.9 0 3.5 4 3.5 4 6.9 0 3.5-4 3.5-4 6.9 0 3.5 4 3.5 4 6.9 0 3.5-4 3.5-4 6.9 0 3.5 4 3.5 4 6.9 0 3.5-4 3.5-4 6.9 0 3.5 4 3.5 4 6.9 0 3.5-4 3.5-4 6.9 0 3.5 4 3.5 4 6.9 0 3.5-4 3.5-4 6.9 0 3.5 4 3.5 4 6.9 0 3.5-4 3.5-4 6.9 0 3.5 4 3.5 4 6.9 0 3.5-4 3.5-4 6.9 0 3.5 4 3.5 4 6.9 0 3.5-4 3.5-4 6.9"/><path fill="#FED100" d="M169.9 94.5c-2.8-.8-4.9-3-5.7-5.7-.1-.3-.6-.3-.7 0-.8 2.8-3 4.9-5.7 5.7-.3.1-.3.6 0 .7 2.8.8 4.9 3 5.7 5.7.1.3.6.3.7 0 .8-2.8 3-4.9 5.7-5.7.4-.1.4-.6 0-.7zM228.2 20.4c-2.8-.8-4.9-3-5.7-5.7-.1-.3-.6-.3-.7 0-.8 2.8-3 4.9-5.7 5.7-.3.1-.3.6 0 .7 2.8.8 4.9 3 5.7 5.7.1.3.6.3.7 0 .8-2.8 3-4.9 5.7-5.7.4-.1.4-.6 0-.7zM131.6 15.5c-2.8-.8-4.9-3-5.7-5.7-.1-.3-.6-.3-.7 0-.8 2.8-3 4.9-5.7 5.7-.3.1-.3.6 0 .7 2.8.8 4.9 3 5.7 5.7.1.3.6.3.7 0 .8-2.8 3-4.9 5.7-5.7.3-.1.3-.6 0-.7zM329.7 169.7c-4-1.2-7.2-4.4-8.4-8.4-.1-.5-.9-.5-1 0-1.2 4-4.4 7.2-8.4 8.4-.5.1-.5.9 0 1 4 1.2 7.2 4.4 8.4 8.4.1.5.9.5 1 0 1.2-4 4.4-7.2 8.4-8.4.5-.1.5-.8 0-1zM263.4 110.1a15.1 15.1 0 0 1-10.2-10.2c-.2-.6-1.1-.6-1.2 0a15.1 15.1 0 0 1-10.2 10.2c-.6.2-.6 1.1 0 1.2 4.9 1.4 8.7 5.3 10.2 10.2.2.6 1.1.6 1.2 0 1.4-4.9 5.3-8.7 10.2-10.2.6-.1.6-1 0-1.2zM49.9 48.4a15.1 15.1 0 0 1-10.2-10.2c-.2-.6-1.1-.6-1.2 0a15.1 15.1 0 0 1-10.2 10.2c-.6.2-.6 1.1 0 1.2 4.9 1.4 8.7 5.3 10.2 10.2.2.6 1.1.6 1.2 0 1.4-4.9 5.3-8.7 10.2-10.2.7-.2.7-1 0-1.2z"/><path fill="#A94CA6" d="M69.1 222.4L79.5 212l10.4 10.4c-4.6 4.2-15.6 4.5-20.8 0z"/><path fill="#564233" d="M69.1 222.4l1.1 1.1 9.3-9.3 9.3 9.3 1.1-1.1-1-1.1c-.9.9-2.3 1.6-3.9 2.1a18.4 18.4 0 0 1-10.6.1c-1.6-.5-3.1-1.2-4.2-2.2l-1.1 1.1 1.1 1.1-1.1-1.1-1 1.1c1.5 1.3 3.3 2.2 5.3 2.7a21.6 21.6 0 0 0 12.4 0c1.9-.6 3.7-1.5 5.1-2.8.3-.3.5-.7.5-1.1 0-.4-.2-.8-.4-1.1L80.5 211c-.6-.6-1.5-.6-2.1 0L68 221.3c-.3.3-.5.7-.4 1.1 0 .4.2.8.5 1.1l1-1.1z"/><path fill="#A94CA6" d="M128 119.2c0 20.6-23.3 63.4-37.5 87.6a12.4 12.4 0 0 1-21.4 0c-14.2-24.2-37.5-67-37.5-87.6 0-29.7 21.6-53.7 48.3-53.7 26.5 0 48.1 24.1 48.1 53.7"/><path fill="#564233" d="M128 119.2h-1.5c0 4.9-1.4 11.3-3.8 18.5A412.6 412.6 0 0 1 89.2 206a11.2 11.2 0 0 1-4.1 4 11 11 0 0 1-5.3 1.3 10.5 10.5 0 0 1-9.4-5.3 548.5 548.5 0 0 1-24-45c-3.8-8.1-7.1-16.1-9.5-23.3a62.6 62.6 0 0 1-3.8-18.5c0-14.5 5.3-27.6 13.8-37a44.3 44.3 0 0 1 33-15.2c12.9 0 24.5 5.8 33 15.2a55.1 55.1 0 0 1 13.8 37h2.8c0-15.2-5.5-29-14.5-39S93.6 64 79.8 64a47.4 47.4 0 0 0-35.3 16.2c-9 10-14.5 23.8-14.5 39a67 67 0 0 0 3.9 19.5 412.3 412.3 0 0 0 33.8 68.9 14 14 0 0 0 18.7 5.2c2.1-1.1 3.9-2.9 5.3-5.2a601 601 0 0 0 24.2-45.2c3.8-8.2 7.2-16.3 9.6-23.6 2.4-7.4 3.9-14 3.9-19.5H128"/><path fill="#D4A6D3" d="M69.1 82.6c-3.7 0-7 1.1-9.8 3a28.2 28.2 0 0 0-9.8 12.2 38 38 0 0 0-3.3 17.2c.1.8.7 1.4 1.5 1.4h.1c.8-.1 1.4-.8 1.4-1.6l-.1-1.9c0-5.8 2-12.8 5.5-18.2 1.8-2.7 3.9-5 6.4-6.6 2.4-1.6 5.2-2.5 8.2-2.5.8 0 1.5-.7 1.5-1.5s-.7-1.5-1.6-1.5"/><path fill="#62B355" d="M211.9 298.4l10.4-10.4 10.4 10.4c-4.6 4.2-15.5 4.5-20.8 0z"/><path fill="#564233" d="M211.9 298.4l1.1 1.1 9.3-9.3 9.3 9.3 1.1-1.1-1-1.1c-.9.9-2.3 1.6-3.9 2.1a18.4 18.4 0 0 1-10.6.1c-1.6-.5-3.1-1.2-4.2-2.2l-1.1 1.1 1.1 1.1-1.1-1.1-1 1.1c1.5 1.3 3.3 2.2 5.3 2.7a21.6 21.6 0 0 0 12.4 0c1.9-.6 3.7-1.5 5.1-2.8.3-.3.5-.7.5-1.1 0-.4-.2-.8-.4-1.1L223.4 287c-.6-.6-1.5-.6-2.1 0l-10.4 10.4c-.3.3-.5.7-.4 1.1 0 .4.2.8.5 1.1l.9-1.2z"/><path fill="#62B355" d="M270.9 195.2c0 20.6-23.3 63.4-37.5 87.6a12.4 12.4 0 0 1-21.4 0c-14.2-24.2-37.5-67-37.5-87.6 0-29.7 21.6-53.7 48.3-53.7s48.1 24.1 48.1 53.7"/><path fill="#564233" d="M270.9 195.2h-1.5c0 4.9-1.4 11.3-3.8 18.5a412.6 412.6 0 0 1-33.5 68.3 11.2 11.2 0 0 1-4.1 4 11 11 0 0 1-5.3 1.3 10.5 10.5 0 0 1-9.4-5.3 548.5 548.5 0 0 1-24-45c-3.8-8.1-7.1-16.1-9.5-23.3a62.6 62.6 0 0 1-3.8-18.5c0-14.5 5.3-27.6 13.8-37a44.3 44.3 0 0 1 33-15.2c12.9 0 24.5 5.8 33 15.2a55.1 55.1 0 0 1 13.8 37h2.8c0-15.2-5.5-29-14.5-39S236.4 140 222.7 140a47 47 0 0 0-35.2 16.2c-9 10-14.5 23.8-14.5 39a67 67 0 0 0 3.9 19.5 412.3 412.3 0 0 0 33.8 68.9 14 14 0 0 0 18.7 5.2c2.1-1.1 3.9-2.9 5.3-5.2a601 601 0 0 0 24.2-45.2c3.8-8.2 7.2-16.3 9.6-23.6 2.4-7.4 3.9-14 3.9-19.5l-1.5-.1z"/><path fill="#B1D9AA" d="M212 158.6c-3.7 0-7 1.1-9.8 3a28.2 28.2 0 0 0-9.8 12.2 38 38 0 0 0-3.3 17.2c.1.8.7 1.4 1.5 1.4h.1c.8-.1 1.4-.8 1.4-1.6l-.1-1.9c0-5.8 2-12.8 5.5-18.2 1.8-2.7 3.9-5 6.4-6.6 2.4-1.6 5.2-2.5 8.2-2.5.8 0 1.5-.7 1.5-1.5-.1-.9-.8-1.5-1.6-1.5"/><path fill="#D4A6D3" d="M48.6 126.7h-.4c-.8.2-1.3 1-1.1 1.8l1.6 6.5c.2.7.8 1.1 1.5 1.1h.4c.8-.2 1.3-1 1.1-1.8l-1.6-6.5c-.2-.6-.9-1.1-1.5-1.1"/><path fill="#B1D9AA" d="M192.6 200.7h-.4c-.8.2-1.3 1-1.1 1.8l1.6 6.5c.2.7.8 1.1 1.5 1.1h.4c.8-.2 1.3-1 1.1-1.8l-1.6-6.5c-.2-.6-.9-1.1-1.5-1.1"/></svg>