<?xml version="1.0" encoding="utf-8"?>
<!-- Generator: Adobe Illustrator 19.1.0, SVG Export Plug-In . SVG Version: 6.00 Build 0)  -->
<!DOCTYPE svg PUBLIC "-//W3C//DTD SVG 1.1//EN" "http://www.w3.org/Graphics/SVG/1.1/DTD/svg11.dtd">
<svg version="1.1" id="Layer_1" xmlns="http://www.w3.org/2000/svg" xmlns:xlink="http://www.w3.org/1999/xlink" x="0px" y="0px"
	 viewBox="0 0 340 430" enable-background="new 0 0 340 430" xml:space="preserve">
<g>
	<path fill="#F3F1EB" d="M109.4,418.3c-0.4,0-0.8-0.2-1.1-0.5l-14-14.6c-0.3-0.3-0.4-0.7-0.4-1.1c0-0.4,0.2-0.8,0.5-1.1l13.3-12.8
		l-31.2-32.5L64.9,367c-0.3,0.3-0.7,0.4-1,0.4c-0.4,0-0.8-0.2-1.1-0.5L52,355.7c-0.5-0.5-0.6-1.3-0.1-1.9c5.9-8.3,9-14.8,11-22.9
		c0.1-0.3,0.2-0.5,0.4-0.7l13.3-12.8c0.3-0.3,0.7-0.4,1-0.4c0.4,0,0.8,0.2,1.1,0.5l49.2,51.3l11-10.5c0.3-0.3,0.7-0.4,1-0.4l0,0
		c0.4,0,0.8,0.2,1.1,0.5l14,14.6c0.6,0.6,0.6,1.5,0,2.1l-44.6,42.8C110.1,418.2,109.8,418.3,109.4,418.3z"/>
	<path fill="#564233" d="M77.7,318.5l50.3,52.4l12.1-11.6l14,14.6l-44.6,42.8l-14-14.6l14.4-13.8l-33.3-34.7l-12.7,12.2l-10.7-11.2
		c6.2-8.8,9.2-15.3,11.3-23.4L77.7,318.5 M77.7,315.5c-0.8,0-1.5,0.3-2.1,0.8l-13.3,12.8c-0.4,0.4-0.7,0.9-0.8,1.4
		c-2,7.9-5,14.2-10.8,22.4c-0.8,1.2-0.7,2.8,0.3,3.8L61.7,368c0.6,0.6,1.3,0.9,2.1,0.9l0.1,0c0.8,0,1.5-0.3,2.1-0.8L76.4,358
		l29.1,30.3L93.3,400c-1.2,1.1-1.2,3-0.1,4.2l14,14.6c0.6,0.6,1.3,0.9,2.1,0.9l0.1,0c0.8,0,1.5-0.3,2.1-0.8l44.6-42.8
		c1.2-1.1,1.2-3,0.1-4.2l-14-14.6c-0.6-0.6-1.3-0.9-2.1-0.9l-0.1,0c-0.8,0-1.5,0.3-2.1,0.8l-9.9,9.5l-48.2-50.3
		C79.3,315.9,78.5,315.6,77.7,315.5L77.7,315.5z"/>
	<path fill="#9F9C92" d="M91,305.5v27.8l-16.2,23.2c-0.3,0.5-0.2,1.1,0.2,1.4c0.5,0.3,1.1,0.2,1.4-0.2l16.4-23.5
		c0.1-0.2,0.2-0.4,0.2-0.6v-28.2c0-0.6-0.4-1-1-1C91.4,304.5,91,304.9,91,305.5L91,305.5z"/>
	<path fill="#9F9C92" d="M92.6,332.8l-0.7-0.7c-0.1,0.1-0.3,0.4-0.3,0.8c0,0.2,0.1,0.4,0.1,0.5c0.1,0.3,0.3,0.4,0.4,0.5
		c0.2,0.2,0.5,0.2,0.7,0.3c0.4,0.1,0.9,0.2,1.5,0.3c1.8,0.3,4.3,0.5,6.4,0.5c0.9,0,1.7,0,2.4-0.1c0.3,0,0.6-0.1,0.9-0.2
		c0.1,0,0.3-0.1,0.4-0.2c0.1-0.1,0.3-0.2,0.5-0.3c0.4-0.5,0.5-1.1,0.5-1.6c0-0.9-0.3-1.7-0.7-2.4c-0.2-0.3-0.5-0.7-0.8-0.9
		c-0.3-0.3-0.7-0.5-1.2-0.5l0,0l-0.1,0c-0.4,0-1.1,0.1-1.9,0.2c-1.3,0.2-3,0.5-4.6,1c-0.8,0.2-1.6,0.5-2.3,0.9
		c-0.7,0.4-1.3,0.8-1.9,1.3L92.6,332.8l0.7,0.7c0.3-0.4,1-0.8,1.9-1.1c1.3-0.5,3-0.9,4.4-1.2c0.7-0.1,1.4-0.2,1.9-0.3
		c0.5-0.1,0.9-0.1,1.1-0.1l0,0l0,0l0-0.3l-0.1,0.3l0.1,0l0-0.3l-0.1,0.3l0-0.1l0,0.1l0,0l0-0.1l0,0.1c0,0,0.1,0.1,0.2,0.2
		c0.2,0.2,0.4,0.5,0.5,0.8c0.1,0.3,0.2,0.6,0.2,0.9c0,0.1,0,0.2,0,0.2l0,0l0,0l0.4,0.3l-0.2-0.4c0,0-0.1,0-0.1,0.1l0.4,0.3l-0.2-0.4
		l-0.1,0c-0.2,0.1-0.6,0.1-1,0.2c-0.5,0-1.1,0.1-1.7,0.1c-1.7,0-3.7-0.1-5.2-0.3c-0.8-0.1-1.4-0.2-1.9-0.3c-0.2-0.1-0.4-0.1-0.4-0.1
		l0,0l-0.3,0.5l0.4-0.4l-0.1-0.1l-0.3,0.5l0.4-0.4l-0.6,0.6l0.9,0c0-0.3-0.1-0.5-0.2-0.6l-0.6,0.6l0.9,0L92.6,332.8l0.7,0.7
		c0.1-0.1,0.2-0.3,0.2-0.6L92.6,332.8l0.7,0.7L92.6,332.8z"/>
	<path fill="#9F9C92" d="M92.1,332.8l0.5,0.9c0.1-0.1,0.3-0.2,0.4-0.4c0.1-0.2,0.2-0.4,0.2-0.6c0-0.2-0.1-0.4-0.1-0.6
		c-0.1-0.2-0.3-0.4-0.4-0.5c-0.3-0.2-0.5-0.4-0.9-0.6c-1.2-0.7-3.2-1.5-5.1-2.2c-1-0.3-1.9-0.6-2.8-0.9c-0.8-0.2-1.6-0.4-2.2-0.4
		c-0.3,0-0.6,0-1,0.2l0,0c-0.5,0.3-0.8,0.7-0.9,1.2c-0.2,0.4-0.2,0.9-0.2,1.3c0,0.6,0.1,1.3,0.4,1.9c0.1,0.3,0.3,0.6,0.5,0.8
		c0.2,0.2,0.5,0.5,0.9,0.6c0.2,0.1,0.6,0.2,1,0.2c1.3,0.3,3.5,0.6,5.7,0.6c0.8,0,1.7,0,2.4-0.2c0.8-0.1,1.5-0.3,2.1-0.7L92.1,332.8
		l-0.5-0.9c-0.3,0.2-0.8,0.4-1.5,0.5c-0.6,0.1-1.4,0.1-2.1,0.1c-1.3,0-2.7-0.1-3.9-0.3c-0.6-0.1-1.1-0.2-1.5-0.2
		c-0.4-0.1-0.7-0.2-0.8-0.2l-0.1,0.2l0.2-0.2l-0.1,0l-0.1,0.2l0.2-0.2l0,0c0,0-0.2-0.2-0.2-0.5c-0.1-0.3-0.1-0.6-0.1-0.9
		c0-0.3,0-0.5,0.1-0.6l0.1-0.1l0,0l0,0l-0.3-0.4l0.1,0.5c0,0,0.1,0,0.2-0.1l-0.3-0.4l0.1,0.5l0,0l0.1,0c0.2,0,0.5,0,0.9,0.1
		c1.4,0.3,3.7,1.1,5.7,1.8c1,0.4,1.8,0.8,2.4,1.1c0.3,0.2,0.5,0.3,0.6,0.4l0.1,0l0,0l0,0l0,0l0,0l0,0l0.4-0.4l-0.5,0.2l0.1,0.1
		l0.4-0.4l-0.5,0.2l0.7-0.4l-0.8,0c0,0.2,0.1,0.3,0.1,0.4l0.7-0.4l-0.8,0h0.9l-0.7-0.5c-0.1,0.1-0.2,0.3-0.1,0.5h0.9l-0.7-0.5
		l0.7,0.5l-0.4-0.7c-0.1,0-0.2,0.1-0.3,0.3l0.7,0.5l-0.4-0.7L92.1,332.8z"/>
	<path fill="#9F9C92" d="M91,247.5v86c0,0.6,0.4,1,1,1c0.6,0,1-0.4,1-1v-86c0-0.6-0.4-1-1-1C91.4,246.5,91,246.9,91,247.5"/>
	<path fill="#F3F1EB" d="M253.7,388.1c-8.6,0-24.8-4.2-35.7-32.6c-5.1-13.2-6.3-24.7-3.6-34.1c2.6-9,8.8-15.6,18-19.1
		c3.8-1.5,7.6-2.2,11.3-2.2c14.7,0,27.2,11.3,35.1,31.9c5.1,13.1,6.4,25,3.8,34.5c-2.6,9.2-8.7,16-17.8,19.5
		C261.1,387.4,257.4,388.1,253.7,388.1z M242.1,320.8c-0.7,0-1.5,0.2-2.3,0.5c-1.8,0.7-3.5,1.8-3.8,5.4c-0.4,4.2,1.2,10.7,4.8,20
		c5.4,13.9,10.1,20.6,14.6,20.6c0.7,0,1.4-0.1,2.1-0.4c1.7-0.6,3.4-1.8,3.7-5.7c0.3-4.3-1.4-11.2-5-20.4
		C250.9,327.3,246.3,320.8,242.1,320.8z"/>
	<path fill="#564233" d="M243.7,301.6c13.3,0,25.6,10,33.7,31c10.3,26.7,4,45.4-13.2,52c-3.5,1.4-7,2-10.5,2
		c-13.5,0-26.1-10.4-34.3-31.6c-10.3-26.7-3.7-44.6,13.5-51.3C236.5,302.3,240.1,301.6,243.7,301.6 M255.3,368.9
		c0.9,0,1.8-0.2,2.7-0.5c4.9-1.9,7.6-7.5-0.4-28.1c-6.5-16.7-11.2-20.9-15.4-20.9c-1,0-2,0.2-2.9,0.6c-4.9,1.9-7.9,6.7,0.1,27.4
		C245.9,364.3,250.9,368.9,255.3,368.9 M243.7,298.6v3V298.6c-3.9,0-7.9,0.8-11.9,2.3c-19.9,7.7-25.6,28.3-15.2,55.2
		c4.2,10.8,9.5,19.2,16,24.9c6.3,5.6,13.6,8.6,21.1,8.6c3.8,0,7.7-0.8,11.6-2.2c9.6-3.7,16.1-10.8,18.7-20.5
		c2.7-9.8,1.4-22-3.8-35.4C269.2,302.8,252.6,298.6,243.7,298.6z M255.3,365.9c-4.8,0-10.3-12.3-13.2-19.7c-3.5-9-5.1-15.5-4.7-19.4
		c0.2-2.6,1.2-3.5,2.9-4.1c0.7-0.3,1.3-0.4,1.8-0.4c2.4,0,6.6,3.3,12.6,19c3.5,9,5.1,15.7,4.9,19.8c-0.2,3.2-1.5,4-2.7,4.4
		C256.3,365.8,255.7,365.9,255.3,365.9z"/>
	<path fill="#FED100" d="M110.5,43.9c-2.8-0.8-4.9-3-5.7-5.7c-0.1-0.3-0.6-0.3-0.7,0c-0.8,2.8-3,4.9-5.7,5.7c-0.3,0.1-0.3,0.6,0,0.7
		c2.8,0.8,4.9,3,5.7,5.7c0.1,0.3,0.6,0.3,0.7,0c0.8-2.8,3-4.9,5.7-5.7C110.8,44.5,110.8,44,110.5,43.9z"/>
	<path fill="#FED100" d="M207.9,15.7c-2.8-0.8-4.9-3-5.7-5.7c-0.1-0.3-0.6-0.3-0.7,0c-0.8,2.8-3,4.9-5.7,5.7c-0.3,0.1-0.3,0.6,0,0.7
		c2.8,0.8,4.9,3,5.7,5.7c0.1,0.3,0.6,0.3,0.7,0c0.8-2.8,3-4.9,5.7-5.7C208.3,16.3,208.3,15.8,207.9,15.7z"/>
	<path fill="#FED100" d="M37.6,277.3c-2.8-0.8-4.9-3-5.7-5.7c-0.1-0.3-0.6-0.3-0.7,0c-0.8,2.8-3,4.9-5.7,5.7c-0.3,0.1-0.3,0.6,0,0.7
		c2.8,0.8,4.9,3,5.7,5.7c0.1,0.3,0.6,0.3,0.7,0c0.8-2.8,3-4.9,5.7-5.7C37.9,277.9,37.9,277.4,37.6,277.3z"/>
	<path fill="#FED100" d="M323.4,138.7c-4-1.2-7.2-4.4-8.4-8.4c-0.1-0.5-0.9-0.5-1,0c-1.2,4-4.4,7.2-8.4,8.4c-0.5,0.1-0.5,0.9,0,1
		c4,1.2,7.2,4.4,8.4,8.4c0.1,0.5,0.9,0.5,1,0c1.2-4,4.4-7.2,8.4-8.4C323.9,139.6,323.9,138.9,323.4,138.7z"/>
	<path fill="#FED100" d="M284.7,21.7c-4.9-1.4-8.7-5.3-10.2-10.2c-0.2-0.6-1.1-0.6-1.2,0c-1.4,4.9-5.3,8.7-10.2,10.2
		c-0.6,0.2-0.6,1.1,0,1.2c4.9,1.4,8.7,5.3,10.2,10.2c0.2,0.6,1.1,0.6,1.2,0c1.4-4.9,5.3-8.7,10.2-10.2
		C285.3,22.8,285.3,21.9,284.7,21.7z"/>
	<path fill="#FED100" d="M29.6,43.6c-4.9-1.4-8.7-5.3-10.2-10.2c-0.2-0.6-1.1-0.6-1.2,0c-1.4,4.9-5.3,8.7-10.2,10.2
		c-0.6,0.2-0.6,1.1,0,1.2c4.9,1.4,8.7,5.3,10.2,10.2c0.2,0.6,1.1,0.6,1.2,0c1.4-4.9,5.3-8.7,10.2-10.2
		C30.3,44.7,30.3,43.8,29.6,43.6z"/>
	<path fill="#9F9C92" d="M242,210.5v88.2l0,0l0.3,24.4c0,0.6,0.5,1,1,1c0.6,0,1-0.5,1-1l-0.3-24.3l0-88.1c0-0.6-0.4-1-1-1
		C242.4,209.5,242,209.9,242,210.5L242,210.5z"/>
	<path fill="#9F9C92" d="M244.6,297.8l-0.7-0.7c-0.1,0.1-0.3,0.4-0.3,0.8c0,0.2,0.1,0.4,0.1,0.5c0.1,0.3,0.3,0.4,0.4,0.5
		c0.2,0.2,0.5,0.2,0.7,0.3c0.4,0.1,0.9,0.2,1.5,0.3c1.8,0.3,4.3,0.5,6.4,0.5c0.9,0,1.7,0,2.4-0.1c0.3,0,0.6-0.1,0.9-0.2
		c0.1,0,0.3-0.1,0.4-0.2c0.1-0.1,0.3-0.2,0.5-0.3c0.4-0.5,0.5-1.1,0.5-1.6c0-0.9-0.3-1.7-0.7-2.4c-0.2-0.3-0.5-0.7-0.8-0.9
		c-0.3-0.3-0.7-0.5-1.2-0.5l-0.1,0c-0.4,0-1.1,0.1-1.9,0.2c-1.3,0.2-3,0.5-4.6,1c-0.8,0.2-1.6,0.5-2.3,0.9c-0.7,0.4-1.3,0.8-1.9,1.3
		L244.6,297.8l0.7,0.7c0.3-0.4,1-0.8,1.9-1.1c1.3-0.5,3-0.9,4.4-1.2c0.7-0.1,1.4-0.2,1.9-0.3c0.5-0.1,0.9-0.1,1.1-0.1l0,0l0-0.3
		l-0.1,0.3l0.1,0l0-0.3l-0.1,0.3l0-0.1l0,0.1l0,0l0-0.1l0,0.1c0,0,0.1,0.1,0.2,0.2c0.2,0.2,0.4,0.5,0.5,0.8c0.1,0.3,0.2,0.6,0.2,0.9
		c0,0.1,0,0.2,0,0.2l0,0l0,0l0.4,0.3l-0.2-0.4c0,0-0.1,0-0.1,0.1l0.4,0.3l-0.2-0.4l-0.1,0c-0.2,0.1-0.6,0.1-1,0.2
		c-0.5,0-1.1,0.1-1.7,0.1c-1.7,0-3.7-0.1-5.2-0.3c-0.8-0.1-1.4-0.2-1.9-0.3c-0.2-0.1-0.4-0.1-0.4-0.1l0,0l-0.3,0.5l0.4-0.4l-0.1-0.1
		l-0.3,0.5l0.4-0.4l-0.6,0.6l0.9,0c0-0.3-0.1-0.5-0.2-0.6l-0.6,0.6l0.9,0L244.6,297.8l0.7,0.7c0.1-0.1,0.2-0.3,0.2-0.6L244.6,297.8
		l0.7,0.7L244.6,297.8z"/>
	<path fill="#9F9C92" d="M244.1,297.8l0.5,0.9c0.1-0.1,0.3-0.2,0.4-0.4c0.1-0.2,0.2-0.4,0.2-0.6c0-0.2-0.1-0.4-0.1-0.6
		c-0.1-0.2-0.3-0.4-0.4-0.5c-0.3-0.2-0.5-0.4-0.9-0.6c-1.2-0.7-3.2-1.5-5.1-2.2c-1-0.3-1.9-0.6-2.8-0.9c-0.8-0.2-1.6-0.4-2.2-0.4
		c-0.3,0-0.6,0-1,0.2c-0.5,0.3-0.8,0.7-0.9,1.2c-0.2,0.4-0.2,0.9-0.2,1.3c0,0.6,0.1,1.3,0.4,1.9c0.1,0.3,0.3,0.6,0.5,0.8
		c0.2,0.2,0.5,0.5,0.9,0.6c0.2,0.1,0.6,0.2,1,0.2c1.3,0.3,3.5,0.6,5.7,0.6c0.8,0,1.7,0,2.4-0.2c0.8-0.1,1.5-0.3,2.1-0.7L244.1,297.8
		l-0.5-0.9c-0.3,0.2-0.8,0.4-1.5,0.5c-0.6,0.1-1.4,0.1-2.1,0.1c-1.3,0-2.7-0.1-3.9-0.3c-0.6-0.1-1.1-0.2-1.5-0.2
		c-0.4-0.1-0.7-0.2-0.8-0.2l-0.1,0.2l0.2-0.2l-0.1,0l-0.1,0.2l0.2-0.2l0,0c0,0-0.2-0.2-0.2-0.5c-0.1-0.3-0.1-0.6-0.1-0.9
		c0-0.3,0-0.5,0.1-0.6l0.1-0.1l0,0l-0.3-0.4l0.1,0.5c0,0,0.1,0,0.2-0.1l-0.3-0.4l0.1,0.5l0,0l0.1,0c0.2,0,0.5,0,0.9,0.1
		c1.4,0.3,3.7,1.1,5.7,1.8c1,0.4,1.8,0.8,2.4,1.1c0.3,0.2,0.5,0.3,0.6,0.4l0.1,0l0,0l0,0l0,0l0,0l0,0l0.4-0.4l-0.5,0.2l0.1,0.1
		l0.4-0.4l-0.5,0.2l0.7-0.4l-0.8,0c0,0.2,0.1,0.3,0.1,0.4l0.7-0.4l-0.8,0h0.9l-0.7-0.5c-0.1,0.1-0.2,0.3-0.1,0.5h0.9l-0.7-0.5
		l0.7,0.5l-0.4-0.7c-0.1,0-0.2,0.1-0.3,0.3l0.7,0.5l-0.4-0.7L244.1,297.8z"/>
	<path fill="#4FADED" d="M81.8,246.6l10.4-10.4l10.4,10.4C98,250.8,87,251.1,81.8,246.6z"/>
	<path fill="#564233" d="M81.8,246.6l1.1,1.1l9.3-9.3l9.3,9.3l1.1-1.1l-1-1.1c-0.9,0.9-2.3,1.6-3.9,2.1c-1.6,0.5-3.5,0.8-5.3,0.8
		c-1.8,0-3.7-0.2-5.3-0.7c-1.6-0.5-3.1-1.2-4.2-2.2L81.8,246.6l1.1,1.1L81.8,246.6l-1,1.1c1.5,1.3,3.3,2.2,5.3,2.7
		c2,0.6,4.1,0.9,6.2,0.9c2.2,0,4.3-0.3,6.2-0.9c1.9-0.6,3.7-1.5,5.1-2.8c0.3-0.3,0.5-0.7,0.5-1.1c0-0.4-0.2-0.8-0.4-1.1l-10.4-10.4
		c-0.6-0.6-1.5-0.6-2.1,0l-10.4,10.4c-0.3,0.3-0.5,0.7-0.4,1.1s0.2,0.8,0.5,1.1L81.8,246.6z"/>
	<path fill="#4FADED" d="M140.7,143.5c0,20.6-23.3,63.4-37.5,87.6c-4.8,8.2-16.6,8.2-21.4,0c-14.2-24.2-37.5-67-37.5-87.6
		c0-29.7,21.6-53.7,48.3-53.7C119.1,89.7,140.7,113.8,140.7,143.5"/>
	<path fill="#564233" d="M140.7,143.5h-1.5c0,4.9-1.4,11.3-3.8,18.5c-7.1,21.6-22.9,50.2-33.5,68.3c-1.1,1.8-2.5,3.1-4.1,4
		c-1.6,0.9-3.5,1.3-5.3,1.3c-1.8,0-3.7-0.5-5.3-1.3c-1.6-0.9-3.1-2.2-4.1-4c-7.1-12.1-16.5-28.8-24-45c-3.8-8.1-7.1-16.1-9.5-23.3
		c-2.4-7.2-3.8-13.6-3.8-18.5c0-14.5,5.3-27.6,13.8-37c8.5-9.4,20.1-15.2,33-15.2c12.9,0,24.5,5.8,33,15.2
		c8.5,9.4,13.8,22.5,13.8,37H140.7h1.5c0-15.2-5.5-29-14.5-39c-9-10-21.5-16.2-35.2-16.2c-13.8,0-26.3,6.2-35.2,16.2
		c-9,10-14.5,23.8-14.5,39c0,5.4,1.5,12.1,3.9,19.5c7.3,22.1,23.1,50.7,33.8,68.9c1.3,2.3,3.2,4,5.3,5.2c2.1,1.1,4.4,1.7,6.7,1.7
		s4.7-0.6,6.7-1.7c2.1-1.1,3.9-2.9,5.3-5.2c7.1-12.1,16.5-28.9,24.2-45.2c3.8-8.2,7.2-16.3,9.6-23.6c2.4-7.4,3.9-14,3.9-19.5H140.7"
		/>
	<path fill="#A7D6F6" d="M81.8,106.8c-3.7,0-7,1.1-9.8,3c-4.3,2.8-7.6,7.3-9.8,12.2c-2.2,4.9-3.4,10.3-3.4,15.1c0,0.7,0,1.4,0.1,2.1
		c0.1,0.8,0.7,1.4,1.5,1.4c0,0,0.1,0,0.1,0c0.8-0.1,1.4-0.8,1.4-1.6v0c0-0.6-0.1-1.2-0.1-1.9c0-5.8,2-12.8,5.5-18.2
		c1.8-2.7,3.9-5,6.4-6.6c2.4-1.6,5.2-2.5,8.2-2.5c0.8,0,1.5-0.7,1.5-1.5C83.3,107.5,82.7,106.8,81.8,106.8
		C81.8,106.8,81.8,106.8,81.8,106.8"/>
	<path fill="#F4A140" d="M232.6,211.6l10.4-10.4l10.4,10.4C248.8,215.8,237.9,216.1,232.6,211.6z"/>
	<path fill="#564233" d="M232.6,211.6l1.1,1.1l9.3-9.3l9.3,9.3l1.1-1.1l-1-1.1c-0.9,0.9-2.3,1.6-3.9,2.1c-1.6,0.5-3.5,0.8-5.3,0.8
		c-1.8,0-3.7-0.2-5.3-0.7c-1.6-0.5-3.1-1.2-4.2-2.2L232.6,211.6l1.1,1.1L232.6,211.6l-1,1.1c1.5,1.3,3.3,2.2,5.3,2.7
		c2,0.6,4.1,0.9,6.2,0.9c2.2,0,4.3-0.3,6.2-0.9c1.9-0.6,3.7-1.5,5.1-2.8c0.3-0.3,0.5-0.7,0.5-1.1s-0.2-0.8-0.4-1.1l-10.4-10.4
		c-0.6-0.6-1.5-0.6-2.1,0l-10.4,10.4c-0.3,0.3-0.5,0.7-0.4,1.1c0,0.4,0.2,0.8,0.5,1.1L232.6,211.6z"/>
	<path fill="#F4A140" d="M291.6,108.5c0,20.6-23.3,63.4-37.5,87.6c-4.8,8.2-16.6,8.2-21.4,0c-14.2-24.2-37.5-67-37.5-87.6
		c0-29.7,21.6-53.7,48.3-53.7C270,54.7,291.6,78.8,291.6,108.5"/>
	<path fill="#564233" d="M291.6,108.5h-1.5c0,4.9-1.4,11.3-3.8,18.5c-7.1,21.6-22.9,50.2-33.5,68.3c-1.1,1.8-2.5,3.1-4.1,4
		c-1.6,0.9-3.5,1.3-5.3,1.3c-1.8,0-3.7-0.5-5.3-1.3c-1.6-0.9-3.1-2.2-4.1-4c-7.1-12.1-16.5-28.8-24-45c-3.8-8.1-7.1-16.1-9.5-23.3
		c-2.4-7.2-3.8-13.6-3.8-18.5c0-14.5,5.3-27.6,13.8-37c8.5-9.4,20.1-15.2,33-15.2c12.9,0,24.5,5.8,33,15.2
		c8.5,9.4,13.8,22.5,13.8,37H291.6h1.5c0-15.2-5.5-29-14.5-39c-9-10-21.5-16.2-35.2-16.2c-13.8,0-26.3,6.2-35.2,16.2
		c-9,10-14.5,23.8-14.5,39c0,5.4,1.5,12.1,3.9,19.5c7.3,22.1,23.1,50.7,33.8,68.9c1.3,2.3,3.2,4,5.3,5.2c2.1,1.1,4.4,1.7,6.7,1.7
		c2.3,0,4.7-0.6,6.7-1.7c2.1-1.1,3.9-2.9,5.3-5.2c7.1-12.1,16.5-28.9,24.2-45.2c3.8-8.2,7.2-16.3,9.6-23.6c2.4-7.4,3.9-14,3.9-19.5
		H291.6"/>
	<path fill="#FAD0A0" d="M232.7,71.8c-3.7,0-7,1.1-9.8,3c-4.3,2.8-7.6,7.3-9.8,12.2c-2.2,4.9-3.4,10.3-3.4,15.1c0,0.7,0,1.4,0.1,2.1
		c0.1,0.8,0.7,1.4,1.5,1.4c0,0,0.1,0,0.1,0c0.8-0.1,1.4-0.8,1.4-1.6c0-0.6-0.1-1.2-0.1-1.9c0-5.8,2-12.8,5.5-18.2
		c1.8-2.7,3.9-5,6.4-6.6c2.4-1.6,5.2-2.5,8.2-2.5c0.8,0,1.5-0.7,1.5-1.5C234.2,72.5,233.5,71.8,232.7,71.8
		C232.7,71.8,232.7,71.8,232.7,71.8"/>
	<path fill="#A7D6F6" d="M61.3,145c-0.1,0-0.2,0-0.4,0c-0.8,0.2-1.3,1-1.1,1.8l1.6,6.5c0.2,0.7,0.8,1.1,1.5,1.1c0.1,0,0.2,0,0.4,0
		c0.8-0.2,1.3-1,1.1-1.8l-1.6-6.5C62.6,145.4,61.9,145,61.3,145"/>
	<path fill="#FAD0A0" d="M213.3,114c-0.1,0-0.2,0-0.4,0c-0.8,0.2-1.3,1-1.1,1.8l1.6,6.5c0.2,0.7,0.8,1.1,1.5,1.1c0.1,0,0.2,0,0.4,0
		c0.8-0.2,1.3-1,1.1-1.8l-1.6-6.5C214.6,114.4,213.9,114,213.3,114"/>
</g>
</svg>
