<?xml version="1.0" encoding="utf-8"?>
<!-- Generator: Adobe Illustrator 19.1.0, SVG Export Plug-In . SVG Version: 6.00 Build 0)  -->
<!DOCTYPE svg PUBLIC "-//W3C//DTD SVG 1.1//EN" "http://www.w3.org/Graphics/SVG/1.1/DTD/svg11.dtd">
<svg version="1.1" id="Layer_1" xmlns="http://www.w3.org/2000/svg" xmlns:xlink="http://www.w3.org/1999/xlink" x="0px" y="0px"
	 viewBox="0 0 340 372.8" enable-background="new 0 0 340 372.8" xml:space="preserve">
<g>
	<g>
		<path fill="none" stroke="#E2DFD9" stroke-width="2" stroke-miterlimit="10" d="M82,199.5c0,3.5-4,3.5-4,6.9c0,3.5,4,3.5,4,6.9
			c0,3.5-4,3.5-4,6.9c0,3.5,4,3.5,4,6.9c0,3.5-4,3.5-4,6.9c0,3.5,4,3.5,4,6.9c0,3.5-4,3.5-4,6.9c0,3.5,4,3.5,4,6.9
			c0,3.5-4,3.5-4,6.9c0,3.5,4,3.5,4,6.9c0,3.5-4,3.5-4,6.9c0,3.5,4,3.5,4,6.9c0,3.5-4,3.5-4,6.9c0,3.5,4,3.5,4,6.9
			c0,3.5-4,3.5-4,6.9c0,3.5,4,3.5,4,6.9c0,3.5-4,3.5-4,6.9"/>
	</g>
	<g>
		<path fill="none" stroke="#E2DFD9" stroke-width="2" stroke-miterlimit="10" d="M225,246.5c0,3.5-4,3.5-4,6.9c0,3.5,4,3.5,4,6.9
			c0,3.5-4,3.5-4,6.9c0,3.5,4,3.5,4,6.9c0,3.5-4,3.5-4,6.9c0,3.5,4,3.5,4,6.9c0,3.5-4,3.5-4,6.9c0,3.5,4,3.5,4,6.9
			c0,3.5-4,3.5-4,6.9c0,3.5,4,3.5,4,6.9c0,3.5-4,3.5-4,6.9c0,3.5,4,3.5,4,6.9c0,3.5-4,3.5-4,6.9c0,3.5,4,3.5,4,6.9
			c0,3.5-4,3.5-4,6.9c0,3.5,4,3.5,4,6.9c0,3.5-4,3.5-4,6.9"/>
	</g>
	<path fill="#FED100" d="M169.9,94.5c-2.8-0.8-4.9-3-5.7-5.7c-0.1-0.3-0.6-0.3-0.7,0c-0.8,2.8-3,4.9-5.7,5.7c-0.3,0.1-0.3,0.6,0,0.7
		c2.8,0.8,4.9,3,5.7,5.7c0.1,0.3,0.6,0.3,0.7,0c0.8-2.8,3-4.9,5.7-5.7C170.3,95.1,170.3,94.6,169.9,94.5z"/>
	<path fill="#FED100" d="M228.2,20.4c-2.8-0.8-4.9-3-5.7-5.7c-0.1-0.3-0.6-0.3-0.7,0c-0.8,2.8-3,4.9-5.7,5.7c-0.3,0.1-0.3,0.6,0,0.7
		c2.8,0.8,4.9,3,5.7,5.7c0.1,0.3,0.6,0.3,0.7,0c0.8-2.8,3-4.9,5.7-5.7C228.6,21,228.6,20.5,228.2,20.4z"/>
	<path fill="#FED100" d="M131.6,15.5c-2.8-0.8-4.9-3-5.7-5.7c-0.1-0.3-0.6-0.3-0.7,0c-0.8,2.8-3,4.9-5.7,5.7c-0.3,0.1-0.3,0.6,0,0.7
		c2.8,0.8,4.9,3,5.7,5.7c0.1,0.3,0.6,0.3,0.7,0c0.8-2.8,3-4.9,5.7-5.7C131.9,16.1,131.9,15.6,131.6,15.5z"/>
	<path fill="#FED100" d="M329.7,169.7c-4-1.2-7.2-4.4-8.4-8.4c-0.1-0.5-0.9-0.5-1,0c-1.2,4-4.4,7.2-8.4,8.4c-0.5,0.1-0.5,0.9,0,1
		c4,1.2,7.2,4.4,8.4,8.4c0.1,0.5,0.9,0.5,1,0c1.2-4,4.4-7.2,8.4-8.4C330.2,170.6,330.2,169.9,329.7,169.7z"/>
	<path fill="#FED100" d="M263.4,110.1c-4.9-1.4-8.7-5.3-10.2-10.2c-0.2-0.6-1.1-0.6-1.2,0c-1.4,4.9-5.3,8.7-10.2,10.2
		c-0.6,0.2-0.6,1.1,0,1.2c4.9,1.4,8.7,5.3,10.2,10.2c0.2,0.6,1.1,0.6,1.2,0c1.4-4.9,5.3-8.7,10.2-10.2
		C264,111.2,264,110.3,263.4,110.1z"/>
	<path fill="#FED100" d="M49.9,48.4c-4.9-1.4-8.7-5.3-10.2-10.2c-0.2-0.6-1.1-0.6-1.2,0c-1.4,4.9-5.3,8.7-10.2,10.2
		c-0.6,0.2-0.6,1.1,0,1.2c4.9,1.4,8.7,5.3,10.2,10.2c0.2,0.6,1.1,0.6,1.2,0c1.4-4.9,5.3-8.7,10.2-10.2
		C50.6,49.4,50.6,48.6,49.9,48.4z"/>
	<path fill="#A94CA6" d="M69.1,222.4L79.5,212l10.4,10.4C85.3,226.6,74.3,226.9,69.1,222.4z"/>
	<path fill="#564233" d="M69.1,222.4l1.1,1.1l9.3-9.3l9.3,9.3l1.1-1.1l-1-1.1c-0.9,0.9-2.3,1.6-3.9,2.1c-1.6,0.5-3.5,0.8-5.3,0.8
		c-1.8,0-3.7-0.2-5.3-0.7c-1.6-0.5-3.1-1.2-4.2-2.2L69.1,222.4l1.1,1.1L69.1,222.4l-1,1.1c1.5,1.3,3.3,2.2,5.3,2.7
		c2,0.6,4.1,0.9,6.2,0.9c2.2,0,4.3-0.3,6.2-0.9c1.9-0.6,3.7-1.5,5.1-2.8c0.3-0.3,0.5-0.7,0.5-1.1c0-0.4-0.2-0.8-0.4-1.1L80.5,211
		c-0.6-0.6-1.5-0.6-2.1,0L68,221.3c-0.3,0.3-0.5,0.7-0.4,1.1c0,0.4,0.2,0.8,0.5,1.1L69.1,222.4z"/>
	<path fill="#A94CA6" d="M128,119.2c0,20.6-23.3,63.4-37.5,87.6c-4.8,8.2-16.6,8.2-21.4,0c-14.2-24.2-37.5-67-37.5-87.6
		c0-29.7,21.6-53.7,48.3-53.7C106.4,65.5,128,89.6,128,119.2"/>
	<path fill="#564233" d="M128,119.2h-1.5c0,4.9-1.4,11.3-3.8,18.5c-7.1,21.6-22.9,50.2-33.5,68.3c-1.1,1.8-2.5,3.1-4.1,4
		c-1.6,0.9-3.5,1.3-5.3,1.3c-1.8,0-3.7-0.5-5.3-1.3c-1.6-0.9-3.1-2.2-4.1-4c-7.1-12.1-16.5-28.8-24-45c-3.8-8.1-7.1-16.1-9.5-23.3
		c-2.4-7.2-3.8-13.6-3.8-18.5c0-14.5,5.3-27.6,13.8-37c8.5-9.4,20.1-15.2,33-15.2c12.9,0,24.5,5.8,33,15.2
		c8.5,9.4,13.8,22.5,13.8,37H128h1.5c0-15.2-5.5-29-14.5-39C106,70.2,93.6,64,79.8,64C66,64,53.5,70.2,44.5,80.2
		c-9,10-14.5,23.8-14.5,39c0,5.4,1.5,12.1,3.9,19.5c7.3,22.1,23.1,50.7,33.8,68.9c1.3,2.3,3.2,4,5.3,5.2c2.1,1.1,4.4,1.7,6.7,1.7
		c2.3,0,4.7-0.6,6.7-1.7c2.1-1.1,3.9-2.9,5.3-5.2c7.1-12.1,16.5-28.9,24.2-45.2c3.8-8.2,7.2-16.3,9.6-23.6c2.4-7.4,3.9-14,3.9-19.5
		H128"/>
	<path fill="#D4A6D3" d="M69.1,82.6c-3.7,0-7,1.1-9.8,3c-4.3,2.8-7.6,7.3-9.8,12.2c-2.2,4.9-3.4,10.3-3.4,15.1c0,0.7,0,1.4,0.1,2.1
		c0.1,0.8,0.7,1.4,1.5,1.4c0,0,0.1,0,0.1,0c0.8-0.1,1.4-0.8,1.4-1.6v0c0-0.6-0.1-1.2-0.1-1.9c0-5.8,2-12.8,5.5-18.2
		c1.8-2.7,3.9-5,6.4-6.6c2.4-1.6,5.2-2.5,8.2-2.5c0.8,0,1.5-0.7,1.5-1.5S70,82.6,69.1,82.6C69.1,82.6,69.1,82.6,69.1,82.6"/>
	<path fill="#62B355" d="M211.9,298.4l10.4-10.4l10.4,10.4C228.1,302.6,217.2,302.9,211.9,298.4z"/>
	<path fill="#564233" d="M211.9,298.4l1.1,1.1l9.3-9.3l9.3,9.3l1.1-1.1l-1-1.1c-0.9,0.9-2.3,1.6-3.9,2.1c-1.6,0.5-3.5,0.8-5.3,0.8
		c-1.8,0-3.7-0.2-5.3-0.7c-1.6-0.5-3.1-1.2-4.2-2.2L211.9,298.4l1.1,1.1L211.9,298.4l-1,1.1c1.5,1.3,3.3,2.2,5.3,2.7
		c2,0.6,4.1,0.9,6.2,0.9c2.2,0,4.3-0.3,6.2-0.9c1.9-0.6,3.7-1.5,5.1-2.8c0.3-0.3,0.5-0.7,0.5-1.1c0-0.4-0.2-0.8-0.4-1.1L223.4,287
		c-0.6-0.6-1.5-0.6-2.1,0l-10.4,10.4c-0.3,0.3-0.5,0.7-0.4,1.1c0,0.4,0.2,0.8,0.5,1.1L211.9,298.4z"/>
	<path fill="#62B355" d="M270.9,195.2c0,20.6-23.3,63.4-37.5,87.6c-4.8,8.2-16.6,8.2-21.4,0c-14.2-24.2-37.5-67-37.5-87.6
		c0-29.7,21.6-53.7,48.3-53.7S270.9,165.6,270.9,195.2"/>
	<path fill="#564233" d="M270.9,195.2h-1.5c0,4.9-1.4,11.3-3.8,18.5c-7.1,21.6-22.9,50.2-33.5,68.3c-1.1,1.8-2.5,3.1-4.1,4
		c-1.6,0.9-3.5,1.3-5.3,1.3c-1.8,0-3.7-0.5-5.3-1.3c-1.6-0.9-3.1-2.2-4.1-4c-7.1-12.1-16.5-28.8-24-45c-3.8-8.1-7.1-16.1-9.5-23.3
		c-2.4-7.2-3.8-13.6-3.8-18.5c0-14.5,5.3-27.6,13.8-37c8.5-9.4,20.1-15.2,33-15.2c12.9,0,24.5,5.8,33,15.2
		c8.5,9.4,13.8,22.5,13.8,37H270.9h1.5c0-15.2-5.5-29-14.5-39c-9-10-21.5-16.2-35.2-16.2c-13.8,0-26.3,6.2-35.2,16.2
		c-9,10-14.5,23.8-14.5,39c0,5.4,1.5,12.1,3.9,19.5c7.3,22.1,23.1,50.7,33.8,68.9c1.3,2.3,3.2,4,5.3,5.2c2.1,1.1,4.4,1.7,6.7,1.7
		c2.3,0,4.7-0.6,6.7-1.7c2.1-1.1,3.9-2.9,5.3-5.2c7.1-12.1,16.5-28.9,24.2-45.2c3.8-8.2,7.2-16.3,9.6-23.6c2.4-7.4,3.9-14,3.9-19.5
		L270.9,195.2z"/>
	<path fill="#B1D9AA" d="M212,158.6c-3.7,0-7,1.1-9.8,3c-4.3,2.8-7.6,7.3-9.8,12.2c-2.2,4.9-3.4,10.3-3.4,15.1c0,0.7,0,1.4,0.1,2.1
		c0.1,0.8,0.7,1.4,1.5,1.4c0,0,0.1,0,0.1,0c0.8-0.1,1.4-0.8,1.4-1.6c0-0.6-0.1-1.2-0.1-1.9c0-5.8,2-12.8,5.5-18.2
		c1.8-2.7,3.9-5,6.4-6.6c2.4-1.6,5.2-2.5,8.2-2.5c0.8,0,1.5-0.7,1.5-1.5C213.5,159.2,212.8,158.6,212,158.6
		C212,158.6,212,158.6,212,158.6"/>
	<path fill="#D4A6D3" d="M48.6,126.7c-0.1,0-0.2,0-0.4,0c-0.8,0.2-1.3,1-1.1,1.8l1.6,6.5c0.2,0.7,0.8,1.1,1.5,1.1c0.1,0,0.2,0,0.4,0
		c0.8-0.2,1.3-1,1.1-1.8l-1.6-6.5C49.9,127.2,49.2,126.7,48.6,126.7"/>
	<path fill="#B1D9AA" d="M192.6,200.7c-0.1,0-0.2,0-0.4,0c-0.8,0.2-1.3,1-1.1,1.8l1.6,6.5c0.2,0.7,0.8,1.1,1.5,1.1
		c0.1,0,0.2,0,0.4,0c0.8-0.2,1.3-1,1.1-1.8l-1.6-6.5C193.9,201.2,193.2,200.7,192.6,200.7"/>
</g>
</svg>
