<?xml version="1.0" encoding="utf-8"?>
<!-- Generator: Adobe Illustrator 19.1.0, SVG Export Plug-In . SVG Version: 6.00 Build 0)  -->
<!DOCTYPE svg PUBLIC "-//W3C//DTD SVG 1.1//EN" "http://www.w3.org/Graphics/SVG/1.1/DTD/svg11.dtd">
<svg version="1.1" id="Layer_1" xmlns="http://www.w3.org/2000/svg" xmlns:xlink="http://www.w3.org/1999/xlink" x="0px" y="0px"
	 viewBox="0 0 409 513" enable-background="new 0 0 409 513" xml:space="preserve">
<g>
	<path opacity="0.1608" fill="#2E3192" d="M65.2,473.4c-5.4,0.5-10.4,1-15.1,1.6c-11.4,1.4-20.5,2.9-26.7,4.5
		c-3.5,0.9-6.2,1.9-7.6,2.7c-0.8,0.5-1.2,0.9-1.3,1.1c-0.1,0.1,0,0.1,0,0.1c0,0,0,0,0,0.1c0.1,0.1,0.2,0.3,0.4,0.5
		c0.5,0.4,1.3,0.9,2.5,1.4c2.3,1,6,2,10.7,3c9.4,2,23.2,3.8,40.2,5.3c34,3,81,4.9,133,4.9l0,0c61.9,0,116.9-2.6,151.1-6.7
		c11.4-1.4,20.5-2.9,26.7-4.5c3.5-0.9,6.2-1.9,7.6-2.7c0.8-0.5,1.2-0.9,1.3-1.1c0.1-0.1,0-0.1,0-0.1h1.5l0,0h-1.5c0,0,0,0,0-0.1
		c-0.1-0.1-0.2-0.3-0.4-0.5c-0.5-0.4-1.3-0.9-2.5-1.4c-2.3-1-6-2-10.7-3c-8.9-1.9-21.5-3.5-37.1-5v8c0,1.7-1.3,3-3,3h-266
		c-1.7,0-3-1.3-3-3V473.4"/>
	<path opacity="0.1608" fill="#2E3192" d="M65.2,470.4c-15.8,1.5-28.7,3.2-37.8,5.1c-4.8,1-8.6,2.1-11.3,3.2
		c-1.3,0.6-2.4,1.2-3.2,1.9c-0.4,0.4-0.8,0.8-1,1.2c-0.3,0.5-0.4,1-0.4,1.6c0,0.6,0.2,1.1,0.4,1.6c0.5,0.9,1.4,1.6,2.4,2.2
		c1.9,1.1,4.7,2.1,8.4,3.1c6.5,1.7,15.6,3.2,27.1,4.6c34.4,4.1,89.4,6.7,151.4,6.7c52,0,99.1-1.9,133.2-4.9
		c17.1-1.5,30.9-3.3,40.5-5.3c4.8-1,8.6-2.1,11.3-3.2c1.3-0.6,2.4-1.2,3.2-1.9c0.4-0.4,0.8-0.8,1-1.2c0.3-0.5,0.4-1,0.4-1.6
		c0-0.6-0.2-1.1-0.4-1.6c-0.5-0.9-1.4-1.6-2.4-2.2c-1.9-1.1-4.7-2.1-8.4-3.1c-6.5-1.7-15.6-3.2-27.1-4.6c-4.8-0.6-9.9-1.1-15.4-1.6
		v3c15.6,1.4,28.3,3.1,37.1,5c4.7,1,8.3,2,10.7,3c1.2,0.5,2,1,2.5,1.4c0.2,0.2,0.4,0.4,0.4,0.5c0.1,0.1,0,0.1,0,0.1h1.5h1.5h-1.5
		h-1.5c0,0,0,0,0,0.1c-0.1,0.2-0.5,0.6-1.3,1.1c-1.5,0.9-4.1,1.8-7.6,2.7c-6.2,1.6-15.3,3.1-26.7,4.5c-34.2,4.1-89.1,6.7-151.1,6.7
		l0,0c-51.9,0-99-1.9-133-4.9c-17-1.5-30.7-3.3-40.2-5.3c-4.7-1-8.3-2-10.7-3c-1.2-0.5-2-1-2.5-1.4c-0.2-0.2-0.4-0.4-0.4-0.5
		c-0.1-0.1,0-0.1,0-0.1c0,0,0,0,0-0.1c0.1-0.2,0.5-0.6,1.3-1.1c1.5-0.9,4.1-1.8,7.6-2.7c6.2-1.6,15.3-3.1,26.7-4.5
		c4.6-0.6,9.7-1.1,15.1-1.6V470.4"/>
	<path fill="#FCFCFC" d="M183,155.8h-12.6c-4.8,3-9.4,4.8-16.6,6.2l0,0c7.2-1.4,11.8-3.2,16.6-6.2h3.5l-16.8,16.8l8.7,0v5.3
		l17.2-17.2v20.5l-17.2,17.2l0,7h-13.6l6.6,0l-6.6,6.6l0,7.2h6.8l24-24v10.2h10.3l-13.8,13.8l14,0l0.9-0.9v0.9h0v-13.8H183V155.8"/>
	<path fill="#564233" d="M153.8,162L153.8,162c7.2-1.4,11.8-3.2,16.6-6.2H183v49.6h11.4v13.8l0,0h-0.9l0,0h-14l0,0H159l-6.8,0V212
		l0,0v-6.6h0v0h13.6v-7l0,0v-20.5l0-5.3h-8.7l0,0h-3.3L153.8,162L153.8,162 M183,152.8h-12.6c-0.6,0-1.1,0.2-1.6,0.5
		c-4.6,2.9-9,4.5-15.6,5.8c-1.4,0.3-2.4,1.5-2.4,2.9v10.6c0,1.7,1.3,3,3,3h9v26.8h-10.6c-1.7,0-3,1.3-3,3v13.8
		c0,1.2,0.8,2.3,1.9,2.8h44.5c1.1-0.5,1.9-1.5,1.9-2.8v-13.8c0-1.7-1.3-3-3-3H186v-46.6C186,154.2,184.6,152.8,183,152.8"/>
	<path fill="#FCFCFC" d="M246.1,207.9C246.1,207.9,246.1,207.9,246.1,207.9L246.1,207.9 M246.1,207.8
		C246.1,207.8,246.1,207.8,246.1,207.8C246.1,207.8,246.1,207.8,246.1,207.8 M246.2,207.7C246.2,207.7,246.2,207.7,246.2,207.7
		C246.2,207.7,246.2,207.7,246.2,207.7 M246.2,207.6C246.2,207.6,246.2,207.6,246.2,207.6C246.2,207.6,246.2,207.6,246.2,207.6
		 M246.3,207.5C246.3,207.5,246.3,207.5,246.3,207.5C246.3,207.5,246.3,207.5,246.3,207.5 M246.3,207.4
		C246.3,207.4,246.3,207.5,246.3,207.4C246.3,207.5,246.3,207.4,246.3,207.4 M246.3,207.4C246.3,207.4,246.3,207.4,246.3,207.4
		C246.3,207.4,246.3,207.4,246.3,207.4 M246.4,207.3C246.4,207.3,246.4,207.3,246.4,207.3C246.4,207.3,246.4,207.3,246.4,207.3
		 M246.4,207.2C246.4,207.2,246.4,207.3,246.4,207.2C246.4,207.3,246.4,207.2,246.4,207.2 M246.4,207.2
		C246.4,207.2,246.4,207.2,246.4,207.2C246.4,207.2,246.4,207.2,246.4,207.2 M246.5,207.1C246.5,207.1,246.5,207.1,246.5,207.1
		C246.5,207.1,246.5,207.1,246.5,207.1 M246.5,207c0,0,0,0.1-0.1,0.1C246.5,207,246.5,207,246.5,207 M223.5,168.6
		C223.5,168.6,223.5,168.6,223.5,168.6C223.5,168.6,223.5,168.6,223.5,168.6 M223.5,168.6C223.5,168.6,223.5,168.6,223.5,168.6
		C223.5,168.6,223.5,168.6,223.5,168.6 M226.6,154.6c-10.7,0-18.8,6.4-22.1,19.1l18.9-18.9C224.4,154.7,225.5,154.6,226.6,154.6
		c5.1,0,9.5,1.4,13.2,4.3l-9.9,9.9c1.7,1.3,3.1,4.2,3.7,10.3l12.4-12.4c2.2,4.3,3.6,9.8,4,16.5l-17.2,17.2c-1.3,5.5-3.7,6.8-6.3,6.8
		c-4,0-7.4-3.2-7.4-20c0-12.3,1.8-17,4.3-18.6c-1.9,1.2-3.4,4.1-4,10.6l-16.1,16.1c0.5,4.2,1.5,7.9,2.9,11.1l13-13
		c0.7,10.9,3.4,13.6,6.6,13.9l-10.4,10.4c3.2,1.9,6.9,2.9,10.9,2.9c0.1,0,0.1,0,0.2,0l22.5-22.5l0,0c-0.6,3.4-1.5,6.4-2.7,9
		c2.3-5.2,3.6-11.8,3.6-19.7C250.2,165.6,240.6,154.6,226.6,154.6"/>
	<path fill="#564233" d="M226.6,204.2c-2,0-4.4-2.9-4.4-17c0-16.4,3.2-16.4,4.4-16.4s4.4,0,4.4,16.4
		C231,201.3,228.6,204.2,226.6,204.2 M226.6,167.8c-1.1,0-2.1,0.2-3,0.8c0,0,0,0,0,0c0,0,0,0,0,0c0,0,0,0,0,0c0,0,0,0,0,0
		c-2.5,1.6-4.3,6.3-4.3,18.6c0,16.8,3.4,20,7.4,20c2.6,0,4.9-1.3,6.3-6.8l0,0c0.7-3,1.1-7.2,1.1-13.2c0-3.2-0.1-5.9-0.4-8.1l0,0
		c-0.6-6.1-2-9-3.7-10.3l0,0C228.9,168.1,227.8,167.8,226.6,167.8 M204.5,173.7c3.2-12.7,11.4-19.1,22.1-19.1
		c14,0,23.6,11,23.6,32.6c0,8-1.3,14.6-3.6,19.7l0,0c0,0,0,0.1-0.1,0.1c0,0,0,0,0,0c0,0,0,0,0,0.1c0,0,0,0,0,0c0,0,0,0,0,0.1
		c0,0,0,0,0,0c0,0,0,0,0,0.1c0,0,0,0,0,0c0,0,0,0,0,0.1c0,0,0,0,0,0c0,0,0,0,0,0c0,0,0,0,0,0c0,0,0,0,0,0c0,0,0,0,0,0c0,0,0,0,0,0
		c0,0,0,0,0,0c0,0,0,0,0,0c0,0,0,0.1-0.1,0.1c0,0,0,0,0,0c0,0,0,0,0,0.1c0,0,0,0,0,0c0,0,0,0.1-0.1,0.1l0,0
		c-4.1,8.2-10.9,12.5-19.3,12.5l0,0c-0.1,0-0.1,0-0.2,0c-4.1,0-7.7-1-10.9-2.9l0,0c-3.9-2.3-7.1-6.1-9.3-11.2l0,0
		c-1.4-3.2-2.3-6.9-2.9-11.1l0,0c-0.3-2.5-0.5-5.2-0.5-8C203,182.1,203.5,177.6,204.5,173.7L204.5,173.7 M226.6,151.6
		c-8,0-14.8,3.2-19.4,9.3c-4.8,6.2-7.2,15.1-7.2,26.3c0,18.1,6.7,30.7,18.1,34.8h17.1c11.3-4.1,18.1-16.6,18.1-34.8
		c0-11.2-2.4-20-7.2-26.2C241.3,154.9,234.6,151.6,226.6,151.6"/>
	<g>
		<defs>
			<polyline id="SVGID_3_" points="152.2,154.6 250.2,154.6 250.2,220.4 152.2,220.4 152.2,154.6 			"/>
		</defs>
		<clipPath id="SVGID_2_">
			<use xlink:href="#SVGID_3_"  overflow="visible"/>
		</clipPath>
		<path clip-path="url(#SVGID_2_)" fill="#F8DAE1" d="M173.9,155.8h-3.5c-4.8,3-9.4,4.8-16.6,6.2l0,10.6h3.3L173.9,155.8"/>
		<polyline clip-path="url(#SVGID_2_)" fill="#734540" points="153.8,162 153.8,162 153.8,172.6 157.1,172.6 153.8,172.6 153.8,162 
					"/>
		<polyline clip-path="url(#SVGID_2_)" fill="#F8DAE1" points="183,160.7 165.8,177.9 165.8,198.4 183,181.2 183,160.7 		"/>
		<polyline clip-path="url(#SVGID_2_)" fill="#734540" points="165.8,177.9 165.8,177.9 165.8,198.4 165.8,177.9 		"/>
		<polyline clip-path="url(#SVGID_2_)" fill="#F8DAE1" points="158.8,205.4 152.2,205.4 152.2,212 158.8,205.4 		"/>
		<polyline clip-path="url(#SVGID_2_)" fill="#734540" points="152.2,205.4 152.2,205.4 152.2,212 152.2,205.4 		"/>
		<polyline clip-path="url(#SVGID_2_)" fill="#F8DAE1" points="183,195.2 159,219.2 179.5,219.2 193.3,205.4 183,205.4 183,195.2 		
			"/>
		<polyline clip-path="url(#SVGID_2_)" fill="#734540" points="179.5,219.2 159,219.2 159,219.2 179.5,219.2 		"/>
		<polyline clip-path="url(#SVGID_2_)" fill="#F8DAE1" points="194.4,218.3 193.5,219.2 194.4,219.2 194.4,218.3 		"/>
		<polyline clip-path="url(#SVGID_2_)" fill="#734540" points="194.4,219.2 193.5,219.2 193.5,219.2 194.4,219.2 194.4,219.2 		"/>
		<path clip-path="url(#SVGID_2_)" fill="#F8DAE1" d="M226.6,154.6c-1.1,0-2.2,0.1-3.2,0.2l-18.9,18.9c-1,3.9-1.5,8.4-1.5,13.5
			c0,2.9,0.2,5.5,0.5,8l16.1-16.1c0.6-6.4,2.1-9.3,4-10.6c0,0,0,0,0,0c0,0,0,0,0,0c0,0,0,0,0,0c0,0,0,0,0,0c0.9-0.6,2-0.8,3-0.8
			c1.2,0,2.3,0.2,3.3,1l9.9-9.9C236.1,156.1,231.6,154.6,226.6,154.6"/>
		<path clip-path="url(#SVGID_2_)" fill="#734540" d="M204.5,173.7L204.5,173.7c-1,3.9-1.5,8.4-1.5,13.5c0,2.9,0.2,5.5,0.5,8l0,0
			c-0.3-2.5-0.5-5.2-0.5-8C203,182.1,203.5,177.6,204.5,173.7 M223.5,168.6C223.5,168.6,223.5,168.6,223.5,168.6
			C223.5,168.6,223.5,168.6,223.5,168.6 M223.5,168.6C223.5,168.6,223.5,168.6,223.5,168.6C223.5,168.6,223.5,168.6,223.5,168.6
			 M226.6,167.8c-1.1,0-2.1,0.2-3,0.8C224.5,168,225.5,167.8,226.6,167.8c1.2,0,2.3,0.2,3.3,1l0,0
			C228.9,168.1,227.8,167.8,226.6,167.8"/>
		<path clip-path="url(#SVGID_2_)" fill="#F8DAE1" d="M246,166.7l-12.4,12.4c0.2,2.3,0.4,4.9,0.4,8.1c0,5.9-0.4,10.2-1.1,13.2
			l17.2-17.2C249.6,176.5,248.2,171,246,166.7"/>
		<path clip-path="url(#SVGID_2_)" fill="#734540" d="M233.6,179.1L233.6,179.1c0.2,2.3,0.4,4.9,0.4,8.1c0,5.9-0.4,10.2-1.1,13.2
			l0,0c0.7-3,1.1-7.2,1.1-13.2C234,184,233.8,181.3,233.6,179.1"/>
		<path clip-path="url(#SVGID_2_)" fill="#F8DAE1" d="M219.3,193.3l-13,13c2.2,5.1,5.4,8.9,9.3,11.2l10.4-10.4
			C222.8,206.9,220.1,204.2,219.3,193.3"/>
		<path clip-path="url(#SVGID_2_)" fill="#734540" d="M206.3,206.4L206.3,206.4c2.2,5.1,5.4,8.9,9.3,11.2l0,0
			C211.7,215.2,208.5,211.5,206.3,206.4"/>
		<path clip-path="url(#SVGID_2_)" fill="#F8DAE1" d="M249.3,197.9l-22.5,22.5c8.4-0.1,15.3-4.3,19.3-12.5c0,0,0,0,0,0
			c0,0,0-0.1,0.1-0.1c0,0,0,0,0,0c0,0,0,0,0-0.1c0,0,0,0,0,0c0,0,0-0.1,0.1-0.1c0,0,0,0,0,0c0,0,0,0,0,0c0,0,0,0,0,0c0,0,0,0,0,0
			c0,0,0,0,0,0c0,0,0,0,0,0c0,0,0,0,0,0c0,0,0,0,0,0c0,0,0,0,0-0.1c0,0,0,0,0,0c0,0,0,0,0-0.1c0,0,0,0,0,0c0,0,0,0,0-0.1
			c0,0,0,0,0,0c0,0,0,0,0-0.1c0,0,0,0,0,0c0,0,0-0.1,0.1-0.1l0,0C247.7,204.3,248.7,201.3,249.3,197.9"/>
		<path clip-path="url(#SVGID_2_)" fill="#734540" d="M246.1,207.9c-4.1,8.2-10.9,12.4-19.3,12.5l0,0
			C235.2,220.4,242,216.1,246.1,207.9 M246.1,207.8c0,0,0,0.1-0.1,0.1C246.1,207.9,246.1,207.8,246.1,207.8 M246.2,207.7
			C246.2,207.7,246.2,207.8,246.2,207.7C246.2,207.8,246.2,207.7,246.2,207.7 M246.2,207.6c0,0,0,0.1-0.1,0.1
			C246.2,207.7,246.2,207.6,246.2,207.6 M246.3,207.5C246.3,207.5,246.3,207.6,246.3,207.5C246.3,207.6,246.3,207.5,246.3,207.5
			 M246.3,207.5C246.3,207.5,246.3,207.5,246.3,207.5C246.3,207.5,246.3,207.5,246.3,207.5 M246.3,207.4
			C246.3,207.4,246.3,207.4,246.3,207.4C246.3,207.4,246.3,207.4,246.3,207.4 M246.4,207.4C246.3,207.4,246.3,207.4,246.4,207.4
			C246.3,207.4,246.3,207.4,246.4,207.4 M246.4,207.3C246.4,207.3,246.4,207.3,246.4,207.3C246.4,207.3,246.4,207.3,246.4,207.3
			 M246.4,207.2C246.4,207.2,246.4,207.2,246.4,207.2C246.4,207.2,246.4,207.2,246.4,207.2 M246.4,207.2
			C246.4,207.2,246.4,207.2,246.4,207.2C246.4,207.2,246.4,207.2,246.4,207.2 M246.5,207.1C246.5,207.1,246.5,207.1,246.5,207.1
			C246.5,207.1,246.5,207.1,246.5,207.1 M246.5,207L246.5,207L246.5,207"/>
	</g>
	<path fill="#FED100" d="M186.7,122.8c0,5.9-4.5,10.7-10,10.7s-10-4.8-10-10.7c0-5.9,7.2-35.8,10-35.8
		C179.6,87,186.7,116.9,186.7,122.8z"/>
	<path opacity="0.59" fill="#E65376" d="M182.5,121.3c0,3.1-2.5,5.5-5.5,5.5c-3.1,0-5.5-2.5-5.5-5.5c0-3.1,4.3-13.7,5.5-13.7
		C178.4,107.6,182.5,118.3,182.5,121.3z"/>
	<path fill="#564233" d="M175,131v22c0,0.8,0.7,1.5,1.5,1.5c0.8,0,1.5-0.7,1.5-1.5v-22c0-0.8-0.7-1.5-1.5-1.5
		C175.7,129.5,175,130.2,175,131"/>
	<path fill="#FED100" d="M236.7,122.8c0,5.9-4.5,10.7-10,10.7s-10-4.8-10-10.7c0-5.9,7.2-35.8,10-35.8
		C229.6,87,236.7,116.9,236.7,122.8z"/>
	<path opacity="0.59" fill="#E65376" d="M232.5,121.3c0,3.1-2.5,5.5-5.5,5.5c-3.1,0-5.5-2.5-5.5-5.5c0-3.1,4.3-13.7,5.5-13.7
		C228.4,107.6,232.5,118.3,232.5,121.3z"/>
	<path fill="#564233" d="M225,131v22c0,0.8,0.7,1.5,1.5,1.5c0.8,0,1.5-0.7,1.5-1.5v-22c0-0.8-0.7-1.5-1.5-1.5
		C225.7,129.5,225,130.2,225,131"/>
	<path fill="#FED100" d="M155.3,77.4c-2.8-0.8-4.9-3-5.7-5.7c-0.1-0.3-0.6-0.3-0.7,0c-0.8,2.8-3,4.9-5.7,5.7c-0.3,0.1-0.3,0.6,0,0.7
		c2.8,0.8,4.9,3,5.7,5.7c0.1,0.3,0.6,0.3,0.7,0c0.8-2.8,3-4.9,5.7-5.7C155.6,78,155.6,77.5,155.3,77.4z"/>
	<path fill="#FED100" d="M244,28.6c-2.8-0.8-4.9-3-5.7-5.7c-0.1-0.3-0.6-0.3-0.7,0c-0.8,2.8-3,4.9-5.7,5.7c-0.3,0.1-0.3,0.6,0,0.7
		c2.8,0.8,4.9,3,5.7,5.7c0.1,0.3,0.6,0.3,0.7,0c0.8-2.8,3-4.9,5.7-5.7C244.3,29.2,244.3,28.7,244,28.6z"/>
	<path fill="#FED100" d="M219.9,70.9c-4-1.2-7.2-4.4-8.4-8.4c-0.1-0.5-0.9-0.5-1,0c-1.2,4-4.4,7.2-8.4,8.4c-0.5,0.1-0.5,0.9,0,1
		c4,1.2,7.2,4.4,8.4,8.4c0.1,0.5,0.9,0.5,1,0c1.2-4,4.4-7.2,8.4-8.4C220.4,71.8,220.4,71.1,219.9,70.9z"/>
	<path fill="#FED100" d="M194,28.4c-4.9-1.4-8.7-5.3-10.2-10.2c-0.2-0.6-1.1-0.6-1.2,0c-1.4,4.9-5.3,8.7-10.2,10.2
		c-0.6,0.2-0.6,1.1,0,1.2c4.9,1.4,8.7,5.3,10.2,10.2c0.2,0.6,1.1,0.6,1.2,0c1.4-4.9,5.3-8.7,10.2-10.2
		C194.6,29.4,194.6,28.5,194,28.4z"/>
	<path fill="#FED876" d="M261.1,268.7h-69.9c-1.4,0.7-3.1,1.1-4.8,1.1c-1.7,0-3.4-0.4-4.8-1.1h-40.5v8h120V268.7 M155.8,253.7
		c-0.2,0-0.4,0-0.6,0.1c-1.5,0.5-2.4,1.7-3.8,3.6c-1.4,2-3,4.2-5.8,5.4c-0.3,0.1-0.5,0.2-0.7,0.3c-1.1,0.5-1.8,0.8-2.9,0.8
		c-0.3,0-0.6,0-0.9-0.1v42.5h120v-29.7h-120v-8h40.5c-1-0.5-1.8-1.1-2.5-1.9c-1.3-1.4-2.1-3.1-2.8-4.6c-1.2-2.8-1.7-3.2-2.8-3.2
		h-0.1c-0.8,0-1.7,0.1-2.3,0.6c-1.7,1.3-4.6,2.6-7.3,2.6c-1.6,0-3-0.5-4.2-1.4c-1.9-1.5-2.3-3.7-2.6-5.2c-0.3-1.7-0.4-1.7-0.7-1.8
		C156.2,253.7,156,253.7,155.8,253.7 M221.6,248.6c-0.5,0-1.5,1.1-2.3,2.1c-1.1,1.4-2.4,2.9-4.3,3.9c-1.3,0.7-2.8,1-4.6,1
		c-1.4,0-2.7-0.2-4.1-0.4c-1.2-0.2-2.3-0.4-3.2-0.4l-0.2,0c-2.6,0.1-5.2,1.8-5.9,3.9c-0.2,0.5-0.3,1.2-0.4,1.9
		c-0.2,1.2-0.4,2.6-1.1,3.9c-0.9,1.8-2.4,3.2-4.3,4.1h69.9V266c0,0-0.1,0-0.1,0h0c-1.6,0-3.1-0.7-4.3-1.6c-2.5-2-3.1-4.7-3.6-6.8
		c-0.3-1.3-0.6-2.3-1.2-3.1c-0.2-0.3-0.5-0.5-0.8-0.5l-0.2,0c-0.7,0-1.8,0.9-2.8,1.7c-1.6,1.3-3.6,3-6.3,3c-0.5,0-0.9-0.1-1.4-0.2
		c-1.8-0.4-3-1.4-3.9-2.3c-0.5-0.4-1-0.9-1.3-0.9l-0.2,0c-0.4,0-0.9,0.1-1.5,0.3c-0.8,0.2-1.8,0.4-2.9,0.4c-0.4,0-0.7,0-1.1-0.1
		c-3.3-0.5-4.9-3.1-6-5c-0.6-1-1.3-2.1-1.8-2.2L221.6,248.6"/>
	<path fill="#564233" d="M261.1,268.7L261.1,268.7v8V268.7 M138.1,261.6v44.8h3v-42.5c-0.5-0.1-0.9-0.3-1.4-0.5
		C138.9,263,138.4,262.4,138.1,261.6 M264,228.8v34c0,0.8-0.3,1.7-0.9,2.2c-0.5,0.5-1.2,0.9-2,1v2.7v8v29.7h3v-76.7
		C264.1,229.4,264.1,229.1,264,228.8"/>
	<path opacity="0.91" fill="#FFFFFF" d="M261.1,268.7L261.1,268.7v8V268.7 M261.1,268.7h-69.9c-1.4,0.7-3.1,1.1-4.8,1.1
		c-1.7,0-3.4-0.4-4.8-1.1h-40.5v8h120V268.7"/>
	<path opacity="0.1608" fill="#2E3192" d="M261,225H141v1.7c0,0,0.1,0,0.1,0H261V225"/>
	<path fill="#DDBD7B" d="M261,229.7H141.1v31.1c0.2,0.1,0.7,0.2,0.9,0.2c0.5,0,0.9-0.3,2.3-0.9c4.3-1.9,5.1-7.7,9.9-9.1
		c0.5-0.1,1-0.2,1.5-0.2c0.6,0,1.1,0.1,1.6,0.3c3.5,1.4,1.7,5.6,4.1,7.5c0.7,0.5,1.5,0.7,2.3,0.7c2,0,4.2-1.1,5.5-2.1
		c1.2-0.9,2.6-1.4,4.1-1.4l0.1,0c5,0.1,4.9,5.9,7.7,9c1.2,1.4,3.1,2,5.1,2c2.6,0,5.3-1.2,6.4-3.4c0.8-1.7,0.8-3.7,1.3-5.4
		c1.1-3.3,4.8-5.9,8.7-5.9l0.2,0c2.4,0,5,0.8,7.3,0.8c1.1,0,2.2-0.2,3.2-0.7c3.2-1.6,4.6-6.4,8-6.4c0.2,0,0.4,0,0.6,0
		c3.9,0.6,4,6.6,7.9,7.2c0.2,0,0.4,0,0.6,0c1.5,0,2.9-0.7,4.4-0.7c0.3,0,0.5,0,0.8,0.1c2.1,0.4,3.2,2.7,5.3,3.2
		c0.3,0.1,0.5,0.1,0.8,0.1c3.3,0,5.5-4.7,9.1-4.7c0.3,0,0.6,0,0.8,0.1c1,0.2,1.9,0.8,2.5,1.6c2.3,2.9,1.2,6.8,4.4,9.4
		c0.6,0.5,1.4,0.8,2.4,0.8V229.7"/>
	<path fill="#503F42" d="M261,226.7H141.1c0,0-0.1,0-0.1,0v33.9c0,0.1,0.1,0.1,0.1,0.2v-31.1H261V226.7"/>
	<path opacity="0.1608" fill="#2E3192" d="M261,222h-25.9c-2.6,0.9-5.5,1.4-8.6,1.4c-3.1,0-5.9-0.5-8.6-1.4h-22.5
		c-0.4,0.1-0.7,0.2-1.1,0.2h-42.2c-0.4,0-0.8-0.1-1.1-0.2h-10.2c-1.7,0-2.8,1.7-2.8,3.4v35.2c0,0.3,0,0.7,0.1,1v-31.9
		c0-1.6,1.3-2.9,2.9-3V225h120v1.7h0.1c1.3,0,2.5,0.9,2.9,2.1v-3.4C264,223.7,262.6,222,261,222"/>
	<path fill="#503F42" d="M195.5,222H151c0.4,0.1,0.7,0.2,1.1,0.2h42.2C194.8,222.2,195.2,222.1,195.5,222"/>
	<path fill="#503F42" d="M235.1,222H218c2.6,0.9,5.5,1.4,8.6,1.4C229.6,223.4,232.5,222.9,235.1,222"/>
	<path fill="#DDBD7B" d="M261.1,229.7H261v33.1c-1,0-1.8-0.3-2.4-0.8c-3.1-2.5-2-6.5-4.4-9.4c-0.6-0.8-1.5-1.4-2.5-1.6
		c-0.3-0.1-0.6-0.1-0.8-0.1c-3.5,0-5.8,4.7-9.1,4.7c-0.2,0-0.5,0-0.8-0.1c-2.1-0.5-3.2-2.8-5.3-3.2c-0.3-0.1-0.5-0.1-0.8-0.1
		c-1.4,0-2.9,0.7-4.4,0.7c-0.2,0-0.4,0-0.6,0c-3.9-0.6-4-6.7-7.9-7.2c-0.2,0-0.4,0-0.6,0c-3.4,0-4.8,4.7-8,6.4
		c-1,0.5-2.1,0.7-3.2,0.7c-2.3,0-4.9-0.8-7.3-0.8l-0.2,0c-3.9,0.1-7.6,2.6-8.7,5.9c-0.6,1.8-0.5,3.7-1.3,5.4
		c-1.1,2.2-3.8,3.4-6.4,3.4c-1.9,0-3.8-0.6-5.1-2c-2.8-3.1-2.7-8.9-7.7-9l-0.1,0c-1.5,0-3,0.5-4.1,1.4c-1.3,1-3.5,2.1-5.5,2.1
		c-0.8,0-1.7-0.2-2.3-0.7c-2.4-1.9-0.6-6.1-4.1-7.5c-0.5-0.2-1.1-0.3-1.6-0.3c-0.5,0-1,0.1-1.5,0.2c-4.9,1.4-5.6,7.2-9.9,9.1
		c-1.4,0.6-1.8,0.9-2.3,0.9c-0.2,0-0.7-0.1-0.9-0.2v3.1c0.3,0.1,0.6,0.1,0.9,0.1c1,0,1.8-0.4,2.9-0.8c0.2-0.1,0.4-0.2,0.7-0.3
		c2.8-1.2,4.4-3.4,5.8-5.4c1.4-1.9,2.3-3.2,3.8-3.6c0.2-0.1,0.4-0.1,0.6-0.1c0.2,0,0.4,0,0.5,0.1c0.3,0.1,0.4,0.2,0.7,1.8
		c0.3,1.6,0.7,3.7,2.6,5.2c1.1,0.9,2.6,1.4,4.2,1.4c2.7,0,5.6-1.2,7.3-2.6c0.7-0.5,1.5-0.6,2.3-0.6h0.1c1.2,0,1.6,0.4,2.8,3.2
		c0.7,1.5,1.4,3.2,2.8,4.6c0.7,0.8,1.6,1.4,2.5,1.9h9.6c1.9-0.9,3.4-2.3,4.3-4.1c0.7-1.4,0.9-2.7,1.1-3.9c0.1-0.7,0.2-1.3,0.4-1.9
		c0.7-2.1,3.3-3.8,5.9-3.9l0.2,0c1,0,2.1,0.2,3.2,0.4c1.3,0.2,2.7,0.4,4.1,0.4c1.7,0,3.2-0.3,4.6-1c1.9-1,3.2-2.5,4.3-3.9
		c0.8-1,1.8-2.1,2.3-2.1l0.1,0c0.5,0.1,1.2,1.2,1.8,2.2c1.2,1.9,2.7,4.5,6,5c0.4,0.1,0.7,0.1,1.1,0.1c1.1,0,2.1-0.2,2.9-0.4
		c0.6-0.1,1.1-0.3,1.5-0.3l0.2,0c0.3,0.1,0.8,0.5,1.3,0.9c1,0.8,2.2,1.9,3.9,2.3c0.5,0.1,0.9,0.2,1.4,0.2c2.7,0,4.7-1.6,6.3-3
		c1-0.8,2.1-1.7,2.8-1.7l0.2,0c0.3,0.1,0.6,0.3,0.8,0.5c0.6,0.7,0.9,1.8,1.2,3.1c0.5,2.1,1.1,4.8,3.6,6.8c1.1,0.9,2.7,1.6,4.3,1.6h0
		c0,0,0.1,0,0.1,0V229.7"/>
	<path fill="#503F42" d="M141,226.7c-1.6,0.1-2.9,1.4-2.9,3v31.9c0.2,0.8,0.8,1.5,1.6,1.8c0.5,0.2,0.9,0.4,1.4,0.5v-3.1
		c-0.1,0-0.1-0.1-0.1-0.2V226.7 M261.1,226.7H261v3h0.1V266c0.7,0,1.4-0.5,2-1c0.6-0.6,0.9-1.4,0.9-2.2v-34
		C263.6,227.6,262.5,226.7,261.1,226.7"/>
	<path fill="#DDDBE3" d="M191.3,268.7h-9.6c1.4,0.7,3,1.1,4.8,1.1C188.2,269.7,189.8,269.4,191.3,268.7"/>
	<path fill="#E65376" d="M186.6,265.2c-2.5,0-4.7-0.9-6.2-2.5c-1.2-1.3-1.8-2.8-2.5-4.3c-1.2-2.7-2-4.2-4.2-4.2l-0.1,0
		c-1.1,0-2.3,0.4-3.2,1.1c-1.5,1.2-4,2.4-6.4,2.4c-1.3,0-2.4-0.4-3.2-1.1c-1.5-1.2-1.8-2.9-2.1-4.3c-0.3-1.7-0.5-2.5-1.7-3
		c-0.3-0.1-0.7-0.2-1.1-0.2c-0.4,0-0.7,0.1-1.1,0.2c-2.1,0.6-3.3,2.3-4.6,4.2c-1.3,1.8-2.7,3.8-5.1,4.9c-1.6,0.7-3,1-4.3,1h0
		c-7.7,0-7.9-11-8-16.3c0-0.4,0-0.8,0-1.1c-0.1-3.6,0.2-7.2,0.5-10.7c0.1-1.1,0.2-2.2,0.3-3.3c0.3-4,3.6-7.1,7.6-7.1h118.5
		c4.3,0,7.9,2.9,8.9,7l0.1,0.5c0.5,2.3,1.1,4.7,1,7.2l0,11.5c0,4-1.1,7.8-3.3,11c-0.9,1.2-1.7,2.1-2.7,2.7c-0.7,0.4-1.5,0.6-2.4,0.6
		c-1.3,0-2.5-0.4-3.4-1.1c-2.1-1.7-2.6-3.9-3.1-5.9c-0.3-1.4-0.6-2.7-1.5-3.7c-0.5-0.6-1-0.9-1.7-1.1c-0.2,0-0.4-0.1-0.5-0.1
		c-1.3,0-2.5,1-3.7,2.1c-1.5,1.2-3.2,2.6-5.3,2.6h0c-0.4,0-0.7,0-1.1-0.1c-1.4-0.3-2.4-1.2-3.3-1.9c-0.7-0.6-1.3-1.1-2-1.3
		c-0.1,0-0.3,0-0.5,0c-0.5,0-1.2,0.2-1.8,0.3c-0.8,0.2-1.6,0.4-2.5,0.4c-0.3,0-0.6,0-0.9-0.1c-2.6-0.4-3.9-2.6-5-4.3
		c-1-1.7-1.7-2.7-2.9-2.9c-0.1,0-0.2,0-0.4,0c-1.2,0-2.1,1-3.5,2.7c-1,1.3-2.2,2.7-3.8,3.5c-1.1,0.6-2.4,0.9-3.9,0.9
		c-1.3,0-2.6-0.2-3.8-0.4c-1.2-0.2-2.4-0.4-3.5-0.4l-0.2,0c-3.2,0.1-6.4,2.2-7.3,4.9c-0.2,0.6-0.3,1.4-0.5,2.1
		c-0.2,1.2-0.4,2.3-1,3.5C193.1,263.5,190,265.2,186.6,265.2z"/>
	<path fill="#564233" d="M259.5,222.4c3.5,0,6.6,2.4,7.4,5.9c0.6,2.4,1.2,4.9,1.1,7.3l0,11.5c0,3.6-1,7.1-3.1,10.1
		c-0.6,0.9-1.3,1.7-2.2,2.2c-0.5,0.3-1,0.4-1.6,0.4c-0.9,0-1.8-0.3-2.5-0.8c-3.1-2.5-2-6.5-4.4-9.4c-0.6-0.8-1.5-1.4-2.5-1.6
		c-0.3-0.1-0.6-0.1-0.8-0.1c-3.5,0-5.8,4.7-9.1,4.7c-0.2,0-0.5,0-0.8-0.1c-2.1-0.5-3.2-2.8-5.3-3.2c-0.3-0.1-0.5-0.1-0.8-0.1
		c-1.4,0-2.9,0.7-4.4,0.7c-0.2,0-0.4,0-0.6,0c-3.9-0.6-4-6.7-7.9-7.2c-0.2,0-0.4,0-0.6,0c-3.4,0-4.8,4.7-8,6.4
		c-1,0.5-2.1,0.7-3.2,0.7c-2.3,0-4.9-0.8-7.3-0.8l-0.2,0c-3.9,0.1-7.6,2.6-8.7,5.9c-0.6,1.8-0.5,3.7-1.3,5.4
		c-1.1,2.2-3.8,3.4-6.4,3.4c-1.9,0-3.8-0.6-5.1-2c-2.8-3.1-2.7-8.9-7.7-9l-0.1,0c-1.5,0-3,0.5-4.1,1.4c-1.3,1-3.5,2.1-5.5,2.1
		c-0.8,0-1.7-0.2-2.3-0.7c-2.4-1.9-0.6-6.1-4.1-7.5c-0.5-0.2-1.1-0.3-1.6-0.3c-0.5,0-1,0.1-1.5,0.2c-4.9,1.4-5.6,7.2-10,9.1
		c-1.4,0.6-2.6,0.9-3.7,0.9c-6.8,0-6.4-11.6-6.6-16c-0.1-4.6,0.4-9.2,0.7-13.9c0.2-3.2,2.9-5.7,6.1-5.7H259.5 M259.5,219.4H141
		c-4.8,0-8.7,3.7-9.1,8.5c-0.1,1.1-0.2,2.2-0.3,3.3c-0.3,3.5-0.6,7.2-0.5,10.9c0,0.3,0,0.7,0,1.1c0.1,5.3,0.3,17.8,9.5,17.8
		c1.5,0,3.2-0.4,4.9-1.2c2.8-1.2,4.4-3.4,5.8-5.4c1.4-1.9,2.3-3.2,3.8-3.6c0.2-0.1,0.4-0.1,0.6-0.1c0.2,0,0.4,0,0.5,0.1
		c0.3,0.1,0.4,0.2,0.7,1.8c0.3,1.6,0.7,3.7,2.6,5.2c1.1,0.9,2.6,1.4,4.2,1.4c2.7,0,5.6-1.4,7.3-2.7c0.7-0.5,1.5-0.8,2.3-0.8l0.1,0
		c1.2,0,1.6,0.5,2.8,3.3c0.7,1.5,1.4,3.3,2.8,4.7c1.7,1.9,4.4,3,7.3,3c4,0,7.6-2,9.1-5.1c0.7-1.4,0.9-2.7,1.1-3.9
		c0.1-0.7,0.2-1.3,0.4-1.9c0.7-2.1,3.3-3.8,5.9-3.9l0.2,0c1,0,2.1,0.2,3.2,0.4c1.3,0.2,2.7,0.4,4.1,0.4c1.7,0,3.2-0.3,4.6-1
		c1.9-1,3.2-2.5,4.3-3.9c0.8-1,1.8-2.1,2.3-2.1l0.1,0c0.5,0.1,1.2,1.2,1.8,2.2c1.2,1.9,2.7,4.5,6,5c0.4,0.1,0.7,0.1,1.1,0.1
		c1.1,0,2.1-0.2,2.9-0.4c0.6-0.1,1.1-0.3,1.5-0.3l0.2,0c0.3,0.1,0.8,0.5,1.3,0.9c1,0.8,2.2,1.9,3.9,2.3c0.5,0.1,0.9,0.2,1.4,0.2
		c2.7,0,4.7-1.6,6.3-3c1-0.8,2.1-1.7,2.8-1.7l0.2,0c0.3,0.1,0.6,0.3,0.8,0.5c0.6,0.7,0.9,1.8,1.2,3.1c0.5,2.1,1.1,4.7,3.6,6.7
		c1.2,0.9,2.8,1.5,4.4,1.5c1.1,0,2.2-0.3,3.1-0.8c1.2-0.7,2.2-1.7,3.2-3.1c2.4-3.4,3.6-7.5,3.6-11.8l0-11.5c0.1-2.6-0.5-5.1-1.1-7.5
		l-0.1-0.5C268.7,222.7,264.5,219.4,259.5,219.4z"/>
	<path opacity="0.54" fill="#FFFFFF" d="M137.7,233.1c0,2-0.3,5.4-0.3,8.9c0,2.9,0.2,5.9,1,8.4c0.1,0.4,0.3,0.7,0.5,1.1
		c0.3,0.6,0.8,1.2,1.3,1.8c0.3,0.3,0.6,0.6,1,0.8c0.4,0.2,0.9,0.4,1.4,0.4l0.3,0c0.8-0.1,1.4-0.8,1.3-1.7c-0.1-0.8-0.8-1.4-1.7-1.3
		l0.1,0.6l0-0.6l-0.1,0l0.1,0.6l0-0.6v0.5l0.1-0.5l-0.1,0v0.5l0.1-0.5l0,0.2l0.1-0.2l0,0l0,0.2l0.1-0.2c0,0-0.2-0.1-0.3-0.2
		c-0.3-0.2-0.6-0.6-0.8-1c-0.1-0.2-0.2-0.4-0.3-0.5l-0.1-0.2l0-0.1c-0.6-2-0.8-4.8-0.8-7.5c0-3.4,0.3-6.7,0.3-8.9
		c0-0.8-0.7-1.5-1.5-1.5C138.4,231.6,137.7,232.3,137.7,233.1L137.7,233.1z"/>
	<path opacity="0.54" fill="#FFFFFF" d="M179.7,252.7c0.6,1.1,1.3,2.6,2.2,3.9c0.4,0.7,0.9,1.3,1.3,1.8c0.5,0.6,1,1,1.7,1.4
		c0.7,0.4,1.6,0.1,2-0.6c0.4-0.7,0.1-1.6-0.6-2c-0.1-0.1-0.4-0.3-0.8-0.7c-0.5-0.6-1.1-1.5-1.6-2.4c-0.5-0.9-1-1.9-1.5-2.8
		c-0.4-0.7-1.3-1-2-0.6C179.6,251.1,179.3,252,179.7,252.7L179.7,252.7z"/>
	<path fill="#FED876" d="M138.2,352.5h-34.7c-1,0.4-2,0.6-3.1,0.6c-0.1,0-0.2,0-0.3,0v7.4h42.5C140.4,358.2,138.9,355.4,138.2,352.5
		 M288.3,352.5h-10.6c-2.7,2.3-6.3,3.7-10,3.7c-0.8,0-1.5-0.1-2.3-0.2c-2.8-0.5-5.4-1.7-7.4-3.5h-90.8c-0.3,2.6-0.9,5.5-3.2,8h138.1
		v-2.6c-1,0.3-2.1,0.4-3.2,0.4c-0.7,0-1.3-0.1-2-0.2C293.4,357.6,290.2,355.4,288.3,352.5 M100.2,353.1v39.3h202v-31.9H164.1
		c-0.8,0.9-1.8,1.7-3.1,2.5c-2,1.2-4.2,1.9-6.4,2.1c-0.4,0-0.8,0-1.1,0c-4.4,0-8.1-1.9-10.8-4.6h-42.5V353.1L100.2,353.1
		 M285.2,340.5c-0.1,0-0.2,0.2-0.5,0.5c-0.9,1.1-1.6,2.6-2.3,4.2c-0.8,1.8-1.6,3.7-3,5.4c-0.5,0.6-1.1,1.2-1.7,1.8h10.6
		c-0.9-1.4-1.6-3-1.9-4.7c-0.2-1.1-0.2-2.2-0.2-3.2c0-1.3,0-2.5-0.4-3.4c-0.1-0.3-0.4-0.5-0.6-0.6L285.2,340.5 M135.4,338.4
		c-0.2,0-0.3,0-0.5,0.1c-0.8,0.3-1.2,1.5-1.9,3.4c-0.8,2.5-2,6-5.6,7.3c-0.8,0.3-1.7,0.4-2.5,0.4c-2.2,0-4.3-0.9-5.9-2.5
		c-2.3-2.3-3.1-5.2-3.4-7.8c-1.9,0-4.9,0.3-5.6,1.9c-0.2,0.5-0.3,1.2-0.4,2.1c-0.1,0.8-0.2,1.8-0.4,2.8c-0.8,2.9-3,5.2-5.7,6.3h34.7
		c-0.2-0.9-0.3-1.8-0.4-2.6c-0.1-1.4,0-2.7,0.1-4c0.2-2.5,0.3-4.5-0.8-6.3C136.8,338.9,136.1,338.4,135.4,338.4 M184.1,337.5
		c-0.7,0-1.4,0.2-1.8,0.6c-0.5,0.4-1.1,1.1-1.6,1.8c-1.3,1.6-3.2,3.9-6.3,4.1c-0.1,0-0.3,0-0.4,0c-0.8,0-1.5-0.1-2-0.2
		c-0.3-0.1-0.6-0.1-0.8-0.1l-0.1,0c-1.4,0-2.7,1.9-3,3.8c-0.2,1-0.3,2.1-0.4,3.2c0,0.6-0.1,1.3-0.2,2h90.8c-2.8-2.5-4.6-6-4.6-9.7
		c0-0.6-0.2-2.2-1.4-3.1c-0.6-0.5-1-0.5-1.1-0.5c-1.2,0-3,1.7-4.4,4.1c-1.4,2.4-5,6.5-9.6,6.5c-1.9,0-3.7-0.7-5.2-2.1
		c-1.2-1.1-2.1-2.6-2.6-4.7c-0.7-2.4-3.4-4.4-6.3-4.4c-0.2,0-0.4,0-0.6,0c-1.7,0.2-3.5,0.9-5.4,1.7c-2.5,1-5,2.1-7.8,2.1
		c-2.3,0-4.5-0.8-6.4-2.2c-0.6-0.5-1.3-0.8-1.8-0.9c-0.1,0-0.2,0-0.3,0l-0.1,0c-0.1,0.2-0.3,0.5-0.4,0.7c-0.5,0.9-1.1,2-2.3,2.9
		c-0.9,0.6-2,1-3.2,1c-1.9,0-3.9-0.9-5.4-2.4c-0.7-0.6-1.2-1.3-1.7-1.9c-0.5-0.7-1-1.3-1.5-1.7C185.4,337.7,184.7,337.5,184.1,337.5
		"/>
	<path fill="#564233" d="M302.2,357.9L302.2,357.9v2.6V357.9 M97.2,351v41.3h3v-39.3c-0.1,0-0.3,0-0.4,0
		C98.6,352.9,97.6,352.1,97.2,351 M302.2,306.4h-38h-3h-120h-3h-38c-1.7,0-3,1.3-3,3v1c0.4-1.3,1.5-2.4,2.9-2.4h202
		c1.7,0,3,1.8,3,3.4v43.4c0,1.3-0.9,2.5-2.1,2.9c-0.2,0.1-0.5,0.1-0.7,0.2v2.6v31.9h3v-83C305.2,307.7,303.8,306.4,302.2,306.4"/>
	<path opacity="0.91" fill="#FFFFFF" d="M138.2,352.5h-34.7c-1,0.4-2,0.6-3.1,0.6c-0.1,0-0.2,0-0.3,0v7.4h42.5
		C140.4,358.2,138.9,355.4,138.2,352.5 M302.2,357.9L302.2,357.9v2.6V357.9 M288.3,352.5h-10.6c-2.7,2.3-6.3,3.7-10,3.7
		c-0.8,0-1.5-0.1-2.3-0.2c-2.8-0.5-5.4-1.7-7.4-3.5h-90.8c-0.3,2.6-0.9,5.5-3.2,8h138.1v-2.6c-1,0.3-2.1,0.4-3.2,0.4
		c-0.7,0-1.3-0.1-2-0.2C293.4,357.6,290.2,355.4,288.3,352.5"/>
	<path fill="#DDBD7B" d="M302,311H100.2v23.5h3.2c0,0.6,0,0.9,0,0.9h0h0l0,0h-3l0,0h-0.2v14.6c0.1,0,0.2,0,0.3,0
		c2.8,0,5.2-2.1,5.9-4.6c0.5-1.8,0.2-3.7,0.9-5.3c1.4-3,5.1-3.7,8.7-3.7c0.8,0,1.7,0,2.5,0.1c0.2,3,0.4,6.2,2.7,8.5
		c1,1,2.4,1.6,3.8,1.6c0.5,0,1-0.1,1.5-0.3c4.6-1.7,3-9.2,7.6-10.7c0.5-0.2,1-0.2,1.4-0.2c1.7,0,3.4,1,4.3,2.5
		c2.3,3.7,0.9,7.8,1.1,11.8c0.1,1,0.2,1.9,0.5,2.8h23c0.2-1.9,0.2-3.9,0.6-5.8c0.6-3,2.8-6.2,6-6.2l0.3,0c0.9,0,1.8,0.4,2.7,0.4
		l0.2,0c2.9-0.2,4.1-3.6,6.3-5.3c1-0.8,2.3-1.2,3.6-1.2c1.3,0,2.6,0.4,3.6,1.1c1.4,1.1,2.3,2.7,3.5,3.9c0.9,0.8,2.1,1.5,3.3,1.5
		c0.5,0,1.1-0.1,1.5-0.5c1.7-1.2,1.4-4.1,4.5-4.1c0.2,0,0.5,0,0.7,0c1.2,0.2,2.4,0.7,3.3,1.5c1.5,1.2,3,1.6,4.5,1.6
		c4.2,0,8.4-3.3,12.9-3.7c0.3,0,0.6,0,0.8,0c4.1,0,8.2,2.7,9.2,6.6c0.3,1.2,0.8,2.4,1.8,3.2c1,0.9,2.1,1.3,3.2,1.3
		c2.9,0,5.7-2.9,7-5c1.5-2.6,4.1-5.6,7-5.6c0.9,0,1.9,0.3,2.9,1c1.8,1.3,2.6,3.4,2.6,5.5c0,4.3,3.2,8.2,7.3,9.7h8.1
		c2-0.7,3.9-2,5.2-3.6c2.3-2.9,2.9-6.8,5.3-9.6c0.7-0.9,1.6-1.7,2.8-1.7c0.3,0,0.7,0.1,1.1,0.2c1,0.4,1.9,1.1,2.3,2.1
		c1.2,2.4,0.5,5,0.8,7.5c0.3,2,1.3,3.8,2.8,5.2h9.8V311"/>
	<path fill="#503F42" d="M100.2,335.4H100V350c0,0,0.1,0,0.2,0V335.4 M100.2,311H100v23.5h0.2V311"/>
	<path fill="#503F42" d="M103.4,335.4L103.4,335.4L103.4,335.4L103.4,335.4 M103.4,334.5h-3.2H100v0.9h0.2h0.2h3
		C103.4,335.4,103.4,335.1,103.4,334.5"/>
	<path fill="#DDBD7B" d="M159.3,360.5h-11.8c1.7,1,3.7,1.6,5.9,1.6c0.3,0,0.6,0,0.9,0C156.1,361.9,157.8,361.3,159.3,360.5"/>
	<path fill="#DDDBE3" d="M164.3,352.5h-23c0.9,3.3,3.1,6.3,6.2,8h11.8c0.1,0,0.1-0.1,0.2-0.1C163,358.2,163.9,355.4,164.3,352.5
		 M271.9,352.5h-8.1c0.7,0.3,1.4,0.5,2.2,0.6c0.6,0.1,1.2,0.1,1.8,0.1C269.1,353.2,270.5,353,271.9,352.5 M302,352.5h-9.8
		c1.4,1.4,3.3,2.4,5.3,2.7c0.5,0.1,1,0.1,1.5,0.1c1,0,2-0.2,3-0.5V352.5"/>
	<path opacity="0.1608" fill="#2E3192" d="M97.2,310.4c-0.1,0.3-0.2,0.7-0.2,1V350c0,0.3,0.1,0.7,0.2,1V310.4"/>
	<path fill="#DDBD7B" d="M135.4,335.4c-0.5,0-1,0.1-1.4,0.2c-4.6,1.6-3,9.1-7.6,10.7c-0.5,0.2-1,0.3-1.5,0.3c-1.4,0-2.8-0.6-3.8-1.6
		c-2.3-2.3-2.5-5.5-2.7-8.5c-0.8-0.1-1.6-0.1-2.5-0.1c-3.6,0-7.3,0.7-8.7,3.7c-0.8,1.7-0.5,3.6-0.9,5.3c-0.7,2.5-3.1,4.6-5.9,4.6
		c-0.1,0-0.2,0-0.3,0v3l0,0v-0.6h3.4c2.7-1,4.9-3.4,5.7-6.3c0.3-1,0.3-1.9,0.4-2.8c0.1-0.9,0.1-1.6,0.4-2.1c0.7-1.6,3.7-1.9,5.6-1.9
		c0.3,2.6,1,5.5,3.4,7.8c1.6,1.6,3.7,2.5,5.9,2.5c0.9,0,1.7-0.1,2.5-0.4c3.7-1.3,4.8-4.8,5.6-7.3c0.6-1.9,1.1-3.1,1.9-3.4
		c0.1-0.1,0.3-0.1,0.5-0.1c0.7,0,1.4,0.4,1.7,1c1.1,1.8,1,3.8,0.8,6.3c-0.1,1.3-0.2,2.6-0.1,4c0.1,0.9,0.2,1.8,0.4,2.6h3.1
		c-0.3-0.9-0.4-1.9-0.5-2.8c-0.2-4,1.2-8-1.1-11.8C138.8,336.4,137.1,335.4,135.4,335.4 M302.2,309.4h-202v1.6H302v41.5h0.2V309.4"
		/>
	<path fill="#503F42" d="M302,308H100c-1.3,0-2.4,1.1-2.9,2.4V351c0.4,1.1,1.4,1.9,2.6,2c0.1,0,0.3,0,0.4,0v-3c-0.1,0-0.2,0-0.2,0
		v-14.6h-2.6c0,0,0-0.3,0-0.9h2.6V311h0.2v-1.6h202v43.1v5.4c0.2-0.1,0.5-0.1,0.7-0.2c1.3-0.4,2.1-1.5,2.1-2.9v-43.4
		C305,309.8,303.7,308,302,308"/>
	<path fill="#503F42" d="M100,334.5h-2.6c0,0.6,0,0.9,0,0.9h2.6V334.5"/>
	<path fill="#DDBD7B" d="M164.1,360.5h-4.8c-1.5,0.9-3.2,1.4-4.9,1.6c-0.3,0-0.6,0-0.9,0c-2.2,0-4.2-0.6-5.9-1.6h-4.8
		c2.7,2.7,6.4,4.6,10.8,4.6c0.4,0,0.8,0,1.1,0c2.2-0.2,4.4-0.9,6.4-2.1C162.2,362.2,163.3,361.4,164.1,360.5"/>
	<path fill="#DDDBE3" d="M103.5,352.5h-3.4v0.6c0.1,0,0.2,0,0.3,0C101.5,353.1,102.6,352.9,103.5,352.5 M167.3,352.5h-3
		c-0.4,2.9-1.2,5.7-4.9,7.9c-0.1,0-0.1,0.1-0.2,0.1h4.8C166.4,358,167,355.1,167.3,352.5 M277.7,352.5h-5.8
		c-1.3,0.5-2.7,0.7-4.1,0.7c-0.6,0-1.2,0-1.8-0.1c-0.7-0.1-1.5-0.3-2.2-0.6h-5.7c2,1.8,4.6,3.1,7.4,3.5c0.7,0.1,1.5,0.2,2.3,0.2
		C271.4,356.2,275,354.8,277.7,352.5"/>
	<path fill="#DDBD7B" d="M285.1,337.5c-1.2,0-2.1,0.8-2.8,1.7c-2.3,2.9-3,6.7-5.3,9.6c-1.3,1.7-3.1,2.9-5.2,3.6h5.8
		c0.6-0.5,1.2-1.1,1.7-1.8c1.4-1.7,2.2-3.6,3-5.4c0.7-1.6,1.3-3,2.3-4.2c0.3-0.4,0.5-0.5,0.5-0.5l0.1,0c0.2,0.1,0.5,0.3,0.6,0.6
		c0.4,0.9,0.4,2,0.4,3.4c0,1,0,2.1,0.2,3.2c0.3,1.7,0.9,3.3,1.9,4.7h3.9c-1.5-1.4-2.5-3.2-2.8-5.2c-0.4-2.5,0.3-5.1-0.8-7.5
		c-0.5-1-1.3-1.7-2.3-2.1C285.9,337.6,285.5,337.5,285.1,337.5 M184.1,334.5c-1.3,0-2.6,0.4-3.6,1.2c-2.3,1.7-3.5,5.1-6.3,5.3
		l-0.2,0c-0.9,0-1.8-0.3-2.7-0.4l-0.3,0c-3.1,0-5.4,3.2-6,6.2c-0.4,1.9-0.4,3.9-0.6,5.8h3c0.1-0.7,0.1-1.3,0.2-2
		c0.1-1.1,0.2-2.2,0.4-3.2c0.4-1.8,1.7-3.8,3-3.8l0.1,0c0.2,0,0.5,0.1,0.8,0.1c0.6,0.1,1.3,0.2,2,0.2c0.1,0,0.3,0,0.4,0
		c3.2-0.2,5-2.4,6.3-4.1c0.6-0.7,1.1-1.4,1.6-1.8c0.5-0.4,1.1-0.6,1.8-0.6c0.7,0,1.3,0.2,1.8,0.5c0.5,0.4,1,1,1.5,1.7
		c0.5,0.6,1,1.3,1.7,1.9c1.5,1.5,3.5,2.4,5.4,2.4c1.2,0,2.3-0.3,3.2-1c1.3-0.9,1.9-2,2.3-2.9c0.1-0.2,0.3-0.5,0.4-0.7l0.1,0
		c0.1,0,0.2,0,0.3,0c0.6,0.1,1.2,0.4,1.8,0.9c1.9,1.5,4.1,2.2,6.4,2.2c2.8,0,5.3-1,7.8-2.1c1.9-0.8,3.7-1.5,5.4-1.7
		c0.2,0,0.4,0,0.6,0c2.9,0,5.7,1.9,6.3,4.4c0.5,2,1.4,3.5,2.6,4.7c1.5,1.4,3.3,2.1,5.2,2.1c4.5,0,8.1-4.1,9.6-6.5
		c1.4-2.4,3.2-4.1,4.4-4.1c0.1,0,0.5,0,1.1,0.5c1.2,0.9,1.4,2.4,1.4,3.1c0,3.7,1.8,7.2,4.6,9.7h5.7c-4.1-1.5-7.3-5.4-7.3-9.7
		c0-2.1-0.8-4.2-2.6-5.5c-1-0.7-2-1-2.9-1c-2.9,0-5.5,3-7,5.6c-1.2,2.1-4,5-7,5c-1.1,0-2.1-0.4-3.2-1.3c-0.9-0.9-1.4-2-1.8-3.2
		c-1.1-3.9-5.1-6.6-9.2-6.6c-0.3,0-0.6,0-0.8,0c-4.5,0.4-8.7,3.7-12.9,3.7c-1.5,0-3-0.4-4.5-1.6c-1-0.7-2.1-1.3-3.3-1.5
		c-0.3,0-0.5,0-0.7,0c-3.1,0-2.8,2.9-4.5,4.1c-0.5,0.3-1,0.5-1.5,0.5c-1.2,0-2.5-0.7-3.3-1.5c-1.3-1.2-2.1-2.9-3.5-3.9
		C186.6,334.9,185.3,334.5,184.1,334.5"/>
	<path fill="#DDDBE3" d="M302.2,352.5H302v2.4c-1,0.3-2,0.5-3,0.5c-0.5,0-1,0-1.5-0.1c-2-0.3-3.9-1.3-5.3-2.7h-3.9
		c1.9,2.9,5.1,5.1,8.7,5.7c0.7,0.1,1.3,0.2,2,0.2c1.1,0,2.1-0.1,3.2-0.4V352.5"/>
	<path fill="#DDDBE3" d="M141.3,352.5h-3.1c0.7,2.9,2.2,5.8,4.4,8h4.8C144.5,358.7,142.3,355.8,141.3,352.5"/>
	<path fill="#E65376" d="M153.6,360.6c-8.2,0-13.7-7.2-14.1-13.8c-0.1-1.3,0-2.6,0.1-3.8c0.2-2.6,0.3-5-1-7.2
		c-0.7-1.1-1.8-1.7-3-1.7c-0.3,0-0.6,0.1-1,0.2c-1.5,0.5-2,2-2.8,4.4c-0.8,2.5-1.7,5.3-4.7,6.3c-0.7,0.2-1.3,0.4-2,0.4
		c-1.8,0-3.5-0.8-4.8-2.1c-1.1-1.1-1.9-2.4-2.4-4c-0.7-2.2-2.7-3.8-4.9-3.8c-0.5,0-1.1,0.1-1.6,0.3c-1.3,0.5-2.1,1.2-2.6,2.2
		c-0.3,0.7-0.4,1.6-0.5,2.6c-0.1,0.8-0.1,1.7-0.4,2.5c-0.9,3.3-4,5.7-7.3,5.7h0c-1.1,0-2.2-0.3-3.3-0.8c-1-0.5-1.8-1.1-2.4-2
		c-1.5-2.2-1.5-4.5-1.4-6.5c0-0.4,0-0.9,0-1.3c0-3.7-0.6-6.2-1.1-8.4c-0.4-1.9-0.8-3.7-0.8-5.8c0-2.8,0.8-5.5,1.6-8.1
		c0.3-0.9,0.5-1.8,0.8-2.7c0.9-3.6,4.1-6,7.8-6h196.9c4.2,0,7.7,3.2,8.1,7.4l1.6,17.1c0.1,1.2,0.3,2.4,0.8,3.7
		c2,5.1,2.1,9.4,0.2,12.9c-1.9,3.5-6,5.8-10.1,5.8c-0.6,0-1.2,0-1.8-0.1c-4.7-0.8-8.6-4.6-9.3-9.1c-0.2-1-0.1-2-0.1-3
		c0-1.5,0-2.8-0.6-4c-0.3-0.6-0.8-1.1-1.5-1.3c-0.2-0.1-0.5-0.1-0.6-0.1c-0.5,0-1,0.3-1.7,1.1c-1,1.3-1.7,2.9-2.5,4.5
		c-0.8,1.7-1.5,3.5-2.8,5.1c-2.4,3.1-6.4,4.9-10.5,4.9c-0.7,0-1.4-0.1-2.1-0.2c-6-1-10.7-6.1-10.8-11.7c0-1.8-0.7-3.4-2-4.3
		c-0.7-0.5-1.4-0.8-2-0.8c-1.8,0-3.9,1.8-5.7,4.9c-1.2,2-4.4,5.8-8.3,5.8c-1.5,0-2.9-0.6-4.2-1.7c-1-0.9-1.7-2.2-2.2-3.9
		c-0.8-3.1-4.2-5.5-7.8-5.5c-0.2,0-0.5,0-0.7,0c-1.9,0.2-3.8,1-5.8,1.8c-2.3,1-4.7,1.9-7.2,1.9c-2,0-3.8-0.6-5.4-1.9
		c-0.9-0.7-1.7-1.1-2.6-1.2c-0.2,0-0.4,0-0.5,0c-1,0-1.2,0.4-1.8,1.5c-0.4,0.8-0.9,1.7-1.8,2.3c-0.7,0.5-1.5,0.7-2.4,0.7
		c-1.5,0-3.1-0.7-4.4-1.9c-0.6-0.6-1.1-1.2-1.5-1.8c-0.6-0.8-1.1-1.5-1.8-2c-0.7-0.5-1.7-0.8-2.7-0.8c-1,0-2,0.3-2.7,0.9
		c-0.7,0.5-1.3,1.2-1.9,2c-1.3,1.6-2.8,3.4-5.3,3.5c-0.1,0-0.2,0-0.3,0c-0.6,0-1.2-0.1-1.7-0.2c-0.4-0.1-0.7-0.1-1-0.2l-0.2,0
		c-2.3,0-4,2.6-4.5,5c-0.2,1.1-0.3,2.2-0.4,3.4c-0.3,3.8-0.6,8.1-5.8,11.3c-1.8,1.1-3.8,1.7-5.8,1.9
		C154.2,360.6,153.9,360.6,153.6,360.6z"/>
	<path fill="#564233" d="M298.7,308.4c3.4,0,6.3,2.6,6.6,6l1.6,17.1c0.1,1.4,0.4,2.8,0.9,4.1c1.5,3.8,2.2,8.1,0.3,11.7
		c-1.7,3.1-5.2,5-8.8,5c-0.5,0-1,0-1.5-0.1c-4.1-0.7-7.5-4-8.1-7.9c-0.4-2.5,0.3-5.1-0.8-7.5c-0.5-1-1.3-1.7-2.3-2.1
		c-0.4-0.1-0.8-0.2-1.1-0.2c-1.2,0-2.1,0.8-2.8,1.7c-2.3,2.9-3,6.7-5.3,9.6c-2.1,2.7-5.7,4.4-9.3,4.4c-0.6,0-1.2,0-1.8-0.1
		c-5.1-0.8-9.4-5.2-9.5-10.3c0-2.1-0.8-4.2-2.6-5.5c-1-0.7-2-1-2.9-1c-2.9,0-5.5,3-7,5.6c-1.2,2.1-4,5-7,5c-1.1,0-2.1-0.4-3.2-1.3
		c-0.9-0.9-1.4-2-1.8-3.2c-1.1-3.9-5.1-6.6-9.2-6.6c-0.3,0-0.6,0-0.8,0c-4.5,0.4-8.7,3.7-12.9,3.7c-1.5,0-3-0.4-4.5-1.6
		c-1-0.7-2.1-1.3-3.3-1.5c-0.3,0-0.5,0-0.7,0c-3.1,0-2.8,2.9-4.5,4.1c-0.5,0.3-1,0.5-1.5,0.5c-1.2,0-2.5-0.7-3.3-1.5
		c-1.3-1.2-2.1-2.9-3.5-3.9c-1-0.8-2.3-1.1-3.6-1.1c-1.3,0-2.6,0.4-3.6,1.2c-2.3,1.7-3.5,5.1-6.3,5.3l-0.2,0c-0.9,0-1.8-0.3-2.7-0.4
		l-0.3,0c-3.1,0-5.4,3.2-6,6.2c-1,4.8,0.5,10.1-5.5,13.7c-1.5,0.9-3.3,1.5-5.1,1.7c-0.3,0-0.6,0-0.9,0c-7.1,0-12.2-6.1-12.6-12.4
		c-0.2-4,1.2-8-1.1-11.8c-0.9-1.5-2.6-2.5-4.3-2.5c-0.5,0-1,0.1-1.4,0.2c-4.6,1.6-3,9.1-7.6,10.7c-0.5,0.2-1,0.3-1.5,0.3
		c-1.4,0-2.8-0.6-3.8-1.6c-1-1-1.6-2.2-2-3.4c-0.9-2.9-3.5-4.9-6.3-4.9c-0.7,0-1.4,0.1-2.1,0.4c-1.5,0.6-2.8,1.5-3.4,2.9
		c-0.8,1.7-0.5,3.6-0.9,5.3c-0.7,2.5-3,4.6-5.9,4.6c-0.8,0-1.7-0.2-2.6-0.6c-0.7-0.3-1.4-0.9-1.8-1.5c-1.5-2.2-1.1-4.6-1.1-6.9
		c0-6.9-1.9-9.8-1.9-14.3c0-3.5,1.4-7,2.3-10.4c0.7-2.9,3.4-4.9,6.4-4.9H298.7 M298.7,305.4H101.8c-4.4,0-8.2,2.9-9.3,7.2
		c-0.2,0.9-0.5,1.7-0.7,2.7c-0.8,2.7-1.6,5.5-1.6,8.5c0,2.3,0.4,4.2,0.9,6.2c0.5,2.3,1,4.6,1,8.1c0,0.4,0,0.8,0,1.2
		c-0.1,2.2-0.2,4.8,1.7,7.4c0.7,1,1.8,1.9,3,2.5c1.3,0.6,2.6,0.9,3.9,0.9c4,0,7.7-2.9,8.8-6.9c0.3-1,0.3-1.9,0.4-2.8
		c0.1-0.9,0.1-1.6,0.4-2.1c0.2-0.4,0.5-0.9,1.7-1.4c0.3-0.1,0.7-0.2,1.1-0.2c1.5,0,3,1.1,3.5,2.8c0.6,1.8,1.5,3.4,2.7,4.6
		c1.6,1.6,3.7,2.5,5.9,2.5c0.9,0,1.7-0.1,2.5-0.4c3.7-1.3,4.8-4.8,5.6-7.3c0.6-1.9,1.1-3.1,1.9-3.4c0.2-0.1,0.3-0.1,0.5-0.1
		c0.7,0,1.4,0.4,1.7,1c1.1,1.8,1,3.8,0.8,6.3c-0.1,1.3-0.2,2.6-0.1,4c0.4,7.3,6.5,15.2,15.6,15.2c0.4,0,0.8,0,1.1,0
		c2.2-0.2,4.4-0.9,6.4-2.1c5.9-3.5,6.2-8.5,6.5-12.4c0.1-1.1,0.2-2.2,0.4-3.2c0.4-1.8,1.7-3.8,3-3.8l0.1,0c0.2,0,0.5,0.1,0.8,0.1
		c0.6,0.1,1.3,0.2,2,0.2c0.1,0,0.3,0,0.4,0c3.2-0.2,5-2.4,6.3-4.1c0.6-0.7,1.1-1.4,1.6-1.8c0.5-0.4,1.1-0.6,1.8-0.6
		c0.7,0,1.3,0.2,1.8,0.5c0.5,0.4,1,1,1.5,1.7c0.5,0.6,1,1.3,1.7,1.9c1.5,1.5,3.5,2.4,5.4,2.4c1.2,0,2.3-0.3,3.2-1
		c1.2-0.9,1.9-2,2.3-2.9c0.1-0.2,0.3-0.5,0.4-0.7l0.1,0c0.1,0,0.2,0,0.3,0c0.6,0.1,1.2,0.4,1.8,0.9c1.9,1.5,4.1,2.2,6.4,2.2
		c2.8,0,5.3-1,7.8-2.1c1.9-0.8,3.7-1.5,5.4-1.7c0.2,0,0.4,0,0.6,0c2.9,0,5.7,1.9,6.3,4.4c0.5,2,1.4,3.5,2.6,4.7
		c1.5,1.4,3.3,2.1,5.2,2.1c4.5,0,8.1-4.1,9.6-6.5c1.4-2.4,3.2-4.1,4.4-4.1c0.1,0,0.5,0,1.1,0.5c1.2,0.9,1.4,2.4,1.4,3.1
		c0.1,6.3,5.4,12.1,12,13.2c0.7,0.1,1.5,0.2,2.3,0.2c4.5,0,9-2.1,11.7-5.5c1.4-1.7,2.2-3.6,3-5.4c0.7-1.6,1.3-3,2.3-4.2
		c0.3-0.4,0.5-0.5,0.5-0.5l0.1,0c0.2,0.1,0.5,0.3,0.6,0.6c0.4,0.9,0.4,2,0.4,3.4c0,1,0,2.1,0.2,3.2c0.8,5.2,5.2,9.5,10.6,10.4
		c0.7,0.1,1.3,0.2,2,0.2c4.7,0,9.3-2.6,11.5-6.6c2.1-3.9,2.1-8.7-0.1-14.2c-0.4-1.1-0.7-2.1-0.7-3.1l0-0.1l-1.6-17.1
		C307.8,309.2,303.7,305.4,298.7,305.4z"/>
	<path opacity="0.54" fill="#FFFFFF" d="M144.8,339c0,0.9-0.1,2.6-0.1,4.4c0,2.3,0.2,5.1,1.2,7.4c0.5,1.2,1.2,2.3,2.3,3.2
		c1.1,0.9,2.5,1.4,4.1,1.5c0.8,0.1,1.5-0.6,1.6-1.4c0.1-0.8-0.6-1.5-1.4-1.6c-1.1-0.1-1.8-0.4-2.4-0.8c-0.4-0.3-0.8-0.8-1.1-1.4
		c-0.5-0.8-0.8-2-1-3.2c-0.2-1.2-0.2-2.5-0.2-3.7c0-1.7,0.1-3.3,0.1-4.4c0-0.8-0.7-1.5-1.5-1.5C145.4,337.5,144.8,338.2,144.8,339
		L144.8,339z"/>
	<path fill="#FED876" d="M150.8,444.6H68.2v8h92.3c-3.2-0.9-6-2.7-8-5.3C151.8,446.4,151.2,445.5,150.8,444.6 M334.2,444.6H178.4
		c-1.8,3.8-5.4,6.8-9.5,8h165.2V444.6 M90.4,424.9c-0.7,0-1.4,0-2.1,0.1c-1,0.1-1.7,0.3-1.9,0.5c-0.4,0.3-0.6,1.3-0.8,2.2
		c-0.1,0.5-0.2,1-0.4,1.6c-1.6,5.4-7.2,9.3-13.2,9.3c-1.3,0-2.5-0.2-3.7-0.5v43.3h266v-28.8H168.9c-0.4,0.1-0.9,0.2-1.3,0.3
		c-0.9,0.2-1.9,0.3-2.9,0.3c-1.4,0-2.9-0.2-4.3-0.6H68.2v-8h82.6c-1.3-2.5-1.9-5.2-2.5-7.9c-0.3-1.3-0.6-2.6-1-3.8
		c-1-3.4-3.5-7-6.7-7l-0.2,0c-0.5,0-1.2,0.2-1.8,0.3c-0.8,0.2-1.7,0.4-2.7,0.4c-0.2,0-0.5,0-0.7,0c-0.3,0-0.6,0-1,0
		c-0.2,0-0.5,0-0.7,0c-0.4,0-0.6,0-0.8,0.1c-0.9,0.2-1.4,1.4-2.2,3.7c-0.7,2.1-1.5,4.4-3.3,6.2c-1.7,1.7-4.1,2.6-6.9,2.6
		c-2.4,0-4.9-0.7-7.1-2c-2.3-1.3-4.1-3.1-5.8-4.7c-1-0.9-1.9-1.8-2.9-2.6C100.6,426.7,95.5,424.9,90.4,424.9 M241.5,421.7
		c-0.3,0.3-0.6,0.6-0.8,0.9c-0.6,0.7-1.4,1.6-2.3,2.3c-1.4,1-2.9,1.3-4.2,1.6c-0.9,0.2-1.8,0.4-2.2,0.8c-0.3,0.3-0.5,1.3-0.7,2.2
		c-0.1,0.6-0.3,1.4-0.5,2.1c-1.4,4.5-5.9,7.7-10.7,7.7c-0.3,0-0.6,0-0.9,0c-5.1-0.4-9.5-4.5-10.1-9.5c-0.1-0.9-0.1-1.9-0.1-2.7
		c0-1,0-1.9-0.2-2.4c-0.5-1.2-2.3-1.4-3.3-1.4c-1.3,0-2.9,0.3-4.1,0.9c-0.8,0.3-1.6,0.7-2.4,1.1c-2.8,1.3-5.9,2.9-9.3,2.9
		c-0.7,0-1.5-0.1-2.2-0.2c-0.7-0.1-1.4-0.4-2-0.5c-0.7-0.2-1.3-0.4-1.8-0.4l-0.1,0c-1.7,0-3.2,2.3-3.5,4.4c-0.2,1.3-0.2,2.6-0.2,4.1
		c0,2.1,0,4.3-0.6,6.6c-0.2,0.9-0.6,1.8-1,2.6h155.7v-5.4c-0.5,0-1,0.1-1.6,0.1c-0.7,0-1.4,0-2.1-0.1c-6-0.6-10-2.9-11.7-6.7
		c-0.4-1-0.6-2-0.8-2.9c-0.1-0.7-0.3-1.4-0.5-1.8c-0.5-1-1.9-1.6-4-1.6c-0.8,0-1.6,0.1-2.6,0.2c0.1,1.3,0,2.6-0.5,3.9
		c-1,2.9-3.2,5.3-6,6.3c-1.2,0.4-2.4,0.6-3.6,0.6c-4.2,0-8.3-2.3-10.4-5.9c-0.5-0.9-0.9-1.7-1.2-2.6c-0.7-1.7-1.2-2.7-1.9-3
		c-0.4-0.2-1-0.2-1.5-0.2c-0.3,0-0.6,0-0.9,0c-0.3,0-0.7,0-1,0l-0.2,0c-2.7,0-5.4-0.7-7.7-2c-0.1,0.7-0.3,1.4-0.4,2.2
		c-0.3,1.9-0.6,3.9-1.4,5.8c-2.4,6.2-9,10.5-15.9,10.5c-1,0-2-0.1-3-0.3c-7.8-1.5-13.8-8.7-13.6-16.5
		C241.7,423.4,241.6,422.3,241.5,421.7"/>
	<path fill="#564233" d="M334.2,444.6L334.2,444.6v8V444.6 M334.2,392.4h-29h-3h-202h-3h-29c-1.7,0-3,1.3-3,3v1.1
		c0.5-1.3,1.8-2.5,3.1-2.5H334c1.7,0,3,1.8,3,3.4v38.8c0,1.5-1.2,2.8-2.7,3c0,0-0.1,0-0.1,0v5.4v8v28.8h-266v-43.3
		c-0.1,0-0.2-0.1-0.3-0.1c-0.2-0.1-0.5-0.2-0.7-0.2l-0.1,0c-0.9-0.3-1.6-1-1.9-1.9v34.5v3v8c0,1.7,1.3,3,3,3h266c1.7,0,3-1.3,3-3v-8
		v-3v-75C337.2,393.7,335.8,392.4,334.2,392.4"/>
	<path opacity="0.91" fill="#FFFFFF" d="M150.8,444.6H68.2v8h92.3c-3.2-0.9-6-2.7-8-5.3C151.8,446.4,151.2,445.5,150.8,444.6
		 M334.2,444.6L334.2,444.6v8V444.6 M334.2,444.6H178.4c-1.8,3.8-5.4,6.8-9.5,8h165.2V444.6"/>
	<path fill="#DDBD7B" d="M334,397c-34.8,0-253.8,0-265.8,0v38c0.2,0,0.4,0.1,0.6,0.1c1,0.3,2.1,0.5,3.2,0.5c4.5,0,9-2.9,10.3-7.1
		c0.6-1.8,0.7-3.9,2.1-5.2c1-0.8,2.3-1.1,3.6-1.2c0.8-0.1,1.6-0.1,2.4-0.1c5.8,0,11.6,2,16,5.6c2.9,2.3,5.2,5.2,8.4,7.1
		c1.6,1,3.6,1.6,5.5,1.6c1.8,0,3.5-0.5,4.8-1.8c3.1-3.1,2.5-9.5,6.9-10.7c0.5-0.1,1-0.2,1.5-0.2c0.6,0,1.1,0,1.7,0
		c0.2,0,0.4,0,0.5,0c1.5-0.1,3-0.7,4.6-0.8c0.1,0,0.3,0,0.4,0c4.7,0,8.2,4.7,9.5,9.2c1.3,4.2,1.6,8.9,4,12.6H175
		c0.7-1,1.2-2.2,1.5-3.3c0.9-3.4,0.2-6.9,0.7-10.3c0.5-3.4,2.9-7,6.4-7l0.2,0c1.5,0,2.8,0.7,4.3,1c0.5,0.1,1.1,0.2,1.6,0.2
		c3.6,0,7.1-2.3,10.5-3.7c1.6-0.7,3.5-1.1,5.3-1.1c2.6,0,5.1,0.9,6,3.2c0.8,1.8,0.3,3.9,0.5,5.9c0.5,3.5,3.7,6.5,7.4,6.8
		c0.1,0,0.3,0,0.4,0c0.1,0,0.1,0,0.2,0c3.5,0,6.8-2.4,7.9-5.6c0.6-1.9,0.5-4.2,1.9-5.6c1.7-1.7,4.8-1.4,6.8-2.8
		c1.8-1.3,2.8-4.2,5.1-4.2h0.1c3,0,3,4.5,2.9,7.3c-0.2,6.2,4.8,12.4,11.1,13.6c0.8,0.2,1.6,0.2,2.4,0.2c5.6,0,11.2-3.5,13.1-8.6
		c1.5-3.8,1.1-8.1,3.1-11.7c2.4,2.4,5.8,3.8,9.2,3.8l0.2,0c0.6,0,1.3,0,1.9,0c1,0,1.9,0.1,2.7,0.5c2.6,1.2,3.1,4.4,4.5,6.8
		c1.5,2.7,4.7,4.4,7.8,4.4c0.9,0,1.8-0.1,2.6-0.5c3.8-1.4,5.9-6.3,3.7-9.6c2-0.6,4.3-1,6.4-1c2.8,0,5.4,0.8,6.7,3.2
		c0.8,1.5,0.7,3.3,1.4,4.9c1.4,3.3,5.6,4.5,9.2,4.9c0.6,0.1,1.1,0.1,1.7,0.1c0.5,0,1.4,0,1.4-0.1V397"/>
	<path fill="#503F42" d="M68.2,397c-0.1,0-0.1,0-0.2,0v37.9c0,0,0.1,0.1,0.2,0.1V397"/>
	<path fill="#DDDBE3" d="M175,444.6h-20.8c0.2,0.3,0.4,0.6,0.6,0.9c2.3,2.9,6.1,4.7,9.9,4.7c0.8,0,1.5-0.1,2.3-0.2
		C170.3,449.3,173.2,447.3,175,444.6"/>
	<path opacity="0.1608" fill="#2E3192" d="M65.2,396.5c-0.1,0.3-0.2,0.6-0.2,1v37.5c0,0.3,0.1,0.6,0.2,0.9V396.5"/>
	<path fill="#DDBD7B" d="M90.4,421.9c-0.8,0-1.6,0-2.4,0.1c-1.3,0.1-2.6,0.4-3.6,1.2c-1.5,1.3-1.6,3.4-2.1,5.2
		c-1.3,4.2-5.8,7.1-10.3,7.1c-1,0-2.2-0.2-3.2-0.5c-0.1,0-0.4-0.1-0.6-0.1v3.1c1.2,0.4,2.4,0.5,3.7,0.5c6,0,11.6-3.9,13.2-9.3
		c0.2-0.5,0.3-1.1,0.4-1.6c0.2-0.9,0.5-1.9,0.8-2.2c0.3-0.2,0.9-0.4,1.9-0.5c0.7-0.1,1.4-0.1,2.1-0.1c5.1,0,10.3,1.8,14.1,4.9
		c1,0.8,1.9,1.7,2.9,2.6c1.8,1.7,3.6,3.4,5.8,4.7c2.2,1.3,4.7,2,7.1,2c2.8,0,5.1-0.9,6.9-2.6c1.8-1.8,2.6-4.1,3.3-6.2
		c0.8-2.4,1.3-3.5,2.2-3.7c0.2,0,0.4-0.1,0.8-0.1c0.2,0,0.5,0,0.7,0c0.3,0,0.6,0,1,0c0.2,0,0.5,0,0.7,0c1-0.1,1.9-0.3,2.7-0.4
		c0.7-0.1,1.3-0.3,1.8-0.3l0.2,0c3.1,0,5.6,3.6,6.7,7c0.4,1.2,0.7,2.5,1,3.8c0.6,2.6,1.2,5.3,2.5,7.9h3.4c-2.4-3.7-2.7-8.3-4-12.6
		c-1.3-4.5-4.8-9.2-9.5-9.2c-0.1,0-0.3,0-0.4,0c-1.5,0.1-3,0.7-4.6,0.8c-0.2,0-0.4,0-0.5,0c-0.6,0-1.1,0-1.7,0c-0.5,0-1,0-1.5,0.2
		c-4.3,1.1-3.7,7.6-6.9,10.7c-1.3,1.2-3,1.8-4.8,1.8c-1.9,0-3.9-0.6-5.5-1.6c-3.2-1.9-5.5-4.8-8.4-7.1
		C101.9,423.9,96.1,421.9,90.4,421.9 M334.2,395.4h-266v1.6c12,0,231,0,265.8,0v39.2c0,0-0.9,0.1-1.4,0.1c-0.6,0-1.2,0-1.7-0.1
		c-3.7-0.4-7.8-1.6-9.2-4.9c-0.7-1.6-0.6-3.3-1.4-4.9c-1.2-2.4-3.8-3.2-6.7-3.2c-2.1,0-4.4,0.4-6.4,1c2.2,3.3,0.1,8.3-3.7,9.6
		c-0.8,0.3-1.7,0.5-2.6,0.5c-3.1,0-6.2-1.8-7.8-4.4c-1.4-2.4-1.9-5.6-4.5-6.8c-0.9-0.4-1.8-0.5-2.7-0.5c-0.6,0-1.3,0-1.9,0l-0.2,0
		c-3.4,0-6.8-1.5-9.2-3.8c-2,3.6-1.6,7.9-3.1,11.7c-2,5.1-7.5,8.6-13.1,8.6c-0.8,0-1.6-0.1-2.4-0.2c-6.3-1.2-11.3-7.4-11.1-13.6
		c0.1-2.9,0.1-7.3-2.9-7.3h-0.1c-2.2,0-3.2,2.9-5.1,4.2c-2,1.4-5.1,1.1-6.8,2.8c-1.4,1.4-1.4,3.7-1.9,5.6c-1,3.2-4.4,5.6-7.9,5.6
		c-0.1,0-0.1,0-0.2,0c-0.1,0-0.3,0-0.4,0c-3.7-0.3-6.9-3.3-7.4-6.8c-0.3-2,0.3-4.1-0.5-5.9c-1-2.3-3.4-3.2-6-3.2
		c-1.8,0-3.7,0.4-5.3,1.1c-3.4,1.5-6.9,3.7-10.5,3.7c-0.5,0-1.1,0-1.6-0.2c-1.5-0.3-2.8-1-4.3-1l-0.2,0c-3.5,0-5.9,3.6-6.4,7
		c-0.5,3.4,0.2,7-0.7,10.3c-0.3,1.2-0.8,2.3-1.5,3.3h3.4c0.4-0.8,0.7-1.7,1-2.6c0.6-2.3,0.6-4.5,0.6-6.6c0-1.4,0-2.8,0.2-4.1
		c0.3-2.1,1.8-4.4,3.5-4.4l0.1,0c0.5,0,1.1,0.2,1.8,0.4c0.6,0.2,1.3,0.4,2,0.5c0.7,0.1,1.4,0.2,2.2,0.2c3.4,0,6.6-1.5,9.3-2.9
		c0.8-0.4,1.6-0.8,2.4-1.1c1.3-0.6,2.8-0.9,4.1-0.9c1,0,2.8,0.2,3.3,1.4c0.2,0.6,0.2,1.4,0.2,2.4c0,0.8,0,1.7,0.1,2.7
		c0.6,5,5,9,10.1,9.5c0.3,0,0.6,0,0.9,0c4.8,0,9.3-3.2,10.7-7.7c0.2-0.7,0.4-1.5,0.5-2.1c0.2-0.9,0.4-1.8,0.7-2.2
		c0.3-0.3,1.3-0.5,2.2-0.8c1.3-0.3,2.8-0.7,4.2-1.6c1-0.7,1.7-1.5,2.3-2.3c0.2-0.3,0.5-0.6,0.8-0.9c0.1,0.6,0.2,1.7,0.2,3.8
		c-0.2,7.7,5.7,15,13.6,16.5c1,0.2,2,0.3,3,0.3c7,0,13.5-4.3,15.9-10.5c0.8-2,1.1-3.9,1.4-5.8c0.1-0.7,0.2-1.5,0.4-2.2
		c2.3,1.3,5,2,7.7,2l0.2,0c0.3,0,0.7,0,1,0c0.3,0,0.6,0,0.9,0c0.5,0,1.1,0,1.5,0.2c0.7,0.3,1.2,1.4,1.9,3c0.4,0.8,0.7,1.7,1.2,2.6
		c2.1,3.6,6.2,5.9,10.4,5.9c1.3,0,2.5-0.2,3.6-0.6c2.8-1,5.1-3.4,6-6.3c0.4-1.3,0.6-2.6,0.5-3.9c0.9-0.1,1.8-0.2,2.6-0.2
		c2.1,0,3.5,0.5,4,1.6c0.2,0.4,0.4,1.1,0.5,1.8c0.2,0.9,0.4,1.9,0.8,2.9c1.6,3.8,5.7,6.1,11.7,6.7c0.7,0.1,1.4,0.1,2.1,0.1
		c0.5,0,1.1,0,1.6-0.1V395.4"/>
	<path fill="#503F42" d="M334,394H68.3c-1.3,0-2.6,1.1-3.1,2.5v39.4c0.3,0.8,1,1.5,1.9,1.9l0.1,0c0.2,0.1,0.5,0.2,0.7,0.2
		c0.1,0,0.2,0.1,0.3,0.1V435c-0.1,0-0.2-0.1-0.2-0.1V397c0.1,0,0.1,0,0.2,0v-1.6h266v43.8c0,0,0.1,0,0.1,0c1.5-0.2,2.7-1.4,2.7-3
		v-38.8C337,395.8,335.7,394,334,394"/>
	<path fill="#DDBD7B" d="M168.9,452.6h-8.4c1.4,0.4,2.8,0.6,4.3,0.6c1,0,1.9-0.1,2.9-0.3C168.1,452.8,168.5,452.7,168.9,452.6"/>
	<path fill="#DDDBE3" d="M178.4,444.6H175c-1.8,2.7-4.7,4.7-7.9,5.4c-0.8,0.1-1.5,0.2-2.3,0.2c-3.8,0-7.6-1.7-9.9-4.7
		c-0.2-0.3-0.4-0.6-0.6-0.9h-3.4c0.5,0.9,1,1.9,1.7,2.7c2,2.5,4.8,4.4,8,5.3h8.4C173.1,451.3,176.6,448.3,178.4,444.6"/>
	<path fill="#E65376" d="M164.9,448.6c-4.3,0-8.5-2-11.1-5.3c-2.3-3-3.1-6.6-3.9-10c-0.3-1.3-0.6-2.7-1-3.9c-1.2-4-4.2-8.1-8.1-8.1
		c-0.1,0-0.2,0-0.3,0c-0.7,0-1.3,0.2-2.1,0.3c-0.8,0.2-1.6,0.4-2.5,0.4c-0.2,0-0.4,0-0.6,0c-0.3,0-0.6,0-0.9,0c-0.3,0-0.5,0-0.8,0
		c-0.5,0-0.9,0-1.2,0.1c-1.7,0.4-2.3,2.1-3.2,4.7c-0.7,1.9-1.4,4-3,5.6c-1.5,1.4-3.5,2.2-5.8,2.2c-2.1,0-4.4-0.6-6.3-1.8
		c-2.1-1.3-3.9-2.9-5.6-4.5c-1-1-2-1.9-3-2.7c-4.1-3.3-9.6-5.2-15.1-5.2c-0.8,0-1.5,0-2.3,0.1c-0.9,0.1-2.1,0.3-2.8,0.8
		c-0.7,0.6-1,1.7-1.3,3c-0.1,0.5-0.2,1-0.4,1.5c-1.5,4.8-6.4,8.2-11.8,8.2c-1.2,0-2.4-0.2-3.5-0.6c-8.6-2.9-7.9-10.8-7.3-17.2
		c0.2-1.6,0.3-3.2,0.3-4.6v-12.4c0-3.6,2.9-6.4,6.4-6.4h264.9c2,0,3.8,0.8,5.2,2.2c1.4,1.4,2.1,3.3,2.1,5.2
		c-0.2,7.9-0.2,8.4-0.3,8.7c-0.5,3.8-0.1,7.4,0.5,11.1l0.2,1.2c0.2,1.5,0.5,3,0.7,4.6c0.2,1.6,0.3,3.2-0.3,4.8
		c-1.1,2.6-4,4.1-8.2,4.1c-0.6,0-1.3,0-1.9-0.1c-5.4-0.6-9.1-2.6-10.5-5.8c-0.4-0.9-0.6-1.7-0.7-2.6c-0.2-0.8-0.3-1.6-0.6-2.2
		c-0.8-1.6-2.6-2.4-5.3-2.4c-0.5,0-1.1,0-1.7,0.1c-1.3,0.1-2.3,1.3-2.3,2.8c-0.1,3.4-2.4,6.6-5.6,7.7c-1,0.4-2,0.5-3.1,0.5
		c-3.6,0-7.3-2.1-9.1-5.2c-0.5-0.8-0.8-1.6-1.2-2.4c-0.7-1.7-1.4-3.2-2.7-3.8c-0.6-0.3-1.4-0.3-2.1-0.3c-0.3,0-0.6,0-0.9,0
		c-0.3,0-0.7,0-1,0l-0.2,0c-1.9,0-3.8-0.4-5.6-1.2c-0.4-0.2-0.8-0.2-1.2-0.2c-1.4,0-2.5,0.9-2.8,2.3l-0.1,0.5
		c-0.3,1.8-0.6,3.7-1.3,5.5c-2.2,5.6-8.2,9.6-14.5,9.6c-0.9,0-1.8-0.1-2.7-0.2c-7-1.3-12.5-8-12.3-14.9c0-1.3,0.1-4.4-0.8-5.3
		c-0.1-0.1-0.3-0.2-0.6-0.3h0c-0.7,0-1.3,0.6-2.2,1.7c-0.6,0.7-1.2,1.5-2.1,2c-1.2,0.8-2.5,1.1-3.7,1.4c-1.2,0.3-2.3,0.5-2.9,1.1
		c-0.7,0.7-0.9,1.7-1.1,2.9c-0.1,0.6-0.3,1.3-0.5,2c-1.2,3.8-5.1,6.6-9.3,6.6c-0.2,0-0.5,0-0.7,0c-4.4-0.4-8.2-3.9-8.7-8.2
		c-0.1-0.8-0.1-1.7-0.1-2.4c0-1.1,0-2.2-0.3-3.1c-0.8-2-3.3-2.3-4.7-2.3c-1.5,0-3.3,0.4-4.7,1c-0.8,0.4-1.6,0.8-2.5,1.2
		c-2.7,1.3-5.6,2.7-8.7,2.7c-0.6,0-1.3-0.1-1.9-0.2c-0.7-0.1-1.3-0.3-1.8-0.5c-0.8-0.2-1.5-0.5-2.2-0.5l-0.1,0c-2.6,0-4.5,2.9-5,5.7
		c-0.2,1.4-0.2,2.8-0.2,4.3c0,2,0,4.1-0.5,6.2c-1.3,4.9-5.5,8.8-10.6,9.8C166.6,448.6,165.8,448.6,164.9,448.6z"/>
	<path fill="#564233" d="M332.9,394.4c3.2,0,5.9,2.7,5.8,5.9c-0.1,3.7-0.2,7.9-0.3,8.5c-0.6,4-0.1,7.7,0.5,11.6
		c0.3,1.9,0.6,3.8,0.9,5.7c0.2,1.3,0.3,2.8-0.2,4c-1,2.4-4,3.2-6.8,3.2c-0.6,0-1.2,0-1.7-0.1c-3.7-0.4-7.8-1.6-9.2-4.9
		c-0.7-1.6-0.6-3.3-1.4-4.9c-1.2-2.4-3.8-3.2-6.7-3.2c-0.6,0-1.2,0-1.8,0.1c-2.1,0.2-3.6,2.1-3.7,4.2c-0.1,2.7-1.9,5.4-4.6,6.4
		c-0.8,0.3-1.7,0.5-2.6,0.5c-3.1,0-6.2-1.8-7.8-4.4c-1.4-2.4-1.9-5.6-4.5-6.8c-0.9-0.4-1.8-0.5-2.7-0.5c-0.6,0-1.3,0-1.9,0l-0.2,0
		c-1.7,0-3.4-0.4-5-1c-0.6-0.2-1.2-0.4-1.7-0.4c-2,0-3.9,1.4-4.2,3.5c-0.3,1.9-0.6,3.9-1.3,5.7c-2,5.1-7.5,8.6-13.1,8.6
		c-0.8,0-1.6-0.1-2.4-0.2c-6.3-1.2-11.3-7.2-11.1-13.4c0.1-2.9,0.1-7.1-2.9-7.1l-0.1,0c-2.2,0-3.2,2.7-5.1,4c-2,1.4-5.1,1-6.8,2.7
		c-1.4,1.4-1.4,3.6-1.9,5.5c-1,3.2-4.4,5.6-7.9,5.6c-0.2,0-0.4,0-0.6,0c-3.7-0.3-6.9-3.3-7.4-6.9c-0.3-2,0.3-4.1-0.5-5.9
		c-1-2.3-3.4-3.2-6-3.2c-1.8,0-3.7,0.4-5.3,1.1c-3.4,1.5-6.9,3.7-10.5,3.7c-0.5,0-1.1,0-1.6-0.2c-1.5-0.3-2.8-1-4.3-1l-0.2,0
		c-3.5,0-5.9,3.6-6.4,7c-0.5,3.4,0.2,7-0.7,10.3c-1.1,4.3-4.9,7.8-9.4,8.7c-0.8,0.1-1.5,0.2-2.3,0.2c-3.8,0-7.6-1.7-9.9-4.7
		c-3-3.8-3.3-8.9-4.6-13.5c-1.3-4.5-4.8-9.2-9.5-9.2c-0.1,0-0.3,0-0.4,0c-1.5,0.1-3,0.7-4.6,0.8c-0.2,0-0.4,0-0.5,0
		c-0.6,0-1.1,0-1.7,0c-0.5,0-1,0-1.5,0.2c-4.3,1.1-3.7,7.6-6.9,10.7c-1.3,1.2-3,1.8-4.8,1.8c-1.9,0-3.9-0.6-5.5-1.6
		c-3.2-1.9-5.5-4.8-8.4-7.1c-4.4-3.6-10.2-5.6-16-5.6c-0.8,0-1.6,0-2.4,0.1c-1.3,0.1-2.6,0.4-3.6,1.2c-1.5,1.3-1.6,3.4-2.1,5.2
		c-1.3,4.2-5.8,7.1-10.3,7.1c-1,0-2.1-0.2-3.1-0.5c-9.5-3.1-6-13.3-6-20.4v-12.4c0-2.7,2.2-4.9,4.9-4.9H332.9 M332.9,391.4H68
		c-4.4,0-7.9,3.6-7.9,7.9v12.4c0,1.3-0.1,2.8-0.3,4.4c-0.6,6.2-1.5,15.5,8.3,18.8c1.3,0.4,2.6,0.6,4,0.6c6,0,11.5-3.9,13.2-9.3
		c0.2-0.5,0.3-1.1,0.4-1.6c0.2-0.9,0.4-1.9,0.8-2.2c0.3-0.2,0.9-0.4,1.9-0.5c0.7-0.1,1.4-0.1,2.1-0.1c5.1,0,10.3,1.8,14.1,4.9
		c1,0.8,1.9,1.7,2.9,2.6c1.8,1.7,3.6,3.4,5.8,4.7c2.2,1.3,4.7,2,7.1,2c2.8,0,5.1-0.9,6.9-2.6c1.8-1.8,2.6-4.1,3.3-6.2
		c0.8-2.4,1.3-3.5,2.2-3.7c0.2,0,0.4-0.1,0.8-0.1c0.2,0,0.5,0,0.7,0c0.3,0,0.6,0,1,0c0.2,0,0.5,0,0.7,0c1-0.1,1.9-0.3,2.7-0.4
		c0.7-0.1,1.3-0.3,1.8-0.3l0.2,0c3.1,0,5.6,3.6,6.7,7c0.4,1.2,0.7,2.5,1,3.8c0.8,3.6,1.7,7.4,4.2,10.6c2.8,3.6,7.5,5.8,12.3,5.8
		c1,0,1.9-0.1,2.9-0.3c5.6-1.1,10.4-5.5,11.7-10.9c0.6-2.3,0.6-4.5,0.6-6.6c0-1.4,0-2.8,0.2-4.1c0.3-2.1,1.8-4.4,3.5-4.4l0.1,0
		c0.5,0,1.1,0.2,1.8,0.4c0.6,0.2,1.3,0.4,2,0.5c0.7,0.1,1.4,0.2,2.2,0.2c3.4,0,6.6-1.5,9.3-2.9c0.8-0.4,1.6-0.8,2.4-1.1
		c1.3-0.6,2.8-0.9,4.1-0.9c1,0,2.8,0.2,3.3,1.4c0.2,0.6,0.2,1.4,0.2,2.4c0,0.8,0,1.7,0.1,2.7c0.6,5,5,9,10.1,9.5c0.3,0,0.6,0,0.9,0
		c4.8,0,9.3-3.2,10.7-7.7c0.2-0.7,0.4-1.5,0.5-2.1c0.2-0.9,0.4-1.8,0.7-2.2c0.3-0.3,1.3-0.5,2.2-0.8c1.3-0.3,2.8-0.7,4.2-1.6
		c1-0.7,1.7-1.5,2.3-2.3c0.2-0.3,0.5-0.6,0.8-0.9c0.1,0.6,0.2,1.7,0.2,3.8c-0.2,7.7,5.7,15,13.6,16.5c1,0.2,2,0.3,3,0.3
		c7,0,13.5-4.3,15.9-10.5c0.8-2,1.1-3.9,1.4-5.8l0.1-0.5c0.1-0.7,0.7-1,1.3-1c0.2,0,0.4,0,0.6,0.1c1.9,0.8,4.1,1.2,6.1,1.3l0.2,0
		c0.3,0,0.7,0,1,0c0.3,0,0.6,0,0.9,0c0.5,0,1.1,0,1.5,0.2c0.7,0.3,1.2,1.4,1.9,3c0.4,0.8,0.7,1.7,1.2,2.6c2.1,3.6,6.2,5.9,10.4,5.9
		c1.3,0,2.5-0.2,3.6-0.6c3.7-1.4,6.4-5.1,6.5-9.1c0-0.6,0.4-1.3,1-1.3c0.5-0.1,1.1-0.1,1.5-0.1c2.1,0,3.5,0.5,4,1.6
		c0.2,0.4,0.4,1.1,0.5,1.8c0.2,0.9,0.4,1.9,0.8,2.9c1.6,3.8,5.7,6.1,11.7,6.7c0.7,0.1,1.4,0.1,2.1,0.1c4.8,0,8.2-1.8,9.6-5
		c0.9-2.1,0.6-4.2,0.5-5.6c-0.2-1.6-0.4-3.1-0.7-4.6l-0.2-1.2c-0.6-3.6-1-7.1-0.5-10.7c0-0.3,0.1-0.9,0.3-8.9c0-2.4-0.8-4.6-2.5-6.3
		C337.5,392.3,335.3,391.4,332.9,391.4z"/>
	<path opacity="0.54" fill="#FFFFFF" d="M153.5,427c0,1,0.2,2.4,0.5,4c0.5,2.4,1.3,5.2,2.6,7.5c0.6,1.2,1.4,2.2,2.3,3.1
		c0.9,0.8,2.1,1.5,3.4,1.6c0.8,0.1,1.5-0.5,1.6-1.4c0.1-0.8-0.5-1.5-1.4-1.6c-0.4,0-0.7-0.1-1.1-0.4c-0.7-0.4-1.4-1.2-2-2.3
		c-1-1.6-1.7-3.8-2.2-5.8c-0.3-1-0.4-2-0.6-2.8c-0.1-0.8-0.2-1.6-0.2-2c0-0.8-0.7-1.5-1.5-1.5C154.2,425.5,153.5,426.2,153.5,427
		L153.5,427z"/>
	<path opacity="0.54" fill="#FFFFFF" d="M65.7,412.4c-0.1,1.1-0.4,2.4-0.6,3.8c-0.2,1.4-0.4,2.8-0.4,4.3c0,1.9,0.3,3.8,1.4,5.5
		c0.5,0.9,1.3,1.6,2.2,2.3c0.9,0.7,2,1.2,3.3,1.6c0.8,0.3,1.6-0.2,1.9-1c0.3-0.8-0.2-1.6-1-1.9c-1-0.3-1.8-0.7-2.4-1.2
		c-0.9-0.7-1.4-1.4-1.8-2.3c-0.4-0.9-0.5-1.9-0.5-3.1c0-1.2,0.2-2.5,0.4-3.8c0.2-1.3,0.4-2.6,0.6-3.9c0.1-0.8-0.5-1.6-1.3-1.7
		C66.5,411,65.8,411.6,65.7,412.4L65.7,412.4z"/>
	<path opacity="0.54" fill="#FFFFFF" d="M249.5,424c0,0.9,0.3,1.6,0.6,2.4c0.5,1.1,1.3,2.2,2.1,3.2c0.4,0.5,0.8,0.9,1.3,1.3
		c0.4,0.4,0.8,0.7,1.3,0.9c0.7,0.4,1.6,0.1,2-0.6c0.4-0.7,0.1-1.6-0.6-2c-0.2-0.1-0.6-0.4-1-0.8c-0.6-0.6-1.4-1.5-1.9-2.4
		c-0.3-0.4-0.5-0.8-0.6-1.2c-0.1-0.3-0.2-0.6-0.2-0.7c0-0.8-0.7-1.5-1.5-1.5C250.2,422.5,249.5,423.2,249.5,424L249.5,424z"/>
</g>
</svg>
