<svg xmlns="http://www.w3.org/2000/svg" xmlns:xlink="http://www.w3.org/1999/xlink" viewBox="0 0 409 513"><path opacity=".2" fill="#2E3192" d="M65.2 473.4c-5.4.5-10.4 1-15.1 1.6a225.9 225.9 0 0 0-26.7 4.5c-3.5.9-6.2 1.9-7.6 2.7a4 4 0 0 0-1.3 1.1c-.1.1 0 .1 0 .1v.1l.4.5c.5.4 1.3.9 2.5 1.4 2.3 1 6 2 10.7 3 9.4 2 23.2 3.8 40.2 5.3 34 3 81 4.9 133 4.9a1407 1407 0 0 0 151.1-6.7c11.4-1.4 20.5-2.9 26.7-4.5 3.5-.9 6.2-1.9 7.6-2.7a4 4 0 0 0 1.3-1.1c.1-.1 0-.1 0-.1h1.5-1.5v-.1l-.4-.5c-.5-.4-1.3-.9-2.5-1.4-2.3-1-6-2-10.7-3-8.9-1.9-21.5-3.5-37.1-5v8a3 3 0 0 1-3 3h-266a3 3 0 0 1-3-3v-8.1"/><path opacity=".2" fill="#2E3192" d="M65.2 470.4a369.2 369.2 0 0 0-37.8 5.1c-4.8 1-8.6 2.1-11.3 3.2-1.3.6-2.4 1.2-3.2 1.9-.4.4-.8.8-1 1.2a3 3 0 0 0-.4 1.6c0 .6.2 1.1.4 1.6.5.9 1.4 1.6 2.4 2.2 1.9 1.1 4.7 2.1 8.4 3.1 6.5 1.7 15.6 3.2 27.1 4.6 34.4 4.1 89.4 6.7 151.4 6.7 52 0 99.1-1.9 133.2-4.9a372 372 0 0 0 40.5-5.3c4.8-1 8.6-2.1 11.3-3.2 1.3-.6 2.4-1.2 3.2-1.9.4-.4.8-.8 1-1.2.3-.5.4-1 .4-1.6 0-.6-.2-1.1-.4-1.6a6.4 6.4 0 0 0-2.4-2.2 36.7 36.7 0 0 0-8.4-3.1c-6.5-1.7-15.6-3.2-27.1-4.6-4.8-.6-9.9-1.1-15.4-1.6v3c15.6 1.4 28.3 3.1 37.1 5 4.7 1 8.3 2 10.7 3 1.2.5 2 1 2.5 1.4l.4.5c.1.1 0 .1 0 .1h3-3v.1a4 4 0 0 1-1.3 1.1c-1.5.9-4.1 1.8-7.6 2.7-6.2 1.6-15.3 3.1-26.7 4.5-34.2 4.1-89.1 6.7-151.1 6.7-51.9 0-99-1.9-133-4.9-17-1.5-30.7-3.3-40.2-5.3a65 65 0 0 1-10.7-3c-1.2-.5-2-1-2.5-1.4l-.4-.5c-.1-.1 0-.1 0-.1v-.1a4 4 0 0 1 1.3-1.1c1.5-.9 4.1-1.8 7.6-2.7 6.2-1.6 15.3-3.1 26.7-4.5 4.6-.6 9.7-1.1 15.1-1.6v-2.9"/><path fill="#FCFCFC" d="M183 155.8h-12.6a45 45 0 0 0 0 0h3.5l-16.8 16.8h8.7v5.3l17.2-17.2v20.5l-17.2 17.2v7h-13.6 6.6l-6.6 6.6v7.2h6.8l24-24v10.2h10.3l-13.8 13.8h14l.9-.9v.9-13.8H183v-49.6"/><path fill="#564233" d="M153.8 162a45 45 0 0 0 16.6-6.2H183v49.6h11.4v13.8H152.2v-13.8h13.6v-32.8h-12V162m29.2-9.2h-12.6a3 3 0 0 0-1.6.5c-4.6 2.9-9 4.5-15.6 5.8a3 3 0 0 0-2.4 2.9v10.6a3 3 0 0 0 3 3h9v26.8h-10.6a3 3 0 0 0-3 3v13.8c0 1.2.8 2.3 1.9 2.8h44.5a3 3 0 0 0 1.9-2.8v-13.8a3 3 0 0 0-3-3H186v-46.6a3 3 0 0 0-3-3"/><path fill="#FCFCFC" d="M246.29999999999998 207.40000000000003s0 .1 0 0c0 .1 0 0 0 0m.1-.2s0 .1 0 0c0 .1 0 0 0 0m.1-.2l-.1.1.1-.1m-19.9-52.4c-10.7 0-18.8 6.4-22.1 19.1l18.9-18.9 3.2-.2c5.1 0 9.5 1.4 13.2 4.3l-9.9 9.9c1.7 1.3 3.1 4.2 3.7 10.3l12.4-12.4c2.2 4.3 3.6 9.8 4 16.5l-17.2 17.2c-1.3 5.5-3.7 6.8-6.3 6.8-4 0-7.4-3.2-7.4-20 0-12.3 1.8-17 4.3-18.6-1.9 1.2-3.4 4.1-4 10.6l-16.1 16.1c.5 4.2 1.5 7.9 2.9 11.1l13-13c.7 10.9 3.4 13.6 6.6 13.9l-10.4 10.4c3.2 1.9 6.9 2.9 10.9 2.9h.2l22.5-22.5a48.8 48.8 0 0 0 .9-10.7c.3-21.8-9.3-32.8-23.3-32.8"/><path fill="#564233" d="M226.6 204.2c-2 0-4.4-2.9-4.4-17 0-16.4 3.2-16.4 4.4-16.4s4.4 0 4.4 16.4c0 14.1-2.4 17-4.4 17m0-36.4c-1.1 0-2.1.2-3 .8-2.5 1.6-4.3 6.3-4.3 18.6 0 16.8 3.4 20 7.4 20 2.6 0 4.9-1.3 6.3-6.8.7-3 1.1-7.2 1.1-13.2 0-3.2-.1-5.9-.4-8.1-.6-6.1-2-9-3.7-10.3-1.1-.7-2.2-1-3.4-1m-22.1 5.9c3.2-12.7 11.4-19.1 22.1-19.1 14 0 23.6 11 23.6 32.6 0 8-1.3 14.6-3.6 19.7l-.1.1v.4l-.1.1v.1l-.1.1a20.8 20.8 0 0 1-19.3 12.5h-.2c-4.1 0-7.7-1-10.9-2.9a23.3 23.3 0 0 1-9.3-11.2 42.8 42.8 0 0 1-2.9-11.1 67.3 67.3 0 0 1 .8-21.3m22.1-22.1c-8 0-14.8 3.2-19.4 9.3a42.4 42.4 0 0 0-7.2 26.3c0 18.1 6.7 30.7 18.1 34.8h17.1c11.3-4.1 18.1-16.6 18.1-34.8a42 42 0 0 0-7.2-26.2 24 24 0 0 0-19.5-9.4"/><defs><path id="a" d="M152.2 154.6h98v65.8h-98v-65.8"/></defs><clipPath id="b"><use xlink:href="#a" overflow="visible"/></clipPath><path clip-path="url(#b)" fill="#F8DAE1" d="M173.9 155.8h-3.5a45 45 0 0 1-16.6 6.2v10.6h3.3l16.8-16.8"/><path clip-path="url(#b)" fill="#734540" d="M153.8 162v10.6h3.3-3.3V162"/><path clip-path="url(#b)" fill="#F8DAE1" d="M183 160.7l-17.2 17.2v20.5l17.2-17.2v-20.5"/><path clip-path="url(#b)" fill="#734540" d="M165.8 177.9v20.5-20.5"/><path clip-path="url(#b)" fill="#F8DAE1" d="M158.8 205.4h-6.6v6.6l6.6-6.6"/><path clip-path="url(#b)" fill="#734540" d="M152.2 205.4v6.6-6.6"/><path clip-path="url(#b)" fill="#F8DAE1" d="M183 195.2l-24 24h20.5l13.8-13.8H183v-10.2"/><path clip-path="url(#b)" fill="#734540" d="M179.5 219.2H159h20.5"/><path clip-path="url(#b)" fill="#F8DAE1" d="M194.4 218.3l-.9.9h.9v-.9"/><path clip-path="url(#b)" fill="#734540" d="M194.4 219.2h-.9.9"/><path clip-path="url(#b)" fill="#F8DAE1" d="M226.6 154.6l-3.2.2-18.9 18.9a54.6 54.6 0 0 0-1 21.5l16.1-16.1c.6-6.4 2.1-9.3 4-10.6.9-.6 2-.8 3-.8a5 5 0 0 1 3.3 1l9.9-9.9a22.1 22.1 0 0 0-13.2-4.2"/><path clip-path="url(#b)" fill="#734540" d="M204.5 173.7a54.6 54.6 0 0 0-1 21.5 67.3 67.3 0 0 1 1-21.5M226.6 167.8a5 5 0 0 1 3.3 1c-1-.7-2.1-1-3.3-1"/><path clip-path="url(#b)" fill="#F8DAE1" d="M246 166.7l-12.4 12.4a89.2 89.2 0 0 1-.7 21.3l17.2-17.2a43.3 43.3 0 0 0-4.1-16.5"/><path clip-path="url(#b)" fill="#734540" d="M233.6 179.1a89.2 89.2 0 0 1-.7 21.3 87.3 87.3 0 0 0 .7-21.3"/><path clip-path="url(#b)" fill="#F8DAE1" d="M219.3 193.3l-13 13c2.2 5.1 5.4 8.9 9.3 11.2l10.4-10.4c-3.2-.2-5.9-2.9-6.7-13.8"/><path clip-path="url(#b)" fill="#734540" d="M206.3 206.4a23.8 23.8 0 0 1 0 0"/><path clip-path="url(#b)" fill="#F8DAE1" d="M249.3 197.9l-22.5 22.5c8.4-.1 15.3-4.3 19.3-12.5l.1-.1v-.1l.1-.1v-.1-.1-.1-.1l.1-.1c1.3-2.8 2.3-5.8 2.9-9.2"/><path clip-path="url(#b)" fill="#734540" d="M246.1 207.9a20.8 20.8 0 0 0 0 0m0-.1l-.1.1.1-.1m.1-.1s0 .1 0 0c0 .1 0 0 0 0m0-.1l-.1.1.1-.1m.1-.1s0 .1 0 0c0 .1 0 0 0 0m.1-.1c-.1 0-.1 0 0 0-.1 0-.1 0 0 0m.1-.4"/><path fill="#FED100" d="M186.7 122.8c0 5.9-4.5 10.7-10 10.7s-10-4.8-10-10.7c0-5.9 7.2-35.8 10-35.8 2.9 0 10 29.9 10 35.8z"/><path opacity=".6" fill="#E65376" d="M182.5 121.3c0 3.1-2.5 5.5-5.5 5.5a5.5 5.5 0 0 1-5.5-5.5c0-3.1 4.3-13.7 5.5-13.7 1.4 0 5.5 10.7 5.5 13.7z"/><path fill="#564233" d="M175 131v22c0 .8.7 1.5 1.5 1.5s1.5-.7 1.5-1.5v-22c0-.8-.7-1.5-1.5-1.5s-1.5.7-1.5 1.5"/><path fill="#FED100" d="M236.7 122.8c0 5.9-4.5 10.7-10 10.7s-10-4.8-10-10.7c0-5.9 7.2-35.8 10-35.8 2.9 0 10 29.9 10 35.8z"/><path opacity=".6" fill="#E65376" d="M232.5 121.3c0 3.1-2.5 5.5-5.5 5.5a5.5 5.5 0 0 1-5.5-5.5c0-3.1 4.3-13.7 5.5-13.7 1.4 0 5.5 10.7 5.5 13.7z"/><path fill="#564233" d="M225 131v22c0 .8.7 1.5 1.5 1.5s1.5-.7 1.5-1.5v-22c0-.8-.7-1.5-1.5-1.5s-1.5.7-1.5 1.5"/><path fill="#FED100" d="M155.3 77.4c-2.8-.8-4.9-3-5.7-5.7-.1-.3-.6-.3-.7 0-.8 2.8-3 4.9-5.7 5.7-.3.1-.3.6 0 .7 2.8.8 4.9 3 5.7 5.7.1.3.6.3.7 0 .8-2.8 3-4.9 5.7-5.7.3-.1.3-.6 0-.7zM244 28.6c-2.8-.8-4.9-3-5.7-5.7-.1-.3-.6-.3-.7 0-.8 2.8-3 4.9-5.7 5.7-.3.1-.3.6 0 .7 2.8.8 4.9 3 5.7 5.7.1.3.6.3.7 0 .8-2.8 3-4.9 5.7-5.7.3-.1.3-.6 0-.7zM219.9 70.9c-4-1.2-7.2-4.4-8.4-8.4-.1-.5-.9-.5-1 0-1.2 4-4.4 7.2-8.4 8.4-.5.1-.5.9 0 1 4 1.2 7.2 4.4 8.4 8.4.1.5.9.5 1 0 1.2-4 4.4-7.2 8.4-8.4.5-.1.5-.8 0-1zM194 28.4a15.1 15.1 0 0 1-10.2-10.2c-.2-.6-1.1-.6-1.2 0a15.1 15.1 0 0 1-10.2 10.2c-.6.2-.6 1.1 0 1.2 4.9 1.4 8.7 5.3 10.2 10.2.2.6 1.1.6 1.2 0 1.4-4.9 5.3-8.7 10.2-10.2.6-.2.6-1.1 0-1.2z"/><path fill="#FED876" d="M261.1 268.7h-69.9a11 11 0 0 1-9.6 0h-40.5v8h120v-8m-105.3-15l-.6.1c-1.5.5-2.4 1.7-3.8 3.6-1.4 2-3 4.2-5.8 5.4l-.7.3c-1.1.5-1.8.8-2.9.8l-.9-.1v42.5h120v-29.7h-120v-8h40.5c-1-.5-1.8-1.1-2.5-1.9a17.2 17.2 0 0 1-2.8-4.6c-1.2-2.8-1.7-3.2-2.8-3.2h-.1c-.8 0-1.7.1-2.3.6a13 13 0 0 1-7.3 2.6c-1.6 0-3-.5-4.2-1.4-1.9-1.5-2.3-3.7-2.6-5.2-.3-1.7-.4-1.7-.7-1.8h-.5m65.8-5.1c-.5 0-1.5 1.1-2.3 2.1a13.6 13.6 0 0 1-4.3 3.9c-1.3.7-2.8 1-4.6 1-1.4 0-2.7-.2-4.1-.4-1.2-.2-2.3-.4-3.2-.4h-.2c-2.6.1-5.2 1.8-5.9 3.9l-.4 1.9c-.2 1.2-.4 2.6-1.1 3.9a9 9 0 0 1-4.3 4.1h69.9V266h-.1c-1.6 0-3.1-.7-4.3-1.6-2.5-2-3.1-4.7-3.6-6.8a8 8 0 0 0-1.2-3.1c-.2-.3-.5-.5-.8-.5h-.2c-.7 0-1.8.9-2.8 1.7-1.6 1.3-3.6 3-6.3 3l-1.4-.2c-1.8-.4-3-1.4-3.9-2.3-.5-.4-1-.9-1.3-.9h-.2a5 5 0 0 0-1.5.3c-.8.2-1.8.4-2.9.4l-1.1-.1c-3.3-.5-4.9-3.1-6-5-.6-1-1.3-2.1-1.8-2.2l-.1-.1"/><path fill="#564233" d="M261.1 268.7v8-8m-123-7.1v44.8h3v-42.5l-1.4-.5c-.8-.4-1.3-1-1.6-1.8M264 228.8v34a3 3 0 0 1-.9 2.2c-.5.5-1.2.9-2 1v40.4h3v-76.7l-.1-.9"/><path opacity=".9" fill="#FFF" d="M261.1 268.7v8-8m0 0h-69.9a11 11 0 0 1-9.6 0h-40.5v8h120v-8"/><path opacity=".2" fill="#2E3192" d="M261 225H141v1.7h120V225"/><path fill="#DDBD7B" d="M261 229.7H141.1v31.1l.9.2c.5 0 .9-.3 2.3-.9 4.3-1.9 5.1-7.7 9.9-9.1l1.5-.2c.6 0 1.1.1 1.6.3 3.5 1.4 1.7 5.6 4.1 7.5.7.5 1.5.7 2.3.7 2 0 4.2-1.1 5.5-2.1a6.8 6.8 0 0 1 4.1-1.4h.1c5 .1 4.9 5.9 7.7 9 1.2 1.4 3.1 2 5.1 2 2.6 0 5.3-1.2 6.4-3.4.8-1.7.8-3.7 1.3-5.4a9.4 9.4 0 0 1 8.7-5.9h.2c2.4 0 5 .8 7.3.8 1.1 0 2.2-.2 3.2-.7 3.2-1.6 4.6-6.4 8-6.4h.6c3.9.6 4 6.6 7.9 7.2h.6c1.5 0 2.9-.7 4.4-.7l.8.1c2.1.4 3.2 2.7 5.3 3.2l.8.1c3.3 0 5.5-4.7 9.1-4.7l.8.1c1 .2 1.9.8 2.5 1.6 2.3 2.9 1.2 6.8 4.4 9.4.6.5 1.4.8 2.4.8v-33.2"/><path fill="#503F42" d="M261 226.7H141.1h-.1v33.9l.1.2v-31.1H261v-3"/><path opacity=".2" fill="#2E3192" d="M261 222h-25.9a26.3 26.3 0 0 1-17.2 0h-22.5l-1.1.2h-42.2l-1.1-.2h-10.2c-1.7 0-2.8 1.7-2.8 3.4v35.2l.1 1v-31.9a3 3 0 0 1 2.9-3V225h120v1.7h.1c1.3 0 2.5.9 2.9 2.1v-3.4c0-1.7-1.4-3.4-3-3.4"/><path fill="#503F42" d="M195.5 222H151l1.1.2h42.2l1.2-.2M235.1 222H218a26.3 26.3 0 0 0 17.1 0"/><path fill="#DDBD7B" d="M261.1 229.7h-.1v33.1c-1 0-1.8-.3-2.4-.8-3.1-2.5-2-6.5-4.4-9.4a4.2 4.2 0 0 0-2.5-1.6l-.8-.1c-3.5 0-5.8 4.7-9.1 4.7l-.8-.1c-2.1-.5-3.2-2.8-5.3-3.2l-.8-.1c-1.4 0-2.9.7-4.4.7h-.6c-3.9-.6-4-6.7-7.9-7.2h-.6c-3.4 0-4.8 4.7-8 6.4-1 .5-2.1.7-3.2.7-2.3 0-4.9-.8-7.3-.8h-.2c-3.9.1-7.6 2.6-8.7 5.9-.6 1.8-.5 3.7-1.3 5.4-1.1 2.2-3.8 3.4-6.4 3.4-1.9 0-3.8-.6-5.1-2-2.8-3.1-2.7-8.9-7.7-9h-.1c-1.5 0-3 .5-4.1 1.4a10 10 0 0 1-5.5 2.1c-.8 0-1.7-.2-2.3-.7-2.4-1.9-.6-6.1-4.1-7.5-.5-.2-1.1-.3-1.6-.3l-1.5.2c-4.9 1.4-5.6 7.2-9.9 9.1-1.4.6-1.8.9-2.3.9a3 3 0 0 1-.9-.2v3.1l.9.1c1 0 1.8-.4 2.9-.8l.7-.3c2.8-1.2 4.4-3.4 5.8-5.4 1.4-1.9 2.3-3.2 3.8-3.6l.6-.1.5.1c.3.1.4.2.7 1.8.3 1.6.7 3.7 2.6 5.2 1.1.9 2.6 1.4 4.2 1.4 2.7 0 5.6-1.2 7.3-2.6.7-.5 1.5-.6 2.3-.6h.1c1.2 0 1.6.4 2.8 3.2.7 1.5 1.4 3.2 2.8 4.6.7.8 1.6 1.4 2.5 1.9h9.6a9 9 0 0 0 4.3-4.1c.7-1.4.9-2.7 1.1-3.9l.4-1.9c.7-2.1 3.3-3.8 5.9-3.9h.2c1 0 2.1.2 3.2.4 1.3.2 2.7.4 4.1.4a10 10 0 0 0 4.6-1c1.9-1 3.2-2.5 4.3-3.9.8-1 1.8-2.1 2.3-2.1h.1c.5.1 1.2 1.2 1.8 2.2 1.2 1.9 2.7 4.5 6 5l1.1.1a12 12 0 0 0 2.9-.4l1.5-.3h.2l1.3.9c1 .8 2.2 1.9 3.9 2.3l1.4.2c2.7 0 4.7-1.6 6.3-3 1-.8 2.1-1.7 2.8-1.7h.2l.8.5c.6.7.9 1.8 1.2 3.1.5 2.1 1.1 4.8 3.6 6.8a7 7 0 0 0 4.3 1.6h.1v-36.3"/><path fill="#503F42" d="M141 226.7a3 3 0 0 0-2.9 3v31.9c.2.8.8 1.5 1.6 1.8l1.4.5v-3.1l-.1-.2v-33.9m120.1 0h-.1v3h.1V266c.7 0 1.4-.5 2-1 .6-.6.9-1.4.9-2.2v-34a3 3 0 0 0-2.9-2.1"/><path fill="#DDDBE3" d="M191.3 268.7h-9.6c1.4.7 3 1.1 4.8 1.1a13 13 0 0 0 4.8-1.1"/><path fill="#E65376" d="M186.6 265.2c-2.5 0-4.7-.9-6.2-2.5-1.2-1.3-1.8-2.8-2.5-4.3-1.2-2.7-2-4.2-4.2-4.2h-.1c-1.1 0-2.3.4-3.2 1.1a11 11 0 0 1-6.4 2.4c-1.3 0-2.4-.4-3.2-1.1-1.5-1.2-1.8-2.9-2.1-4.3-.3-1.7-.5-2.5-1.7-3l-1.1-.2-1.1.2c-2.1.6-3.3 2.3-4.6 4.2-1.3 1.8-2.7 3.8-5.1 4.9-1.6.7-3 1-4.3 1-7.7 0-7.9-11-8-16.3V242c-.1-3.6.2-7.2.5-10.7l.3-3.3c.3-4 3.6-7.1 7.6-7.1h118.5c4.3 0 7.9 2.9 8.9 7l.1.5c.5 2.3 1.1 4.7 1 7.2v11.5c0 4-1.1 7.8-3.3 11a9.9 9.9 0 0 1-2.7 2.7 5.5 5.5 0 0 1-5.8-.5c-2.1-1.7-2.6-3.9-3.1-5.9a7.6 7.6 0 0 0-1.5-3.7c-.5-.6-1-.9-1.7-1.1l-.5-.1c-1.3 0-2.5 1-3.7 2.1-1.5 1.2-3.2 2.6-5.3 2.6l-1.1-.1c-1.4-.3-2.4-1.2-3.3-1.9a5.7 5.7 0 0 0-2-1.3h-.5l-1.8.3c-.8.2-1.6.4-2.5.4l-.9-.1c-2.6-.4-3.9-2.6-5-4.3-1-1.7-1.7-2.7-2.9-2.9h-.4c-1.2 0-2.1 1-3.5 2.7-1 1.3-2.2 2.7-3.8 3.5a8 8 0 0 1-3.9.9c-1.3 0-2.6-.2-3.8-.4-1.2-.2-2.4-.4-3.5-.4h-.2c-3.2.1-6.4 2.2-7.3 4.9l-.5 2.1c-.2 1.2-.4 2.3-1 3.5-1.1 2.4-4.2 4.1-7.6 4.1z"/><path fill="#564233" d="M259.5 222.4c3.5 0 6.6 2.4 7.4 5.9.6 2.4 1.2 4.9 1.1 7.3v11.5c0 3.6-1 7.1-3.1 10.1-.6.9-1.3 1.7-2.2 2.2a3 3 0 0 1-1.6.4c-.9 0-1.8-.3-2.5-.8-3.1-2.5-2-6.5-4.4-9.4a4.2 4.2 0 0 0-2.5-1.6l-.8-.1c-3.5 0-5.8 4.7-9.1 4.7l-.8-.1c-2.1-.5-3.2-2.8-5.3-3.2l-.8-.1c-1.4 0-2.9.7-4.4.7h-.6c-3.9-.6-4-6.7-7.9-7.2h-.6c-3.4 0-4.8 4.7-8 6.4-1 .5-2.1.7-3.2.7-2.3 0-4.9-.8-7.3-.8h-.2c-3.9.1-7.6 2.6-8.7 5.9-.6 1.8-.5 3.7-1.3 5.4-1.1 2.2-3.8 3.4-6.4 3.4-1.9 0-3.8-.6-5.1-2-2.8-3.1-2.7-8.9-7.7-9h-.1c-1.5 0-3 .5-4.1 1.4a10 10 0 0 1-5.5 2.1c-.8 0-1.7-.2-2.3-.7-2.4-1.9-.6-6.1-4.1-7.5-.5-.2-1.1-.3-1.6-.3l-1.5.2c-4.9 1.4-5.6 7.2-10 9.1-1.4.6-2.6.9-3.7.9-6.8 0-6.4-11.6-6.6-16-.1-4.6.4-9.2.7-13.9a6.1 6.1 0 0 1 6.1-5.7h118.7m0-2.9H141a9.2 9.2 0 0 0-9.1 8.5l-.3 3.3c-.3 3.5-.6 7.2-.5 10.9v1.1c.1 5.3.3 17.8 9.5 17.8 1.5 0 3.2-.4 4.9-1.2 2.8-1.2 4.4-3.4 5.8-5.4 1.4-1.9 2.3-3.2 3.8-3.6l.6-.1.5.1c.3.1.4.2.7 1.8.3 1.6.7 3.7 2.6 5.2 1.1.9 2.6 1.4 4.2 1.4 2.7 0 5.6-1.4 7.3-2.7a4 4 0 0 1 2.3-.8h.1c1.2 0 1.6.5 2.8 3.3.7 1.5 1.4 3.3 2.8 4.7 1.7 1.9 4.4 3 7.3 3 4 0 7.6-2 9.1-5.1.7-1.4.9-2.7 1.1-3.9l.4-1.9c.7-2.1 3.3-3.8 5.9-3.9h.2c1 0 2.1.2 3.2.4 1.3.2 2.7.4 4.1.4a10 10 0 0 0 4.6-1c1.9-1 3.2-2.5 4.3-3.9.8-1 1.8-2.1 2.3-2.1h.1c.5.1 1.2 1.2 1.8 2.2 1.2 1.9 2.7 4.5 6 5l1.1.1a12 12 0 0 0 2.9-.4l1.5-.3h.2l1.3.9c1 .8 2.2 1.9 3.9 2.3l1.4.2c2.7 0 4.7-1.6 6.3-3 1-.8 2.1-1.7 2.8-1.7h.2l.8.5c.6.7.9 1.8 1.2 3.1.5 2.1 1.1 4.7 3.6 6.7 1.2.9 2.8 1.5 4.4 1.5 1.1 0 2.2-.3 3.1-.8 1.2-.7 2.2-1.7 3.2-3.1 2.4-3.4 3.6-7.5 3.6-11.8v-11.5c.1-2.6-.5-5.1-1.1-7.5l-.1-.5c-1-4.9-5.2-8.2-10.2-8.2z"/><path opacity=".5" fill="#FFF" d="M137.7 233.1c0 2-.3 5.4-.3 8.9 0 2.9.2 5.9 1 8.4l.5 1.1c.3.6.8 1.2 1.3 1.8l1 .8c.4.2.9.4 1.4.4h.3c.8-.1 1.4-.8 1.3-1.7-.1-.8-.8-1.4-1.7-1.3l.1.6v-.6h-.1l.1.6v-.6.5l.1-.5h-.1v.5l.1-.5v.2l.1-.2v.2l.1-.2-.3-.2c-.3-.2-.6-.6-.8-1l-.3-.5-.1-.2v-.1c-.6-2-.8-4.8-.8-7.5 0-3.4.3-6.7.3-8.9 0-.8-.7-1.5-1.5-1.5-1 0-1.7.7-1.7 1.5zM179.7 252.7c.6 1.1 1.3 2.6 2.2 3.9l1.3 1.8c.5.6 1 1 1.7 1.4.7.4 1.6.1 2-.6.4-.7.1-1.6-.6-2l-.8-.7-1.6-2.4-1.5-2.8c-.4-.7-1.3-1-2-.6-.8.4-1.1 1.3-.7 2z"/><path fill="#FED876" d="M138.2 352.5h-34.7c-1 .4-2 .6-3.1.6h-.3v7.4h42.5a17.6 17.6 0 0 1-4.4-8m150.1 0h-10.6a15.6 15.6 0 0 1-10 3.7l-2.3-.2a15 15 0 0 1-7.4-3.5h-90.8c-.3 2.6-.9 5.5-3.2 8h138.1v-2.6c-1 .3-2.1.4-3.2.4l-2-.2c-3.5-.5-6.7-2.7-8.6-5.6m-188.1.6v39.3h202v-31.9H164.1a15.1 15.1 0 0 1-9.5 4.6h-1.1c-4.4 0-8.1-1.9-10.8-4.6h-42.5v-7.4m185-12.6l-.5.5c-.9 1.1-1.6 2.6-2.3 4.2-.8 1.8-1.6 3.7-3 5.4l-1.7 1.8h10.6a13 13 0 0 1-1.9-4.7c-.2-1.1-.2-2.2-.2-3.2 0-1.3 0-2.5-.4-3.4-.1-.3-.4-.5-.6-.6m-149.8-2.1l-.5.1c-.8.3-1.2 1.5-1.9 3.4-.8 2.5-2 6-5.6 7.3a8.3 8.3 0 0 1-8.4-2.1 12.7 12.7 0 0 1-3.4-7.8c-1.9 0-4.9.3-5.6 1.9-.2.5-.3 1.2-.4 2.1l-.4 2.8c-.8 2.9-3 5.2-5.7 6.3h34.7l-.4-2.6c-.1-1.4 0-2.7.1-4 .2-2.5.3-4.5-.8-6.3a2 2 0 0 0-1.7-1.1m48.7-.9c-.7 0-1.4.2-1.8.6-.5.4-1.1 1.1-1.6 1.8-1.3 1.6-3.2 3.9-6.3 4.1h-.4l-2-.2-.8-.1h-.1c-1.4 0-2.7 1.9-3 3.8l-.4 3.2-.2 2h90.8c-2.8-2.5-4.6-6-4.6-9.7 0-.6-.2-2.2-1.4-3.1-.6-.5-1-.5-1.1-.5-1.2 0-3 1.7-4.4 4.1-1.4 2.4-5 6.5-9.6 6.5-1.9 0-3.7-.7-5.2-2.1a9 9 0 0 1-2.6-4.7c-.7-2.4-3.4-4.4-6.3-4.4h-.6c-1.7.2-3.5.9-5.4 1.7-2.5 1-5 2.1-7.8 2.1-2.3 0-4.5-.8-6.4-2.2-.6-.5-1.3-.8-1.8-.9h-.4l-.4.7c-.5.9-1.1 2-2.3 2.9-.9.6-2 1-3.2 1-1.9 0-3.9-.9-5.4-2.4-.7-.6-1.2-1.3-1.7-1.9-.5-.7-1-1.3-1.5-1.7-.8-.4-1.5-.6-2.1-.6"/><path fill="#564233" d="M302.2 357.9v2.6-2.6m-205-6.9v41.3h3V353h-.4a3 3 0 0 1-2.6-2m205-44.6h-202a3 3 0 0 0-3 3v1c.4-1.3 1.5-2.4 2.9-2.4h202c1.7 0 3 1.8 3 3.4v43.4c0 1.3-.9 2.5-2.1 2.9l-.7.2v34.5h3v-83c-.1-1.7-1.5-3-3.1-3"/><path opacity=".9" fill="#FFF" d="M138.2 352.5h-34.7c-1 .4-2 .6-3.1.6h-.3v7.4h42.5a17.6 17.6 0 0 1-4.4-8m164 5.4v2.6-2.6m-13.9-5.4h-10.6a15.6 15.6 0 0 1-10 3.7l-2.3-.2a15 15 0 0 1-7.4-3.5h-90.8c-.3 2.6-.9 5.5-3.2 8h138.1v-2.6c-1 .3-2.1.4-3.2.4l-2-.2c-3.5-.5-6.7-2.7-8.6-5.6"/><path fill="#DDBD7B" d="M302 311H100.2v23.5h3.2v.9h-3.2V350h.3c2.8 0 5.2-2.1 5.9-4.6.5-1.8.2-3.7.9-5.3 1.4-3 5.1-3.7 8.7-3.7l2.5.1c.2 3 .4 6.2 2.7 8.5 1 1 2.4 1.6 3.8 1.6l1.5-.3c4.6-1.7 3-9.2 7.6-10.7.5-.2 1-.2 1.4-.2 1.7 0 3.4 1 4.3 2.5 2.3 3.7.9 7.8 1.1 11.8.1 1 .2 1.9.5 2.8h23c.2-1.9.2-3.9.6-5.8.6-3 2.8-6.2 6-6.2h.3c.9 0 1.8.4 2.7.4h.2c2.9-.2 4.1-3.6 6.3-5.3 1-.8 2.3-1.2 3.6-1.2 1.3 0 2.6.4 3.6 1.1 1.4 1.1 2.3 2.7 3.5 3.9.9.8 2.1 1.5 3.3 1.5.5 0 1.1-.1 1.5-.5 1.7-1.2 1.4-4.1 4.5-4.1h.7c1.2.2 2.4.7 3.3 1.5a7 7 0 0 0 4.5 1.6c4.2 0 8.4-3.3 12.9-3.7h.8c4.1 0 8.2 2.7 9.2 6.6.3 1.2.8 2.4 1.8 3.2 1 .9 2.1 1.3 3.2 1.3 2.9 0 5.7-2.9 7-5 1.5-2.6 4.1-5.6 7-5.6a5 5 0 0 1 2.9 1 6.6 6.6 0 0 1 2.6 5.5c0 4.3 3.2 8.2 7.3 9.7h8.1c2-.7 3.9-2 5.2-3.6 2.3-2.9 2.9-6.8 5.3-9.6.7-.9 1.6-1.7 2.8-1.7l1.1.2a4 4 0 0 1 2.3 2.1c1.2 2.4.5 5 .8 7.5a9 9 0 0 0 2.8 5.2h9.8V311"/><path fill="#503F42" d="M100.2 335.4h-.2V350h.2v-14.6m0-24.4h-.2v23.5h.2V311M103.4 334.5H100v.9h3.4v-.9"/><path fill="#DDBD7B" d="M159.3 360.5h-11.8c1.7 1 3.7 1.6 5.9 1.6h.9a14 14 0 0 0 5-1.6"/><path fill="#DDDBE3" d="M164.3 352.5h-23a13 13 0 0 0 6.2 8h11.8l.2-.1a10 10 0 0 0 4.8-7.9m107.6 0h-8.1a10.9 10.9 0 0 0 4 .7c1.3 0 2.7-.2 4.1-.7m30.1 0h-9.8a9.7 9.7 0 0 0 5.3 2.7l1.5.1c1 0 2-.2 3-.5v-2.3"/><path opacity=".2" fill="#2E3192" d="M97.2 310.4l-.2 1V350l.2 1v-40.6"/><path fill="#DDBD7B" d="M135.4 335.4l-1.4.2c-4.6 1.6-3 9.1-7.6 10.7a4 4 0 0 1-1.5.3c-1.4 0-2.8-.6-3.8-1.6-2.3-2.3-2.5-5.5-2.7-8.5l-2.5-.1c-3.6 0-7.3.7-8.7 3.7-.8 1.7-.5 3.6-.9 5.3a6.3 6.3 0 0 1-5.9 4.6h-.3v3-.6h3.4c2.7-1 4.9-3.4 5.7-6.3.3-1 .3-1.9.4-2.8.1-.9.1-1.6.4-2.1.7-1.6 3.7-1.9 5.6-1.9.3 2.6 1 5.5 3.4 7.8a8.3 8.3 0 0 0 8.4 2.1c3.7-1.3 4.8-4.8 5.6-7.3.6-1.9 1.1-3.1 1.9-3.4l.5-.1a2 2 0 0 1 1.7 1c1.1 1.8 1 3.8.8 6.3a20.2 20.2 0 0 0 .3 6.6h3.1c-.3-.9-.4-1.9-.5-2.8-.2-4 1.2-8-1.1-11.8a5.5 5.5 0 0 0-4.3-2.3m166.8-26h-202v1.6H302v41.5h.2v-43.1"/><path fill="#503F42" d="M302 308H100c-1.3 0-2.4 1.1-2.9 2.4V351a3 3 0 0 0 2.6 2h.4v-3h-.2v-14.6h-2.6v-.9h2.6V311h.2v-1.6h202v48.5l.7-.2a3 3 0 0 0 2.1-2.9v-43.4c.1-1.6-1.2-3.4-2.9-3.4"/><path fill="#503F42" d="M100 334.5h-2.6v.9h2.6v-.9"/><path fill="#DDBD7B" d="M164.1 360.5h-4.8c-1.5.9-3.2 1.4-4.9 1.6h-.9c-2.2 0-4.2-.6-5.9-1.6h-4.8c2.7 2.7 6.4 4.6 10.8 4.6h1.1c2.2-.2 4.4-.9 6.4-2.1a19 19 0 0 0 3-2.5"/><path fill="#DDDBE3" d="M103.5 352.5h-3.4v.6h.3c1.1 0 2.2-.2 3.1-.6m63.8 0h-3c-.4 2.9-1.2 5.7-4.9 7.9l-.2.1h4.8a13 13 0 0 0 3.3-8m110.4 0h-5.8c-1.3.5-2.7.7-4.1.7l-1.8-.1a9 9 0 0 1-2.2-.6h-5.7a14.2 14.2 0 0 0 9.7 3.7c3.6 0 7.2-1.4 9.9-3.7"/><path fill="#DDBD7B" d="M285.1 337.5c-1.2 0-2.1.8-2.8 1.7-2.3 2.9-3 6.7-5.3 9.6a10.7 10.7 0 0 1-5.2 3.6h5.8c.6-.5 1.2-1.1 1.7-1.8 1.4-1.7 2.2-3.6 3-5.4.7-1.6 1.3-3 2.3-4.2l.5-.5h.1c.2.1.5.3.6.6.4.9.4 2 .4 3.4 0 1 0 2.1.2 3.2.3 1.7.9 3.3 1.9 4.7h3.9a9 9 0 0 1-2.8-5.2c-.4-2.5.3-5.1-.8-7.5-.5-1-1.3-1.7-2.3-2.1l-1.2-.1m-101-3c-1.3 0-2.6.4-3.6 1.2-2.3 1.7-3.5 5.1-6.3 5.3h-.2c-.9 0-1.8-.3-2.7-.4h-.3c-3.1 0-5.4 3.2-6 6.2-.4 1.9-.4 3.9-.6 5.8h3l.2-2 .4-3.2c.4-1.8 1.7-3.8 3-3.8h.1l.8.1 2 .2h.4c3.2-.2 5-2.4 6.3-4.1.6-.7 1.1-1.4 1.6-1.8.5-.4 1.1-.6 1.8-.6s1.3.2 1.8.5c.5.4 1 1 1.5 1.7.5.6 1 1.3 1.7 1.9a7.9 7.9 0 0 0 5.4 2.4 5 5 0 0 0 3.2-1c1.3-.9 1.9-2 2.3-2.9l.4-.7h.4c.6.1 1.2.4 1.8.9 1.9 1.5 4.1 2.2 6.4 2.2 2.8 0 5.3-1 7.8-2.1 1.9-.8 3.7-1.5 5.4-1.7h.6c2.9 0 5.7 1.9 6.3 4.4.5 2 1.4 3.5 2.6 4.7a7.5 7.5 0 0 0 5.2 2.1c4.5 0 8.1-4.1 9.6-6.5 1.4-2.4 3.2-4.1 4.4-4.1.1 0 .5 0 1.1.5 1.2.9 1.4 2.4 1.4 3.1 0 3.7 1.8 7.2 4.6 9.7h5.7c-4.1-1.5-7.3-5.4-7.3-9.7 0-2.1-.8-4.2-2.6-5.5-1-.7-2-1-2.9-1-2.9 0-5.5 3-7 5.6-1.2 2.1-4 5-7 5-1.1 0-2.1-.4-3.2-1.3-.9-.9-1.4-2-1.8-3.2a9.6 9.6 0 0 0-9.2-6.6h-.8c-4.5.4-8.7 3.7-12.9 3.7a7 7 0 0 1-4.5-1.6c-1-.7-2.1-1.3-3.3-1.5h-.7c-3.1 0-2.8 2.9-4.5 4.1a3 3 0 0 1-1.5.5 5 5 0 0 1-3.3-1.5c-1.3-1.2-2.1-2.9-3.5-3.9-1-.7-2.3-1.1-3.5-1.1"/><path fill="#DDDBE3" d="M302.2 352.5h-.2v2.4c-1 .3-2 .5-3 .5l-1.5-.1c-2-.3-3.9-1.3-5.3-2.7h-3.9c1.9 2.9 5.1 5.1 8.7 5.7l2 .2c1.1 0 2.1-.1 3.2-.4v-5.6M141.3 352.5h-3.1c.7 2.9 2.2 5.8 4.4 8h4.8a14.4 14.4 0 0 1-6.1-8"/><path fill="#E65376" d="M153.6 360.6c-8.2 0-13.7-7.2-14.1-13.8-.1-1.3 0-2.6.1-3.8.2-2.6.3-5-1-7.2a3.5 3.5 0 0 0-3-1.7l-1 .2c-1.5.5-2 2-2.8 4.4-.8 2.5-1.7 5.3-4.7 6.3-.7.2-1.3.4-2 .4-1.8 0-3.5-.8-4.8-2.1a9.5 9.5 0 0 1-2.4-4 5.3 5.3 0 0 0-4.9-3.8c-.5 0-1.1.1-1.6.3a4.5 4.5 0 0 0-2.6 2.2c-.3.7-.4 1.6-.5 2.6-.1.8-.1 1.7-.4 2.5-.9 3.3-4 5.7-7.3 5.7a8 8 0 0 1-3.3-.8c-1-.5-1.8-1.1-2.4-2a10 10 0 0 1-1.4-6.5v-1.3c0-3.7-.6-6.2-1.1-8.4-.4-1.9-.8-3.7-.8-5.8 0-2.8.8-5.5 1.6-8.1l.8-2.7a8 8 0 0 1 7.8-6h196.9c4.2 0 7.7 3.2 8.1 7.4l1.6 17.1c.1 1.2.3 2.4.8 3.7 2 5.1 2.1 9.4.2 12.9-1.9 3.5-6 5.8-10.1 5.8l-1.8-.1c-4.7-.8-8.6-4.6-9.3-9.1-.2-1-.1-2-.1-3 0-1.5 0-2.8-.6-4-.3-.6-.8-1.1-1.5-1.3l-.6-.1c-.5 0-1 .3-1.7 1.1-1 1.3-1.7 2.9-2.5 4.5-.8 1.7-1.5 3.5-2.8 5.1a13.3 13.3 0 0 1-10.5 4.9l-2.1-.2c-6-1-10.7-6.1-10.8-11.7 0-1.8-.7-3.4-2-4.3-.7-.5-1.4-.8-2-.8-1.8 0-3.9 1.8-5.7 4.9-1.2 2-4.4 5.8-8.3 5.8-1.5 0-2.9-.6-4.2-1.7-1-.9-1.7-2.2-2.2-3.9-.8-3.1-4.2-5.5-7.8-5.5h-.7c-1.9.2-3.8 1-5.8 1.8-2.3 1-4.7 1.9-7.2 1.9-2 0-3.8-.6-5.4-1.9a5.1 5.1 0 0 0-2.6-1.2h-.5c-1 0-1.2.4-1.8 1.5-.4.8-.9 1.7-1.8 2.3a4 4 0 0 1-2.4.7c-1.5 0-3.1-.7-4.4-1.9a12 12 0 0 1-1.5-1.8c-.6-.8-1.1-1.5-1.8-2a4.8 4.8 0 0 0-5.4.1c-.7.5-1.3 1.2-1.9 2-1.3 1.6-2.8 3.4-5.3 3.5h-.3l-1.7-.2-1-.2h-.2c-2.3 0-4 2.6-4.5 5l-.4 3.4c-.3 3.8-.6 8.1-5.8 11.3a13.7 13.7 0 0 1-5.8 1.9c-.4-.3-.7-.3-1-.3z"/><path fill="#564233" d="M298.7 308.4c3.4 0 6.3 2.6 6.6 6l1.6 17.1c.1 1.4.4 2.8.9 4.1 1.5 3.8 2.2 8.1.3 11.7a10 10 0 0 1-8.8 5l-1.5-.1c-4.1-.7-7.5-4-8.1-7.9-.4-2.5.3-5.1-.8-7.5-.5-1-1.3-1.7-2.3-2.1l-1.1-.2c-1.2 0-2.1.8-2.8 1.7-2.3 2.9-3 6.7-5.3 9.6a12 12 0 0 1-9.3 4.4l-1.8-.1c-5.1-.8-9.4-5.2-9.5-10.3 0-2.1-.8-4.2-2.6-5.5-1-.7-2-1-2.9-1-2.9 0-5.5 3-7 5.6-1.2 2.1-4 5-7 5-1.1 0-2.1-.4-3.2-1.3-.9-.9-1.4-2-1.8-3.2a9.6 9.6 0 0 0-9.2-6.6h-.8c-4.5.4-8.7 3.7-12.9 3.7a7 7 0 0 1-4.5-1.6c-1-.7-2.1-1.3-3.3-1.5h-.7c-3.1 0-2.8 2.9-4.5 4.1a3 3 0 0 1-1.5.5 5 5 0 0 1-3.3-1.5c-1.3-1.2-2.1-2.9-3.5-3.9-1-.8-2.3-1.1-3.6-1.1-1.3 0-2.6.4-3.6 1.2-2.3 1.7-3.5 5.1-6.3 5.3h-.2c-.9 0-1.8-.3-2.7-.4h-.3c-3.1 0-5.4 3.2-6 6.2-1 4.8.5 10.1-5.5 13.7-1.5.9-3.3 1.5-5.1 1.7h-.9c-7.1 0-12.2-6.1-12.6-12.4-.2-4 1.2-8-1.1-11.8a5.2 5.2 0 0 0-4.3-2.5l-1.4.2c-4.6 1.6-3 9.1-7.6 10.7a4 4 0 0 1-1.5.3c-1.4 0-2.8-.6-3.8-1.6s-1.6-2.2-2-3.4a6.8 6.8 0 0 0-6.3-4.9c-.7 0-1.4.1-2.1.4-1.5.6-2.8 1.5-3.4 2.9-.8 1.7-.5 3.6-.9 5.3-.7 2.5-3 4.6-5.9 4.6-.8 0-1.7-.2-2.6-.6-.7-.3-1.4-.9-1.8-1.5-1.5-2.2-1.1-4.6-1.1-6.9 0-6.9-1.9-9.8-1.9-14.3 0-3.5 1.4-7 2.3-10.4a6.5 6.5 0 0 1 6.4-4.9h196.4m0-3H101.8a9.5 9.5 0 0 0-9.3 7.2l-.7 2.7c-.8 2.7-1.6 5.5-1.6 8.5 0 2.3.4 4.2.9 6.2.5 2.3 1 4.6 1 8.1v1.2c-.1 2.2-.2 4.8 1.7 7.4.7 1 1.8 1.9 3 2.5 1.3.6 2.6.9 3.9.9 4 0 7.7-2.9 8.8-6.9.3-1 .3-1.9.4-2.8.1-.9.1-1.6.4-2.1.2-.4.5-.9 1.7-1.4l1.1-.2c1.5 0 3 1.1 3.5 2.8.6 1.8 1.5 3.4 2.7 4.6a8.3 8.3 0 0 0 8.4 2.1c3.7-1.3 4.8-4.8 5.6-7.3.6-1.9 1.1-3.1 1.9-3.4l.5-.1a2 2 0 0 1 1.7 1c1.1 1.8 1 3.8.8 6.3-.1 1.3-.2 2.6-.1 4 .4 7.3 6.5 15.2 15.6 15.2h1.1c2.2-.2 4.4-.9 6.4-2.1 5.9-3.5 6.2-8.5 6.5-12.4l.4-3.2c.4-1.8 1.7-3.8 3-3.8h.1l.8.1 2 .2h.4c3.2-.2 5-2.4 6.3-4.1.6-.7 1.1-1.4 1.6-1.8.5-.4 1.1-.6 1.8-.6s1.3.2 1.8.5c.5.4 1 1 1.5 1.7.5.6 1 1.3 1.7 1.9a7.9 7.9 0 0 0 5.4 2.4 5 5 0 0 0 3.2-1c1.2-.9 1.9-2 2.3-2.9l.4-.7h.4c.6.1 1.2.4 1.8.9 1.9 1.5 4.1 2.2 6.4 2.2 2.8 0 5.3-1 7.8-2.1 1.9-.8 3.7-1.5 5.4-1.7h.6c2.9 0 5.7 1.9 6.3 4.4.5 2 1.4 3.5 2.6 4.7a7.5 7.5 0 0 0 5.2 2.1c4.5 0 8.1-4.1 9.6-6.5 1.4-2.4 3.2-4.1 4.4-4.1.1 0 .5 0 1.1.5 1.2.9 1.4 2.4 1.4 3.1.1 6.3 5.4 12.1 12 13.2l2.3.2c4.5 0 9-2.1 11.7-5.5 1.4-1.7 2.2-3.6 3-5.4.7-1.6 1.3-3 2.3-4.2l.5-.5h.1c.2.1.5.3.6.6.4.9.4 2 .4 3.4a12.9 12.9 0 0 0 10.8 13.6l2 .2c4.7 0 9.3-2.6 11.5-6.6 2.1-3.9 2.1-8.7-.1-14.2a9.2 9.2 0 0 1-.7-3.1v-.1l-1.6-17.1a9.5 9.5 0 0 0-9.5-8.7z"/><path opacity=".5" fill="#FFF" d="M144.8 339l-.1 4.4c0 2.3.2 5.1 1.2 7.4a7 7 0 0 0 6.4 4.7c.8.1 1.5-.6 1.6-1.4.1-.8-.6-1.5-1.4-1.6a4.8 4.8 0 0 1-2.4-.8 4 4 0 0 1-1.1-1.4c-.5-.8-.8-2-1-3.2-.2-1.2-.2-2.5-.2-3.7l.1-4.4c0-.8-.7-1.5-1.5-1.5-1 0-1.6.7-1.6 1.5z"/><path fill="#FED876" d="M150.8 444.6H68.2v8h92.3a15.1 15.1 0 0 1-9.7-8m183.4 0H178.4a15.5 15.5 0 0 1-9.5 8h165.2v-8M90.4 424.9l-2.1.1c-1 .1-1.7.3-1.9.5-.4.3-.6 1.3-.8 2.2l-.4 1.6a13.8 13.8 0 0 1-16.9 8.8v43.3h266v-28.8H168.9l-1.3.3a16 16 0 0 1-7.2-.3H68.2v-8h82.6c-1.3-2.5-1.9-5.2-2.5-7.9l-1-3.8c-1-3.4-3.5-7-6.7-7h-.2l-1.8.3c-.8.2-1.7.4-2.7.4h-2.4l-.8.1c-.9.2-1.4 1.4-2.2 3.7a15 15 0 0 1-3.3 6.2 9.5 9.5 0 0 1-6.9 2.6c-2.4 0-4.9-.7-7.1-2-2.3-1.3-4.1-3.1-5.8-4.7l-2.9-2.6c-3.9-3.2-9-5-14.1-5m151.1-3.2l-.8.9c-.6.7-1.4 1.6-2.3 2.3-1.4 1-2.9 1.3-4.2 1.6-.9.2-1.8.4-2.2.8-.3.3-.5 1.3-.7 2.2a11.3 11.3 0 0 1-11.2 9.8h-.9c-5.1-.4-9.5-4.5-10.1-9.5l-.1-2.7c0-1 0-1.9-.2-2.4-.5-1.2-2.3-1.4-3.3-1.4-1.3 0-2.9.3-4.1.9l-2.4 1.1c-2.8 1.3-5.9 2.9-9.3 2.9l-2.2-.2-2-.5c-.7-.2-1.3-.4-1.8-.4h-.1c-1.7 0-3.2 2.3-3.5 4.4-.2 1.3-.2 2.6-.2 4.1 0 2.1 0 4.3-.6 6.6-.2.9-.6 1.8-1 2.6H334v-5.4l-1.6.1-2.1-.1c-6-.6-10-2.9-11.7-6.7-.4-1-.6-2-.8-2.9l-.5-1.8c-.5-1-1.9-1.6-4-1.6l-2.6.2a10.1 10.1 0 0 1-6.5 10.2c-1.2.4-2.4.6-3.6.6a12.2 12.2 0 0 1-11.6-8.5c-.7-1.7-1.2-2.7-1.9-3-.4-.2-1-.2-1.5-.2h-2.1c-2.7 0-5.4-.7-7.7-2l-.4 2.2c-.3 1.9-.6 3.9-1.4 5.8a17.2 17.2 0 0 1-18.9 10.2 16.9 16.9 0 0 1-13.6-16.5c.2-2 .1-3.1 0-3.7"/><path fill="#564233" d="M334.2 444.6v8-8m0-52.2h-266a3 3 0 0 0-3 3v1.1c.5-1.3 1.8-2.5 3.1-2.5H334c1.7 0 3 1.8 3 3.4v38.8c0 1.5-1.2 2.8-2.7 3h-.1v42.2h-266v-43.3l-.3-.1-.7-.2h-.1a3 3 0 0 1-1.9-1.9v45.5a3 3 0 0 0 3 3h266a3 3 0 0 0 3-3v-86a3 3 0 0 0-3-3"/><path opacity=".9" fill="#FFF" d="M150.8 444.6H68.2v8h92.3a15.1 15.1 0 0 1-9.7-8m183.4 0v8-8m0 0H178.4a15.5 15.5 0 0 1-9.5 8h165.2v-8"/><path fill="#DDBD7B" d="M334 397H68.2v38l.6.1c1 .3 2.1.5 3.2.5 4.5 0 9-2.9 10.3-7.1.6-1.8.7-3.9 2.1-5.2 1-.8 2.3-1.1 3.6-1.2l2.4-.1c5.8 0 11.6 2 16 5.6 2.9 2.3 5.2 5.2 8.4 7.1 1.6 1 3.6 1.6 5.5 1.6 1.8 0 3.5-.5 4.8-1.8 3.1-3.1 2.5-9.5 6.9-10.7l1.5-.2h2.2c1.5-.1 3-.7 4.6-.8h.4c4.7 0 8.2 4.7 9.5 9.2 1.3 4.2 1.6 8.9 4 12.6H175c.7-1 1.2-2.2 1.5-3.3.9-3.4.2-6.9.7-10.3.5-3.4 2.9-7 6.4-7h.2c1.5 0 2.8.7 4.3 1l1.6.2c3.6 0 7.1-2.3 10.5-3.7 1.6-.7 3.5-1.1 5.3-1.1 2.6 0 5.1.9 6 3.2.8 1.8.3 3.9.5 5.9a8.3 8.3 0 0 0 7.4 6.8H220c3.5 0 6.8-2.4 7.9-5.6.6-1.9.5-4.2 1.9-5.6 1.7-1.7 4.8-1.4 6.8-2.8 1.8-1.3 2.8-4.2 5.1-4.2h.1c3 0 3 4.5 2.9 7.3a14 14 0 0 0 11.1 13.6c.8.2 1.6.2 2.4.2 5.6 0 11.2-3.5 13.1-8.6 1.5-3.8 1.1-8.1 3.1-11.7 2.4 2.4 5.8 3.8 9.2 3.8h2.1c1 0 1.9.1 2.7.5 2.6 1.2 3.1 4.4 4.5 6.8a9.1 9.1 0 0 0 7.8 4.4c.9 0 1.8-.1 2.6-.5 3.8-1.4 5.9-6.3 3.7-9.6 2-.6 4.3-1 6.4-1 2.8 0 5.4.8 6.7 3.2.8 1.5.7 3.3 1.4 4.9 1.4 3.3 5.6 4.5 9.2 4.9l1.7.1 1.4-.1V397"/><path fill="#503F42" d="M68.2 397H68v37.9l.2.1v-38"/><path fill="#DDDBE3" d="M175 444.6h-20.8l.6.9c2.3 2.9 6.1 4.7 9.9 4.7l2.3-.2c3.3-.7 6.2-2.7 8-5.4"/><path opacity=".2" fill="#2E3192" d="M65.2 396.5a3 3 0 0 0-.2 1V435l.2.9v-39.4"/><path fill="#DDBD7B" d="M90.4 421.9l-2.4.1c-1.3.1-2.6.4-3.6 1.2-1.5 1.3-1.6 3.4-2.1 5.2-1.3 4.2-5.8 7.1-10.3 7.1-1 0-2.2-.2-3.2-.5l-.6-.1v3.1a13.8 13.8 0 0 0 16.9-8.8l.4-1.6a6 6 0 0 1 .8-2.2c.3-.2.9-.4 1.9-.5l2.1-.1c5.1 0 10.3 1.8 14.1 4.9l2.9 2.6c1.8 1.7 3.6 3.4 5.8 4.7 2.2 1.3 4.7 2 7.1 2 2.8 0 5.1-.9 6.9-2.6a15 15 0 0 0 3.3-6.2c.8-2.4 1.3-3.5 2.2-3.7l.8-.1h2.4l2.7-.4 1.8-.3h.2c3.1 0 5.6 3.6 6.7 7l1 3.8c.6 2.6 1.2 5.3 2.5 7.9h3.4c-2.4-3.7-2.7-8.3-4-12.6-1.3-4.5-4.8-9.2-9.5-9.2h-.4c-1.5.1-3 .7-4.6.8h-2.2c-.5 0-1 0-1.5.2-4.3 1.1-3.7 7.6-6.9 10.7a7 7 0 0 1-4.8 1.8c-1.9 0-3.9-.6-5.5-1.6-3.2-1.9-5.5-4.8-8.4-7.1a26 26 0 0 0-15.9-5.5m243.8-26.5h-266v1.6H334v39.2l-1.4.1-1.7-.1c-3.7-.4-7.8-1.6-9.2-4.9-.7-1.6-.6-3.3-1.4-4.9-1.2-2.4-3.8-3.2-6.7-3.2-2.1 0-4.4.4-6.4 1 2.2 3.3.1 8.3-3.7 9.6-.8.3-1.7.5-2.6.5a9.5 9.5 0 0 1-7.8-4.4c-1.4-2.4-1.9-5.6-4.5-6.8-.9-.4-1.8-.5-2.7-.5h-2.1c-3.4 0-6.8-1.5-9.2-3.8-2 3.6-1.6 7.9-3.1 11.7a14.3 14.3 0 0 1-15.5 8.4 14 14 0 0 1-11.1-13.6c.1-2.9.1-7.3-2.9-7.3h-.1c-2.2 0-3.2 2.9-5.1 4.2-2 1.4-5.1 1.1-6.8 2.8-1.4 1.4-1.4 3.7-1.9 5.6a8.5 8.5 0 0 1-7.9 5.6H219.6a8.3 8.3 0 0 1-7.4-6.8c-.3-2 .3-4.1-.5-5.9-1-2.3-3.4-3.2-6-3.2-1.8 0-3.7.4-5.3 1.1-3.4 1.5-6.9 3.7-10.5 3.7-.5 0-1.1 0-1.6-.2-1.5-.3-2.8-1-4.3-1h-.2c-3.5 0-5.9 3.6-6.4 7s.2 7-.7 10.3a9.9 9.9 0 0 1-1.5 3.3h3.4l1-2.6c.6-2.3.6-4.5.6-6.6 0-1.4 0-2.8.2-4.1.3-2.1 1.8-4.4 3.5-4.4h.1c.5 0 1.1.2 1.8.4l2 .5 2.2.2c3.4 0 6.6-1.5 9.3-2.9l2.4-1.1c1.3-.6 2.8-.9 4.1-.9 1 0 2.8.2 3.3 1.4.2.6.2 1.4.2 2.4l.1 2.7c.6 5 5 9 10.1 9.5h.9a11.3 11.3 0 0 0 11.2-9.8 7 7 0 0 1 .7-2.2c.3-.3 1.3-.5 2.2-.8 1.3-.3 2.8-.7 4.2-1.6a10 10 0 0 0 2.3-2.3l.8-.9c.1.6.2 1.7.2 3.8a16.9 16.9 0 0 0 32.5 6.3c.8-2 1.1-3.9 1.4-5.8l.4-2.2c2.3 1.3 5 2 7.7 2h2.1c.5 0 1.1 0 1.5.2.7.3 1.2 1.4 1.9 3l1.2 2.6c2.1 3.6 6.2 5.9 10.4 5.9a9.9 9.9 0 0 0 9.6-6.9c.4-1.3.6-2.6.5-3.9l2.6-.2c2.1 0 3.5.5 4 1.6l.5 1.8c.2.9.4 1.9.8 2.9 1.6 3.8 5.7 6.1 11.7 6.7l2.1.1 1.6-.1v-43.8"/><path fill="#503F42" d="M334 394H68.3c-1.3 0-2.6 1.1-3.1 2.5v39.4c.3.8 1 1.5 1.9 1.9h.1l.7.2.3.1V435l-.2-.1V397h.2v-1.6h266v43.8h.1a3 3 0 0 0 2.7-3v-38.8c0-1.6-1.3-3.4-3-3.4"/><path fill="#DDBD7B" d="M168.9 452.6h-8.4a15.4 15.4 0 0 0 8.4 0"/><path fill="#DDDBE3" d="M178.4 444.6H175a13 13 0 0 1-7.9 5.4l-2.3.2c-3.8 0-7.6-1.7-9.9-4.7l-.6-.9h-3.4c.5.9 1 1.9 1.7 2.7 2 2.5 4.8 4.4 8 5.3h8.4a16 16 0 0 0 9.4-8"/><path fill="#E65376" d="M164.9 448.6c-4.3 0-8.5-2-11.1-5.3-2.3-3-3.1-6.6-3.9-10l-1-3.9c-1.2-4-4.2-8.1-8.1-8.1h-.3l-2.1.3c-.8.2-1.6.4-2.5.4h-2.3l-1.2.1c-1.7.4-2.3 2.1-3.2 4.7-.7 1.9-1.4 4-3 5.6a8.3 8.3 0 0 1-5.8 2.2 12 12 0 0 1-6.3-1.8 35.6 35.6 0 0 1-5.6-4.5l-3-2.7a24.4 24.4 0 0 0-15.1-5.2l-2.3.1c-.9.1-2.1.3-2.8.8-.7.6-1 1.7-1.3 3l-.4 1.5a12.3 12.3 0 0 1-15.3 7.6c-8.6-2.9-7.9-10.8-7.3-17.2l.3-4.6v-12.4c0-3.6 2.9-6.4 6.4-6.4h264.9a7.3 7.3 0 0 1 7.3 7.4l-.3 8.7c-.5 3.8-.1 7.4.5 11.1l.2 1.2.7 4.6c.2 1.6.3 3.2-.3 4.8-1.1 2.6-4 4.1-8.2 4.1l-1.9-.1c-5.4-.6-9.1-2.6-10.5-5.8-.4-.9-.6-1.7-.7-2.6-.2-.8-.3-1.6-.6-2.2-.8-1.6-2.6-2.4-5.3-2.4l-1.7.1c-1.3.1-2.3 1.3-2.3 2.8a8.6 8.6 0 0 1-8.7 8.2c-3.6 0-7.3-2.1-9.1-5.2l-1.2-2.4c-.7-1.7-1.4-3.2-2.7-3.8-.6-.3-1.4-.3-2.1-.3h-2.1c-1.9 0-3.8-.4-5.6-1.2-.4-.2-.8-.2-1.2-.2-1.4 0-2.5.9-2.8 2.3l-.1.5c-.3 1.8-.6 3.7-1.3 5.5a15.8 15.8 0 0 1-14.5 9.6l-2.7-.2c-7-1.3-12.5-8-12.3-14.9 0-1.3.1-4.4-.8-5.3l-.6-.3c-.7 0-1.3.6-2.2 1.7-.6.7-1.2 1.5-2.1 2-1.2.8-2.5 1.1-3.7 1.4-1.2.3-2.3.5-2.9 1.1-.7.7-.9 1.7-1.1 2.9l-.5 2a9.9 9.9 0 0 1-9.3 6.6h-.7a9.7 9.7 0 0 1-8.7-8.2l-.1-2.4c0-1.1 0-2.2-.3-3.1-.8-2-3.3-2.3-4.7-2.3-1.5 0-3.3.4-4.7 1l-2.5 1.2c-2.7 1.3-5.6 2.7-8.7 2.7a12.3 12.3 0 0 1-3.7-.7c-.8-.2-1.5-.5-2.2-.5h-.1c-2.6 0-4.5 2.9-5 5.7-.2 1.4-.2 2.8-.2 4.3 0 2 0 4.1-.5 6.2a13.8 13.8 0 0 1-10.6 9.8c-.6.4-1.4.4-2.3.4z"/><path fill="#564233" d="M332.9 394.4c3.2 0 5.9 2.7 5.8 5.9l-.3 8.5c-.6 4-.1 7.7.5 11.6l.9 5.7c.2 1.3.3 2.8-.2 4-1 2.4-4 3.2-6.8 3.2l-1.7-.1c-3.7-.4-7.8-1.6-9.2-4.9-.7-1.6-.6-3.3-1.4-4.9-1.2-2.4-3.8-3.2-6.7-3.2l-1.8.1c-2.1.2-3.6 2.1-3.7 4.2a7.3 7.3 0 0 1-7.2 6.9 9.5 9.5 0 0 1-7.8-4.4c-1.4-2.4-1.9-5.6-4.5-6.8-.9-.4-1.8-.5-2.7-.5H284c-1.7 0-3.4-.4-5-1-.6-.2-1.2-.4-1.7-.4-2 0-3.9 1.4-4.2 3.5-.3 1.9-.6 3.9-1.3 5.7a14.3 14.3 0 0 1-15.5 8.4 13.8 13.8 0 0 1-11.1-13.4c.1-2.9.1-7.1-2.9-7.1h-.1c-2.2 0-3.2 2.7-5.1 4-2 1.4-5.1 1-6.8 2.7-1.4 1.4-1.4 3.6-1.9 5.5a8.5 8.5 0 0 1-7.9 5.6h-.6a8.3 8.3 0 0 1-7.4-6.9c-.3-2 .3-4.1-.5-5.9-1-2.3-3.4-3.2-6-3.2-1.8 0-3.7.4-5.3 1.1-3.4 1.5-6.9 3.7-10.5 3.7-.5 0-1.1 0-1.6-.2-1.5-.3-2.8-1-4.3-1h-.2c-3.5 0-5.9 3.6-6.4 7s.2 7-.7 10.3a12.3 12.3 0 0 1-9.4 8.7l-2.3.2c-3.8 0-7.6-1.7-9.9-4.7-3-3.8-3.3-8.9-4.6-13.5-1.3-4.5-4.8-9.2-9.5-9.2h-.4c-1.5.1-3 .7-4.6.8h-2.2c-.5 0-1 0-1.5.2-4.3 1.1-3.7 7.6-6.9 10.7a7 7 0 0 1-4.8 1.8c-1.9 0-3.9-.6-5.5-1.6-3.2-1.9-5.5-4.8-8.4-7.1a25.5 25.5 0 0 0-16-5.6l-2.4.1c-1.3.1-2.6.4-3.6 1.2-1.5 1.3-1.6 3.4-2.1 5.2-1.3 4.2-5.8 7.1-10.3 7.1-1 0-2.1-.2-3.1-.5-9.5-3.1-6-13.3-6-20.4v-12.4a5 5 0 0 1 4.9-4.9h264.5m0-2.8H68a8 8 0 0 0-7.9 7.9v12.4l-.3 4.4c-.6 6.2-1.5 15.5 8.3 18.8a13.9 13.9 0 0 0 17.2-8.7l.4-1.6c.2-.9.4-1.9.8-2.2.3-.2.9-.4 1.9-.5l2.1-.1c5.1 0 10.3 1.8 14.1 4.9l2.9 2.6c1.8 1.7 3.6 3.4 5.8 4.7 2.2 1.3 4.7 2 7.1 2 2.8 0 5.1-.9 6.9-2.6a15 15 0 0 0 3.3-6.2c.8-2.4 1.3-3.5 2.2-3.7l.8-.1h2.4l2.7-.4 1.8-.3h.2c3.1 0 5.6 3.6 6.7 7l1 3.8c.8 3.6 1.7 7.4 4.2 10.6a15.8 15.8 0 0 0 15.2 5.5 15.2 15.2 0 0 0 11.7-10.9c.6-2.3.6-4.5.6-6.6 0-1.4 0-2.8.2-4.1.3-2.1 1.8-4.4 3.5-4.4h.1c.5 0 1.1.2 1.8.4l2 .5 2.2.2c3.4 0 6.6-1.5 9.3-2.9l2.4-1.1c1.3-.6 2.8-.9 4.1-.9 1 0 2.8.2 3.3 1.4.2.6.2 1.4.2 2.4l.1 2.7c.6 5 5 9 10.1 9.5h.9a11.3 11.3 0 0 0 11.2-9.8 7 7 0 0 1 .7-2.2c.3-.3 1.3-.5 2.2-.8 1.3-.3 2.8-.7 4.2-1.6a10 10 0 0 0 2.3-2.3l.8-.9c.1.6.2 1.7.2 3.8a16.9 16.9 0 0 0 32.5 6.3c.8-2 1.1-3.9 1.4-5.8l.1-.5c.1-.7.7-1 1.3-1l.6.1c1.9.8 4.1 1.2 6.1 1.3h2.1c.5 0 1.1 0 1.5.2.7.3 1.2 1.4 1.9 3l1.2 2.6c2.1 3.6 6.2 5.9 10.4 5.9 1.3 0 2.5-.2 3.6-.6 3.7-1.4 6.4-5.1 6.5-9.1 0-.6.4-1.3 1-1.3l1.5-.1c2.1 0 3.5.5 4 1.6l.5 1.8c.2.9.4 1.9.8 2.9 1.6 3.8 5.7 6.1 11.7 6.7l2.1.1c4.8 0 8.2-1.8 9.6-5 .9-2.1.6-4.2.5-5.6l-.7-4.6-.2-1.2a35 35 0 0 1-.5-10.7l.3-8.9c0-2.4-.8-4.6-2.5-6.3a9.5 9.5 0 0 0-6.3-2.4z"/><path opacity=".5" fill="#FFF" d="M153.5 427a26.8 26.8 0 0 0 3.1 11.5 12 12 0 0 0 2.3 3.1 6 6 0 0 0 3.4 1.6c.8.1 1.5-.5 1.6-1.4.1-.8-.5-1.5-1.4-1.6-.4 0-.7-.1-1.1-.4a5.8 5.8 0 0 1-2-2.3c-1-1.6-1.7-3.8-2.2-5.8l-.6-2.8-.2-2c0-.8-.7-1.5-1.5-1.5-.7.1-1.4.8-1.4 1.6zM65.7 412.4l-.6 3.8c-.2 1.4-.4 2.8-.4 4.3 0 1.9.3 3.8 1.4 5.5a8 8 0 0 0 2.2 2.3c.9.7 2 1.2 3.3 1.6.8.3 1.6-.2 1.9-1 .3-.8-.2-1.6-1-1.9-1-.3-1.8-.7-2.4-1.2a5.6 5.6 0 0 1-1.8-2.3c-.4-.9-.5-1.9-.5-3.1 0-1.2.2-2.5.4-3.8l.6-3.9c.1-.8-.5-1.6-1.3-1.7-1 0-1.7.6-1.8 1.4zM249.5 424c0 .9.3 1.6.6 2.4a16 16 0 0 0 3.4 4.5c.4.4.8.7 1.3.9.7.4 1.6.1 2-.6.4-.7.1-1.6-.6-2l-1-.8a11.8 11.8 0 0 1-2.5-3.6l-.2-.7c0-.8-.7-1.5-1.5-1.5-.8-.1-1.5.6-1.5 1.4z"/></svg>