<svg xmlns="http://www.w3.org/2000/svg" viewBox="0 0 600 600"><path d="M139.4 524.3l10.1-10.1-10.2-10.2 10.2-10.2-77.6-77.6-45.5 45.5 10.2 10.2-10 10.1 10.2 10.2-10.2 10.2 77.7 77.7 45.5-45.5-10.4-10.3zm-23.3-7.2l-3.3-1.7a23.5 23.5 0 0 0-19.1.7l-1.7.8-43.3-43.3c.3-.5.6-1 .8-1.7 2.9-6 3.2-12.9.7-19.1-.5-1.1-1-2.3-1.7-3.3l11.2-11.2L63 440a23.5 23.5 0 0 0 19.1-.7l1.7-.8 43.4 43.4c-.3.5-.6 1-.8 1.7-2.9 6-3.2 12.9-.7 19.1.5 1.1 1 2.3 1.7 3.3l-11.2 11.2-.1-.1zm-5.4 5.4l-6.7 6.7-6.7-6.7 1.9-.6a16.7 16.7 0 0 1 11.5.6zm22-22a14 14 0 0 1-1.1-3.8c-.5-2.6-.3-5.3.5-7.7l.6-1.9 6.7 6.7-6.7 6.7zm-54.1-67.4c-.6.2-1.1.5-1.9.6a16.9 16.9 0 0 1-11.5-.6l6.7-6.7 6.7 6.7zM43.3 455a14 14 0 0 1 1.1 3.8c.5 2.6.3 5.3-.5 7.7l-.6 1.9-6.7-6.7 6.7-6.7zm-1.6 22l62.4 62.4 30.2-30.2 5.1 5.1-35.3 35.3L36.7 482l5-5zm62.4 92.9l-67.4-67.4 5.2-5.2 62.4 62.4 30.1-30.1 5.1 5.1-35.4 35.2z" opacity=".1"/><path d="M99.2 466.6a15.7 15.7 0 0 0-22.3 0 15.7 15.7 0 0 0 0 22.3 15.7 15.7 0 0 0 22.3 0c6.1-6 6.1-16.1 0-22.3zm-17.3 17.2a8.7 8.7 0 0 1 0-12.2c3.3-3.3 8.8-3.4 12.2 0s3.4 8.8 0 12.2-8.8 3.4-12.2 0zM71.3 456.1l-6.9-6.9a3.7 3.7 0 0 0-5.2 0 3.7 3.7 0 0 0 0 5.2l6.9 6.9a3.7 3.7 0 0 0 5.2 0 3.6 3.6 0 0 0 0-5.2zM116.6 501.3l-6.9-6.9a3.7 3.7 0 0 0-5.2 0 3.7 3.7 0 0 0 0 5.2l6.9 6.9a3.7 3.7 0 0 0 5.2 0 3.7 3.7 0 0 0 0-5.2z" opacity=".1"/><path fill-opacity=".1" d="M523.6 86.2a4.2 4.2 0 0 0-5.3-.5l-7.5 5.2c-2.2-.3-4.4-.3-6.6-.2.5 3.5.3 7-.4 10.3 6.4-.8 12.9 1.4 17.6 6.1 8.2 8.2 8.4 21.2.5 29a20.4 20.4 0 0 1-29-.5 21.7 21.7 0 0 1-5.8-10.6l-4 2.3c-1.7.8-3.5 1.5-5.4 2 1.5 4.9 4.2 9.5 8 13.4a31.3 31.3 0 0 0 35.6 6.4 29.6 29.6 0 0 0 16.2-31.5l5.2-7.4c1.2-1.7 1-3.9-.5-5.4l-18.6-18.6zm5.7 13c.8.8.8 2.1 0 3l-1.4 1.4c-.8.8-2.1.8-3 0-.8-.8-.8-2.1 0-3l1.4-1.4c.9-.8 2.2-.8 3 0z"/><path fill-opacity=".1" d="M483.8 61.1a4.2 4.2 0 0 0-5.3-.5l-7.5 5.2a29.7 29.7 0 0 0-31.5 16.3 31.1 31.1 0 0 0 6.5 35.6 31.3 31.3 0 0 0 35.6 6.4 29.6 29.6 0 0 0 16.2-31.5l5.2-7.4c1.2-1.7 1-3.9-.5-5.4l-18.7-18.7zm5.8 12.9c.8.8.8 2.1 0 3l-1.4 1.4c-.8.8-2.1.8-3 0s-.8-2.1 0-3l1.4-1.4c.9-.8 2.2-.8 3 0zm-8 8c8.2 8.2 8.4 21.2.5 29a20.4 20.4 0 0 1-29-.5 20.4 20.4 0 0 1-.5-29 20.5 20.5 0 0 1 29 .5zM537.4 53.9a7.4 7.4 0 0 0-10.3 0l-.4.5c-2.2-.7-4.5-1.1-6.9-1.2a7.4 7.4 0 0 0-11.9-2.3 7.2 7.2 0 0 0-2 6 20 20 0 0 0-5 4.1 6.2 6.2 0 0 0-8.1.6l-2.2 2.2 3 3 2.2-2.2a2 2 0 0 1 2-.5 2 2 0 0 1 1.4 1.5 2 2 0 0 1-.6 2l-2.2 2.2 3 3 2.1-2.1a6.2 6.2 0 0 0 1.7-6 26 26 0 0 1 4.3-3.8l.4.5a7.4 7.4 0 0 0 10.3 0 7.4 7.4 0 0 0 2-3.8c1.6.1 3.2.4 4.8.9a7 7 0 0 0 2.1 5.9 7.5 7.5 0 0 0 8.4 1.4c.8 1 1.4 2 2 3.2l-.8.6a7.4 7.4 0 0 0 0 10.3c.8.8 1.8 1.4 2.9 1.7l-.7 3.2c-2.1-.5-4.3.2-5.8 1.7l-2.2 2.2 3 3 2.2-2.2a2 2 0 0 1 2-.5 2 2 0 0 1 1.4 1.5 2 2 0 0 1-.6 2l-2.2 2.2 3 3 2.1-2.1a6.3 6.3 0 0 0 .6-8.3c.7-1.8 1.1-3.6 1.4-5.5 1.2-.3 2.3-.9 3.2-1.8a7.4 7.4 0 0 0 0-10.3 7.2 7.2 0 0 0-5.5-2.1c-.8-1.6-1.8-3.2-2.9-4.6 1.5-3.1 1.2-6.7-1.2-9.1zm-3 3a3.1 3.1 0 0 1 0 4.4 3.1 3.1 0 0 1-4.4 0 3.1 3.1 0 0 1 0-4.4 3 3 0 0 1 4.4 0zm9.6 15.5a3.1 3.1 0 0 1 0 4.4 3.1 3.1 0 0 1-4.4 0 3.1 3.1 0 0 1 0-4.4 3 3 0 0 1 4.4 0zm-28.8-18.5a3.1 3.1 0 0 1 0 4.4c-1.2 1.2-3.2 1.2-4.4 0s-1.2-3.2 0-4.4a3.1 3.1 0 0 1 4.4 0zM323.2 539.2l-1.7-6.8c-.2-.6-.5-1.1-1.1-1.4-.6-.3-1.2-.4-1.8-.3l-2.6.6-4.1-16.3 12.8-3.2c1.3-.3 2-1.6 1.7-2.8-.3-1.3-1.6-2-2.8-1.7l-8.5 2.1-4.1-16.7 23.6-8 .2-.1.5-.3.3-.2.2-.1 11.5-14.4.1-.2.1-.2.1-.2.1-.3v-.1-.3-.2-.2-.2l-.1-.2-.1-.2-.1-.2-.1-.2-.1-.1-.2-.2-.1-.1-.3-.2-.1-.1-.2-.1-.2-.1-17.9-4.4h-.3-.1l-.9.1h-.1l-21.6 7.3-5.5-22.2a3 3 0 0 0-.4-.8l-.1-.1-.2-.3-13.4-12.7-.2-.1-.2-.2-.1-.1-.3-.1h-.1l-.3-.1H283.5l-.2.1-.2.1-.2.1-.2.1-.2.2-.1.1-.2.2-.1.2-.1.2-.1.2-5.9 17.5v.2l-.1.4v.7l6 24.2-16.3 5.5-2.8-8.3a2.4 2.4 0 0 0-3-1.5 2.4 2.4 0 0 0-1.5 3l3.6 10.5.7 2-15.9 5.4-.9-2.5a2 2 0 0 0-1.2-1.3c-.6-.3-1.2-.3-1.8-.1l-6.6 2.3a2.4 2.4 0 0 0-1.5 3l6.8 19.9c.2.6.6 1 1.1 1.3.6.3 1.2.4 1.9.2l6.6-2.3a2 2 0 0 0 1.3-1.2c.3-.6.3-1.2.1-1.8l-.9-2.5 15.9-5.4 4.2 12.5c.2.6.6 1 1.1 1.3.6.3 1.2.4 1.9.2a2.4 2.4 0 0 0 1.5-3l-2.8-8.3 14.3-4.9 3.7 14.7-8.5 2.1c-1.3.3-2 1.6-1.7 2.8.2.7.6 1.2 1.2 1.5a2 2 0 0 0 1.7.2l12.8-3.2 4.1 16.3-2.6.6c-1.3.3-2 1.6-1.7 2.8l1.7 6.8c.2.6.5 1.1 1.1 1.4h.1a2 2 0 0 0 1.7.2l20.4-5.1c1.1-.1 1.9-1.4 1.5-2.7zm-12.5-28.6l-2 .5-3 .8-3.9-15.9 5-1.7 3.9 16.3zm-30.2-58.4l4.5-13.4 10.2 9.7 5.5 21.9-14.4 4.9-5.8-23.1zm-35.3 58.7l-5.2-15.5 2.2-.7.9 2.5 3.5 10.4.9 2.5-2.3.8zm5-7.1l-2-5.9 15.9-5.4 2 5.9-15.9 5.4zm20-7.6l35.9-12.2a2.4 2.4 0 0 0 1.5-3 2.4 2.4 0 0 0-3-1.5l-35.9 12.2-1-3-.7-2 60.6-20.6 13.7 3.4-8.8 11-60.6 20.5-1.7-4.8zm22 3l5-1.7 3.9 15.5-5.1 1.3-3.8-15.1zm9.2 18.5l6.1-1.5 4.1 16.3-6.1 1.5-4.1-16.3zm.9 24.3l-.6-2.3 2.6-.6 10.6-2.6 2.6-.6.6 2.3-15.8 3.8zM534.8 263.7a43.4 43.4 0 0 0-61.3 0l-20.9 20.9a43.4 43.4 0 0 0 61.3 61.3l20.9-20.9a43.6 43.6 0 0 0 0-61.3zm-14.3 65.1a9.5 9.5 0 0 1-11.7 1.1l-15.6-9.9c-6.1-3.9-11.2-9-15-15l-9.9-15.6a9.7 9.7 0 0 1 1.1-11.7l.1-.1c2.2-2.2 5.2-3.4 8.2-3.3 2.9 0 6 1.1 8.2 3.3l34.7 34.7c2.2 2.2 3.4 5.2 3.3 8.2-.2 2.9-1.1 6-3.4 8.3zM479 294.1c1.5 3.5 5.7 5.1 9.3 3.5l-5.7-12.6a6.8 6.8 0 0 0-3.6 9.1zm21.7 16.2a7.3 7.3 0 0 0 3.5 9.3 7.3 7.3 0 0 0 9.3-3.5l-12.8-5.8zM529.4 475.3a16.6 16.6 0 1 0-21.2-21.2 53.1 53.1 0 0 0-59.2 2.6l-8.4-8.4-20 20 7.2 7.2-10 18.3 72 72 18.3-10 7.2 7.2 20-20-8.4-8.4a53.3 53.3 0 0 0 2.5-59.3zm-14.2 71.4l-78.4-78.4 3.8-3.8 78.4 78.4-3.8 3.8zm5-90.7c2-2 5.3-2 7.3 0s2 5.3 0 7.3-5.3 2-7.3 0c-2-2.1-2-5.3 0-7.3zm-8.1 15.3a43 43 0 0 1 6.5 55l-61.5-61.5c16-11.3 39.5-9 55 6.5zm-20.4 80.3l-59.8-59.8 4.2-7.9 63.5 63.5-7.9 4.2zM259 126.2l2.9 2.7-3.9 3.9c-7.4 7.4 6.6 25.4 16 34.8 9.4 9.4 27.4 23.4 34.8 16l18.8-18.8c7.4-7.4-6.6-25.4-16-34.8l-2.9-2.7 32.1-32.1c7.4-7.4-6.6-25.4-16-34.8S297.4 37 290 44.4l-47 47c-7.4 7.5 6.6 25.4 16 34.8zm53.8 42.2c-2.2.3-11.6-3.7-23.7-15.8-12.1-12.2-16.1-21.6-15.8-23.7l2.9-2.9c3.2 7.9 10.8 17 16.7 22.9s15 13.5 22.9 16.7l-3 2.8zM326 98.8c-2.2.3-11.6-3.7-23.7-15.8-12.1-12.1-16.1-21.5-15.8-23.7l2.9-2.9c3.2 7.9 10.8 17 16.7 22.9s15 13.5 22.9 16.7l-3 2.8zm-29.3-10.2c5.8 5.8 15 13.5 22.9 16.7l-2.9 2.9c-2.2.3-11.6-3.7-23.7-15.8-12.1-12.1-16.1-21.5-15.8-23.7l2.9-2.9c3.1 7.8 10.7 17 16.6 22.8zm-9.4 9.4c5.8 5.8 15 13.5 22.9 16.7l-2.9 2.9c-2.2.3-11.6-3.7-23.7-15.8s-16.1-21.5-15.8-23.7l2.9-2.9c3.1 7.9 10.7 17 16.6 22.8zm-9.5 9.4c1.4 1.4 3 3 4.8 4.4-2.3 0-4.1.6-5.6 2.1l-2.9-2.7C261.9 99 258 89.6 258.3 87.5l2.9-2.9a80 80 0 0 0 16.6 22.8zm-28.9-10.5l2.9-2.9c3.2 7.9 10.8 17 16.7 22.9l2.9 2.7-3.8 3.8-2.9-2.7c-12.2-12.2-16.1-21.7-15.8-23.8zm30.8 65.1c-12.1-12.1-16.1-21.5-15.8-23.7l2.9-2.9c3.2 7.9 10.8 17 16.7 22.9s15 13.5 22.9 16.7l-2.9 2.9c-2.2.2-11.6-3.8-23.8-15.9zm42.2-3c-2.8-.2-11.9-4.3-23.3-15.8s-15.6-20.5-15.8-23.3c2.8.2 11.9 4.3 23.3 15.8s15.6 20.4 15.8 23.3zm-2.7-93c11.5 11.5 15.6 20.5 15.8 23.3-2.8-.2-11.9-4.3-23.3-15.8S296.1 53 295.9 50.2c2.8.2 11.9 4.3 23.3 15.8zM130.7 134c0-1.9-.8-3.7-2.2-5l-17.1-15.3 19.1-1.2c2.7-.2 5-1.7 6.3-4 .9-1.4 1.3-3.2.9-5l-8.9-33.8a6.5 6.5 0 0 0-6-4.9l-19.7-1.1a6.6 6.6 0 0 0-6.9 6.2 6.6 6.6 0 0 0 6.2 6.9l14.9.9L120 88l-24.6 1.6c-5.6-4-12.1-6.1-18.6-6.3v12a21.7 21.7 0 0 1 0 43.2v12a33.7 33.7 0 0 0 30.9-22.7l6.6 5.9L93.8 151a6.6 6.6 0 0 0-.8 9.3l.4.4a6.6 6.6 0 0 0 8.9.4l26-22.1a6.7 6.7 0 0 0 2.4-5zM142 105.4a11 11 0 1 0 15.6-15.6 11 11 0 0 0-15.6 15.6zM60.3 132.2a21.7 21.7 0 0 1 0-30.6c3.2-3.2 7.1-5.2 11.2-5.9V83.5a33.7 33.7 0 0 0 0 66.8v-12.2c-4.1-.7-8.1-2.7-11.2-5.9zM331.8 316.4a41 41 0 0 0-5.8-52 41 41 0 0 0-52-5.8l-9.8-9.8-20.4 20.4 6.9 6.9a12.5 12.5 0 1 1 17.7 17.7l28.3 28.3a12.5 12.5 0 1 1 17.7 17.7l6.9 6.9 20.4-20.4-9.9-9.9zm-31.5-31.7l-21.1-21.1a33.9 33.9 0 0 1 39 3.1l-17.9 18zm5.4 5.5l17.9-17.9a33.9 33.9 0 0 1 3.1 39l-21-21.1zM276.4 324.6l8.5-8.5-10.5-10.5-8.6 8.5-12.6-12.6-24.9 4.3 27.6 27.6 1.2 1.2 27.6 27.6 4.3-24.9z"/><path d="M123.4 368.2l23.7-63.5c.4-1.1.2-2.2-.7-3l-62.8-62.8c-.8-.8-2-1.1-3-.7l-63.5 23.7c-1 .3-1.5 1.1-1.8 2.1-.2.9.1 1.8.8 2.5l102.6 102.6c.7.7 1.6 1 2.5.8 1.1-.2 2-.8 2.2-1.7zM23.3 265.7l57.8-21.4 60.2 60.2-21.4 57.8-96.6-96.6z" opacity=".1"/><path opacity=".1" d="M70 268a3.1 3.1 0 0 0 0-4.4l-1.3-1.3a3.1 3.1 0 0 0-4.4 0 3.1 3.1 0 0 0 0 4.4l1.3 1.3a3.1 3.1 0 0 0 4.4 0zM67.5 281.8l-.4-.9c-1-2.3-1.2-4.7-.9-7.2l.1-1a2 2 0 0 0-1.6-2.3 2 2 0 0 0-2.3 1.6c0 .2-.2 1.1-.1 1.2-.3 3.2 0 6.3 1.1 9.1.1.1.4 1.3.9 1.7.5.5 1.4.8 2.3.3.9-.3 1.3-1.4.9-2.5zM80.2 292.8a22.4 22.4 0 0 1-6.5-3.5l-1.6-1.4c-.8-.8-2.1-.8-2.7.1-.8.8-.7 2 .1 2.7a26.1 26.1 0 0 0 9.8 5.8c1 .3 2.2-.2 2.4-1.3.1-1-.4-2.2-1.5-2.4zM100 292.6c-.2-1.1-1.3-1.7-2.3-1.6l-1.1.2-3 .7c-1.6.3-3.3.9-5 1.1 0 0-.9.2-1 .1a2 2 0 0 0-1.7 2.2c0 .4.2.9.5 1.2.4.4 1.1.7 1.6.5.2 0 1.1-.2 1.2-.1 1.8-.3 3.6-.8 5.3-1.2 1-.3 2-.4 2.9-.8l1.1-.2c.9 0 1.7-1 1.5-2.1zM116.4 297.3l-.9-.9-2.8-2.4a17.4 17.4 0 0 0-6-2.9c-1.1-.2-2.1.3-2.4 1.3-.2.7.1 1.4.5 1.8.2.2.5.3.9.4l.9.2c1.3.4 2.5 1.2 3.7 2l2.5 2.1.8.8c.8.8 2.1.8 2.8 0 .8-.4.8-1.7 0-2.4zM118 314.1l-.2.7c-.3.8-.1 1.6.4 2.2.1.1.3.3.5.3a2 2 0 0 0 2.6-.9l.4-1.1c.5-1.6 1.2-5.1 0-9.4l-.3-1.2c-.3-1-1.5-1.5-2.5-1.2-1 .3-1.5 1.5-1.2 2.5l.3 1c1 3.3.5 5.8 0 7.1zM116.2 325.1l3.4-.3c1.1 0 2-1.1 1.7-2.2 0-1.1-1.1-2-2.2-1.7l-3.2.3-.1-2.9c0-1.1-1-1.8-2.1-1.8s-1.8 1-1.8 2.1l.1 3.2-3.4.3c-1.1 0-2 1.1-1.7 2.2 0 .4.2.9.5 1.2.4.4 1 .5 1.6.5l3.2-.3.1 3.4c0 .4.3 1 .7 1.3.4.4.9.7 1.5.7 1.1 0 1.8-1 1.8-2.1l-.1-3.9z"/><path fill-opacity=".1" d="M241.6 182.5c-2.8-.8-4.9-3-5.7-5.7-.1-.3-.6-.3-.7 0-.8 2.8-3 4.9-5.7 5.7-.3.1-.3.6 0 .7 2.8.8 4.9 3 5.7 5.7.1.3.6.3.7 0 .8-2.8 3-4.9 5.7-5.7.3-.1.3-.6 0-.7zM33.3 32.1c-2.8-.8-4.9-3-5.7-5.7-.1-.3-.6-.3-.7 0-.8 2.8-3 4.9-5.7 5.7-.3.1-.3.6 0 .7 2.8.8 4.9 3 5.7 5.7.1.3.6.3.7 0 .8-2.8 3-4.9 5.7-5.7.4-.1.4-.6 0-.7zM175.6 25.8c-2.8-.8-4.9-3-5.7-5.7-.1-.3-.6-.3-.7 0-.8 2.8-3 4.9-5.7 5.7-.3.1-.3.6 0 .7 2.8.8 4.9 3 5.7 5.7.1.3.6.3.7 0 .8-2.8 3-4.9 5.7-5.7.3-.1.3-.6 0-.7zM241.6 358.2c-2.8-.8-4.9-3-5.7-5.7-.1-.3-.6-.3-.7 0-.8 2.8-3 4.9-5.7 5.7-.3.1-.3.6 0 .7 2.8.8 4.9 3 5.7 5.7.1.3.6.3.7 0 .8-2.8 3-4.9 5.7-5.7.3-.2.3-.6 0-.7zM565.5 580.8c-2.8-.8-4.9-3-5.7-5.7-.1-.3-.6-.3-.7 0-.8 2.8-3 4.9-5.7 5.7-.3.1-.3.6 0 .7 2.8.8 4.9 3 5.7 5.7.1.3.6.3.7 0 .8-2.8 3-4.9 5.7-5.7.4-.1.4-.6 0-.7zM439.7 336.7c-4-1.2-7.2-4.4-8.4-8.4-.1-.5-.9-.5-1 0-1.2 4-4.4 7.2-8.4 8.4-.5.1-.5.9 0 1 4 1.2 7.2 4.4 8.4 8.4.1.5.9.5 1 0 1.2-4 4.4-7.2 8.4-8.4.5-.1.5-.8 0-1zM194.9 454c-4-1.2-7.2-4.4-8.4-8.4-.1-.5-.9-.5-1 0-1.2 4-4.4 7.2-8.4 8.4-.5.1-.5.9 0 1 4 1.2 7.2 4.4 8.4 8.4.1.5.9.5 1 0 1.2-4 4.4-7.2 8.4-8.4.5-.2.5-.9 0-1zM35.3 574.5c-4-1.2-7.2-4.4-8.4-8.4-.1-.5-.9-.5-1 0-1.2 4-4.4 7.2-8.4 8.4-.5.1-.5.9 0 1 4 1.2 7.2 4.4 8.4 8.4.1.5.9.5 1 0 1.2-4 4.4-7.2 8.4-8.4.5-.1.5-.9 0-1zM430.4 48.3c-4-1.2-7.2-4.4-8.4-8.4-.1-.5-.9-.5-1 0-1.2 4-4.4 7.2-8.4 8.4-.5.1-.5.9 0 1 4 1.2 7.2 4.4 8.4 8.4.1.5.9.5 1 0 1.2-4 4.4-7.2 8.4-8.4.5-.1.5-.8 0-1zM373.4 277.1a15.1 15.1 0 0 1-10.2-10.2c-.2-.6-1.1-.6-1.2 0a15.1 15.1 0 0 1-10.2 10.2c-.6.2-.6 1.1 0 1.2 4.9 1.4 8.7 5.3 10.2 10.2.2.6 1.1.6 1.2 0 1.4-4.9 5.3-8.7 10.2-10.2.6-.2.6-1 0-1.2zM543 199.9a15.1 15.1 0 0 1-10.2-10.2c-.2-.6-1.1-.6-1.2 0a15.1 15.1 0 0 1-10.2 10.2c-.6.2-.6 1.1 0 1.2 4.9 1.4 8.7 5.3 10.2 10.2.2.6 1.1.6 1.2 0 1.4-4.9 5.3-8.7 10.2-10.2.6-.2.6-1 0-1.2zM379.7 569.3a15.1 15.1 0 0 1-10.2-10.2c-.2-.6-1.1-.6-1.2 0a15.1 15.1 0 0 1-10.2 10.2c-.6.2-.6 1.1 0 1.2 4.9 1.4 8.7 5.3 10.2 10.2.2.6 1.1.6 1.2 0 1.4-4.9 5.3-8.7 10.2-10.2.6-.1.6-1 0-1.2zM513.8 417.5a15.1 15.1 0 0 1-10.2-10.2c-.2-.6-1.1-.6-1.2 0a15.1 15.1 0 0 1-10.2 10.2c-.6.2-.6 1.1 0 1.2 4.9 1.4 8.7 5.3 10.2 10.2.2.6 1.1.6 1.2 0 1.4-4.9 5.3-8.7 10.2-10.2.6-.1.6-1 0-1.2zM160 215.3a15.1 15.1 0 0 1-10.2-10.2c-.2-.6-1.1-.6-1.2 0a15.1 15.1 0 0 1-10.2 10.2c-.6.2-.6 1.1 0 1.2 4.9 1.4 8.7 5.3 10.2 10.2.2.6 1.1.6 1.2 0 1.4-4.9 5.3-8.7 10.2-10.2.6-.1.6-1 0-1.2zM244 41.7a15.1 15.1 0 0 1-10.2-10.2c-.2-.6-1.1-.6-1.2 0a15.1 15.1 0 0 1-10.2 10.2c-.6.2-.6 1.1 0 1.2 4.9 1.4 8.7 5.3 10.2 10.2.2.6 1.1.6 1.2 0 1.4-4.9 5.3-8.7 10.2-10.2.6-.2.6-1 0-1.2zM43.9 215.3a15.1 15.1 0 0 1-10.2-10.2c-.2-.6-1.1-.6-1.2 0a15.1 15.1 0 0 1-10.2 10.2c-.6.2-.6 1.1 0 1.2 4.9 1.4 8.7 5.3 10.2 10.2.2.6 1.1.6 1.2 0 1.4-4.9 5.3-8.7 10.2-10.2.6-.1.6-1 0-1.2z"/></svg>