<?xml version="1.0" encoding="utf-8"?>
<!-- Generator: Adobe Illustrator 19.1.0, SVG Export Plug-In . SVG Version: 6.00 Build 0)  -->
<!DOCTYPE svg PUBLIC "-//W3C//DTD SVG 1.1//EN" "http://www.w3.org/Graphics/SVG/1.1/DTD/svg11.dtd">
<svg version="1.1" id="Layer_1" xmlns="http://www.w3.org/2000/svg" xmlns:xlink="http://www.w3.org/1999/xlink" x="0px" y="0px"
	 viewBox="0 0 600 600" enable-background="new 0 0 600 600" xml:space="preserve">
<g>
	<g>
		<g>
			<g opacity="5.000000e-02">
				<path d="M139.4,524.3l10.1-10.1L139.3,504l10.2-10.2l-77.6-77.6l-45.5,45.5l10.2,10.2L26.6,482l10.2,10.2l-10.2,10.2l77.7,77.7
					l45.5-45.5L139.4,524.3z M116.1,517.1c-1-0.6-2.2-1.1-3.3-1.7c-6.2-2.5-13.1-2.2-19.1,0.7c-0.5,0.3-1.1,0.5-1.7,0.8l-43.3-43.3
					c0.3-0.5,0.6-1,0.8-1.7c2.9-6,3.2-12.9,0.7-19.1c-0.5-1.1-1-2.3-1.7-3.3l11.2-11.2c1,0.6,2.2,1.1,3.3,1.7
					c6.2,2.5,13.1,2.2,19.1-0.7c0.5-0.3,1.1-0.5,1.7-0.8l43.4,43.4c-0.3,0.5-0.6,1-0.8,1.7c-2.9,6-3.2,12.9-0.7,19.1
					c0.5,1.1,1,2.3,1.7,3.3l-11.2,11.2L116.1,517.1z M110.7,522.5l-6.7,6.7l-6.7-6.7c0.6-0.2,1.2-0.4,1.9-0.6
					c2.5-0.8,5.1-0.9,7.7-0.5C108.3,521.5,109.6,522,110.7,522.5z M132.7,500.5c-0.5-1.1-0.9-2.4-1.1-3.8c-0.5-2.6-0.3-5.3,0.5-7.7
					c0.2-0.6,0.4-1.2,0.6-1.9l6.7,6.7L132.7,500.5z M78.6,433.1c-0.6,0.2-1.1,0.5-1.9,0.6c-2.5,0.8-5.3,0.9-7.7,0.5
					c-1.2-0.2-2.5-0.6-3.8-1.1l6.7-6.7L78.6,433.1z M43.3,455c0.5,1.1,0.9,2.4,1.1,3.8c0.5,2.6,0.3,5.3-0.5,7.7
					c-0.2,0.6-0.4,1.2-0.6,1.9l-6.7-6.7L43.3,455z M41.7,477l62.4,62.4l30.2-30.2l5.1,5.1l-35.3,35.3L36.7,482L41.7,477z
					 M104.1,569.9l-67.4-67.4l5.2-5.2l62.4,62.4l30.1-30.1l5.1,5.1L104.1,569.9z"/>
			</g>
		</g>
		<g>
			<g opacity="5.000000e-02">
				<path d="M99.2,466.6c-6.2-6.2-16.1-6.2-22.3,0c-6.2,6.2-6.2,16.1,0,22.3c6.2,6.2,16.1,6.2,22.3,0
					C105.3,482.9,105.3,472.8,99.2,466.6z M81.9,483.8c-3.3-3.3-3.4-8.8,0-12.2c3.3-3.3,8.8-3.4,12.2,0s3.4,8.8,0,12.2
					S85.3,487.2,81.9,483.8z"/>
			</g>
		</g>
		<g>
			<path opacity="5.000000e-02" d="M71.3,456.1l-6.9-6.9c-1.4-1.4-3.7-1.4-5.2,0c-1.4,1.4-1.4,3.7,0,5.2l6.9,6.9
				c1.4,1.4,3.7,1.4,5.2,0C72.8,459.8,72.8,457.5,71.3,456.1z"/>
		</g>
		<g>
			<path opacity="5.000000e-02" d="M116.6,501.3l-6.9-6.9c-1.4-1.4-3.7-1.4-5.2,0c-1.4,1.4-1.4,3.7,0,5.2l6.9,6.9
				c1.4,1.4,3.7,1.4,5.2,0C118,505,118,502.8,116.6,501.3z"/>
		</g>
	</g>
</g>
<path fill-opacity="5.000000e-02" d="M523.6,86.2c-1.4-1.4-3.7-1.6-5.3-0.5l-7.5,5.2c-2.2-0.3-4.4-0.3-6.6-0.2
	c0.5,3.5,0.3,7-0.4,10.3c6.4-0.8,12.9,1.4,17.6,6.1c8.2,8.2,8.4,21.2,0.5,29c-7.9,7.9-20.9,7.7-29-0.5l0,0
	c-2.9-2.9-4.9-6.6-5.8-10.6c-1.3,0.8-2.6,1.6-4,2.3c-1.7,0.8-3.5,1.5-5.4,2c1.5,4.9,4.2,9.5,8,13.4c9.5,9.5,23.9,12.1,35.6,6.4
	c11.7-5.7,18.3-18.4,16.2-31.5l5.2-7.4c1.2-1.7,1-3.9-0.5-5.4L523.6,86.2z M529.3,99.2c0.8,0.8,0.8,2.1,0,3c0,0,0,0,0,0l-1.4,1.4
	c-0.8,0.8-2.1,0.8-3,0c-0.8-0.8-0.8-2.1,0-3c0,0,0,0,0,0l1.4-1.4C527.2,98.4,528.5,98.4,529.3,99.2z"/>
<path fill-opacity="5.000000e-02" d="M483.8,61.1c-1.4-1.4-3.7-1.6-5.3-0.5l-7.5,5.2c-13.1-2-25.8,4.5-31.5,16.3
	c-5.7,11.8-3.1,26.1,6.5,35.6c9.5,9.5,23.9,12.1,35.6,6.4c11.7-5.7,18.3-18.4,16.2-31.5l5.2-7.4c1.2-1.7,1-3.9-0.5-5.4L483.8,61.1z
	 M489.6,74c0.8,0.8,0.8,2.1,0,3c0,0,0,0,0,0l-1.4,1.4c-0.8,0.8-2.1,0.8-3,0s-0.8-2.1,0-3c0,0,0,0,0,0l1.4-1.4
	C487.5,73.2,488.8,73.2,489.6,74z M481.6,82c8.2,8.2,8.4,21.2,0.5,29c-7.9,7.9-20.9,7.7-29-0.5l0,0c-8.2-8.2-8.4-21.2-0.5-29l0,0
	C460.4,73.6,473.4,73.9,481.6,82z"/>
<path fill-opacity="5.000000e-02" d="M537.4,53.9c-2.8-2.8-7.5-2.8-10.3,0c-0.2,0.2-0.3,0.4-0.4,0.5c-2.2-0.7-4.5-1.1-6.9-1.2
	c-0.4-0.8-0.9-1.6-1.6-2.3c-2.8-2.8-7.5-2.8-10.3,0c-1.6,1.6-2.3,3.9-2,6c-1.9,1.1-3.6,2.5-5,4.1c-0.6-0.4-1.2-0.8-2-1l0,0
	c0,0,0,0,0,0c-2.2-0.6-4.5,0-6.1,1.6l-2.2,2.2l3,3l2.2-2.2c0.5-0.5,1.3-0.7,2-0.5c0.7,0.2,1.3,0.8,1.4,1.5c0,0,0,0,0,0
	c0.2,0.7,0,1.5-0.6,2c0,0,0,0,0,0l-2.2,2.2l3,3l2.1-2.1c1.6-1.6,2.3-3.9,1.7-6c1.3-1.4,2.7-2.7,4.3-3.8c0.1,0.1,0.2,0.3,0.4,0.5
	c2.8,2.8,7.5,2.8,10.3,0c1.1-1.1,1.7-2.4,2-3.8c1.6,0.1,3.2,0.4,4.8,0.9c-0.2,2.1,0.4,4.3,2.1,5.9c2.2,2.2,5.6,2.7,8.4,1.4
	c0.8,1,1.4,2,2,3.2c-0.3,0.2-0.5,0.4-0.8,0.6c-2.8,2.8-2.8,7.5,0,10.3c0.8,0.8,1.8,1.4,2.9,1.7c-0.2,1.1-0.4,2.1-0.7,3.2
	c-2.1-0.5-4.3,0.2-5.8,1.7l-2.2,2.2l3,3l2.2-2.2c0.5-0.5,1.3-0.7,2-0.5c0.7,0.2,1.3,0.8,1.4,1.5c0,0,0,0,0,0c0.2,0.7,0,1.5-0.6,2
	c0,0,0,0,0,0l-2.2,2.2l3,3l2.1-2.1c1.6-1.6,2.3-3.9,1.7-6.1c-0.2-0.8-0.6-1.5-1.1-2.2c0.7-1.8,1.1-3.6,1.4-5.5
	c1.2-0.3,2.3-0.9,3.2-1.8c2.8-2.8,2.8-7.5,0-10.3c-1.5-1.5-3.5-2.2-5.5-2.1c-0.8-1.6-1.8-3.2-2.9-4.6
	C540.1,59.9,539.8,56.3,537.4,53.9L537.4,53.9z M534.4,56.9c1.2,1.2,1.2,3.2,0,4.4c-1.2,1.2-3.2,1.2-4.4,0c-1.2-1.2-1.2-3.2,0-4.4
	C531.2,55.6,533.2,55.6,534.4,56.9z M544,72.4c1.2,1.2,1.2,3.2,0,4.4c-1.2,1.2-3.2,1.2-4.4,0c-1.2-1.2-1.2-3.2,0-4.4
	C540.8,71.1,542.8,71.1,544,72.4z M515.2,53.9c1.2,1.2,1.2,3.2,0,4.4c-1.2,1.2-3.2,1.2-4.4,0s-1.2-3.2,0-4.4
	C512,52.7,514,52.7,515.2,53.9z"/>
<path fill-opacity="5.000000e-02" d="M323.2,539.2l-1.7-6.8c-0.2-0.6-0.5-1.1-1.1-1.4c-0.6-0.3-1.2-0.4-1.8-0.3l-2.6,0.6l-4.1-16.3
	l12.8-3.2c1.3-0.3,2-1.6,1.7-2.8c-0.3-1.3-1.6-2-2.8-1.7l-8.5,2.1l-4.1-16.7l23.6-8c0.1,0,0.1-0.1,0.2-0.1c0.2-0.1,0.3-0.2,0.5-0.3
	c0.1-0.1,0.2-0.2,0.3-0.2c0.1-0.1,0.1-0.1,0.2-0.1l11.5-14.4c0,0,0,0,0,0c0.1-0.1,0.1-0.1,0.1-0.2c0-0.1,0.1-0.1,0.1-0.2
	c0-0.1,0-0.1,0.1-0.2c0-0.1,0.1-0.2,0.1-0.3c0,0,0,0,0,0c0,0,0-0.1,0-0.1c0-0.1,0-0.2,0-0.3c0-0.1,0-0.1,0-0.2s0-0.1,0-0.2
	c0-0.1,0-0.2,0-0.2c0-0.1,0-0.1-0.1-0.2c0-0.1-0.1-0.2-0.1-0.2c0-0.1-0.1-0.1-0.1-0.2c0-0.1-0.1-0.1-0.1-0.2c0,0-0.1-0.1-0.1-0.1
	c-0.1-0.1-0.1-0.2-0.2-0.2c0,0-0.1-0.1-0.1-0.1c0,0,0,0,0,0c-0.1-0.1-0.2-0.1-0.3-0.2c0,0-0.1-0.1-0.1-0.1c-0.1,0-0.2-0.1-0.2-0.1
	c-0.1,0-0.1-0.1-0.2-0.1c0,0,0,0,0,0l-17.9-4.4c-0.1,0-0.2,0-0.3,0c0,0,0,0-0.1,0c-0.3,0-0.6,0-0.9,0.1c0,0,0,0,0,0l-0.1,0
	c0,0,0,0,0,0l-21.6,7.3l-5.5-22.2c0,0,0,0,0,0c-0.1-0.3-0.2-0.5-0.4-0.8c0,0,0,0-0.1-0.1c-0.1-0.1-0.1-0.2-0.2-0.3l-13.4-12.7
	c0,0,0,0,0,0c-0.1,0-0.1-0.1-0.2-0.1c-0.1-0.1-0.1-0.1-0.2-0.2c0,0-0.1,0-0.1-0.1c-0.1-0.1-0.2-0.1-0.3-0.1c0,0,0,0,0,0
	c0,0-0.1,0-0.1,0c-0.1,0-0.2-0.1-0.3-0.1c-0.1,0-0.1,0-0.2,0c-0.1,0-0.2,0-0.3,0c-0.1,0-0.1,0-0.2,0c-0.1,0-0.2,0-0.2,0
	c-0.1,0-0.1,0-0.2,0.1c-0.1,0-0.2,0.1-0.2,0.1c-0.1,0-0.1,0.1-0.2,0.1c-0.1,0-0.1,0.1-0.2,0.1c-0.1,0.1-0.1,0.1-0.2,0.2
	c0,0-0.1,0.1-0.1,0.1c0,0,0,0,0,0c-0.1,0.1-0.1,0.1-0.2,0.2c0,0.1-0.1,0.1-0.1,0.2c0,0.1-0.1,0.1-0.1,0.2c0,0.1-0.1,0.2-0.1,0.2
	c0,0,0,0,0,0l-5.9,17.5c0,0.1,0,0.1,0,0.2c0,0.1,0,0.2-0.1,0.4c0,0.2,0,0.4,0,0.5c0,0.1,0,0.1,0,0.2l6,24.2l-16.3,5.5l-2.8-8.3
	c-0.4-1.2-1.7-1.9-3-1.5c-1.2,0.4-1.9,1.7-1.5,3l3.6,10.5l0,0c0,0,0,0,0,0l0.7,2l-15.9,5.4l-0.9-2.5c-0.2-0.6-0.6-1.1-1.2-1.3
	c-0.6-0.3-1.2-0.3-1.8-0.1l-6.6,2.3c-1.2,0.4-1.9,1.7-1.5,3l6.8,19.9c0.2,0.6,0.6,1,1.1,1.3c0.6,0.3,1.2,0.4,1.9,0.2l6.6-2.3
	c0.6-0.2,1.1-0.6,1.3-1.2c0.3-0.6,0.3-1.2,0.1-1.8l-0.9-2.5l15.9-5.4l4.2,12.5c0.2,0.6,0.6,1,1.1,1.3c0.6,0.3,1.2,0.4,1.9,0.2
	c1.2-0.4,1.9-1.7,1.5-3l-2.8-8.3l14.3-4.9l3.7,14.7l-8.5,2.1c-1.3,0.3-2,1.6-1.7,2.8c0.2,0.7,0.6,1.2,1.2,1.5
	c0.5,0.3,1.1,0.4,1.7,0.2l12.8-3.2l4.1,16.3l-2.6,0.6c-1.3,0.3-2,1.6-1.7,2.8l1.7,6.8c0.2,0.6,0.5,1.1,1.1,1.4c0,0,0.1,0,0.1,0
	c0.5,0.3,1.1,0.4,1.7,0.2l20.4-5.1C322.8,541.8,323.6,540.5,323.2,539.2z M310.7,510.6l-2,0.5c0,0,0,0,0,0c0,0,0,0,0,0l-3,0.8
	l-3.9-15.9l5-1.7L310.7,510.6z M280.5,452.2l4.5-13.4l10.2,9.7l5.5,21.9l-14.4,4.9L280.5,452.2z M245.2,510.9l-5.2-15.5l2.2-0.7
	l0.9,2.5c0,0,0,0,0,0c0,0,0,0,0,0l3.5,10.4c0,0,0,0,0,0c0,0,0,0,0,0l0.9,2.5L245.2,510.9z M250.2,503.8l-2-5.9l15.9-5.4l2,5.9
	L250.2,503.8z M270.2,496.2l35.9-12.2c1.2-0.4,1.9-1.7,1.5-3c-0.4-1.2-1.7-1.9-3-1.5l-35.9,12.2l-1-3c0,0,0,0,0,0c0,0,0,0,0,0
	l-0.7-2l60.6-20.6l13.7,3.4l-8.8,11l-60.6,20.5L270.2,496.2z M292.2,499.2l5-1.7l3.9,15.5l-5.1,1.3L292.2,499.2z M301.4,517.7
	l6.1-1.5l4.1,16.3l-6.1,1.5L301.4,517.7z M302.3,542l-0.6-2.3l2.6-0.6c0,0,0,0,0,0c0,0,0,0,0,0l10.6-2.6c0,0,0,0,0,0c0,0,0,0,0,0
	l2.6-0.6l0.6,2.3L302.3,542z"/>
<path fill-opacity="5.000000e-02" d="M534.8,263.7L534.8,263.7c-16.9-16.9-44.4-16.9-61.3,0l-20.9,20.9c-16.9,16.9-16.9,44.4,0,61.3
	l0,0c16.9,16.9,44.4,16.9,61.3,0l20.9-20.9C551.6,308.1,551.6,280.5,534.8,263.7z M520.5,328.8c-3.1,3.1-8,3.4-11.7,1.1l-15.6-9.9
	c-6.1-3.9-11.2-9-15-15l-9.9-15.6c-2.3-3.6-1.9-8.5,1.1-11.7c0,0,0,0,0.1-0.1c2.2-2.2,5.2-3.4,8.2-3.3c2.9,0,6,1.1,8.2,3.3
	l34.7,34.7c2.2,2.2,3.4,5.2,3.3,8.2C523.7,323.4,522.8,326.5,520.5,328.8L520.5,328.8z M479,294.1c1.5,3.5,5.7,5.1,9.3,3.5
	l-5.7-12.6C479,286.6,477.4,290.5,479,294.1z M500.7,310.3c-1.5,3.5,0.1,7.6,3.5,9.3c3.5,1.5,7.6-0.1,9.3-3.5L500.7,310.3z"/>
<path fill-opacity="5.000000e-02" d="M529.4,475.3c8.6-3.1,13.1-12.6,10-21.2c-3.1-8.6-12.6-13.1-21.2-10c-4.6,1.7-8.3,5.3-10,10
	c-19-11.1-42.5-10.3-59.2,2.6l-8.4-8.4l-20,20l7.2,7.2l-10,18.3l72,72l18.3-10l7.2,7.2l20-20l-8.4-8.4
	C539.7,517.7,540.6,494.3,529.4,475.3z M515.2,546.7l-78.4-78.4l3.8-3.8l78.4,78.4L515.2,546.7z M520.2,456c2-2,5.3-2,7.3,0
	c2,2,2,5.3,0,7.3c-2,2-5.3,2-7.3,0l0,0C518.2,461.2,518.2,458,520.2,456z M512.1,471.3c15.6,15.6,17.9,38.9,6.5,55l-61.5-61.5
	C473.1,453.5,496.6,455.8,512.1,471.3z M491.7,551.6l-59.8-59.8l4.2-7.9l63.5,63.5L491.7,551.6z"/>
<path fill-opacity="5.000000e-02" d="M259,126.2c0.9,0.9,1.9,1.9,2.9,2.7l-3.9,3.9c-7.4,7.4,6.6,25.4,16,34.8
	c9.4,9.4,27.4,23.4,34.8,16l18.8-18.8c7.4-7.4-6.6-25.4-16-34.8c-0.8-0.8-1.9-1.9-2.9-2.7l32.1-32.1c7.4-7.4-6.6-25.4-16-34.8
	s-27.4-23.4-34.8-16l-47,47C235.6,98.9,249.6,116.8,259,126.2z M312.8,168.4c-2.2,0.3-11.6-3.7-23.7-15.8
	C277,140.4,273,131,273.3,128.9l2.9-2.9c3.2,7.9,10.8,17,16.7,22.9s15,13.5,22.9,16.7L312.8,168.4z M326,98.8
	c-2.2,0.3-11.6-3.7-23.7-15.8c-12.1-12.1-16.1-21.5-15.8-23.7l2.9-2.9c3.2,7.9,10.8,17,16.7,22.9s15,13.5,22.9,16.7L326,98.8z
	 M296.7,88.6c5.8,5.8,15,13.5,22.9,16.7l-2.9,2.9c-2.2,0.3-11.6-3.7-23.7-15.8c-12.1-12.1-16.1-21.5-15.8-23.7l2.9-2.9
	C283.2,73.6,290.8,82.8,296.7,88.6z M287.3,98c5.8,5.8,15,13.5,22.9,16.7l-2.9,2.9c-2.2,0.3-11.6-3.7-23.7-15.8
	s-16.1-21.5-15.8-23.7l2.9-2.9C273.8,83.1,281.4,92.2,287.3,98z M277.8,107.4c1.4,1.4,3,3,4.8,4.4c-2.3,0-4.1,0.6-5.6,2.1
	c-0.9-0.9-2-1.8-2.9-2.7C261.9,99,258,89.6,258.3,87.5l2.9-2.9C264.4,92.5,272,101.6,277.8,107.4z M248.9,96.9l2.9-2.9
	c3.2,7.9,10.8,17,16.7,22.9c0.9,0.9,1.9,1.9,2.9,2.7l-3.8,3.8c-0.9-0.9-2-1.8-2.9-2.7C252.5,108.5,248.6,99,248.9,96.9z M279.7,162
	c-12.1-12.1-16.1-21.5-15.8-23.7l2.9-2.9c3.2,7.9,10.8,17,16.7,22.9s15,13.5,22.9,16.7l-2.9,2.9C301.3,178.1,291.9,174.1,279.7,162z
	 M321.9,159c-2.8-0.2-11.9-4.3-23.3-15.8s-15.6-20.5-15.8-23.3c2.8,0.2,11.9,4.3,23.3,15.8S321.7,156.1,321.9,159z M319.2,66
	c11.5,11.5,15.6,20.5,15.8,23.3c-2.8-0.2-11.9-4.3-23.3-15.8S296.1,53,295.9,50.2C298.7,50.4,307.8,54.5,319.2,66z"/>
<path fill-opacity="5.000000e-02" d="M130.7,134c0-1.9-0.8-3.7-2.2-5l-17.1-15.3l19.1-1.2c2.7-0.2,5-1.7,6.3-4
	c0.9-1.4,1.3-3.2,0.9-5c0-0.1-8.9-33.8-8.9-33.8c-0.7-2.8-3.1-4.7-6-4.9l-19.7-1.1c-3.6-0.2-6.7,2.6-6.9,6.2
	c-0.2,3.6,2.6,6.7,6.2,6.9l14.9,0.9l2.7,10.3l-24.6,1.6c-5.6-4-12.1-6.1-18.6-6.3v12c5.2,0.2,10.3,2.3,14.3,6.3
	c8.4,8.4,8.4,22.2,0,30.6c-4,4-9.1,6.1-14.3,6.3l0,12c8.3-0.3,16.5-3.5,22.8-9.8c3.8-3.8,6.4-8.2,8.1-12.9l6.6,5.9L93.8,151
	c-2.8,2.4-3.1,6.5-0.8,9.3c0.1,0.1,0.2,0.3,0.4,0.4c2.4,2.4,6.3,2.6,8.9,0.4l26-22.1C129.8,137.7,130.7,135.9,130.7,134z"/>
<path fill-opacity="5.000000e-02" d="M142,105.4c4.3,4.3,11.3,4.3,15.6,0c4.3-4.3,4.3-11.3,0-15.6c-4.3-4.3-11.3-4.3-15.6,0
	C137.7,94.1,137.7,101.1,142,105.4z"/>
<path fill-opacity="5.000000e-02" d="M60.3,132.2c-8.4-8.4-8.4-22.2,0-30.6c3.2-3.2,7.1-5.2,11.2-5.9l0-12.2
	c-7.2,0.9-14.2,4.1-19.7,9.6c-13.2,13.2-13.2,34.5,0,47.6c5.5,5.5,12.5,8.7,19.7,9.6l0-12.2C67.4,137.4,63.4,135.4,60.3,132.2z"/>
<path fill-opacity="5.000000e-02" d="M331.8,316.4c10.7-15.6,8.7-37.6-5.8-52c-14.5-14.5-36.5-16.5-52-5.8l-9.8-9.8l-20.4,20.4
	l6.9,6.9c4.9-4.9,12.8-4.9,17.7,0s4.9,12.8,0,17.7l28.3,28.3c4.9-4.9,12.8-4.9,17.7,0s4.9,12.8,0,17.7l6.9,6.9l20.4-20.4
	L331.8,316.4z M300.3,284.7l-21.1-21.1c11.7-7.3,27.5-6.2,39,3.1L300.3,284.7L300.3,284.7z M305.7,290.2l17.9-17.9
	c9.3,11.5,10.4,27.3,3.1,39L305.7,290.2z"/>
<polygon fill-opacity="5.000000e-02" points="276.4,324.6 284.9,316.1 274.4,305.6 265.8,314.1 253.2,301.5 228.3,305.8 
	255.9,333.4 257.1,334.6 284.7,362.2 289,337.3 "/>
<g>
	<g>
		<g>
			<g opacity="5.000000e-02">
				<path d="M123.4,368.2l23.7-63.5c0.4-1.1,0.2-2.2-0.7-3l-62.8-62.8c-0.8-0.8-2-1.1-3-0.7l-63.5,23.7c-1,0.3-1.5,1.1-1.8,2.1
					c-0.2,0.9,0.1,1.8,0.8,2.5l102.6,102.6c0.7,0.7,1.6,1,2.5,0.8C122.3,369.7,123.2,369.1,123.4,368.2z M23.3,265.7l57.8-21.4
					l60.2,60.2l-21.4,57.8L23.3,265.7z"/>
			</g>
		</g>
		<g>
			<path opacity="5.000000e-02" d="M70,268c1.2-1.2,1.2-3.2,0-4.4l-1.3-1.3c-1.2-1.2-3.2-1.2-4.4,0c-1.2,1.2-1.2,3.2,0,4.4l1.3,1.3
				C66.8,269.2,68.8,269.2,70,268z"/>
		</g>
		<g>
			<path opacity="5.000000e-02" d="M67.5,281.8c-0.1-0.1-0.3-0.8-0.4-0.9c-1-2.3-1.2-4.7-0.9-7.2c0,0,0.1-0.8,0.1-1
				c0.2-1.1-0.5-2.1-1.6-2.3c-1.1-0.2-2.1,0.5-2.3,1.6c0,0.2-0.2,1.1-0.1,1.2c-0.3,3.2,0,6.3,1.1,9.1c0.1,0.1,0.4,1.3,0.9,1.7
				c0.5,0.5,1.4,0.8,2.3,0.3C67.5,284,67.9,282.9,67.5,281.8z"/>
		</g>
		<g>
			<path opacity="5.000000e-02" d="M80.2,292.8c-0.2,0-0.9-0.2-1-0.3c-1.8-0.8-3.7-1.7-5.5-3.2c-0.3-0.3-1.5-1.3-1.6-1.4
				c-0.8-0.8-2.1-0.8-2.7,0.1c-0.8,0.8-0.7,2,0.1,2.7c0.5,0.5,1.6,1.4,2,1.7c2.2,1.7,4.4,2.8,6.6,3.8c0.1,0.1,1,0.3,1.2,0.3
				c1,0.3,2.2-0.2,2.4-1.3C81.8,294.2,81.3,293,80.2,292.8z"/>
		</g>
		<g>
			<path opacity="5.000000e-02" d="M100,292.6c-0.2-1.1-1.3-1.7-2.3-1.6c-0.2,0-1.1,0.2-1.1,0.2c-1.1,0.2-2.1,0.5-3,0.7
				c-1.6,0.3-3.3,0.9-5,1.1c0,0-0.9,0.2-1,0.1c-1.1,0.2-1.8,1.2-1.7,2.2c0,0.4,0.2,0.9,0.5,1.2c0.4,0.4,1.1,0.7,1.6,0.5
				c0.2,0,1.1-0.2,1.2-0.1c1.8-0.3,3.6-0.8,5.3-1.2c1-0.3,2-0.4,2.9-0.8c0,0,0.9-0.2,1.1-0.2C99.4,294.7,100.2,293.7,100,292.6z"/>
		</g>
		<g>
			<path opacity="5.000000e-02" d="M116.4,297.3c0,0-0.8-0.8-0.9-0.9c-0.9-0.9-1.8-1.6-2.8-2.4c-1.5-1.1-3.2-2.1-4.8-2.6
				c-0.1-0.1-1-0.3-1.2-0.3c-1.1-0.2-2.1,0.3-2.4,1.3c-0.2,0.7,0.1,1.4,0.5,1.8c0.2,0.2,0.5,0.3,0.9,0.4c0.2,0,0.9,0.2,0.9,0.2
				c1.3,0.4,2.5,1.2,3.7,2c0.9,0.7,1.7,1.3,2.5,2.1c0.1,0.1,0.8,0.8,0.8,0.8l0,0c0.8,0.8,2.1,0.8,2.8,0
				C117.2,299.3,117.2,298,116.4,297.3z"/>
		</g>
		<g>
			<path opacity="5.000000e-02" d="M118,314.1c-0.1,0.1-0.2,0.7-0.2,0.7c-0.3,0.8-0.1,1.6,0.4,2.2c0.1,0.1,0.3,0.3,0.5,0.3
				c1,0.5,2.2,0,2.6-0.9c0,0,0.3-1,0.4-1.1c0.5-1.6,1.2-5.1,0-9.4c-0.1-0.1-0.3-1-0.3-1.2c-0.3-1-1.5-1.5-2.5-1.2
				c-1,0.3-1.5,1.5-1.2,2.5c0.1,0.1,0.2,0.9,0.3,1C119,310.3,118.5,312.8,118,314.1z"/>
		</g>
		<g>
			<path opacity="5.000000e-02" d="M116.2,325.1l3.4-0.3c1.1,0,2-1.1,1.7-2.2c0-1.1-1.1-2-2.2-1.7l-3.2,0.3l-0.1-2.9
				c0-1.1-1-1.8-2.1-1.8c-1.1,0-1.8,1-1.8,2.1l0.1,3.2l-3.4,0.3c-1.1,0-2,1.1-1.7,2.2c0,0.4,0.2,0.9,0.5,1.2c0.4,0.4,1,0.5,1.6,0.5
				l3.2-0.3l0.1,3.4c0,0.4,0.3,1,0.7,1.3c0.4,0.4,0.9,0.7,1.5,0.7c1.1,0,1.8-1,1.8-2.1L116.2,325.1z"/>
		</g>
	</g>
</g>
<path fill-opacity="5.000000e-02" d="M241.6,182.5c-2.8-0.8-4.9-3-5.7-5.7c-0.1-0.3-0.6-0.3-0.7,0c-0.8,2.8-3,4.9-5.7,5.7
	c-0.3,0.1-0.3,0.6,0,0.7c2.8,0.8,4.9,3,5.7,5.7c0.1,0.3,0.6,0.3,0.7,0c0.8-2.8,3-4.9,5.7-5.7C241.9,183.1,241.9,182.6,241.6,182.5z"
	/>
<path fill-opacity="5.000000e-02" d="M33.3,32.1c-2.8-0.8-4.9-3-5.7-5.7c-0.1-0.3-0.6-0.3-0.7,0c-0.8,2.8-3,4.9-5.7,5.7
	c-0.3,0.1-0.3,0.6,0,0.7c2.8,0.8,4.9,3,5.7,5.7c0.1,0.3,0.6,0.3,0.7,0c0.8-2.8,3-4.9,5.7-5.7C33.7,32.7,33.7,32.2,33.3,32.1z"/>
<path fill-opacity="5.000000e-02" d="M175.6,25.8c-2.8-0.8-4.9-3-5.7-5.7c-0.1-0.3-0.6-0.3-0.7,0c-0.8,2.8-3,4.9-5.7,5.7
	c-0.3,0.1-0.3,0.6,0,0.7c2.8,0.8,4.9,3,5.7,5.7c0.1,0.3,0.6,0.3,0.7,0c0.8-2.8,3-4.9,5.7-5.7C175.9,26.4,175.9,25.9,175.6,25.8z"/>
<path fill-opacity="5.000000e-02" d="M241.6,358.2c-2.8-0.8-4.9-3-5.7-5.7c-0.1-0.3-0.6-0.3-0.7,0c-0.8,2.8-3,4.9-5.7,5.7
	c-0.3,0.1-0.3,0.6,0,0.7c2.8,0.8,4.9,3,5.7,5.7c0.1,0.3,0.6,0.3,0.7,0c0.8-2.8,3-4.9,5.7-5.7C241.9,358.7,241.9,358.3,241.6,358.2z"
	/>
<path fill-opacity="5.000000e-02" d="M565.5,580.8c-2.8-0.8-4.9-3-5.7-5.7c-0.1-0.3-0.6-0.3-0.7,0c-0.8,2.8-3,4.9-5.7,5.7
	c-0.3,0.1-0.3,0.6,0,0.7c2.8,0.8,4.9,3,5.7,5.7c0.1,0.3,0.6,0.3,0.7,0c0.8-2.8,3-4.9,5.7-5.7C565.9,581.4,565.9,580.9,565.5,580.8z"
	/>
<path fill-opacity="5.000000e-02" d="M439.7,336.7c-4-1.2-7.2-4.4-8.4-8.4c-0.1-0.5-0.9-0.5-1,0c-1.2,4-4.4,7.2-8.4,8.4
	c-0.5,0.1-0.5,0.9,0,1c4,1.2,7.2,4.4,8.4,8.4c0.1,0.5,0.9,0.5,1,0c1.2-4,4.4-7.2,8.4-8.4C440.2,337.6,440.2,336.9,439.7,336.7z"/>
<path fill-opacity="5.000000e-02" d="M194.9,454c-4-1.2-7.2-4.4-8.4-8.4c-0.1-0.5-0.9-0.5-1,0c-1.2,4-4.4,7.2-8.4,8.4
	c-0.5,0.1-0.5,0.9,0,1c4,1.2,7.2,4.4,8.4,8.4c0.1,0.5,0.9,0.5,1,0c1.2-4,4.4-7.2,8.4-8.4C195.4,454.8,195.4,454.1,194.9,454z"/>
<path fill-opacity="5.000000e-02" d="M35.3,574.5c-4-1.2-7.2-4.4-8.4-8.4c-0.1-0.5-0.9-0.5-1,0c-1.2,4-4.4,7.2-8.4,8.4
	c-0.5,0.1-0.5,0.9,0,1c4,1.2,7.2,4.4,8.4,8.4c0.1,0.5,0.9,0.5,1,0c1.2-4,4.4-7.2,8.4-8.4C35.8,575.4,35.8,574.6,35.3,574.5z"/>
<path fill-opacity="5.000000e-02" d="M430.4,48.3c-4-1.2-7.2-4.4-8.4-8.4c-0.1-0.5-0.9-0.5-1,0c-1.2,4-4.4,7.2-8.4,8.4
	c-0.5,0.1-0.5,0.9,0,1c4,1.2,7.2,4.4,8.4,8.4c0.1,0.5,0.9,0.5,1,0c1.2-4,4.4-7.2,8.4-8.4C430.9,49.2,430.9,48.5,430.4,48.3z"/>
<path fill-opacity="5.000000e-02" d="M373.4,277.1c-4.9-1.4-8.7-5.3-10.2-10.2c-0.2-0.6-1.1-0.6-1.2,0c-1.4,4.9-5.3,8.7-10.2,10.2
	c-0.6,0.2-0.6,1.1,0,1.2c4.9,1.4,8.7,5.3,10.2,10.2c0.2,0.6,1.1,0.6,1.2,0c1.4-4.9,5.3-8.7,10.2-10.2
	C374,278.1,374,277.3,373.4,277.1z"/>
<path fill-opacity="5.000000e-02" d="M543,199.9c-4.9-1.4-8.7-5.3-10.2-10.2c-0.2-0.6-1.1-0.6-1.2,0c-1.4,4.9-5.3,8.7-10.2,10.2
	c-0.6,0.2-0.6,1.1,0,1.2c4.9,1.4,8.7,5.3,10.2,10.2c0.2,0.6,1.1,0.6,1.2,0c1.4-4.9,5.3-8.7,10.2-10.2
	C543.6,200.9,543.6,200.1,543,199.9z"/>
<path fill-opacity="5.000000e-02" d="M379.7,569.3c-4.9-1.4-8.7-5.3-10.2-10.2c-0.2-0.6-1.1-0.6-1.2,0c-1.4,4.9-5.3,8.7-10.2,10.2
	c-0.6,0.2-0.6,1.1,0,1.2c4.9,1.4,8.7,5.3,10.2,10.2c0.2,0.6,1.1,0.6,1.2,0c1.4-4.9,5.3-8.7,10.2-10.2
	C380.3,570.4,380.3,569.5,379.7,569.3z"/>
<path fill-opacity="5.000000e-02" d="M513.8,417.5c-4.9-1.4-8.7-5.3-10.2-10.2c-0.2-0.6-1.1-0.6-1.2,0c-1.4,4.9-5.3,8.7-10.2,10.2
	c-0.6,0.2-0.6,1.1,0,1.2c4.9,1.4,8.7,5.3,10.2,10.2c0.2,0.6,1.1,0.6,1.2,0c1.4-4.9,5.3-8.7,10.2-10.2
	C514.4,418.6,514.4,417.7,513.8,417.5z"/>
<path fill-opacity="5.000000e-02" d="M160,215.3c-4.9-1.4-8.7-5.3-10.2-10.2c-0.2-0.6-1.1-0.6-1.2,0c-1.4,4.9-5.3,8.7-10.2,10.2
	c-0.6,0.2-0.6,1.1,0,1.2c4.9,1.4,8.7,5.3,10.2,10.2c0.2,0.6,1.1,0.6,1.2,0c1.4-4.9,5.3-8.7,10.2-10.2
	C160.6,216.4,160.6,215.5,160,215.3z"/>
<path fill-opacity="5.000000e-02" d="M244,41.7c-4.9-1.4-8.7-5.3-10.2-10.2c-0.2-0.6-1.1-0.6-1.2,0c-1.4,4.9-5.3,8.7-10.2,10.2
	c-0.6,0.2-0.6,1.1,0,1.2c4.9,1.4,8.7,5.3,10.2,10.2c0.2,0.6,1.1,0.6,1.2,0c1.4-4.9,5.3-8.7,10.2-10.2
	C244.6,42.7,244.6,41.9,244,41.7z"/>
<path fill-opacity="5.000000e-02" d="M43.9,215.3c-4.9-1.4-8.7-5.3-10.2-10.2c-0.2-0.6-1.1-0.6-1.2,0c-1.4,4.9-5.3,8.7-10.2,10.2
	c-0.6,0.2-0.6,1.1,0,1.2c4.9,1.4,8.7,5.3,10.2,10.2c0.2,0.6,1.1,0.6,1.2,0c1.4-4.9,5.3-8.7,10.2-10.2
	C44.5,216.4,44.5,215.5,43.9,215.3z"/>
</svg>
