<svg width="300" height="200" viewBox="0 0 300 200" xmlns="http://www.w3.org/2000/svg"><title>journalist-tools</title><g fill="none" fill-rule="evenodd"><path d="M113.914 30.06L144.8 233.377l143.75-21.81L257.662 8.25l-143.75 21.81zm38.807 185.316c-1.652.25-3.156-.902-3.407-2.507-.25-1.657.902-3.16 2.507-3.41 1.603-.25 3.158.9 3.408 2.506.3 1.654-.852 3.158-2.507 3.41zm-7.82-51.543c-1.654.25-3.16-.903-3.41-2.507-.25-1.655.904-3.16 2.508-3.41 1.655-.25 3.16.903 3.41 2.507.25 1.605-.853 3.16-2.507 3.41zm-7.82-51.543c-1.656.25-3.16-.903-3.41-2.507-.25-1.655.902-3.16 2.506-3.41 1.605-.25 3.16.903 3.41 2.507.25 1.605-.852 3.16-2.507 3.41zm-9.327-61.47c-1.655.25-3.16-.904-3.41-2.508-.25-1.655.903-3.16 2.508-3.41 1.655-.25 3.16.903 3.41 2.507.25 1.603-.852 3.157-2.507 3.41z" stroke="#6C6B68" stroke-width="2" fill="#FFF"/><path d="M117.123 50.87l143.75-21.812m-142.246 31.74l143.75-21.86M120.13 70.673l143.75-21.81M121.635 80.602l143.75-21.81M123.14 90.53l143.75-21.86m-142.247 31.787l143.75-21.86m-142.245 31.737l143.75-21.81m-142.246 31.738l143.75-21.81M129.156 130.19l143.75-21.86M130.66 140.117l143.75-21.86m-142.246 31.737l143.75-21.81M133.67 159.922l143.748-21.81M135.173 169.85l143.75-21.86m-142.246 31.787l143.75-21.86M138.18 189.655l143.75-21.81m-142.245 31.737l143.75-21.86M141.19 209.51l143.75-21.86m-142.246 31.737l143.75-21.81M117.874 55.833l143.75-21.86M119.38 65.76L263.127 43.9M120.883 75.638l143.75-21.81M122.387 85.565l143.75-21.81M123.89 95.493l143.75-21.86M125.396 105.42l143.75-21.86M126.9 115.298l143.75-21.81m-142.246 31.738l143.75-21.81m-142.246 31.737l143.75-21.86M131.412 145.03l143.75-21.81m-142.246 31.738l143.75-21.81M134.42 164.886l143.75-21.86m-142.245 31.787l143.75-21.86M137.43 184.69l143.748-21.81m-142.245 31.738l143.75-21.81m-142.246 31.738l143.75-21.86m-142.245 31.788l143.75-21.86" stroke="#99C6D6"/><path d="M133.618 27.053l30.886 203.315" stroke="#D36A71"/><path d="M113.914 30.06L144.8 233.377l143.75-21.81L257.662 8.25l-143.75 21.81zm38.807 185.316c-1.652.25-3.156-.902-3.407-2.507-.25-1.657.902-3.16 2.507-3.41 1.603-.25 3.158.9 3.408 2.506.3 1.654-.852 3.158-2.507 3.41zm-7.82-51.543c-1.654.25-3.16-.903-3.41-2.507-.25-1.655.904-3.16 2.508-3.41 1.655-.25 3.16.903 3.41 2.507.25 1.605-.853 3.16-2.507 3.41zm-7.82-51.543c-1.656.25-3.16-.903-3.41-2.507-.25-1.655.902-3.16 2.506-3.41 1.605-.25 3.16.903 3.41 2.507.25 1.605-.852 3.16-2.507 3.41zm-9.327-61.47c-1.655.25-3.16-.904-3.41-2.508-.25-1.655.903-3.16 2.508-3.41 1.655-.25 3.16.903 3.41 2.507.25 1.603-.852 3.157-2.507 3.41z" stroke="#6C6B68" stroke-width="2"/><path d="M109 21.487V227.11h145.404V21.486H109zm10.53 189.026c-1.655 0-3.01-1.354-3.01-3.01 0-1.653 1.355-3.007 3.01-3.007 1.654 0 3.008 1.354 3.008 3.008 0 1.655-1.354 3.01-3.01 3.01zm0-52.145c-1.655 0-3.01-1.354-3.01-3.01 0-1.653 1.355-3.007 3.01-3.007 1.654 0 3.008 1.356 3.008 3.01 0 1.655-1.354 3.01-3.01 3.01zm0-52.145c-1.655 0-3.01-1.354-3.01-3.01 0-1.653 1.355-3.007 3.01-3.007 1.654 0 3.008 1.354 3.008 3.008 0 1.655-1.354 3.01-3.01 3.01zm0-62.173c-1.655 0-3.01-1.354-3.01-3.008 0-1.655 1.355-3.01 3.01-3.01 1.654 0 3.008 1.355 3.008 3.01 0 1.654-1.354 3.008-3.01 3.008z" stroke="#6C6B68" stroke-width="2" fill="#FFF"/><path d="M109 42.095h145.404M109 52.095h145.404M109 62.095h145.404M109 72.095h145.404M109 82.095h145.404M109 92.095h145.404m-145.404 10h145.404m-145.404 10h145.404m-145.404 10h145.404m-145.404 10h145.404m-145.404 10h145.404m-145.404 10h145.404m-145.404 10h145.404m-145.404 10h145.404m-145.404 10h145.404m-145.404 10h145.404M109 47.095h145.404M109 57.095h145.404M109 67.095h145.404M109 77.095h145.404M109 87.095h145.404M109 97.095h145.404m-145.404 10h145.404m-145.404 10h145.404m-145.404 10h145.404m-145.404 10h145.404m-145.404 10h145.404m-145.404 10h145.404m-145.404 10h145.404m-145.404 10h145.404m-145.404 10h145.404m-145.404 10h145.404" stroke="#99C6D6"/><path d="M128 21.487V227.11" stroke="#D36A71"/><path d="M109 21.487V227.11h145.404V21.486H109zm10.53 189.026c-1.655 0-3.01-1.354-3.01-3.01 0-1.653 1.355-3.007 3.01-3.007 1.654 0 3.008 1.354 3.008 3.008 0 1.655-1.354 3.01-3.01 3.01zm0-52.145c-1.655 0-3.01-1.354-3.01-3.01 0-1.653 1.355-3.007 3.01-3.007 1.654 0 3.008 1.356 3.008 3.01 0 1.655-1.354 3.01-3.01 3.01zm0-52.145c-1.655 0-3.01-1.354-3.01-3.01 0-1.653 1.355-3.007 3.01-3.007 1.654 0 3.008 1.354 3.008 3.008 0 1.655-1.354 3.01-3.01 3.01zm0-62.173c-1.655 0-3.01-1.354-3.01-3.008 0-1.655 1.355-3.01 3.01-3.01 1.654 0 3.008 1.355 3.008 3.01 0 1.654-1.354 3.008-3.01 3.008z" stroke="#6C6B68" stroke-width="2"/><g><path fill="#E0B179" d="M215.455 55.876l-7.074 14.94-27.48 155.87 8.863 1.562L217.246 72.38"/><path d="M212.79 71.725l-25.34 143.712M210.89 71.39l-25.34 143.712M214.69 72.06l-25.34 143.712" opacity=".5" fill="gray" stroke="#000"/><path stroke="#000" stroke-width="2" d="M215.455 55.876l-7.074 14.94-27.48 155.87 8.863 1.562L217.246 72.38z"/><path stroke="#000" stroke-width="2" d="M215.455 55.876l-7.074 14.94-27.48 155.87 8.863 1.562L217.246 72.38z"/><path stroke="#000" stroke-width="2" fill="#E0C7AD" d="M217.245 72.38l-1.79-16.504-7.074 14.94z"/></g><g stroke="#000" stroke-width="2"><path fill="#4D4D4D" d="M46.96 43.28h39.325v22.473H46.96z"/><path fill="gray" d="M45.835 62.944h41.573v2.81H45.835z"/><path d="M58.195 62.944l4.55-34.832c.057-.56-.168-1.18-.674-1.404-1.627-.955-2.47-2.81-2.47-4.045 0-2.472 3.203-4.607 7.023-4.607m0-.056c3.764 0 7.022 2.247 7.022 4.83 0 1.406-1.01 2.98-2.47 3.822-.45.28-.732.842-.676 1.404l4.55 34.888"/><path fill="#4D4D4D" d="M52.42 144.525l38.09 9.773-5.584 21.766-38.09-9.773z"/><path fill="gray" d="M46.478 163.27l40.268 10.332-.698 2.72-40.268-10.33z"/><path d="M58.476 166.37l13.09-32.64c.225-.56.112-1.18-.28-1.573-1.35-1.292-1.743-3.314-1.406-4.55.618-2.416 4.27-3.652 7.922-2.697m0 0c3.595.955 6.236 3.933 5.618 6.405-.337 1.404-1.686 2.64-3.37 3.09-.507.168-.9.617-1.012 1.235l-4.27 34.944"/><path fill="#4D4D4D" d="M55.91 102.165l-37.926 10.4-5.944-21.67 37.926-10.402z"/><path fill="gray" d="M51.836 82.906L11.743 93.902 11 91.192l40.093-10.995z"/><path d="M39.88 86.146l4.832 34.832c.056.56.506 1.067 1.01 1.18 1.8.45 3.147 2.022 3.484 3.258.674 2.415-1.91 5.28-5.562 6.292m.057.056c-3.594 1.01-7.36-.337-8.032-2.81-.393-1.347.168-3.145 1.404-4.325.395-.395.507-1.013.282-1.575L23.702 90.64"/></g></g></svg>