<svg width="924" height="452" viewBox="0 0 924 452" xmlns="http://www.w3.org/2000/svg"><title>map</title><g fill="#FFF" fill-rule="nonzero"><path d="M669.2 236.1l-.6-2-1.4-1.8-2.4-.1-.4.5.2 1-.5 1-.8-.4-.7.4-1.2-.4-.4-2-.8-2 .4-1.5-.2-.4-1.2-.6.3-.5 1.5-1v-.6l-1.5-1.3.5-1.2 1.7 1 1 .2.2 1.5.4.4 5.8.6-.9 1.7-1.3.4-.7 1.5v.5l1.4 1.4.7-.2.5-1.4 1.2 4v1.2l-.4-.2-.4.3m-228.5-88.4l2 .2 2.2-.6 2.7 2-.3 1.7-.7.4-.2 1.3-1.7-1.2-1.4.1-2.8-2.7-1.2-.2-.2-.5 1.6-.6M432.7 254l-.2 1 .4 1.2 1.4 1.7.1 1.2.3.3 2.7.6v1.3l-.5.5-1 .2-.8 1.3-.7.2-3.3-.3-1 .4h-5.5l-.4.3.2 2.9-1.3-.5-1.2.1-.9.6-2.3-1.8-.2-1.1.7-1v-1l2-2 .4-1.8.4-.4 1.3.2 1.1-.5.5-.8 1.9-1 .5-1 2.3-1 1.2-.3.7.5h1.2m72-81.6l-.8 1-1 2.2.5 1.3-1.6-.2-2.6 1-.3 1.5-1.9.2-2-1-2 .8h-1.4l-.2-1.7-1-1v-.8l1.2-1.6v-.6l-1.2-1.3v-1l.9 1 .9-.2 2 .5 3.7.2 1.5-.8 2.7-.7 2.7 1.3m-29-4.7l2.2.5h1.8l1.5.7-.3.8v.4l1.1 1-.2 1-1.9 1.3-.4 1.4-1.7-1-1-1.1-2-2-1.8-2.2.3-.6.5.4h.5l.5-.6h1M726.3 280.6l.7-.6 1.5-1-.2 1.7h-.8l-.6.6-.6-.7zm-455.4 69l-3.2-.3-.4.2-.7 1.6-1.4-1.6-3.3-.6-2.5 2.4-1.3.3-1-3.3-1.2-3 .7-2.4-.1-.4-1.3-1-.3-2-1.1-1.6 1.4-2.6-1-2.4.5-1.1-.3-.8 1-1.3v-4l.6-1.2-1.9-3.5h2.6l.8-.8 3.5-2 2.7-.3-.2 1.4.3 1.1v2l2.8 2.4 3 .5.8.8 1.9.6 1 .8h1.7l1.2.6.7 2.8-.8.6 1 3 .4.3 4.4.1-.2 1.3.2 1 1.5 1 .5 1.3-.4 2-.7 1 .2 1.4-2.8-1.7h-2.5l-4.4.8-1.6 2.5v1.6l-.9 2.4zm531-178.5l2 .7 1.6-1 .4 2.5-3.5.7-2.3 3-3.7-2-.6.3-1.2 3-2.3.1-.3-2.6 1.1-2 2.6-.2.3-.3 1.3-6.1 2.6 2.7 2 1.2zm-7.7 21l-1 2.3.4 1.5-1.1 1.8-3.1 1.3-4.7.3-3.5 3.1-1.3-.8v-2l-.5-.4-4.5.7-3 1.3h-3l-.4.4.2.4 2.3 2-1.5 4.4-1.3 1-.8-.8.5-2.3-.2-.5-1.5-.7-.7-1.5 2.1-.8 1.3-1.8 2.5-1.4 2-2 4.8-.8 2.7.5.4-.2 2.5-4.8 1.3 1.1h.5l5.3-4 1.7-4-.4-3.4 1-1.7 2.1-.4 1.3 3.8v2.2l-2.4 3v3.2zm-16.2 9.2l.2.5-1 1.3-1.2-.7-1.4.6-.7 1.5-1-.5v-1l1.2-1.3h1.6l.9-1 1.4.6zM508.7 303l-1.1-3 1.1-.1.7-1.3.8.1.6 2-2.1 2.3zM441 262.3v.9l.5 1.3-.4 1 .1.7-1.8 2.2-.6 1.8v5.6l-1.5.2-.5-1.4v-5.9l-.5-.7-.2-1.4-1.5-1.5.2-1 1-.4.4-1 1.3-.3 1.2-1.4h.7l1.6 1.3zm226.7-43l.8.8-.1 1h-3.9l-1.6.4-2-1 1.6-2 1.1-.5 1.7.6h1.4l1 .7zM234.5 245.4l-.8.4-2.4-1 .9-.3 2.2.3 1.2.6h-1.1M496.8 338.6l2.4 4.2 2.9 2.9 1 .3.7 2.5 2.2.6 1 .8-3 1.7-2.4 2-1.6 2.8-1.5.5-.7 2-1.4.5-1.9-.1-1.2-.8-1.4-.3-1.2.7-.8 1.4-2.4 2-1.4.1-.4-.6.2-1.8-1.5-2.6-.7-.4v-7.3h2.2l.4-.5v-9.1l5.4-1 .8 1h.5l1.6-1 2.2-.5"/><path d="M267 282.2l3.2.7.7-.6 4.7-1.3 1-1.1v-.7h.6l.3.3-.3.9.3.5.7.3.4.8-.6.9-.4 2.2.8 2.6 1.8 1.5 1.4.2 3.3-1.7 3.3.3.6-.8-.3-1h2l2.4 1 1.1-.6.9.8 1.2-.2 1.2-1.1 1-2 1.3-2.2h.4l2 5.6 1.3.6v1.3l-1.8 2v.6l1 .9 4.3.3v2.2l.7.3 1.8-1.5 7.2 2.4 1 1.2-.3 1.2.5.6 2.8-.8 5 1.3h3.8l3.7 2 3.3 3 2 .7 2.2.1.7.6 1.3 4.7-1 4-4.9 5.2-1.6 3-1.8 2.1-.8.4-.8 2 .2 5-1 5.6-.8 1.2-.4 3.4-2.6 3.6-.4 2.6-2 1-.6 1.6h-2.7l-4 1-1.9 1.3-3 .8-3 2.3-2.3 2.9-.4 2 .4 1.7-.4 2.6-.5 1.3-1.8 1.5-2.9 5-3.9 3.5-1.3 2.8-1.2 1.2-.4-.9 1-1.2v-.5l-1.5-2-4.7-3.4h-1l-2.5-2h-.8l5.4-5.7 4-2.6.1-2.6-1.3-1.8h-1l.6-2.3v-1.6l-1.1-.9-1.8.3-.5-3.2-.5-1-2-.8-1.2.5-2.2-.5.1-3.3-.6-1.3.7-.8-.3-1.4.7-1.1.5-2.1-.7-1.9-1.4-.9-.2-.8.4-1.4-.4-.5h-4.7l-.7-2.4.6-.4v-1.1l-.6-1-.3-1.7-1.5-.8h-1.6l-1.1-.7-1.7-.5-1.1-1-2.8-.4-2.5-2.1.1-4.5-.5-.5-3.5.5-3.5 2-.7.8-3-.2-1.4.4-.8-.1.2-3.7-.7-.3-2 1.4h-1.9l-.8-1.2-1.4-.3.2-1-1.4-1.6-1-2 .7-.5v-.9l1.3-.6.2-.4-.2-1.3.6-.9.2-1 2.7-1.6 2-.5.5-.4 2 .1.5-.3 1.2-8.2-.4-1.6-1.1-1v-1.4l2-.5v-1l-.3-.4-1.2-.2v-.8h4.6l.8-.7.9 1.9h.8l1.2 1.2h2.3l.7-1 2.9-.9.5-1.2 1.6-.6.3-.5-.5-.8-2-.2-.3-3.3M232.4 229.6l-.5-1.2-.8-.7.4-1.2 1 2v1.1zm-.8-7.6l-2 .3v-.3l.8-.1h1.2zM507 131.5l.3.7.5.3 1.2-.4 2.2.7.2 1.3-.5 1.3 1.6 2.3 1 .6.1.8 1.6.6.4.5-.5.5-2-.2-.7.4-.1.6 1 2.8-1.9.2-1 1v1.3h-2.8l-.6-.7h-.5l-.8.4-1-.4-1.9-.1-2.8-.8-2.7-.3h-2l-1.6 1h-.7v-1.2l-.6-1.2 1.4-1v-1.3l-.8-1.4v-1h2.2l2.8-1.4.8-2.1 2-1 .1-.5-.2-1.3 4-1.8 2.3.8zM203.3 250.7l.1-4.6.7-.1.8-1.3.3.3-.4 1.3.2.6-.4 2.3-1.3 1.4z"/><path d="M504.7 118l2.6-1.8v-.7L505 114l7.5-7 1-2.1v-.5l-3.6-2.6.9-2.8-2.2-2.9 1.6-3.7-2.8-4.7 2.2-3-.1-.6-3.8-2.8.4-2.6 1.8-.4 4.4-1.8 2.5-1.5 4.1 2.7 7 1 9.6 5 1.8 2 .2 2.5-2.6 2-4 1.1-11.4-3.2-2.1.6-.2.7 4 3 .4 6 .3.4 5.2 2.3.6-.3.4-2-1.4-1.8 1.1-1.2 6.3 2.5 2.2-1 .2-.5-1.6-2.8 5.6-3.8 2.1.2 2.3 1.4.6-.1 1.5-3v-.4l-2-2.4 1.1-2.4-1.3-2.3 6 1.2 1 1.8-2.6.4-.3.4v2.4l2.5 2 4-1 .9-2.9 14-5.8 1 .1-2 2.1.3.7 3.2.5 2-1.5 4.8-.2 3.7-1.7 2.7 2.5h.6l3-3-.1-.6-2.4-2.3 1-1 7.2 1.3 3.5 1.4 9.3 5h.6l1.7-2.4v-.5l-2.6-2.3V77l-.4-.4-2.6-.3.7-2-1.4-3.6v-1.2l4.6-4.2 1.7-4.4 1.6-.8 6.4 1.2.5 2.3-2.4 3.7.1.5 1.5 1.4.8 3.1-.6 6.2 2.8 3-1 2.5-5 6.2.2.6 3 .6.4-.1 1-1.5 2.7-1 .9-2.3 2.1-2v-.6l-1.3-2.3 1.1-2.8-.3-.5-2.6-.4-.5-2 2-4.6V71l-3-3.5 4.2-3 .1-.4-.5-3h.5l1.2 2.3-1 4.5.3.4 2.7.9.6-.5-1-3.1 3.8-1.7 5.1-.2 4.7 2.6h.5v-.5l-2.2-4-.2-4.7 4-1 6.2.3 5.6-.7.3-.7-1.9-2.3 2.7-3 3-.2 4.8-2.5 6.8-.7 1-1.5 6.4-.4 2.4 1.1 5.7-2.8 4.6.1.4-.3.7-2.2 2.3-2.2 5.8-2.1 3.3 1.3-2.5 1-.2.4.3.4 5.6.7.6 2.4.6.3 2.2-1.3 7.4.1 5.6 2.5 1.9 1.8-.6 2.3-9.4 4.3-2 1.5.2.8 6.9 2 2.2-.9 1.2 2.8.7.1 1-1.1 4-.8 7.8.8.6 2 .3.4 10.8.7.4-.4.2-3.3 5 .8h4l4 2.4 1 2.8-1.4 1.8v.6l3.3 3.7 4.2 2 .5-.2 2.3-4.6 4 2 4.3-1.2 4.9 1.4 2-1.3 4.1.6.5-.5-1.8-4.2 3-1.8 23 3.1 2.1 2.8 6.8 3.6 10.5-.8 5 .8 1.9 1.7-.3 3.1.2.4 3.2 1.3 3.6-.9h4.5l5 .8 4.6-.5 4.4 4h.4l3.2-1.4.2-.7-2-2.6 1-1.6 7.8 1.2 5.4-.2 7.3 2.1 9.8 5.4 6.5 4.2-.2 2.4 2 1.5.6-.4-.5-2.6 6.3.5 4.5 3.6-2 1.5-4.1.4-.4.4v4l-.8.6-2.1-.2-2-1.4-3.2-1.1-.8-2-2.8-.6-2.7.5-1-1.1.4-1.4-.5-.5-3.1 1-.2.6 1 1.7-1.3 1.6-3 1.7-3.3-.3-.4.2v.5l2.4 2.1 1.5 3.3 1.1 1.2.3 1.3-.5.7-4.7-.8-7.2 3-2.2.4-7.8 5.2-.9 1.5-3.7-2.4-6.4 2.9-1-1.2h-.5l-2.3 1.5-3.3-.5-.5.3-.8 2.4-3.1 3.9v1.5l.4.4 2.6.7-.3 4.6-2 .2-.4.2-1 3 .7 1.5-4 1.7-1 4-3.6.8-.3.3-.8 3.4-3.1 2.7-.8-1.8-2.5-12.8 1.2-4.8 2.1-2.1.2-1.7 4-.9 4.5-4.7 4.4-4 4.6-3 2.2-5.8-.4-.5-3.1.3-1.8 3.4-6 4-2-4.4-.4-.2-6.6 1.3-6.7 6.6v.6l1.6 1.8-8.4 1.2.1-2.3-.3-.4-4-.6-3.4 1.9-7.8-.7-8.7 1.2-18.1 15.9.2.7 3.8.4 1.4 2.2 2.5.8 2-1.7 2.4.2 3.5 3.6v2.7l-2 3.5-.1 4-1.2 5.2-3.8 4.7-.9 2.2-8.5 9.2-3.2 1.7H774l-1.5-1.4h-.5l-2.3 1.5.4-3.7-.6-2.5 1.8-1 3 .6.4-.2 1.7-3.1 1-3.6 1-1.2 1.3-3-.5-.5-4.2 1-2.3 1.2h-3.5l-1-3-3.1-2.3-4.4-1.1-1.8-5.2-2.7-5.2-2.4-1.3-3.8-1h-3.6l-3.2.7-2.3 1.8v.7l1.2.7v1.5l-1.3 1-2.3 3.6v1.5l-3.3 1.9-3-1.2-3 .2-1.4-1-1.5-.4-4 2.4-3.4.5-2.3.8-3.1-.5h-2.3l-1.5-1.6-2.7-1.7-2.7-.4-5.6 1-3.3-1.3-.7-2.6-5.4-1.3-2.8-1.4-.5.1-2.7 3.6.9 2.1-2.1 2-3.5-.8-2.5-.1-1.9-1.6h-2.6l-2.5-1-4 1.6-4.8 2.8-3.4.8-1.5-2-3.1.4-1.2-1.3-1.6-.6-1.4-2-1.4-.7-3.8.9-3.4-2-.5.2-1 1.3-5.5-8.2-3-2.6.7-.8v-.5l-.5-.1-6.4 3.3-1.9.1.2-1.4-.3-.4-3.3-1.2-2.5.7-.7-3.3-.4-.3-4.6-.7-2.5 1.5-6.4 1.3-1.3.9-9.8 1.3-1.1 1.2v.5l1.4 2-2 .7-.1.6.3.6-2.2 1.5v.7l3.9 2.1-.4 1h-3.3l-.9.8-3.2-1.6h-4l-2.8 1.4-8.5-3.6h-4.2l-5.5 3.8-.4 2-2.1-1.5-.6.2-2 3.6.5 1-1.3 2.2v.5l2.2 2.2h2l1.4 2-.2 1.4.3.5.8.3-.8 1.4-2.6.6-2.5 3.3v.5l2.2 2.8-.1 2.3 2.5 3.3-1.6 1.6h-.7l-1.7-1.9-2.3-.8-1-1.4-2.4-.6-1.5.4-.5-.5-3.6-1.5-5.9-1-.4.2-3-2.4-3-1.3-1.6-1.3 1.4-.4 2.1-2.7v-.6l-1-.8 3.2-1 .2-.5v-.7l-.5-.4-1.8.4v-.7l1.1-.7 2.7-.5.4-1.4-.5-1.6 1-1.6v-1.2l-.3-.4-3.8-1h-1.4l-1.5-1.5-2.2.4-2.9-1v-.6l-1-1.5-2-.3v-.6l.4-.5v-.6l-1.6-2h-3.7l-.9.8h-.5l-1-2.9h2.3l1-.8v-.6l-.9-1-1.4-.5v-.7l-1-.6-1.5-2 .5-1-.5-2.1-2.5-.9-1.3.3-.4-.7-2.6-.9-.7-2-.2-1.6-1-1 .8-1.1-.7-3.3 1.7-2-.1-.9h-.1zm264.5 57l-.6.5-.2.1v-.5h.8zm129-105.5l-5.8.5-.3-.8 3.3-2h2l3.2 1.2-2.4 1.1zm-79.5-20l-2.1 1.5-3.9-.5-4.4-1.8.4-1 10 1.9zm-14.1-2.4l-1.7 3.2-9.2-.1-4.2 1.1-4.7-3 1.2-3.1 3.1-1 6.7.3 8.8 2.6zm-5.6 91.3l-.6-1h.3l.3 1zm.1.5l1 3.6v3.5l1 3.4 2.2 5.2-3-.9-.4.3-1.6 4.8 2.5 3.6v1.1l-1.4-1.3-.6.1-1.1 1.7-.3-1.7.3-3.2-.3-3.5.6-2.5.1-4.5-1.5-3.5.2-4.4 2.2-1.5.1-.3zm-6.6-81l1.8-1.5 3-.4 3.4 1.8.1.6h-3.3l-5-.5zM702 31.7l-13.4 2 4.2-6.5 1.8-.6 1.8.3 6.2 3-.6 1.8zm-13.3-3.3l-5.2.7-7-1.6-4.1-2.1-2.2-4.3-2.6-.9 5.8-3.6 5.4-1.3 4.8 3 5.7 5.5-.6 4.6zM579.2 70.6l-.7.1-8-.6-1-2-4.3-1.3-.3-2 2.3-.9.3-.4v-2.4l4.9-4-.2-.8-1.5-.4L576 52l.2-.5-.6-2L581 47l8.4-3.4 8.5-1 4.5-2 4.7-.6 1.4 1.6-1.4 1.4-16.8 5-8.2 5-8 10 .7 4.2 4.3 3.3zm-15.8-51.9l-5.6 1.3-.6 1-2.7.9-2.1-1.1 1.1-1.5-.3-.7h-2.4l1.7-.4h3.6l.4 1.3.7.1 1.4-1.3 2.2-1 3 1-.4.5zm-73.3 117.8h-4.2l-2.6-.3.3-.9 3.3-1 3.3 1v1.2h-.1zM510.3 295.7l.7 1-.1 1.2h-1.7l-1 1.4h-1l.6-1.3v-1.4l.5-.4.7.1 1.2-.6M482 168.1l.4-.5v-.5l-1.1-1.7 1.4-.6 1.4.1 1.2 1 .5 1.2 1.3.7.4 1.4 1.5 1 .8-.4.2.7-.5.8.2 1.2 1 1.2-.7.9-.4 1.5h-1.2l.2-.6-.4-.5-2.1-1.7h-1l-.4 1-2.2-1.4.5-1.6-1.1-1.4.5-1.2-.4-.6"/><path d="M500 132.5v1.2l-1.8 1-.7 2-2.5 1.3h-2.2l-.8-1.1-1-.3-.1-2-3.7-1.1-.4-2.5 2.5-1 4.2.3 2.4-.3.5.7 1.3.2 2.2 1.6m-52.2 20.7h-.5l.3-1.4.3.4v1M410 272.8l.2 1.6-.5 1v.5l2.6 1.9-.3 2.8-2.7-1.1-6-4.8.6-1.3 2.2-2.4.9-.2.8 1.1-.2 1 .6.8 1 .2.8-1M500.5 158l.6.3 3 4-.2 2.8.5 1.5 1.3.8 1.4-.4.8.3v.4l-.8.4-.6-.2-.6.3-.6 3.4-1-.2-2.2-1.2-3 .7-1.3.8-3.6-.1-2-.5-.8.1-.9-1.3.3-.3v-.6l-1.1-.4-.6.5-1.1-.6-.4-1.4-1.4-.7-.4-1-.8-.8 1.6-.6 2.7-4.3 2.5-1.3 3 .4 1.5.7.8-.4 1.9-.3.7-.8h.8M396.5 260.1l-.3.9.2.6-2.3.6-.9 1-1-.8-1.2-.3-.5-1-.7-.6 2.5-.5 4.2.1m-196.2-3.9l-2.6-.4-1-.4-1.2-1 .3-1-.2-.7 1-1.7h3l.4-.4-.2-1.3-1.7-1.4.5-.4v-1.1h4l-.2 4.7.4.4 1.5.4-1.5 1-.4.7.1.6-2.2 2M500 179l-.5 1.5-.4.2-3-.4-3 .8-.2.7 1.3 1.3-.7.2h-1.1L491 182h-.6l-.5 1 .5 1.9 1 1.2-.5.4v.6l2.5 2.2v.9l-1.8-.6-.5.6.6 1-1.1.2-.3.5.7 2.1h-1l-1.9-1.1-1.4-4.3-2.3-3v-.6l1-1.4.2-1 .9-.6v-.5l1.4-.2 1-.7 1.3.1.6-.6h2.3l2-.7 1.8 1 2.4-.3.3-.4v-.8l.4.2zm-6.7 18l.6.5-.7-.2.1-.2zm2 .7h2.7l.2.4-2 .2-.8-.6zM460.8 286.8v2.3h-4.2l.7-2.3h3.5m-176-9.8l-.3 2-1.4.5-.2.5-.3 2 1.2 1.9.8.2.3 1.3 1.2 1.6-1.2-.2-1.2.8-1.8.5-.4.5-1-.1-1.3-1-.8-2.4.4-2 .7-1.2-.6-1.2-.7-.5v-1.1l-.8-.8-1.2.1-1.3-1.5.5-.7v-.9l2-.9v-.6l-.6-.8.1-.6 1.7-1.2 1.4.8 1.5 1.5v1.2l.4.4h.8l2.1 2m250.8-103.9l5.5 1 4.1 2 1.5-.5 2.1.6.7 1.1 1.1.6-.1.6 1 1.3-1-.1-2-.9-.9.5-3.3.5-2.3-1.5h-2.4l.2-1-.8-2.2-1.5-1.2-1.5-.4-.4-.4M423.6 121.7l-2.2 3.3v.4l5.2-.3-.5 2.5-2.3 3.2.3.6 2.5.2 2.3 4.4 1.9.7 2.2 5.3 3 .8-.2 1.6-1.2 1v.5l.8 1.4-2 1.5h-3.3l-4.3.9-1-.6h-.5l-1.6 1.5-2.1-.4-2 1.3-.6-.3 3.3-3.1 2.2-.7.3-.4-.3-.4-3.9-.6-.4-.7 2.3-1 .1-.6-1.2-1.7.3-1.7 3.5.3.4-.4.4-2-1.8-2.6-3.2-.7-.4-.6.8-1.4v-.5l-.9-1h-.6l-.7.9-.1-2.4-1.3-2 1-3.5 1.7-2.7 2 .2 2.2-.2zm-6.5 14.5l-1 1.8-1.7-.6h-1.1l.3-1.6-.4-1.4 1.5-.1 2.4 1.9z"/><path d="M465.3 286.7v1l.7 1.4 2.4.2-1 2.7 1.2 1.9.2 1.8-.3 1.5-.6 1H466l-1.2-1.2-.7.2-.1.9-1.5.2-1 .8-.2.5.8 1.4-1.4 1-4-4.4-1.5-2.6v-.6l.6-.8 1.1-3.6h4.3l.4-.4v-2.8l2.4.2 1.3-.2zm-63-26l.4.8 1.2-.4 1 .8 1 .2 2.4-1.3.7.5 1.1 1.6-.5 1.4.8.3v.5l.4.7-.3 1.4 1 2.7-1 .7v1.4h-.7l-1 1-.3-.3v-1.1l-1-1.6-1.9.2-.3-2-1.7-2.3h-2l-1.4.6-2 2.2-1.9-2.2-1.2-.8-.3-1.2-.9-.8.7-.8h.8l1.7-.8.3-2 2.7.7 1-.3 1.2.2zm-12.9-2.8l.1-.4h2.5l.8-.7h.5l.8.5-1-.3-2 .9h-1.7zm4.9-.5h1l.7-.2-.6.3-1.1-.1zM362.4 1l15.1 4.8-3.8 2-23.5.8-.4.3.1.4 1.6 1.3 9-.7 7.7 2.1 5-1.8 1.7 1.8-2.6 3.2v.5l.5.2 6.5-2.3 12.4-2.3 7.4 1.1 1.1 2-10 4.2-1.5 1.3-8.1 1-.4.5.4.3 5.2.3-2.6 3.7-2 3.9v6.2l2.6 3.2-3.3.2-4.2 1.7v.7l4.5 2.7.5 3.9-2.3.4-.3.7 2.9 3.8-5 .3-.3.3.1.4 2.7 1.9-.6 1.2-3.4.7h-3.5l-.3.8 3.1 3.2v1.3l-4.5-1.7-1.8 1.3.2.7 3.4 1.2 3.2 2.8.8 3.2-4 .8-5-4.4h-.4l-.2.4.8 3-2.8 2.2-.1.5.4.3 9 .3-12.7 6.8-7.4 1.6h-3l-2.8 1.8-3.5 4.6-5.4 2.9-1.8.2-7.3 2.1-2.2 2.6-.1 3-1.3 2.6-4 3.2-.2.4 1 3-2.4 6.7-3.1.2-4-3.2h-5l-2.3-2-1.7-3.9-4.4-5-1.3-2.5-.4-4-3.4-3.6.8-3-1.6-1.7 2.4-4.7 3.9-1.8 1-2 .6-3.6-.6-.4-4.3 2.2-2.1.6-2.8-1.3-.2-2.8.9-2.1h2l5.3 1.2.4-.3-.1-.5-6.7-4.6-2.8.6-1.6-.9 2.6-4v-.6l-1.5-1.8-5.2-8.7-3.2-2v-2l-.2-.3-7-3.1-5.5-.4-13 .6-3-1.6-3.7-2.9 6-1.5 5-.2.4-.4-.3-.5-11-1.4-5.4-2 .2-1.7 19-5.4 1.2-2.3-.3-.6-6.3-1.9 1.8-1.8 8.7-4.1 3.7-.7.3-.5-.9-2.4 5.6-1.5 7.9-1h7.7l3.2 1.9 6.6-3.4 6 2.3 3.6.5 5.3 2 .6-.2-.2-.5-5.9-3.2.3-2.2 8.3-3.7 9 .3L333 .9l9-.6 20.4.8V1zm192.8 212.2l.4 1-.2.7.7 1.6h-1l-.9-1.3-1.6-.2 1.4-2 1.2.2zM431.7 264.1v.8l1 1.2.3 3.8.6 1-.6 2.2.2 1.4 1 2.3-7 3-2-.7.1-.9-1-2 .6-2.8 1.1-2.4-1-6.6h5.2l1-.4.6.2M583.2 236.9l-.9 1.7h-1.2l-.7.8-.4 1.5.3 1.7H579l-1.6 1-.8 1.8h-1.6l-1 .7-.2 1.2-1 .5-1.5-.2-2.4 1-2.6-5.5 7.6-2.8 1.7-5.4-1.2-2.1v-.9l.8-1v-1l1-.5v-2.1h.6l1 1.6 1.6 1.1 3.4.9 1.8 2.3.8.4-1.2 2.4-1 .8m-38 28.8l1.6.1 5.2-1 5.5-1.5v4.6l-2.8 3.4H553l-8.2-3-2.6-3.2 1.1-1.8 2 2.4M485.5 177l-1.1-1.3 1-.8.3-.9 2 1.7-.4.7-1.8.6m47 29.5l-5.2 1.6-.2.7 2.2 2.4-.9 1.2-1.8.4-1.7 1.8-2.4-.4 1.2-4.4.6-4.2 2.9 1 4.6-2.8.8 2.7M467.7 167h1.2l-.9 1-.3-1zm1.4 0l.7-.4 1.8.5.4-.4v-.6l.9-.6.2-1 1.6-.8 2.7 1.8 2.1.6.9-.3 1 1.6-.5.6-1-.5H478l-2.1-.5h-1.3l-.6.6-.6-.5-.7.1-.4 1.8 1.8 2.5 2.9 2.8-1.3-1-2.2-.8-1.7-1.8.1-.7-1-1.2-.4-1.3-1.5-.4zM243.4 244.5l-1.2.4-1-.5.1-.2 2 .3zm.5 0l1 .2-1-.1zm1.7 0l.8-.4.1-.7-1-1v-.9l-.3-.4-1-.3 3.3.5v1.9l-.5.3-.1.6.6.7-1.9-.2zM474.4 161.9l.7-1.7-.1-.4h.6l.4-.4.1-.7 1.8 1 2.4-.5.5-.6 3.5-.8.7-.8.6-.2 2.7 1 .7-.3 1 .7.1.4-1.5.7-2.6 4.3-1.9.5-1.7-.1-2.8 1.3-2-.6-2.5-1.7-.7-1.1M205 256l-1.8-1.3v-1l3.2-2.2 2.4.3h1.3l1.1-.6 1.4.3 1.1-.3 1.4.4 2.3 1.4-2.4 1-1.2-.4-1 1.3-1.3 1-1-.2-.4.5h-1l-.4.5v1l-.5.5h-.3l-.3-.5-.6-.3v-.7l-.4-.7-1-.2-.7.2zm58-11.1l-.3.2h-2.9v-.5h2l1.2.3zm259.8-36.6v-.1zm.1-.2v-.7l-.3-.1.3-1.1h.2l-.2 1.9zM412.6 192.1l-.7.5-1.2-.3-.9.1.3-1.8-.3-1.8-1.2-.6-.5-.8.2-1.8 1-1.2.7-3V180l-.6-2 1.3-.8.9 1.4 3.2-.3.4 1-1 1v2.2l-.5.5v1.2l-.9.2-.3.6 1 1.6-.7 1.8.8 1.1-1.1 1.6v1M282.2 345l.8 1.5-.2 3.6.4.4 2.7.5 1.1-.5 1.4.6.4.6.6 3.5 1.3.5 1-.4.5.2v1.3l-1.3 5.4-2.1 2-1.8.4-4.9-1 2.3-3.8-.4-1.5-2.8-1.3-3.1-2-2.1-.5-4.5-4.1 1-3v-1.5l1.1-2 4.3-.8h2.2l2.1 1.2v.6M219.5 270.5l.3-1.6-.4-.2v-.5l.4-.2 1 1.5h1.3l.8.5 1.4-.2 2.6-1.2.9-.7 3.5.9 1.4 1.2.5 1.8-.3.3-.5-.1-.5.3-.2.6-.7-1.3.5-.5-.2-.7-.5-.1-.5-.9-1.6-.7-1 .1-.9 1-1.6.9-.2 1 .9 1-.6.4-.7.1-.4-1.2H223l-.7-1-2.7-.5zm610.6 36.1l2.6 2.6v.3l-.4.1-1-.8-1.2-2.2zm-7.3-6l.5.3.3.3-.5-.4-.3-.2zm1.8 1.6l.6.5v1.1l-.2-1-.4-.6zm-6.7 4l.6.7 1.4-.2 2.4-1.8v-1.5l1.1.2v1l-.8 1.4-1.1.2-.7.8-2.5 1.1h-1.2l-3.1-1.3h3.5l.4-.7zm-7.7 5.2l2.4 1.9 1.6 2.6 1.4.2v.7l.2.4 1.1.2v.7l2.4 1-1.3.2-.7-.6-4.7-.7-3.3-3-1.5-2.3-3.4-1.2-2.4.8-1.6.8-.3.5.3 1.6-1.6.7-1.4-.4-2.2-.1-.1-15.9 8.6 3 3 2.5.6 1.7 4.2 1.5.3.7-1.8.2-.4.6.6 1.7zM251.5 303l-1.3-.1-.6.4-2 .5-3 1.8-.4 1.4-.6.8.1 1.4-1.2.6-.3 1.3-.6.8 1 2.3 1.4 1.5-.4.9.3.6 1.5.1 1.2 1.4h2.3l1.6-1-.1 3 .3.5 1.2.3 1.3-.4 2 3.7-.5.9-.2 4-1 1.6.4.8-.5 1 1 2-2.1 4-1 .5-2.3-1.3-.4-1.2-5-2.6-4.6-3-2-1.5-.8-1.9.3-1-2.2-3.4-5-9.9-1-1.2-1-2-3.4-2.6.6-1.2-1.2-2.3.7-1.5 1.5-1.2-.6 1v1l.5.3h1.8l1 1.3h.6l1.4-1 .6-1.9 1.5-2 3.1-1.1 2.8-2.7 1-1.8-.2-2 1.5 1.1 1 1.3 1 .6 1.7 2.8 2 .3 1.4-.6 1 .4 1.4-.2 1.5 1-1.4 2.2.3.6h.6l.5.6zM631.5 197.2l-1.9 1.9-2.7.4-3.8-.7-1.6 1.4-.1.4 1.8 4.5 1.8 1.3-1.8 1.3-.1 2.2-2.4 2.7-1.6 2.9-2.6 2.7h-3l-2.9 2.8v.6l1.6 1.2.3 2 1.4 1.5.4 1.7h-5.1l-1.9 1.7-1.4-.5-.8-2-2.3-2.1-12 .9.8-2.4 3.5-1.4.3-.5-.3-1.2-1.2-.7-.3-2.5-2.3-1.2-1.3-2 2.9 1 2.6-.4 1.5.3.8-.5 1.7.2 3.4-1.2.3-.4V211l1.2-1.4h1.8l.6-.8 1.6-.3 1.2.1 1-.8v-2l1-1.4 1.5-.7.2-.6-.6-1.2 2-.2.8-1v-1.2l1-1-.1-1.9-.5-1 1.2-1 5.5-1 2.7-.8 1.7 1.2 1 2.4 3.5 1M756.7 270.6l.4 3.1-.5 1.2-.6-1.6-.6-.1-1.2 1.3.6 2.2-.4.7-2.6-1.3-.5-1.5.6-1v-.6l-1.7-1.3-.6.1-.6 1h-1.3l-1.6 1 .8-2 2.7-1.4.6.9.5.1 2-.7.5-1.1 1.5-.1.4-.5v-1.2l1.2.8.4 2zm-3.5-7.4v1l-.7-.4-.2-.7h.9zm.5-.5l-.2-1.1-1-1.4h1.4l.5.8.6 2.1-1.3-.4zm-.4 1.6l.4 1-.3.2v-1.2zm-9.3-19.7l1.5.7.7-.3-.3 1.2.8 1.7-.6 1.9-1.6 1-.4 2.4.6 2 1.7.7 1.2-.3 2.8 1.2-.2 1.2.7.8v.4l-1.5-1-.9-1.2h-.7l-.3.5-1.7-1.3-2.2.4-.9-.5v-.6l.8-.5v-.7l-.8-.6-.8.5-.7-1-.4-2.5.3.3.7-.3.3-4 .7-2.1h1.2zm6.5 21l-.9.8-1.2 2-1-1.2.9-1.1.3-1.6h.5l-.2 1.2.2.4.5-.1 1-1.4v1zm-4.3-3.2l.9.4h1.2v.5l-2.1 1.4v-2.3zm-2-3.8l-.5 1.3-1.4-2h1.2l.6.7zm-8.5 10l1-1h.1l-.3.3-.8.7zm2.7-2.9l.9-1.6.1.8-1 .8zM480.9 153.2l-1.1-1.6-2-.3-.4-1.1-1.8-.4-.6.7-.8-.4.1-.6-.3-.5-1.8-.2-1-1-1-2 .1-1.2-.6-1.9-.8-1 .6-1.2-.5-1.4 1.4-.9 7.1-2.8 2.2.6.6.9 5.6.4h4.7l1 .3.6.9.1 1.6.7 1.2v1l-1.3.6-.2.6.7 1.5.1 1.6 1.3 2.8-.2.6-1.3.5-2.3 2.8.2 1-2-1.1-2 .4-1.5-.3-1.3.6-1-1-1.2.3zm37.5 44.6h.6l-.3.2-.3-.2zm-24 123.6l.3.3 2.6.2 1 1.2 2 .3 1.5-.6.7 1.2 1.9.3 1.8 2.4 2.3.2.4-.4-.2-2.8-.6-.3-.5.3-2-1.2.7-5.4-.5-1.2.6-1.4 3.7-.6.3.6 1.3.7.9-.3 2.2.7 1.4.8 1 1 .6 2-.9 2.7.5 2.1-.8 1-.8 2.4.6.7-6.7 1.8-.3.5.2 1.5-1.8.3-1.4 1.1-.4.9-1 .3-3.5 3.7-4.3-.5-1.5-1-1.8-.2-2 .6-3-3.5V326h5l.4-.5-.2-.8.4-.8-.4-1.4.2-1zm-99.7-85.2l.2-.8 1.1-1.3.8-3.6 3.5-2.9.7-1.9v5l-2 .2-1 1.6.5 3.7h-3.8zm7.8-12.5l.7-1.9 1.8-.2 2.1.3 1-.6h1.3v2.5l-7-.1zm96.2-105.8l2.7.6 2.6.1-1.6 2 .6 3.6-.8.9h-1.9l-3.3-1.8-1.8.4.2-1.5-.6-.5-.7.4-1.3-1-.2-1.7 3-1 3-.5zm6.5 92.4l1.5.4 3-1.7 2.1-.2 1.6.3.6 1.2h.7l.4-.6 1.9.6 2 .2 1-.6 1.5 4.2-2 4.7-1.8-1.8-1.8-4-.7-.1-.3.7 1 3 3.6 7 1.8 3.2 2 2.7-.3.6.3 2 2.7 2.3H497v-19.5l-.8-2.2.6-1.6-.3-1.3.7-1h3.1l5 1.5zM479.6 383l-.1-2-.7-1.7.7-.7-.1-2.4-4.7-8.4.8-.9.6.5.7 1.3 2.9.8 1.5-.3 2.3-1.4.2-9.8 1.4 2.3-.2 1.6.6 1.2.4.2 1.9-.3 2.6-2 .7-1.4 1-.5 2.3 1 2 .2 1.9-.7.9-2.2 1.4-.3 1.6-2.8 2.2-2 3.5-2 2 .6 1.1-.3 1 .2 1.8 5.4-.3 3.3-.9-.2-1 .5-.9 1.7v1.2l2 1.9 1.5-.3.7-1.2h1.1l-.8 3.8-.6 1-2.2 2-3.3 4.8-2.9 3-3.6 2.9-2.6 1-1.3.2-.5.7-1.2-.3-1.4.5-2.7-.5-1.6.3-1.3-.1-2.6 1.1-2.1.5-1.7 1-.8.1-1-.9-1-.1-1-1.2h-.2zm25-9.3l.6-1 1.5-.6 1.2-2.2v-.5l-2-1.8-1.8.6-1.5 1.2-1.3 1.7v.6l2 2.1 1.3-.1z"/><path d="M238 293l.3 1.5-.7 1.5-2.6 2.6-3.3 1.2-1.5 2.2-.5 1.7-1 .8-1.1-1.2-1.8-.1.7-1.2-.3-.9 1.3-2.2-.6-1.1h-.7l-.7.8-.9-.7.4-.7-.4-2 .8-.5.5-1.5 1-1.7-.1-1 2.7-1.3 2.8 1.4.8 1 2.2.4.8-.3 2 1.2zM483 176.1h.7l1 .9-.2 2 .4 1.3 1 .9-1.9 2.9-.2-.7-1.2-.9-.2-1.2.5-3-.5-1.4.6-.9zm-9 131.6l1.3 3.2 2 2.5 2.5-.6 1.3.3.4-.1 1-2 1.3-.1.4-.4h.5v.4l.3.5h2.7v1.2l.6 1-.4 1.6.2 1.6.8 1v3l.5.4 4-.5v1.9l.3 1-.2 1.5h-4.8l-.5.4v8.3l3 3.6-4 1-6-.4-2-1.3-10.7.2-1.4-1-1.9-.2-2.4.8-.2-1 .4-2.3 1-3.5 1.4-3.3 2.3-2.9.3-2.1-.1-1.6-.9-1.1-1.2-3 .9-1.6-1.3-4.2-1.2-1.6 2.5-.7h7.2v.1zm-10.1-1.2l-.5-1.3 1.3-1.1.3.3-1 1-.2 1.1zm103.7-129.3l.5-1.3-.5-1.1-3-1.2-1.1-2.7-1.4-.9v-.3l2 .3.4-.4.1-2 1.8-.5 2.2.5.5-.3.4-3.2-.4-2.1-.5-.3-2.5.1-2.4-.7-3 1.4-2.2.6-.8-.3.1-1.7-1.6-2.2H554l-1.8-2 1.3-2.2-.6-1 1.7-3 2.2 1.7.7-.2.3-2.3 5-3.5 3.8-.1 8.7 3.7 3-1.4h3.8l3.2 1.6h.5l.7-1 3.4.2.4-.2.6-1.7-.2-.5-3.6-2 2-1.3-.2-1 2-.8.2-.6-1.6-2.2.8-.8 9.5-1.2 1.4-1 6.3-1.2 2.4-1.5 4.1.7.8 3.5.5.3 2.6-.9 2.8 1-.2 1.7.5.4 2.6-.2 5-2.6v.3l3.3 2.7 5.7 8.7h.7l1.1-1.5 3.3 1.8 3.8-.8 1.2.5 1.2 1.9 1.9.7 1 1.4 3.4-.3 1 1.6-1.6 1.8-2 .3-.3.4-.1 3.1-1.2 1.2-4.9-1-.4.3-1.8 5.6-1.2.6-5 1.3-.3.5 2.2 5.1-1.4.7-.3.4.2 1.2-1-.3-1.4-1.2-8.1-.4-1 .3-3.8-1.2-1.4.6-.6 1.7-3.8-1-1.9.5-.8 1.5-4.8 2.6-1.1 2.2h-.5l-1-1.4-2.9-.1-.4-2.2-.4-.4h-.8v-3l-3.1-2.3-7.5.6-2.4-2.7-7-3.8-6.5 1.8-.3.4v11.2h-.7l-1.6-2.2-1.9-1-3.2.7-.7.5zm-37.7 76.9l1.1.8 1.7-.4.7.5h1.7l2 1 1.8 1.7 1.7 2-1.6 2.2.2 1.7.4.4h2.1l-.4 1 3 3.8 8.5 3.1h1.4l-6.5 7h-3.2L542 281h-1.5l-1 .9h-1.3l-1.4-.9-2.3 1.1-.8 1-3.4-.4-3.2-2.1-1.8-.1-.6-.6v-1.3l-.3-.4-1.2-.4-1.5-2.6-1.2-.7-.5-1-1.3-1.3-1.2-.2.5-.8 1.5-.3.4-1v-2.2l.7-2.5 1-.7 1.5-3.1 1.6-1.4 1-2.6.4-2 2.6.6.5-.3.6-1.5zM512.2 350l-1.1-.3-1 .3-2.1-.4-1.6-1.2-1.9-.4-.6-1.4v-1l-.4-.3-1-.3-2.7-2.8-2-3.4 4 .5 3.8-4 1-.4.3-.8 1.3-1 1.5-.2.5 1 2-.1 1.8 1.2 1.1.2 1.1.6v3.1l-.6 3.9.4.9-.2 1.2-.4.4-.7 1.8-2.5 2.9m-85.1-176.5l1 1.2 4.8 1.4 1.1-.6 2.7 1.3 2.8-.3v1.2l-2.1 1.8-3.2.6-.4.4-.2.9-1.5 1.7-1 2.5.8 1.8-1.3 1.3-.5 1.7-2 .6-1.7 2.2H421l-1.8 1-1 1-.8-.1-.8-.8-.7-1.7-2.5-.6v-.5l1.2-1.9-.8-1.2.6-1.7-.8-1.6 1-.6v-1.2l.4-.7v-2.1l1-.7.2-.5-1-1.8-1.5-.1-.7.4h-1l-.6-1.3-.5-.2-1.4.7v-1.6l-.8-1 3.1-1.9 3.1.6h3.4l2.7.5h6.2"/><path d="M534.3 252.6l3.5 2.5 3.6 3.8.8.6h-1l-3.6-4-2.3-1.2h-1.8l-1-.6-1.3.5-1.3-1-.7.2-.6 1.6-2.4-.4-.2-.7 1.3-5.5.6-.6 2-.5 1-1 1.1 2.4.7 2.4 1.6 1.5m-52.9-75.7l-1.2-1 .4-2 1-.6 2.3 1.5-.5.6-.8-.3-1.2 1.8m20-19.3l1.5-.3 1.7 1 1.1.1 1 .7-.2.9 1 .8 1.1 2.6-1.2-.1-.7-.4-.5.2v1L505 166l-.3-1 .3-1.3-.2-1.6-3.4-4.5m59 169.8l.5 3.1.6 1.3-.2 1-.6-.8h-.7l-.5.8.4 2.1-.1 1-.8.7-.1 2.2-4.9 15.6-1 3-4.1 1.7-3.2-1.5-.6-1.3-.2-2.4-.9-2.2-.2-1.8.4-1.6 1.2-.8v-.8l1.3-2 .2-1.8-1.1-3-.2-2.3.8-1.4.4-1.5 4.7-1.2 3.6-3.1.8-1.5v-.7h.7l1.5-1.8v-1.7l.6-.6 1.1 1.7.7 1.6M388.9 236v-.7l1-.7.8-1.4V232l.7-1.8 1.4-1.6 1-.6.7-1.6V225l.9-1.5 1.7-1.1 1.6-2.8 1.2-1 2.5-.3 2-2 1.4-.7 2.1-2.4-.5-3.7 1.3-3.8 1.5-1.8 4.6-2.6 2.4-4.6h1.5l1.7 1.2 2.4-.2 3.6.7.8 1.6.1 1.7 1 3 .5.7-.3.6-3 .5-1.4 1-1.4.3-.3.3v1.9l-2.8 1-1.1 1.5-4.6 1.1-4.2 2-.5 4.8-1.2.1-1 .6-2-.3-2.4.5-.8 2-.9.4-1.2 3.3-3.6 3.1-.8 3.7-1 1-.3 1-5 .1M614.6 177.1l-1.7 1.6v.6l2 1.2 2-.7 2.3 1.2-2.6 1.8-2.7-.3-.1-.4.4-1.2-.4-.6-3.5.7-2.1 3.6-2-.1-1 1.5.2.6 1.7.6.5 2-1.3 2.5-2.7-.6v-1.4l-.2-.4-3.4-1.2-2.6-1.5-4.5-3.4-1.4-3.2-1.1-.6-2.7.1-.7-.4-.5-2.6-3.4-1.7h-.5l-2 1.8-2.2 1-.3.6.3 1h-2v-10.8l6.1-1.7 6.4 3.6 2.8 3 7.2-.7 2.8 2-.2 3 .4.3h1l.4 2.3.4.3h3l1 1.5 1.3-.2 1-2.1 4.6-2.6m77.3 59l-2 1.6-.6 1-1.5.6-1.4 1.1-2 .4-1.1 2.7-1 .4-.2.6 1.3 2.3 2.6 3.5-.8 2-.8.4-.2.6.7 1.4 1.7 2 .2 2.6 1 2.2-2 3.7.7-2.3-.9-1.8.2-2.8-1-1.5-1.3-6.4-1.2-2.3-.6-.1-4.5 3-2.4-.6.8-2.9-.5-2.7-2-3 .2-.8-.3-.5-1.3-.3-1.7-2V237l.8-.3V235l1-.5.3-.5-.3-1 .6-1v-2.2l1.6.5.5-.2 1.1-2.3.2-1.4 1.3-2.2v-1.6l3-1.7 1.7.5.5-.5-.2-1.4.7-.4v-1l.8-.1.8 1.3 1 .7v4l-2.4 2.4-.3 3.3.5.4 2.3-.4.5 2.2 1.5.7-.6 1.8.2.5 3 1.5 1.7-.6v.4m-288.7 24.5l-.2-2.4-1-.9-.5-1.3v-1.3l.8-.6.3-1.3 2.4.7 1.4-.5.9.1.7-.6h10l.4-.3.6-1.8-.4-.7-2.5-22.5h3.4l17.2 11.6.7 1.4 2.6 1v1.5l.4.4 2.4-.2v5.5l-1.3 1.7-.2 1.5-5.5.6-1 1h-3l-1-.5-1.3.4-2.5 1.1-.6.9-2 1.1-.4.7-.8.4-1.5-.2-.8.9-.3 1.7-2 2v1.1l-.8 1.2.2 1.2-1 .4-.3-.6-.5-.3-1.4.4-.3.6-2.8-.3-.4-.3v-1l-.6-.3.4-.7v-.5l-2.2-2.5h-.8l-2 1.2-.8-.2-.8-.7-1.3.3m291.6-110.5l3.9 1.7 5.8-1 2.4.4 2.4 1.5 1.9 1.8h2.3l3.2.5 2.5-.8 3.5-.6 3.7-2.3 1.3.3 1.5 1.2 2.4-.2-2.8 5.1.7 1.7.5.2 1.3-.4 2.5.5 2-1.1 1.8 1 2.2 2-.2.5-1.7-.3-4 .5-1.8 1-1.8 2-3.9 1.3-2.5 1.6-3.9-.9-.4.2-1.4 2 1.1 2.3-1.6 1-1.7 1.6-3 1-3.8.2-4.1 1-2.9 1.6-1.2-.9h-3l-3.7-1.8-2.7-.5-3.5.4-5.2-.7H680l-1.4-1.6-1.4-3-1.5-.4-3.2-2-6.4-1-.7-1 .9-4-2-2.7-3.6-1.2-2-1.7-.5-1.7 2.4-.6 4.9-2.8 3.7-1.6 2.2 1h2.6l1.8 1.7h2.6l4 .8 2.5-2.3v-.5l-.8-1.8 2.3-3 2.6 1.3 5.1 1.2.5 2.3M485.4 178.4l.5-.7 3.7-.8 1 .8.1 1.5-.6.6-1.2-.1-1.2.7-1.4.2-.8-.5-.3-1.1.2-.6"/><path d="M519 317.3l.9 2 .1 3-.7 1.7.7 1.8v1.3l.6.7v1l.5.6.8-.2.6.6.7-.2.3.6.2 3-1 .7-.6 1.3-1.2-1.1-.1-1.6.5-1.4-.3-1.3-1-.7-.9.1-2.4-1.7.6-2 .9-1.2-.5-2 1-3-1-2.6 1 .2.3.4m-100.8-91h-2.6l-.4.5 2.5 23.2.3.4-.4 1.3h-10l-.6.6-.9-.2-1.3.5-1.7-.7h-1l-.3.4-.4 1.3-.4.3-3-3.5-3-1.6h-1.7l-1.4.6-1.1-.2-.7.4v-.5l.7-1.4.3-2.5-.6-4 .2-1.2-.7-1.6-1.2-1 .3-.4h9.8l.4-.4-.4-3.8.4-1 2.2-.3.4-.4v-6.6l8 .1.3-.4v-3.4l8 5.5M511.8 283.5l.8-.5 1.7.5 2-.6h1.7l1.5-1 1 1.4 1.3 4-2.6 4.2-1.5-.4-2.6.9-1.4 1.7v.8h-2.5l-2.4 1-.1-1.6.6-1 .1-2 1.4-2.4 1.8-1.6-.1-.7-.8-.3.2-2.5zm224.8-3l-1.4.7-2.2-.4h-3l-.4.3-.8 2.8-1 1-1.3 3.3-1.7.5-2.6-.7-1.4.3-1.4 1.2-1.6-.1-1.4.4-1.5-1.2-.2-.8 1.4.6 2-.5.7-2.3 4.2-1 2.8-3.3.8 1 .7-.1.4-.7h1l.4-.3.3-2.7 1.8-1.7 1.3-2h.6l1.1 1.1.3 1.3 3.6 1.4v.4h-1.5l-.4.6.4 1zm-45-4l.2 1.2.5.3 1.7-.3.9-1 1.6 1.6 1 1.6v2.9l.3 2.3 1 1 1 2.5h-1.4l-5.2-3.7-.4-1.3-1.4-1.6-.3-2-1-1.5.3-1.7-.4-1.1 1.6.9zM136.7 205.5l.2.5 9.9 3.4h7.1l.4-.4v-.8h3.9l3.6 3 1.5 3 1.5 1 2.2.9.4-.2 1.5-2h1.8l1.6 1 2.2 3.4 1.5 1.6 1.3 3.2 2.2 1 2.3.6-1.2 3.9-.4 5.1 1.8 5 1.7 2 .6 1.5 1.2 1.5 2.7.7 1.4 1.1 7.7-2 2-1.3 1-4.4 4.3-1.2 3.7-.1.3.3v1l-1.4 1.4-.7 1.8.4.7-.7 2.3-.5-.3-1 .1-1 1.4h-.6l-.5.4h-4.4l-.4.4v1l-1.1.3v.5l2 1.5.5 1-3.2.1-1.3 2.2.3.7-.2.5-2.3-2.3-1.5-1-2.3-.6-1.6.2-3.1 1.2-10.9-4-2.9-2-3.9-1-1-1.2-2.8-1.4-1.2-1.6-.4-.8.7-.7-.2-.5.6-.8v-1l-2-3.9-2.4-2.7-2.6-2.1-1.2-1.7-2.2-1.2-.3-.4.3-1.5-.2-.5-1.3-.6-1.4-1.2-.6-1.9-1.6-.4-2.5-2.7-.1-.9-1.4-2-.9-2.1-.1-1.4-1.9-1.1h-1l-1.3-.7-.6.2-.4 1.2.7 3.9 3.6 4 .3.8.6.2.4 1.5 1.3 1.8 1.7 1.4.8 2.5 1.5 2.4v1.4l.5.4h1l1.8 2.4-1 .8-.6-1.6-1.7-1.6-3-1.9v-1.8l-.5-1.8-3-2h-.6l-2-1-.9-1 .7-.1 1-1v-1.9l-2-2-1.4-.8-3.9-7.7 5-.5m724.8 125.7l.2 1.2h-.4l-.2-1.5.4.3M456.3 177l-.6 1.8-.6-.3-.5-1.8.4-.9 1-.7.3 1.9zm-15.2-26.2l1.8 1.6 1.5-.1 2.2 1.4 1.4.3 1.2.9 3.1.5-1 1.9-.3 2.2-.4.3-1-.3-.5.5v.6l-1.8 2v1.4l.5.4.9-.3.6 1v1l.6 1-.8 1 .7 2.5 1.3.6-.2.8-2 1.6-5-.8-3.9 1-.5 1.9-2.6.3-2.8-1.3-1.2.6-4.4-1.3-.7-1 1.2-1.8.4-6.6-2.6-3.4-2-1.7-3.8-1.2-.2-1.8 2.9-.6 4.2.8.5-.5-.6-2.8 2 1 6-2.7.9-2.8 1.6-.5.3.8 1.4.4 1 1.2h.1zM296.7 285.6l-.8.8-.8.1-.5-.7h-.6l-1 .6-.4-.3 1.1-3-1-1.8-.1-1.6 1-1.8 2.4.8 2.6 2 .3.8-2.2 4zM505.3 78.2l-.2 3.6 3.6 2.7-2.2 3v.4l2.9 4.7-1.6 3.4 2.2 3.3-1 2.5.2.4 3.5 2.6-.8 1.7-7.7 7.1-4.6.3-4.5 1.4-4 .8-1.4-2-2.2-1.1.5-3.8-1.2-3.4 1-2.2 2.4-2.4 5.8-4.5 1.7-.8.2-.5-.5-2-3.5-2-.7-1.4-.3-7-7-4.9.9-.6 2.6 2.1h3.6l3 1 2.6-2.3 1.2-3.1 3.7-1.4 2.8 1.5-1 2.9zm389.5 256.6l-2.9 1v-.1l3-1.3-.1.4zm-4 3l.4.4-.3.9-1.3.3-1-.3-.2-.7.6-.5 1 .2.7-.3zM281.6 437l1.5 1-.5.8-3.1 1-1-1-.5-.1-2 1.3-.7-1 2.6-1.6 2 .8 1.7-1.2zM207.7 259.2l.9-.2 1-1v-1h.7l.6-.5 1 .2 1.6-1.3.6-1 1.2.4 2.5-1v1.3l-.7 2v2.8l-.3.4-.1 1.8-.5.9.2 1.1-1.8-.9-.7.3-1.5-.6-.6.2-4-4M441.8 147l.6-.5 2.2-5 3.3-1.3h1.8l.3.9-.6 3-.5 1h-1.3l-.4.5.3 2.7-2.2-1.8-2.7.6-.8-.1"/><path d="M504.5 69l7 3-2.3.8-.2.7 2.4 2.4-5.1 1.9.9-2.5-.2-.5-3.7-1.9-4 1.6-1.4 3.4-2.2 1.8-2.7-1-3.2.2-2.7-2.3h-.5l-1.5 1.1-1.5.2-.3.4-.4 2.5-4.4-.6-.4.3-.6 2.1-2.6.2-4.2 8-4 5.8.8 1.7-.7 1.2h-2.3l-.3.2-1.7 4 .1 5.3 1.6 2-.8 4.3-2 2.6-1 1.6-1.3-1.7-.6-.1-5 4.3-3.1.8-3.3-1.8-.9-3.8-.7-8.8 2.2-2.4 6.7-3.3 5.1-4.3 11-14.2 11.2-9 5.5-2 4.5.2 3.8-3.7 4.6.2 4.4-1zm-7-48.7l4.3 1.8-3.1 2.7-7.3.6-7.3-.9-.4-1.3-.4-.3-3.5-.1-2.1-2.1 7-1.5 4 1.4 2.5-1.7 6.3 1.4zm-3 14.3l-4.5 1.8-3.7-1 1.2-1V34l-1-1.3 4.3-1 1.1 2.1 2.6 1v-.1zM479 24.5l7.6 3.8-5.5 2-1.7 4.1-2.3 1.3-1.1 4.2-2.7.2-5-3 2-1.6-.1-.7-3.8-1.5-5-4.7-1.7-4 6.3-1.8 1.5 2 3.7-.1 1.2-2 3.4-.2 3.2 2zM487 339.2h-1l-.5.5v9.1l-2.2.1-.4.4v18l-2 1.2-1.2.2-2.5-.7-.5-1.2-1-.7h-.6l-1 1-1.5-1.7-1-2-2-8.7v-3.2l-.4-1.6-2.3-3.4-2-5-2-2.4-.1-1.7 2.3-.8 1.5.1 1.9 1.2 10.5-.3 1.9 1.3 6 .3zm.3 0l6.7-1.6 2 .4-1.8.4-1.3.8-1.2-1-4.4 1zm373.8 11l-.3.1-3-1.8-3.3-3.4 1.7.8 5 4.2zM467 232.2l1.3 1.4.5.1 1.3-.7.6 3.6 1 .9.1 1 .9.6-.5 1-1 5.4-.1 3.3-3.1 2.4-1.3 3.6 1 1.3v1.5l.5.4h1.1l-1 1.3-1.4-2.4-.9-.3-2.1 1.4-1.8-.7-1.5-.2-.9.4-1.4-.1-1.7 1.1h-1l-3-1.2-1.6.6h-1l-1-1-2.8-1-2.7.3-1 .6-.4 1.7-.8 1.2-.1 1.5-1.6-1.1-1.4.2v-.8l-.2-.4-2.7-.5-.2-1.2-1.3-1.7-.3-1v-.9h1.4l1.1-1 3.4-.2 2.3-.4.3-.4.2-1.5 1.5-2v-5.7l3.4-1.2 7.4-5.2 8.7-5 3.8 1z"/><path d="M468.5 260.4l.6.7-.2 1-2.2 2.1-2 5.3-1.5 1.2-1.2 3.3-1.3.7-1.5-1-1.3.2-1.4 1.3-1 .3-1.8 4.2-2.4.8h-1.1l-.9.4h-1.7l-1.3-1.4-.9-2-1.8-1.7h-4v-5.4l.5-1.5 2-2.3-.2-1 .5-1.2-.6-1.4.3-3 .7-1.1.3-1.4.5-.4 2.5-.3 2.4 1 1.2 1h1.3l1.3-.6 3.1 1.3 1.5-.1 1.4-1h1.4l.8-.3 3.6.8 1.8-1.4 2 2.8.6.1zm412.2 129.1l1.9 3.2.4.2.3-.4v-1.2l.5.3.6 2.3 2 1 1.9.3 1.6-1.1.7.2-1.2 3.7h-2l-.8 1.3.2 1.1-2.4 4.1-1.6 1-1-.9 1.2-2.1-.8-2-2.7-1.4v-.5l1.9-1.3.4-2.4-.1-2-1-2v-.7l-3.3-3.7-.8-1.6 1.6 1.5 1.8.7.7 2.4zm-4.1 14.4l.6 1.2.6.2 1.4-1 .5.8v1l-2.5 3.6-1.3 1.3v.5l.5.9h-1.5l-2.4 1.5-2 5.1-3.1 2.2h-2.2l-1.7-1-2.5-.3-.3-.8 1.2-2.1 3.2-3 1.6-.6 4.2-3 1.6-1.6 1-2.3 1-.7.5-1.8 1.2-1 .4.8zM658.2 219v3.3h-1.7l-5-.9-1.6-1.4-3.4-.4-7.9-3.8.8-2.1 2.4-1.7 1.8.7 2.6 1.8 1.4.5 1 1.3 2 .6 2 1.2 5.6.9zM418.3 266l.8.4.6 1 1.2.5 1.2-.7h1l1.5.5.6 3.3-1 2.2-.8 2.9 1.1 2.4v.5l-2.6-.5h-1.7l-3.2.5-4.2 1.7.3-3.2-1.2-1.3-1.3-.7.4-.9-.2-1.4.5-.7V271l.9-.3.2-.6-1.1-3v-.6l.6-.2.7.3h2l.7-.7.7-.1.2.7.6.2 1.5-.6M456.5 160.3l-.3.9.2.5 1.1.6 1 .1v.7l-.9.4-1.7-.4-.5.2-.5 1.1h-.7l-.9-.3-1.3 1-1 .1-1-.6-.8-1.3-.5-.2-.6.3v-.7l1.8-1.7v-.5h1l.6-.4h2l.7-.6 2.3.8m-208 101.2l-1.7.6-.6 1.2-1.8 1.8-.4 2-.7 1.4.4.6 1 .1.3 1 .6.6v2.4l1.6 1.5 3.3-.3 1.2.3 1.8 2.1.4.2 4.2-.4.4.2-.9 2-.2 1.8.5 2 .8 1-1.2 1.1.1.7.9.5.7 1.3-.4-.5h-.6l-.7.8h-4.8l-.4.4v1.6l.3.4 1.2.2-1.8.4-.3.4v1.9l1.2 1.1.4 1.3-1.1 7.2-1-.8 1.2-2-.1-.7-2.2-1.2-1.5.2-1.1-.4-1.3.6-1.6-.3-1.4-2.5-1.3-.7-.9-1.3-1.7-1.2-.9.1-2.1-1.3-1 .3-2-.3-.5-1-3.1-1.7.8-.5-.1-1.1.4-.7 1.4-.3 2-3-.1-.6-.7-.4.4-1.4-.5-2.2.5-.8-.4-2.2-1-1.4.2-.7h.8l.5-.8-.5-1.7h1.5l1.8-1.8 1-.3.3-.4.5-2.8 1.2-1h1.5l.5-.6 2 .1 3-1.8 1.1-1.2 1 .5-.3.4"/><path d="M760 152.7l4.7 1.3 2.8 2.3 1 3 .4.2h4l2.3-1.3 3.4-.8-1 2.2-1 1.3-1 3.5-1.5 2.8-2.8-.5-2.5 1.1-.2.5.7 2.6-.4 3.3h-1l-.3 1-1-1h-.6l-1 1.7-3.8 1.2-.2.5.2 1.1h-1.5l-1.1-1-.6.1-1.7 2.1-2.8 1.6-2 2-3.6.8-2 1.5-1.1.3.3-.7-.4-1 1.8-1.8v-.5l-1.3-1.6-.5-.1-2.3 1-2.9 2.2-1.6 1.9-2.3.1-1.6 1.6v.5l1.3 2 2 .6.4 1.4 2 .8 3.1-2 2 1 1.6.2.2.8-3.4 1-1.2 1.4-2.6 1.6-1.3 2 .2.6 2.6 1.5 1 2.8 3.3 4.8v1.7l-1.5.6-.2.5.6 1.6 1.5.9-1 4-1.4.3-4 6.6-2.3 3.2-7 4.7-2.7.3-1.5 1-.7-.6h-.5l-1.4 1.3-3.5 1.3-2.7.4-1.1 2.9h-.8l-.5-1.4.5-.8-.3-.6-3.4-1-1.4.5-2.3-.6-1-.9.3-1.3-.3-.5-2.2-.5-1.2-1h-.5l-2 1.4-4.5.3-2.8 1.1-.3.4.3 2.6h-.6l-.2-1.4-.6-.3-1.7.7-2.5-1.3.6-1.9-.2-.5-1.4-.5-.6-2.2-.5-.3-2.1.3.2-2.5 2.5-2.5v-4.4l-1.2-1-.8-1.5-.4-.2-1.5.2-2-.3.4-1.1-1.2-1.8h-.5l-1.7 1-2.3-.6-3 1.8-2.3 2-1.8.3-1.2-.7-3.4-.7-1.5.8-1 1.3-.2-1.2-.5-.3-1.5.5-5.7-.8-2-1.2-2-.6-1-1.4-1.4-.4-2.6-1.8-2-.9-1.3.6-5.7-3.5-.6-2.4 1.3.3.4-.4.1-1.5-1-1.6.2-2.5-2.8-3.4-4.2-1.3-.7-2-2-1.5-.4-.7-.5-3.1-1.6-.7-.7.1-.5-2 .6-.6v-.8l2-1.3 1.6-.5 2.7.4.4-.3.9-1.7 3-.3 1.2-1.3 4.1-1.9.4-.9-.1-1.5 1.5-.7.2-.5-2.2-5 4.7-1.2 1.4-.7 2-5.7 5 1 1.6-1.8v-3l2.1-.4 2-2 .4-.2.7 2.1 2.3 1.8 3.5 1.2 1.6 2.4-1 3.6 1 1.7 6.8 1.1 3 2 1.5.3 1.1 2.7 1.6 2h3.1l5.3.7 3.4-.4 2.5.4 3.7 1.9h3.2l1.4 1 3-1.7 4-1 4-.2 3.1-1.2 1.8-1.6 1.8-1 .2-.5-1.2-2.1 1-1.6 4.2.8 2.5-1.7 3.9-1.2 2-2.2 1.7-.8 3.6-.4 2 .3.4-.3.2-1.5-2.3-2.3-2.2-1.1-2.2 1.1-2.4-.5-1.3.4-.4-.9 2.8-5.3 3 1.1 3.7-2.1.2-1.7 2.2-3.5 1.5-1.4v-1.9l-1.1-.8 1.6-1.3 3-.6 3.3-.1 3.8 1 2 1.2 3.4 6.9 1 3.3zm-44.5 90.7l-2 1.1-1.6-.6V242l1-1 2.7-.7h1.1l.4.6-1 1.1-.6 1.4zM470.1 264.1l1.1 2-1.4.2-1.1-.3-.5.2-.5 1.3v.4l1.6 1.5 1 .5 1 2.5-1.5 3-.7.8-.1 3.8 2.4 4 1.2.7.2 2.6-3.8-1.2-11.5-.1.2-1.9-1-1.7-1.2-.5-.5-1-.6-.4 1.8-4.4.7-.2 1.5-1.4h.6l1.8 1 2-1.1 1.1-3.3 1.4-1.2 2.1-5.3 2.2-2.2.3-1.6-.8-1v-.3l1 1.3v3.3zm-217 176.3l-3.3 1.9-.5 3.2h-.7l-2.7-1-3-2.4-3-2-.8-1.9.7-2.1-1.3-2.2-.3-5.5 1-3 2.7-2.5-.2-.7-3.2-.7 2-2.6.9-4.8 2.3 1 .6-.3 1.3-6.5-.2-.5-1.7-.8-.6.3-.7 3.5-.8-.3 1.6-9.6 1.1-2.3-.7-3-.2-2.8 1-.4 3.4-9.4 1.1-4.3-.6-4.3.8-2.4-.3-3.4 1.5-3.4 2.1-17-.7-8 1-.6.6-.9.8 1.2.4 1.8 1.3 1.2-.8 2.6 1.4 3 1 3.7.5.3 1.5-.3.1.2-.7 2.5-2.7 1.3-.2.4v4.4l-.4.8.6 1.2-1.7 1.6-1.7 2.7-.9 2.5.2 2.8-1.5 2.8 1.1 5.2.7.6v2.4l-1.4 2.8v2.4l-2 2.1v2.8l.8 2.7-1.5 1.1-1.3 5.9.4 3.6-1 .9.6 3.6 1 1.1-.6 1 .1.7 1 .5.2.7-1 .9.2 1.8-.9 4.1-1.3 2.8.2 1.8-.7 1.8-2 1.8.3 3.8.9 1.2h1.6v2.3l1 2 6.2.6zm2.2 1.6v7.6l.4.4h3.6l-.4.8-2 1-2.6-.4-1.9-1-2.6-.6-5.7-3.8-2.5-2.7 4.2 2.6 3.4 1.2h.5l1.3-1.7.9-2.4 2-1.2 1.4.3zm32.2-292.7l-1.7 3v.4h.6l1.5-1 1 .5-.6.7.2.7 2.3.9 1.4-.8 2 .8-.7 2.1.5.5 1.4-.4 1 3.2-1 2.5-.8.1-1.2-.5.4-2.3-.9-.8h-.5l-2.8 2.7h-.4l1-.8v-.8l-2.5-.7H280l-.2-.4 1.3-1v-.6l-.7-.6 2-1.8 2.5-5.3 1.6-1.8 2-1.1h.5l-1.6 2.6zM70.1 75.9l4.3 1 4.1 2.2 2.7.4 2.5-2 3-1.3 4 .5 3.7-2 4-1 1.6 1.7h.5l1.9-1 .7-2 1.2.3 4.3 4h.6l2.8-2.5.2 2.7.5.3 3.2-.7 1-1.3 2.9.2 4 2 6 1.6 3.5.7 2.5-.2 2.8 1.8-3 1.9-.3.4.4.3 4.6 1 7-.6 2.1-.7 2.6 2.5h.5l2.8-2.2v-.7l-2.2-1.5 1.2-1.1 5-.7 1.8 1 2.6 2.4 3-.3 4.7 2 4-.7 3.7.1.4-.4-.3-2.4 1.9-.7 3.6 1.4v3.9l.3.4.4-.3 1.5-3.2h1.8l.5-.2 1.1-4.5-2.8-3.2-3-1.8.3-4.8 2.8-3.1 3 .7 2.5 2 3.3 5-2 2 .1.6 4.5.9V81l.2.3h.5l3.1-3.3 2.6 2.5-.6 3.4 2.5 3h.6l2.7-3.2 2-4 .1-4.6 7 1 3.1 2 .2 1.9-1.8 2.2v.5l1.7 2.2-.3 1.8-4.8 2.9-3.4.6L212 89l-.6.2-.7 2.1-2.5 3.5-.7 1.8-2.9 2.7-3.5.2-2.3 1.9-.2 2.6-3 .5-3.1 3.3-2.8 4.5-1 3.2-.2 4.4.3.5 3.5.5 2.3 6.2.5.2 3.5-.7 4.6 1.5 2.5 1.4 2 1.8 3.2 1 2.7 1.4 6.7.6-.3 2.8.8 3.6 1.9 4 3.9 3.3h.5l2.1-1.3 1.4-3.8-1.3-5.5-1.5-1.6 3.7-1.5 2.9-2.5 1.5-3-.2-2.5-1.8-3.2-2.9-2.7 2.9-4-1.1-3.5-.8-5.8 1.4-.7 6.9 1.4 2.2-1 5.2 3.5 1.1 1.6 4.2.3v3l.8 4.8.3.3 2.2.6 1.8 2 .5.2 3.7-2.1 2.6-4.3 1.3-1.4 7.8 12-1 2.2.2.5 3.4 2 2.3 2 4.2 1 1.5 1 1 3 2.1.6.9 1.1.1 3.6-3.4 2.3-4.4 1.3-3 2.7-4.3.5-5.5-.7-6.5.2-2.4 2.5-3.3 1.5-6.7 7.4v.4l.4.2 2.2-.5 4.3-4.3 5.3-2.7 3.6-.3 1.7 1.2-2.2 2.3.9 3.5 1 2.7 3.6 1.7 4.2-.5 2.2-2.9.3 1.5 1.2.9-2.7 1.7-5.6 1.9-2.6 1.3-2.8 2.2-1.5-.2v-2l4.2-2.6.2-.4-.4-.3-6.8.4-1.4-1.5-.2-4.5-1.1-1-1.9.4-.7-.7h-.6l-2 2.5-.8 2.6-.8 1.3-1.7.6-.5.8h-8.5l-1.3.7-2.4 2-.7-.1-1.4 1-1.2-.5-4.8 1.3-1 1.2.2.6 1.8.3-1.8.3-2 .8H223l-3 1.7h-.7l1.4-2.2 1.8-1.2v-2.4l1.3-2 .5.5 2 .4 1.3-1.2v-.4l-2.7-3.6-2.4-.7-5.8-.7-.4-.6-.8.2.2-.5-.2-.5-.7-.3.2-1.3-.8-.7.3-.7-.3-.6-2.7-.4-.7-1.7-1-.7-4.4-.7-1.2 1.3-1.5.6-.9 1-2.9-.7-2.1.4-2.5-1-4.3-.7-.6-.4-.4-1.7-.4-.3h-1l-.3.4v.9h-71l-6.7-4.7-4.6-1.4-1.3-2.7.3-2-.2-.4-3-1.4-.6-2.9-3-2.4v-1.5l1.4-1.9-.3-2.6-4.3-2.3-4.2-6.7-4-3.3-1.4-2-.5-.1-2.6 1.2-2.3 2-4-4-2.5-1-2.2-.2V76zm197.2 76.5l3.1.8 2.4 1.2-4-1-1.5-1zM256.1 3.7l6.8.5 5.5.8 4.3 1.6v1.1l-6 2.6-6.2 1.3L258 13l-.2.5.4.3h4.2l-4.8 2.8-4.3 1.8-4.3 4.7-5.2 1-1.7 1.2-7.7.6-.3.3.3.5 2.5.5-.9.5-.1.6 1.9 2.4-2.1 1.7-4 1.5-1.3 2.2-3.4 1.6-.3.5.4 1.2.4.3 4-.2v.7l-6.5 3-6.6-1.4-7.6.8-3.8-.7-4.5-.2-.3-1.9 4.4-1.1.3-.6-1.1-3.5 1-.3 6.8 2.4.5-.2V36l-3.6-3.5-3.7-1 1.6-1.6 4.4-1.4 1-2.2-.2-.5-3.5-2.2-.8-2.3 6.4.2 2.3.6 4-2.1.2-.5-.4-.3-5.8-.7-9 .4-4.3-2-2.2-2.4-2.8-1.7-.4-1.6 3.3-1 3-.3 5.1-1 3.8-2.3 3 .3 2.6 1.7.6-.1 1.9-3.3 3.2-1 4.6-.7 7.7-.3 1.5.7 7.4-1 11 .7zm-46.8 55.1v.5l2 3h.7l2.3-3.8 6.1-2 4.1 4.8-.3 3 .5.5 5-1.4 2.5-1.9 5.4 2.4L241 66l.3 2 .5.3 4.5-1 2.7 2.9 6.1 1.8 2.2 1.8 2.1 3.8-4.3 1.9v.7l6 3 4.1 1 3.9 4 3.5.2-.6 2.5-4.2 4.5-2.9-1.6-4-4-3.6.4-.4.4-.2 2.8 2.7 2.4 3.5 2 1 1 1.6 3.8-.7 2.3-2.8-.9-6.5-3.2-.5.1v.5l6.3 5.9.2.6-6.3-1.4-5.4-2.3-2.7-1.8.6-.7-.1-.7-7.6-4-.6.3v.8l-6.9.6-1.7-1 1.4-2.6h4.6l5.3-.6.3-.6-.8-1.4.8-1.9 3.3-4.1-.6-2.4-1.2-1.7-4-2.1-4.4-1.3 1-.7v-.6l-2.7-2.8-2.4-.4-2-1.5h-.5l-1.3 1.3-4.5.5-9.2-1-9.5-2-1.7-1.3 2.3-1.8.1-.4-.4-.3h-3.3l-.7-4.4 1.9-4.1 2.5-2 5.6-1-1.4 2.4zm58.9 104.5l2 .7h1.6l-1.2.6-3-1.3-.4-.7.3-.4.6 1.1zM237 86.4l-2.4.2-.5-1.7.9-2.1 2-.5 1.7 1v1.5l-1.7 1.6zm-1.5-26.8l.2.6-5-.2-2.8.7-3.2-2.7v-1.3l1-.2 5.7.5 4.2 2.6zm-7.6 48l-.7 1.5-.7-.2-.5-.8.9-1h.6l.4.5zM188.6 39l3 1.8h5l1.8 1.5-.5 1.7.3.5 2.9 1.1 1.8 1.3 7.2.7 4.2-1.1 5.1-.5 4 .4 2.6 1.8.5 1.8-1.4 1-3.6 1.1-3.3-.6-7.4.8h-5.2l-4.1-.5-6.6-1.6-.8-2.6-.3-2.5-2.7-2.6-5.5-.8-2.6-1.4.7-1.6 5 .3zM213 93.6l.4 1.6.6.2 1-.5 1.4 1 5.6 2.6.2 1.7.5.4 1.7-.3 1.2.9-1.6.9-3.7-1-1.4-1.7h-.6l-2.5 2.1-3.2 1.9-.7-2-.4-.2-2.2.2 1.4-1.4.3-3.2.8-3.5 1.2.3zm8.3 11.5l-2.7 2h-1.4l-.4-.7 1.6-1.5 3 .2zm-13-80.6l2.5 1.7-3 1.4-4.6 4.2-4.4.4-5.1-.7-2.5-2.1v-1.7l1.9-1.4.1-.5-.4-.2h-4.6l-2.6-1.8-1.5-2.4 1.7-2.3 1.6-1.8 2.5-.4.3-.6-.6-.8 5-.2 3.3 3.2 8.4 2.3 1.9 3.7zm-15.7 36l-2.9 3.6-2.4-.1-1.5-4v-2.2l1.3-2 2.3-1.2 5.2.2 4.3 1-3.4 3.8-3 1zM191 50l-1 1.5-3.5-.3-2.6-1.1 1-1.8 3.4-1.3 2 1.6.7 1.4zm-.3-13.9l-5.5-.2-.3-.7h4.4l1.3 1zm-5.2-2.9l-3.4 1-1.9-1-1-2-.1-1.8 4.2.6 2.7 1.7-.5 1.5zm.2 45l-1.1 1.1-3.2-1.2-2.2.4-2.8-1.6 1.8-1.1 1.6-1.8 3.9 2 2 2.2zm-11.4-22l3 1 4.3-.6.4 1-2.2 2 .1.7 3.6 2-.4 3.8-3.9 1.7-2.2-.3-1.8-1.8-6.1-3.6V61l4.8.6.4-.2V61l-2.6-2.9 2.5-2zm4.8-14.5l1.4 1.8v2.5l-1 3.5-3.9.5-2.4-.7v-2.7l-.4-.4-3.8.3v-3.2l2.4.1 3.8-1.7 3.5.3.4-.3zm-4.5-9.4l.7 1.6-3.5-.5-4.3-1.9-4.4-.1 1.4-1v-.7l-3-1.3V27l4.4.7 6.8 2 1.9 2.6zM138 59.5l-1 1.8.4.6 5.5-1.4 3.5 2.3h.5l2.6-2.3 2 1.4 2 4.6h.8l1.3-2.3-1.6-4.6 1.7-.5 2.4.7 2.7 1.9 2.5 8 8.7 4.5-.1 1.4-4 .3-.2.7 1.4 1.5-.6 1.1-4.3-.6-4.6-1.2-3 .3-4.8 1.5-10.8 1-1.5-2-3.5-1.3-2.3.5-2.5-3 5-1 3.6.1 3.4-.8.3-.4-.3-.4-5-1-9 .2-.9-1 5.4-1.8.3-.4-.4-.4h-4l-3.8-1 1.8-3 1.7-2 6.7-2.8 2 .7zm24.8-1.6l-1.7 2.5-3.3-2.8.4-.3 3.2-.2 1.4.8zm-9.3-14.3l1 2 .6.2 2.1-.9 2.3.2.4 2.1-1.4 2.2-8.5.7-6.5 2.2-3.5.1-.2-1 5-2 .3-.5-.4-.4-11.6.6-3-.7 3.2-4.6 2.2-1.3 7 1.7 4.7 3.1 4.5.4.3-.6-3.4-4.7 1.9-1.6 2.2.5.8 2.3zm-5-8.5l-4.5 1.5-3-1.5 1.5-1.2 3.5-.6 3 .8-.5 1zm.4-4.7l-2 .7h-3.7l2.3-1.7 3.4 1zm-27 37l-6.1 2-1.4-2-5.5-2.3 2.7-5.2 2.2-3.2v-.5l-2-2.5 7.8-.7 3.7 1 6.5.3 4.5 3-2.6 1-6.4 3.6-3.2 3.4-.1 2zm11-31.2l-.3 3.5-1.8 1.7-2.3.3-4.8 2.2-4 .8-2.7-.9 3.9-3.5L126 37h3.8l3.1-.6zm-19 120.3l-.6.3-4-1.4-.8-1.2-2.2-1.1-.7-1-2.5-.6-.7-1.8 6.2 1.5 2 2.6 2.6 1.4.8 1.3zM90.2 138l1 .3 1.9-.2-.7 3.4L94 144l-1.3-1.4-1-1.6-1.2-1-.4-1.9z"/><path d="M479.2 283.6l-.1 1-1.3 3.1-.2 3.7-.5 1.9-.2.6-1.7 1.2-1.2 1.5-1.1 2.5v2.1l-3.3 3.3-.5-.2-.6-.9h-1.4l-1 1-1.7-1-1.6 1.2-1.5-2 1.6-1.2.1-.5-.8-1.4 2.2-.7.4-.7 1 .8 2.3.1 1.2-1.4.3-1.9-.2-2-1.2-1.6 1-2.8-.1-.5-1-.6-1.6.2-.5-1v-.6l3 .1 4 1.3.5-.3.2-1.4 1.3-2.2 1.3-1.2 2.8.5"/><path d="M473.5 285.4l-.3-1.2-1.1-.8-.9-1.2-.3-1-1-1.2v-3.6l.6-.5 1.2-2.4 2-.1.5-.7 1 .6 3.3-1 2.5-2v-1h3l2.3-1.1 2-3 1.2-.9 1.2-.3.2.9 1.4 1.5-.4 2 .3 1.1 4.1 2.8.2 1 2.7 2.3.6 1.5 2.2 1.5-4-.3-2 1-1.2-.6-2.8 1.3-1.3-.2-.5.4-.6 1.2-3.5-.7-1.6-.9-2.5-.8-1.5.9-1 1.3-.2 1.6-3.3-.4-1.6 1.3-1 1.7"/><path d="M500 279.4l2.4-.1 1.4 1.9 1.4.4.8-.4 1.3.1 1-.4.6 1 2.1 1.5-.1 2.8.7.6-1.4 1.1-1.6 2.6-.2 2.1-.6 1.1v1.8l-.7.9-.7 3 .6 1.4-.4 4.4.7 1.5-.4 1.3.9 1.8 1.5 1.5.3 1.2.5.6-4.2.7-1 1.9.6 1.4-.8 5.5.2.4 2.5 1.5h.6v1.6h-1.2l-2-2.4-2-.5-.4-1.2-.6-.2-1.4.8-1.8-.3-1-1.2-2.6-.2-.4-.8-2-.2-3 .3v-2.4l-.8-1.2-.1-1.4.3-1.8-.5-.9V311l-.4-.4h-2.6v-.4l-.3-.5h-1.4l-.4.5-1.7.3-.8 1.8-1.1-.3-2.5.6-1.4-2-1.3-3.4-.4-.2h-7.6l-2.5.4.5-.5.4-1.5.6-.4h1l.7-.8h1l.2.8 1.5.3 3.7-3.7v-2.3l1-2.3 2.8-2.5.4-1 .5-2 .2-3.6 1.3-3 .4-3.3.8-1.1 1.2-.7 3.6 1.8 3.8.7.4-.2.9-1.5 1.2.2 2.7-1.2.9.4h1l.6-.7.7-.1 2 .2M470.7 148.5l1.2 1 1.5.3.2 1 1.4.6.5-.2.3-.5 1.2.2.5 1.2 1.7.1.6.9-1 .7-1 1.4-1.7.1-.5.6-1-.5-1.2.2-2.1-1-1.1.4-1.2 1.1-1.6-.9-2.7-2.1-.5-2 4.8-2.6.7.3 1-.3M517.8 198.4l.5.3-1.4.6-1-.3-.2-.5 2.1-.1M217 264.7l.5 1 1.6 1.7-.5.4.3 1.5-.3 1.2-1.1-.6v-1.3l-2.6-1.4-.3-.8-.7-.5h-.4l-.1 1-1.4-.9.3-1.3-.3-.7.3-.2 1.4.6 1.4-.2.5.6.8.2.6-.3M227.1 233l1.3 1.1 2.3-.3 4.5 3.5 2.1.4v.4l.3.5 1.8.1 1.5.9-3.2.5h-4.2l.8-.7v-.7l-1.3-.7-1.5-.2-.8-.6-.5-1.5-.4-.2h-1.4l-2.3-.6-.9-.6-3.2-.4-.3-.2.6-.7-.4-.3h-2.8l-1.7 1.2h-1l-.6.8-1 .2 1.1-1.3 1-.6 3.8-1 4.1.2 2.3.9m286.6 127.4l.5 2.1-.4 1-1 .1-1.3-1.2v-.7l.8-1.6 1.4.3m11-155.6v-1.4l.5-1.4 1.3-1 .2-.5-.4-1-1.2-.5-.2-1.7.5-1 1.4-1.3.2-1.2.6.2 2.7-.8 1.3.6h2.2l3-1.2 3.3-.2-.7 1-1.3.6-.2.4.2 2-.9 3.4-10.4 5.9-2.2-1M638 176.8l-4 1.7-1 1.2-3 .4-1.2 1.9-2.4-.4-2 .7-2.5 1.4v1l-.4.4-4.6.4-3.1-1-2.5.2.1-.8 2.4.5 1.2-1 2 .3 3.3-2.2v-.8l-3-1.6-2 .7-1.3-.8 1.8-1.6-.2-.7-.3-.1.3-.8 1.4-.4 4.1 1 .5-.2.4-1.7 1.1-.5 3.5 1.3 1.2-.3 7.8.4 1.2 1 1.3.4M519.8 292l1.9-2.6 1-2.2-1.5-4.2-1-1.6 2.8-2.8.8.2.2 1.5.8.8 2 .1 3.4 2.2 3.6.5 1.1-1.2 2-.9.9.7h1.1l-1.8 2.6v9.4l1.4 2-1.4.8-.7 1-1.1.5-.4 1.7-.8 1.1-.5 1.6-.7.6-3.2-2.3-.4-1.6-9.1-5.1.1-1.7-.5-1"/><path d="M494.6 270.1l1-.7 1.3-3.3 1.4-.2 1.6 2 1 .4 1-.5 1.6.1.6.5h2.5l.5-.6 1-.4.5-.9.7-.3 1.9 1.4 1.6-.3 3-3.4-.4-2.2 1.7-.6-.3 1.7.3 1.8 1.4 1.3.2 1.9.4.4v1.6l-.2.5-1.5.2-.9 1.5.3.6 1.5.2 1.1 1 .6 1.2 1 .6 1.4 2.4-4.5 4-1.8.1-2 .6-1.5-.6-1.2.6-3-2.7-1.3.5-1.1-.1-.8.4-.9-.2-1.8-2.8-2-1.1-.7-1.6-2.7-2.4-.1-1-2.5-1.6zm-204 7l2.2.6-1 2 .1 1.8 1 1.5-.6 2-.5.8-1.1-.4-1.4.2-1-.2-.4.3-.3.7.4.7h-1l-1.4-2.1-.3-1.4-1-.3-.9-1.5.4-1.7 1.5-.8.3-2 2.7.5.6-.5 1.8-.1zM708 255.9l.5 1.5-.3 2.8-4 2-.2.5.6 1-2 .2-2.2 1-1.8-.3-2.2-3.8-.6-3 1.5-1.9 3-.4 2.4.3 2 1 .5-.1 1-1.5 1.8.7zm-506.9.8l1.5-1.3 2.3 1.5 1-.2.4.2-.3 1h-1.1l-3.8-1.2zM489.5 155l-1.1 2-2.8-1-.9.2-.7.8-3.6.8-.5.7-1.8.3-2-1-.1-.9.4-.7 2-.4 1.7-1.9.8.2.9-.4 1.5 1 1.4-.6 1.3.3 1.7-.4 1.8 1zm267.7 35.6l1-.1.9-1.2 2.7-.4.4-.3 1.8 2.9.6 1.8v3.2l-.8 1.4-2.3.5-2 1.2-1.8.2-.2-1.1.4-2.4-1-2.6 1.5-.4.2-.6-1.4-2.1zm-288.9-24.4l-.5-1.4.2-1 1.7.1 1.5-.7h2.1l.7-.6.2.5-1.7.7-.4 1.4-.7.2-.2.8-1.3-.5-.9.5h-.7zm288.1 23.7l-1-.5-.8.7-1.3-1 1-1.1.6-2.7-.5-.7-2.1-.8 1.7-1.6 2.8-1.6 1.6-2 1.1.8 2.3.2.4-.6-.3-1.2 3.6-1.2 1-1.5 1 1.1-2.3 2.3v2.2l-1 .5-1.5 1.5-1.8.5-1.2 1.1-.2 2 1 .5 1.2 1-.2.4-2.6.3-1.2 1.3h-1.3zm-217.3 106l-1.1-1.6v-9l2.7-3.5 1.7-.2 2.2-1.7 3.5-.2 7.2-7.8 3-3.8.1-5 3-.6 1.3-.9h.5l-.2 3-1.2 3.8-2.8 6.1-2.2 3.8-5.2 6.3-8.8 6.6-2.8 3.1-.9 1.6zm-138.6-41.3l.1 1.6.5 1.5 1 .8v1.3l-1.2-.1-.8.3-1.9-.6-6-.2-2.6.6-.2-1.1h1.8l2-.9 1.1.5h1.1l1.4-.6.1-.6-.5-.8-1.9.3-1.1-.6h-.9l-.7.6h-2.4l-1-1.7-.7-.7.6-.3 2.5-3.9 1.1.2 1.4-.6h1.2l2.8 1.4 3.1 3.6zm4.5 16.3l-1.8 2-.6 1.4-2.1-1-1.3-1.4-.6-2.4 1.2-1 .6-1.2 1.3-.5h1.7l1 1.7.6 2.4zm443.7 48.8h-.6l-.2-.3.4.2h.4zm-2.5-4.4l-.3-.3-.3-.9.6 1.2zm-1.2 2l-1.7-.2-.2-.5 1.2.3.7.5zm-3.9-4.7l1.2.6-.8-.4-.4-.2zM552 215.7l2 .3 1 1.3h1.5l.9 2.1 1.3.8.5 1 1.6 1v2l.2 1 1.7 2.5.7.5h.8l1.7 4.3 7.7 1.4.5-.3.8 1.3-1.6 5-7.4 2.5-7.5 1.1-2.4 1.2-2 2.8-.7.3-.9-.8-1 .1-2.9-.5-3.6.3-.9-.6-.5.1-.7 1.3.1 1.2-.4.3-1-1.4-.3-1.2-1.3-1-1.3-2-.8-2.3-1.7-1.9-1.2-.4-1.6-2.4-.2-3.5-1.5-3-1.3-1.2-1.4-.6-1.3-3.5-.8-.6-1-2-2.9-4.2-1-.2.3-2 .2-.7 2.9.3 1-.9.7-1 1.8-.3.6-1 .8-.5v-.6l-2-2.4 4.5-1.2.4-.4 2.9.7 3.7 2 7.3 5.6 5 .3zM493 91.5l-4.1 1.2-2.5 2.9.3 2.6-9 6.8-1.9 6 1.9 2.7 2.2 2-2 4-2.9 1-1 6.3-1.3 3-2.8-.2-.4.2-1.3 2.6-2.4.2-.8-3.2-2.2-4.1-1.8-5.1 1-2 2.2-2.8.8-4.5-1.6-2.3-.2-5 1.6-3.5 2.6-.2 1-1.6-.9-1.6 3.9-5.8 4.1-7.6h2.2l.4-.3.6-2.2 4.5.7.5-.3.3-2.7 1.2-.1 7 5 .1 6.5.7 1.4"/><path d="M519.5 266l-.4-.7-1.2-1-.2-1.6.3-1.8-.4-.5-1.2-.2-.5.6-1.3.1-.3.7.6.7.1 1.2-2.5 3.1-1 .2-2.4-1.4-1 .5-.4.8-1.1.4-.3.5h-2l-.6-.5-1.8-.1-1 .4-2.5-2.4-2.1.6-.8 1.3-.6 2.1-1.3.6-.8-.6.3-2.8-1.5-1.8-.2-1.5-1-1v-1.3l-.6-1.2-.7-.2.7-1.3-.2-1.2.7-.6v-.6l-.3-.4 1.6-3 2 .1.4-.4-.1-11.2h2.5l.4-.4v-5h29.8l.7 2.1-.5.7.4 2.7.9 3.3 2.2 1.6-1 1-1.7.5-1 .9-1.5 5.8.3 1.2-.4 2-1 2.5-1.6 1.4-1.3 3-1.3.8-.4 1.4zm-271.3-20.7l.1-.6-.5-.8.5-.4.2-1-.1-1.6h1.7l2 .6.3.7 1.4.2.3.8h1l.8.7-.4.5-1.2-.4h-1.9l-1.3.6-.8-.6-1 .5-.8 1.5-.3-.6zm294.3 17.5l-.4.7-.6-.3-1.6.1-.2-1 1.5-2 .9.2.8-.5.2 1-1.3.6v.7l.7.5zm-78.2-130.5l-1.2 2.3-2.2-1.7-.2-1 3-1 .6 1.4zm-4.6-2.9l-.3.6h-.9l-1.8 2.6.5 1.7-1.2.4-1.6-.4-1-1.8V129l1-1.8 2-.2 1.2-1 1.3-.8v1.1l-.8 1.5.3 1 1.3.7zm5.5 30l-.5-.3-1.3-.1-1.9.6-2.2-.2-.6.7-.8-.6h-1l-2.7-.9-.8.7h-1.5l.2-1.8 1.3-2.2-.3-.6-3.6-.6-1-.7.1-1.2-.5-1 .3-2.2-.4-3 1.5-.3.6-1.3.7-3.3-.4-1.2.3-.4 1.7-.1.3.5.6.1 1.8-1.7-.6-3.1 1.4.3 1.4-.4.3 1.2 2.3.8v1l.5.3 2.6-.6 1.4-1 2.6 1.3 1.1 1 .5 1.5-.6.8v.5l1 1.2.5 1.6-.1 1.4.8 1.7h-1.5l-.6.5-4.6 2.2-.2.6.7 2.3 2.6 2.2-.7 1.2-.8.3-.2.5.3 1.9zm77.2 93.7l.2-.5-.2-1 .2-1.5 1-.7-.1-1.4.4-.8 1 .5 3.4-.3 3.9.4 1 .9 1.4-.6 1.8-2.7 2.2-1.2 7-1 2.6 5.6-1.7.8-.6 2-6.4 2.2-2.3 1.8h-2l-1.5 1.1-4.3.8-1.8 1.5-3.3.2-.6-1.2v-1.5l-1.3-3.4z"/><path d="M475.2 156.6v2.4h-1l-.4.6.4.5-1 2.2H471l-1.4.8-5.4-1-.5-1-.5-.2-2.5.6-.4.5-3.3-.8.4-1 1.2.8.6-.1.3-.6h2l1.9-.5 1 .1.7.6.6-.2.3-.8-.3-1.8.8-.4.7-1.2 1.6.9.4-.1 1.4-1.3.7-.2 1.8 1 1.3-.1.8.3zm-22 36.6l-.3 1.1.4 2.7-.6 2.3-1.6 1.8.4 2.5 2 1.6.2.8 1.4 1 1.9 7.5.1 1.2-.6 5.1.2 1.6-.8 1v.5l1.4 1.9.1 1.2 1 1.6.5.1 1-.4 1.7 1.1.9 1.3-8.5 5-7.4 5.2-3.5 1.1-2.4.2-.3-1.6-2.6-1.1-.7-1.3-26.8-18.3v-3.6l3.9-2 2.5-.4 2.2-.7 1-1.5 3-1 .3-2.2 1.4-.3 1-1 3.6-.7.5-1-.1-.5-.6-.6-.8-2.9-.2-1.8-.8-1.6 2-1.3 2.7-.5 1.8-1.3 2.4-.8 8.4-.8 1.5.4 2.4-1.1h2.5l1 .6h1.3zm463.3-91.6l1.4.6 1.4-.4 2 1 1.9.4-1.4.6-3-1.6-2 .3-.3-.2v-.7zm-728.4 52.7l.4 1.5 1.1.8 4.4.8 2.4 1 2.3-.4 1.9.5-1.6.7-3.6 2.6-.2.8.5.4 2.4-.6 1.8 1 5.3-2.4-.3.6.3.6 1.4.4 1.7 1.2 4.8-.9.7.9 1.4.2.6.6-1.4.2-2.2-.4-3.7 1-2.8 3.3.3.9h.7l.5-.6-1.4 4.8.3 3.1.7 1.7.6.4 1.8-.4 1.7-2 .1-2.3-.8-2 .1-1.2 1.2-2.4.5-.4.5.8.4-.3.4-1.4.6-.5.3-.8 1.7.5 1.7 1.1v2.5l-1.3 1.1v1.2l.8.3 1.7-1.3.6.2.5 2.7-2.6 3.8.2.6 1.6.7 1.5.1 2-.4 4.8-2.2 2.2-1.9V174l.7-.3 4 .4 2.2-1 .3-.5-.3-1.5 3.3-2.5h8.6l.5-.8 2-.8 1-1.6.7-2.4 1.6-2 1 .6 1.5-.5.8.7v4.2l2 2.7-2.4 1.3-5.5 2.2-1.9 2.8v1.8l.9 1.6.6.3-6.4 1-2.3.8-.2.5.5.3 3-.4-2.2.5h-1.2l-.1-.3h-.5l-.8 1 .2.6h.4l-.5 1.7-1.3 1.7-1.5-1.1h-.5l-.2.4.6 1.6.6.6v.8l-1 1.4-1.2-1.2-.3-2.3-.3-.4-.5.3-.4 1.3.3 1.4-1-.3-.5.3.2.5 1.5.8.2 2.6.8.6.5 3.5-1.5 1.9-2.5.8-1.8 1.7-1.3.3-1.3 1-.4 1-2.8 1.9-2.7 3-.5 2.3.5 2.1.9 2.4 1 2 .1 1.2 1.2 3.2-.2 2.7-.5 1.5-.5.2-1-.2-.4-1.2-1-.6-2.8-5.3.5-1.7-.7-1.9-2-2.4-1.2-.5-2.8 1.2-1.5-1.4-1.6-.7-3.1.3-2.2-.3-2 .2-1.3.5-.2.6.4.6.2 1.4-.9-.2-.8.4h-1.7l-2.1-1.5-2.1.3-2-.6-3.8.9-2.5 2-2.6 1.3-1.5 1.5-.6 1.4.3 3.8h-.3l-3.6-1.3-1.2-3.2-1.5-1.6-2.3-3.6-1.8-1.1h-2.4l-1.7 2-1.8-.6-1.2-.8-1.6-3-4-3.3h-4.5l-.4.4v.8H147l-9.3-3.2-.4-.8-5.8.5-.4-1.3-1.7-1.6-1.2-.4-.5-1h-1.4l-1-.8-2.3-.3-.4-.3-.4-1.7-2.4-2.9-2.1-4v-.8l-3-3.4-.4-2.3-1.3-1.7.5-2.5-.1-2.6-.8-2.4 1-2.9.6-5.8-.5-4.4-1.5-4.2 3.3.8 1.3 3h.7l.7-1.1-1.1-5h70.6l.4-.4.1-.9zM33.3 69l1.8 2h.5l1-.7 3.8.2v.6l.3.5 3.9.8 2.7-.5 5.3 1.5 5 .4 1.9.6 3.5-.7 6.3 2v39l.4.4 2.4.1 2.4 1 4 4.1h.6l2.4-2 2.2-1L85 119l4 3.2 4.2 6.8 4.3 2.3.1 2-1 1.2-1.2-1.1-2.1-1-.7-3-3.4-3.2-1.7-3.6-6.5-.4-2.9-1-5.4-4-7-2-3.6.3-4.9-1.8-3.3-1.6-2.9.8-.3.5.5 2.2-4 1-2.4 1.3-2.3.7-.3-1.7 1-3.5 2.6-1.1.2-.7-.7-1h-.6l-3.3 2.1-1.8 2.7L36 118v.7l1.5 1.5-2 2.4-5.3 2.6-.8 1.7-3.9 1.8-1 1.8-2.7 1.4-1.9-.2-7 3.4-4.2 1 5-2.6 2.7-2 3.3-.5 1.2-1.4 3.6-2.2 2.6-2.3.4-2.7 1.3-2.2v-.5h-.5l-2.7 1-.7-.5h-.5l-1.1 1-1.4-1.5h-.7l-.3.7-.6-1.2-.6-.1-2.5 1.4h-1l-.2-1.8.3-1.7-1.7-1.4-3.5.6-2-1.7-1.6-.8-.2-2.3-1.7-1.5.8-1.9 2-2.2 1-2 1.7-.2 2.1.5 2-1.8 2 .3 1.9-1.3.1-.4-.4-1.9-1.1-.7 1.4-1.2.1-.5-.4-.2h-1.7l-2.7 1-.8.7-2-.8-3.5.5-3.5-1-1.1-1.6-2.7-2 3-1.5 5.6-2h1.5l-.2 1.6.4.4 5.4-.1.3-.7-2-2.6-3.3-1.8-1.8-2.1-2.5-2-3.1-1.2 1-1.7 4.4-.2 3.4-2.1.8-2.3 2.4-2 2.5-.6 4.8-2 2.5.2 3.8-2.4 3.6 1V69zm5.3 57.4l-2.3 1.2-1-.7-.3-1.2 3.3-1.7 1.5.2.7.7-1.9 1.5zM31.9 240l1 .5.8 1-1.9 1-.4-1.6.5-.9zm-1.8-2h.2v.1H30zm-4.3-2l.3.3h-.2v-.2zM6 116l-1 .5-2.3-1.2 1.5-.4 1.7.3.1.8zm496.2 9.9l1 .7.2 1.7.7 1.8-3.7 1.7-2.3-1.6-1.3-.3-.7-.8-2.5.4-4.3-.2-2.5.9v-2l1.2-2.2 2-1 2.2 2.6h2l.4-.4.5-2.6 1.8-.5 3.1 1.7 2.2.1zM294.5 382.4l-1 1.6-2.6 1.5-1.7-.6-1.5.3-2.4-1.2h-1.6l-1.3-1.3.2-1.5.5-.8v-2.8l1.2-4.9 1.3-.2 2.4 2h1.1l4.5 3.3 1.2 1.7-1 1.5.7 1.4M524 203l-1 .6 2-3.7.6.1.2.7-1.2.9-.6 1.5m184 51.8l-1.9-.7-.5.1-1 1.5-1.3-.6.6-1 .2-2.3-2.1-2.5-.3-2.7-2-2.1-2.2-.3-.8.9h-1.1l-1-.4-2.2 1.3v-1.7l.6-2.7-.4-.5-1.4-.1v-1.3l-1-.9 2-2 .3.4 1.4.1.4-.4-.3-2.8.7-.2 1.3 1.9 1.2 2.4.3.2h3l.7 1.7-1.5.7-.7 1 .1.6 3 1.5 3.7 5.4 2 1.9.5 1.6-.4 2M743.3 232.5l-.7 1.5-1-1.5-.2-1.8 1.4-2.5 1.8-1.8.6.4-1.9 5.7M273.8 266l.2-1.2 1.2-.2v1.2l-1.4.2M526.9 180l3.7 1.1 3.2-.4 2.1.2 3.2-1.6 2.5-.1 2.3 1.4.3.8-.2 1.4.3.4 2.3 1.2-1.2.6-.2.4.7 3.3-.4 1.2 1.2 2-.6.2-.9-.7-3-.4-1.3.5-4.3.4-2.9 1.1h-2l-1.5-.5-2.7.8-.6-.5-.7.3v1.5l-1 .8-.5-.6.8-1.4-.4-.2-1.5.3-2-.7-2 1.7-3.7.3-2.2-1.6H511l-.8 1.2-1.5.3-2.3-1.5h-2.8l-1.4-2.7-1.7-1.6 1-2v-.5l-1.3-1.2 2.4-2.5h3.8l1.3-2.4 4.6.4 3.3-2 3-.9h4l4.4 2.1zm-25 1.2l-1.8 1.3-.6-.9 1.4-2.6-.7-.9 1.8-.6 1.8.3.5 1.2 1.8.8-3 .4-1.3 1zM640.8 276l-1.9.4-1-1.7-.4-3.5 1-3.6 1.2 1 2.3 4.3-.3 2.4"/><path d="M460 193l-1 1.3v1.4l.9.9-.3 2.1-1.6 1.4-.1.4.5 1.6 1.4.3.6 1.2.9.5-.1 1.7-3.6 2.7-.2 2.5-.5.3-1-4.6-1.6-1.3-.2-.8-2-1.6-.1-1.8 1.5-1.6.6-2.4-.4-2.9.5-1.2 2.5-1.1 1.3.2v1.2l.5.4 1.5-.8M754.1 316v-1l4.6-1-3 1.3-1.6.6zM567.8 178.1v.3l-.2-.2.2-.1zm2.9-1.2h.5l1.5.7 2 2.5 4.3-.2.4-.5-.4-1.2 2-1 2-1.6 3 1.4.4 2.5 1.2.7 2.7-.1.6.4 1.4 3.2 4.6 3.5 2.8 1.5 3.1 1.2v1l-1.4-.7-.6.2-.3.8-2.3.9-.4 2.2-1.3.7-2 .5-.7 1.3-1.6.3-2.3-1-.2-2.2-.4-.3-1.8-.1-2.8-2.5-2.2-.5-2.9-1.5-1.8-.3-1.3.6H575l-2 1.6-1.8.5-.4-1.6.4-3.1-.2-.4-1.7-.9.5-1.7-.3-.5-1.3-.2.4-1.7 2.3.7 2.2-1 .2-.7-1.9-1.8-.6-1.6zm43 6.4l-2.6-.5-.5.4-.2 1.7.4.5 2.7-.3 3.3 1 4.5-.4.6 2.4.5.3.7-.2 1.1.5.2 2.2-3.8-.2-1.9 1.3-1.8.8-.6-.6.2-2.3-.7-.5v-1l-1.4-.7-.5.1-1.1 1-.6 1.6H611l-1 1.1-.9-.3-2 .7 1.4-2.9-.6-2.2-1.7-.9.4-.6h2.2l1.2-1.8.8-1.8 2.5-.5-.3 1 .8 1.1zM504.2 372.9l-.5.2-1.6-1.7 1.2-1.5 2.2-1.5 1.6 1.3-1 2-1.3.3-.7 1zm184-110.4l-1.5 4 .1 2 .4.4h1.5l.9 2.1.5 2.4 1.5 1.5 1.6.4 1 1-.5.6-1.1.2-.4-1.2-2-1-.7.1-.7-.6-.5-1.3-2.6-2.7-.7.4 1-4 2.2-4.3zm.4-1.2l-1-2.2-.3-2.7-2.2-3.1.8-.5.9-2.7-3.7-5.6.9-.5 1-2.7 1.8-.1 2.7-1.7.8.6.1 1.4.4.4h1.3l-.6 2.4v2.5l.7.4 2.5-1.5.8.4h1.5l.7-1 1.5.2 1.8 2 .3 2.6 2 2.2-.2 2-.6.8-2.3-.3-3.6.6-1.6 2.2.4 2.7-1.6-.9H692l.3-1.5-.4-.5h-2.3l-.4.4-.2 2.8-.3 1zm-76 170l-3.3.2v-1.2l.4-1.5 1.3.8 2.1.4-.5 1.4zM434 264.4l-.1 1.2 1.6 1.6v1.1l.5.7v5.8l.4 1.5-1.3.3-1-2.2-.2-1.1.5-2.3-.6-1.2-.3-3.7-1-1.5v-.3h1.5zm59-22.8l.2 9.9H491l-1.1 2-.8 1.6.4.8-.7 1 .3.8-1 2 .5.5h.7l.3.6v1.4l1 1-1.5.5-1.3 1-2 3-2.1 1-2.4-.1-.9.2-.3.5.2.6-2.1 1.8-3 .9-1-.6-.8.7h-1.2l-1.1-3.1-1.3-.7-1.2-1.3.3-.6h3l.4-.6-1.3-2.2-.1-3.4-1-1.7.2-1.1-.4-.5h-1.2V256l-1-1.1 1-3.1 3.3-2.7.1-3.5 1-5.3.5-1v-.6l-1-.8-.2-1-.8-.6-.6-3.7 2.2-1.2 20 10z"/><path d="M496.4 208.3l-.8 1.2.3 1.4-.6 1.9.7 2.2v24.7h-2.5l-.4 1-20-10.1-4.5 2.3-1.4-1.3-4-1.2-1-1.7-2.1-1.2-1.3.3-.6-1.1-.2-1.3-1.3-1.8.9-1.2-.1-4.4.4-2.4-.9-3.5 1.2-.8.2-1.2-.2-1 3.6-2.7.3-2 2.5.8 1.2-.2 2 .5 3.3 1.2 1.4 2.6 5.9 1.7 2.7 1.4 1.6-.8 1.4-1.3-.5-2.4.7-1.2 1.7-1.2 1.6-.4 3.2.5 1.1 1.4 4.1.8.4.5zm69 21.4l2-.4h4l4.8-4.9.2.4.3 1.6h-.8l-.4.4-.1 2.1-.9.6v1l-.6 1-.4 1.5-7.3-1.3-.7-2zm-318.3 33.6l.5.8v1l-1 1.9.9 2 .4.3 1.5-.5.5-1.9-.8-1.2v-1.5l2.8-1 .3-.4-.3-1 .3-.3.7 1.3 2 .3 1.5 1.3v.7l.4.3 5-.2 1.5 1.1 2 .4 1.7-1 .2-.5 3.6-.2-.2.6.9 1.2 2.2.4 1.7 1.1.4 2 .4.3 1.6.1-1.7 1.4-.2 1 .7 1-1.8.5-.3.4v1l-.5.6v.6l1.9 2.3-.7.7-4.6 1.3-.7.6-3.8-1-.7.4v.7l.9.5-.1 1.6.4 1.6.3.3 1.7.2-1.3.5-.5 1.2-2.8 1-.6.7-1.6.2-1.2-1.2-.8-2.6-1.3-1.3 1-1.2-1.3-3 .2-1.7 1-2.3-.2-.5-1.1-.5-4.2.4-1.8-2.2-1.6-.3-3.1.2-1.1-1 .3-1.2-.3-1-.6-.8-.3-1-1-.5.7-2.8 2-2.2zm369.6-69.6l-1.6 1.3-.1.5.8 2.4-1 1-.1 1.4-.5.7H612l-.4.5.8 1.5-1.4.7-1.1 1.8v1.7l-.6.6-1-.3-2 .4-.4.8-2 .1-1.4 1.6-.2 2.4-3 1-1.6-.2-.8.6-1.4-.3-2.5.4-3.6-1.2 2-2.4-.2-1.9-.3-.3-1.7-.4-.2-1.6-.8-2.1 1-1.4-.2-.6-.7-.3 1.5-5 2.2 1 2.1-.4.8-1.4 1.8-.4 1.6-1 .7-2.3 1.9-.5.5-.8 1 .5 2.1.2 2.6.9 2-.9.7.5.6-.1.7-1.2h1.6l.7-1.8.9-.7.8.4-.2.5.7.6v2.5l1 1h.1zm.7-.2l1.8-.7 1.5-1.2 4 .3-2.2.8-5 .8zm-72.4-1.3l.8.7 1.3-.3 1.5 3.2 1.7 1 .1 1.2-1.3 1.1-.5 2.6 1.8 2.7 3.2 1.7 1.2 2-.4 1.8.4.5h.4v1.1l.8 1-2.5-.1-1.8 2.5-4.4-.2-7.2-5.7-3.9-2-3-.7-.8-3 5.6-3 1-3.6-.2-2 1.3-.7 1.2-1.7 1-.4 2.7.3zm-150.6-102l-.4 2.7 2.6 2.5-3 2.9-9.4 3.4-9.5-1.7 1.7-1.2V98l-4.2-1.5 3-.6.4-.4-.2-1.3-.3-.3-4.8-.9 1.3-2 3.6-.7 3.8 2.8h.5l3.7-2.2 3.4 1.1 4.1-2.2 3.7.3z"/><path d="M547.7 192l-1.3-2.3.4-1-.7-3.1 1-.5.4.8 1.2 1.4 2.1.5 1.2-.1 3-2.2.6-.1.4.4-.7 1.3v.5l1.6 1.5h.7l.7 2 2.6.8 2 1.5 3.7.5 4-.8.5-.7 2.2-.6 1.7-1.6h1.6l1.2-.5 1.6.3 3 1.5 1.9.3 2.8 2.5 1.8.2.2 2-1.7 5.7.2.5.7.3-.9 1.5.8 2.2.2 1.8.3.3 1.7.4.2 1.4-2.2 2.4v.5l2.2 3.1 2.4 1.3v2.2l1.4.8v.7l-3.3 1.3-1.1 3-10-1.6-1-3.2-1.5-.7-2.2.4-2.5 1.3-3-.8-2.5-2-2.4-.9-3.5-6.2-.5-.2-1.2.4-1.5-.9-.5.1-.7.8-1-1V210l-.7-.4.2-1.9-1.3-2.1-3.2-1.7-1.6-2.5.5-2 1.3-1.2-.2-1.7-1.8-1.2-1.6-3.4"/><path d="M551.3 187h-.3l-1.2-2.2h-1l-.6-.7h-.7l-1-.9-1.6-.6.2-1.2-.3-.8 2.8-.3 1.1 1-.2 1 1 .8-.4.6v.6l2.2 1.2v1.5M463.6 162.6l3.6 1-.2 1.2.3.8-1.5-.2-2.1 1.1-.2.4v1.5l-.2 1.2.9 1.6 2.4 1.7 1.4 2.6 2.8 2.5h2.1l.3.3-.4.3v.7l4.2 2 2.2 1.8-.1.4-1.2-1.1-2.3-.5-.4.2-1 2v.5l1.7 1-.2 1-1.1.3-1.3 2.4-.4.1v-.3l1-2.5-1.7-3.3-1.2-.5-.9-1.4-1.5-.5-1.3-1.3-1.8-.2-4.3-3.3-1.6-1.7-1-3.2-3.7-1.4-1.3.5-1.8 1.4.2-.7-.3-.5-1.2-.3-.5-2 .7-.8v-.5l-.6-1.2.8.4 1.5-.3 1.1-.8.5.3h1.3l.7-1.3 1.6.3 1.4-.5.3-1.2 1.2.3.7-.6 2-.5.4.8zm7.8 26.8l-.6 1.7.3 1.1-.3 1-1.6-1-4.6-1.7.2-.8 2.8.2 3.8-.4zm-15.6-8.9l1.2 1.7-.3 3.4h-1.1l-.8.8-.6-.5v-3.4l-.5-1.3h1.1l1-.7zM709 236.2l-2.8 1.8-2.1 2.6-.7 2 4.4 6.6 2.4 1.7 1.5 2 1.1 4.7-.3 4.3-2 1.6-2.9 1.7-2.2 2.2-2.8 2-.6-1 .7-1.6-.2-.4-1.3-1.1 1.5-.7 2.6-.2.3-.7-.8-1.1 4.1-2.2.3-3.1-.6-1.8.5-2.7-.8-2-1.9-1.9-3.7-5.4-2.8-1.5.4-.5 1.5-.6.2-.6-1-2.3-.4-.3h-2.9l-2.3-4 .9-.4 4.5-.3 2.1-1.3 1.2.9 2 .4-.3 1.5 1.4 1.2 1.7.5M256 440.1l-2.5-.5-6-.4-.9-1.7.1-2.5-.5-.4-1.4.2-.7-1-.2-3.2 1.9-1.5.8-2-.2-1.8 1.3-2.8 1-4.2-.3-1.7.9-.5.2-.5-.3-1.2-1-.6.6-1v-.5l-1.1-1.1-.6-3.2 1-.9-.4-3.6 1.2-5.6 1.5-1 .1-.5-.7-2.8V391l1.8-1.8v-2.7l1.5-2.9v-2.6l-.7-.8-1.1-4.6 1.5-2.8-.2-2.9.9-2.4 1.6-2.5 1.8-1.7v-.5l-.6-.9.5-.9v-4.3l2.7-1.4.9-2.9-.3-.7 1.9-2 3 .5 1.3 1.9.7-.1 1-2 2.4.1 5 5 2.3.4 3 2 2.6 1 .3.9-2.5 4 .3.6 5.5 1.2 2.2-.4 2.5-2.3.5-2.4.8-.3 1 1.2v1.9l-3.8 2.5-3 2.8-3.5 4-1.3 5.2v2.8l-.5.7-.4 3.4 3.2 2.7-.2 2.1 1.5 1.2-.1 1.1-2.4 3.6-3.6 1.5-5 .7-2.8-.3-.5.5.5 1.7-.5 2.1.4 1.5-1.2.9-2.4.3-2.4-1-1.4.8.4 3.8 1.7.9 1.5-.7.4.7-2.1 1-2.1 1.9-1 4.7-2.4.1-2.2 1.9-.6 2.8 2.5 2.3 2.3.7-.7 2.4-3 1.8-1.7 4-2.3 1.2-1.1 1.7.7 3.8 1 1.4h.1zm7.6 10.3l-2.1.1-1.4-1.2-4-.1v-6l1.7 3.1 3.3 2.1 3.2.8-.7 1.2zm461-88h.3l.2-.4-.5-1.4 1 1 .4.2.3-.4-.1-1.6-2-3.7 1-3.4-.2-1.6.3-.6.4 1 .5-.1 1-1.8 2-.8 1.3-1.2 1.8-1 1-.1 1 .2 2-1 1.4-.2 1.1-.8h1.5l2.8-.9 1.4-1.1.8-1.5 1.4-1.3.3-2.7 1.3-1.6.8 1.7.6.2 1-.5.2-.7-.7-1 .4-.7.8.4.6-.3.3-1.9 2-2.2 1-.4.4-.6.6.2.6-.8 1.9-.5 1.7 1 1.4 1.6 3.4.3.5-.5-.5-1.3 1-1.8 1.1-.6.2-.6-.3-.4 1-1.2 1.3-.8 1.3.3 2.2-.5.3-.4v-1.4l-1-.8 1.5.6 1.5 1.1 2.1.7.9-.2 1.4.7 1.7-.7.9.2.6-.3.7.8-1.3 2h-.8l-.3.6.2.8-1.5 2.4.1 1.1 2.2 1.7 2 .9 3.1 2.4 2 .7.6.9 2.8.9 2-1.2 2-6.1-.4-3.7.3-1.8.5-.9-.3-.7 1.1-3.3.5-.5.4.7.1 1.6.7.5.2 1 .9 1.3v2.5l1 2 .6.2 1.3-.8 1.8 1.7-.3 1.2.6 2.2.4 1.3.7.5.6 2-.2 1.6.8 1.8 6.2 3.8-.1.7 1.4 1.7 1 2.8.6.2.7-.4.9 1h.6l.5 2.4 4.9 4.9.7 2-.1 3.4 1.2 2.3-.2 2.3-1.1 3.8v1.6l-.4 2-1.1 2.4-2 1.6-1.7 3.6-2.5 6.2-.2 3-1.2.7-3 .2-2.3 1.2-2.6 2.3-3.1-1.6.3-1.2-.6-.5-1.5.7-2.1 2-7.3-2.3-1.5-1.6-1.2-3.9-1.5-1.3-1.8-.2.5-1.2-.6-2.2-.7-.1-1.2 1.9-1 .2.7-.9.4-1.6 1-1.3-.2-2.4-.7-.2-2 2.4-1.6 1-1 2-1.4-.8v-1.6l-1.6-2-1.1-1 .2-.3-.1-.6-3.3-1.8-1.9-.1-2.6-1.4-4.7.3-6.2 2-2.6-.2-2.7 1.5-2.2.6-1.5 2.7-3.6.3-2.3-.5-3.6.4-1.6 1.5h-.9l-2.4 1.7-3.4-.1-3.8-2.3v-1l1.3-.6.5-.9.2-3-.3-1.7-1.4-3-.3-1.4V370l-1-1.8-.2-1-1-1-.3-2-1.1-1.8zm81.3 41.3l2.7 1 3.3-1 1.1.2.2 3.1-1 1.2v1.7l-1-.3-1.6 2-1.7-.2-1.4-2.4-.4-2.1-1.5-2.6v-.8l1.3.2zM521.3 208.2l.4-.8.2.4-.3 1.1.5.5.7-.3-.9 3.7-1.2-3.4.6-.7v-.5zm1-2.7l.4-1h.6l.6-.6-.5 1.6-.6-.3-.5.2z"/><path d="M640 212.3l-1.3 1-1 2.7.2.5 8.3 4 3.5.4 1.6 1.4 5 1 2.3-.1.4-.3.3-1.3-.4-1.7.2-.9.8-.3.5 2.5 2.3 1 1.8-.3h4.3l.4-.3.2-1.7-.5-.6 1.4-.3 2.3-2 2.8-1.7 2 .6 1.8-1 .8 1.2-.7.9.3.6 2.4.4.1.5-.8.8.1 1-1.5-.2-3.4 1.9-.1 1.8-1.4 2.2-.1 1.4-1 1.9-1.7-.5-.5.3-.1 2.7-.6 1.2.2.8-.5.3-1.2-3.8-1.2-.3-.3.3-.3 1-.7-.6.6-1.1 1.2-.4 1.2-2.3-.2-.6-1.6-.4-4.5-.3-.2-1.6-.3-.4-1.2-.1-2-1.2-.5.2-1 1.9.2.5 1.4 1-1.1.8-.7 1.1.1.6 1.3.6-.3 1.6.9 2 .3 2-.2.6-4.7.6-.3.4.1 1.8-1.2 1.4-3.7 1.9-3 3.1-4.3 3.4-.2 1.3-4.8 1.8-.8 2.2.7 5.5-1.1 2.5v4l-1.3.4-1.2 2 .4.8-1.7.5-1 2-.7.4-2.2-2.1-2.1-6.2-2.3-3.7-1-4.9-2.4-3.7-1.8-8.4V239l-.5-2.6-.6-.3-3.6 1.6-1.6-.3-2.9-2.8.9-.7v-.6l-.7-1-2.7-2.1 1.2-1.4h5.5l.4-.5-.5-2.3-1.5-1.5-.2-2-1.5-1.3 2.4-2.4h3.1l2.7-2.9 1.6-2.8 2.5-2.8v-2.1l2-1.6v-.6l-2-1.4-.8-1.8-.8-2.3 1-.9 3.6.7 3-.4 2.4-2.3 2.4 3-.3 2.1 1 1.6v.9l-1.4-.3-.4.5.7 3.1 2.7 2 3 1.8zm-131.2 91.8l2.8-3.2v-.8l-.6-1.4.7-.5.1-1.5-.8-1.3.4-.1h2.3l-.6 2.8.8 1.4.5.1 1.1-.5 1.2-.2.7.3 1.4-.7.1-.6-.7-.7 1.6-1.7 8.9 5 .3 1.5 3.5 2.4-1.1 3 .1 1.6 1.7 1.1-.6 1.8v2.4l1.9 4.1.6.5-1.5 1.1-2.7 1h-1.5l-1 .7-2.4.4-3-.7h-.8l-.6-.7-.4-2.9-1.3-1.4-3.4-.7-4-1.7-1.2-2.4-.4-1.8-1.8-1.6.5-1-.5-1v-1l-.4-.5v-.6zm44.9-124l1.3.4 2-1.8 2.4 3.4 1.5.4-1.3.2-.4.3-.8 3.2-1 1v1.2l-1.3-1.2.7-1.2v-.5l-.8-.9-1.5.2-2.4 1.7v-1.3l-2-1.3.4-.7v-.6l-1.1-.8.2-.4-.1-.6-1.2-.9 2 .7h1.7l.4-.8-.8-1.4h.4l1.7 1.8zm-5.7 5l.6.5h.8l.6 1.2-.7-.1-1.3-1.5zM415.9 138.8l.3 2.1-1.8 2.9-4.3 1.9-2.9-.4 1.8-3-1.2-3.7 4.7-3.9.3 1.2-.5 1.8.4.5h1.5l1.7.6M776.6 295.3l.8 4.2 2.8 1.8.5-.1 2.1-2.7 2.8-1.4h2.1l4 1.7 2.6.5v15.5l-1.8-1.6-2.6-.5-.9.7-2.4.1.8-1.4 1.4-.6.3-.5-.7-2.8-1.3-2.3-5.1-2.3-2.2-.3-3.8-2.3-.5.1-.7 1.1-.5.2-.6-2-1.2-.8 1.9-.6h1.7l.4-.5-.2-.7-.4-.3h-3.5l-1.2-1.5-2.1-.4-.6-.6 2.8-.5 1.3-.8 3.8 1 .3.7zm1.5 12.8l-.6.9-.1-.9.6-1.1.1 1.1zm-10.8-7.5l.4.7-1.3-.6h-4.8l.3-.7 2.8-.1 2.6.7zm-6.5-8l-.7-3 .7-2 .4.9 1.2.2.2.7v1.7l-1-.1-.4.3-.4 1.3zm-2 8.5l-.6.4-1.3-.3-.2-.4h1.8l.3.3zm-18.1-9.2l-.2 2 2.3 2.3h.6l1.3-1.1 2.8-.5-1 1.2-2.1 1-.2.6 2.3 3.1-.3 1 1.4 1.9-2.3.9-.3-.4.1-1.2-1.7-1.4.2-2.3-.6-.4-1.7.8-.2.4.3 6.4-1.2.2-.7-.5.7-2.2-.4-2.5-.4-.4h-.8l-.6-1.3 1-1.6.3-2 1.4-4zm7.3 12l.4.5v1.4l-1 .5-.5-.5 1.1-1.9zm.5-9.5h.3-.3zm-7.6-3l.2-.3 2-1.7 1.8.7 3.3.3h3l2.4-1.8-1.7 2.2-1.8.5-2.4-.5h-4.3l-2.5.6zm9.1 27.1l1.2-2 2-.8.1.6-1.4 1.8-1.9.4zm-2.5-4.7v.4l-3.6.7-3-.3v-.3l1.6-.4 1.7.8 1.7-.2 1.6-.7zm-5.3 4.5h-.7l-2.3-1.2 1.1-.3 1.9 1.5zm-6.8-4.6l.9.5 1.3-.2.2.4-4.8.8.4-.7h1.2l.8-.8zm-4.8-12.3l-.3-.1-2.7 1-1.1-1.5h-1.7l-1.2-.9-3.2.8-1-1.2h-3.5l-.3-3.2-1.4-1-1.2-2-.3-2.1.3-2.2.9-1 .4 1.1 2.1 1.6 1.6-.5h1.9l1.4-1.2 1-.2 2.3.7 2.4-.5 1.5-3.8 1-1 .9-2.6 4.2.3-1.2 1.8v.5l1.8 2.2-.2 1.5 2 1.7-2.3.5-1 2 .2 2-2.5 2v2.5l-.7 2.8zm-19.5 8.5l.3.2 5 .3.7-1 4.3 1.1 1.2 1.7 3.8.5 2.2 1-1.9.7-2.8-1-5-.2-5.3-1.4-2-.3-1 .3-4.4-1-.8-1.1-1.6-.2 1.2-1.7 2.8.2 3 1.1.2.7zm-7.3-3h-2.3l-2-2-3.3-2-3-3.7-3.2-5.5-2.3-2.1-1.7-4.2-2.3-1.7-1.3-2.2-2-1.5-2.6-2.7-.1-.7 4.9.5 2.2 2.5 3.4 2.8 2.4 2.7 2.8.2 2 1.6 1.6 2.3 1.6 1-.9 1.7.2.5 1.5 1h.8l.4 1.6.9 1.5 2 .4 1 1.3-.6 3.1v3.6zM505.6 166.5l1.3-2.5 2 .2.6-.3v-.7l-.2-.8-.8-.7-.3-1.2-.9-.7v-1.2l-1.2-.9-1.2-.2-2-1-1.8.3-.6.5h-1l-.9.8-2.5.7-1.2-.7-3.2-.4-.9.5-.2-.6-1.2-.7.4-1 1.3-1-.6-1.3 2.1-2.5 1.5-.6.2-1.2-1-2.5.8-.1 1.3-.9h1.9l2.5.2 3 .9h1.9l.9.5 1-.5.8.7 2.3-.1.9.3.5-.4.2-1.5.6-.6h2.9l.9-.8 3-.2 1.3 1.5-.5.8.3 1 .3.4 1.9.2 1 2 3.2 1.3 2-.5 1.7 1.5h1.4l3.5 1v.5l-1 1.7.5 2-.3.7-2.4.3-1.3 1-.3 1.3-1.8.3-1.7 1-2.4.2-2.2 1.2-.3.4.4 2.3 1.3.8h2.1l-.1.2-2.7.6-3.3 1.7-1-.4.5-1.1-.3-.5-2.2-.8 2.4-1 .1-.7-1-.9-3.7-.8-.1-.9-.5-.3-2.6.6-1 1.7-1.7 2.1-1-.4-1.6.3"/><path d="M564 227.3l-.8-.2-.1-1.7.8-1.3.5.5v1.4l-.4 1.3M522 327l-.3-2.6.5-2.1 3.7.6 2.5-.4 1-.7h1.6l2.8-1 1.7-1.3.5 9.5.5 1.3-.7 1.7-1 1.7-1.5 1.6-5.3 2.3-2.9 2.8-1 .6-1.8 1.8-1 .6-.4 2.5 1.2 2 .5 2.2.5.3v2.1l-.5 1.2.5.8-.2.7-1 .9-5.2 2.4-1.3 1.4.2 1.2.6.4v.7H515l-.8-3 .4-3.2-1.8-5.5 2.6-2.9.7-2 .4-.4.3-1.6-.4-1 .6-3.7v-3.3l-1.5-1.2-1.2-.2-1.8-1.2h-2l-.3-2.1 7.2-2 1.4 1h.9l.7.4v.8l-.5 1.3.2 1.8 1.8 2 .7-.2.7-1.7 1.2-.9-.2-3.6-1.1-1.9-1-1"/></g></svg>