<svg width="924" height="452" viewBox="0 0 924 452" xmlns="http://www.w3.org/2000/svg"><title>map</title><g fill="none" fill-rule="evenodd"><path d="M669.222 236.12l-.616-2.054-1.396-1.755-2.37-.11-.422.492.205.966-.544 1.016-.74-.37-.7.36-1.23-.37-.38-2.053-.833-1.91.4-1.5-.225-.48-1.17-.545.297-.514 1.52-.964.03-.667-1.59-1.254.562-1.17 1.653.965 1.068.155.185 1.58.348.36 5.79.647-.862 1.685-1.253.35-.79 1.55.073.482 1.406 1.405.69-.195.43-1.427 1.242 3.944-.03 1.242-.34-.155-.41.287m-228.484-88.45l1.96.246 2.157-.646 2.7 2.043-.216 1.704-.71.41-.185 1.23-1.704-1.16-1.426.155-2.803-2.772-1.2-.185-.165-.535 1.58-.513" fill="#FFF"/><path d="M432.658 254.014l-.113.976.35 1.19 1.436 1.756.074 1.13.33.38 2.617.523-.04 1.312-.39.544-1.1.216-.74 1.21-.645.217-3.306-.258-.966.4-5.544-.05-.4.39.163 2.802-1.263-.44-1.2.102-.915.585-2.33-1.765-.134-1.14.628-.985.02-.954 1.92-2.033.453-1.858.44-.4 1.316.266 1.078-.53.483-.75 1.89-1.12.563-.85 2.258-1.03 1.18-.307.74.462 1.16-.01m72.092-81.56l-.882.904-.935 2.226.493 1.376-1.642-.247-2.618.976-.288 1.55-1.848.227-2.053-1.027-1.97.812-1.46-.072-.153-1.673-1.078-.996v-.82l1.232-1.61.01-.576-1.17-1.263-.052-.964.904.996.903-.205 1.96.483 3.78.164 1.457-.83 2.793-.68 2.618 1.274m-28.91-4.673l2.156.513 1.766-.03 1.56.697-.37.8.083.463 1.067 1.047-.256 1.007-1.86 1.18-.39 1.417-1.713-.895-.914-1.232-2.168-1.88-1.674-2.278.235-.585.493.39.565-.06.44-.524.967-.062" fill="#D9F0FD"/><path d="M726.346 280.646l.698-.667 1.448-.936-.154 1.673-.832-.05-.626.594-.544-.615h.01zm-455.48 68.9l-3.173-.236-.39.236-.72 1.56-1.344-1.57-3.37-.658-2.432 2.464-1.346.267-.904-3.35-1.334-2.935.76-2.433-.134-.44-1.232-1.038-.38-1.94-1.11-1.592 1.49-2.628-.986-2.393.483-1.087-.35-.75.935-1.354.164-3.944.514-1.21-1.86-3.502 2.527.072.82-.873 3.492-1.96 2.73-.36-.195 1.416.308 1.1-.052 2.02 2.794 2.33 2.957.504.914.883 1.837.596 1.007.718 1.756.053 1.2.626.617 2.77-.717.555.985 3.07.38.287 4.415.103-.257 1.232.277 1.047 1.468.924.516 1.385-.42 1.91-.67 1.11.125 1.385-2.76-1.694-2.465-.03-4.476.78-1.53 2.566-.114 1.56-.77 2.434.02.012zM801.95 171.09l1.858.7 1.663-.997.403 2.484-3.44.77-2.29 2.957-3.726-1.95-.575.205-1.292 3.13-2.218.03-.298-2.577 1.11-2.084 2.514-.165.38-.34 1.284-6.098 2.535 2.783 2.085 1.15h.01-.002zm-7.762 21.016l-.934 2.28.38 1.56-1.17 1.797-3.1 1.293-4.703.278-3.427 3.09-1.284-.82-.093-1.952-.472-.39-4.466.636-3.08 1.356-2.927.05-.38.278.133.452 2.382 1.94-1.58 4.456-1.294.924-.812-.72.576-2.33-.215-.46-1.508-.77-.76-1.44 2.176-.86 1.295-1.746 2.515-1.458 1.88-1.96 4.907-.833 2.67.585.45-.215 2.454-4.784 1.326 1.088.513.01 5.235-4.125 1.735-3.83-.39-3.49.924-1.653 2.198-.45 1.263 3.818-.07 2.238-2.29 2.916-.04 3.244h-.012l-.005-.002zm-16.2 9.158l.195.575-1.037 1.24-1.19-.7-1.315.67-.707 1.488-1.047-.514.01-.955 1.17-1.417 1.612.144.873-1.006 1.438.473zM508.662 303.14l-1.11-3.07 1.172-.112.657-1.222.78.092.67 1.88-2.157 2.422-.01.01zm-67.637-40.8l-.05.822.512 1.376-.43.883.174.813-1.857 2.176-.585 1.806-.082 5.565-1.448.206-.492-1.396.112-5.863-.533-.72-.206-1.385-1.52-1.52.215-.924.914-.44.43-.946 1.304-.37 1.253-1.375h.626l1.663 1.273v.02zm226.637-43.006l.862.73-.123 1.128-3.86-.113-1.61.41-1.982-.895 1.52-2.012 1.16-.585 1.674.584 1.366.082 1.016.668-.022.002z" fill="#FFF"/><path fill="#D9F0FD" d="M234.47 245.432l-.82.41-2.32-1.088.86-.236 2.198.308 1.2.575-1.108.033"/><path fill="#FFF" d="M496.825 338.643l2.33 4.117 2.906 2.936.987.318.8 2.495 2.188.624 1.047.78L504 351.6l-2.38 2.073-1.582 2.762-1.56.462-.658 1.99-1.375.535-1.9-.123-1.242-.76-1.386-.31-1.252.637-.77 1.406-2.372 1.95-1.437.217-.36-.605.165-1.797-1.52-2.607-.634-.44v-7.29l2.135-.08.4-.41.073-9.14 5.33-.954.82.914.524.07 1.54-.975 2.27-.503"/><path fill="#D9F0FD" d="M266.913 282.155l3.326.72.666-.545 4.67-1.355 1.11-1.09-.02-.645.564-.052.288.288-.267.893.228.49.75.33.41.83-.636.884-.41 2.187.842 2.63 1.735 1.467 1.467.205 3.255-1.724 3.265.307.667-.77-.277-.945 1.95-.092 2.454 1.016 1.088-.626.863.8 1.233-.184 1.21-1.088.864-1.992 1.396-2.166.38-.052 1.94 5.596 1.366.605.05 1.313-1.817 1.992.02.575 1.047.893 4.178.37.082 2.217.678.298 1.786-1.54 7.156 2.382 1.047 1.253-.36 1.21.504.514 2.887-.76 4.897 1.335 3.85-.083 3.665 2.054 3.377 2.937 1.98.74 2.178.122.73.636 1.24 4.63-.974 4.085-4.845 5.196-1.684 2.998-1.765 2.105-.82.307-.74 2.085.185 4.876-.966 5.68-.832 1.16-.44 3.45-2.62 3.592-.41 2.577-1.91 1.067-.688 1.57-2.607.01-4.045 1.038-1.88 1.232-2.946.84-3.11 2.25-2.26 2.905-.37 2.053.412 1.622-.452 2.67-.523 1.23-1.818 1.582-2.823 4.908-3.932 3.51-1.273 2.814-1.212 1.18-.37-.853.976-1.17.01-.513-1.56-2.023-4.68-3.407h-1.057l-2.444-2.074h-.83l5.48-5.597 3.87-2.648.226-2.526-1.386-1.86-.935.073.596-2.392.01-1.58-1.14-.853-1.794.308-.452-3.193-.534-.975-1.93-.903-1.274.482-2.228-.422.154-3.295-.637-1.377.678-.75-.226-1.375.678-1.16.452-2.095-.627-1.88-1.437-.882-.205-.77.35-1.426-.39-.513-4.642-.102-.74-2.28.607-.43-.03-1.13-.515-.893-.328-1.746-1.49-.78-1.672-.02-1.078-.74-1.643-.494-1.16-1.015-2.762-.41-2.536-2.115.132-4.467-.462-.462-3.55.515-3.533 1.99-.616.76-2.976-.172-1.51.43-.738-.184.154-3.614-.648-.35-1.99 1.45-1.92-.063-.853-1.21-1.41-.267.217-1.037-1.386-1.53-.903-1.96.575-.617v-.833l1.324-.636.226-.44-.226-1.222.627-.935.154-1.016 2.72-1.622 2.043-.483.433-.37 2.115.113.43-.34 1.223-8.212-.42-1.6-1.13-1.028.01-1.365 1.96-.43.085-.987-.34-.44-1.17-.207-.02-.852 4.59.05.84-.685.843 1.858.82.072 1.182 1.13 2.32-.052.728-.852 2.854-.985.493-1.16 1.643-.657.246-.482-.493-.842-1.877-.195-.37-3.306"/><path d="M232.437 229.61l-.492-1.18-.863-.77.37-1.14.975 2.002.01 1.09v-.002zm-.862-7.638l-1.92.298-.04-.226.76-.144 1.2.062v.01zm275.435-90.46l.297.72.503.236 1.222-.39 2.145.74.195 1.293-.462 1.274 1.612 2.32.914.606.175.83 1.624.576.41.513-.544.42-1.92-.114-.75.39-.134.534 1.068 2.814-1.96.267-.915 1.018-.114 1.212-2.803-.042-.544-.637-.535-.08-.77.47-.935-.43-1.97-.07-2.823-.81-2.67-.29-2.053.073-1.54.944-.688.072-.082-1.253-.605-1.222 1.394-.904.01-1.385-.72-1.447-.07-1.027 2.217-.02 2.794-1.334.77-2.095 1.96-1.066.206-.42-.194-1.285 3.9-1.828 2.363.792.02.04zM203.31 250.67l.103-4.61.71-.062.76-1.334.348.287-.41 1.333.176.595-.35 2.31-1.334 1.457-.002.023z" fill="#FFF"/><path d="M504.658 118.094l2.618-1.9-.01-.667-2.26-1.54 7.516-6.94 1.058-2.166-.134-.5-3.552-2.588.883-2.77-2.166-2.886 1.603-3.768-2.844-4.64 2.207-3.07-.082-.565-3.748-2.802.308-2.607 1.86-.38 4.372-1.817 2.485-1.488 4.17 2.68 6.97 1.067 9.59 4.98 1.827 1.93.142 2.525-2.618 2.074-4.004 1.09-11.365-3.225-2.115.544-.133.718 4.045 3.02.318 6.015.267.37 5.277 2.3.595-.3.33-1.99-1.388-1.828 1.16-1.12 6.294 2.485 2.166-1.005.185-.575-1.55-2.742 5.554-3.86 2.125.226 2.32 1.447.585-.165 1.498-2.946-.05-.45-1.972-2.383 1.15-2.382-1.356-2.33 6.027 1.19 1.068 1.798-2.66.442-.338.41.02 2.424 2.526 1.878 3.973-.934.883-2.875 14.053-5.8 1.017.113-1.97 2.115.235.688 3.193.462 2.054-1.52 4.68-.122 3.738-1.776 2.72 2.505.576-.01 2.926-2.956-.01-.585-2.413-2.35.922-1.038 7.33 1.335 3.5 1.396 9.293 5.104.523-.113 1.714-2.33-.05-.545-2.496-2.27-.062-.8-.35-.37-2.586-.37.657-1.98-1.355-3.552-.062-1.243 4.6-4.167 1.735-4.404 1.642-.834 6.396 1.212.453 2.268-2.35 3.737.06.513 1.51 1.427.78 3.08-.575 6.19 2.762 2.896-.986 2.64-4.99 6.107.237.657 2.937.627.43-.174.955-1.437 2.71-1.06.894-2.3 2.145-2.01.07-.514-1.394-2.34 1.12-2.763-.33-.564-2.535-.34-.513-2.115 1.993-4.497-.06-.432-3.04-3.49 4.23-2.958.164-.41-.524-3.008.555-.052 1.16 2.31-.986 4.466.276.483 2.75.86.514-.522-1.047-3.07 3.89-1.704 5.145-.246 4.65 2.68.493-.062.073-.493-2.238-3.92-.237-4.797 4.086-.924 6.128.215 5.637-.657.276-.667-1.88-2.37 2.63-2.98 2.946-.172 4.928-2.536 6.714-.688 1.058-1.458 6.416-.462 2.382 1.14 5.678-2.772 4.62.082.4-.288.678-2.207 2.32-2.176 5.842-2.167 3.295 1.325-2.526.965-.257.43.35.36 5.553.79.627 2.393.595.258 2.26-1.253 7.32.072 5.656 2.536 1.838 1.766-.544 2.297-9.403 4.26-2.02 1.562.163.73 6.95 1.96 2.217-.8 1.16 2.81.688.114 1.037-1.18 3.91-.75 7.907.79.553 2.043.37.298 10.75.73.44-.39.134-3.317 5 .8 4.054-.02 3.932 2.463 1.058 2.783-1.386 1.838.02.514 3.234 3.737 4.18 2.014.543-.185 2.29-4.59 4.055 1.98 4.27-1.24 4.857 1.427 2.104-1.294 4.046.637.44-.564-1.724-4.127L793.41 61l22.905 3.11 2.218 2.824 6.725 3.604 10.565-.833 4.948.75 1.9 1.704-.297 3.162.257.42 3.162 1.294 3.654-.903 4.466-.113 4.928.894 4.692-.482 4.342 3.89.442.073 3.183-1.438.163-.616-1.93-2.69.873-1.56 7.916 1.244 5.358-.267 7.28 2.146 9.845 5.36 6.52 4.22-.206 2.442 1.93 1.448.615-.43-.493-2.6 6.314.586 4.518 3.603-2.023 1.468-4.107.42-.37.4-.06 3.893-.76.637-2.126-.114-1.96-1.427-3.224-1.14-.8-1.9-2.794-.7-2.7.504-1.07-1.13.474-1.344-.514-.523-3.08 1.006-.227.596 1.017 1.743-1.242 1.52-3.12 1.724-3.205-.287-.41.237.092.472 2.26 2.144 1.498 3.285 1.18 1.13.247 1.364-.43.688-4.755-.79-7.146 2.977-2.25.45-7.803 5.195-.862 1.49-3.706-2.434-6.408 2.896-.965-1.18-.544-.083-2.34 1.56-3.286-.502-.452.278-.8 2.432-3.132 3.88.093 1.51.297.37 2.608.74-.297 4.65-2.022.113-.36.267-1.097 3.018.82 1.49-4.013 1.62-1.077 4.056-3.573.79-.308.31-.74 3.376-3.17 2.72-.72-1.785-2.505-12.772 1.19-4.836 2.095-2.116.226-1.682 3.9-.882 4.58-4.733 4.394-3.912 4.6-3.09 2.228-5.78-.43-.554-3.123.34-1.817 3.398-6.016 3.962-1.91-4.363-.462-.236L835.06 110l-6.642 6.61-.01.567 1.62 1.786-8.458 1.202.154-2.26-.35-.43-3.993-.575-3.335 1.858-7.823-.635-8.674 1.22-18.183 15.822.226.72 3.84.42 1.396 2.228 2.495.78 1.93-1.725 2.465.206 3.49 3.634.083 2.67-2.002 3.51-.216 4.004-1.13 5.195-3.81 4.66-.892 2.27-8.51 9.126-3.276 1.746-1.355.03-1.49-1.397-.502-.04-2.33 1.54.42-3.748-.605-2.536 1.796-.915 2.988.544.43-.206 1.726-3.11.893-3.553.996-1.21 1.353-2.957-.462-.575-4.25.976-2.25 1.284h-3.5l-1.087-3.01-3.05-2.36-4.393-1.088-1.796-5.205-2.73-5.144-2.352-1.323-3.85-1.038-3.532.08-3.264.637-2.3 1.818.05.677 1.213.71.02 1.467-1.367 1.077-2.32 3.603-.042 1.468-3.243 1.89-2.895-1.19-3.09.236-1.386-1.1-1.54-.358-4.004 2.37-3.306.535-2.33.81-3.132-.52-2.27.03-1.518-1.642-2.67-1.675-2.7-.44-5.606 1.036-3.315-1.283-.74-2.64-5.338-1.272-2.823-1.396-.513.122-2.657 3.542.862 2.156-2.115 1.982-3.502-.79-2.484-.123-1.88-1.583-2.597-.052-2.484-1.006-3.963 1.61-4.846 2.855-3.388.77-1.59-1.97-3.08.42-1.14-1.366-1.664-.606-1.345-1.992-1.417-.616-3.798.81-3.4-1.878-.522.112-1.017 1.324-5.43-8.264-3.04-2.546.668-.79.01-.524-.51-.113-6.367 3.294-1.89.155.155-1.427-.267-.43-3.305-1.2-2.525.717-.71-3.244-.328-.317-4.62-.77-2.536 1.51-6.355 1.303-1.322.883-9.764 1.335-1.18 1.2-.032.545 1.51 1.952-1.94.708-.226.575.32.616-2.168 1.48.03.698 3.85 2.177-.4 1.006-3.315-.132-.882.883-3.172-1.632-4.076.072-2.73 1.385-8.543-3.655-4.18.062-5.534 3.778-.4 2.053-2.084-1.54-.606.134-2.053 3.685.586.955-1.315 2.218.06.493 2.188 2.227 2.002.04 1.407 1.87-.237 1.5.256.44.85.34-.82 1.344-2.555.635-2.557 3.285v.504l2.228 2.854-.154 2.238 2.568 3.327-1.622 1.632-.72-.133-1.672-1.766-2.35-.863-.967-1.345-2.403-.646-1.52.41-.44-.482-3.604-1.52-5.913-1.037-.462.195-2.967-2.402-2.976-1.232-1.57-1.324 1.324-.442 2.136-2.68-.052-.564-.913-.81 3.13-1.09.277-.43-.072-.71-.502-.358-1.776.4.04-.698 1.07-.74 2.73-.492.41-1.355-.513-1.64.944-1.58.03-1.203-.297-.38-3.79-1.088-1.445.02-1.457-1.448-2.25.39-2.842-1.036-.03-.606-.914-1.468-2.053-.33-.114-.553.503-.545.01-.544-1.644-1.95-3.675.02-.903.75-.47-.073-1.027-2.864 2.28-.02.995-.76.07-.586-.923-1.067-1.386-.494-.113-.72-.976-.594-1.416-2.043.474-1.01-.524-2.01-2.515-.863-1.243.308-.472-.78-2.525-.853-.74-1.92-.215-1.735-1.017-.872.873-1.2-.72-3.297 1.705-2.024-.164-.81-.092-.052.004-.008zm264.52 56.95l-.615.41-.134.164-.01-.523.76-.052h-.002zm129-105.522l-5.78.493-.266-.862 3.234-1.94 1.992.01 3.275 1.19-2.454 1.12v-.01h-.002zm-79.524-19.968L816.6 50.95l-3.9-.43-4.364-1.85.36-.995 9.947 1.88h.01zm-14.086-2.433l-1.674 3.174-9.22-.133-4.198 1.17-4.66-3.05 1.19-3.09 3.13-.912 6.674.226 8.768 2.628-.01-.01zm-5.616 91.23l-.575-.923.277-.123.298 1.037v.01zm.144.515l.965 3.624-.05 3.47 1.078 3.48 2.24 5.133-2.968-.853-.505.266-1.58 4.774 2.484 3.594-.043 1.16-1.273-1.273-.626.063-1.12 1.653-.288-1.653.277-3.182-.288-3.49.594-2.536.113-4.507-1.5-3.45.217-4.435 2.207-1.498.073-.35-.01.012h.003zm-6.56-80.974l1.806-1.457 2.967-.43 3.366 1.755.144.616-3.357.03-4.938-.513h.01zm-90.542-26.2l-13.357 1.98 4.137-6.517 1.87-.575 1.775.35 6.15 3.06-.577 1.703zm-13.255-3.243l-5.217.657-7.043-1.612-4.095-2.104-2.156-4.27-2.67-.894 5.87-3.593 5.34-1.315 4.814 2.926 5.74 5.545-.575 4.65-.01.012zM579.192 70.55l-.657.174-8.06-.586-.882-2.094-4.394-1.2-.287-1.993 2.33-.912.257-.4-.082-2.443 4.938-4.076-.154-.72-1.51-.39 5.443-3.91.154-.453-.598-1.992 5.42-2.577 8.43-3.357 8.5-.985 4.467-1.992 4.72-.657 1.398 1.653-1.377 1.313-16.867 5.072-8.183 5.01-7.946 9.887.677 4.25 4.27 3.36-.01.02.003-.002zm-15.75-51.806l-5.646 1.21-.595 1.048-2.66.863-2.186-1.1 1.15-1.457-.308-.667-2.393-.07 1.724-.37 3.563-.06.43 1.323.68.164 1.416-1.375 2.206-.903 3.018 1.036-.4.37v-.012zM490.1 136.47l-4.19.053-2.627-.33.34-.892 3.253-1.055 3.327.985-.093 1.262-.01-.02v-.002z" fill="#FFF"/><path d="M510.253 295.707l.73 1.037-.114 1.12-1.675.03-1.068 1.427-.852-.11.524-1.233.08-1.375.43-.42.72.143 1.22-.626m-28.333-127.566l.432-.514-.013-.533-1.18-1.674 1.468-.636 1.365.123 1.202 1.088.473 1.16 1.375.657.36 1.386 1.5.926.78-.297.204.707-.493.8.228 1.15 1.078 1.253-.79.82-.38 1.56-1.242.083.246-.657-.4-.554-2.137-1.684-.924.05-.495.966-2.176-1.406.543-1.643-1.14-1.406.524-1.13-.42-.587" fill="#D9F0FD"/><path d="M499.915 132.52l.174 1.15-1.86 1.005-.74 2.074-2.535 1.21-2.156-.02-.75-1.08-1.09-.307-.09-1.92-3.656-1.16-.442-2.423 2.547-.964 4.23.225 2.31-.316.532.71 1.273.214 2.25 1.602m-52.205 20.686l-.494-.072.308-1.314.277.41-.09.986" fill="#FFF"/><path d="M410.01 272.833l.184 1.58-.492 1.018.082.484 2.536 1.848-.34 2.876-2.72-1.16-5.934-4.733.595-1.355 2.158-2.392.883-.226.79 1.17-.142.873.606.893 1.027.144.78-1.017m90.51-114.72l.617.245 2.946 4.086-.174 2.762.46 1.458 1.355.83 1.386-.43.78.37.02.318-.85.462-.606-.226-.554.308-.636 3.388-1.027-.226-2.125-1.16-3.03.73-1.282.78-3.603-.155-1.94-.482-.894.164-.842-1.335.3-.267-.062-.657-1.12-.35-.574.515-1.078-.657-.4-1.428-1.396-.667-.36-1.025-.853-.77 1.58-.554 2.732-4.32 2.462-1.274 3.04.35 1.518.748.813-.462 1.827-.307.77-.76h.81" fill="#D9F0FD"/><path d="M396.53 260.133l-.298.863.154.616-2.27.606-.882.985-1.068-.852-1.12-.234-.553-1.088-.678-.503 2.474-.493 4.24.103M200.28 256.2l-2.546-.38-1.057-.46-1.173-.914.308-1.017-.246-.7.984-1.704 3.06-.01.41-.38-.195-1.314-1.715-1.438.523-.41v-1.078l3.952.02-.215 4.65.41.442 1.5.39-1.52 1.006-.36.718.124.586-2.26 2.012" fill="#FFF"/><path d="M500.06 179.016l-.607 1.47-.38.214-2.916-.36-3.11.79-.185.7 1.314 1.262-.627.236h-1.17l-1.234-1.427-.647.033-.545 1.037.575 1.806 1.06 1.222-.576.39-.052.636 2.587 2.177.02.895-1.828-.606-.493.574.512 1.027-1.098.206-.308.545.77 2.064-1.007.02-1.89-1.15-1.406-4.31-2.27-3.03-.112-.575 1.068-1.315.206-.975.873-.68.03-.47 1.354-.217 1.037-.657 1.253.052.667-.575h2.322l1.868-.77 1.9 1.026 2.34-.29.36-.4.01-.79.35.226-.02-.01zm-6.757 18.04l.596.41-.7-.124.112-.287h-.01zm2.084.677l2.577.06.247.33-2.042.133-.79-.523h.01z" fill="#D9F0FD"/><path d="M460.758 286.847l.02 2.28h-4.2l.71-2.33 3.47.05m-175.94-9.804l-.33 1.878-1.354.588-.236.472-.287 2.052 1.14 1.87.853.194.33 1.283 1.16 1.66-1.243-.194-1.11.73-1.817.513-.452.47-.88-.092-1.356-1.038-.79-2.33.37-1.95.697-1.264-.584-1.2-.76-.442.123-1.19-.925-.71-1.13.093-1.344-1.52.545-.74-.04-.862 2.042-.883.05-.606-.727-.802.142-.585 1.705-1.274 1.396.79 1.447 1.53.062 1.18.38.39.82.052 2.116 1.91m250.794-103.812l5.43.913 4.18 2.062 1.447-.452 2.124.576.698 1.13 1.098.564-.122.606 1.006 1.324-1.037-.133-1.858-.852-.967.482-3.316.442-2.35-1.43-2.393.05.215-.994-.78-2.32-1.49-1.15-1.468-.4-.42-.432" fill="#FFF"/><path d="M423.613 121.657l-2.248 3.305v.462l5.266-.308-.542 2.434-2.258 3.203.296.647 2.433.215 2.39 4.415 1.808.708 2.257 5.257 3.02.79-.238 1.664-1.18.9-.104.535.842 1.458-1.91 1.468-3.388-.02-4.23.894-1.067-.596-.483.06-1.55 1.448-2.177-.35-1.91 1.213-.615-.298 3.275-3.08 2.218-.708.288-.42-.35-.37-3.83-.545-.41-.78 2.26-.895.174-.626-1.294-1.715.37-1.746 3.47.287.442-.34.38-2.042-1.838-2.556-3.193-.74-.39-.606.81-1.386-.04-.474-.843-.996-.626.01-.698.863-.102-2.4-1.263-1.93.873-3.563 1.817-2.75 1.9.266 2.227-.226-.04-.04zm-6.52 14.517l-1.036 1.817-1.612-.604-1.19.01.38-1.58-.402-1.428 1.49-.102 2.36 1.89h.01v-.002z" fill="#D9F0FD"/><path d="M465.326 286.745l-.082 1.006.72 1.326 2.422.247-1.006 2.7 1.21 1.837.258 1.827-.298 1.56-.616.955-1.89-.092-1.262-1.14-.677.236-.154.863-1.456.265-1.047.718-.113.534.79 1.386-1.376.996-4.045-4.416-1.478-2.515.062-.617.554-.832 1.08-3.55 4.28-.073.41-.41-.02-2.73 2.454.214 1.283-.276v-.02zm-63.078-26.088l.483.82 1.14-.327 1.007.718 1.1.206 2.32-1.253.656.454 1.16 1.602-.493 1.437.82.308-.08.494.47.698-.358 1.397 1.078 2.68-1.027.707.03 1.448-.738-.062-1.11 1.028-.246-.276.07-1.14-1.078-1.58-1.838.216-.36-2.064-1.642-2.238h-2.053l-1.346.554-2.002 2.238-1.91-2.248-1.23-.8-.31-1.14-.82-.873.667-.74.83-.03 1.684-.82.236-1.92 2.742.655.914-.307 1.242.154-.01.005zm-12.823-2.793l.103-.36 2.494-.07.76-.627.524-.03.79.502-1.057-.31-1.92.924-1.696-.04v.01zm4.846-.492l.936.05.77-.245-.606.318-1.11-.134.01.013zM362.435 1.002l15.082 4.795-3.78 1.94-23.58.884-.37.28.123.44 1.59 1.212 9.023-.677 7.68 2.125 4.99-1.817 1.704 1.777-2.598 3.275-.01.493.47.154 6.52-2.26 12.38-2.37 7.435 1.16 1.12 2.042-10.052 4.117-1.478 1.355-8.08 1.006-.36.42.39.39 5.206.25-2.597 3.674-2.125 3.912.08 6.21 2.64 3.194-3.306.204-4.23 1.705-.05.737 4.567 2.72.524 3.85-2.36.41-.258.658 2.864 3.79-4.947.317-.37.298.165.452 2.69 1.848-.606 1.253-3.388.72-3.542.01-.298.697 3.11 3.203.02 1.376-4.516-1.778-1.766 1.386.154.676 3.398 1.18 3.214 2.783.83 3.244-3.95.77-5.022-4.373-.482-.03-.175.45.81 2.937-2.783 2.27-.133.45.38.278 8.962.35L360.7 80.64l-7.434 1.52-3.02.083-2.76 1.797-3.522 4.527-5.38 2.916-1.776.185-7.31 2.156-2.207 2.587-.13 3.07-1.223 2.517-4.117 3.172-.145.45.996 2.978-2.34 6.653-3.18.207-3.934-3.152-4.99-.02-2.31-1.982-1.744-3.89-4.414-4.97-1.242-2.557-.452-3.9-3.41-3.728.864-2.936-1.602-1.745 2.34-4.722 3.933-1.787 1.057-2.012.533-3.562-.605-.42-4.282 2.268-2.124.595-2.793-1.314-.154-2.78.872-2.147 2.064-.062 5.194 1.233.473-.236-.144-.502-6.715-4.59-2.74.566-1.623-.883 2.628-4.116-.03-.493-1.54-1.786-5.114-8.726-3.214-2.012.03-1.93-.246-.38-7.032-3.1-5.503-.39-13.04.594-2.853-1.612-3.76-2.843 5.884-1.488 5.133-.288.39-.39-.36-.42-10.954-1.418-5.442-2.115.257-1.58 18.9-5.402 1.254-2.33-.257-.565-6.304-1.91 1.725-1.817 8.778-4.137 3.686-.646.31-.554-.905-2.33 5.616-1.51 7.855-.975 7.75-.05 3.122 1.9 6.653-3.36 5.965 2.28 3.655.514 5.298 1.992.514-.216-.173-.534-5.862-3.213.288-2.187 8.336-3.696 8.932.287 3.44-2.4 8.942-.617 20.46.82.018-.067zm192.798 212.223l.38.883-.175.78.616 1.57-.975.042-.842-1.314-1.612-.185 1.345-1.93 1.25.177.012-.022z" fill="#FFF"/><path fill="#D9F0FD" d="M431.744 264.148l-.01.74.985 1.23.245 3.83.606.976-.523 2.156.195 1.447 1.047 2.27-7.157 2.915-1.848-.585.04-.914-1.046-2.094.626-2.723 1.098-2.382-.986-6.642 5.143.07.966-.4.626.114"/><path d="M583.24 236.86l-.935 1.713-1.253.04-.616.782-.42 1.55.277 1.622-1.19.05-1.603.997-.78 1.787-1.663.053-1.007.667-.174 1.18-.914.534-1.53-.185-2.464.963-2.535-5.544 7.546-2.783 1.712-5.37-1.15-2.145.052-.852.687-1.026.073-1.078.924-.43-.05-2.126.718-.01 1.026 1.662 1.55 1.11 3.39.862 1.776 2.35.83.38-1.262 2.413-1.016.81m-37.924 28.78l1.55.122 5.267-.977 5.443-1.52-.01 4.518-2.74 3.48-1.9.01-8.255-3.017-2.618-3.255 1.15-1.756 2.093 2.402m-59.916-88.61l-1.11-1.324.987-.79.298-.853 2.033 1.684-.37.69-1.838.595m47.093 29.505l-5.277 1.602-.195.668 2.218 2.454-.914 1.17-1.755.35-1.756 1.847-2.4-.38 1.24-4.433.577-4.18 2.874.966 4.58-2.782.81 2.73" fill="#FFF"/><path d="M467.74 166.953l1.118.072-.842.965-.277-1.037zm1.406.082l.636-.42 1.776.46.43-.41-.01-.605.884-.534.205-1.078 1.674-.698 2.64 1.725 2.126.616.893-.317 1.077 1.612-.534.647-1.078-.574-1.725.04-2.157-.512-1.324.062-.587.503-.606-.483-.637.164-.47 1.747 1.837 2.484 2.864 2.825-1.21-.894-2.27-.892-1.713-1.827.134-.646-1.077-1.222-.33-1.303-1.457-.44.01-.023v-.002z" fill="#D9F0FD"/><path d="M243.37 244.508l-1.19.44-.934-.564.05-.205 2.075.316v.012zm.494.05l1.088.124-.05.01-1.038-.123v-.012zm1.766.02l.81-.522.063-.637-1.048-1.028.02-.842-.307-.41-.955-.328 3.244.462.02 1.89-.492.348-.082.595.554.74-1.827-.268v-.002z" fill="#FFF"/><path fill="#D9F0FD" d="M474.402 161.87l.667-1.63-.094-.453h.657l.4-.35.103-.707 1.797.893 2.382-.38.44-.678 3.584-.8.71-.8.583-.145 2.638.955.69-.236 1.057.665.082.38-1.46.73-2.66 4.25-1.846.543-1.725-.103-2.814 1.262-1.9-.555-2.607-1.704-.68-1.13"/><path d="M204.923 255.945l-1.746-1.243.062-.965 3.12-2.197 2.432.288 1.304-.093 1.13-.534 1.334.29 1.17-.257 1.418.38 2.29 1.407-2.423.953-1.263-.4-.903 1.335-1.317 1.016-1.006-.226-.43.534-.987.05-.368.422.04.904-.533.616-.31.04-.308-.564-.678-.318.113-.688-.492-.667-.894-.267-.75.205-.007-.02zM263 244.867l-.266.277-2.905.05-.074-.563 2.002-.1 1.25.34-.008-.003zm259.79-36.61l.102-.063-.02.03-.093.032h.01zm.153-.165l-.02-.647-.34-.164.32-1.117.245.102-.205 1.828z" fill="#FFF"/><path d="M412.556 192.148l-.657.482-1.16-.36-.937.175.288-1.827-.246-1.828-1.283-.575-.46-.862.174-1.704 1.036-1.214.71-2.998-.04-1.428-.607-1.95 1.335-.873.862 1.385 3.183-.308.472 1.016-1.078.965-.03 2.218-.422.585-.082 1.13-.81.185-.268.606.934 1.643-.648 1.796.78 1.12-1.13 1.56.072 1.077M282.23 344.854l.76 1.56-.164 3.542.33.42 2.71.515 1.14-.48 1.436.605.37.616.544 3.51 1.304.413 1.006-.39.523.277v1.21l-1.244 5.462-2.146 1.95-1.847.412-4.835-1.007 2.258-3.726-.328-1.54-2.854-1.313-3.11-1.99-2.126-.453-4.456-4.168.934-2.978.082-1.457 1.1-2.094 4.24-.74 2.237.032 2.105 1.2.03.607" fill="#D9F0FD"/><path d="M219.5 270.482l.268-1.56-.37-.267-.01-.503.452-.103.955 1.435 1.294.03.79.504 1.415-.237 2.577-1.14.883-.74 3.542.874 1.437 1.21.42 1.788-.215.35-.545-.124-.482.298-.165.615-.7-1.314.463-.503-.194-.677-.482-.133-.555-.862-1.54-.77-1.13.164-.77 1.014-1.662.863-.186.985.873.996-.596.46-.708.083-.35-1.21-1.303.03-.73-1.077-2.66-.473-.02-.008zM830.142 306.6l2.608 2.63-.134.266-.338.123-.894-.803-1.252-2.218h.01zm-7.36-5.975l.512.298.267.277-.5-.36-.278-.215zm1.806 1.58l.606.515.082 1.088-.298-.934-.39-.668zm-6.663 3.933l.534.77 1.466-.195 2.33-1.858-.01-1.468 1.15.164-.04 1.13-.72 1.316-1.15.184-.636.81-2.525 1.14h-1.2l-3.163-1.283h3.5l.463-.698v-.013zm-7.73 5.277l2.37 1.848 1.633 2.68 1.376.133-.062.678.318.442 1.09.246.06.667 2.31 1.076-1.252.134-.74-.646-4.68-.667-3.307-2.947-1.53-2.402-3.355-1.13-2.443.74-1.632.882-.205.432.277 1.59-1.59.7-1.397-.412-2.27-.092-.082-15.82 8.615 3.007 3.03 2.464.615 1.682 4.127 1.53.318.698-1.807.216-.337.534.564 1.725-.01.01h-.002zm-558.703-8.562l-1.293-.072-.588.433-1.98.462-3.06 1.797-.37 1.397-.596.82.124 1.406-1.272.606-.226 1.253-.637.863 1.068 2.33 1.314 1.48-.42.86.328.586 1.52.134 1.19 1.406 2.27.072 1.672-1.11-.133 3.102.308.41 1.17.298 1.345-.35 1.95 3.687-.492.874-.174 3.952-.963 1.632.36.77-.484 1.097 1.007 2.022-2.157 3.922-1.007.513-2.227-1.314-.403-1.19-5.082-2.65-4.58-2.863-1.888-1.55-.934-1.89.308-.985-2.165-3.42-4.95-9.937-1.067-1.232-.894-1.992-3.49-2.545.595-1.21-1.16-2.29.677-1.53 1.49-1.18-.617 1.004.073.944.482.37 1.787.03.996 1.202.554.072 1.458-1.058.616-1.89 1.458-2.073 3.12-1.066 2.804-2.69.883-1.787-.1-1.92 1.477 1.048.924 1.284 1.09.605 1.745 2.803 1.91.318 1.488-.625.986.4 1.395-.194 1.49.914-1.44 2.27.32.625.605.05.482.514.01-.027z" fill="#FFF"/><path fill="#D9F0FD" d="M631.492 197.24l-1.878 1.858-2.67.4-3.83-.698-1.62 1.366-.094.43 1.817 4.508 1.746 1.263-1.735 1.304-.123 2.2-2.393 2.71-1.642 2.874-2.526 2.74-3.11-.07-2.834 2.905.05.615 1.54 1.14.268 1.95 1.478 1.54.38 1.725-5.143-.012-1.828 1.746-1.458-.534-.78-1.92-2.33-2.207-11.92.883.73-2.403 3.52-1.355.257-.452-.216-1.273-1.232-.667-.287-2.526-2.353-1.17-1.314-1.992 2.895.965 2.69-.39 1.457.34.78-.576 1.756.195 3.337-1.17.276-.37.083-2.248 1.21-1.356h1.725l.596-.84 1.643-.31 1.22.165 1.007-.8.02-1.93.956-1.51 1.52-.678.195-.565-.677-1.283 2.095-.113.71-1.037-.022-1.19 1.14-1.09-.175-1.826-.503-1.056 1.18-1.006 5.566-.934 2.67-.842 1.643 1.192.995 2.402 3.542.996"/><path d="M756.664 270.646l.4 3.05-.452 1.21-.564-1.57-.688-.143-1.2 1.314.666 2.145-.43.71-2.547-1.264-.588-1.53.668-1.057-.102-.553-1.632-1.22-.575.08-.666.894h-1.262l-1.622.997.853-1.848 2.63-1.46.666.863.46.134 1.95-.708.577-1.14 1.54-.063.39-.44-.093-1.223 1.244.73.37 2.073.01.02h-.004zm-3.512-7.453l.052.77.082.267-.82-.43-.186-.73.872.123zm.503-.493l-.123-1.15-1.026-1.304 1.396.03.544.75.524 2.095-1.304-.41-.01-.01zm-.328 1.622l.39 1.006-.328.154-.074-1.16h.01zm-9.353-19.763l1.5.717.738-.32-.328 1.202.81 1.755-.585 1.89-1.57 1.067-.403 2.31.575 2.094 1.674.585 1.19-.276 2.783 1.263-.196 1.11.78.86-.082.37-1.437-.923-.904-1.304h-.676l-.39.566-1.643-1.345-2.207.37-.893-.4.073-.625.678-.565-.01-.638-.77-.605-.74.45-.76-.892-.4-2.556.33.275.678-.287.267-4.077.72-2.073h1.2v.002zm6.55 20.983l-.903.873-1.22 1.99-1.08-1.22.957-1.13.328-1.51.534-.06-.278 1.18.227.462.502-.124 1.027-1.355-.084.872-.01.02h-.002zm-4.312-3.172l.852.39h1.2l-.02.493-2.052 1.438.03-2.32h-.01zm-2.074-3.79l-.39 1.306-1.458-2.002 1.232.05.616.648zm-8.48 9.99l1.13-.974.03-.03-.287.37-.87.625v.01h-.002zm2.74-2.832l.042-.063.822-1.57.164.77-1.027.862h-.002zM480.932 153.175l-1.14-1.58-1.91-.34-.492-1.078-1.766-.38-.667.71-.74-.37.113-.627-.34-.472-1.795-.277-1.068-.953-.965-1.992.164-1.252-.636-1.848-.8-1.1.584-1.067-.493-1.468 1.45-.853 7.094-2.782 2.197.513.535.934 5.657.452 4.672-.05 1.1.317.492.864.154 1.623.667 1.232-.01 1.015-1.304.595-.194.554.75 1.52.08 1.59 1.232 2.834-.175.596-1.263.45-2.33 2.794.184.975-2.022-1.057-2.033.41-1.395-.287-1.273.593-1.1-.995-1.19.245-.023.012zm37.442 44.61l.35.01.277-.073-.296.267-.318-.207h-.012zm-24.064 123.64l.4.32 2.587.142 1.016 1.202 2.064.357 1.437-.657.71 1.202 1.826.34 1.89 2.412 2.29.184.41-.44-.216-2.814-.637-.308-.493.328-2.033-1.2.74-5.432-.522-1.21.585-1.336 3.778-.637.268.645 1.243.647.925-.226 2.217.688 1.367.73 1.097 1.046.575 1.92-.903 2.773.44 2.146-.75.89-.78 2.434.605.698-6.776 1.88-.3.45.196 1.49-1.724.36-1.467 1.046-.39.892-.894.267-3.573 3.788-4.27-.545-1.56-1.026-1.818-.134-1.88.534-3.12-3.49.112-7.793 4.95.03.4-.5-.185-.78.34-.854-.412-1.397.246-1.08-.01.015zm-99.64-85.233l.258-.812 1.088-1.324.82-3.604 3.472-2.854.718-1.858.062 4.97-2.033.204-.965 1.633.4 3.655-3.798-.01h-.022zm7.794-12.505l.718-1.848 1.817-.25 2.144.35.976-.636 1.315-.072v2.577l-6.97-.124zm96.198-105.81l2.71.617 2.63.113-1.644 1.96.627 3.636-.832.893-1.828-.01-3.305-1.807-1.848.46.215-1.57-.595-.42-.71.347-1.292-1.057-.175-1.673 2.906-.944 3.133-.534.01-.012zm6.52 92.39l1.5.43 3.027-1.68 2.093-.217 1.57.308.606 1.222.71.04.42-.656 1.857.595 2.002.163 1.066-.524 1.458 4.19-2.084 4.66-1.703-1.818-1.807-3.953-.657-.124-.37.688 1.068 2.956 3.534 7.137 1.827 3.12 2.085 2.72-.37.546.237 2.063 2.773 2.25h-29.168V214.92l-.75-2.26.607-1.6-.33-1.296.7-1.016 3.14-.042 4.95 1.56.008.002z" fill="#FFF"/><path d="M479.597 382.933l-.133-2.012-.7-1.6.72-.7-.133-2.39-4.68-8.41.79-.88.617.46.708 1.345 2.905.74 1.54-.267 2.3-1.427.194-9.804 1.386 2.36-.215 1.54.626 1.233.413.194 1.837-.277 2.67-2.125.707-1.354.986-.493 2.248 1.068 2.096.134 1.818-.667.872-2.177 1.417-.338 1.633-2.834 2.207-1.94 3.5-1.92 2.054.463 1.047-.288 1.017.206 1.797 5.43-.39 3.338-.83-.236-1.028.47-.894 1.726-.052 1.19 2.023 1.89 1.51-.298.708-1.21 1.12.01-.782 3.788-.595 1.12-2.26 1.836-3.253 4.887-2.875 2.906-3.666 2.957-2.598 1.078-1.252.144-.524.72-1.21-.33-1.428.514-2.66-.534-1.652.34-1.212-.114-2.618 1.128-2.156.452-1.642 1.098-.873.052-.957-.914-.955-.154-.997-1.16-.255.05.01-.01h.002zm24.958-9.26l.637-.955 1.52-.606 1.21-2.248-.07-.504-2.044-1.735-1.704.575-1.47 1.17-1.374 1.777.02.523 1.93 2.167 1.345-.165z" fill="#D9F0FD"/><path d="M238.043 292.915l.298 1.632-.707 1.49-2.68 2.576-3.213 1.14-1.572 2.238-.503 1.726-1.026.75-1.05-1.14-1.827-.164.688-1.18-.246-.883 1.284-2.187-.556-1.118-.687-.083-.74.893-.893-.657.36-.71-.37-2.01.83-.525.463-1.55.945-1.61-.072-.997 2.72-1.365 2.824 1.387.79 1.078 2.177.36.78-.33 2.013 1.243-.03-.003zm244.82-116.763l.76.03.943.915-.174 2.002.37 1.312 1.036.842-1.868 2.905-.195-.627-1.284-.914-.183-1.233.545-2.895-.554-1.51.616-.85-.012.02zm-9.005 131.65l1.294 3.234 1.99 2.422 2.537-.544 1.282.33.45-.186.956-1.97 1.344-.083.42-.452h.483l-.102.42.4.504 2.72-.02.032 1.22.492 1.038-.35 1.56.185 1.592.852 1.068-.133 2.926.555.4 4.066-.42-.102 1.84.402 1.077-.247 1.468-4.825-.03-.41.4-.124 8.346 2.998 3.585-3.932.903-6.047-.37-1.93-1.273-10.75.226-1.334-1.036-1.9-.164-2.464.79-.154-1.09.34-2.216 1.026-3.542 1.385-3.286 2.3-2.874.338-2.115-.132-1.57-.82-1.11-1.244-2.946.893-1.662-1.304-4.23-1.202-1.57 2.537-.647 7.218.03.01.033h.003zm-10.102-1.19l-.483-1.285 1.283-1.14.33.31-1.017 1.056-.126 1.058h.01l.002.002zM567.54 177.27l.474-1.303-.493-1.078-3.037-1.223-1.088-2.65-1.407-.892-.03-.308 2 .236.463-.39.083-2.013 1.797-.42 2.155.462.493-.338.462-3.122-.462-2.145-.42-.32-2.486.155-2.423-.75-2.948 1.408-2.228.626-.873-.35.135-1.652-1.643-2.177-2.074-.082-1.828-1.868 1.324-2.24-.585-.974 1.663-2.987 2.27 1.673.646-.28.297-2.28 5.05-3.52 3.81-.082 8.624 3.695 3-1.396 3.87-.063 3.192 1.704.524-.112.616-.83 3.398.132.4-.256.648-1.612-.174-.514-3.594-2.032 1.92-1.304-.133-1.058 2.033-.74.184-.635-1.632-2.116.832-.84 9.476-1.213 1.365-.903L607.53 135l2.32-1.458 4.19.7.75 3.417.522.307 2.546-.82 2.865 1.046-.175 1.602.442.452 2.618-.247 5.02-2.597.03.328 3.235 2.68 5.708 8.697.67.02 1.15-1.5 3.233 1.788 3.86-.8 1.18.502 1.172 1.848 1.89.78 1.015 1.325 3.438-.257 1.048 1.56-1.643 1.86-1.982.286-.347.39-.113 3.13-1.16 1.19-4.877-1.025-.473.277-1.807 5.616-1.13.607-5.04 1.263-.277.554 2.156 5.102-1.407.647-.236.42.132 1.16-.904-.254-1.46-1.16-8.1-.41-.943.317-3.83-1.252-1.458.647-.545 1.704-3.82-.964-1.898.44-.78 1.437-4.775 2.69-1.16 2.136-.453.01-.944-1.438-2.947-.093-.463-2.198-.39-.328-.82-.01v-3.04l-3.08-2.28-7.506.597-2.412-2.75-6.89-3.79-6.62 1.88-.298.4.102 11.14-.72.082-1.663-2.228-1.878-.986-3.194.606-.658.523-.008-.007zm-37.74 76.898l1.13.863 1.674-.46.698.48 1.673.033 2.064.965 1.774 1.705 1.684 2.125-1.562 2.094.165 1.767.4.39h2.106l-.37 1.057 2.936 3.675 8.542 3.162 1.345.02-6.488 6.93-3.183.114-2.424 1.817-1.51.04-.882.812h-1.417l-1.355-.832-2.35 1.078-.78 1.008-3.38-.42-3.15-2.126-1.85-.07-.636-.616V278.5l-.287-.39-1.18-.38-1.44-2.66-1.22-.697-.483-1.026-1.304-1.263-1.19-.226.44-.74 1.49-.287.42-.973-.03-2.27.697-2.504 1.08-.647 1.467-3.14 1.612-1.408 1.046-2.577.36-1.93 2.586.473.452-.246.595-1.468.03.028z" fill="#FFF"/><path d="M512.214 349.956l-1.14-.225-.944.29-2.146-.453-1.54-1.14-1.94-.44-.637-1.438-.01-.863-.308-.39-.998-.257-2.782-2.814-1.97-3.41 3.932.463 3.83-3.924 1.108-.45.267-.792 1.284-.924 1.45-.266.512.914 2.045-.052 1.765 1.202 1.14.174 1.078.678.01 3.07-.605 3.86.39.883-.236 1.263-.4.36-.65 1.857-2.494 2.823m-85.133-176.463l1.1 1.2 4.732 1.418 1.088-.583 2.67 1.293 2.782-.31.092 1.15-2.197 1.85-3.193.626-.318.318-.208.914-1.58 1.735-.996 2.464.862 1.786-1.356 1.304-.493 1.725-1.93.667-1.704 2.123-5.503-.01-1.838 1.11-.914 1.005-.902-.176-.812-.842-.7-1.632-2.432-.647-.113-.512 1.244-1.87-.79-1.16.625-1.724-.78-1.663.893-.502.093-1.283.43-.616.032-2.166 1.015-.71.134-.512-1.06-1.776-1.498-.113-.627.39h-1.088l-.534-1.263-.543-.214-1.356.687-.01-1.53-.77-.985 3.11-1.93 3.07.544 3.41-.02 2.7.523 6.17-.06" fill="#D9F0FD"/><path d="M534.257 252.567l3.51 2.495 3.594 3.87.865.555-.976-.01-3.604-3.994-2.392-1.18-1.776-.073-.935-.524-1.293.524-1.377-1.047-.626.174-.678 1.653-2.415-.44-.174-.69 1.325-5.43.627-.626 2.002-.544.893-1.037 1.2 2.474.7 2.392 1.53 1.466m-52.843-75.674l-1.252-1.048.482-1.858.914-.74 2.32 1.55-.513.586-.77-.277-1.17 1.776m20.01-19.29l1.437-.277 1.765.955 1.1.154.872.667-.146.86.986.873 1.15 2.536-1.18-.073-.678-.42-.534.256-.092.883-1.11 1.94-.276-.883.257-1.375-.165-1.644-3.377-4.456m59.023 169.822l.41 3.112.637 1.242-.216 1.047-.587-.82-.708-.01-.483.78.42 2.178-.184.893-.75.8-.154 2.2-4.836 15.604-1.088 2.957-4.025 1.685-3.203-1.53-.616-1.242-.195-2.464-.882-2.106-.215-1.817.39-1.664 1.242-.77.01-.78 1.222-2.094.235-1.705-1.088-3.07-.195-2.27.83-1.365.33-1.5 4.752-1.252 3.532-3.08.873-1.437-.082-.717.8-.04 1.417-1.818.134-1.684.46-.625 1.192 1.735.605 1.64" fill="#FFF"/><path fill="#D9F0FD" d="M388.88 235.925l.062-.606.945-.75.842-1.408-.095-1.068.81-1.745 1.346-1.623.987-.606.678-1.59.092-1.51.832-1.52 1.764-1.1 1.592-2.76 1.19-.985 2.506-.4 1.992-1.87 1.344-.8 2.145-2.34-.523-3.748 1.273-3.798 1.54-1.798 4.58-2.64 2.432-4.588 1.478.01 1.725 1.243 2.382-.195 3.562.667.822 1.58.164 1.756.883 3.04.576.604-.267.628-3.13.45-1.295 1.08-1.365.225-.338.38-.093 1.827-2.753 1.027-1.1 1.458-4.588 1.16-4.15 2.064-.553 4.76-1.18.063-.945.626-2.012-.36-2.484.554-.76 1.95-.883.412-1.17 3.347-3.624 3.09-.824 3.645-.985 1.128-.297.842-5.082.185"/><path d="M614.604 177.127l-1.674 1.56.062.658 1.9 1.15 2.022-.657 2.27 1.2-2.59 1.726-2.658-.226-.184-.42.472-1.264-.462-.544-3.44.708-2.155 3.604-1.92-.123-1.058 1.55.224.563 1.684.636.47 1.88-1.22 2.555-2.732-.545.052-1.395-.267-.4-3.387-1.263-2.628-1.437-4.518-3.43-1.377-3.223-1.108-.616-2.65.133-.708-.453-.482-2.588-3.46-1.643-.44.05-2.127 1.767-2.156 1.037-.216.483.287 1.037-1.96.032-.092-10.78 6.15-1.745 6.356 3.634 2.782 2.918 7.238-.688 2.782 2.063-.174 2.885.4.43.924.02.452 2.198.39.33 3.018.09.976 1.46 1.314-.247 1.078-2.097 4.548-2.566m77.258 58.983l-2.022 1.612-.585.985-1.437.616-1.397 1.078-2.045.37-1.11 2.733-.933.41-.195.565 1.242 2.33 2.587 3.522-.81 1.96-.76.42-.176.535.67 1.406 1.652 2.004.256 2.65.923 2.186-1.97 3.664.698-2.31-.83-1.786.194-2.72-1.078-1.572-1.273-6.334-1.15-2.32-.615-.134-4.456 3.1-2.454-.667.79-2.914-.533-2.68-1.96-3.038.256-.77-.3-.524-1.365-.308-1.653-1.98-.102-1.336.843-.247.04-1.684 1.048-.536.218-.462-.237-.975.556-.986.082-2.28 1.5.464.48-.205 1.15-2.25.166-1.386 1.365-2.217v-1.56l2.966-1.705 1.674.452.512-.452-.175-1.437.657-.37.083-1.068.79-.113.73 1.386 1.087.71-.03 3.963-2.444 2.433-.308 3.234.472.44 2.34-.39.525 2.137 1.507.687-.616 1.848.196.493 3.05 1.52 1.683-.565.02.33m-288.78 24.546l-.195-2.433-1.017-.893-.452-1.335-.092-1.314.832-.593.36-1.274 2.432.668 1.345-.482.883.154.678-.574 10.092-.04.39-.288.575-1.848-.45-.668-2.413-22.535 3.358-.04 17.145 11.682.76 1.344 2.565 1.12.02 1.416.453.4 2.402-.215.01 5.524-1.314 1.653-.267 1.53-5.453.584-1.1.945-2.976.104-.882-.493-1.418.37-2.464 1.11-.616.892-1.9 1.12-.44.718-.812.4-1.478-.215-.832.862-.35 1.684-1.96 2.075-.06 1.056-.69 1.253.134 1.19-.996.4-.236-.657-.534-.247-1.386.41-.35.565-2.76-.286-.38-.36-.02-.923-.668-.36.462-.655-.03-.543-2.178-2.505-.78-.01-2.053 1.19-.8-.154-.822-.687-1.242.237m291.545-110.496l3.912 1.725 5.82-1.027 2.434.42 2.4 1.54 1.84 1.798 2.35-.03 3.202.533 2.536-.832 3.5-.606 3.624-2.27 1.284.3 1.57 1.16 2.33-.216-2.73 5.143.657 1.725.483.216 1.355-.39 2.444.492 2.074-1.14 1.807.914 2.115 2.074-.133.544-1.767-.297-3.87.472-1.93 1.016-1.808 2.045-3.81 1.202-2.514 1.642-3.93-.894-.422.175-1.345 2.044 1.07 2.3-1.56.923-1.787 1.612-2.865 1.047-3.882.133-4.158 1.077-2.843 1.56-1.19-.872h-3.02l-3.716-1.838-2.65-.503-3.49.42-5.256-.687-2.7.062-1.345-1.645-1.44-3.08-1.52-.34-3.212-1.99-6.325-.955-.73-1.088.884-3.92-1.982-2.784-3.594-1.21-2-1.623-.514-1.766 2.4-.536 4.878-2.875 3.717-1.51 2.24.996 2.524.05 1.86 1.572 2.524.122 4.055.73 2.495-2.342.082-.492-.924-1.766 2.3-3.06 2.69 1.304 5.072 1.2.44 2.3" fill="#FFF"/><path fill="#D9F0FD" d="M485.408 178.39l.503-.73 3.667-.728 1.027.79.133 1.49-.667.544-1.182-.052-1.15.688-1.427.226-.81-.565-.296-1.057.195-.616"/><path d="M518.98 317.33l.873 2 .154 2.937-.71 1.694.73 1.85.062 1.314.5.657.073 1.09.41.564.822-.236.564.627.71-.216.347.615.195 3.018-1.068.637-.554 1.282-1.14-1.11-.163-1.6.524-1.345-.327-1.335-1.016-.667-.842.123-2.423-1.684.648-2.012.84-1.21-.47-2.065.923-2.936-.964-2.575.985.185.297.41m-100.74-91.025l-2.65.03-.4.453 2.486 23.16.37.443-.4 1.275-10.01.04-.575.545-.935-.114-1.304.462-1.653-.678-.993.03-.37.3-.39 1.385-.43.236-3.01-3.49-3.038-1.56-1.665-.03-1.303.554-1.15-.205-.667.41-.082-.503.7-1.325.318-2.494-.585-4.014.237-1.242-.71-1.54-1.18-1.047.256-.4 9.836.02.41-.462-.472-3.777.483-1.068 2.176-.216.37-.41-.082-6.572 8.018.134.42-.41.01-3.4 7.968 5.493" fill="#FFF"/><path d="M511.845 283.46l.718-.473 1.694.513 2.013-.585 1.745.01 1.49-1.006.933 1.364 1.365 4.055-2.638 4.137-1.5-.41-2.607.933-1.406 1.654-.01.832-2.485-.01-2.32 1.036-.175-1.632.595-1.068.144-1.992 1.41-2.34 1.826-1.622-.174-.668-.74-.246.135-2.495-.012.01zm224.758-2.937l-1.428.667-2.176-.42h-2.96l-.39.287-.86 2.823-1.018.986-1.242 3.378-1.775.462-2.516-.7-1.43.32-1.364 1.18-1.632-.143-1.448.45-1.478-1.22-.186-.75 1.375.544 1.98-.482.77-2.28 4.128-1.057 2.823-3.296.843.966.658-.052.41-.667.987.06.43-.37.247-2.75 1.86-1.685 1.24-1.91.648-.01 1.098 1.078.35 1.314 3.53 1.386-.06.36-1.407.102-.36.554.33.903.02-.03h.003zm-44.958-3.973l.174 1.12.48.338 1.695-.308.893-.965 1.652 1.56 1.006 1.602-.123 2.885.42 2.35.976.925.904 2.505-1.304.123-5.235-3.768-.35-1.324-1.406-1.633-.34-2.022-.904-1.438.257-1.724-.473-1.078 1.675.862v-.01z" fill="#D9F0FD"/><path d="M136.67 205.525l.205.483 9.887 3.418 7.146-.02.41-.41v-.76h3.87l3.645 3.008 1.428 2.905 1.56 1.066 2.138.842.482-.145 1.498-2.053 1.776-.042 1.633 1.007 2.104 3.44 1.51 1.6 1.295 3.224 2.238 1.047 2.32.596-1.21 3.82-.432 5.174 1.838 5.02 1.664 1.94.627 1.56 1.23 1.46 2.618.676 1.406 1.13 7.742-1.94 1.91-1.335 1.17-4.416 4.21-1.242 3.664-.113.328.307-.062.965-1.294 1.487-.687 1.756.39.72-.74 2.33-.503-.31-1.026.083-1.027 1.426-.484-.112-.545.482-4.372-.02-.412.41v1.088l-1.13.267.103.453 1.87 1.48.574.933-3.275.215-1.243 2.147.246.74-.205.45-2.3-2.237-1.49-.955-2.28-.708-1.56.226-3.15 1.19-10.833-3.95-2.936-2.01-3.88-.947-1.11-1.222-2.69-1.467-1.21-1.58-.39-.832.677-.646-.185-.544.534-.78.01-.934-2.053-3.922-2.27-2.7-2.597-2.146-1.222-1.663-2.258-1.2-.308-.443.348-1.52-.216-.46-1.263-.617-1.397-1.232-.606-1.827-1.58-.483-2.506-2.618-.163-.924-1.365-2.082-.863-2.043-.165-1.366-1.858-1.13-.996.05-1.344-.717-.585.226-.41 1.15.74 3.87 3.602 3.993.287.8.543.267.42 1.468 1.367 1.776 1.623 1.447.82 2.456 1.47 2.474.133 1.354.38.37 1.067.082 1.715 2.34-.873.78-.677-1.55-1.725-1.58-2.988-1.92.062-1.868-.554-1.725-2.988-2.084-.565.09-2.002-1.13-.903-.964.698-.083.955-1.036.082-1.828-1.982-1.993-1.5-.79-3.85-7.762 5.012-.43M861.414 331.18l.226 1.17-.45.03-.207-1.49.43.278" fill="#FFF"/><path d="M456.333 176.994l-.657 1.827-.596-.316-.503-1.766.41-.913 1.028-.74.308 1.9.01.01zm-15.236-26.2l1.828 1.622 1.498-.134 2.156 1.458 1.384.277 1.263.852 3.12.512-1.056 1.9-.307 2.175-.42.33-.976-.247-.514.442.062.626-1.858 1.972-.04 1.457.563.39.905-.37.626.997-.03 1.026.586.935-.77 1.12.668 2.453 1.304.585-.185.842-2.064 1.57-4.898-.82-3.92 1.026-.545 1.9-2.556.35-2.783-1.345-1.19.585-4.426-1.325-.74-.883 1.224-1.827.4-6.622-2.648-3.388-1.95-1.705-3.82-1.262-.195-1.766 2.886-.627 4.23.832.482-.493-.616-2.844 1.993.976 5.985-2.608.945-2.813 1.642-.503.247.8 1.396.34 1.078 1.22.04.01v.002zm-144.38 134.79l-.832.822-.8.123-.514-.68-.573-.1-.934.614-.472-.226 1.12-3.04-.986-1.817-.174-1.53 1.097-1.816 2.382.77 2.575 2.063.308.76-2.197 4.065v-.01.002z" fill="#D9F0FD"/><path d="M505.295 78.198l-.237 3.593 3.614 2.7-2.135 2.96-.02.45 2.874 4.68-1.63 3.4 2.217 3.327-.965 2.454.145.483 3.532 2.577-.79 1.662-7.723 7.136-4.62.318-4.496 1.407-3.902.76-1.478-2.013-2.23-1.14.514-3.757-1.19-3.42 1.12-2.134 2.267-2.487 5.824-4.435 1.683-.853.216-.43-.472-2.075-3.47-1.94-.77-1.47-.225-6.92-6.97-4.927.82-.636 2.608 2.175 3.552-.123 3.08.985 2.577-2.166 1.202-3.164 3.645-1.417 2.832 1.57-.975 2.864-.022.004zM894.77 334.813l-2.874 1.078-.082-.234 3.05-1.242-.103.4h.01zm-4.055 2.988l.442.38-.277.905-1.273.288-1.068-.247-.146-.677.647-.597.946.267.718-.32h.01zm-609.04 99.177l1.48 1.11-.483.748-3.08.914-.985-1.03-.534-.05-1.88 1.324-.75-.903 2.527-1.683 1.98.78 1.716-1.222.01.012z" fill="#FFF"/><path fill="#D9F0FD" d="M207.725 259.18l.832-.186 1.058-1.047-.042-.904h.7l.645-.554.996.224 1.57-1.294.597-1.015 1.203.35 2.474-.966.133 1.353-.832 1.992.103 2.813-.37.378-.11 1.797-.484.832.185 1.17-1.775-.873-.73.278-1.508-.616-.534.164-4.117-3.912"/><path fill="#FFF" d="M441.785 146.984l.616-.513 2.19-4.926 3.284-1.365 1.786.08.338.82-.605 3-.514 1.016h-1.295l-.41.462.338 2.772-2.26-1.828-2.69.595-.77-.113"/><path d="M504.545 68.978l6.98 2.967-2.35.883-.154.668 2.394 2.443-5.112 1.836.863-2.515-.185-.492-3.644-1.85-3.994 1.56-1.458 3.47-2.177 1.767-2.71-1.026-3.193.215-2.73-2.28-.514-.01-1.448 1.13-1.478.175-.36.36-.328 2.536-4.435-.657-.452.295-.595 2.167-2.516.205-4.26 7.885-3.984 5.913.8 1.664-.656 1.19-2.3-.06-.39.244-1.704 3.994.154 5.307 1.612 2.094-.8 4.27-2.076 2.547-.873 1.674-1.333-1.796-.596-.072-5 4.302-3.18.81-3.246-1.744-.872-3.87-.79-8.778 2.197-2.37 6.724-3.358 5.154-4.282 10.913-14.21 11.273-8.93 5.493-1.962 4.455.124 3.79-3.738 4.61.196 4.486-.914v.02zm-7.074-48.633l4.376 1.797-3.183 2.618-7.29.667-7.268-.924-.38-1.345-.38-.298-3.53-.102-2.137-2.054 7.053-1.478 4.005 1.345 2.454-1.682 6.293 1.438-.01.02h-.002zm-2.934 14.26l-4.57 1.787-3.633-1.016 1.15-.924.05-.596-1.087-1.252 4.332-.914 1.12 2.022 2.638.894zM478.88 24.452l7.63 3.87-5.557 1.91-1.622 4.19-2.32 1.23-1.15 4.22-2.68.185-4.916-2.936 1.89-1.58-.104-.697-3.79-1.57-4.897-4.63-1.776-3.995 6.273-1.87 1.58 1.973 3.667-.082 1.232-2.012 3.406-.185 3.13 1.973v.01h.003z" fill="#D9F0FD"/><path d="M486.907 339.248l-.996.04-.39.412-.07 9.137-2.146.083-.4.41v17.885l-2.033 1.263-1.2.174-2.505-.678-.493-1.16-1.015-.76-.555.052-.924 1.037-1.57-1.725-.955-1.93-2.042-8.788-.06-3.204-.34-1.56-2.36-3.43-1.96-4.958-2.014-2.495-.124-1.612 2.392-.81 1.468.073 1.858 1.16 10.503-.256 1.89 1.262 6.026.36.02.02-.003-.002zm.41-.02l6.684-1.643 1.953.4-1.735.41-1.345.853-1.15-.965-4.404.945h-.003zm373.83 10.882l-.338.226-2.98-1.796-3.347-3.46 1.694.852 4.98 4.178h-.01zm-394.27-117.768l1.365 1.406.493.072 1.304-.72.542 3.615.965.852.175.945.83.708-.45.976-.986 5.4-.134 3.306-3.12 2.37-1.253 3.666 1.046 1.274v1.498l.4.41 1.16.042-.924 1.284-1.51-2.485-.882-.296-2.144 1.407-1.787-.687-1.49-.175-.873.36-1.396-.072-1.683 1.12-1.088.05-3.02-1.314-1.478.607-1.037-.03-.996-.967-2.773-1.005-2.762.308-.893.657-.482 1.643-.77 1.19-.123 1.57-1.612-1.128-1.344.246.03-.83-.326-.42-2.66-.535-.153-1.19-1.385-1.645-.298-1.025.133-.863 1.324-.082 1.11-.944 3.397-.225 2.28-.42.33-.35.205-1.51 1.427-1.93-.01-5.81 3.45-1.15 7.433-5.257 8.645-5.05 3.788 1.087.01.047z" fill="#FFF"/><path d="M468.49 260.43l.656.668-.288 1.068-2.166 2.064-2.084 5.318-1.407 1.19-1.18 3.266-1.364.677-1.5-.994-1.24.165-1.418 1.397-.934.246-1.838 4.17-2.392.83-1.14-.072-.883.515-1.754-.052-1.222-1.427-.914-1.94-1.818-1.704-4.055-.082.072-5.348.43-1.47 2-2.36-.143-.934.442-1.212-.546-1.447.257-3 .74-1.1.33-1.374.47-.4 2.537-.288 2.402.913 1.18 1.05 1.314.04 1.253-.596 3.11 1.304 1.53-.144 1.397-1.026 1.365.072.84-.36 3.543.82 1.868-1.355 1.89 2.742.678.164-.018.01zm412.185 129.115l1.91 3.203.45.185.31-.39.03-1.263.39.277.585 2.372 2.074.963 1.858.277 1.612-1.087.72.184-1.182 3.686-2.033.113-.76 1.232.204 1.14-2.485 4.086-1.53.944-1.068-.872 1.242-2.105-.83-2.062-2.702-1.283.042-.585 1.868-1.223.442-2.402-.165-2.084-.976-1.867-.062-.74-3.193-3.736-.81-1.56 1.6 1.488 1.807.678.667 2.402-.02.03zm-4.076 14.31l.583 1.275.606.164 1.457-.996.472.81v1.058l-2.537 3.573-1.294 1.23-.06.514.562.893-1.447.072-2.392 1.415-2.084 5.154-3.1 2.217-2.117-.062-1.755-1.067-2.537-.207-.277-.75 1.253-2.154 3.13-3.02 1.665-.604 4.128-2.896 1.612-1.714 1.098-2.218.904-.718.492-1.797 1.273-.996.36.81v.01h.002zM658.236 219.087l.01 3.275-1.786.04-4.926-.882-1.622-1.427-3.46-.35-7.853-3.797.82-2.146 2.392-1.745 1.818.77 2.556 1.807 1.417.42 1.017 1.386 1.95.534 2.044 1.202 5.637.924-.013-.01z" fill="#D9F0FD"/><path fill="#FFF" d="M418.264 265.955l.883.43.575.925 1.16.544 1.222-.626.996-.082 1.457.554.616 3.326-1.057 2.136-.667 2.916 1.086 2.392-.062.544-2.607-.483-1.705.033-3.14.472-4.22 1.643.328-3.142-1.21-1.345-1.356-.676.43-.873-.204-1.436.513-.688.01-1.632.863-.33.267-.512-1.18-3.09.122-.513.524-.258.676.32 1.98.02.69-.73.728-.143.256.707.587.226 1.437-.625"/><path d="M456.477 160.29l-.298.893.183.544 1.16.596 1.026.103-.103.667-.81.39-1.767-.38-.46.236-.463 1.066-.77.062-.863-.412-1.355 1.027-.987.123-.904-.565-.83-1.334-.506-.164-.646.267.02-.667 1.755-1.704.102-.576.955.082.596-.473 2.043.02.677-.625 2.25.81M248.525 261.5l-1.745.605-.606 1.21-1.745 1.736-.39 1.984-.69 1.468.32.586 1.056.133.256.924.585.657-.04 2.404 1.683 1.458 3.245-.246 1.294.288 1.712 2.115.42.132 4.2-.4.462.226-.944 2.002-.204 1.848.533 1.878.77 1.078-1.15 1.13.07.647.863.523.76 1.325-.4-.462-.607-.01-.728.76-4.837-.052-.41.42.03 1.613.34.4 1.14.205-1.724.412-.298.39-.01 1.87 1.19 1.17.35 1.282-1.08 7.238-1.067-.893 1.295-2.043-.134-.575-2.237-1.262-1.417.206-1.17-.39-1.304.626-1.59-.267-1.418-2.526-1.263-.77-.872-1.233-1.714-1.22-.883.132-2.165-1.356-1.037.318-1.848-.298-.534-.934-3.173-1.725.79-.534-.102-1.15.42-.657 1.378-.328 2.053-2.957-.112-.585-.677-.442.4-1.415-.533-2.156.502-.853-.41-2.187-.997-1.387.174-.678.883-.082.483-.77-.473-1.673 1.448-.072 1.85-1.735.954-.247.308-.39.462-2.834 1.252-1.026 1.48-.04.46-.515 1.962.126 3.008-1.89 1.18-1.17.935.472-.257.462" fill="#D9F0FD"/><path d="M759.97 152.713l4.69 1.335 2.876 2.228 1.006 2.977.39.277h3.902l2.38-1.314 3.38-.77-.986 2.146-1.048 1.314-.872 3.49-1.56 2.804-2.834-.514-2.464 1.16-.216.462.657 2.64-.326 3.284-.966.062-.38.914-.934-1.037-.657.073-.944 1.612-3.83 1.284-.267.49.267 1.09-1.54-.082-1.12-.883-.574.06-1.715 2.116-2.772 1.603-2.084 1.93-3.49.852-1.984 1.437-1.18.35.34-.718-.422-.914 1.837-1.838.02-.554-1.353-1.602-.493-.102-2.3 1.12-2.905 2.114-1.55 1.878-2.34.134-1.594 1.53-.04.513 1.354 2.024 2.053.595.318 1.385 2.035.862 3.08-2.013 2.053 1.047 1.53.113.226.852-3.46.882-1.15 1.52-2.567 1.56-1.324 2.043.144.575 2.638 1.52.996 2.772 3.256 4.753-.03 1.705-1.387.667-.206.523.616 1.51 1.436.934-.914 3.922-1.468.39-3.953 6.612-2.33 3.193-6.96 4.69-2.802.3-1.488 1.067-.638-.626-.565-.01-1.396 1.284-3.48 1.304-2.68.41-1.127 2.865-.832.092-.502-1.458.513-.872-.255-.606-3.45-.864-1.335.41-2.372-.635-.965-.862.34-1.314-.31-.503-2.248-.47-1.16-.956-.482-.02-2.115 1.396-4.405.286-2.833 1.078-.288.442.33 2.597-.607-.03-.195-1.377-.565-.35-1.725.72-2.525-1.263.636-1.92-.265-.523-1.406-.452-.556-2.28-.462-.307-2.185.36.246-2.545 2.455-2.464.03-4.424-1.22-.944-.802-1.53-.42-.215-1.448.195-2.033-.308.472-1.098-1.2-1.746-.566-.112-1.672 1.078-2.31-.586-2.967 1.776-2.31 2.033-1.796.297-1.2-.73-3.4-.666-1.518.81-1.068 1.305-.123-1.202-.553-.35-1.48.556-5.697-.884-2.033-1.19-1.94-.555-1.016-1.385-1.375-.38-2.617-1.838-2.064-.862-1.243.574-5.717-3.543-.545-2.37 1.222.256.493-.38.082-1.458-1.006-1.602.153-2.505-2.763-3.408-4.23-1.264-.687-2.054-1.97-1.52-.39-.718-.524-3.09-1.562-.678-.72.134-.49-2.105.563-.523-.09-.842 2.083-1.222 1.643-.554 2.628.39.43-.226.875-1.745 3.08-.34 1.13-1.293 4.157-1.817.4-.934-.174-1.48 1.49-.69.205-.532-2.125-5.032 4.63-1.15 1.407-.75 1.94-5.656 5.113.883 1.55-1.746.113-2.947 2.044-.39 1.88-2.115.502-.134.698 2.137 2.29 1.817 3.53 1.19 1.593 2.352-.946 3.582.987 1.714 6.714 1.16 3.03 1.92 1.51.36 1.087 2.69 1.57 1.96 3.132.083 5.276.687 3.46-.42 2.422.44 3.747 1.848 3.14.04 1.49.905 2.946-1.633 4.057-1.047 3.932-.144 3.14-1.17 1.82-1.642 1.763-1.037.175-.502-1.13-2.104 1.048-1.582 4.128.82 2.515-1.652 3.86-1.222 2.012-2.187 1.673-.85 3.603-.41 1.97.35.473-.31.176-1.54-2.33-2.28-2.166-1.12-2.238 1.14-2.382-.482-1.324.33-.41-.843 2.802-5.296 3.1 1.087 3.625-2.115.184-1.725 2.22-3.44 1.53-1.385-.032-1.9-1.1-.872 1.582-1.294 3.06-.605 3.316-.09 3.737 1.015 2.094 1.19 3.378 6.89.945 3.274-.01-.04-.007.003zm-44.465 90.696l-1.92 1.107-1.674-.657-.06-1.837 1.058-1.006 2.65-.71 1.19.053.308.554-1.006 1.088-.545 1.407z" fill="#FFF"/><path d="M470.13 264.127l1.08 1.96-1.438.165-1.078-.236-.462.226-.555 1.222.083.462 1.52 1.51 1.077.46 1.037 2.527-1.56 3.07-.7.697-.132 3.79 2.443 3.94 1.12.823.246 2.546-3.766-1.173-11.57-.133.236-1.838-1.008-1.704-1.22-.555-.453-.995-.618-.432 1.756-4.382.77-.134 1.415-1.396.668-.03 1.756 1.015 1.982-1.15 1.17-3.264 1.417-1.203 2.053-5.278 2.228-2.187.308-1.684-.883-.905.03-.338.967 1.314.07 3.307.013-.02zm-217.057 176.27l-3.223 1.877-.586 3.245-.657.05-2.75-1.09-2.896-2.39-3.12-1.94-.71-1.9.65-2.198-1.243-2.167-.32-5.513 1.038-2.987 2.64-2.444-.186-.697-3.245-.79 2.105-2.536.79-4.774 2.38.924.555-.298 1.345-6.48-.226-.45-1.724-.82-.575.285-.72 3.45-.83-.226 1.6-9.66 1.182-2.3-.73-2.897-.184-2.916 1.037-.34 3.347-9.382 1.098-4.333-.575-4.322.76-2.402-.298-3.357 1.5-3.427 2.094-17.032-.678-7.966 1.058-.544.554-.925.81 1.17.33 1.828 1.283 1.19-.708 2.62 1.365 2.976.996 3.684.472.297 1.54-.307.113.236-.78 2.505-2.637 1.262-.236.38.082 4.446-.473.79.575 1.242-1.62 1.55-1.726 2.69-.914 2.536.206 2.773-1.52 2.803 1.15 5.226.657.626-.01 2.35-1.417 2.752.01 2.464-1.94 2.094.02 2.824.71 2.638-1.47 1.16-1.293 5.832.4 3.603-.995.914.595 3.593 1.047 1.17-.667 1.048.154.586 1.026.544.164.71-1.058.872.267 1.797-.914 4.135-1.345 2.73.246 1.798-.73 1.88-2.042 1.744.308 3.768.905 1.222 1.622.01.01 2.27 1.067 2 6.14.648-.032-.01h-.002zm2.25 1.65v7.527l.41.41 3.613.052-.45.77-1.993 1.006-2.557-.38-1.93-1.088-2.618-.503-5.74-3.807-2.442-2.7 4.21 2.546 3.408 1.262.462-.122 1.324-1.612.852-2.382 2.105-1.273 1.345.298v-.002zm32.205-292.794l-1.714 2.957.072.503.513.04 1.497-1.005 1.027.43-.575.74.173.637 2.28.914 1.385-.73 2 .8-.676 2.063.513.524 1.355-.43 1.006 3.253-.934 2.476-.82.082-1.264-.462.483-2.31-.913-.852-.494.06-2.854 2.7-.35-.02 1.047-.872-.144-.708-2.464-.79-7.598.08-.175-.42 1.335-.965.02-.66-.75-.594 1.9-1.787 2.64-5.298 1.508-1.838 2.043-1.078.473.062-1.572 2.514.02-.02h.004zM70.142 75.908l4.24.976 4.127 2.197 2.68.41 2.534-1.94 2.956-1.343 3.954.493 3.81-1.993 3.92-1.068 1.603 1.723.503.082 1.92-1.067.667-2.034 1.273.36 4.27 4.044.555.01 2.824-2.556.264 2.66.504.358 3.16-.75 1.068-1.303 2.803.235 3.932 1.91 6.017 1.653 3.56.77 2.506-.267L138.6 81.3l-3.06 1.86-.195.42.32.328 4.65.945 7.053-.513 2.053-.708 2.558 2.453.545.02 2.792-2.217-.02-.658-2.218-1.58 1.18-1.09 4.96-.625 1.89.975 2.545 2.372 3.09-.236 4.672 1.97 3.953-.687 3.706.102.422-.452-.257-2.423 1.838-.626 3.583 1.355-.01 3.87.317.4.462-.225 1.52-3.245 1.785.102.42-.308 1.16-4.488-2.853-3.193-2.876-1.787.195-4.764 2.783-3.153 3.06.688 2.473 2.002 3.276 4.928-2.043 2.022.215.698 4.446.863-.01 4.26.256.38.452-.093 3.152-3.234 2.606 2.455-.626 3.42 2.485 2.955h.626l2.68-3.162 1.93-3.922.176-4.702 6.9.965 3.213 2.095.132 1.868-1.806 2.25-.01.502 1.704 2.217-.267 1.756-4.803 2.874-3.368.626-2.537-1.232-.564.236-.75 2.094-2.443 3.522-.76 1.817-2.813 2.64-3.532.255-2.268 1.828-.287 2.597-2.896.565-3.203 3.306-2.792 4.425-1.058 3.255-.143 4.425.338.42 3.533.586 2.3 6.11.462.235 3.49-.707 4.64 1.55 2.496 1.345 1.962 1.776 3.182.986 2.69 1.498 6.776.555-.36 2.813.833 3.624 1.858 3.88 3.933 3.39.462.04 2.155-1.314 1.407-3.79-1.344-5.522-1.49-1.622 3.666-1.51 2.915-2.525 1.56-2.876-.257-2.617-1.747-3.152-2.926-2.68 2.875-4.053-1.11-3.46-.81-5.822 1.396-.718 6.94 1.447 2.178-.985 5.257 3.45 1.078 1.65 4.19.268-.063 2.948.852 4.825.307.33 2.217.554 1.776 2.115.514.092 3.727-2.084 2.588-4.302 1.294-1.356 7.802 12.033-.944 2.094.164.523 3.388 2.022 2.28 2.033 4.21 1.006 1.467 1.018.974 2.865 2.156.698.863 1.11.174 3.54-3.46 2.32-4.332 1.275-3.142 2.7-4.168.524-5.493-.708-6.56.205-2.362 2.474-3.347 1.55-6.642 7.34-.06.495.45.195 2.188-.533 4.28-4.353 5.258-2.69 3.613-.308 1.735 1.243-2.177 2.267.833 3.562 1.047 2.68 3.562 1.64 4.25-.46 2.207-2.875.266 1.52 1.17.82-2.628 1.736-5.647 1.87-2.607 1.303-2.813 2.207-1.44-.163-.07-2.064 4.25-2.505.185-.462-.4-.297-6.808.46-1.427-1.53-.143-4.548-1.14-.935-1.868.4-.68-.677-.616.032-1.96 2.454-.843 2.587-.82 1.304-1.715.575-.472.78-8.532.072-1.24.636-2.414 2.023-.728-.144-1.408.984-1.15-.493-4.866 1.295-.924 1.2.215.637 1.776.308-1.857.32-1.9.83-2.165-.132-3.03 1.827-.707-.092 1.428-2.156 1.776-1.242.102-2.35 1.19-2.045.504.545 2.085.43 1.232-1.19.02-.483-2.732-3.603-2.34-.63-5.79-.727-.412-.586-.81.134.205-.42-.225-.565-.698-.267.195-1.294-.8-.75.317-.657-.3-.586-2.668-.45-.77-1.674-.966-.68-4.425-.666-1.16 1.222-1.52.605-.873 1.09-2.906-.78-2.144.4-2.455-.996-4.352-.72-.585-.41-.42-1.672-.412-.307-.872.02-.4.41-.01.875-70.974-.01-6.683-4.64-4.62-1.418-1.293-2.732.34-1.98-.236-.443-3.09-1.386-.564-2.844-2.968-2.444-.04-1.49 1.426-1.877-.288-2.617-4.27-2.26-4.18-6.775-4.127-3.306-1.335-1.93-.515-.134-2.576 1.243-2.29 1.92-3.954-3.983-2.505-1.067-2.278-.133.03-38.49-.04-.072.005.003zm197.17 76.477l3.122.78 2.32 1.232-3.88-.975-1.57-1.037h.01-.002zM256.052 3.682l6.858.503 5.46.81 4.374 1.613-.072 1.13-6.006 2.597-6.18 1.242-2.454 1.427-.185.462.4.298 4.118-.02-4.774 2.895-4.31 1.784-4.302 4.713-5.164.944-1.715 1.18-7.67.608-.38.378.33.432 2.473.503-.832.483-.122.606 1.88 2.474-2.075 1.633-3.91 1.55-1.357 2.218-3.47 1.57-.226.493.36 1.22.41.3 3.983-.186.03.626-6.498 3.03-6.58-1.44-7.63.812-3.818-.636-4.518-.257-.238-1.88 4.404-1.14.288-.523-1.13-3.542 1.027-.256 6.757 2.34.482-.165-.05-.502-3.503-3.542-3.675-1.006 1.52-1.59 4.455-1.326.996-2.248-.165-.493-3.512-2.187-.83-2.32 6.364.226 2.3.595 4.014-2.155.205-.44-.36-.33-5.79-.688-8.962.37-4.375-1.95-2.176-2.465-2.856-1.705-.42-1.56 3.4-1.058 3.007-.205 5.04-1.017 3.8-2.33 2.946.308 2.69 1.714.575-.143 1.87-3.286 3.213-.964 4.56-.708 7.73-.267 1.52.69 7.38-1.09 11.09.81-.02.03.003.002zm-46.765 55.163l.01.43 2.023 3.05.697-.02 2.3-3.82 6.108-1.91 4.117 4.765-.36 2.988.514.44 5.082-1.395 2.382-1.848 5.452 2.34 3.357 2.167.306 1.89.493.338 4.537-1.017 2.71 2.947 6.13 1.817 2.114 1.766 2.167 3.81-4.3 1.908-.012.75 6.058 2.907 4.045.965 3.88 4.057 3.552.255-.647 2.434-4.22 4.59-2.833-1.604-4.004-4.045-3.686.42-.34.35-.194 2.793 2.7 2.443 3.512 1.94.965.996 1.59 3.85-.718 2.352-2.813-.944-6.416-3.234-.524.133.05.533 6.233 5.843.185.606-6.252-1.428-5.452-2.3-2.7-1.704.616-.79-.123-.617-7.587-4.116-.606.38.03.81-6.91.617-1.734-1.128 1.396-2.526 4.63-.072 5.287-.534.318-.616-.76-1.334.8-1.89 3.297-4.157-.688-2.413-1.14-1.643-3.942-2.155-4.466-1.313.934-.647.063-.626-2.72-2.824-2.403-.37-1.94-1.498-.545.03-1.273 1.264-4.476.565-9.28-1.016-9.508-2.032-1.643-1.25 2.28-1.818.133-.452-.39-.277-3.306-.02-.74-4.363 1.88-4.15 2.484-1.898 5.647-1.13-1.427 2.412h.01v-.007zm58.87 104.505l2.124.626 1.48-.04-1.18.646-3.02-1.263-.41-.7.37-.38.626 1.1.01.01zm-31.17-76.94l-2.434.186-.503-1.674.954-2.145 1.992-.524 1.663 1.017.02 1.56-1.706 1.58H236.987zm-1.438-26.836l.112.667-5-.213-2.79.636-3.184-2.638.082-1.294.883-.235 5.72.524 4.188 2.565-.01-.01zm-7.63 48.017l-.74 1.53-.645-.193-.493-.862.833-1.017.667.05.38.474v.02zm-39.28-68.476l2.978 1.745 4.918-.01 1.89 1.5-.504 1.722.237.494 2.894 1.17 1.807 1.294 7.197.668 4.21-1.13 5.163-.44 4.034.358 2.546 1.817.473 1.747-1.335 1.13-3.655 1.036-3.316-.606-7.36.78-5.227.093-4.096-.616-6.592-1.58-.81-2.578-.31-2.558-2.71-2.567-5.46-.74-2.588-1.437.698-1.612 4.907.32h.01v-.002zm24.27 54.444l.41 1.6.577.268 1.088-.534 1.355.987 5.564 2.64.205 1.722.47.36 1.725-.288 1.18.873-1.59.893-3.707-.903-1.356-1.735-.585-.062-2.517 2.156-3.203 1.838-.718-1.92-.433-.267-2.217.246 1.427-1.426.328-3.224.78-3.44 1.212.227v-.01l.004-.002zm8.327 11.55l-2.74 2.002-1.438-.073-.31-.596 1.57-1.517 2.917.185zm-13.13-80.573l2.597 1.632-2.947 1.438-4.65 4.158-4.364.39-5.164-.698-2.516-2.095.03-1.664 1.87-1.406.143-.462-.39-.278-4.57.04-2.658-1.806-1.45-2.35 1.613-2.382 1.663-1.705 2.505-.4.258-.667-.616-.76 4.99-.257 3.327 3.193 8.377 2.36 1.95 3.708v.01zm-15.64 36.015l-2.833 3.582-2.444-.154-1.478-3.942.04-2.26 1.223-1.93 2.36-1.262 5.206.175 4.22 1.045-3.326 3.82-2.957.913-.01.01v.002zm-1.437-10.69l-1.11 1.57-3.428-.348-2.628-1.13 1.057-1.796 3.338-1.263 2.002 1.622.77 1.335v.01zm-.37-13.83l-5.44-.205-.33-.73 4.425.073 1.335.863h.01zm-5.164-2.915l-3.43 1.027-1.837-1.13-1.006-1.92-.154-1.776 4.21.544 2.742 1.746-.524 1.51h-.002zm.226 45l-1.13 1.107-3.213-1.262-2.176.44-2.783-1.61 1.767-1.12 1.592-1.766 3.91 1.95 2.033 2.26zm-11.458-22.013l3.04.996 4.28-.585.42.903-2.196 2.166.093.657 3.645 1.972-.41 3.82-3.89 1.693-2.23-.36-1.765-1.786-6.18-3.594.03-.873 4.805.554.41-.215-.05-.462-2.547-2.884 2.526-2.002h.02v-.002zm4.836-14.507l1.407 1.776.07 2.506-1.078 3.542-3.89.483-2.384-.71.05-2.71-.45-.42-3.78.36-.122-3.182 2.515.102 3.767-1.776 3.502.298.38-.267h.01zm-4.517-9.435l.688 1.602-3.42-.503-4.33-1.818-4.466-.164 1.438-.966-.062-.72-2.884-1.26-.123-1.428 4.507.698 6.796 2.032 1.86 2.536v-.01h-.003zm-36.498 27.29l-1.048 1.867.46.595 5.545-1.427 3.42 2.35.502-.03 2.67-2.29 1.99 1.356 2.055 4.62.717.06 1.335-2.35-1.673-4.58 1.734-.552 2.37.73 2.722 1.858 2.555 8.13 8.707 4.385-.194 1.387-3.89.338-.268.688 1.438 1.53-.596 1.13-4.343-.658-4.548-1.222-3.08.288-4.785 1.51-10.8 1.068-1.47-2.073-3.51-1.232-2.27.44-2.575-2.935 4.968-1.078 3.696.195 3.357-.8.318-.4-.318-.402-4.97-1.088-9.024.277-.873-1.098 5.4-1.704.278-.462-.41-.35-3.902.062-3.91-1.088 1.858-3.09 1.704-1.838 6.653-2.885 2.023.73-.02.04h.002zm24.845-1.562l-1.745 2.505-3.286-2.823.38-.308 3.193-.185 1.458.81zM153.6 43.64l1.037 1.94.513.185 2.197-.84 2.29.194.37 2.092-1.366 2.146-8.5.78-6.52 2.206-3.5.103-.195-.987 5.03-2.135.237-.472-.42-.32-11.55.607-2.967-.76 3.12-4.558 2.198-1.355 6.993 1.735 4.702 3.14 4.487.402.37-.647-3.45-4.723 1.9-1.57 2.237.523.79 2.32v-.01l-.002.003zm-4.98-8.542l-4.476 1.48-3.08-1.44 1.5-1.272 3.56-.534 3.04.73-.533 1.036h-.01zm.38-4.702l-1.95.678h-3.768l2.33-1.653 3.388.977zm-26.91 36.92l-6.19 2.073-1.365-1.953-5.524-2.34 2.66-5.185 2.22-3.224-.02-.494-2.024-2.474 7.844-.72 3.695 1.05 6.468.276 4.538 3.028-2.596 1.007-6.406 3.52-3.183 3.37-.113 2.063-.002.003zm10.904-31.068l-.287 3.46-1.766 1.663-2.39.29-4.733 2.248-3.963.78-2.71-.893 3.82-3.49 5.142-3.43 3.82.072 3.08-.688-.01-.01-.002-.002zm-18.942 120.284l-.687.247-3.953-1.41-.852-1.2-2.177-1.1-.677-1.046-2.464-.564-.76-1.755 6.18 1.49 2.054 2.617 2.587 1.427.75 1.302v-.01zm-23.91-18.53l.913.297 1.91-.218-.668 3.43 1.735 2.39-1.345-1.364-1.016-1.664-1.2-1.006-.34-1.87h.01l.002.004z" fill="#D9F0FD"/><path fill="#FFF" d="M479.166 283.624l-.103 1.057-1.283 3.05-.195 3.718-.472 1.827-.237.647-1.653 1.223-1.242 1.427-1.117 2.495.04 2.145-3.335 3.327-.514-.248-.513-.852-1.395-.02-1.007.913-1.724-1.015-1.58 1.273-1.562-2.01 1.613-1.17.113-.535-.79-1.386 2.155-.68.402-.75 1.078.843 2.27.113 1.15-1.406.378-1.86-.276-2.144-1.16-1.54 1.028-2.762-.134-.46-.944-.596-1.643.174-.523-.965.103-.626 2.823.093 4.075 1.272.524-.34.173-1.313 1.274-2.27 1.313-1.17 2.834.503"/><path fill="#FFF" d="M473.458 285.39l-.267-1.222-1.117-.79-.863-1.202-.3-1.027-1.066-1.18.082-3.524.595-.503 1.193-2.413 1.9-.173.626-.637.995.596 3.234-.986 2.545-1.97.02-.987 2.885.02 2.422-1.2 1.982-2.926 1.19-.955 1.14-.308.277.883 1.378 1.51-.4 2.063.308 1.037 4.117 2.823.174.955 2.7 2.37.616 1.48 2.136 1.437-3.944-.216-1.99.904-1.264-.503-2.74 1.232-1.325-.187-.523.37-.616 1.252-3.44-.667-1.61-.935-2.486-.853-1.49.935-.995 1.304-.266 1.6-3.306-.44-1.53 1.365-.965 1.663"/><path fill="#FFF" d="M499.997 279.414l2.402-.144 1.384 1.89 1.376.462.884-.4 1.242.122 1.1-.42.553.913 2.093 1.58-.144 2.794.72.556-1.42 1.16-1.57 2.608-.175 2.105-.605 1.107-.02 1.766-.74.863-.677 3.09.647 1.355-.452 4.375.657 1.51-.38 1.252.884 1.848 1.57 1.447.306 1.295.452.513-4.19.77-.944 1.858.523 1.376-.76 5.575.174.39 2.516 1.5.554-.105.123 1.663-1.314-.01-1.9-2.412-1.99-.462-.495-1.16-.566-.206-1.448.76-1.756-.308-1.036-1.212-2.556-.195-.452-.79-2.033-.215-2.957.37.112-2.475-.873-1.16-.164-1.396.328-1.776-.47-.913-.042-1.53-.41-.4-2.598.02.102-.42-.4-.503-1.314.01-.442.463-1.663.328-.853 1.84-1.118-.288-2.465.534-1.407-1.96-1.333-3.39-.39-.276-7.588-.03-2.526.43.514-.462.38-1.51.678-.39.944.083.75-.84.892.02.318.697 1.437.37 3.686-3.727.01-2.29 1.047-2.35 2.762-2.454.44-1.015.504-2.013.174-3.603 1.285-3.03.37-3.224.882-1.16 1.13-.676 3.665 1.776 3.747.75.47-.216.823-1.5 1.273.196 2.68-1.202.83.452 1.07-.03.605-.678.72-.164 1.857.256"/><path fill="#D9F0FD" d="M470.686 148.514l1.252 1.037 1.51.238.133.955 1.398.698.554-.204.248-.565 1.18.258.545 1.12 1.724.184.615.863-1.067.75-.986 1.314-1.643.173-.565.576-1.068-.473-1.078.154-2.177-.985-1.077.35-1.232 1.15-1.6-.894-2.64-2.155-.544-1.93 4.826-2.587.73.267.923-.288"/><path fill="#FFF" d="M517.81 198.4l.44.287-1.313.586-.945-.288-.246-.472 2.064-.134"/><path fill="#D9F0FD" d="M216.976 264.702l.493 1.016 1.64 1.643-.554.464.298 1.458-.257 1.223-1.12-.606-.05-1.284-2.526-1.458-.287-.79-.677-.463h-.462l-.113 1.068-1.354-.974.318-1.336-.37-.615.32-.278 1.456.595 1.326-.143.575.574.76.175.566-.278"/><path d="M227.11 233.08l1.303 1.048 2.248-.288 4.55 3.42 2.136.44-.103.39.37.514 1.796.103 1.52.862-3.194.522-4.26-.03.79-.69-.04-.656-1.233-.76-1.53-.164-.72-.626-.574-1.437-.41-.258-1.377.103-2.26-.678-.902-.596-3.264-.41-.277-.163.594-.76-.37-.298-2.792-.05-1.744 1.322-.934.03-.627.71-1.037.225 1.14-1.324 1.037-.534 3.788-1.038 4.086.216 2.27.86M513.692 360.5l.513 2.095-.39.913-1.078.216-1.263-1.232-.02-.657.852-1.612 1.375.277m10.945-155.612l.05-1.365.555-1.396 1.315-1.017.133-.462-.42-1.14-1.17-.37-.196-1.785.533-1.027 1.325-1.242.205-1.212.606.236 2.69-.78 1.396.534 2.113-.01 3.03-1.11 3.335-.266-.69.965-1.313.68-.215.41.236 2.064-.904 3.275-10.42 5.882-2.208-.872m113.306-28.194l-3.974 1.735-.985 1.213-3.12.35-1.16 1.91-2.423-.36-2.043.647-2.453 1.436.06.975-.41.38-4.64.444-3.1-.955-2.433.173.113-.81 2.38.43 1.16-.903 2.044.204 3.296-2.197-.03-.708-3.05-1.614-1.992.667-1.252-.76 1.755-1.622-.12-.686-.37-.154.33-.79 1.394-.36 4.127 1.048.504-.308.36-1.632 1.12-.493 3.51 1.252 1.14-.318 7.843.4 1.19 1.025 1.264.4" fill="#FFF"/><path fill="#D9F0FD" d="M519.76 292.052l1.92-2.628.955-2.207-1.417-4.19-1.088-1.642 2.895-2.823.81.267.124 1.446.88.852 1.95.112 3.37 2.186 3.665.452 1.078-1.15 2.012-.924.842.698 1.19.093-1.827 2.515.032 9.363 1.335 1.992-1.407.8-.688 1.058-1.11.473-.348 1.714-.83 1.1-.463 1.59-.696.575-3.286-2.29-.36-1.622-9.095-5.112.143-1.642-.585-1.068"/><path d="M494.556 270.133l1.098-.74 1.232-3.264 1.396-.27 1.653 2.044.894.35 1.127-.422 1.54.072.585.544h2.556l.45-.647 1.1-.41.462-.862.605-.34 1.95 1.366 1.644-.205 2.905-3.42-.328-2.27 1.632-.532-.247 1.642.308 1.88 1.387 1.21.205 1.92.36.42.02 1.572-.236.482-1.458.257-.874 1.48.308.616 1.438.165 1.14 1.11.605 1.16 1.057.544 1.315 2.423-4.53 4.086-1.785.01-1.94.565-1.51-.535-1.18.585-3.04-2.69-1.334.503-1.088-.153-.81.4-.843-.226-1.85-2.77-1.96-1.13-.677-1.54-2.69-2.38-.185-.967-2.433-1.643.024.013zm-203.886 7.033l2.156.544-1.11 2.002.206 1.766.955 1.53-.606 2.084-.44.73-1.15-.433-1.354.224-.955-.205-.47.266-.258.75.34.718-.914-.133-1.427-2.022-.32-1.377-.994-.317-.914-1.51.36-1.652 1.49-.84.338-1.92 2.68.452.585-.483 1.797-.165.008-.01zm417.237-21.356l.503 1.49-.287 2.813-4.107 1.91-.164.615.698.976-2.115.174-2.105.996-1.868-.328-2.177-3.8-.564-2.925 1.44-1.897 3.1-.462 2.29.36 2.063 1.006.523-.144.976-1.518 1.787.76.007-.024zm-506.887.76l1.44-1.22 2.298 1.488 1.007-.277.45.207-.276 1.078-1.17-.03-3.74-1.243-.01-.002zm288.515-101.598l-1.17 1.95-2.803-.944-.842.205-.76.822-3.552.75-.482.708-1.807.338-1.93-1.024-.187-.832.39-.77 1.92-.328 1.786-1.94.85.163.81-.35 1.553 1.07 1.375-.65 1.283.31 1.695-.43 1.858.973.012-.02zm267.642 35.594l1.006-.102.893-1.2 2.762-.33.34-.298 1.806 2.865.595 1.81.02 3.202-.823 1.356-2.27.565-1.98 1.16-1.848.196-.206-1.13.44-2.34-.974-2.63 1.47-.38.235-.636-1.468-2.114v.006zm-288.832-24.403l-.524-1.356.187-1.078 1.735.204 1.46-.73 2.145-.07.636-.525.217.482-1.653.688-.452 1.376-.677.247-.267.842-1.252-.503-.862.472-.71-.04.02-.01zm288.072 23.705l-.944-.43-.904.636-1.244-.904.986-1.18.605-2.66-.472-.76-2.146-.79 1.683-1.56 2.793-1.622 1.622-1.96 1.138.8 2.228.112.42-.513-.307-1.253 3.613-1.21.965-1.438 1.006 1.108-2.247 2.24.01 2.196-1.088.554-1.448 1.437-1.745.536-1.284 1.12-.142 2.032.965.462 1.18 1.067-.132.267-2.67.298-1.16 1.324-1.252.082-.03.01zM539.133 295.944l-1.16-1.612-.03-9.097 2.73-3.47 1.715-.133 2.187-1.735 3.5-.236 7.27-7.75 2.987-3.79.082-4.947 3.06-.688 1.273-.882h.462l-.208 3.08-1.242 3.716-2.802 6.13-2.186 3.746-5.165 6.324-8.788 6.57-2.856 3.162-.82 1.6-.01.012zM400.493 254.6l.123 1.59.503 1.5.983.842.052 1.314-1.294-.195-.77.34-1.89-.626-5.994-.133-2.608.525-.226-1.058 1.817.04 2.063-.933 1.058.493 1.12.04 1.324-.636.144-.594-.525-.76-1.858.257-1.16-.647-.81.04-.74.627-2.372.062-.944-1.817-.83-.657.655-.36 2.526-3.84 1.068.197 1.416-.575 1.222-.02 2.793 1.407 3.11 3.57.042.01zm4.487 16.324l-1.777 2.032-.596 1.366-2.125-1.088-1.252-1.294-.668-2.454 1.19-.985.69-1.2 1.24-.533h1.706l1.057 1.683.534 2.474zm443.755 48.756l-.626.092-.208-.338.38.154.452.092zm-2.577-4.332l-.267-.308-.316-.935h.03l.555 1.243h-.002zm-1.17 2.002l-1.705-.226-.205-.534 1.19.287.71.473h.01zm-3.86-4.774l1.17.667.02.03-.83-.45-.36-.237v-.01zM551.864 215.72l2.053.246.924 1.355 1.53-.06.895 2.136 1.325.78.522 1.017 1.602 1.057-.103 1.95.33.924 1.623 2.536.78.544.72-.04 1.724 4.342 7.73 1.365.524-.295.79 1.283-1.59 5-7.484 2.587-7.495 1.057-2.4 1.203-1.93 2.813-.78.287-.843-.8-.935.123-2.955-.524-3.604.257-.882-.575-.584.154-.678 1.303.164 1.14-.442.328-.955-1.437-.34-1.19-1.26-.904-1.305-2.116-.8-2.28-1.777-1.837-1.17-.493-1.58-2.37-.216-3.502-1.48-3.007-1.303-1.19-1.364-.587-1.345-3.46-.79-.687-.995-2.023-2.875-4.137-1.088-.176.38-2.012.205-.74 2.813.31 1.11-.864.615-.965 1.786-.36.67-1.057.727-.41.103-.637-2.115-2.343 4.508-1.252.493-.38 2.845.708 3.757 1.95 7.217 5.648 5 .31h.004z" fill="#FFF"/><path fill="#D9F0FD" d="M493.026 91.452l-4.138 1.2-2.494 2.938.267 2.638-9.002 6.817-1.828 5.945 1.827 2.75 2.28 2.013-2.126 3.87-2.79 1.16-.976 6.202-1.325 3.09-2.814-.318-.41.226-1.345 2.66-2.402.132-.77-3.172-2.135-4.137-1.88-5.093 1.028-1.98 2.198-2.773.852-4.57-1.644-2.227-.154-5.07 1.52-3.482 2.65-.152.892-1.632-.8-1.612 3.86-5.74 4.147-7.68 2.23.012.4-.298.585-2.125 4.487.657.473-.35.34-2.63 1.128-.132 7.126 5 .06 6.488.68 1.397"/><path d="M519.473 266.088l-.35-.79-1.2-.924-.267-1.653.297-1.857-.35-.472-1.19-.173-.554.605-1.265.114-.287.668.543.667.175 1.25-2.505 3.08-.985.197-2.454-1.437-.974.533-.39.8-1.14.422-.298.513h-1.992l-.554-.534-1.858-.092-.976.41-2.515-2.412-2.125.554-.75 1.294-.616 2.156-1.283.595-.77-.638.277-2.72-1.52-1.828-.225-1.52-.945-.985-.02-1.326-.585-1.19-.698-.165.708-1.325-.185-1.17.667-.637.03-.566-.368-.42 1.59-3.05 1.962.164.44-.41-.102-11.232 2.556-.01.41-.41v-4.95h29.795l.656 2.095-.503.677.37 2.762.954 3.243 2.177 1.592-.913 1.067-1.766.4-1.005.925-1.468 5.8.246 1.18-.39 2.116-.986 2.443-1.57 1.345-1.356 2.99-1.25.882-.38 1.376.033-.02zM248.248 245.35l.05-.668-.47-.75.43-.45.195-1.028-.092-1.57 1.706.01 2.043.646.34.688 1.312.195.34.78 1.027.083.82.636-.46.524-1.16-.483-1.93-.01-1.306.606-.77-.567-1.037.555-.81 1.436-.237-.626.008-.008zm294.272 17.432l-.46.678-.596-.257-1.55.134-.185-1.037 1.487-2.002.852.174.79-.452.205 1.027-1.232.524-.062.72.75.483v.01zm-78.18-130.5l-1.22 2.3-2.188-1.642-.236-.976 3.06-.975.585 1.292zm-4.66-2.833l-.267.583-.904-.072-1.85 2.6.493 1.734-1.12.37-1.652-.4-.913-1.736-.07-3.522.984-1.777 2.075-.205 1.12-1.098 1.365-.688-.05 1.087-.75 1.448.308 1.026 1.232.658v-.01zm5.544 30.02l-.565-.37-1.234-.104-1.92.586-2.187-.134-.576.647-.882-.616-.986.09-2.64-.954-.87.687-1.51-.02.246-1.797 1.263-2.197-.288-.607-3.614-.595-.944-.68.122-1.23-.493-.904.276-2.228-.38-3.11 1.448-.227.647-1.293.68-3.275-.42-1.212.265-.4 1.704-.153.34.554.634.074 1.746-1.735-.554-3.1 1.407.337 1.345-.38.318 1.212 2.31.73-.02.942.513.412 2.616-.667 1.375-.893 2.64 1.273 1.088 1.006.492 1.48-.585.76v.492l.893 1.18.585 1.684-.144 1.323.842 1.746-1.54-.073-.575.585-4.59 2.206-.225.555.698 2.32 2.65 2.22-.677 1.138-.81.37-.238.44.33 1.92-.01-.02zm77.133 93.6l.267-.43-.226-1.038.195-1.54.945-.71-.072-1.385.4-.77 1.037.483 3.43-.277 3.86.42.975.832 1.396-.595 1.787-2.69 2.24-1.12 7.043-.964 2.546 5.554-1.685.78-.575 1.95-6.397 2.22-2.35 1.847-1.982.05-1.446 1.048-4.353.76-1.765 1.53-3.367.195-.534-1.212.02-1.55-1.376-3.378-.01-.01z" fill="#FFF"/><path d="M475.234 156.645l.04 2.31h-1.098l-.34.647.37.524-1.067 2.187-2.076.07-1.365.72-5.43-1.016-.485-.955-.45-.216-2.537.565-.432.526-3.265-.832.44-.934 1.15.8.618-.175.257-.595 1.98.123 1.91-.575 1.028.082.698.585.637-.154.266-.79-.308-1.826.82-.452.7-1.18 1.56.873.483-.06 1.376-1.285.657-.174 1.86.944 1.314-.112.72.38-.03-.003zm-22.002 36.59l-.328 1.1.4 2.71-.554 2.217-1.622 1.87.38 2.453 1.96 1.59.185.822 1.458 1.058 1.89 7.423.124 1.19-.585 5.134.204 1.55-.893 1.016-.02.524 1.448 1.91.144 1.232.915 1.52.513.163 1.006-.42 1.776 1.108.842 1.263-8.44 4.938-7.422 5.247-3.52 1.16-2.363.215-.288-1.632-2.628-1.12-.688-1.282-26.817-18.337.01-3.562 3.87-1.93 2.505-.42 2.177-.77 1.11-1.46 2.883-1.077.36-2.136 1.365-.297 1.068-.965 3.563-.71.47-1.108-.1-.462-.596-.534-.842-2.884-.194-1.88-.8-1.53 2.083-1.344 2.7-.493 1.746-1.252 2.37-.863 8.46-.75 1.53.39 2.34-1.128 2.527-.02.945.615 1.386-.05h-.012zm463.294-91.62l1.345.545 1.45-.38 1.94 1.006 1.94.432-1.355.595-2.977-1.57-2.136.225-.266-.154.072-.688-.01-.01h-.002zm-728.42 52.638l.38 1.51 1.15.872 4.342.72 2.454 1.005 2.228-.39 1.9.513-1.592.667-3.583 2.68-.164.79.515.4 2.392-.625 1.817 1.047 5.288-2.464-.318.667.257.575 1.396.39 1.756 1.19 4.826-.902.688.872 1.345.216.596.596-1.376.174-2.24-.328-3.695.913-2.783 3.34.36.923h.605l.565-.616-1.396 4.774.298 3.173.687 1.622.63.462 1.816-.45 1.643-2.014.142-2.268-.84-2.013.112-1.16 1.222-2.432.452-.34.493.77.41-.297.41-1.405.617-.483.246-.82 1.735.502 1.694 1.11-.03 2.432-1.303 1.16v1.16l.892.37 1.704-1.325.514.174.513 2.67-2.555 3.85.174.625 1.58.636 1.52.176 1.97-.452 4.847-2.206 2.216-1.848-.05-1.273.77-.226 4.023.37 2.176-1.08.216-.41-.288-1.52 3.357-2.462 8.54-.02.577-.842 1.95-.79.956-1.55.76-2.434 1.62-2.033.946.636 1.51-.483.82.677v4.2l2.012 2.668-2.402 1.345-5.513 2.146-1.88 2.79.022 1.84.85 1.63.554.237-6.355.966-2.26.913-.235.493.462.297 3.07-.472-2.25.574h-1.16l-.153-.33-.493.083-.78.842.227.688.328.06-.42 1.665-1.305 1.622-1.52-1.1-.503-.04-.164.472.533 1.622.627.605.03.81-.975 1.417-1.242-1.252-.277-2.33-.36-.36-.433.256-.493 1.304.34 1.448-.997-.276-.493.246.185.513 1.56.853.102 2.587.812.523.533 3.512-1.457 1.93-2.535.82-1.756 1.705-1.347.257-1.304 1.057-.44 1.016-2.764 1.827-2.71 3.112-.462 2.177.462 2.134.872 2.444 1.118 1.95.04 1.232 1.192 3.142-.184 2.762-.565 1.468-.483.215-.913-.237-.503-1.21-.893-.575-2.823-5.298.493-1.725-.74-1.827-2.063-2.444-1.15-.543-2.792 1.213-1.51-1.387-1.61-.698-3.07.318-2.23-.308-2.052.195-1.18.472-.195.596.4.647.144 1.376-.864-.205-.863.472-1.622-.072-2.134-1.478-2.146.34-1.96-.638-3.83.862-2.453 2.125-2.608 1.25-1.49 1.448-.627 1.417.35 3.81-.3.02-3.592-1.366-1.282-3.194-1.48-1.54-2.3-3.655-1.806-1.12-2.33-.01-1.756 2.127-1.807-.71-1.19-.758-1.56-3.06-4.037-3.245h-4.455l-.412.41v.76l-6.673.02-9.26-3.223-.35-.728-5.852.503-.44-1.324-1.664-1.652-1.17-.39-.565-.903-1.313-.133-1.038-.79-2.28-.277-.44-.308-.37-1.623-2.465-2.906-2.064-3.95-.06-.925-3-3.346-.337-2.35-1.335-1.707.535-2.433-.092-2.638-.8-2.362.975-2.895.627-5.83-.483-4.385-1.5-4.19 3.276.812 1.294 2.906.71.082.708-1.17-1.13-4.918h70.594l.41-.41.144-.884-.02.01v-.005zM33.306 69.09l1.775 2.024.567.05 1.016-.81 3.748.246-.092.637.33.462 3.93.79 2.68-.443 5.33 1.437 4.968.442 1.94.585 3.512-.72 6.303 1.92-.03 39.077.39.41 2.454.114 2.372 1.007 4.004 4.096.564.04 2.464-2.083 2.217-1.066 1.232 1.755 4.056 3.222 4.2 6.807 4.31 2.35.062 1.88-1.047 1.26-1.19-1.107-2.095-1.058-.688-2.967-3.368-3.112-1.694-3.665-6.52-.33-2.894-1.034-5.4-3.953-6.953-2.095-3.624.308-4.938-1.735-3.337-1.672-2.855.82-.288.474.452 2.268-4.015.986-2.32 1.304-2.362.667-.277-1.695 1.078-3.51 2.557-1.12.165-.616-.71-.987-.563-.103-3.276 2.177-1.828 2.63-3.646 2.678-.04.626 1.6 1.562-2.124 2.35-5.247 2.64-.79 1.704-3.86 1.817-.946 1.777-2.762 1.416-1.858-.226-7.135 3.41-4.077.933 4.98-2.567 2.658-1.91 3.348-.533 1.222-1.438 3.51-2.156 2.66-2.33.43-2.753 1.264-2.156-.04-.47-.463-.114-2.75 1.058-.647-.502-.544.03-1.08 1.07-1.395-1.582-.68.082-.328.637-.595-1.17-.575-.165-2.474 1.458h-1.1l-.173-1.797.308-1.754-1.653-1.366-3.5.606-2.013-1.674-1.612-.862-.154-2.27-1.745-1.467.843-1.93 2.043-2.177.904-1.97 1.755-.247 2.094.523 1.92-1.817 1.96.257 1.96-1.263.175-.44-.483-1.87-1.098-.718 1.426-1.2.123-.463-.4-.27-1.695.073-2.73.904-.77.8-1.972-.82-3.553.45-3.53-.934-1.09-1.652-2.72-2.043L3.74 91.77l5.647-2.054h1.56l-.266 1.663.42.47 5.433-.163.308-.667-2.084-2.658-3.223-1.725-1.838-2.177-2.464-1.878-3.17-1.273 1.066-1.737 4.343-.144 3.45-2.126.75-2.33 2.452-2.044 2.483-.533 4.774-2.022 2.525.236 3.81-2.41 3.592.913-.01-.02.01-.003zm5.297 57.382l-2.31 1.262-.976-.708-.297-1.273 3.295-1.673 1.458.215.688.72-1.846 1.457h-.01zm-6.715 113.57l1.006.482.76.893-1.817 1.1-.452-1.572.503-.914v.013zm-1.766-2.013l.185.05.082.05-.166.03-.113-.142.01.01h.002zm-4.29-1.95l.05-.033.185.226-.133-.01-.103-.185h.002zM6.046 116.05l-1.11.422-2.268-1.15 1.57-.41 1.663.287.145.85zm496.158 9.847l.986.677.226 1.694.698 1.807-3.747 1.746-2.29-1.62-1.324-.267-.698-.79-2.485.348-4.27-.235-2.537.924.062-2.034 1.16-2.115 2.002-1.046 2.176 2.65 2.064-.073.39-.34.452-2.585 1.805-.544 3.14 1.746 2.21.072-.02-.01z" fill="#FFF"/><path fill="#D9F0FD" d="M294.5 382.45l-.945 1.54-2.66 1.48-1.734-.535-1.456.267-2.454-1.222-1.56.082-1.305-1.334.164-1.54.573-.81-.02-2.804 1.242-4.867 1.22-.215 2.435 2.053 1.11.03 4.476 3.255 1.252 1.643-.985 1.54.626 1.437"/><path d="M523.98 203.06l-.904.525 1.87-3.635.635.082.228.627-1.16.9-.667 1.51M707.93 254.93l-1.807-.76-.5.154-.966 1.5-1.356-.658.637-1.006.113-2.228-2.094-2.484-.257-2.72-1.95-2.157-2.208-.32-.8.934-1.15.062-1.08-.41-2.115 1.23-.04-1.63.625-2.753-.37-.503-1.386-.102-.113-1.262-.984-.904 2.013-1.94.4.37 1.364.07.432-.46-.35-2.732.72-.215 1.313 1.858 1.14 2.413.37.236 2.894.02.73 1.715-1.428.667-.74.955.134.614 2.987 1.55 3.696 5.39 1.93 1.828.575 1.663-.36 2.012" fill="#FFF"/><path fill="#D9F0FD" d="M743.317 232.496l-.76 1.52-.924-1.562-.256-1.786 1.416-2.505 1.776-1.786.656.45-1.9 5.67"/><path fill="#FFF" d="M273.75 266.006l.288-1.19 1.16-.227-.062 1.23-1.386.185"/><path d="M526.896 179.92l3.737 1.2 3.13-.45 2.157.266 3.193-1.6 2.526-.135 2.246 1.368.34.842-.227 1.364.256.452 2.34 1.16-1.2.585-.216.464.77 3.285-.42 1.19 1.16 1.972-.565.226-.924-.687-2.986-.38-1.273.47-4.34.423-2.886 1.078-1.96.01-1.562-.543-2.648.77-.677-.462-.637.308-.123 1.49-.914.86-.48-.687.81-1.334-.42-.205-1.47.236-2.053-.645-2.073 1.694-3.604.307-2.187-1.57-2.772-.105-.882 1.273-1.417.277-2.35-1.478-2.782-.01-1.406-2.72-1.725-1.56 1.098-2.045-.092-.503-1.304-1.15 2.432-2.475 3.8-.113 1.313-2.3 4.61.38 3.294-2.022 2.885-.842 4.096-.062 4.404 2.126-.02.01-.004-.002zm-25.072 1.283l-1.765 1.345-.516-.903 1.407-2.64-.72-.87 1.747-.648 1.848.35.473 1.2 1.806.8-2.947.33-1.336 1.036h.004z" fill="#D9F0FD"/><path fill="#FFF" d="M640.804 275.934l-1.868.493-1.017-1.715-.433-3.552.975-3.522 1.243 1.006 2.32 4.302-.35 2.392"/><path fill="#D9F0FD" d="M460.05 193.03l-1.027 1.304-.02 1.356.862.903-.288 2.146-1.57 1.353-.124.43.493 1.582 1.458.33.544 1.138.924.534-.113 1.715-3.636 2.71-.103 2.444-.595.308-.985-4.57-1.58-1.282-.165-.8-1.97-1.603-.186-1.808 1.55-1.663.604-2.403-.39-2.854.432-1.243 2.515-1.077 1.325.267-.06 1.14.594.39 1.51-.75"/><path d="M754.138 315.912l-.103-.996 4.62-.883-2.895 1.315-1.632.564h.01zm-186.36-137.748l-.04.35-.094-.226.133-.124zm2.915-1.13l.462-.102 1.52.76 2.115 2.495 4.178-.185.39-.524-.328-1.22 1.97-.966 1.962-1.633 3.018 1.425.442 2.536 1.22.69 2.65-.134.637.41 1.353 3.203 4.66 3.53 2.742 1.49 3.142 1.17-.04 1.078-1.367-.77-.604.194-.33.863-2.258.83-.472 2.188-1.242.76-1.96.43-.75 1.367-1.602.318-2.28-.965-.205-2.228-.39-.37-1.776-.092-2.832-2.526-2.197-.41-2.914-1.52-1.828-.278-1.273.543-1.612-.082-2.053 1.736-1.746.44-.37-1.622.37-3.06-.226-.41-1.694-.862.554-1.735-.35-.533-1.25-.134.368-1.683 2.28.605 2.258-.975.123-.667-1.817-1.787-.678-1.612.03.02v.004zm42.997 6.326l-2.608-.452-.482.35-.247 1.744.442.462 2.71-.226 3.265.975 4.507-.42.575 2.433.534.297.688-.246 1.14.503.215 2.187-3.86-.216-1.85 1.357-1.807.76-.627-.595.216-2.29-.657-.502-.072-.955-1.396-.677-.462.072-1.11 1.037-.564 1.52-1.344-.052-.975 1.19-.923-.36-1.91.76 1.294-2.904-.553-2.23-1.715-.84.34-.68 2.237-.04 1.22-1.672.78-1.838 2.496-.514-.267 1.026.75 1.078.02-.04zM504.155 372.944l-.503.154-1.53-1.715 1.13-1.468 2.248-1.48 1.55 1.305-1.006 1.87-1.263.39-.634.954.01-.01zm183.99-110.49l-1.45 3.973.155 2.053.39.37 1.417.072.924 2.094.567 2.402 1.437 1.48 1.653.39.986.995-.514.657-1.13.205-.35-1.21-2.093-1.13-.647.236-.648-.635-.493-1.335-2.63-2.7-.75.42.976-3.994 2.217-4.332-.02-.01zm.41-1.12l-.945-2.238-.267-2.68-2.197-3.14.73-.504.913-2.66-3.71-5.594.895-.524 1.078-2.65 1.786-.183 2.67-1.63.78.574.132 1.427.38.37 1.263.093-.524 2.34.05 2.486.618.35 2.494-1.46.79.4 1.51-.07.73-.905 1.518.144 1.756 1.93.257 2.72 1.97 2.166-.102 1.94-.625.883-2.28-.34-3.593.657-1.642 2.177.37 2.65-1.55-.813-1.89-.01.287-1.56-.41-.482-2.27.01-.41.38-.196 2.813-.35.956-.02-.02.004-.002zM612.59 431.36l-3.284.186-.05-1.294.4-1.448 1.334.8 2.135.36-.535 1.396zM433.972 264.27l-.092 1.264 1.57 1.56.083 1.12.513.667-.113 5.77.503 1.51-1.345.36-1.045-2.187-.185-1.15.543-2.248-.647-1.19-.225-3.78-1.035-1.436.07-.29 1.408.03zm59.085-22.73l.123 9.826-2.156.05-1.17 1.94-.71 1.675.35.75-.677.936.246.913-.883 2 .462.515.616-.103.35.658.03 1.417.924 1.068-1.49.44-1.303 1.06-1.88 2.832-2.218 1.1-2.372-.155-.882.256-.267.503.177.627-2.166 1.724-2.925.895-1.12-.586-.75.677-1.15.103-1.128-3.204-1.283-.658-1.253-1.252.3-.657 3.09.04.36-.617-1.336-2.26-.082-3.397-.995-1.704.226-1.068-.39-.493-1.252-.04v-1.283l-1.005-1.1.985-3.09 3.337-2.72.134-3.418.976-5.32.534-1.098-.103-.493-.934-.8-.205-.987-.822-.596-.564-3.747 2.155-1.23 20.09 10.09.01-.02z" fill="#FFF"/><path d="M496.373 208.338l-.77 1.13.298 1.426-.614 1.88.75 2.196v24.764l-2.547.01-.42.872-19.93-10.02-4.527 2.34-1.407-1.364-3.922-1.13-1.17-1.694-2.033-1.263-1.25.33-.68-1.14-.174-1.294-1.314-1.733.895-1.222-.072-4.456.44-2.33-.882-3.543 1.16-.78.227-1.192-.205-1.057 3.573-2.68.297-1.99 2.516.82 1.21-.216 2.035.453 3.234 1.212 1.406 2.607 5.872 1.715 2.71 1.385 1.653-.74 1.326-1.375-.452-2.402.68-1.16 1.713-1.243 1.612-.36 3.223.545 1.108 1.314 4.097.8.37.555-.034.028zm69.074 21.375l1.93-.41 3.942.02 4.906-4.877.195.37.268 1.622-.833.01-.4.36-.082 2.094-.832.647-.01.984-.677 1.016-.4 1.45-7.27-1.285-.718-2.012-.018.01zm-318.35 33.593l.545.77-.02 1.088-1.1 1.828.977 2.053.43.226 1.436-.45.575-1.88-.79-1.2-.102-1.51 2.894-.954.267-.503-.288-.986.308-.287.68 1.344 2.01.267 1.44 1.254.08.698.4.36 4.94-.225 1.53 1.14 1.97.318 1.715-.863.226-.616 3.534-.143-.175.565.882 1.222 2.25.36 1.714 1.13.38 1.908.42.33 1.592.173-1.704 1.387-.226.945.667.995-1.714.554-.31.41.043 1.017-.575.585-.01.566 1.9 2.33-.68.71-4.588 1.323-.74.555-3.79-.924-.727.278-.02.72.933.543-.082 1.58.36 1.624.36.318 1.703.176-1.335.534-.492 1.16-2.752.934-.616.79-1.612.134-1.2-1.16-.822-2.587-1.284-1.293 1.048-1.263-1.325-3.028.185-1.665 1.027-2.268-.208-.504-1.17-.472-4.127.37-1.87-2.155-1.61-.34-3.07.227-1.09-.997.258-1.263-.205-1.037-.607-.708-.297-1.088-1.11-.4.802-2.866 1.95-2.166.013.008zm369.623-69.618l-1.613 1.334-.103.493.82 2.372-1.118 1.067-.03 1.304-.493.73-2.218-.083-.38.606.8 1.52-1.416.71-1.09 1.735.062 1.745-.668.533-.934-.216-1.96.37-.493.79-1.93.134-1.437 1.603-.185 2.382-2.988 1.048-1.694-.237-.728.565-1.448-.307-2.474.4-3.614-1.2 2.01-2.413-.216-1.83-.308-.348-1.673-.41-.195-1.623-.77-2.086.974-1.396-.195-.617-.75-.287 1.51-4.928 2.196.924 2.177-.37.76-1.375 1.816-.4 1.58-.945.647-2.37 1.92-.514.503-.83.965.574 2.188.112 2.618.945 2.002-.852.667.44.574-.132.71-1.15 1.61-.082.74-1.702.81-.76.82.4-.173.575.73.596-.083 2.452 1.138.977.02.03.008-.002zm.687-.175l1.776-.73 1.468-1.21 4.14.36-2.29.76-5.08.82H617.406zm-72.432-1.273l.81.678 1.295-.288 1.5 3.162 1.672.965.144 1.263-1.253 1.078-.544 2.587 1.774 2.74 3.204 1.665 1.18 1.93-.39 1.9.4.492h.42l.02 1.098.78.966-2.535-.103-1.755 2.505-4.425-.205-7.207-5.627-3.83-1.99-2.957-.75-.87-2.947 5.593-3.103.975-3.52-.196-2.014 1.304-.718 1.253-1.746.893-.37 2.762.35h-.02zM394.385 90.18l-.38 2.68 2.607 2.576-2.978 2.823-9.435 3.49-9.498-1.706 1.745-1.252-.103-.72-4.158-1.508 3.04-.544.338-.44-.113-1.233-.34-.37-4.792-.872 1.313-2.094 3.543-.573 3.87 2.792.452.02 3.737-2.218 3.388 1.11 4.086-2.218 3.676.267.002-.01z" fill="#FFF"/><path fill="#FFF" d="M547.655 191.922l-1.304-2.208.433-1.006-.73-3.12 1.06-.514.337.852 1.293 1.386 2.105.524 1.14-.165 2.966-2.164.637-.144.4.474-.737 1.232.062.503 1.6 1.57.67.04.687 1.86 2.63.85 1.92 1.52 3.787.504 4.013-.78.484-.75 2.228-.615 1.704-1.58 1.55.08 1.21-.544 1.633.246 2.906 1.52 1.93.308 2.843 2.536 1.817.185.185 2.043-1.725 5.637.246.512.626.236-.842 1.52.82 2.238.196 1.755.308.35 1.673.41.154 1.357-2.207 2.413-.01.543 2.27 3.11 2.4 1.274.063 2.197 1.273.74.112.708-3.397 1.303-1.11 3.11-9.937-1.724-1.017-3.13-1.47-.75-2.226.474-2.536 1.293-2.905-.84-2.526-2.075-2.474-.82-3.51-6.222-.494-.206-1.21.4-1.48-.84-.514.08-.668.76-.995-1.036-.02-1.345-.73-.4.267-1.858-1.325-2.166-3.214-1.674-1.62-2.495.513-1.95 1.345-1.293-.195-1.705-1.786-1.13-1.612-3.388"/><path fill="#FFF" d="M551.31 186.963l-.288.03-1.263-2.186-.956.01-.637-.677-.708-.072-.987-.832-1.6-.636.194-1.15-.267-.81 2.793-.37 1.12 1.036-.175.944 1.047.8-.483.638.083.575 2.094 1.263.04 1.437"/><path d="M463.632 162.63l3.573.966-.215 1.2.308.853-1.53-.248-2.095 1.13-.215.4.133 1.488-.254 1.15.842 1.613 2.453 1.673 1.346 2.608 2.865 2.495 2.105.08.216.236-.4.34.093.687 4.158 2.022 2.23 1.807-.166.37-1.2-1.11-2.24-.502-.45.206-1.08 1.96.145.556 1.61.975-.194 1.006-1.088.34-1.284 2.4-.38.084v-.34l1.027-2.515-1.775-3.254-1.15-.524-.903-1.365-1.55-.526-1.303-1.283-1.798-.184-4.23-3.295-1.663-1.693-1.06-3.276-3.624-1.395-1.334.524-1.735 1.446.165-.74-.288-.48-1.17-.34-.544-2.012.74-.8.04-.494-.667-1.2.822.4 1.437-.236 1.14-.862.533.36 1.222-.104.77-1.232 1.57.34 1.397-.576.36-1.17 1.108.328.698-.657 2.033-.45.432.84.02-.02h-.003zm7.803 26.817l-.667 1.694.328 1.08-.318.914-1.54-.873-4.62-1.713.195-.842 2.74.236 3.882-.492zm-15.667-8.932l1.212 1.705-.308 3.408-1.09-.01-.79.75-.543-.452-.105-3.46-.4-1.253 1.067.01.945-.698h.01z" fill="#D9F0FD"/><path fill="#FFF" d="M708.975 236.16l-2.772 1.87-2.146 2.525-.647 2.002 4.425 6.622 2.382 1.692 1.468 1.992 1.14 4.712-.33 4.353-1.98 1.58-2.916 1.653-2.168 2.207-2.803 2.116-.607-1.078.647-1.57-.132-.483-1.376-1.068 1.55-.73 2.618-.183.308-.647-.842-1.17 4.107-2.126.318-3.13-.583-1.816.43-2.73-.748-2.024-1.91-1.808-3.728-5.43-2.79-1.5.37-.482 1.54-.657.214-.534-.996-2.333-.38-.246-2.905-.02-2.3-4.004.852-.41 4.507-.298 2.115-1.346 1.18.914 1.93.41-.174 1.55 1.386 1.192 1.714.462"/><path d="M255.938 440.14l-2.392-.535-5.986-.44-.914-1.706.052-2.435-.462-.41-1.468.184-.688-.935-.206-3.214 1.93-1.51.812-2.092-.257-1.746 1.333-2.752.934-4.26-.226-1.736.874-.462.205-.45-.278-1.192-1.006-.698.605-.945-.05-.514-1.07-1.1-.532-3.182.995-.88-.43-3.677 1.23-5.575 1.418-1.005.165-.44-.77-2.866-.01-2.496 1.827-1.795.062-2.64 1.468-2.925.01-2.65-.708-.758-1.12-4.64 1.51-2.773-.185-2.865.873-2.413 1.632-2.525 1.777-1.684.05-.534-.615-.863.452-.873-.073-4.302 2.772-1.478.882-2.824-.216-.73 1.807-2.062 2.977.586 1.418 1.828.698-.083.893-1.92 2.452.093 5.082 4.897 2.228.504 3.08 1.97 2.536 1.028.256.842-2.434 4.035.237.603 5.532 1.19 2.176-.45 2.514-2.218.513-2.443.78-.32 1.007 1.233-.04 1.848-3.77 2.577-2.925 2.732-3.523 3.984-1.334 5.205.01 2.794-.554.75-.37 3.367 3.223 2.71-.164 2.168 1.436 1.14-.104 1.12-2.35 3.613-3.646 1.53-5.05.616-2.783-.297-.44.522.512 1.695-.504 2.156.39 1.46-1.222.85-2.422.39-2.36-1.066-1.418.852.42 3.736 1.736.934 1.437-.73.37.78-2.094.884-2.065 1.942-.996 4.753-2.403.102-2.147 1.827-.625 2.823 2.525 2.37 2.228.647-.717 2.382-2.906 1.775-1.776 3.963-2.227 1.252-1.19 1.715.77 3.86 1.067 1.314.03-.02h.008zm7.618 10.214l-2.054.154-1.437-1.252-3.922-.103v-5.985l1.643 3.13 3.347 2.126 3.162.8-.73 1.13h-.01zM724.62 362.45l.268.042.175-.482-.493-1.458.945 1.14.462.153.277-.4-.103-1.602-2.03-3.727 1.12-3.398-.248-1.612.35-.636.39 1.088.442-.195 1.016-1.745 1.96-.852 1.325-1.18 1.86-.935.984-.173.944.267 1.97-.975 1.51-.29 1.058-.82 1.468.04 2.854-.86 1.396-1.18.73-1.49 1.447-1.294.308-2.65 1.304-1.632.8 1.694.554.195 1.098-.523.154-.617-.75-1.027.463-.73.8.402.595-.308.288-1.87 1.92-2.196 1.15-.4.288-.596.637.175.544-.75 1.92-.585 1.695 1.078 1.386 1.52 3.48.39.443-.555-.472-1.26 1.08-1.838 1.067-.626.143-.564-.256-.42.904-1.202 1.345-.79 1.334.276 2.156-.492.318-.41-.05-1.336-.945-.79 1.52.575 1.447 1.1 2.165.666.832-.206 1.436.72 1.735-.678.82.195.66-.34.73.793-1.368 1.99-.728.073-.36.523.247.882-1.56 2.412.123 1.078 2.207 1.694 2.022.872 3.12 2.423 2.024.668.564.903 2.793.874 1.89-1.13 2.124-6.13-.43-3.684.307-1.778.482-.893-.318-.7 1.12-3.367.47-.483.412.73.164 1.55.668.534.164 1.068.873 1.242.12 2.444.925 2.053.585.187 1.336-.8 1.735 1.744-.204 1.11.545 2.26.4 1.333.7.493.615 2.002-.195 1.52.83 1.807 6.17 3.788-.112.78 1.417 1.622.975 2.844.596.225.74-.42.82.923.626.01.473 2.475 4.938 4.835.678 2.074-.07 3.4 1.17 2.258-.133 2.3-1.13 3.778.03 1.684-.48 1.94-1.08 2.464-1.95 1.51-1.766 3.603-2.442 6.25-.247 2.896-1.17.82-2.925.155-2.372 1.223-2.577 2.31-3.172-1.612.308-1.18-.554-.482-1.54.646-2.063 1.992-7.31-2.238-1.52-1.673-1.17-3.84-1.49-1.294-1.857-.266.575-1.21-.625-2.157-.74-.103-1.17 1.87-.924.214.648-.842.37-1.59.944-1.346-.133-2.403-.72-.226-2.053 2.404-1.55.955-.966 2.063-1.385-.832-.02-1.56-1.613-2.094-1.12-.903.247-.34-.143-.605-3.295-1.735-1.878-.123-2.608-1.387-4.703.287-6.18 1.95-2.598-.132-2.69 1.447-2.187.647-1.53 2.67-3.583.318-2.35-.514-3.574.442-1.642 1.51-.83-.042-2.435 1.673-3.347-.104-3.82-2.27.04-1.077 1.223-.474.503-.913.215-3.05-.29-1.683-1.374-2.936-.39-1.51.05-1.765-.974-1.747-.183-.996-1.037-1.016-.298-2.032-1.16-1.798-.02-.05h-.008zm81.23 41.252l2.722 1.048 3.316-.986 1.12.144.153 3.14-.87 1.162-.175 1.673-.893-.246-1.61 1.96-1.726-.184-1.437-2.423-.38-2.095-1.428-2.577.04-.82 1.18.184-.01.02h-.002zM521.3 208.235l.41-.8.186.41-.34 1.058.535.45.7-.224-.883 3.694-1.19-3.41.605-.76-.03-.42h.01-.002zm.996-2.782l.38-1.047h.657l.534-.524-.503 1.57-.575-.245-.495.236v.01z" fill="#D9F0FD"/><path d="M639.962 212.322l-1.273 1.067-.998 2.616.226.524 8.254 3.974 3.51.38 1.613 1.417 5.05.905 2.24-.04.39-.31.297-1.272-.33-1.684.145-.894.84-.318.463 2.546 2.34 1.047 1.818-.39 4.25.104.392-.37.184-1.704-.513-.668 1.408-.298 2.31-2.043 2.772-1.66 1.98.635 1.85-1.006.81 1.17-.698.934.267.646 2.484.37.093.482-.852.77.133 1.098-1.56-.298-3.328 1.91-.133 1.827-1.356 2.195-.184 1.428-.956 1.868-1.684-.512-.534.38-.092 2.7-.575 1.138.194.832-.545.277-1.21-3.83-1.11-.277-.39.32-.247 1.025-.677-.677.555-1.088 1.253-.35 1.18-2.31-.246-.574-1.612-.483-4.456-.286-.186-1.602-.36-.36-1.14-.123-1.96-1.15-.574.175-.904 1.87.113.502 1.395 1.098-1.12.71-.707 1.138.186.575 1.273.584-.33 1.58.873 1.993.37 2.064-.226.605-4.703.534-.337.43.133 1.85-1.2 1.395-3.748 1.858-2.865 3.11-4.435 3.368-.185 1.305-4.774 1.838-.79 2.218.656 5.44-1.09 2.558-.01 4.044-1.273.288-1.17 1.98.4.864-1.725.544-1.068 1.88-.668.48-2.115-2.104-2.156-6.18-2.258-3.737-1.078-4.878-2.35-3.666-1.808-8.42.01-3.192-.504-2.597-.565-.298-3.622 1.56-1.57-.276-2.937-2.843.874-.688.082-.566-.76-1.057-2.74-2.115 1.272-1.355 5.482.01.4-.503-.514-2.35-1.457-1.5-.28-1.982-1.468-1.232 2.372-2.433 3.13.062 2.69-2.927 1.644-2.885 2.463-2.802.073-2.094 2.022-1.52-.02-.667-1.982-1.345-.842-1.828-.82-2.27.924-.912 3.686.667 2.997-.432 2.392-2.25 2.37 2.927-.246 2.187 1.016 1.632-.05.84-1.377-.286-.482.492.72 3.14 2.69 2.044 3.07 1.694.032.046zm-131.187 91.773l2.875-3.203-.02-.832-.658-1.334.698-.534.144-1.51-.78-1.283.318-.115 2.32.03-.523 2.835.78 1.336.51.123 1.08-.546 1.22-.124.627.248 1.468-.637.103-.686-.73-.636 1.612-1.745 8.88 4.99.33 1.57 3.428 2.392-1.078 2.875.134 1.652 1.673 1.15-.617 1.806-.01 2.393 1.94 4.14.585.44-1.5 1.11-2.678.964-1.468-.04-1.09.79-2.35.37-2.947-.7-.852.073-.646-.77-.318-2.854-1.357-1.386-3.337-.79-4.066-1.623-1.21-2.474-.33-1.798-1.806-1.53.43-1.077-.45-.914.083-.984-.472-.595.06-.574-.005.01zm44.895-123.908l1.367.328 1.99-1.848 2.363 3.43 1.468.44-1.294.155-.36.328-.82 3.224-1.017.986.05 1.14-1.292-1.16.718-1.212-.04-.483-.76-.883-1.52.154-2.402 1.756-.03-1.304-2.083-1.386.482-.636-.083-.575-1.057-.81.297-.44-.144-.596-1.16-.883 1.94.7 1.735.06.38-.893-.832-1.406.432.06 1.673 1.768v-.01zm-5.656 4.97l.626.47h.71l.605 1.182-.7-.156-1.24-1.49v-.01.003z" fill="#FFF"/><path fill="#D9F0FD" d="M415.882 138.802l.36 2.115-1.797 2.854-4.333 1.93-2.915-.41 1.776-3.08-1.212-3.623 4.725-3.84.328 1.18-.503 1.788.41.523 1.51-.04 1.642.615"/><path d="M776.643 295.338l.708 4.117 2.866 1.827.524-.102 2.093-2.66 2.783-1.468h2.104l4.004 1.776 2.526.462.082 15.524-1.797-1.58-2.607-.525-.904.727-2.382.062.71-1.367 1.487-.657.234-.472-.667-2.813-1.273-2.27-5.174-2.35-2.145-.235-3.778-2.33-.565.132-.667 1.1-.534.122-.563-1.94-1.242-.8 1.89-.64 1.765.053.4-.534-.216-.68-.39-.286h-3.542l-1.16-1.52-2.157-.44-.533-.617 2.76-.493 1.315-.8 3.758.964.308.728-.02-.02v.002zm1.478 12.782l-.635.842-.102-.822.605-1.15.134 1.13zm-10.81-7.556l.35.74-1.252-.586-4.805-.103.277-.637 2.853-.092 2.587.688-.01-.01zm-6.5-7.937l-.686-2.956.658-2.062.42.883 1.244.186.164.718-.103 1.725-.862-.165-.472.308-.348 1.376-.01-.01-.004-.003zm-2.05 8.47l-.514.452-1.376-.37-.176-.38 1.777-.083.28.37.01.01zm-18.07-9.23l-.195 2.023 2.3 2.29.554.02 1.303-1.098 2.823-.514-.924 1.243-2.165.956-.165.616 2.28 3.092-.308 1.098 1.396 1.787-2.32.87-.288-.32.123-1.22-1.683-1.375.174-2.29-.575-.4-1.714.78-.236.4.307 6.335-1.13.256-.708-.483.655-2.27-.4-2.483-.4-.35-.822-.01-.596-1.324 1.006-1.643.36-2.012 1.355-3.97h-.01v-.003zm7.33 12.074l.39.505-.02 1.314-.904.503-.544-.483 1.07-1.84h.01-.003zm.462-9.535l.278-.052-.02.134-.247-.082h-.01zm-7.555-3.01l.164-.327 1.94-1.694 1.88.698 3.244.36 3.018-.102 2.455-1.705-1.776 2.187-1.705.442-2.474-.493-4.28.133-2.454.524-.01-.02v-.002zm9.106 27.126l1.14-1.98 2.085-.84.082.634-1.488 1.715-1.82.47zm-2.493-4.71l-.103.39-3.552.676-2.988-.277v-.258l1.58-.42 1.705.75 1.714-.195 1.653-.667h-.01zm-5.36 4.475l-.657.03-2.32-1.23 1.14-.248 1.827 1.448h.01zm-6.817-4.59l.904.524 1.314-.175.206.36-4.774.748.4-.687 1.18-.02.77-.75zm-4.722-12.248l-.39-.164-2.607 1.037-1.15-1.48-1.735-.133-1.19-.77-3.122.79-1.13-1.18-3.398-.113-.36-3.13-1.385-.976-1.14-2.033-.34-2.115.28-2.197.923-1.037.38 1.18 2.145 1.53 1.57-.493 1.87.083 1.417-1.222 1.027-.185 2.342.686 2.32-.544 1.56-3.737 1.038-1.017.8-2.64 4.21.31-1.14 1.816.02.472 1.746 2.26-.236 1.426 2.125 1.756-2.393.43-.904 1.95.102 2.106-2.464 1.95-.06 2.516-.72 2.864h-.01v.003zm-19.59 8.41l.36.266 4.93.256.8-.996 4.28 1.12 1.16 1.723 3.79.462 2.186 1.067-1.848.616-2.843-1.016-4.928-.123-5.38-1.448-1.89-.257-1.14.307-4.372-.996-.72-1.17-1.63-.132 1.21-1.694 2.813.133 2.947 1.16.267.698.01.02v.002zm-7.236-2.937l-2.278.04-2.115-2.084-3.233-2.064-3.008-3.604-3.194-5.472-2.26-2.176-1.683-4.17-2.383-1.734-1.304-2.125-2.012-1.54-2.576-2.72-.113-.676 4.94.544 2.207 2.443 3.398 2.815 2.413 2.73 2.772.175 2.002 1.63 1.58 2.23 1.633.975-.862 1.755.154.534 1.478.893.81.103.412 1.622.893 1.437 2.013.4 1.026 1.344-.617 3.09-.092 3.593V306.92z" fill="#FFF"/><path fill="#D9F0FD" d="M505.633 166.542l1.314-2.556 1.87.195.677-.234.092-.73-.257-.77-.813-.738-.34-1.242-.88-.637-.022-1.223-1.16-.883-1.18-.195-2.095-1.027-1.703.328-.678.484h-.947l-.862.8-2.545.72-1.212-.73-3.15-.37-.915.442-.248-.565-1.14-.717.36-.955 1.294-1.047-.555-1.262 2.095-2.495 1.437-.636.257-1.222-1.07-2.454.853-.132 1.314-.863 1.848-.072 2.536.267 2.937.83 1.93.063.883.45 1.07-.42.79.678 2.238-.152.944.308.534-.35.154-1.57.575-.554 2.926-.05.865-.74 3.12-.185 1.263 1.5-.492.79.215 1.057.37.33 1.85.143.954 2.135 3.264 1.18 1.992-.46 1.714 1.528 1.437-.03 3.44.985.02.555-.984 1.632.483 2.023-.268.718-2.422.29-1.324.912-.237 1.417-1.88.276-1.622.996-2.475.216-2.217 1.2-.216.39.348 2.322 1.263.77 2.19-.083-.145.32-2.72.542-3.317 1.735-.893-.4.43-1.13-.255-.534-2.27-.748 2.412-1.088.123-.668-.954-.843-3.715-.76-.133-.913-.472-.348-2.68.606-.933 1.735-1.756 2.094-.883-.41-1.663.278"/><path d="M563.98 227.32l-.78-.235-.145-1.684.862-1.322.483.534.04 1.376-.46 1.335m-41.838 99.697l-.35-2.638.525-2.104 3.644.646 2.57-.39 1.046-.78 1.53.01 2.813-1.006 1.703-1.232.514 9.486.42 1.263-.698 1.715-.955 1.755-1.54 1.54-5.298 2.34-2.854 2.804-1.047.542-1.756 1.848-1.007.586-.36 2.475 1.192 1.993.503 2.228.44.32-.06 2.114-.4 1.202.512.74-.256.748-.945.852-5.258 2.454-1.253 1.395.215 1.16.595.4-.112.74-1.252-.01-.75-3.05.43-3.172-1.826-5.513 2.556-2.885.71-1.94.45-.442.288-1.57-.4-.955.605-3.748-.01-3.347-1.53-1.19-1.234-.226-1.786-1.202-1.97.01-.298-2.135 7.248-2.012 1.314 1.12.914-.104.688.452.103.75-.526 1.324.195 1.858 1.796 1.88.667-.134.73-1.694 1.2-.883-.267-3.563-1.078-1.9-1.068-.964" fill="#FFF"/></g></svg>