<svg width="108" height="23" viewBox="0 0 108 23" xmlns="http://www.w3.org/2000/svg"><title>mysociety-logo</title><g fill="none" fill-rule="evenodd"><g fill="#000"><path d="M.137 8.522c0-1.363-.024-2.507-.097-3.53h2.58l.122 1.754h.073c.585-.925 1.655-2.02 3.652-2.02 1.558 0 2.775.876 3.286 2.19h.05c.412-.658.9-1.145 1.46-1.485.657-.462 1.41-.705 2.385-.705 1.972 0 3.968 1.34 3.968 5.137v6.985h-2.92V10.3c0-1.973-.683-3.14-2.12-3.14-1.022 0-1.777.73-2.093 1.58-.073.293-.146.66-.146 1v7.107H7.415V9.983c0-1.656-.656-2.824-2.044-2.824-1.118 0-1.873.875-2.14 1.703-.123.292-.17.632-.17.974v7.01H.136V8.522zM22.263 4.992l2.143 6.354c.243.73.487 1.632.658 2.313h.072c.195-.682.414-1.56.633-2.338l1.85-6.33h3.213l-2.97 8.083c-1.63 4.43-2.727 6.4-4.14 7.62-1.167 1.046-2.385 1.436-3.14 1.534l-.68-2.535c.51-.12 1.144-.388 1.753-.827.56-.364 1.217-1.072 1.63-1.874.122-.22.195-.39.195-.536 0-.122-.023-.292-.17-.584L18.98 4.992h3.285z"/></g><g fill="#000"><path d="M32.61 13.585c.972.56 2.433 1.047 3.966 1.047 1.923 0 2.994-.9 2.994-2.238 0-1.243-.827-1.973-2.92-2.727-2.703-.974-4.43-2.41-4.43-4.772 0-2.678 2.24-4.722 5.793-4.722 1.777 0 3.092.39 3.944.827l-.73 2.41c-.585-.316-1.73-.78-3.263-.78-1.9 0-2.727 1.024-2.727 1.973 0 1.266.95 1.85 3.14 2.702 2.85 1.072 4.237 2.508 4.237 4.87 0 2.628-1.997 4.94-6.232 4.94-1.73 0-3.53-.51-4.43-1.046l.657-2.485zM67.78 16.483c-.63.29-1.872.63-3.358.63-3.7 0-6.11-2.384-6.11-6.06 0-3.553 2.434-6.33 6.597-6.33 1.096 0 2.214.245 2.896.56l-.535 2.24c-.485-.218-1.192-.462-2.263-.462-2.287 0-3.652 1.68-3.627 3.848 0 2.434 1.583 3.82 3.627 3.82 1.046 0 1.778-.22 2.362-.462l.41 2.217zM69.997 16.847V4.992h3.018v11.855M73.185 1.682c0 .9-.657 1.607-1.703 1.607-1 0-1.656-.707-1.656-1.608 0-.925.682-1.63 1.68-1.63 1.022 0 1.656.705 1.68 1.63zM78.344 11.76c.074 2.142 1.754 3.067 3.654 3.067 1.387 0 2.384-.194 3.286-.536l.437 2.07c-1.022.414-2.433.754-4.137.754-3.846 0-6.11-2.385-6.11-6.01 0-3.288 1.996-6.38 5.793-6.38 3.87 0 5.112 3.165 5.112 5.77 0 .56-.048.998-.097 1.266h-7.936zm5.21-2.093c.026-1.096-.462-2.897-2.457-2.897-1.852 0-2.63 1.68-2.752 2.897h5.21zM92.22 1.95V4.99h2.848v2.24H92.22v5.234c0 1.436.39 2.19 1.533 2.19.56 0 .827-.048 1.17-.145l.048 2.29c-.438.17-1.217.316-2.165.316-1.097 0-2.02-.39-2.58-.998-.634-.68-.926-1.754-.926-3.31V7.232h-1.705v-2.24H89.3v-2.19l2.92-.854zM99.376 4.992l2.144 6.354c.243.73.484 1.632.656 2.313h.073c.194-.682.413-1.56.63-2.338l1.852-6.33h3.212l-2.97 8.083c-1.63 4.43-2.725 6.402-4.137 7.62-1.17 1.047-2.387 1.436-3.14 1.534l-.683-2.534c.512-.12 1.145-.39 1.753-.828.56-.364 1.218-1.07 1.63-1.873.124-.22.197-.39.197-.536 0-.122-.025-.294-.17-.585L96.09 4.993h3.286z"/></g><g transform="translate(43.54 4.238)"><path d="M6.666 0C7.508 0 8.19.684 8.19 1.527c0 .842-.682 1.525-1.524 1.525S5.14 2.37 5.14 1.527C5.14.683 5.825 0 6.667 0z" fill="#ED1C24"/><path d="M6.666 10.19c.842 0 1.525.684 1.525 1.526S7.51 13.24 6.667 13.24 5.14 12.56 5.14 11.717s.684-1.526 1.526-1.526z" fill="#29ABE2"/><path d="M10.31 1.534c.84 0 1.525.683 1.525 1.525 0 .842-.684 1.525-1.525 1.525-.843 0-1.526-.683-1.526-1.526s.683-1.526 1.526-1.526z" fill="#F7931E"/><path d="M4.087 11.273c-.602.586-1.568.576-2.157-.025-.59-.603-.577-1.57.026-2.157.602-.588 1.567-.577 2.156.025.588.602.578 1.566-.025 2.158z" fill="#662D91"/><path d="M11.76 5.053c.842 0 1.526.682 1.526 1.525 0 .84-.684 1.524-1.526 1.524-.84 0-1.524-.683-1.524-1.524 0-.843.683-1.525 1.524-1.525z" fill="#FCEE21"/><ellipse fill="#93278F" cx="1.572" cy="6.664" rx="1.526" ry="1.526"/><path d="M9.19 11.302c-.595-.597-.595-1.56 0-2.158.596-.594 1.56-.594 2.157 0 .595.597.595 1.56 0 2.158-.596.594-1.56.594-2.157 0z" fill="#8CC63F"/></g></g></svg>