<svg width="108" height="23" viewBox="0 0 108 23" xmlns="http://www.w3.org/2000/svg"><g fill="none" fill-rule="evenodd"><path d="M.1 8.5V5h2.5l.1 1.7h.1c.6-.9 1.7-2 3.7-2 1.5 0 2.7.9 3.3 2.2.4-.6.9-1.1 1.5-1.5a4 4 0 0 1 2.3-.7c2 0 4 1.4 4 5.2v7h-2.9v-6.6c0-2-.7-3.1-2.1-3.1-1 0-1.8.7-2.1 1.5l-.2 1v7.1H7.4V10c0-1.7-.6-2.8-2-2.8-1.1 0-1.9.8-2.2 1.7l-.1 1v7H0V8.4zM22.3 5l2.1 6.3.7 2.4.7-2.4L27.6 5h3.2l-3 8c-1.6 4.5-2.7 6.5-4 7.7a6 6 0 0 1-3.2 1.5l-.7-2.5a5.2 5.2 0 0 0 3.4-2.7l.2-.5-.2-.6-4.3-11h3.3zM32.6 13.6c1 .5 2.4 1 4 1 1.9 0 3-.9 3-2.2 0-1.2-.9-2-3-2.7-2.7-1-4.4-2.4-4.4-4.8 0-2.7 2.3-4.7 5.8-4.7 1.8 0 3.1.4 4 .8l-.8 2.4a7 7 0 0 0-3.2-.8c-2 0-2.8 1-2.8 2 0 1.3 1 1.9 3.2 2.7 2.8 1 4.2 2.5 4.2 4.9 0 2.6-2 5-6.2 5-1.7 0-3.5-.6-4.4-1.1l.6-2.5zm35.2 2.9c-.6.3-1.9.6-3.4.6-3.7 0-6-2.4-6-6s2.3-6.4 6.5-6.4c1.1 0 2.2.3 2.9.6l-.5 2.2c-.5-.2-1.2-.4-2.3-.4-2.3 0-3.6 1.6-3.6 3.8 0 2.4 1.6 3.8 3.6 3.8 1 0 1.8-.2 2.4-.4l.4 2.2zm2.2.3V5h3v11.8m.2-15.1c0 .9-.7 1.6-1.7 1.6s-1.7-.7-1.7-1.6c0-1 .7-1.6 1.7-1.6s1.7.7 1.7 1.6zm5.1 10c.1 2.2 1.8 3.1 3.7 3.1 1.4 0 2.4-.2 3.3-.5l.4 2c-1 .5-2.4.8-4.1.8-3.9 0-6.1-2.4-6.1-6 0-3.3 2-6.4 5.8-6.4s5 3.2 5 5.8v1.3h-8zm5.3-2c0-1.1-.5-3-2.5-3-1.9 0-2.6 1.7-2.8 3h5.3zM92.2 2v3h2.9v2.2h-2.9v5.3c0 1.4.4 2.2 1.6 2.2.5 0 .8 0 1.1-.2v2.3c-.4.2-1.1.3-2 .3-1.2 0-2.1-.4-2.7-1-.6-.7-.9-1.7-.9-3.3V7.2h-1.7V5h1.7V2.8l3-.9zm7.2 3l2.1 6.3.7 2.4.7-2.4 1.8-6.3h3.2l-3 8c-1.6 4.5-2.7 6.5-4 7.7a6 6 0 0 1-3.2 1.5l-.7-2.5a5 5 0 0 0 1.8-.8c.5-.4 1.2-1.1 1.6-2l.2-.4-.2-.6-4.3-11h3.3z" fill="#000"/><g transform="translate(43.5 4.2)"><path d="M6.7 0a1.5 1.5 0 1 1 0 3 1.5 1.5 0 0 1 0-3z" fill="#ED1C24"/><path d="M6.7 10.2a1.5 1.5 0 1 1 0 3 1.5 1.5 0 0 1 0-3z" fill="#29ABE2"/><path d="M10.3 1.5a1.5 1.5 0 1 1 0 3 1.5 1.5 0 0 1 0-3z" fill="#F7931E"/><path d="M4 11.3c-.5.6-1.5.5-2 0a1.5 1.5 0 1 1 2 0z" fill="#662D91"/><path d="M11.8 5a1.5 1.5 0 1 1 0 3.1 1.5 1.5 0 0 1 0-3z" fill="#FCEE21"/><ellipse fill="#93278F" cx="1.6" cy="6.7" rx="1.5" ry="1.5"/><path d="M9.2 11.3a1.5 1.5 0 1 1 2.2-2.2 1.5 1.5 0 0 1-2.2 2.2z" fill="#8CC63F"/></g></g></svg>