<svg width="162" height="162" viewBox="0 0 162 162" xmlns="http://www.w3.org/2000/svg" xmlns:xlink="http://www.w3.org/1999/xlink" style="background:#4FADED"><title>porthole-help</title><defs><path d="M41.041 60.333l.002-2c0-.552-.45-1-1-1h-2.166v-4.55h4.39c1.625 0 2.942-1.316 2.942-2.94v-.12c0-.904-.408-1.713-1.052-2.252 11.37-8.085 19.596-28.26 20.017-41.353h2.352c.93 0 1.682-.754 1.682-1.684V1.8c0-.93-.752-1.683-1.682-1.683H1.892C.962.117.208.87.208 1.8v2.633c0 .93.754 1.684 1.684 1.684H4.18c.422 13.105 8.665 33.308 20.05 41.378-.626.54-1.023 1.338-1.023 2.23v.118c0 1.624 1.317 2.94 2.94 2.94h4.393v4.55h-2.165c-.552 0-1 .448-1 1v2l-.71 6H41.75l-.71-6z" id="a"/><path d="M34 18h2v3H0v-3h2V3h32v15zM31 3H5l1-3h24l1 3z" id="c"/><path id="e" d="M0 8h22V0H0z"/><path id="g" d="M13.425.37l4.056 8.217 9.07 1.318-6.563 6.397 1.55 9.032-8.112-4.265-8.112 4.264 1.55-9.032L.3 9.905l9.07-1.318z"/><path id="i" d="M.41 11.235h10.24V.815H.41v10.42z"/><path id="k" d="M7.304 7.83V.816H.41V7.83h6.894z"/></defs><g fill="none" fill-rule="evenodd"><path d="M80.74 79.784L51-59h60L81.26 79.784l66.428-125.43L193.65-7.08 81.66 80.12 213.17 26.73l10.42 59.088-141.84-5.188 135.06 43.637-30 51.96L81.49 81.085l75.413 120.243-56.382 20.52L81 81.263 61.48 221.848l-56.383-20.52L80.51 81.083-24.81 176.23l-30-51.96L80.25 80.63-61.59 85.82l10.42-59.088L80.34 80.12-31.65-7.08l45.962-38.567L80.74 79.783z" fill="#FFF" opacity=".1"/><path d="M68.012 76C52.832 76 45 70.21 45 60.625V54h10" stroke="#FFD835" stroke-width="4"/><path d="M94.988 76C110.168 76 118 70.21 118 60.625V54h-10" stroke="#E5C12F" stroke-width="4"/><g transform="translate(47 37)"><mask id="b" fill="#fff"><use xlink:href="#a"/></mask><use fill="#FFD835" xlink:href="#a"/><path fill-opacity=".1" fill="#000" mask="url(#b)" d="M34-3h41v93H34z"/></g><g transform="translate(63 103)"><mask id="d" fill="#fff"><use xlink:href="#c"/></mask><use fill="#675F46" xlink:href="#c"/><path fill-opacity=".1" fill="#000" mask="url(#d)" d="M18-69h41v93H18z"/></g><g transform="translate(70 110)"><mask id="f" fill="#fff"><use xlink:href="#e"/></mask><use fill="#E2DFD9" xlink:href="#e"/><path fill-opacity=".1" fill="#000" mask="url(#f)" d="M11-76h41v93H11z"/></g><g transform="translate(68 48)"><mask id="h" fill="#fff"><use xlink:href="#g"/></mask><use fill="#6C6B68" opacity=".2" xlink:href="#g"/><path fill-opacity=".1" fill="#000" mask="url(#h)" d="M13-14h41v93H13z"/></g><g transform="translate(56 46.196)"><mask id="j" fill="#fff"><use xlink:href="#i"/></mask><path d="M5.53 11.235C4.72 8.8 2.823 6.865.41 6.025c2.413-.838 4.31-2.773 5.12-5.21.81 2.437 2.706 4.372 5.12 5.21-2.414.84-4.31 2.774-5.12 5.21" fill="#FFF" opacity=".5" mask="url(#j)"/></g><g transform="translate(103 38.196)"><mask id="l" fill="#fff"><use xlink:href="#k"/></mask><path d="M3.856 7.83C3.31 6.19 2.034 4.887.408 4.323 2.034 3.758 3.31 2.456 3.856.816c.545 1.64 1.82 2.942 3.448 3.507C5.677 4.887 4.4 6.19 3.856 7.83" fill="#FFF" opacity=".5" mask="url(#l)"/></g></g></svg>