<svg xmlns="http://www.w3.org/2000/svg" viewBox="0 0 1380 669"><path fill="#F3F1EB" d="M701.7 627c-6.3-.3-5.6-4.9-7.6-5.3-2-.4 2.5-3.1 0-6.9-2.5-3.8-6.6-3.8-7.1-6.5s.5-2.7-4.1-4.2-13.7 0-13.7 0 4.1 6.9 0 6.5c-4.1-.4-3-4.2-6.1-5.3s-6.1 1.5-7.6 0-1-2.5-4.1-1.8-3-1.2-7.6-2a32 32 0 0 0-13.7 1.9c-3.5 1.1-11.1 1.5-14.7 3.4-3.5 1.9-4.1 8.1-7.1 7.3s-9.1-.1-10.1-2.3c-1-2.3.5-1.9-3-4.2-3.5-2.3.5-3.8-6.1-4.6s-9.2.8-10.9 1.5c-1.7.8-.2.4-3.3-1.5-3-1.9-7.6-5-12.7-1.7s-8.1 4.8-9.6 2.9 5.1-1.7 0-4.3c-5.1-2.6-7.6.3-10.6 0s-1.5.4-5.1-1.1c-3.5-1.5-6.6 1.2-9.1 1.6-2.5.4-3.5.8-5.1 3.1-1.5 2.3 4.6 4.2 0 5.3-4.6 1.1-6.6 2.7-8.1-1.9s-3-4.6-6.1-6.1c-3-1.5-6.6-1.4-10.6-2.4-4.1-1-9.1 1.5-8.1-2.8s-2.5-4.3-3-6.6 0-7.6-2.5-9.2-5.1-2.7-6.1-4.6-.5-4.2-5.1-4.6c-4.6-.4-9.1-.4-11.1-2.3s-4-4-6.6-4.2c-4.1-.4-4.1 4.2-7.6 3.8s-6.6-2.4-8.1-3.5-5.1.7-7.6 0-6.1 1.9-7.1-.4-3.5-4.2-5.1-1.9c-.7 1.1-2.2 2.7-3.5 4a6.8 6.8 0 0 0-2.2 5.5c.1 1.8 0 3.9-.8 4.3-1.6.8-8.3-.2-10.1 0-6.3.8-6.7 5.3-7.1 5.3-.5 0-6.5-1.5-10.1-.4-3.5 1.1-5.6 1.5-8.1 3.1-2.5 1.5-2 4.2-3.5 5s-3 4.5-6.1 4.6c-7.3.2-8.1 19.5-5.1 22.5 3 3.1 7.6 17.2 9.6 19.1 2 1.9 18.7 14.1 18.7 14.1l317.5-9.9c.2 0-.8-11.9-7.4-12.3z"/><path fill="#E2DFD9" d="M526.3 589.2c8.3-.5 7.3-8.5 10-9.2 2.7-.7-3.3-5.3 0-12s8.7-6.7 9.3-11.3c.7-4.7-.7-4.7 5.3-7.3 6-2.7 18 0 18 0s-5.3 12 0 11.3c5.3-.7 4-7.3 8-9.3s8 2.7 10 0 1.3-4.4 5.3-3.2 4-2.1 10-3.5c6-1.3 13.3 1.3 18 3.3 4.7 2 14.7 2.7 19.3 6 4.7 3.3 5.3 14.2 9.3 12.8 4-1.4 12-.1 13.3-4.1 1.3-4-.7-3.3 4-7.3s-.7-6.7 8-8c8.7-1.3 12.1 1.3 14.4 2.7 2.3 1.3.3.7 4.3-2.7 4-3.3 10-8.7 16.7-3 6.7 5.7 10.7 8.4 12.7 5 2-3.3-6.7-3 0-7.5s10 .5 14 0 2 .7 6.7-1.9 8.7 2.1 12 2.7c3.3.7 4.7 1.3 6.7 5.3s-6 7.3 0 9.3 8.7 4.7 10.7-3.3 4-8 8-10.7c4-2.7 8.7-2.4 14-4.2 5.3-1.8 12 2.5 10.7-5-1.3-7.5 3.3-7.5 4-11.5s0-13.3 3.3-16c3.3-2.7 6.7-4.7 8-8 1.3-3.3.7-7.3 6.7-8 6-.7 12-.7 14.7-4 2.7-3.3 5.3-6.9 8.7-7.3 5.3-.7 5.3 7.3 10 6.7 4.7-.7 8.7-4.1 10.7-6.1 2-1.9 6.7 1.3 10 0s8 3.3 9.3-.6c1.3-4 4.7-7.3 6.7-3.3 1 1.9 2.9 4.7 4.6 7a15 15 0 0 1 3 9.6c-.1 3.2 0 6.7 1.1 7.5 2.1 1.3 11-.4 13.3 0 8.3 1.3 8.8 9.3 9.4 9.3s8.6-2.7 13.3-.7c4.7 2 7.3 2.7 10.7 5.3 3.3 2.7 2.7 7.3 4.7 8.7 2 1.3 3.9 7.8 8 8 9.7.3 10.7 34 6.7 39.3s-10 30-12.7 33.3a950.8 950.8 0 0 1-24.7 24.7l-418-17.3c-.2 0 1.1-20.9 9.8-21.5z"/><path opacity=".4" fill="#959287" d="M960.3 603.3c2.7-3.3 8.7-28 12.7-33.3 4-5.3 3-39-6.7-39.3-4.1-.1-6-6.7-8-8-2-1.3-1.3-6-4.7-8.7l-.5-.4c-3.4 4.5-5.6 10.1-3.5 13.1 3.3 4.7 8.3 6 4.7 10.7-1.7 2.2-6.4-3.3-9.3 4-3.3 8.3 8.7 12 8.7 15.3 0 3.3-2 13.3-4.7 14-2.7.7-3.3 1.3-8.7 0-5.3-1.3-11.3-.3-14 8-.8 2.5-.7 5.1-3.3 10.5-2.7 5.5-8 7.7-6.7 14.1 2.3 11.3 14.5 17.3 17.9 17.3l8.7.2c6.7-6.4 15.7-15.4 17.4-17.5z"/><linearGradient id="a" gradientUnits="userSpaceOnUse" x1="1085.2" y1="628" x2="1085.2" y2="117.8"><stop offset=".3" stop-color="#f3f1eb"/><stop offset=".8" stop-color="#ffd835"/><stop offset="1" stop-color="#f4a140"/></linearGradient><path fill="url(#a)" d="M1053.6 254.7c.6 5.6 6.7 12.7 8.3 17.3 1.6 4.7 3.7 8 6.4 13.3 2.7 5.3-4 9.3-6.1 14-2.1 4.7 7.4 8 10.1 11.3 2.7 3.3 1.3 8.7-2 15.3-3.3 6.7-2.7 16.7-6.7 23.3-4 6.7 1.3 10.7 4 16.7s12 4.7 19.3 8c7.3 3.3 4 14.7 0 23.3-4 8.7-6 8-9 15.3-3 7.3-4.3 6.7 1 12.7 5.3 6-4 10.7 0 11.3 4 .7 10.8-2.5 17.1 3.3 6.9 6.3 2.2 8 1.7 18.7-.5 10.7-3.5 7.3 0 13.3s11.5 7.2 14.5 11.3c4.7 6.3.7 8-.7 19.2-1.3 11.2-10.7 14.8-13.3 23.5-2.7 8.7 5.3 2.7 8.7-1.3 3.3-4 6 0 10 .7s8 12.7 10.7 12c2.7-.7 6.7-2.7 12.7-3.2 6-.5 6-6.2 9.3-9.5 3.3-3.3-2-10.7 0-15.3 2-4.7 5.3-4 4.7-7.3-.7-3.3-5.3-6-4.7-10 1.7-10.7 8-8 14-10.1s2-2.3 4-7.1c3-7.4 11.3-4.1 14-5.8 2.7-1.7 6.7-1.7 9.3-.7 2.7 1 6 .3 12 .7 6 .3 4-1.7 9.3 0 5.3 1.7 4 8.3 6.7 7.7 2.7-.7 8.7 7.3 8 4.7l13.3 139.3-54.7 7.3s-234-7.3-237.3-7.3c-3.3 0-15.7-6-18-17.3-1.3-6.4 4-8.7 6.7-14.1s2.5-8 3.3-10.5c2.7-8.3 8.7-9.3 14-8 5.3 1.3 6 .7 8.7 0 2.7-.7 4.7-10.7 4.7-14 0-3.3-12-7-8.7-15.3 2.9-7.2 7.6-1.8 9.3-4 3.7-4.7-1.3-6-4.7-10.7-3.3-4.7 4.2-16.4 10.4-19 6.1-2.5 24.3 1 14.3-1.7s-8.7-34.7-8.7-43.3c0-8.7 10-8.7 14.7-15 4.7-6.3-8-13.7-10-25s10.7-21.3 12.7-24c2-2.7-4.7-17.3-8-20-3.3-2.7 3.3-14.7 9.1-17.3 5.7-2.7-5.1-13.3 0-17.3s2.3-12.7 1.3-20-2.4-9.3 0-14.7c2.4-5.3 5 .7 1.6-3.3s-.7-14 0-18l20.7-135.3s4-28.7 6.7-32.7c2.7-4 6-1.3 8.7-.7 2.7.7 6 37.3 6.7 40 .7 2.7 5 36.8 6 46 .7 6.8 2.6 37.9 3.9 49.3z"/><path opacity=".4" fill="#959287" d="M1131.6 624.3c0 6-.1-17.9 7-22.1 9.4-5.5 20.9-6.5 23.8-10.5 3-4 8.4-9.5 10.4-13.3 4.8-9-.7-16.7-6.6-23.3-5.9-6.7-10.3-14.4-2.9-20.7 6.7-5.7 14.1-1.7 17-4.7 2.6-2.7-2.6-11 .1-14.7 2.1-2.9 17.6-4.7 18.4-9.3.7-4.7 1.8-13 10.7-13 8.9 0 16.6 2.3 20.3 8.3s7.4 10.7 7.4 10.7-5.9-6.7 0-8c5.9-1.3.7-5.3 6.7-7 5.9-1.7 9.6 5 11.8 0 2.2-5 5.5-9.8 11.1-9.7 9.6.2 3.7 13.3 9.6 9.3 5.9-4 5.9-10 12.6-15.3 5.6-4.5 20 6.5 20 .9s4.4-12.9 10.4-12.3c5.9.7 18.5-6.7 24.4-7.3 5.9-.7 9.6-3.3 15.5 0s4.4 10.7 4.4 10.7 2.2-6.7 6.7-7.3c4.4-.7 14.8-4.7 17.7 1.3s4.1 158.3 4.1 158.3l-260.7 8.4v-9.4z"/><path fill="#E2DFD9" d="M1160.6 611.3c0 6-.6-17.9 5.8-22.1 8.5-5.5 18.6-6.5 21.2-10.5 2.7-4 7.5-9.5 9.3-13.3 4.3-9-.7-16.7-6-23.3-5.3-6.7-9.3-14.4-2.7-20.7 6-5.7 12.7-1.7 15.3-4.7 2.4-2.7-2.3-11 .1-14.7 1.9-2.9 15.9-4.7 16.6-9.3.7-4.7 1.7-13 9.7-13s15 2.3 18.3 8.3 6.7 10.7 6.7 10.7-5.3-6.7 0-8c5.3-1.3.7-5.3 6-7 5.3-1.7 8.7 5 10.7 0s4.9-9.8 10-9.7c8.7.2 3.3 13.3 8.7 9.3 5.3-4 5.3-10 11.3-15.3 5-4.5 18 6.5 18 .9s4-12.9 9.3-12.3c5.3.7 16.7-6.7 22-7.3 5.3-.7 8.7-3.3 14 0 5.3 3.3 4 10.7 4 10.7s2-6.7 6-7.3c4-.7 13.3-4.7 16 1.3 2.7 6 4.2 158.3 4.2 158.3l-234.5 8.4v-9.4z"/><path fill="#579B63" d="M1457 608.2c-15.8-4.8-22.2 2.3-36.1 0-14.5-2.4-20.2-12.8-33.4-14.4-14.6-1.8-23 13.9-33.4 15.2-1 .1-4.5-7.2-6.5-7-2.4.2-13.8.2-16.2 0-19-1.5-26.6 3.9-44.4 7.6-17.1 3.5-25.5-.9-40-3.6-18.2-3.4-33.6-4.6-51.3.8-7 2.1-10.9 8-19.8 9-8.6 1-16.5-4.3-24.8-4.5-13.7-.2-26.6 5.6-40.6 4.7-17.8-1.1-26.7-2.3-46.3 1.1-21.7 3.7-44.5-5.8-68.3-8.4-22.5-2.4-45.4 1-65.8-1.5-15.7-1.9-28.9-9.3-45.4-9.3-21.4 0-35 8.2-53.7 14a231.7 231.7 0 0 1-76.8 7.9c-26.2-1.9-62.1 2.8-86.7-4.5-10-3-17.2-10.2-27.1-13.7-2.3-.8-5.2 1.5-7.2.7l-19.7-8.6c-15.8-.7-24 12.2-37.7 17.2-17.6 6.5-44.8 6.7-62.9 4.6-11.1-1.3-22.6-7.5-33.1-8.2-17.9-1.2-35.5 6-53.7 5.9-23.4-.1-42.9 2.6-65.7 4.5-26.9 2.2-47.2 8.9-75.1 6-30.6-3.2-58.6 30-89 31.4a1529 1529 0 0 0-92.9 7.4c-13.6 1.5-28.3 7.1-42.1 5.4-15-1.9-26.7 11.6-42.1 10.3-9.8-.8-19.4 2.9-28.8 4.4-15.1 2.4-18.1-32.4-31.7-32-9.9.3-15.8-18.1-22.3-11.1-11.8 12.8-6.4 58.7-6.7 75.9 189.5 1.2 378.6-21.7 568-20.8 281.2 1.4 562.4 3.3 843.5 2.4 34.3-.1 76.7 6.3 110.5-1 3.2-.7 13.1 1.6 15.6-.9 10-10.4 5.2-84.7-10.3-86.9z"/><path fill="#62B355" d="M11.7 691.7c11.4-3.3 14.4-4.7 18.4-4 4 .7 7.9 6.7 14.9 4 6.9-2.7 14.9-23 16.9-28.2 2-5.2 6.9-8.5 13.9-8.5s15.9 5.3 20.8 6.7c5 1.3 6 10.7 9.9 6.7 4-4-1-1 6-6.2s6-1.5 14.9 0 14.9-14.2 18.8-16c4-1.8 4 1.5 10.9 2.8s15.9 7.3 20.8 4.3c5-3 15.9 5.3 20.8.8s6.9-5.3 14.9-6.9c7.9-1.6 13.9-33.4 22.8-33 8.9.4 11.9-.3 15.9 3.1 4 3.3 6 7.3 13.9 8 7.9.7 18.8-2 23.8-3.3s3-.7 11.9.7c8.9 1.3 24.8 5.5 28.8 2.8 4-2.8 14.9-7.4 22.8-4.8 7.9 2.7 14.9 4.7 19.8 5.7 5 1 .1 3 8.5 4.3 8.4 1.3 8.4-2.7 15.3-5.3 6.9-2.7 11.9-1.3 22.8-1.3s9.9-6.4 19.8-5.5c9.9.9 11.9-2.2 17.9 0 6 2.2 7.9-3.1 11.9-3.1s5 .7 11.9 0 2 4.3 10.9 3.1c8.9-1.1 9.9-1.8 14.9-3.8s14.9-5.3 21.8-5.3 11.9 0 19.8 1.3 21.8 1.3 25.8 4 12.9 8 22.8 10 26.8-.7 33.7-.7c6.9 0 0 7.2 9.9 6.9 9.9-.3 20.8-2.9 20.8-2.9s33.7-4.7 45.6-2.7c11.9 2 32.7 0 36.7-2s12.9-9.3 16.9-10c4-.7 1-1.3 8.9 0s7.9.7 11.9-3.3 7.9-6 13.9-4a72 72 0 0 1 20.8 12.1c4 3.9 15.9 3.9 24.8 4.6 8.9.7 12.9 2.7 22.8 3.3s34.7-4 34.7-4 11.8-7.2 23.8-3.9c11.9 3.3 20.9 5.3 28.8 5.3 7.9 0 20.8-2 27.8-2 6.9 0 3-1.3 11.9 4.7s26.8 0 26.8 0l20.8 4.9s25.8 4.4 31.7 4.4c6 0 12.9-3.3 19.8-3.3s20.8 0 26.8-.7 21.8-4.7 24.8-4c3 .7 14.9 2 18.8 2.7s36.7 1.3 41.7 0 24.8-6 29.8-6 11.9-8.1 18.8-3.7c6.9 4.4 23.8 5.7 26.8 5.7s15.9 4 22.8 1.3 21.8-10 26.8-11.3c5-1.3 20.8 1.3 25.8 1.3s10.9 4 20.8 6 17.9-5.5 22.8-3.1c5 2.4 3.1-1.7 11.5 0s9.4 71.1 9.4 71.1S5.3 740 2.3 734.7c-3-5.3-33.7-25.6-33.7-25.6l43.1-17.4z"/><path fill="#E04B4B" d="M1038.6 107V58.6l-3.1-6.6a2.6 2.6 0 0 0-4.8 0l-3 6.6V107c-2 2-8 10-8 10v3.5l8-4.5v4h11v-4l8 4.5V117c-.1 0-7.1-8-8.1-10zm-5.5-35.8c-1.2 0-2.1-1-2.1-2.1s1-2.1 2.1-2.1 2.1 1 2.1 2.1-.9 2.1-2.1 2.1zm5.5 35.8V58.6l-3.1-6.6a2.6 2.6 0 0 0-4.8 0l-3 6.6V107c-2 2-8 10-8 10v3.5l8-4.5v4h11v-4l8 4.5V117c-.1 0-7.1-8-8.1-10zm-5.5-35.8c-1.2 0-2.1-1-2.1-2.1s1-2.1 2.1-2.1 2.1 1 2.1 2.1-.9 2.1-2.1 2.1z"/></svg>