<svg xmlns="http://www.w3.org/2000/svg" xmlns:xlink="http://www.w3.org/1999/xlink" viewBox="0 0 296 435"><g opacity=".2" fill="#2E3192"><ellipse cx="145.2" cy="404.6" rx="130.5" ry="11.5"/><path d="M145.2 417.2c-34.9 0-67.7-1.2-92.4-3.4-39.2-3.5-39.2-7.6-39.2-9.2 0-1.6 0-5.7 39.2-9.2 24.7-2.2 57.5-3.4 92.4-3.4s67.7 1.2 92.4 3.4c39.2 3.5 39.2 7.6 39.2 9.2 0 1.6 0 5.7-39.2 9.2-24.7 2.2-57.5 3.4-92.4 3.4zm0-23.1c-34.8 0-67.6 1.2-92.2 3.4-36.9 3.3-37.3 7.1-37.3 7.1s.4 3.9 37.3 7.1c24.6 2.2 57.4 3.4 92.2 3.4s67.6-1.2 92.2-3.4c36.9-3.3 37.3-7.1 37.3-7.1s-.4-3.9-37.3-7.1c-24.6-2.2-57.4-3.4-92.2-3.4z"/></g><path fill="#6C6B68" d="M232.9 337.1c1.9-.7 3.9-.9 5.8-.8l7-15.3c6-14.2 9.3-29.6 9.3-46.1 0-28.9-10.2-55.3-27.1-75.3l18.6-6.5a162 162 0 0 1 25.5 81.8 136 136 0 0 1-13.4 59.2l-5.3 10.1-.2.3a17.6 17.6 0 0 1-9 26.1 17 17 0 0 1-4.4.8l5.7-11.7-5.3-9-10.3 1.2-5.7 11.7a17.6 17.6 0 0 1 8.8-26.5z"/><path fill="#564233" d="M239.8 372.7c-.5 0-1-.2-1.2-.7-.3-.4-.3-1-.1-1.5l5.4-11-4.4-7.5-8.6 1-5.4 11c-.2.5-.7.8-1.2.8s-1-.2-1.3-.7c-1.1-1.6-1.8-3-2.3-4.4-3.4-10 2-20.8 11.9-24.2 1.7-.6 3.4-.9 5.4-.9l6.6-14.5a116 116 0 0 0 9.2-45.5c0-27.5-9.5-53.9-26.7-74.3-.3-.4-.4-.9-.3-1.4.1-.5.5-.9 1-1l18.6-6.5c.6-.2 1.4 0 1.8.6a163.6 163.6 0 0 1 25.8 82.6c0 21-4.6 41.1-13.6 59.9l-5.1 9.7a19.1 19.1 0 0 1-15.5 28.5c.1 0 0 0 0 0zm.4-23.7c.5 0 1 .3 1.3.7l5.3 9c.3.4.3 1 .1 1.4l-4.5 9.2A16.2 16.2 0 0 0 252 345c-.3-.5-.3-1-.1-1.5l.2-.3v.1l5.4-10.1c8.8-18.3 13.2-38 13.2-58.5 0-25.1-9.7-56.3-24.7-80l-15.4 5.4a119.3 119.3 0 0 1 16.5 121.3l-7 15.5c-.2.5-.8 1-1.4 1-2 0-3.7.1-5.3.6a16 16 0 0 0-10 20.3c.2.5.3.9.6 1.3l4.5-9.2c.2-.5.7-.8 1.2-.8L240 349h.2z"/><defs><path id="a" d="M234 240.6c3.6 0 12.6-2.9 12.6-6.6l15.7-29c0-3.6-24.6-21.1-28.2-21.1a6.6 6.6 0 0 0-6.6 6.6V234c0 3.7 2.9 6.6 6.5 6.6z"/></defs><defs><path id="b" d="M234 242.1a8.1 8.1 0 0 1-8.1-8.1v-43.5c0-4.4 3.6-8.1 8.1-8.1 3.2 0 14.2 7.9 16.4 9.5 8.9 6.5 13.4 10.9 13.4 13.1l-.2.7-15.5 28.7c-.6 5-10.6 7.7-14.1 7.7zm0-56.7a5 5 0 0 0-5 5.1V234c0 2.8 2.3 5.1 5.1 5.1 3.8 0 11.1-3 11.1-5.1l.2-.7 15.4-28.5a103.3 103.3 0 0 0-26.8-19.4z"/></defs><use xlink:href="#a" overflow="visible" fill="#E2DFD9"/><use xlink:href="#b" overflow="visible" fill="#564233"/><clipPath id="c"><use xlink:href="#a" overflow="visible"/></clipPath><clipPath id="d" clip-path="url(#c)"><use xlink:href="#b" overflow="visible"/></clipPath><g opacity=".1" clip-path="url(#d)" fill="#2E3192"><path d="M247 227.4s-5-.1-10.1-3.3l-10.7-6.5-.9 27.4h21l.7-17.6z"/><path d="M246.3 246h-21c-.4 0-.8-.2-1.1-.5-.3-.3-.4-.7-.4-1.1l.9-27.2c0-.6.3-1.1.8-1.3.5-.2 1.1-.2 1.5.1.1 0 1.5 1.1 10.6 6.7 4.7 2.9 9.3 2.9 9.3 2.9.4 0 .8.2 1.1.5.3.3.4.7.4 1.1l-.7 17.4c0 .8-.6 1.4-1.4 1.4zm-19.5-3h18l.6-14.5c-2-.2-5.6-1-9.3-3.2l-8.5-5.3-.8 23z"/></g><path fill="#6C6B68" d="M56.3 337.1c-1.9-.7-3.9-.9-5.8-.8l-7-15.3c-6-14.2-9.3-29.6-9.3-46.1 0-28.9 10.2-55.3 27.1-75.3L42.6 193a162 162 0 0 0-25.5 81.8A136 136 0 0 0 30.5 334l5.3 10.1.2.3a17.6 17.6 0 0 0 9 26.1c1.5.5 2.9.7 4.4.8l-5.7-11.7 5.3-9 10.3 1.2 5.7 11.7a17.3 17.3 0 0 0-8.7-26.4z"/><path fill="#6C6B68" d="M56.3 337.1c-1.9-.7-3.9-.9-5.8-.8l-7-15.3c-6-14.2-9.3-29.6-9.3-46.1 0-28.9 10.2-55.3 27.1-75.3L42.6 193a162 162 0 0 0-25.5 81.8A136 136 0 0 0 30.5 334l5.3 10.1.2.3a17.6 17.6 0 0 0 9 26.1c1.5.5 2.9.7 4.4.8l-5.7-11.7 5.3-9 10.3 1.2 5.7 11.7a17.3 17.3 0 0 0-8.7-26.4z"/><path fill="#564233" d="M49.5 372.7c-.1 0-.1 0 0 0-2-.1-3.5-.4-4.9-.9a19.2 19.2 0 0 1-10.4-27.5l-5.1-9.6c-9-18.8-13.6-38.9-13.6-59.9 0-26 10.1-58.4 25.8-82.6.4-.6 1.1-.8 1.8-.6l18.6 6.5c.5.2.8.5 1 1 .1.5 0 1-.3 1.4a116.7 116.7 0 0 0-17.5 119.8l6.6 14.4c1.9 0 3.7.4 5.4.9a19.2 19.2 0 0 1 11.9 24.2c-.5 1.5-1.2 2.9-2.3 4.4-.3.4-.8.7-1.3.7s-1-.4-1.2-.8l-5.4-11-8.6-1-4.4 7.5 5.4 11c.2.5.2 1.1-.1 1.5-.5.4-.9.6-1.4.6zm-12.3-29.3l.2.3c.3.5.2 1.1-.1 1.5a16 16 0 0 0 8.3 23.9l1.4.4-4.5-9.2c-.2-.5-.2-1 .1-1.4l5.3-9c.3-.5.9-.8 1.5-.7l10.3 1.2c.5.1 1 .4 1.2.8l4.5 9.2.6-1.4a16 16 0 0 0-10-20.4c-1.6-.5-3.4-.8-5.3-.8-.6 0-1.1-.3-1.4-.9l-7-15.3a119.3 119.3 0 0 1 16.5-121.3l-15.4-5.4a160.8 160.8 0 0 0-24.7 80c0 20.5 4.5 40.2 13.3 58.6l5.2 9.9z"/><defs><path id="e" d="M55.2 240.6c-3.6 0-12.6-2.9-12.6-6.6L27 205c0-3.6 24.6-21.1 28.2-21.1 3.6 0 6.6 2.9 6.6 6.6V234c0 3.7-2.9 6.6-6.6 6.6z"/></defs><defs><path id="f" d="M55.2 242.1c-3.4 0-13.5-2.7-14-7.6l-15.5-28.7-.2-.7c0-2.2 4.5-6.6 13.4-13.1 2.2-1.6 13.1-9.5 16.4-9.5 4.4 0 8.1 3.6 8.1 8.1V234a8.2 8.2 0 0 1-8.2 8.1zm-26.6-37.3L44 233.3l.2.7c0 2 7.3 5.1 11.1 5.1 2.8 0 5.1-2.3 5.1-5.1v-43.5c0-2.8-2.3-5.1-5.1-5.1a99.6 99.6 0 0 0-26.7 19.4z"/></defs><use xlink:href="#e" overflow="visible" fill="#E2DFD9"/><use xlink:href="#f" overflow="visible" fill="#564233"/><clipPath id="g"><use xlink:href="#e" overflow="visible"/></clipPath><clipPath id="h" clip-path="url(#g)"><use xlink:href="#f" overflow="visible"/></clipPath><g opacity=".1" clip-path="url(#h)" fill="#2E3192"><path d="M42.3 227.4s5-.1 10.1-3.3l10.7-6.5.9 27.4H43l-.7-17.6z"/><path d="M64 246H43c-.8 0-1.5-.6-1.5-1.4l-.7-17.4c0-.4.1-.8.4-1.1.3-.3.7-.5 1.1-.5.1 0 4.7-.1 9.3-2.9a198 198 0 0 0 10.6-6.7c.4-.3 1-.4 1.5-.1s.8.7.8 1.3l.9 27.2c0 .4-.1.8-.4 1.1-.2.3-.6.5-1 .5zm-19.6-3h18l-.8-23-8.5 5.3c-3.7 2.3-7.3 3-9.3 3.2l.6 14.5z"/></g><ellipse fill="#2E3192" cx="272.8" cy="392.1" rx=".7" ry=".3"/><path fill="#333" d="M110.9 359.8h64.7v5.7h-64.7z"/><path fill="#6C6B68" d="M104 373c-.7 0-1.3-.5-1.5-1.1l-15.4-63c-.1-.4 0-.9.3-1.3s.7-.6 1.2-.6h15.7c.7 0 1.3.5 1.5 1.2l13.2 63c.1.4 0 .9-.3 1.3s-.7.6-1.2.6H104z"/><path fill="#564233" d="M104.2 308.5l13.2 63H104l-15.4-63h15.6m0-3H88.6c-.9 0-1.8.4-2.4 1.1a3 3 0 0 0-.6 2.6l15.4 63a3 3 0 0 0 2.9 2.3h13.4c.9 0 1.8-.4 2.3-1.1.6-.7.8-1.6.6-2.5l-13.2-63c-.1-1.4-1.3-2.4-2.8-2.4z"/><path fill="#6C6B68" d="M173.2 373c-.5 0-.9-.2-1.2-.6s-.4-.8-.3-1.3l13.2-63c.1-.7.8-1.2 1.5-1.2h15.7c.5 0 .9.2 1.2.6.3.4.4.8.3 1.3l-15.4 63c-.2.7-.8 1.1-1.5 1.1h-13.5z"/><path fill="#564233" d="M202.1 308.5l-15.4 63h-13.4l13.2-63h15.6m0-3h-15.7a3 3 0 0 0-2.9 2.4l-13.2 63a3 3 0 0 0 2.9 3.6h13.4c1.4 0 2.6-.9 2.9-2.3l15.4-63c.2-.9 0-1.8-.6-2.6-.4-.7-1.3-1.1-2.2-1.1z"/><g><path fill="#333" d="M162.5 409.3h-34.4c-3.7 0-6.8-3-6.8-6.8V324a8 8 0 0 1 7.9-7.9h32.2a8 8 0 0 1 7.9 7.9v78.6c0 3.7-3.1 6.7-6.8 6.7z"/></g><g><path fill="#6C6B68" d="M146.2 206c-7.8 0-14.2-6.4-14.2-14.2v-50.4c0-.8.7-1.5 1.5-1.5h23.2c.8 0 1.5.7 1.5 1.5V194a12 12 0 0 1-12 12z"/><path fill="#564233" d="M156.7 141.5V194c0 5.8-4.7 10.5-10.5 10.5-7 0-12.7-5.7-12.7-12.7v-50.4h23.2m0-2.9h-23.2a3 3 0 0 0-3 3v50.4c0 8.6 7 15.6 15.6 15.6 7.4 0 13.5-6 13.5-13.5v-52.5c.1-1.7-1.2-3-2.9-3z"/></g><g><path fill="#E2DFD9" d="M72.4 146.5c-.6 0-1.1-.3-1.3-.8L35.7 75c-.2-.5-.2-1 .1-1.4.3-.4.7-.7 1.3-.7h216c.5 0 1 .3 1.3.7.3.4.3 1 .1 1.4l-35.4 70.7c-.3.5-.8.8-1.3.8H72.4z"/><path fill="#564233" d="M253 74.3L217.6 145H72.4L37 74.3h216m0-2.9H37c-1 0-2 .5-2.5 1.4a3 3 0 0 0-.1 2.9l35.4 70.7c.5 1 1.5 1.6 2.6 1.6h145.2c1.1 0 2.1-.6 2.6-1.6l35.4-70.7c.5-.9.4-2-.1-2.9a2.7 2.7 0 0 0-2.5-1.4z"/></g><g opacity=".2" fill="#2E3192"><path d="M65.7 92.1L41.5 83H61l5.8 9.4"/><path d="M65.2 93.3L41 83.9c-.7-.3-1.1-1-.9-1.7.1-.7.8-1.2 1.5-1.2H61c.5 0 1 .3 1.3.7l5.8 9.5-2.6 1.6-.1-.1-.2.6zM49.6 84l13.8 5.3-3.2-5.3H49.6z"/></g><g opacity=".2" fill="#2E3192"><path d="M224.6 92.5l5.7-9.5H250z"/><path d="M224.6 93.5c-.4 0-.9-.2-1.1-.5-.4-.5-.5-1.2-.1-1.7l5.6-9.5c.3-.5.8-.7 1.3-.7H250c.7 0 1.3.5 1.5 1.2.1.7-.3 1.4-.9 1.7l-25.4 9.5h-.6zm6.5-9.5l-3 5.1 13.6-5.1h-10.6z"/></g><g><path fill="#E2DFD9" d="M188 31h-85.9L37 74.2h216z"/><path fill="#564233" d="M253 75.7H37c-.7 0-1.2-.4-1.4-1.1-.2-.6.1-1.3.6-1.7l65.1-43.2c.2-.2.5-.3.8-.3H188c.3 0 .6.1.8.3L253.9 73c.6.4.8 1 .6 1.7-.2.6-.8 1-1.5 1zm-211-3h206.1l-60.5-40.2h-85L42 72.7z"/></g><g opacity=".1" fill="#2E3192"><path d="M217.9 145.8H72.7L37.3 73.3h216z"/><path d="M217.9 147.3H72.7c-.6 0-1.1-.3-1.3-.8L36 74c-.2-.5-.2-1 .1-1.5.3-.4.8-.7 1.3-.7h216c.5 0 1 .3 1.3.7.3.4.3 1 .1 1.5l-35.4 72.5c-.4.5-.9.8-1.5.8zm-144.2-3H217l34-69.5H39.7l34 69.5z"/></g><g><path fill="#E2DFD9" d="M123 80l-49.7 65h143.2l-48.9-65z"/></g><g><path fill="#E2DFD9" d="M251.2 81l3.5-7H35.5l3.5 7z"/><path fill="#564233" d="M251.2 82H39c-.6 0-1.1-.3-1.3-.8l-3.5-7c-.2-.5-.2-1 .1-1.5.3-.4.8-.7 1.3-.7h219.3c.5 0 1 .3 1.3.7.3.4.3 1 .1 1.5l-3.5 7c-.5.5-1 .8-1.6.8zM39.9 79h210.4l2-4H37.9l2 4z"/></g><g><defs><path id="i" d="M206 130.6l-121.3.4-23.5-50.3h167.7z"/></defs><defs><path id="j" d="M84.7 132.5c-.6 0-1.1-.3-1.4-.9L59.8 81.4c-.2-.5-.2-1 .1-1.5.3-.4.8-.7 1.3-.7h167.7c.5 0 1 .3 1.3.7.3.4.3 1 .1 1.5l-22.9 49.9c-.2.5-.8.9-1.4.9l-121.3.3zM63.6 82.3l22.1 47.2 119.3-.3 21.5-46.8H63.6z"/></defs><use xlink:href="#i" overflow="visible" fill="#E65376"/><use xlink:href="#j" overflow="visible" fill="#564233"/><clipPath id="k"><use xlink:href="#i" overflow="visible"/></clipPath><clipPath id="l" clip-path="url(#k)"><use xlink:href="#j" overflow="visible"/></clipPath><g opacity=".2" clip-path="url(#l)" fill="#2E3192"><path d="M28.7 66.6l251-.8v20.6l-251 .8z"/><path d="M28.7 88.4c-.3 0-.7-.1-.9-.4-.2-.2-.4-.6-.4-.9l-.1-20.6c0-.7.6-1.3 1.3-1.3l251-.7c.3 0 .7.1.9.4.2.2.4.6.4.9l.1 20.6c0 .7-.6 1.3-1.3 1.3l-251 .7zM30 67.8l.1 18 248.4-.7-.1-18-248.4.7z"/></g></g><g><path fill="#F4A140" d="M126.5 37.5c0-10.6 7.5-21.2 18.1-21.2 10.6 0 18.4 10.6 18.4 21.2v19.2c-6 2.2-12 2.9-18.4 2.9-7.1 0-12.4-.8-18.5-3.1l.4-19z"/><path fill="#564233" d="M144.8 61.2c-7.5 0-13-.9-19.2-3.2-.6-.2-1-.8-1-1.4l.3-19c0-11 8-22.7 19.8-22.7 11.9 0 20.2 12 20.2 22.7v19.3c0 .6-.4 1.2-1 1.4-6.2 2-11.9 2.9-19.1 2.9zm-17.1-5.7a49 49 0 0 0 17.2 2.7 53 53 0 0 0 17.2-2.5V37.5c0-9.3-7.1-19.7-17.2-19.7-8.1 0-16.8 7.9-16.8 19.7l-.4 18z"/></g><g><path fill="#E2DFD9" d="M92.5 312.5c-13.7 0-25.7-9.6-27.3-21.8l-12.4-92.3a28.6 28.6 0 0 1 6.4-22.6c5-5.7 12.1-8.9 20-8.9h132.2c7.9 0 15 3.1 20 8.9 5.2 6 7.6 14.2 6.4 22.6l-12.4 92.3c-1.6 12.2-13.6 21.8-27.3 21.8H92.5z"/><path fill="#564233" d="M211.4 168.4c16 0 27.1 13.6 24.9 29.8l-12.4 92.3c-1.5 11.5-13.1 20.5-25.8 20.5H92.5c-12.7 0-24.3-9-25.8-20.5l-12.4-92.3c-2.2-16.1 8.9-29.8 24.9-29.8h132.2m0-3H79.1c-8.3 0-15.8 3.3-21.1 9.4a30 30 0 0 0-6.8 23.8l12.4 92.3c1.7 13 14.4 23.1 28.8 23.1H198c14.4 0 27.1-10.2 28.8-23.1l12.4-92.3a30 30 0 0 0-6.8-23.8 27.1 27.1 0 0 0-21-9.4z"/></g><g><g opacity=".2"><defs><path id="m" opacity=".2" d="M201.8 260.2h-27.9a6.2 6.2 0 0 1-6.2-6.2v-9.9c0-3.4 2.8-6.2 6.2-6.2h27.9c3.4 0 6.2 2.8 6.2 6.2v9.9c0 3.4-2.8 6.2-6.2 6.2z"/></defs><defs><path id="n" opacity=".2" d="M201.8 262.5h-27.9a8.5 8.5 0 0 1-8.5-8.5v-9.9c0-4.7 3.8-8.5 8.5-8.5h27.9c4.7 0 8.5 3.8 8.5 8.5v9.9a8.4 8.4 0 0 1-8.5 8.5zm-27.9-22.2a3.8 3.8 0 0 0-3.8 3.8v9.9c0 2.1 1.7 3.8 3.8 3.8h27.9c2.1 0 3.8-1.7 3.8-3.8v-9.9c0-2.1-1.7-3.8-3.8-3.8h-27.9z"/></defs><use xlink:href="#m" overflow="visible" fill="#2E3192"/><use xlink:href="#n" overflow="visible" fill="#2E3192"/><clipPath id="o"><use xlink:href="#m" overflow="visible"/></clipPath></g><path fill="#E2DFD9" d="M202.2 259.6h-28a8 8 0 0 1-8.1-8.1v-28a8 8 0 0 1 8.1-8.1h28a8 8 0 0 1 8.1 8.1v28c0 4.4-3.6 8.1-8.1 8.1z"/><path fill="#564233" d="M202.2 260.6h-28c-5 0-9.1-4.1-9.1-9.1v-28c0-5 4.1-9.1 9.1-9.1h28c5 0 9.1 4.1 9.1 9.1v28c0 5-4.1 9.1-9.1 9.1zm-28.1-44.3a7.1 7.1 0 0 0-7.1 7.1v28c0 3.9 3.2 7.1 7.1 7.1h28c3.9 0 7.1-3.2 7.1-7.1v-28c0-3.9-3.2-7.1-7.1-7.1h-28z"/><circle fill="#6C6B68" cx="188.3" cy="237.3" r="15.3"/><path fill="#564233" d="M188.3 253.7a16.4 16.4 0 1 1 0-32.8 16.4 16.4 0 0 1 0 32.8zm0-30.5c-7.8 0-14.2 6.4-14.2 14.2 0 7.8 6.4 14.2 14.2 14.2a14.2 14.2 0 1 0 0-28.4z"/><g><path fill="#564233" d="M177.6 242.3a1 1 0 0 1-.7-.3 1 1 0 0 1 0-1.4l14.1-14.1c.4-.4 1-.4 1.4 0s.4 1 0 1.4L178.3 242c-.2.3-.4.3-.7.3zM181 245.7a1 1 0 0 1-.7-.3 1 1 0 0 1 0-1.4l14.1-14.1c.4-.4 1-.4 1.4 0s.4 1 0 1.4l-14.1 14.1a1 1 0 0 1-.7.3zM184.3 249a1 1 0 0 1-.7-.3 1 1 0 0 1 0-1.4l14.1-14.1c.4-.4 1-.4 1.4 0s.4 1 0 1.4L185 248.7a1 1 0 0 1-.7.3z"/></g><g><g opacity=".2"><defs><path id="p" opacity=".2" d="M207.5 207h-38.4a3.9 3.9 0 0 1 0-7.8h38.4a3.9 3.9 0 0 1 0 7.8z"/></defs><defs><path id="q" opacity=".2" d="M207.5 208.5h-38.4c-3 0-5.4-2.4-5.4-5.4s2.4-5.4 5.4-5.4h38.4c3 0 5.4 2.4 5.4 5.4s-2.4 5.4-5.4 5.4zm-38.4-7.9c-1.3 0-2.4 1.1-2.4 2.4s1.1 2.4 2.4 2.4h38.4c1.3 0 2.4-1.1 2.4-2.4s-1.1-2.4-2.4-2.4h-38.4z"/></defs><use xlink:href="#p" overflow="visible" fill="#2E3192"/><use xlink:href="#q" overflow="visible" fill="#2E3192"/><clipPath id="r"><use xlink:href="#p" overflow="visible"/></clipPath><clipPath id="s" clip-path="url(#r)"><use xlink:href="#q" overflow="visible"/></clipPath><g opacity=".2" clip-path="url(#s)" fill="#2E3192"><path d="M156.9 204.1h64.3v17h-64.3z"/><path d="M221.1 222.7h-64.3c-.8 0-1.5-.7-1.5-1.5v-17c0-.8.7-1.5 1.5-1.5h64.3c.8 0 1.5.7 1.5 1.5v17c0 .8-.6 1.5-1.5 1.5zm-62.7-3h61.3v-14h-61.3v14z"/></g></g><defs><path id="t" d="M207.4 204.1H169a3.9 3.9 0 0 1 0-7.8h38.4a3.9 3.9 0 0 1 0 7.8z"/></defs><defs><path id="u" d="M207.4 205.1H169a5 5 0 0 1 0-9.8h38.4a5 5 0 0 1 0 9.8zm-38.5-7.8a2.9 2.9 0 0 0 0 5.8h38.4a2.9 2.9 0 0 0 0-5.8h-38.4z"/></defs><use xlink:href="#t" overflow="visible" fill="#62B355"/><use xlink:href="#u" overflow="visible" fill="#564233"/><clipPath id="v"><use xlink:href="#t" overflow="visible"/></clipPath><clipPath id="w" clip-path="url(#v)"><use xlink:href="#u" overflow="visible"/></clipPath><g opacity=".2" clip-path="url(#w)" fill="#2E3192"><path d="M156.7 201.3H221v17h-64.3z"/><path d="M221 219.8h-64.3c-.8 0-1.5-.7-1.5-1.5v-17c0-.8.7-1.5 1.5-1.5H221c.8 0 1.5.7 1.5 1.5v17c0 .8-.7 1.5-1.5 1.5zm-62.8-3h61.3v-14h-61.3v14z"/></g><g><path fill="#564233" d="M187 197h2v8h-2z"/></g></g><g><g opacity=".1" fill="#2E3192"><circle cx="89.4" cy="207.6" r="7.6"/><path d="M89.4 216.8c-5 0-9.1-4.1-9.1-9.1s4.1-9.1 9.1-9.1 9.1 4.1 9.1 9.1-4.1 9.1-9.1 9.1zm0-15.3c-3.4 0-6.1 2.7-6.1 6.1s2.7 6.1 6.1 6.1 6.1-2.7 6.1-6.1-2.7-6.1-6.1-6.1z"/><circle cx="118.4" cy="207.6" r="7.6"/><path d="M118.4 216.8c-5 0-9.1-4.1-9.1-9.1s4.1-9.1 9.1-9.1 9.1 4.1 9.1 9.1-4.1 9.1-9.1 9.1zm0-15.3c-3.4 0-6.1 2.7-6.1 6.1s2.7 6.1 6.1 6.1 6.1-2.7 6.1-6.1-2.7-6.1-6.1-6.1z"/><circle cx="89.4" cy="231.6" r="7.6"/><path d="M89.4 240.8c-5 0-9.1-4.1-9.1-9.1s4.1-9.1 9.1-9.1 9.1 4.1 9.1 9.1-4.1 9.1-9.1 9.1zm0-15.3c-3.4 0-6.1 2.7-6.1 6.1s2.7 6.1 6.1 6.1 6.1-2.7 6.1-6.1-2.7-6.1-6.1-6.1z"/><g><circle cx="118.4" cy="231.6" r="7.6"/><path d="M118.4 240.8c-5 0-9.1-4.1-9.1-9.1s4.1-9.1 9.1-9.1 9.1 4.1 9.1 9.1-4.1 9.1-9.1 9.1zm0-15.3c-3.4 0-6.1 2.7-6.1 6.1s2.7 6.1 6.1 6.1 6.1-2.7 6.1-6.1-2.7-6.1-6.1-6.1z"/></g><g><circle cx="89.4" cy="255.6" r="7.6"/><path d="M89.4 264.8c-5 0-9.1-4.1-9.1-9.1s4.1-9.1 9.1-9.1 9.1 4.1 9.1 9.1-4.1 9.1-9.1 9.1zm0-15.3c-3.4 0-6.1 2.7-6.1 6.1s2.7 6.1 6.1 6.1 6.1-2.7 6.1-6.1-2.7-6.1-6.1-6.1z"/></g><g><circle cx="118.4" cy="255.6" r="7.6"/><path d="M118.4 264.8c-5 0-9.1-4.1-9.1-9.1s4.1-9.1 9.1-9.1 9.1 4.1 9.1 9.1-4.1 9.1-9.1 9.1zm0-15.3c-3.4 0-6.1 2.7-6.1 6.1s2.7 6.1 6.1 6.1 6.1-2.7 6.1-6.1-2.7-6.1-6.1-6.1z"/></g></g><circle fill="#A94CA6" cx="89.4" cy="203.6" r="7.6"/><path fill="#564233" d="M89.4 212.8c-1.7 0-3.3-.5-4.7-1.3a9.3 9.3 0 0 1-4.1-5.6 8.8 8.8 0 0 1 1.1-6.9 9.3 9.3 0 0 1 5.6-4.1c2.4-.6 4.8-.2 6.9 1.1a9.3 9.3 0 0 1 4.1 5.6c.6 2.4.2 4.8-1.1 6.9a9.3 9.3 0 0 1-5.6 4.1l-2.2.2zm0-15.3l-1.4.2c-1.6.4-2.9 1.4-3.8 2.8s-1.1 3-.7 4.6 1.4 2.9 2.8 3.8c1.4.9 3 1.1 4.6.7 1.6-.4 2.9-1.4 3.8-2.8s1.1-3 .7-4.6a6.2 6.2 0 0 0-6-4.7z"/><circle fill="#62B355" cx="118.4" cy="203.6" r="7.6"/><path fill="#564233" d="M118.4 212.8c-5 0-9.1-4.1-9.1-9.1s4.1-9.1 9.1-9.1 9.1 4.1 9.1 9.1-4.1 9.1-9.1 9.1zm0-15.3c-3.4 0-6.1 2.7-6.1 6.1s2.7 6.1 6.1 6.1 6.1-2.7 6.1-6.1-2.7-6.1-6.1-6.1z"/><circle fill="#4FADED" cx="89.4" cy="227.6" r="7.6"/><path fill="#564233" d="M89.4 236.8c-5 0-9.1-4.1-9.1-9.1s4.1-9.1 9.1-9.1 9.1 4.1 9.1 9.1-4.1 9.1-9.1 9.1zm0-15.3c-3.4 0-6.1 2.7-6.1 6.1s2.7 6.1 6.1 6.1 6.1-2.7 6.1-6.1-2.7-6.1-6.1-6.1z"/><circle fill="#FFD835" cx="118.4" cy="227.6" r="7.6"/><path fill="#564233" d="M118.4 236.8c-5 0-9.1-4.1-9.1-9.1s4.1-9.1 9.1-9.1 9.1 4.1 9.1 9.1-4.1 9.1-9.1 9.1zm0-15.3c-3.4 0-6.1 2.7-6.1 6.1s2.7 6.1 6.1 6.1 6.1-2.7 6.1-6.1-2.7-6.1-6.1-6.1z"/><circle fill="#F4A140" cx="89.4" cy="251.6" r="7.6"/><path fill="#564233" d="M89.4 260.8c-5 0-9.1-4.1-9.1-9.1s4.1-9.1 9.1-9.1 9.1 4.1 9.1 9.1-4.1 9.1-9.1 9.1zm0-15.3c-3.4 0-6.1 2.7-6.1 6.1s2.7 6.1 6.1 6.1 6.1-2.7 6.1-6.1-2.7-6.1-6.1-6.1z"/><circle fill="#E04B4B" cx="118.4" cy="251.6" r="7.6"/><path fill="#564233" d="M118.4 260.8c-5 0-9.1-4.1-9.1-9.1s4.1-9.1 9.1-9.1 9.1 4.1 9.1 9.1-4.1 9.1-9.1 9.1zm0-15.3c-3.4 0-6.1 2.7-6.1 6.1s2.7 6.1 6.1 6.1 6.1-2.7 6.1-6.1-2.7-6.1-6.1-6.1z"/><g opacity=".3"><circle fill="#FFF" cx="87.4" cy="201.8" r="2"/></g><g opacity=".3"><circle fill="#FFF" cx="87.4" cy="225.8" r="2"/></g><g opacity=".3"><circle fill="#FFF" cx="87.4" cy="249.8" r="2"/></g><g opacity=".3"><circle fill="#FFF" cx="116.4" cy="201.8" r="2"/></g><g opacity=".3"><circle fill="#FFF" cx="116.4" cy="225.8" r="2"/></g><g opacity=".3"><circle fill="#FFF" cx="116.4" cy="249.8" r="2"/></g></g></g><g><path fill="#FFF" d="M115.6 106.1c-5.5 0-10.9-1.9-15.3-5.5a2.4 2.4 0 0 1-.3-3.5 2.4 2.4 0 0 1 3.5-.3 19 19 0 0 0 27-2.8 2.4 2.4 0 0 1 3.5-.4c1.1.9 1.3 2.4.4 3.5a24.2 24.2 0 0 1-16.3 9h-2.5zM174 106h-1.5a23.7 23.7 0 0 1-16.7-8.3c-.9-1-.8-2.6.2-3.5 1-.9 2.6-.8 3.5.2a19 19 0 0 0 27.1 1.7c1-.9 2.6-.8 3.5.2.9 1 .8 2.6-.2 3.5A23 23 0 0 1 174 106z" opacity=".6"/></g><g opacity=".2"><path fill="#2E3192" d="M145.3 159.4c-11.2 0-12.3-3.4-12.3-3.7v-9.1c0-.3.3-.6.6-.6h23.2c.3 0 .6.3.6.6v9c-.1.3-.8 3.8-12.1 3.8z"/><path fill="#2E3192" d="M156.7 146.5v9s-.3 3.3-11.4 3.3-11.8-3.3-11.8-3.3v-9h23.2m0-1.1h-23.2c-.6 0-1.1.5-1.1 1.1v9.2c.1.7 1.5 4.2 12.9 4.2 4.8 0 8.3-.6 10.4-1.8 1.9-1.1 2.1-2.3 2.1-2.5v-9.1c.1-.6-.4-1.1-1.1-1.1z"/></g><g opacity=".6"><path fill="#FFF" d="M133.8 50c-.8 0-1.5-.6-1.5-1.4-.2-4.6-.5-19.6 4.1-21.9.7-.4 1.6-.1 2 .7.4.7.1 1.6-.7 2-1.8.9-2.7 10.8-2.4 19.1 0 .8-.6 1.5-1.5 1.5z"/></g><g opacity=".3"><path fill="#FFF" d="M178 200h-9c-.3 0-.5-.2-.5-.5s.2-.5.5-.5h9c.3 0 .5.2.5.5s-.2.5-.5.5z"/></g><g opacity=".3"><path fill="#FFF" d="M200 200h-9c-.3 0-.5-.2-.5-.5s.2-.5.5-.5h9c.3 0 .5.2.5.5s-.2.5-.5.5z"/></g><g opacity=".6"><path fill="#FFF" d="M160.2 124.1c-.7 0-1.3 0-1.8-.5a18.6 18.6 0 0 0-13.6-5.6h-.1c-5.1 0-9.9 1.8-13.5 5.4-1 1-2.6.9-3.5-.1-1-1-1-2.4 0-3.4 4.6-4.6 10.6-7 17.1-7h.1c6.5 0 12.5 2.4 17.1 7.1 1 1 .9 2.5 0 3.4-.6.6-1.2.7-1.8.7z"/></g></svg>