<?xml version="1.0" encoding="utf-8"?>
<!-- Generator: Adobe Illustrator 19.1.0, SVG Export Plug-In . SVG Version: 6.00 Build 0)  -->
<!DOCTYPE svg PUBLIC "-//W3C//DTD SVG 1.1//EN" "http://www.w3.org/Graphics/SVG/1.1/DTD/svg11.dtd">
<svg version="1.1" id="Layer_1" xmlns="http://www.w3.org/2000/svg" xmlns:xlink="http://www.w3.org/1999/xlink" x="0px" y="0px"
	 viewBox="0 0 296 435" enable-background="new 0 0 296 435" xml:space="preserve">
<g opacity="0.16">
	<ellipse fill="#2E3192" cx="145.2" cy="404.6" rx="130.5" ry="11.5"/>
	<path fill="#2E3192" d="M145.2,417.2c-34.9,0-67.7-1.2-92.4-3.4c-39.2-3.5-39.2-7.6-39.2-9.2c0-1.6,0-5.7,39.2-9.2
		c24.7-2.2,57.5-3.4,92.4-3.4s67.7,1.2,92.4,3.4c39.2,3.5,39.2,7.6,39.2,9.2c0,1.6,0,5.7-39.2,9.2
		C212.9,416,180.1,417.2,145.2,417.2z M145.2,394.1c-34.8,0-67.6,1.2-92.2,3.4c-36.9,3.3-37.3,7.1-37.3,7.1s0.4,3.9,37.3,7.1
		c24.6,2.2,57.4,3.4,92.2,3.4s67.6-1.2,92.2-3.4c36.9-3.3,37.3-7.1,37.3-7.1s-0.4-3.9-37.3-7.1C212.8,395.3,180,394.1,145.2,394.1z"
		/>
</g>
<g>
	<g>
		<g>
			<path fill="#6C6B68" d="M232.9,337.1c1.9-0.7,3.9-0.9,5.8-0.8l7-15.3c6-14.2,9.3-29.6,9.3-46.1c0-28.9-10.2-55.3-27.1-75.3
				l18.6-6.5c14.2,22,25.5,53.7,25.5,81.8c0,21.3-4.8,41.3-13.4,59.2l-5.3,10.1c0,0.1-0.1,0.2-0.2,0.3c0.7,1.2,1.4,2.4,1.9,3.8
				c3.1,9.2-1.8,19.2-10.9,22.3c-1.5,0.5-2.9,0.7-4.4,0.8l5.7-11.7l-5.3-9l-10.3,1.2l-5.7,11.7c-0.8-1.2-1.6-2.6-2.1-4.1
				C218.9,350.1,223.8,340.1,232.9,337.1z"/>
			<path fill="#564233" d="M239.8,372.7c-0.5,0-1-0.2-1.2-0.7c-0.3-0.4-0.3-1-0.1-1.5l5.4-11l-4.4-7.5l-8.6,1l-5.4,11
				c-0.2,0.5-0.7,0.8-1.2,0.8c-0.5,0-1-0.2-1.3-0.7c-1.1-1.6-1.8-3-2.3-4.4c-3.4-10,2-20.8,11.9-24.2l0,0c1.7-0.6,3.4-0.9,5.4-0.9
				l6.6-14.5c6.1-14.4,9.2-29.7,9.2-45.5c0-27.5-9.5-53.9-26.7-74.3c-0.3-0.4-0.4-0.9-0.3-1.4c0.1-0.5,0.5-0.9,1-1l18.6-6.5
				c0.6-0.2,1.4,0,1.8,0.6c15.7,24.2,25.8,56.6,25.8,82.6c0,21-4.6,41.1-13.6,59.9l-5.1,9.7c0.7,1.1,1.2,2.2,1.5,3.3
				c3.4,10-2,20.8-11.9,24.2C243.3,372.3,241.8,372.6,239.8,372.7C239.9,372.7,239.8,372.7,239.8,372.7z M240.2,349
				c0.5,0,1,0.3,1.3,0.7l5.3,9c0.3,0.4,0.3,1,0.1,1.4l-4.5,9.2c0.5-0.1,0.9-0.2,1.3-0.4c8.3-2.8,12.8-12,10-20.4
				c-0.4-1.1-0.9-2.2-1.7-3.5c-0.3-0.5-0.3-1-0.1-1.5c0.1-0.1,0.1-0.2,0.2-0.3c0,0,0,0,0,0.1l5.4-10.1c8.8-18.3,13.2-38,13.2-58.5
				c0-25.1-9.7-56.3-24.7-80l-15.4,5.4c16.8,20.7,26,47.1,26,74.6c0,16.1-3.2,31.8-9.5,46.7l-7,15.5c-0.2,0.5-0.8,1-1.4,1
				c0,0,0,0,0,0c-2,0-3.7,0.1-5.3,0.6l0,0c-8.3,2.8-12.8,11.9-10,20.3c0.2,0.5,0.3,0.9,0.6,1.3l4.5-9.2c0.2-0.5,0.7-0.8,1.2-0.8
				L240,349C240.1,349,240.1,349,240.2,349z"/>
		</g>
		<g>
			<g>
				<g>
					<defs>
						<path id="SVGID_3_" d="M234,240.6L234,240.6c3.6,0,12.6-2.9,12.6-6.6l15.7-29c0-3.6-24.6-21.1-28.2-21.1h0
							c-3.6,0-6.6,2.9-6.6,6.6V234C227.5,237.7,230.4,240.6,234,240.6z"/>
					</defs>
					<defs>
						<path id="SVGID_4_" d="M234,242.1c-4.4,0-8.1-3.6-8.1-8.1v-43.5c0-4.4,3.6-8.1,8.1-8.1c3.2,0,14.2,7.9,16.4,9.5
							c8.9,6.5,13.4,10.9,13.4,13.1c0,0.2-0.1,0.5-0.2,0.7l-15.5,28.7C247.5,239.4,237.5,242.1,234,242.1z M234,185.4
							c-2.8,0-5,2.3-5,5.1V234c0,2.8,2.3,5.1,5.1,5.1c3.8,0,11.1-3,11.1-5.1c0-0.2,0.1-0.5,0.2-0.7l15.4-28.5
							C258.7,201.2,237.6,185.7,234,185.4z"/>
					</defs>
					<use xlink:href="#SVGID_3_"  overflow="visible" fill="#E2DFD9"/>
					<use xlink:href="#SVGID_4_"  overflow="visible" fill="#564233"/>
					<clipPath id="SVGID_5_">
						<use xlink:href="#SVGID_3_"  overflow="visible"/>
					</clipPath>
					<clipPath id="SVGID_6_" clip-path="url(#SVGID_5_)">
						<use xlink:href="#SVGID_4_"  overflow="visible"/>
					</clipPath>
					<g opacity="9.000000e-02" clip-path="url(#SVGID_6_)">
						<path fill="#2E3192" d="M247,227.4c0,0-5-0.1-10.1-3.3c-9.4-5.8-10.7-6.5-10.7-6.5l-0.9,27.4h21L247,227.4z"/>
						<path fill="#2E3192" d="M246.3,246h-21c-0.4,0-0.8-0.2-1.1-0.5c-0.3-0.3-0.4-0.7-0.4-1.1l0.9-27.2c0-0.6,0.3-1.1,0.8-1.3
							c0.5-0.2,1.1-0.2,1.5,0.1c0.1,0,1.5,1.1,10.6,6.7c4.7,2.9,9.3,2.9,9.3,2.9c0.4,0,0.8,0.2,1.1,0.5c0.3,0.3,0.4,0.7,0.4,1.1
							l-0.7,17.4C247.7,245.4,247.1,246,246.3,246z M226.8,243h18l0.6-14.5c-2-0.2-5.6-1-9.3-3.2c-4.3-2.6-6.9-4.3-8.5-5.3
							L226.8,243z"/>
					</g>
				</g>
			</g>
		</g>
	</g>
	<g>
		<g>
			<path fill="#6C6B68" d="M56.3,337.1c-1.9-0.7-3.9-0.9-5.8-0.8l-7-15.3c-6-14.2-9.3-29.6-9.3-46.1c0-28.9,10.2-55.3,27.1-75.3
				L42.6,193c-14.2,22-25.5,53.7-25.5,81.8c0,21.3,4.8,41.3,13.4,59.2l5.3,10.1c0,0.1,0.1,0.2,0.2,0.3c-0.7,1.2-1.4,2.4-1.9,3.8
				c-3.1,9.2,1.8,19.2,10.9,22.3c1.5,0.5,2.9,0.7,4.4,0.8l-5.7-11.7l5.3-9l10.3,1.2l5.7,11.7c0.8-1.2,1.6-2.6,2.1-4.1
				C70.3,350.1,65.5,340.1,56.3,337.1z"/>
		</g>
		<g>
			<path fill="#6C6B68" d="M56.3,337.1c-1.9-0.7-3.9-0.9-5.8-0.8l-7-15.3c-6-14.2-9.3-29.6-9.3-46.1c0-28.9,10.2-55.3,27.1-75.3
				L42.6,193c-14.2,22-25.5,53.7-25.5,81.8c0,21.3,4.8,41.3,13.4,59.2l5.3,10.1c0,0.1,0.1,0.2,0.2,0.3c-0.7,1.2-1.4,2.4-1.9,3.8
				c-3.1,9.2,1.8,19.2,10.9,22.3c1.5,0.5,2.9,0.7,4.4,0.8l-5.7-11.7l5.3-9l10.3,1.2l5.7,11.7c0.8-1.2,1.6-2.6,2.1-4.1
				C70.3,350.1,65.5,340.1,56.3,337.1z"/>
			<path fill="#564233" d="M49.5,372.7C49.4,372.7,49.4,372.7,49.5,372.7c-2-0.1-3.5-0.4-4.9-0.9c-9.9-3.3-15.2-14.2-11.9-24.2
				c0.4-1.1,0.9-2.2,1.5-3.3l-5.1-9.6c-9-18.8-13.6-38.9-13.6-59.9c0-26,10.1-58.4,25.8-82.6c0.4-0.6,1.1-0.8,1.8-0.6l18.6,6.5
				c0.5,0.2,0.8,0.5,1,1c0.1,0.5,0,1-0.3,1.4c-17.2,20.4-26.7,46.8-26.7,74.3c0,15.7,3.1,31,9.2,45.5l6.6,14.4
				c1.9,0,3.7,0.4,5.4,0.9l0,0c9.9,3.3,15.2,14.2,11.9,24.2c-0.5,1.5-1.2,2.9-2.3,4.4c-0.3,0.4-0.8,0.7-1.3,0.7
				c-0.5,0-1-0.4-1.2-0.8l-5.4-11l-8.6-1l-4.4,7.5l5.4,11c0.2,0.5,0.2,1.1-0.1,1.5C50.4,372.5,50,372.7,49.5,372.7z M37.2,343.4
				c0.1,0.1,0.1,0.2,0.2,0.3c0.3,0.5,0.2,1.1-0.1,1.5c-0.8,1.2-1.3,2.3-1.7,3.5c-2.8,8.4,1.6,17.6,10,20.4c0.4,0.1,0.9,0.3,1.4,0.4
				l-4.5-9.2c-0.2-0.5-0.2-1,0.1-1.4l5.3-9c0.3-0.5,0.9-0.8,1.5-0.7l10.3,1.2c0.5,0.1,1,0.4,1.2,0.8l4.5,9.2
				c0.2-0.5,0.4-0.9,0.6-1.4c2.8-8.4-1.6-17.6-10-20.4l0,0c-1.6-0.5-3.4-0.8-5.3-0.8c-0.6,0-1.1-0.3-1.4-0.9l-7-15.3
				c-6.3-14.9-9.5-30.6-9.5-46.7c0-27.5,9.2-53.8,26-74.6l-15.4-5.4c-15,23.6-24.7,54.9-24.7,80c0,20.5,4.5,40.2,13.3,58.6
				L37.2,343.4z"/>
		</g>
		<g>
			<g>
				<g>
					<defs>
						<path id="SVGID_7_" d="M55.2,240.6L55.2,240.6c-3.6,0-12.6-2.9-12.6-6.6L27,205c0-3.6,24.6-21.1,28.2-21.1h0
							c3.6,0,6.6,2.9,6.6,6.6V234C61.8,237.7,58.9,240.6,55.2,240.6z"/>
					</defs>
					<defs>
						<path id="SVGID_8_" d="M55.2,242.1c-3.4,0-13.5-2.7-14-7.6l-15.5-28.7c-0.1-0.2-0.2-0.5-0.2-0.7c0-2.2,4.5-6.6,13.4-13.1
							c2.2-1.6,13.1-9.5,16.4-9.5c4.4,0,8.1,3.6,8.1,8.1V234C63.3,238.5,59.7,242.1,55.2,242.1z M28.6,204.8L44,233.3
							c0.1,0.2,0.2,0.5,0.2,0.7c0,2,7.3,5.1,11.1,5.1c2.8,0,5.1-2.3,5.1-5.1v-43.5c0-2.8-2.3-5.1-5.1-5.1
							C51.7,185.7,30.5,201.2,28.6,204.8z"/>
					</defs>
					<use xlink:href="#SVGID_7_"  overflow="visible" fill="#E2DFD9"/>
					<use xlink:href="#SVGID_8_"  overflow="visible" fill="#564233"/>
					<clipPath id="SVGID_9_">
						<use xlink:href="#SVGID_7_"  overflow="visible"/>
					</clipPath>
					<clipPath id="SVGID_10_" clip-path="url(#SVGID_9_)">
						<use xlink:href="#SVGID_8_"  overflow="visible"/>
					</clipPath>
					<g opacity="9.000000e-02" clip-path="url(#SVGID_10_)">
						<path fill="#2E3192" d="M42.3,227.4c0,0,5-0.1,10.1-3.3c9.4-5.8,10.7-6.5,10.7-6.5L64,245H43L42.3,227.4z"/>
						<path fill="#2E3192" d="M64,246H43c-0.8,0-1.5-0.6-1.5-1.4l-0.7-17.4c0-0.4,0.1-0.8,0.4-1.1c0.3-0.3,0.7-0.5,1.1-0.5
							c0.1,0,4.7-0.1,9.3-2.9c9.1-5.6,10.5-6.6,10.6-6.7c0.4-0.3,1-0.4,1.5-0.1s0.8,0.7,0.8,1.3l0.9,27.2c0,0.4-0.1,0.8-0.4,1.1
							C64.8,245.8,64.4,246,64,246z M44.4,243h18l-0.8-23c-1.6,1-4.2,2.7-8.5,5.3c-3.7,2.3-7.3,3-9.3,3.2L44.4,243z"/>
					</g>
				</g>
			</g>
		</g>
	</g>
</g>
<g>
	<ellipse fill="#2E3192" cx="272.8" cy="392.1" rx="0.7" ry="0.3"/>
</g>
<g>
	<rect x="110.9" y="359.8" fill="#333333" width="64.7" height="5.7"/>
</g>
<g>
	<g>
		<path fill="#6C6B68" d="M104,373c-0.7,0-1.3-0.5-1.5-1.1l-15.4-63c-0.1-0.4,0-0.9,0.3-1.3c0.3-0.4,0.7-0.6,1.2-0.6h15.7
			c0.7,0,1.3,0.5,1.5,1.2l13.2,63c0.1,0.4,0,0.9-0.3,1.3s-0.7,0.6-1.2,0.6H104z"/>
	</g>
	<g>
		<path fill="#564233" d="M104.2,308.5l13.2,63H104l-15.4-63H104.2 M104.2,305.5H88.6c-0.9,0-1.8,0.4-2.4,1.1
			c-0.6,0.7-0.8,1.7-0.6,2.6l15.4,63c0.3,1.3,1.5,2.3,2.9,2.3h13.4c0.9,0,1.8-0.4,2.3-1.1c0.6-0.7,0.8-1.6,0.6-2.5l-13.2-63
			C106.9,306.5,105.7,305.5,104.2,305.5L104.2,305.5z"/>
	</g>
</g>
<g>
	<g>
		<path fill="#6C6B68" d="M173.2,373c-0.5,0-0.9-0.2-1.2-0.6s-0.4-0.8-0.3-1.3l13.2-63c0.1-0.7,0.8-1.2,1.5-1.2h15.7
			c0.5,0,0.9,0.2,1.2,0.6c0.3,0.4,0.4,0.8,0.3,1.3l-15.4,63c-0.2,0.7-0.8,1.1-1.5,1.1H173.2z"/>
	</g>
	<g>
		<path fill="#564233" d="M202.1,308.5l-15.4,63h-13.4l13.2-63H202.1 M202.1,305.5h-15.7c-1.4,0-2.6,1-2.9,2.4l-13.2,63
			c-0.2,0.9,0,1.8,0.6,2.5c0.6,0.7,1.4,1.1,2.3,1.1h13.4c1.4,0,2.6-0.9,2.9-2.3l15.4-63c0.2-0.9,0-1.8-0.6-2.6
			C203.9,305.9,203,305.5,202.1,305.5L202.1,305.5z"/>
	</g>
</g>
<g>
	<path fill="#333333" d="M162.5,409.3h-34.4c-3.7,0-6.8-3-6.8-6.8V324c0-4.3,3.5-7.9,7.9-7.9h32.2c4.3,0,7.9,3.5,7.9,7.9v78.6
		C169.3,406.3,166.2,409.3,162.5,409.3z"/>
</g>
<g>
	<g>
		<path fill="#6C6B68" d="M146.2,206c-7.8,0-14.2-6.4-14.2-14.2v-50.4c0-0.8,0.7-1.5,1.5-1.5h23.2c0.8,0,1.5,0.7,1.5,1.5V194
			C158.2,200.6,152.8,206,146.2,206z"/>
	</g>
	<g>
		<path fill="#564233" d="M156.7,141.5V194c0,5.8-4.7,10.5-10.5,10.5c-7,0-12.7-5.7-12.7-12.7v-50.4H156.7 M156.7,138.5h-23.2
			c-1.6,0-3,1.3-3,3v50.4c0,8.6,7,15.6,15.6,15.6c7.4,0,13.5-6,13.5-13.5v-52.5C159.7,139.8,158.4,138.5,156.7,138.5L156.7,138.5z"
			/>
	</g>
</g>
<g id="XMLID_2_">
	<g>
		<path fill="#E2DFD9" d="M72.4,146.5c-0.6,0-1.1-0.3-1.3-0.8L35.7,75c-0.2-0.5-0.2-1,0.1-1.4c0.3-0.4,0.7-0.7,1.3-0.7h216
			c0.5,0,1,0.3,1.3,0.7c0.3,0.4,0.3,1,0.1,1.4l-35.4,70.7c-0.3,0.5-0.8,0.8-1.3,0.8H72.4z"/>
	</g>
	<g>
		<path fill="#564233" d="M253,74.3L217.6,145H72.4L37,74.3H253 M253,71.4H37c-1,0-2,0.5-2.5,1.4c-0.5,0.9-0.6,2-0.1,2.9l35.4,70.7
			c0.5,1,1.5,1.6,2.6,1.6h145.2c1.1,0,2.1-0.6,2.6-1.6l35.4-70.7c0.5-0.9,0.4-2-0.1-2.9C255,71.9,254.1,71.4,253,71.4L253,71.4z"/>
	</g>
</g>
<g opacity="0.16">
	<polyline fill="#2E3192" points="65.7,92.1 41.5,83 61,83 66.8,92.4 	"/>
	<path fill="#2E3192" d="M65.2,93.3L41,83.9c-0.7-0.3-1.1-1-0.9-1.7c0.1-0.7,0.8-1.2,1.5-1.2H61c0.5,0,1,0.3,1.3,0.7l5.8,9.5
		l-2.6,1.6l-0.1-0.1L65.2,93.3z M49.6,84l13.8,5.3L60.2,84H49.6z"/>
</g>
<g opacity="0.16">
	<polygon fill="#2E3192" points="224.6,92.5 230.3,83 250,83 	"/>
	<path fill="#2E3192" d="M224.6,93.5c-0.4,0-0.9-0.2-1.1-0.5c-0.4-0.5-0.5-1.2-0.1-1.7l5.6-9.5c0.3-0.5,0.8-0.7,1.3-0.7H250
		c0.7,0,1.3,0.5,1.5,1.2c0.1,0.7-0.3,1.4-0.9,1.7l-25.4,9.5C225,93.5,224.8,93.5,224.6,93.5z M231.1,84l-3,5.1l13.6-5.1H231.1z"/>
</g>
<g>
	<polygon fill="#E2DFD9" points="188,31 102.1,31 37,74.2 253,74.2 	"/>
	<path fill="#564233" d="M253,75.7H37c-0.7,0-1.2-0.4-1.4-1.1c-0.2-0.6,0.1-1.3,0.6-1.7l65.1-43.2c0.2-0.2,0.5-0.3,0.8-0.3H188
		c0.3,0,0.6,0.1,0.8,0.3L253.9,73c0.6,0.4,0.8,1,0.6,1.7C254.3,75.3,253.7,75.7,253,75.7z M42,72.7h206.1l-60.5-40.2h-85L42,72.7z"
		/>
</g>
<g opacity="9.000000e-02">
	<polygon fill="#2E3192" points="217.9,145.8 72.7,145.8 37.3,73.3 253.3,73.3 	"/>
	<path fill="#2E3192" d="M217.9,147.3H72.7c-0.6,0-1.1-0.3-1.3-0.8L36,74c-0.2-0.5-0.2-1,0.1-1.5c0.3-0.4,0.8-0.7,1.3-0.7h216
		c0.5,0,1,0.3,1.3,0.7c0.3,0.4,0.3,1,0.1,1.5l-35.4,72.5C219,147,218.5,147.3,217.9,147.3z M73.7,144.3H217l34-69.5H39.7L73.7,144.3
		z"/>
</g>
<g>
	<polygon fill="#E2DFD9" points="123,80 73.3,145 216.5,145 167.6,80 	"/>
</g>
<g>
	<polygon fill="#E2DFD9" points="251.2,81 254.7,74 35.5,74 39,81 	"/>
	<path fill="#564233" d="M251.2,82H39c-0.6,0-1.1-0.3-1.3-0.8l-3.5-7c-0.2-0.5-0.2-1,0.1-1.5c0.3-0.4,0.8-0.7,1.3-0.7h219.3
		c0.5,0,1,0.3,1.3,0.7c0.3,0.4,0.3,1,0.1,1.5l-3.5,7C252.3,81.7,251.8,82,251.2,82z M39.9,79h210.4l2-4H37.9L39.9,79z"/>
</g>
<g>
	<defs>
		<polygon id="SVGID_15_" points="206,130.6 84.7,131 61.2,80.7 228.9,80.7 		"/>
	</defs>
	<defs>
		<path id="SVGID_16_" d="M84.7,132.5c-0.6,0-1.1-0.3-1.4-0.9L59.8,81.4c-0.2-0.5-0.2-1,0.1-1.5c0.3-0.4,0.8-0.7,1.3-0.7h167.7
			c0.5,0,1,0.3,1.3,0.7c0.3,0.4,0.3,1,0.1,1.5l-22.9,49.9c-0.2,0.5-0.8,0.9-1.4,0.9L84.7,132.5C84.7,132.5,84.7,132.5,84.7,132.5z
			 M63.6,82.3l22.1,47.2l119.3-0.3l21.5-46.8H63.6z"/>
	</defs>
	<use xlink:href="#SVGID_15_"  overflow="visible" fill="#E65376"/>
	<use xlink:href="#SVGID_16_"  overflow="visible" fill="#564233"/>
	<clipPath id="SVGID_12_">
		<use xlink:href="#SVGID_15_"  overflow="visible"/>
	</clipPath>
	<clipPath id="SVGID_14_" clip-path="url(#SVGID_12_)">
		<use xlink:href="#SVGID_16_"  overflow="visible"/>
	</clipPath>
	<g opacity="0.16" clip-path="url(#SVGID_14_)">
		
			<rect x="28.7" y="66.2" transform="matrix(1 -2.910338e-03 2.910338e-03 1 -0.2219 0.4491)" fill="#2E3192" width="251" height="20.6"/>
		<path fill="#2E3192" d="M28.7,88.4c-0.3,0-0.7-0.1-0.9-0.4c-0.2-0.2-0.4-0.6-0.4-0.9l-0.1-20.6c0-0.7,0.6-1.3,1.3-1.3l251-0.7
			c0.3,0,0.7,0.1,0.9,0.4c0.2,0.2,0.4,0.6,0.4,0.9l0.1,20.6c0,0.7-0.6,1.3-1.3,1.3L28.7,88.4C28.7,88.4,28.7,88.4,28.7,88.4z
			 M30,67.8l0.1,18l248.4-0.7l-0.1-18L30,67.8z"/>
	</g>
</g>
<g>
	<path fill="#F4A140" d="M126.5,37.5c0-10.6,7.5-21.2,18.1-21.2c10.6,0,18.4,10.6,18.4,21.2v16.8v2.4c-6,2.2-12,2.9-18.4,2.9
		c-7.1,0-12.4-0.8-18.5-3.1L126.5,37.5z"/>
	<path fill="#564233" d="M144.8,61.2c-7.5,0-13-0.9-19.2-3.2c-0.6-0.2-1-0.8-1-1.4l0.3-19c0-11,8-22.7,19.8-22.7
		c11.9,0,20.2,12,20.2,22.7v19.3c0,0.6-0.4,1.2-1,1.4C157.7,60.3,152,61.2,144.8,61.2z M127.7,55.5c5.4,1.9,10.5,2.7,17.2,2.7
		c6.5,0,11.6-0.7,17.2-2.5V37.5c0-9.3-7.1-19.7-17.2-19.7c-8.1,0-16.8,7.9-16.8,19.7c0,0,0,0,0,0L127.7,55.5z"/>
</g>
<g>
	<g>
		<path fill="#E2DFD9" d="M92.5,312.5c-13.7,0-25.7-9.6-27.3-21.8l-12.4-92.3c-1.1-8.4,1.2-16.6,6.4-22.6c5-5.7,12.1-8.9,20-8.9
			h132.2c7.9,0,15,3.1,20,8.9c5.2,6,7.6,14.2,6.4,22.6l-12.4,92.3c-1.6,12.2-13.6,21.8-27.3,21.8H92.5z"/>
	</g>
	<g>
		<path fill="#564233" d="M211.4,168.4c16,0,27.1,13.6,24.9,29.8l-12.4,92.3c-1.5,11.5-13.1,20.5-25.8,20.5H92.5
			c-12.7,0-24.3-9-25.8-20.5l-12.4-92.3c-2.2-16.1,8.9-29.8,24.9-29.8H211.4 M211.4,165.4H79.1c-8.3,0-15.8,3.3-21.1,9.4
			c-5.5,6.3-8,15-6.8,23.8l12.4,92.3c1.7,13,14.4,23.1,28.8,23.1h105.6c14.4,0,27.1-10.2,28.8-23.1l12.4-92.3
			c1.2-8.8-1.3-17.5-6.8-23.8C227.2,168.7,219.7,165.4,211.4,165.4L211.4,165.4z"/>
	</g>
</g>
<g>
	<g>
		<g>
			<g opacity="0.16">
				<defs>
					<path id="SVGID_19_" opacity="0.16" d="M201.8,260.2h-27.9c-3.4,0-6.2-2.8-6.2-6.2v-9.9c0-3.4,2.8-6.2,6.2-6.2h27.9
						c3.4,0,6.2,2.8,6.2,6.2v9.9C208,257.4,205.2,260.2,201.8,260.2z"/>
				</defs>
				<defs>
					<path id="SVGID_20_" opacity="0.16" d="M201.8,262.5h-27.9c-4.7,0-8.5-3.8-8.5-8.5v-9.9c0-4.7,3.8-8.5,8.5-8.5h27.9
						c4.7,0,8.5,3.8,8.5,8.5v9.9C210.4,258.7,206.5,262.5,201.8,262.5z M173.9,240.3c-2.1,0-3.8,1.7-3.8,3.8v9.9
						c0,2.1,1.7,3.8,3.8,3.8h27.9c2.1,0,3.8-1.7,3.8-3.8v-9.9c0-2.1-1.7-3.8-3.8-3.8H173.9z"/>
				</defs>
				<use xlink:href="#SVGID_19_"  overflow="visible" fill="#2E3192"/>
				<use xlink:href="#SVGID_20_"  overflow="visible" fill="#2E3192"/>
				<clipPath id="SVGID_17_">
					<use xlink:href="#SVGID_19_"  overflow="visible"/>
				</clipPath>
				<clipPath id="SVGID_18_" clip-path="url(#SVGID_17_)">
					<use xlink:href="#SVGID_20_"  overflow="visible"/>
				</clipPath>
			</g>
			<g>
				<path fill="#E2DFD9" d="M202.2,259.6h-28c-4.5,0-8.1-3.6-8.1-8.1v-28c0-4.5,3.6-8.1,8.1-8.1h28c4.5,0,8.1,3.6,8.1,8.1v28
					C210.3,255.9,206.7,259.6,202.2,259.6z"/>
				<path fill="#564233" d="M202.2,260.6h-28c-5,0-9.1-4.1-9.1-9.1v-28c0-5,4.1-9.1,9.1-9.1h28c5,0,9.1,4.1,9.1,9.1v28
					C211.3,256.5,207.2,260.6,202.2,260.6z M174.1,216.3c-3.9,0-7.1,3.2-7.1,7.1v28c0,3.9,3.2,7.1,7.1,7.1h28c3.9,0,7.1-3.2,7.1-7.1
					v-28c0-3.9-3.2-7.1-7.1-7.1H174.1z"/>
			</g>
			<g>
				<circle fill="#6C6B68" cx="188.3" cy="237.3" r="15.3"/>
				<path fill="#564233" d="M188.3,253.7c-9,0-16.4-7.3-16.4-16.4c0-9,7.3-16.4,16.4-16.4c9,0,16.4,7.3,16.4,16.4
					C204.6,246.4,197.3,253.7,188.3,253.7z M188.3,223.2c-7.8,0-14.2,6.4-14.2,14.2c0,7.8,6.4,14.2,14.2,14.2
					c7.8,0,14.2-6.4,14.2-14.2C202.5,229.5,196.1,223.2,188.3,223.2z"/>
			</g>
			<g>
				<g>
					<path fill="#564233" d="M177.6,242.3c-0.3,0-0.5-0.1-0.7-0.3c-0.4-0.4-0.4-1,0-1.4l14.1-14.1c0.4-0.4,1-0.4,1.4,0s0.4,1,0,1.4
						l-14.1,14.1C178.1,242.3,177.9,242.3,177.6,242.3z"/>
				</g>
				<g>
					<path fill="#564233" d="M181,245.7c-0.3,0-0.5-0.1-0.7-0.3c-0.4-0.4-0.4-1,0-1.4l14.1-14.1c0.4-0.4,1-0.4,1.4,0s0.4,1,0,1.4
						l-14.1,14.1C181.5,245.6,181.2,245.7,181,245.7z"/>
				</g>
				<g>
					<path fill="#564233" d="M184.3,249c-0.3,0-0.5-0.1-0.7-0.3c-0.4-0.4-0.4-1,0-1.4l14.1-14.1c0.4-0.4,1-0.4,1.4,0s0.4,1,0,1.4
						L185,248.7C184.8,248.9,184.5,249,184.3,249z"/>
				</g>
			</g>
		</g>
		<g>
			<g opacity="0.16">
				<defs>
					<path id="SVGID_23_" opacity="0.16" d="M207.5,207h-38.4c-2.2,0-3.9-1.8-3.9-3.9v0c0-2.2,1.8-3.9,3.9-3.9h38.4
						c2.2,0,3.9,1.8,3.9,3.9v0C211.4,205.2,209.7,207,207.5,207z"/>
				</defs>
				<defs>
					<path id="SVGID_24_" opacity="0.16" d="M207.5,208.5h-38.4c-3,0-5.4-2.4-5.4-5.4s2.4-5.4,5.4-5.4h38.4c3,0,5.4,2.4,5.4,5.4
						S210.5,208.5,207.5,208.5z M169.1,200.6c-1.3,0-2.4,1.1-2.4,2.4s1.1,2.4,2.4,2.4h38.4c1.3,0,2.4-1.1,2.4-2.4s-1.1-2.4-2.4-2.4
						H169.1z"/>
				</defs>
				<use xlink:href="#SVGID_23_"  overflow="visible" fill="#2E3192"/>
				<use xlink:href="#SVGID_24_"  overflow="visible" fill="#2E3192"/>
				<clipPath id="SVGID_21_">
					<use xlink:href="#SVGID_23_"  overflow="visible"/>
				</clipPath>
				<clipPath id="SVGID_22_" clip-path="url(#SVGID_21_)">
					<use xlink:href="#SVGID_24_"  overflow="visible"/>
				</clipPath>
				<g opacity="0.16" clip-path="url(#SVGID_22_)">
					<rect x="156.9" y="204.1" fill="#2E3192" width="64.3" height="17"/>
					<path fill="#2E3192" d="M221.1,222.7h-64.3c-0.8,0-1.5-0.7-1.5-1.5v-17c0-0.8,0.7-1.5,1.5-1.5h64.3c0.8,0,1.5,0.7,1.5,1.5v17
						C222.6,222,222,222.7,221.1,222.7z M158.4,219.7h61.3v-14h-61.3V219.7z"/>
				</g>
			</g>
			<g>
				<defs>
					<path id="SVGID_27_" d="M207.4,204.1h-38.4c-2.2,0-3.9-1.8-3.9-3.9v0c0-2.2,1.8-3.9,3.9-3.9h38.4c2.2,0,3.9,1.8,3.9,3.9v0
						C211.3,202.4,209.5,204.1,207.4,204.1z"/>
				</defs>
				<defs>
					<path id="SVGID_28_" d="M207.4,205.1h-38.4c-2.7,0-4.9-2.2-4.9-4.9s2.2-4.9,4.9-4.9h38.4c2.7,0,4.9,2.2,4.9,4.9
						S210.1,205.1,207.4,205.1z M168.9,197.3c-1.6,0-2.9,1.3-2.9,2.9s1.3,2.9,2.9,2.9h38.4c1.6,0,2.9-1.3,2.9-2.9s-1.3-2.9-2.9-2.9
						H168.9z"/>
				</defs>
				<use xlink:href="#SVGID_27_"  overflow="visible" fill="#62B355"/>
				<use xlink:href="#SVGID_28_"  overflow="visible" fill="#564233"/>
				<clipPath id="SVGID_25_">
					<use xlink:href="#SVGID_27_"  overflow="visible"/>
				</clipPath>
				<clipPath id="SVGID_26_" clip-path="url(#SVGID_25_)">
					<use xlink:href="#SVGID_28_"  overflow="visible"/>
				</clipPath>
				<g opacity="0.16" clip-path="url(#SVGID_26_)">
					<rect x="156.7" y="201.3" fill="#2E3192" width="64.3" height="17"/>
					<path fill="#2E3192" d="M221,219.8h-64.3c-0.8,0-1.5-0.7-1.5-1.5v-17c0-0.8,0.7-1.5,1.5-1.5H221c0.8,0,1.5,0.7,1.5,1.5v17
						C222.5,219.1,221.8,219.8,221,219.8z M158.2,216.8h61.3v-14h-61.3V216.8z"/>
				</g>
			</g>
			<g>
				<rect x="187" y="197" fill="#564233" width="2" height="8"/>
			</g>
		</g>
	</g>
	<g>
		<g opacity="9.000000e-02">
			<g>
				<circle fill="#2E3192" cx="89.4" cy="207.6" r="7.6"/>
				<path fill="#2E3192" d="M89.4,216.8c-5,0-9.1-4.1-9.1-9.1s4.1-9.1,9.1-9.1s9.1,4.1,9.1,9.1S94.4,216.8,89.4,216.8z M89.4,201.5
					c-3.4,0-6.1,2.7-6.1,6.1s2.7,6.1,6.1,6.1s6.1-2.7,6.1-6.1S92.8,201.5,89.4,201.5z"/>
			</g>
			<g>
				<circle fill="#2E3192" cx="118.4" cy="207.6" r="7.6"/>
				<path fill="#2E3192" d="M118.4,216.8c-5,0-9.1-4.1-9.1-9.1s4.1-9.1,9.1-9.1s9.1,4.1,9.1,9.1S123.4,216.8,118.4,216.8z
					 M118.4,201.5c-3.4,0-6.1,2.7-6.1,6.1s2.7,6.1,6.1,6.1s6.1-2.7,6.1-6.1S121.8,201.5,118.4,201.5z"/>
			</g>
			<g>
				<circle fill="#2E3192" cx="89.4" cy="231.6" r="7.6"/>
				<path fill="#2E3192" d="M89.4,240.8c-5,0-9.1-4.1-9.1-9.1s4.1-9.1,9.1-9.1s9.1,4.1,9.1,9.1S94.4,240.8,89.4,240.8z M89.4,225.5
					c-3.4,0-6.1,2.7-6.1,6.1s2.7,6.1,6.1,6.1s6.1-2.7,6.1-6.1S92.8,225.5,89.4,225.5z"/>
			</g>
			<g>
				<circle fill="#2E3192" cx="118.4" cy="231.6" r="7.6"/>
				<path fill="#2E3192" d="M118.4,240.8c-5,0-9.1-4.1-9.1-9.1s4.1-9.1,9.1-9.1s9.1,4.1,9.1,9.1S123.4,240.8,118.4,240.8z
					 M118.4,225.5c-3.4,0-6.1,2.7-6.1,6.1s2.7,6.1,6.1,6.1s6.1-2.7,6.1-6.1S121.8,225.5,118.4,225.5z"/>
			</g>
			<g>
				<circle fill="#2E3192" cx="89.4" cy="255.6" r="7.6"/>
				<path fill="#2E3192" d="M89.4,264.8c-5,0-9.1-4.1-9.1-9.1s4.1-9.1,9.1-9.1s9.1,4.1,9.1,9.1S94.4,264.8,89.4,264.8z M89.4,249.5
					c-3.4,0-6.1,2.7-6.1,6.1s2.7,6.1,6.1,6.1s6.1-2.7,6.1-6.1S92.8,249.5,89.4,249.5z"/>
			</g>
			<g>
				<circle fill="#2E3192" cx="118.4" cy="255.6" r="7.6"/>
				<path fill="#2E3192" d="M118.4,264.8c-5,0-9.1-4.1-9.1-9.1s4.1-9.1,9.1-9.1s9.1,4.1,9.1,9.1S123.4,264.8,118.4,264.8z
					 M118.4,249.5c-3.4,0-6.1,2.7-6.1,6.1s2.7,6.1,6.1,6.1s6.1-2.7,6.1-6.1S121.8,249.5,118.4,249.5z"/>
			</g>
		</g>
		<g>
			<g>
				<circle fill="#A94CA6" cx="89.4" cy="203.6" r="7.6"/>
				<path fill="#564233" d="M89.4,212.8c-1.7,0-3.3-0.5-4.7-1.3c-2.1-1.3-3.5-3.3-4.1-5.6c-0.6-2.4-0.2-4.8,1.1-6.9
					c1.3-2.1,3.3-3.5,5.6-4.1c2.4-0.6,4.8-0.2,6.9,1.1c2.1,1.3,3.5,3.3,4.1,5.6c0.6,2.4,0.2,4.8-1.1,6.9c-1.3,2.1-3.3,3.5-5.6,4.1
					C90.8,212.7,90.1,212.8,89.4,212.8z M89.4,197.5c-0.5,0-1,0.1-1.4,0.2c-1.6,0.4-2.9,1.4-3.8,2.8s-1.1,3-0.7,4.6s1.4,2.9,2.8,3.8
					c1.4,0.9,3,1.1,4.6,0.7c1.6-0.4,2.9-1.4,3.8-2.8s1.1-3,0.7-4.6l0,0c-0.4-1.6-1.4-2.9-2.8-3.8C91.6,197.8,90.5,197.5,89.4,197.5z
					"/>
			</g>
			<g>
				<circle fill="#62B355" cx="118.4" cy="203.6" r="7.6"/>
				<path fill="#564233" d="M118.4,212.8c-5,0-9.1-4.1-9.1-9.1s4.1-9.1,9.1-9.1s9.1,4.1,9.1,9.1S123.4,212.8,118.4,212.8z
					 M118.4,197.5c-3.4,0-6.1,2.7-6.1,6.1s2.7,6.1,6.1,6.1s6.1-2.7,6.1-6.1S121.8,197.5,118.4,197.5z"/>
			</g>
			<g>
				<circle fill="#4FADED" cx="89.4" cy="227.6" r="7.6"/>
				<path fill="#564233" d="M89.4,236.8c-5,0-9.1-4.1-9.1-9.1s4.1-9.1,9.1-9.1s9.1,4.1,9.1,9.1S94.4,236.8,89.4,236.8z M89.4,221.5
					c-3.4,0-6.1,2.7-6.1,6.1s2.7,6.1,6.1,6.1s6.1-2.7,6.1-6.1S92.8,221.5,89.4,221.5z"/>
			</g>
			<g>
				<circle fill="#FFD835" cx="118.4" cy="227.6" r="7.6"/>
				<path fill="#564233" d="M118.4,236.8c-5,0-9.1-4.1-9.1-9.1s4.1-9.1,9.1-9.1s9.1,4.1,9.1,9.1S123.4,236.8,118.4,236.8z
					 M118.4,221.5c-3.4,0-6.1,2.7-6.1,6.1s2.7,6.1,6.1,6.1s6.1-2.7,6.1-6.1S121.8,221.5,118.4,221.5z"/>
			</g>
			<g>
				<circle fill="#F4A140" cx="89.4" cy="251.6" r="7.6"/>
				<path fill="#564233" d="M89.4,260.8c-5,0-9.1-4.1-9.1-9.1s4.1-9.1,9.1-9.1s9.1,4.1,9.1,9.1S94.4,260.8,89.4,260.8z M89.4,245.5
					c-3.4,0-6.1,2.7-6.1,6.1s2.7,6.1,6.1,6.1s6.1-2.7,6.1-6.1S92.8,245.5,89.4,245.5z"/>
			</g>
			<g>
				<circle fill="#E04B4B" cx="118.4" cy="251.6" r="7.6"/>
				<path fill="#564233" d="M118.4,260.8c-5,0-9.1-4.1-9.1-9.1s4.1-9.1,9.1-9.1s9.1,4.1,9.1,9.1S123.4,260.8,118.4,260.8z
					 M118.4,245.5c-3.4,0-6.1,2.7-6.1,6.1s2.7,6.1,6.1,6.1s6.1-2.7,6.1-6.1S121.8,245.5,118.4,245.5z"/>
			</g>
			<g opacity="0.29">
				<circle fill="#FFFFFF" cx="87.4" cy="201.8" r="2"/>
			</g>
			<g opacity="0.29">
				<circle fill="#FFFFFF" cx="87.4" cy="225.8" r="2"/>
			</g>
			<g opacity="0.29">
				<circle fill="#FFFFFF" cx="87.4" cy="249.8" r="2"/>
			</g>
			<g opacity="0.29">
				<circle fill="#FFFFFF" cx="116.4" cy="201.8" r="2"/>
			</g>
			<g opacity="0.29">
				<circle fill="#FFFFFF" cx="116.4" cy="225.8" r="2"/>
			</g>
			<g opacity="0.29">
				<circle fill="#FFFFFF" cx="116.4" cy="249.8" r="2"/>
			</g>
		</g>
	</g>
</g>
<g>
	<g opacity="0.64">
		<path fill="#FFFFFF" d="M115.6,106.1c-5.5,0-10.9-1.9-15.3-5.5c-1.1-0.9-1.2-2.5-0.3-3.5c0.9-1.1,2.5-1.2,3.5-0.3
			c4,3.3,9,4.8,14.1,4.3c5.1-0.5,9.7-3.1,12.9-7.1c0.9-1.1,2.4-1.3,3.5-0.4c1.1,0.9,1.3,2.4,0.4,3.5c-4.1,5.1-9.9,8.3-16.3,9
			C117.3,106.1,116.4,106.1,115.6,106.1z"/>
	</g>
	<g opacity="0.64">
		<path fill="#FFFFFF" d="M174,106c-0.5,0-1,0-1.5,0c-6.5-0.4-12.4-3.3-16.7-8.3c-0.9-1-0.8-2.6,0.2-3.5c1-0.9,2.6-0.8,3.5,0.2
			c3.4,3.9,8.1,6.2,13.2,6.6c5.1,0.3,10-1.4,13.9-4.9c1-0.9,2.6-0.8,3.5,0.2c0.9,1,0.8,2.6-0.2,3.5C185.5,103.9,179.9,106,174,106z"
			/>
	</g>
</g>
<g opacity="0.16">
	<g>
		<path fill="#2E3192" d="M145.3,159.4c-11.2,0-12.3-3.4-12.3-3.7c0,0,0-0.1,0-0.1v-9c0-0.3,0.3-0.6,0.6-0.6h23.2
			c0.3,0,0.6,0.3,0.6,0.6v9C157.3,155.9,156.6,159.4,145.3,159.4z"/>
	</g>
	<g>
		<g>
			<path fill="#2E3192" d="M156.7,146.5v9c0,0-0.3,3.3-11.4,3.3s-11.8-3.3-11.8-3.3v-9H156.7 M156.7,145.4h-23.2
				c-0.6,0-1.1,0.5-1.1,1.1v9c0,0.1,0,0.2,0,0.2c0.1,0.7,1.5,4.2,12.9,4.2c4.8,0,8.3-0.6,10.4-1.8c1.9-1.1,2.1-2.3,2.1-2.5
				c0,0,0-0.1,0-0.1v-9C157.9,145.9,157.4,145.4,156.7,145.4L156.7,145.4z"/>
		</g>
	</g>
</g>
<g opacity="0.64">
	<path fill="#FFFFFF" d="M133.8,50c-0.8,0-1.5-0.6-1.5-1.4c-0.2-4.6-0.5-19.6,4.1-21.9c0.7-0.4,1.6-0.1,2,0.7c0.4,0.7,0.1,1.6-0.7,2
		c-1.8,0.9-2.7,10.8-2.4,19.1C135.3,49.3,134.7,50,133.8,50C133.8,50,133.8,50,133.8,50z"/>
</g>
<g opacity="0.29">
	<path fill="#FFFFFF" d="M178,200h-9c-0.3,0-0.5-0.2-0.5-0.5s0.2-0.5,0.5-0.5h9c0.3,0,0.5,0.2,0.5,0.5S178.3,200,178,200z"/>
</g>
<g opacity="0.29">
	<path fill="#FFFFFF" d="M200,200h-9c-0.3,0-0.5-0.2-0.5-0.5s0.2-0.5,0.5-0.5h9c0.3,0,0.5,0.2,0.5,0.5S200.3,200,200,200z"/>
</g>
<g opacity="0.64">
	<path fill="#FFFFFF" d="M160.2,124.1c-0.7,0-1.3,0-1.8-0.5c-3.6-3.7-8.4-5.6-13.6-5.6c0,0-0.1,0-0.1,0c-5.1,0-9.9,1.8-13.5,5.4
		c-1,1-2.6,0.9-3.5-0.1c-1-1-1-2.4,0-3.4c4.6-4.6,10.6-7,17.1-7c0,0,0.1,0,0.1,0c6.5,0,12.5,2.4,17.1,7.1c1,1,0.9,2.5,0,3.4
		C161.4,124,160.8,124.1,160.2,124.1z"/>
</g>
</svg>
