<svg xmlns="http://www.w3.org/2000/svg" width="686" height="469" viewBox="0 0 686 469"><g fill="#333"><path d="M7 4a3 3 0 0 0-3 3v455a3 3 0 0 0 3 3h672a3 3 0 0 0 3-3V7a3 3 0 0 0-3-3H7zm0-4h672a7 7 0 0 1 7 7v455a7 7 0 0 1-7 7H7a7 7 0 0 1-7-7V7a7 7 0 0 1 7-7z"/><path d="M7 4a3 3 0 0 0-3 3v455a3 3 0 0 0 3 3h672a3 3 0 0 0 3-3V7a3 3 0 0 0-3-3H7zm0-4h672a7 7 0 0 1 7 7v455a7 7 0 0 1-7 7H7a7 7 0 0 1-7-7V7a7 7 0 0 1 7-7z"/><path d="M13 38v418h660V38H13zm-4-4h668v426H9V34zm13.5-11a3.5 3.5 0 1 0 0-7 3.5 3.5 0 0 0 0 7zm0 4a7.5 7.5 0 1 1 0-15 7.5 7.5 0 0 1 0 15zm23-4a3.5 3.5 0 1 0 0-7 3.5 3.5 0 0 0 0 7zm0 4a7.5 7.5 0 1 1 0-15 7.5 7.5 0 0 1 0 15zm23-4a3.5 3.5 0 1 0 0-7 3.5 3.5 0 0 0 0 7zm0 4a7.5 7.5 0 1 1 0-15 7.5 7.5 0 0 1 0 15z"/></g></svg>