<?xml version="1.0" encoding="utf-8"?>
<!-- Generator: Adobe Illustrator 19.1.0, SVG Export Plug-In . SVG Version: 6.00 Build 0)  -->
<!DOCTYPE svg PUBLIC "-//W3C//DTD SVG 1.1//EN" "http://www.w3.org/Graphics/SVG/1.1/DTD/svg11.dtd">
<svg version="1.1" id="Layer_1" xmlns="http://www.w3.org/2000/svg" xmlns:xlink="http://www.w3.org/1999/xlink" x="0px" y="0px"
	 viewBox="0 0 36 24" enable-background="new 0 0 36 24" xml:space="preserve">
<path fill="#FED100" d="M25.6,11.4c-4.9-1.4-8.7-5.3-10.2-10.2c-0.2-0.6-1.1-0.6-1.2,0C12.7,6.1,8.8,9.9,4,11.4
	c-0.6,0.2-0.6,1.1,0,1.2c4.9,1.4,8.7,5.3,10.2,10.2c0.2,0.6,1.1,0.6,1.2,0c1.4-4.9,5.3-8.7,10.2-10.2C26.2,12.4,26.2,11.6,25.6,11.4
	z"/>
<path fill="#F4A140" d="M7.9,4.7c-1.4-0.4-2.6-1.6-3-3c-0.1-0.2-0.3-0.2-0.4,0c-0.4,1.4-1.6,2.6-3,3C1.3,4.8,1.3,5,1.5,5.1
	c1.4,0.4,2.6,1.6,3,3c0.1,0.2,0.3,0.2,0.4,0c0.4-1.4,1.6-2.6,3-3C8,5,8,4.8,7.9,4.7z"/>
<path fill="#F4A140" d="M34.9,18.4c-1.4-0.4-2.6-1.6-3-3c-0.1-0.2-0.3-0.2-0.4,0c-0.4,1.4-1.6,2.6-3,3c-0.2,0.1-0.2,0.3,0,0.4
	c1.4,0.4,2.6,1.6,3,3c0.1,0.2,0.3,0.2,0.4,0c0.4-1.4,1.6-2.6,3-3C35.1,18.7,35.1,18.4,34.9,18.4z"/>
</svg>
