<svg xmlns="http://www.w3.org/2000/svg" viewBox="0 0 36 24"><path fill="#FED100" d="M25.6 11.4A15.1 15.1 0 0 1 15.4 1.2c-.2-.6-1.1-.6-1.2 0A15.5 15.5 0 0 1 4 11.4c-.6.2-.6 1.1 0 1.2 4.9 1.4 8.7 5.3 10.2 10.2.2.6 1.1.6 1.2 0 1.4-4.9 5.3-8.7 10.2-10.2.6-.2.6-1 0-1.2z"/><path fill="#F4A140" d="M7.9 4.7a4.5 4.5 0 0 1-3-3c-.1-.2-.3-.2-.4 0a4.5 4.5 0 0 1-3 3c-.2.1-.2.3 0 .4 1.4.4 2.6 1.6 3 3 .1.2.3.2.4 0a4.5 4.5 0 0 1 3-3c.1-.1.1-.3 0-.4zM34.9 18.4a4.5 4.5 0 0 1-3-3c-.1-.2-.3-.2-.4 0a4.5 4.5 0 0 1-3 3c-.2.1-.2.3 0 .4 1.4.4 2.6 1.6 3 3 .1.2.3.2.4 0a4.5 4.5 0 0 1 3-3c.2-.1.2-.4 0-.4z"/></svg>