<svg width="1500" height="1501" viewBox="0 0 1500 1501" fill="none" xmlns="http://www.w3.org/2000/svg">
<g opacity="0.2" clip-path="url(#clip0_88_107)">
<path fill-rule="evenodd" clip-rule="evenodd" d="M750 0.5C795.882 0.5 839.886 18.7267 872.329 51.1705C904.773 83.6143 923 127.618 923 173.5C923 219.382 904.773 263.386 872.329 295.829C839.886 328.273 795.882 346.5 750 346.5C704.118 346.5 660.114 328.273 627.671 295.829C595.227 263.386 577 219.382 577 173.5C577 127.618 595.227 83.6143 627.671 51.1705C660.114 18.7267 704.118 0.5 750 0.5V0.5Z" fill="#E04B4B"/>
<path fill-rule="evenodd" clip-rule="evenodd" d="M750 1154.5C772.732 1154.51 795.238 1159 816.235 1167.71C837.231 1176.43 856.306 1189.19 872.371 1205.27C888.435 1221.35 901.175 1240.44 909.862 1261.45C918.549 1282.46 923.013 1304.97 923 1327.7C922.987 1350.43 918.497 1372.94 909.785 1393.93C901.074 1414.93 888.313 1434.01 872.23 1450.07C856.146 1466.14 837.057 1478.87 816.05 1487.56C795.044 1496.25 772.532 1500.71 749.8 1500.7C703.904 1500.67 659.899 1482.42 627.465 1449.94C595.03 1417.47 576.823 1373.45 576.85 1327.55C576.877 1281.65 595.134 1237.65 627.606 1205.21C660.078 1172.78 704.104 1154.57 750 1154.6V1154.5Z" fill="#4FADED"/>
<path fill-rule="evenodd" clip-rule="evenodd" d="M1162.2 173.5C1184.92 173.513 1207.41 178.001 1228.4 186.707C1249.38 195.413 1268.45 208.167 1284.5 224.241C1300.56 240.315 1313.29 259.394 1321.97 280.388C1330.65 301.383 1335.11 323.881 1335.1 346.6C1335.09 369.319 1330.6 391.812 1321.89 412.797C1313.19 433.781 1300.43 452.845 1284.36 468.9C1268.29 484.955 1249.21 497.688 1228.21 506.369C1207.22 515.051 1184.72 519.513 1162 519.5C1116.12 519.474 1072.13 501.221 1039.7 468.759C1007.27 436.296 989.074 392.282 989.1 346.4C989.127 300.518 1007.38 256.525 1039.84 224.1C1072.3 191.675 1116.32 173.474 1162.2 173.5V173.5Z" fill="#F4A140"/>
<path fill-rule="evenodd" clip-rule="evenodd" d="M458.7 1276.8C442.553 1293.16 423.307 1306.14 402.087 1314.98C380.867 1323.82 358.098 1328.34 335.11 1328.28C312.123 1328.22 289.378 1323.58 268.204 1314.63C247.031 1305.68 227.853 1292.6 211.792 1276.15C195.731 1259.71 183.109 1240.22 174.663 1218.84C166.217 1197.47 162.117 1174.62 162.602 1151.63C163.087 1128.65 168.147 1106 177.487 1084.99C186.827 1063.99 200.26 1045.05 217 1029.3C233.231 1013.42 252.434 1000.89 273.51 992.435C294.587 983.979 317.123 979.761 339.83 980.021C362.538 980.281 384.972 985.014 405.849 993.951C426.726 1002.89 445.636 1015.85 461.5 1032.1C493.539 1064.94 511.238 1109.15 510.713 1155.03C510.188 1200.91 491.482 1244.7 458.7 1276.8V1276.8Z" fill="#5C377F"/>
<path fill-rule="evenodd" clip-rule="evenodd" d="M1327 572.7C1372.88 572.7 1416.89 590.927 1449.33 623.371C1481.77 655.815 1500 699.818 1500 745.7C1500 791.583 1481.77 835.586 1449.33 868.03C1416.89 900.473 1372.88 918.7 1327 918.7C1281.12 918.7 1237.11 900.473 1204.67 868.03C1172.23 835.586 1154 791.583 1154 745.7C1154 699.818 1172.23 655.815 1204.67 623.371C1237.11 590.927 1281.12 572.7 1327 572.7Z" fill="#FFD836"/>
<path d="M173 926.7C268.545 926.7 346 849.245 346 753.7C346 658.155 268.545 580.7 173 580.7C77.4547 580.7 0 658.155 0 753.7C0 849.245 77.4547 926.7 173 926.7Z" fill="#A94CA6"/>
<path fill-rule="evenodd" clip-rule="evenodd" d="M1036.6 1281.8C1004.19 1249.31 985.983 1205.29 985.983 1159.4C985.983 1113.51 1004.19 1069.49 1036.6 1037C1069.08 1004.62 1113.08 986.433 1158.95 986.433C1204.82 986.433 1248.82 1004.62 1281.3 1037C1313.71 1069.49 1331.92 1113.51 1331.92 1159.4C1331.92 1205.29 1313.71 1249.31 1281.3 1281.8C1248.82 1314.18 1204.82 1332.37 1158.95 1332.37C1113.08 1332.37 1069.08 1314.18 1036.6 1281.8V1281.8Z" fill="#62B356"/>
</g>
<defs>
<clipPath id="clip0_88_107">
<rect width="1500" height="1500" fill="white" transform="translate(0 0.5)"/>
</clipPath>
</defs>
</svg>
