<svg width="249" height="80" viewBox="0 0 249 80" xmlns="http://www.w3.org/2000/svg"><g fill="none" fill-rule="evenodd"><path d="M40.162.006c5.075 0 9.19 4.112 9.19 9.188 0 5.073-4.115 9.186-9.19 9.186-5.072 0-9.185-4.113-9.185-9.186 0-5.076 4.113-9.188 9.185-9.188" fill="#DD525A"/><path d="M40.162 61.38c5.075 0 9.19 4.122 9.19 9.19 0 5.076-4.115 9.19-9.19 9.19-5.072 0-9.185-4.114-9.185-9.19 0-5.068 4.113-9.19 9.185-9.19" fill="#42A8F3"/><path d="M62.112 9.242c5.068 0 9.19 4.113 9.19 9.185 0 5.077-4.122 9.19-9.19 9.19-5.075 0-9.19-4.113-9.19-9.19.002-5.072 4.115-9.185 9.19-9.185" fill="#E2A653"/><path d="M24.63 67.905c-3.627 3.532-9.447 3.47-12.992-.15-3.548-3.637-3.475-9.452.156-12.994 3.623-3.547 9.44-3.483 12.985.145 3.543 3.628 3.48 9.435-.15 13" fill="#5C377F"/><path d="M70.848 30.437c5.068 0 9.19 4.108 9.19 9.185 0 5.067-4.122 9.18-9.19 9.18s-9.182-4.113-9.182-9.18c0-5.077 4.114-9.185 9.182-9.185" fill="#FFDD5B"/><path d="M9.476 30.95c5.075 0 9.19 4.114 9.19 9.188 0 5.076-4.115 9.19-9.19 9.19-5.075 0-9.19-4.114-9.19-9.19 0-5.074 4.115-9.188 9.19-9.188" fill="#B25DB2"/><path d="M55.366 68.08c-3.584-3.597-3.584-9.404 0-13 3.59-3.58 9.404-3.58 12.993 0 3.586 3.596 3.586 9.403 0 13-3.59 3.58-9.406 3.58-12.994 0" fill="#74BC5F"/><g fill="#FFF"><path d="M93.074 20.73c0-1.367-.054-2.44-.108-3.512h2.064l.108 2.09h.08c.724-1.232 1.93-2.384 4.1-2.384 1.743 0 3.082 1.072 3.645 2.6h.054c.402-.75.938-1.287 1.474-1.69.778-.588 1.61-.91 2.842-.91 1.742 0 4.288 1.126 4.288 5.628v7.64h-2.305v-7.345c0-2.52-.937-3.994-2.814-3.994-1.366 0-2.384.992-2.813 2.118-.107.35-.187.778-.187 1.18v8.04h-2.305v-7.798c0-2.064-.912-3.54-2.708-3.54-1.447 0-2.545 1.18-2.92 2.36-.135.35-.188.75-.188 1.153v7.826h-2.306v-9.46zM115.322 17.22l2.814 7.664c.322.858.643 1.876.857 2.653h.054c.24-.777.51-1.768.83-2.707l2.574-7.61h2.494l-3.538 9.245c-1.69 4.45-2.84 6.7-4.45 8.12-1.178.993-2.304 1.395-2.894 1.502l-.59-1.956c.59-.187 1.367-.563 2.064-1.152.644-.51 1.42-1.42 1.983-2.627.107-.24.187-.428.187-.56 0-.135-.053-.323-.188-.618l-4.77-11.953h2.572zM126.875 27.35c1.045.643 2.546 1.152 4.154 1.152 2.384 0 3.778-1.233 3.778-3.055 0-1.69-.964-2.68-3.404-3.592-2.948-1.018-4.77-2.573-4.77-5.092 0-2.814 2.332-4.904 5.843-4.904 1.822 0 3.188.427 3.966.856l-.643 1.93c-.563-.348-1.77-.858-3.404-.858-2.466 0-3.404 1.474-3.404 2.707 0 1.662 1.1 2.493 3.59 3.458 3.057 1.205 4.585 2.653 4.585 5.306 0 2.76-2.037 5.2-6.3 5.2-1.74 0-3.644-.537-4.61-1.18l.618-1.93zM145.316 28.717c2.252 0 3.94-2.118 3.94-5.066 0-2.197-1.1-4.957-3.886-4.957-2.76 0-3.967 2.573-3.967 5.038 0 2.842 1.608 4.987 3.886 4.987h.026zm-.107 1.768c-3.485 0-6.22-2.572-6.22-6.673 0-4.342 2.87-6.888 6.433-6.888 3.726 0 6.245 2.707 6.245 6.647 0 4.825-3.35 6.915-6.432 6.915h-.027zM163.355 29.708c-.616.295-1.983.75-3.725.75-3.913 0-6.46-2.653-6.46-6.62 0-3.993 2.734-6.914 6.97-6.914 1.393 0 2.626.348 3.27.697l-.537 1.797c-.563-.296-1.448-.617-2.734-.617-2.976 0-4.584 2.225-4.584 4.905 0 3 1.93 4.85 4.503 4.85 1.34 0 2.224-.32 2.893-.616l.402 1.768zM166.117 17.22h2.36v12.97h-2.36V17.22zm1.126-2.2c-.858 0-1.42-.67-1.42-1.446 0-.83.59-1.474 1.474-1.474.857 0 1.447.643 1.447 1.474 0 .777-.563 1.447-1.474 1.447h-.027zM180.082 22.445c.027-1.5-.616-3.832-3.242-3.832-2.413 0-3.43 2.197-3.62 3.832h6.862zm-6.888 1.688c.054 3.163 2.064 4.476 4.423 4.476 1.688 0 2.733-.296 3.59-.67l.43 1.688c-.83.375-2.278.83-4.342.83-3.967 0-6.38-2.653-6.38-6.54 0-3.912 2.333-6.994 6.112-6.994 4.234 0 5.333 3.725 5.333 6.11 0 .483-.027.83-.08 1.1h-9.086zM187.588 14.11v3.11h3.377v1.795h-3.377v6.968c0 1.608.456 2.52 1.77 2.52.643 0 1.017-.055 1.366-.162l.107 1.797c-.455.16-1.178.322-2.09.322-1.098 0-1.983-.377-2.545-.993-.643-.724-.912-1.876-.912-3.404v-7.048h-2.01V17.22h2.01v-2.387l2.305-.723zM194.718 17.22l2.815 7.664c.32.858.643 1.876.857 2.653h.054c.24-.777.51-1.768.83-2.707l2.573-7.61h2.493l-3.538 9.245c-1.688 4.45-2.84 6.7-4.45 8.12-1.178.993-2.304 1.395-2.893 1.502l-.59-1.956c.59-.187 1.366-.563 2.063-1.152.643-.51 1.42-1.42 1.983-2.627.107-.24.187-.428.187-.56 0-.135-.053-.323-.187-.618l-4.77-11.953h2.572zM90.557 60.546l2.754-3.92c1.66 1.73 4.24 3.214 7.488 3.214 2.79 0 4.096-1.236 4.096-2.613 0-4.096-13.56-1.236-13.56-10.1 0-3.92 3.39-7.17 8.934-7.17 3.744 0 6.852 1.13 9.182 3.285l-2.79 3.743c-1.907-1.766-4.45-2.577-6.85-2.577-2.12 0-3.32.918-3.32 2.33 0 3.71 13.525 1.2 13.525 9.995 0 4.308-3.108 7.557-9.43 7.557-4.555 0-7.804-1.518-10.028-3.744M111.956 63.866V40.31h16.67v4.415H116.97v4.944h11.408v4.414H116.97v5.367h11.655v4.416h-16.67zM145.646 47.868c0-1.942-1.52-3.143-3.496-3.143h-5.298v6.357h5.298c1.977 0 3.496-1.2 3.496-3.214zm-.495 15.998l-4.625-8.37h-3.673v8.37h-5.014V40.31h11.017c4.91 0 7.947 3.215 7.947 7.593 0 4.132-2.65 6.393-5.192 6.993l5.333 8.97h-5.792zM160.09 63.866L151.01 40.31h5.686l6.533 18.082 6.534-18.08h5.687l-9.075 23.554h-6.286zM177.638 40.31h5.015v23.556h-5.015V40.31zM185.478 52.106c0-7.275 5.474-12.183 12.572-12.183 5.156 0 8.158 2.79 9.818 5.756l-4.31 2.118c-.987-1.907-3.107-3.426-5.508-3.426-4.31 0-7.416 3.284-7.416 7.734s3.107 7.734 7.416 7.734c2.4 0 4.52-1.518 5.51-3.425l4.308 2.083c-1.66 2.93-4.662 5.792-9.818 5.792-7.098 0-12.572-4.944-12.572-12.184M210.162 63.866V40.31h16.67v4.415h-11.656v4.944h11.407v4.414h-11.407v5.367h11.655v4.416h-16.668zM229.124 60.546l2.755-3.92c1.66 1.73 4.237 3.214 7.486 3.214 2.79 0 4.097-1.236 4.097-2.613 0-4.096-13.56-1.236-13.56-10.1 0-3.92 3.388-7.17 8.933-7.17 3.743 0 6.85 1.13 9.182 3.285l-2.79 3.743c-1.907-1.766-4.45-2.577-6.85-2.577-2.12 0-3.32.918-3.32 2.33 0 3.71 13.526 1.2 13.526 9.995 0 4.308-3.108 7.557-9.43 7.557-4.555 0-7.804-1.518-10.03-3.744"/></g></g></svg>