<svg xmlns="http://www.w3.org/2000/svg" width="518.896" height="106.65" viewBox="38.193 365.623 518.896 106.65"><g fill="#333"><path d="M38.66 406.362c0-6.555-.118-12.056-.468-16.975H50.6l.585 8.43h.352c2.81-4.448 7.96-9.717 17.56-9.717 7.494 0 13.345 4.218 15.803 10.537h.235c1.99-3.163 4.33-5.507 7.02-7.142 3.165-2.226 6.79-3.395 11.476-3.395 9.484 0 19.08 6.438 19.08 24.702v33.593h-14.046v-31.488c0-9.483-3.276-15.102-10.187-15.102-4.917 0-8.544 3.513-10.064 7.61-.354 1.403-.702 3.16-.702 4.798v34.18H73.66v-33.01c0-7.96-3.16-13.58-9.832-13.58-5.383 0-9.013 4.215-10.302 8.195-.585 1.407-.816 3.042-.816 4.684v33.71H38.66v-40.03zM145.062 389.387l10.302 30.554c1.172 3.514 2.345 7.846 3.164 11.122h.35c.936-3.276 1.99-7.494 3.042-11.235l8.898-30.437h15.453l-14.28 38.866c-7.843 21.303-13.112 30.78-19.902 36.636-5.62 5.036-11.474 6.91-15.104 7.38l-3.274-12.182c2.458-.584 5.504-1.868 8.43-3.976 2.692-1.754 5.853-5.157 7.84-9.014.588-1.06.937-1.873.937-2.58 0-.582-.117-1.4-.82-2.806l-20.835-52.33h15.8v.003z"/></g><g fill="#333"><path d="M194.81 430.708c4.682 2.693 11.707 5.036 19.08 5.036 9.25 0 14.4-4.33 14.4-10.766 0-5.974-3.98-9.487-14.047-13.114-12.995-4.684-21.307-11.59-21.307-22.945 0-12.878 10.772-22.71 27.864-22.71 8.544 0 14.867 1.87 18.964 3.978l-3.513 11.588c-2.81-1.52-8.313-3.747-15.685-3.747-9.134 0-13.113 4.918-13.113 9.485 0 6.085 4.567 8.895 15.103 12.993 13.696 5.154 20.368 12.06 20.368 23.415 0 12.64-9.6 23.762-29.966 23.762-8.315 0-16.975-2.458-21.307-5.03l3.16-11.947zM363.948 444.643c-3.036 1.397-9.006 3.036-16.152 3.036-17.79 0-29.383-11.473-29.383-29.146 0-17.09 11.706-30.437 31.728-30.437 5.272 0 10.652 1.172 13.93 2.694l-2.572 10.77c-2.338-1.05-5.736-2.224-10.887-2.224-11 0-17.56 8.076-17.44 18.496 0 11.707 7.61 18.375 17.44 18.375 5.03 0 8.55-1.054 11.357-2.224l1.98 10.66zM374.606 446.396v-57.01h14.513v57.01h-14.514zM389.94 373.466c0 4.333-3.164 7.728-8.194 7.728-4.802 0-7.964-3.395-7.964-7.728 0-4.45 3.283-7.843 8.078-7.843 4.916 0 7.965 3.395 8.08 7.843zM414.748 421.93c.356 10.303 8.435 14.75 17.568 14.75 6.67 0 11.465-.935 15.803-2.58l2.102 9.954c-4.922 1.987-11.705 3.626-19.9 3.626-18.495 0-29.382-11.472-29.382-28.91 0-15.807 9.598-30.672 27.858-30.672 18.61 0 24.582 15.22 24.582 27.748 0 2.69-.23 4.798-.464 6.084h-38.168zm25.058-10.064c.12-5.27-2.225-13.932-11.82-13.932-8.905 0-12.653 8.076-13.237 13.932h25.056zM481.472 374.753v14.634h13.7v10.772h-13.7v25.167c0 6.905 1.874 10.537 7.374 10.537 2.693 0 3.976-.235 5.62-.704l.236 11.007c-2.11.813-5.856 1.52-10.416 1.52-5.272 0-9.72-1.876-12.412-4.797-3.042-3.277-4.445-8.435-4.445-15.924V400.16h-8.195v-10.772h8.194v-10.534l14.042-4.1zM515.885 389.387l10.31 30.554c1.168 3.514 2.33 7.846 3.156 11.122h.35c.94-3.276 1.995-7.494 3.042-11.235l8.9-30.437h15.446l-14.277 38.866c-7.844 21.303-13.108 30.785-19.898 36.642-5.622 5.037-11.478 6.904-15.098 7.375l-3.285-12.177c2.458-.584 5.506-1.874 8.428-3.982 2.694-1.753 5.856-5.15 7.844-9.007.592-1.06.94-1.88.94-2.58 0-.582-.12-1.408-.82-2.807l-20.832-52.33h15.797l-.002-.003z"/></g><path fill="#ED1C24" d="M279.434 385.76c4.052 0 7.336 3.284 7.336 7.336 0 4.05-3.284 7.334-7.336 7.334-4.05 0-7.333-3.284-7.333-7.334 0-4.052 3.284-7.335 7.334-7.335z"/><path fill="#29ABE2" d="M279.434 434.76c4.052 0 7.336 3.29 7.336 7.337 0 4.052-3.284 7.336-7.336 7.336-4.05 0-7.333-3.284-7.333-7.336 0-4.047 3.284-7.337 7.334-7.337z"/><path fill="#F7931E" d="M296.957 393.135c4.046 0 7.337 3.284 7.337 7.333 0 4.053-3.29 7.336-7.337 7.336-4.052 0-7.336-3.283-7.336-7.336.002-4.05 3.286-7.333 7.337-7.333z"/><path fill="#662D91" d="M267.034 439.97c-2.896 2.818-7.543 2.77-10.372-.122-2.833-2.902-2.775-7.545.124-10.372 2.893-2.833 7.536-2.782 10.366.114s2.78 7.532-.118 10.38z"/><path fill="#FCEE21" d="M303.932 410.056c4.046 0 7.336 3.28 7.336 7.333 0 4.044-3.29 7.33-7.336 7.33s-7.33-3.285-7.33-7.33c0-4.054 3.284-7.334 7.33-7.334z"/><circle fill="#93278F" cx="254.936" cy="417.802" r="7.336"/><path fill="#8CC63F" d="M291.572 440.108c-2.86-2.872-2.86-7.508 0-10.38 2.865-2.857 7.51-2.857 10.373 0 2.863 2.872 2.863 7.508 0 10.38-2.866 2.858-7.51 2.858-10.373 0z"/></svg>