<?xml version="1.0" encoding="UTF-8" standalone="no"?>
<svg width="1500px" height="300px" viewBox="0 0 1500 300" version="1.1" xmlns="http://www.w3.org/2000/svg" xmlns:xlink="http://www.w3.org/1999/xlink">
    <defs></defs>
    <g stroke="none" stroke-width="1" fill="none" fill-rule="evenodd">
        <g fill="#FFFFFF">
            <g transform="translate(118.671875, 35.000000)">
                <path d="M113.344277,201.614197 C97.4498873,201.614197 82.5300905,197.473302 69.5774433,190.255929 L109.93994,149.026629 C110.133062,148.842489 110.263307,148.599964 110.442955,148.406842 C113.726029,149.228733 117.098927,149.781152 120.624527,149.781152 C144.270743,149.844029 163.484136,130.886635 163.555995,107.438032 C163.582942,103.696855 162.945191,100.121852 162.033475,96.6321827 L139.483114,118.877142 L114.556903,113.528112 L109.30668,88.759093 L131.906444,66.4961692 C128.380845,65.5215768 124.725001,64.8344218 120.880526,64.8299306 C97.2432917,64.7760361 78.0164253,83.6885179 77.9445659,107.164068 C77.9266011,112.153802 78.9371232,116.851606 80.5135376,121.297903 L39.5896397,163.07064 C29.6640674,148.775121 23.8299867,131.470492 23.8299867,112.827483 C23.8299867,63.8733031 63.9903791,24.040769 113.344277,24.040769 C162.702665,24.040769 202.854075,63.8733031 202.854075,112.827483 C202.854075,161.795136 162.702665,201.614197 113.344277,201.614197 M113.344277,0.547253837 C50.9254516,0.547253837 0.143349573,50.9206558 0.143349573,112.822992 C0.143349573,174.73431 50.9254516,225.107712 113.344277,225.107712 C175.754119,225.107712 226.53173,174.73431 226.53173,112.822992 C226.53173,50.9206558 175.754119,0.547253837 113.344277,0.547253837"></path>
                <path d="M296.814662,61.5688636 L285.115062,61.5688636 L285.115062,50.4935418 L352.44727,50.4935418 C360.185624,50.4935418 363.244137,53.7092476 363.244137,61.3981977 L363.244137,73.8927416 L351.544537,73.8927416 L351.544537,65.5076541 C351.544537,62.821911 350.102859,61.5688636 347.578799,61.5688636 L309.412504,61.5688636 L309.412504,108.717577 L355.321644,108.717577 L355.321644,119.792899 L309.412504,119.792899 L309.412504,176.049785 L296.814662,176.049785 L296.814662,61.5688636 Z"></path>
                <path d="M383.587518,50.4953383 L395.48024,50.4953383 L395.48024,65.8597649 L383.587518,65.8597649 L383.587518,50.4953383 Z M383.951306,100.684601 C383.951306,98.1740148 382.509628,96.7592839 379.990059,96.7592839 L372.426863,96.7592839 L372.426863,86.2273984 L385.213336,86.2273984 C392.951689,86.2273984 396.198833,89.4251394 396.198833,97.1095983 L396.198833,161.585397 C396.198833,164.27114 397.63602,165.510714 400.151097,165.510714 L407.714294,165.510714 L407.714294,176.047091 L394.936804,176.047091 C387.193959,176.047091 383.951306,172.835876 383.951306,165.155908 L383.951306,100.684601 Z"></path>
                <path d="M447.502814,129.263512 L427.880721,100.515282 C425.724941,97.4657511 423.205372,96.7606313 419.598931,96.7606313 L415.817333,96.7606313 L415.817333,86.2242546 L422.482288,86.2242546 C431.66681,86.2242546 434.00673,87.6389855 439.400673,96.0375466 L452.371285,116.050375 C453.808472,118.358856 455.434289,121.394914 455.434289,121.394914 L455.789095,121.394914 C455.789095,121.394914 457.410421,118.358856 458.66796,116.050375 L471.809238,96.0375466 C477.207671,87.8231251 479.376925,86.2242546 488.736605,86.2242546 L495.221911,86.2242546 L495.221911,96.7606313 L491.610979,96.7606313 C487.838363,96.7606313 485.134655,97.2861028 483.154032,100.331143 L463.531939,129.263512 L495.221911,176.052929 L480.814112,176.052929 L458.66796,142.651807 C457.235264,140.32536 455.789095,137.6486 455.789095,137.6486 L455.434289,137.6486 C455.434289,137.6486 453.98812,140.150203 452.371285,142.651807 L430.220641,176.052929 L416.001473,176.052929 L447.502814,129.263512 Z"></path>
                <path d="M502.416828,164.965032 L509.081783,164.965032 C511.601351,164.965032 512.863381,163.725458 513.043029,161.053189 L521.868255,50.4975839 L534.645745,50.4975839 L568.12771,123.538119 C571.190714,129.974021 574.433367,138.359109 574.433367,138.359109 L574.797155,138.359109 C574.797155,138.359109 578.030826,129.974021 580.914182,123.538119 L614.400638,50.4975839 L627.191601,50.4975839 L636.012336,161.053189 C636.191985,163.725458 637.445032,164.965032 639.969091,164.965032 L646.795729,164.965032 L646.795729,176.049336 L634.570658,176.049336 C626.823322,176.049336 624.128597,172.83363 623.58516,165.158154 L617.643291,88.9064047 C617.104346,82.1201877 617.104346,71.4041626 617.104346,71.4041626 L616.740558,71.4041626 C616.740558,71.4041626 613.322747,82.470502 610.264234,88.9064047 L580.195589,152.654628 L568.850794,152.654628 L538.966289,88.9064047 C536.087423,82.6456591 532.305825,71.0448659 532.305825,71.0448659 L531.95102,71.0448659 C531.95102,71.0448659 531.95102,82.1201877 531.403092,88.9064047 L525.461223,165.158154 C524.922277,172.83363 522.227552,176.049336 514.484707,176.049336 L502.416828,176.049336 L502.416828,164.965032 Z"></path>
                <path d="M671.304258,202.653463 C679.231242,202.653463 684.620693,196.222051 688.047486,188.021103 L693.45041,175.692734 L661.576299,100.869189 C660.143603,97.6489925 658.504312,96.7597331 655.275132,96.7597331 L653.474157,96.7597331 L653.474157,86.2278476 L659.047748,86.2278476 C667.15438,86.2278476 669.687422,88.0018752 672.907619,96.0366484 L696.140644,152.118377 C697.950602,156.582639 699.383297,161.765495 699.383297,161.765495 L699.747085,161.765495 C699.747085,161.765495 700.995642,156.582639 702.81009,152.118377 L725.126908,96.0366484 C728.194404,88.0018752 730.898112,86.2278476 739.175411,86.2278476 L744.753492,86.2278476 L744.753492,96.7597331 L742.952518,96.7597331 C739.705373,96.7597331 737.90889,97.6489925 736.660334,100.869189 L697.582323,194.80732 C692.906974,206.232956 683.722451,213.549136 671.659063,213.549136 C659.047748,213.549136 652.03697,204.800261 652.03697,204.800261 L657.790209,195.871737 C657.790209,196.055876 663.556922,202.653463 671.304258,202.653463"></path>
                <path d="M854.228961,75.6739551 C854.228961,84.2566559 846.468152,89.0712321 839.821162,89.0712321 C836.039564,89.0712321 832.796911,87.6430276 829.010822,82.648803 C828.117071,81.3867732 827.393987,80.1516907 826.311605,78.8941521 C822.341376,73.7112967 815.514738,70.324925 805.261308,70.324925 C792.483818,70.324925 783.636136,74.9733265 783.636136,83.1742745 C783.636136,86.0396659 784.54336,88.7119354 787.238086,90.8632245 C789.946285,93.0055313 794.437494,94.2495963 803.276193,96.5715514 C831.166602,104.076362 834.063432,104.794955 840.535265,108.895429 C848.282601,113.907619 856.555408,123.366105 856.555408,138.007447 C856.555408,151.049919 850.254241,161.393173 841.792803,168.013216 C831.350742,176.047989 817.841185,178.724749 804.529241,178.724749 C791.387963,178.724749 779.868011,176.582443 770.315209,171.943024 C751.232062,162.475555 749.970032,150.340308 749.970032,147.115619 C749.970032,138.362253 757.178423,133.008731 764.027517,133.008731 C769.969386,133.008731 773.742002,136.7544 777.887388,142.835497 C781.844143,148.723472 786.528474,155.334532 804.717872,155.334532 C808.845293,155.334532 813.345484,154.975235 817.30224,153.371874 C818.7529,152.832929 826.85055,149.621714 826.85055,140.329402 C826.85055,135.335178 824.69477,132.469786 821.636257,130.340953 C818.016342,127.834858 815.344073,127.111774 798.394249,122.831651 C777.528091,117.29399 754.1244,111.037736 754.1244,85.1504065 C754.1244,62.2856606 772.129658,46.9347077 804.89752,46.9347077 C836.39437,46.9347077 854.228961,62.9997629 854.228961,75.6739551"></path>
                <path d="M899.592869,83.1760709 C907.335713,83.1760709 908.95704,83.1760709 911.292469,84.2539611 C912.918286,85.1477118 916.340588,87.6448241 916.340588,93.0028366 C916.340588,94.7903378 915.788169,96.3936995 915.069576,97.8353777 C912.379341,103.004759 908.7729,103.004759 899.592869,103.004759 L899.592869,147.472221 C899.592869,155.331837 902.471734,156.23457 908.95704,156.23457 C916.340588,156.23457 917.777775,161.763249 917.777775,165.504426 C917.777775,176.409082 905.35509,177.127675 898.326348,177.127675 C874.033397,177.127675 873.489961,163.007314 873.489961,152.300271 L873.489961,103.004759 C870.431448,103.004759 867.5436,103.004759 865.024032,101.756203 C864.12579,101.221749 860.169035,99.0749514 860.169035,93.0028366 C860.169035,91.3994749 860.348683,89.7961132 861.067277,88.5251011 C863.582354,83.1760709 868.985278,83.1760709 873.489961,83.1760709 L873.489961,70.5108611 C873.674101,66.3924223 873.674101,61.5688636 876.907771,58.0073348 C877.630856,57.2752677 880.514212,53.8933872 886.622257,53.8933872 C888.436705,53.8933872 890.228698,54.2481927 891.665885,54.791629 C899.422203,57.648038 899.422203,65.3235145 899.592869,70.6860182 L899.592869,83.1760709 Z"></path>
                <path d="M925.882162,99.0749514 C925.882162,94.7903378 925.882162,89.7961132 929.843408,85.8573228 C931.455752,84.2539611 934.3436,82.4664599 938.668634,82.4664599 C940.99508,82.4664599 942.989177,82.9964226 944.242225,83.7105248 C951.257493,87.1148614 951.257493,95.1451434 951.257493,98.1767095 L951.257493,100.327999 C952.169209,97.4670985 953.242608,94.7903378 954.854952,92.2932255 C958.834163,85.3273601 966.024589,81.7523576 973.587785,81.7523576 C983.302271,81.7523576 986.913203,87.6448241 986.913203,93.7169388 C986.913203,97.1078018 985.839804,100.14835 983.845707,102.111009 C981.155473,104.796752 977.558014,105.326715 974.301888,105.501872 C971.78681,105.677029 969.442399,105.677029 967.111462,106.045308 C953.242608,108.358281 953.071942,122.46966 952.87882,132.471583 L952.87882,160.510202 C952.87882,164.615167 952.87882,169.97767 949.281361,173.548182 C947.12109,175.865646 943.528122,177.302833 939.746524,177.302833 C938.668634,177.302833 937.042816,177.127675 935.066684,176.584239 C926.06181,174.073653 925.882162,166.043371 925.882162,160.510202 L925.882162,99.0749514 Z"></path>
                <path d="M1052.12287,118.180106 C1051.40427,115.14854 1050.86084,111.941817 1048.87123,108.896777 C1045.46689,103.898061 1039.87534,101.755754 1033.75831,101.755754 C1019.53016,101.755754 1016.29649,112.28764 1014.31587,118.180106 L1052.12287,118.180106 Z M1014.31587,137.649498 C1014.86379,141.943094 1015.75305,147.296615 1020.0736,151.760877 C1025.84031,157.832992 1032.50526,157.832992 1034.65655,157.832992 C1041.86943,157.832992 1045.46689,155.156231 1047.44303,153.36873 C1048.51642,152.299822 1049.41017,151.212949 1050.69017,150.341655 C1053.3804,148.010717 1056.0886,147.296615 1058.41056,147.296615 C1064.73867,147.296615 1070.12812,152.654628 1070.12812,159.081548 C1070.12812,162.822725 1068.33164,166.766007 1062.91973,170.516166 C1054.64692,176.408633 1044.19588,178.541957 1033.93347,178.541957 C998.83916,178.541957 986.587141,152.654628 986.587141,130.3423 C986.587141,102.824662 1004.76756,81.3881206 1034.29726,81.3881206 C1067.41992,81.3881206 1077.14788,107.83236 1077.14788,125.330111 C1077.14788,137.290201 1070.66707,137.478832 1065.81656,137.649498 L1014.31587,137.649498 Z"></path>
                <path d="M1149.70157,118.180106 C1148.98747,115.14854 1148.44852,111.941817 1146.46341,108.896777 C1143.05009,103.898061 1137.46303,101.755754 1131.33702,101.755754 C1117.12683,101.755754 1113.87969,112.28764 1111.90805,118.180106 L1149.70157,118.180106 Z M1111.90805,137.649498 C1112.43801,141.943094 1113.33625,147.296615 1117.66578,151.760877 C1123.41901,157.832992 1130.08397,157.832992 1132.23526,157.832992 C1139.44814,157.832992 1143.05009,155.156231 1145.01724,153.36873 C1146.09513,152.299822 1147.00235,151.212949 1148.27786,150.341655 C1150.96809,148.010717 1153.67629,147.296615 1156.00723,147.296615 C1162.31289,147.296615 1167.71132,152.654628 1167.71132,159.081548 C1167.71132,162.822725 1165.91034,166.766007 1160.51191,170.516166 C1152.22563,176.408633 1141.79255,178.541957 1131.52565,178.541957 C1096.42685,178.541957 1084.17034,152.654628 1084.17034,130.3423 C1084.17034,102.824662 1102.36423,81.3881206 1131.87596,81.3881206 C1165.00761,81.3881206 1174.7221,107.83236 1174.7221,125.330111 C1174.7221,137.290201 1168.25925,137.478832 1163.39078,137.649498 L1111.90805,137.649498 Z"></path>
                <path d="M1217.05219,83.1760709 C1224.78605,83.1760709 1226.41636,83.1760709 1228.7473,84.2539611 C1230.36863,85.1477118 1233.78644,87.6448241 1233.78644,93.0028366 C1233.78644,94.7903378 1233.23851,96.3936995 1232.52441,97.8353777 C1229.82968,103.004759 1226.21875,103.004759 1217.05219,103.004759 L1217.05219,147.472221 C1217.05219,155.331837 1219.92657,156.23457 1226.41636,156.23457 C1233.78644,156.23457 1235.22812,161.763249 1235.22812,165.504426 C1235.22812,176.409082 1222.80543,177.127675 1215.78118,177.127675 C1191.49272,177.127675 1190.94928,163.007314 1190.94928,152.300271 L1190.94928,103.004759 C1187.88628,103.004759 1184.99394,103.004759 1182.46988,101.756203 C1181.58511,101.221749 1177.61488,99.0749514 1177.61488,93.0028366 C1177.61488,91.3994749 1177.80352,89.7961132 1178.51762,88.5251011 C1181.03719,83.1760709 1186.44011,83.1760709 1190.94928,83.1760709 L1190.94928,70.5108611 C1191.12444,66.3924223 1191.12444,61.5688636 1194.35811,58.0073348 C1195.07221,57.2752677 1197.94659,53.8933872 1204.07709,53.8933872 C1205.89154,53.8933872 1207.67904,54.2481927 1209.12072,54.791629 C1216.85907,57.648038 1216.85907,65.3235145 1217.05219,70.6860182 L1217.05219,83.1760709 Z"></path>
            </g>
        </g>
    </g>
</svg>