<svg width="1500" height="300" viewBox="0 0 1500 300" xmlns="http://www.w3.org/2000/svg"><path d="M151.68 201h20.183v-96.744h32.712V87.204h-85.782v17.052h32.886V201zm69.947 0h20.01v-59.682c7.134-6.96 12.006-10.614 19.488-10.614 9.396 0 13.398 5.22 13.398 19.314V201h20.01v-53.592c0-21.576-8.004-33.93-26.274-33.93-11.66 0-20.185 6.09-27.32 12.876l.697-16.53V78.156h-20.01V201zm91.524-42.63c0 28.188 18.445 44.718 42.11 44.718 10.787 0 21.053-3.828 29.23-9.222l-6.785-12.528c-6.264 4.002-12.528 6.264-19.836 6.264-13.747 0-23.49-8.7-25.23-24.186h54.287c.522-2.088.87-5.568.87-9.396 0-23.838-12.18-40.542-35.322-40.542-20.01 0-39.324 17.052-39.324 44.892zm19.315-7.656c1.74-14.268 10.44-21.75 20.532-21.75 11.658 0 17.4 8.178 17.4 21.75h-37.932zm72.732 68.034l-3.654 15.66c3.132 1.044 6.438 1.74 11.136 1.74 18.617 0 27.49-12.006 34.625-31.32l30.972-89.262h-19.314L446.087 157.5c-2.088 7.656-4.35 16.182-6.438 24.012h-.697c-2.61-8.004-5.046-16.53-7.482-24.012l-14.79-41.934h-20.357l33.582 84.39-1.566 5.394c-2.785 8.526-8.005 14.616-17.053 14.616-2.088 0-4.524-.696-6.09-1.218zM505.77 201h24.707l13.746-59.856c1.914-8.874 3.48-17.574 5.046-26.274h.695c1.566 8.7 3.132 17.4 5.046 26.274L569.106 201h25.056l21.925-113.796h-19.488l-9.744 57.42c-1.914 12.006-3.654 24.186-5.568 36.366h-.696c-2.437-12.18-5.047-24.534-7.483-36.366l-14.094-57.42h-17.4l-14.094 57.42c-2.437 12.006-5.047 24.36-7.31 36.366h-.695c-1.914-12.006-3.828-24.186-5.742-36.366l-9.744-57.42h-20.88L505.77 201zm120.407-42.63c0 28.362 19.314 44.718 40.542 44.718 21.4 0 40.715-16.356 40.715-44.718 0-28.536-19.314-44.892-40.716-44.892-21.23 0-40.543 16.356-40.543 44.892zm20.532 0c0-17.226 7.48-28.536 20.01-28.536 12.527 0 20.183 11.31 20.183 28.536 0 17.052-7.656 28.362-20.184 28.362-12.53 0-20.01-11.31-20.01-28.362zM727.27 201h20.01v-52.2c5.22-12.876 13.4-17.574 20.185-17.574 3.654 0 5.916.522 8.874 1.392l3.48-17.4c-2.61-1.218-5.395-1.74-9.745-1.74-9.048 0-18.096 6.09-24.186 17.226h-.697l-1.392-15.138h-16.53V201zm64.903 0h19.662v-21.75l13.398-15.312L847.157 201h21.75l-32.19-50.634 29.232-34.8h-21.925l-31.668 39.324h-.522V78.156h-19.662V201zm92.394 0h20.184v-47.502h41.24v-17.052h-41.24v-32.19h48.547V87.204h-68.73V201zm78.126-42.63c0 28.362 19.314 44.718 40.542 44.718 21.402 0 40.716-16.356 40.716-44.718 0-28.536-19.313-44.892-40.715-44.892-21.228 0-40.542 16.356-40.542 44.892zm20.532 0c0-17.226 7.482-28.536 20.01-28.536 12.528 0 20.184 11.31 20.184 28.536 0 17.052-7.657 28.362-20.185 28.362-12.528 0-20.01-11.31-20.01-28.362zm80.562 42.63h20.01v-52.2c5.22-12.876 13.398-17.574 20.184-17.574 3.655 0 5.917.522 8.875 1.392l3.48-17.4c-2.61-1.218-5.394-1.74-9.744-1.74-9.047 0-18.095 6.09-24.185 17.226h-.696l-1.393-15.138h-16.53V201zm85.434 0h20.185v-42.282l34.278-71.514h-21.054l-12.355 29.058c-3.306 8.526-6.96 16.356-10.614 25.056h-.695c-3.48-8.7-6.786-16.53-10.092-25.056l-12.354-29.058h-21.577l34.278 71.514V201zm52.2-42.63c0 28.362 19.315 44.718 40.543 44.718 21.402 0 40.716-16.356 40.716-44.718 0-28.536-19.315-44.892-40.717-44.892-21.228 0-40.542 16.356-40.542 44.892zm20.533 0c0-17.226 7.482-28.536 20.01-28.536 12.528 0 20.184 11.31 20.184 28.536 0 17.052-7.656 28.362-20.184 28.362-12.528 0-20.01-11.31-20.01-28.362zm79.692 10.788c0 21.576 8.004 33.93 26.274 33.93 11.657 0 20.01-5.742 27.49-14.616h.523L1357.5 201h16.355v-85.434h-20.01v58.464c-6.438 8.352-11.484 11.832-18.966 11.832-9.223 0-13.225-5.22-13.225-19.314v-50.982h-20.01v53.592z" fill="#FFF" fill-rule="evenodd"/></svg>