<svg width="1500" height="300" viewBox="0 0 1500 300" xmlns="http://www.w3.org/2000/svg"><path d="M74.623 116.485l12.71 65.565 15.965-80.6c1.343-7.027 4.804-10.54 10.385-10.54 5.89 0 9.403 3.1 10.54 9.3l15.5 82.925 13.174-64.325c.93-4.547 1.395-8.008 1.395-10.385 0-4.237-2.17-6.355-6.51-6.355-.93 0-2.273.052-4.03.155-1.756.103-3.1.155-4.03.155-4.443 0-6.665-1.757-6.665-5.27 0-3.41 2.17-5.115 6.51-5.115 1.654 0 3.36.103 5.115.31 8.474 1.033 14.054 1.55 16.74 1.55 2.067 0 5.14-.31 9.223-.93 4.082-.62 7.156-.93 9.222-.93 3.824 0 5.736 1.808 5.736 5.425 0 3.307-1.86 4.96-5.58 4.96-.62 0-1.55-.077-2.79-.233-1.24-.155-2.17-.232-2.79-.232-2.17 0-3.746.827-4.728 2.48-.982 1.653-2.144 5.373-3.488 11.16l-17.36 73.935c-1.343 5.683-4.546 8.525-9.61 8.525-5.373 0-8.73-3.513-10.075-10.54L113.53 105.48l-17.206 84.165c-1.136 5.58-4.08 8.37-8.835 8.37-4.856 0-7.956-2.842-9.3-8.525L59.743 112.3c-.93-3.927-2.093-6.587-3.488-7.983-1.395-1.395-3.59-2.092-6.588-2.092h-1.084l-3.41.31c-3.307 0-4.96-1.705-4.96-5.115 0-3.617 1.808-5.425 5.425-5.425 1.446 0 3.1.155 4.96.465 5.58.93 11.004 1.395 16.275 1.395 2.48 0 8.163-.517 17.05-1.55 1.55-.207 3.048-.31 4.495-.31 3.72 0 5.58 1.705 5.58 5.115 0 3.72-2.274 5.58-6.82 5.58-.93 0-2.35-.103-4.263-.31-1.912-.207-3.332-.31-4.263-.31-3.616 0-5.424 1.705-5.424 5.115 0 1.24.154 2.687.465 4.34l.93 4.96zM215.207 96.18l-.62 30.07c4.134-3.927 7.905-6.64 11.316-8.138 3.41-1.498 7.44-2.247 12.09-2.247 8.886 0 16.016 2.532 21.39 7.595 5.373 5.063 8.06 11.728 8.06 19.995v25.885c0 6.097.05 9.455.155 10.075.413 5.167 1.756 7.75 4.03 7.75.826 0 2.014-.207 3.565-.62.62-.103 1.446-.155 2.48-.155 3.823 0 5.735 1.705 5.735 5.115s-2.48 5.115-7.44 5.115c-1.344 0-3.307-.155-5.89-.465-4.34-.517-7.854-.775-10.54-.775-2.687 0-4.754.103-6.2.31-4.34.62-7.027.93-8.06.93-1.86 0-3.41-.542-4.65-1.627-1.24-1.086-1.86-2.455-1.86-4.108 0-1.343.542-2.48 1.627-3.41 1.085-.93 2.35-1.395 3.797-1.395 1.137 0 2.48.258 4.03.775.93.31 1.81.465 2.635.465 3.1 0 4.702-3.358 4.805-10.075 0-1.24.052-3.668.155-7.285l.155-6.665v-8.37c0-10.54-1.033-17.618-3.1-21.235-2.996-5.373-8.266-8.06-15.81-8.06-8.163 0-14.104 2.79-17.825 8.37-2.583 3.823-3.926 9.972-4.03 18.445l-.154 11.16c0 .62-.052 1.653-.155 3.1v2.945c0 5.89.05 9.3.155 10.23.516 5.063 2.014 7.595 4.495 7.595.826 0 1.99-.18 3.487-.542 1.498-.362 2.61-.543 3.333-.543 3.306 0 4.96 1.602 4.96 4.805 0 3.617-2.274 5.425-6.82 5.425-1.447 0-3.617-.155-6.51-.465-3.927-.413-7.285-.62-10.075-.62-1.757 0-4.185.155-7.286.465-4.133.413-6.768.62-7.905.62-4.236 0-6.355-1.86-6.355-5.58 0-3.1 1.964-4.65 5.89-4.65 1.344 0 2.325.103 2.946.31 1.756.31 2.996.465 3.72.465 1.653 0 2.764-1.576 3.332-4.727.568-3.152.904-9.585 1.008-19.298l.155-27.745c0-15.5-.31-25.29-.93-29.373-.62-4.08-2.067-6.122-4.34-6.122-.724 0-1.81.155-3.255.465-1.447.31-2.584.465-3.41.465-3.514 0-5.27-1.653-5.27-4.96 0-1.447.62-2.687 1.86-3.72 1.24-1.033 2.738-1.55 4.494-1.55.517 0 2.274.155 5.27.465 1.964.207 4.082.31 6.355.31.93 0 2.222-.103 3.875-.31 1.654-.207 2.842-.31 3.566-.31 2.376 0 3.565 1.705 3.565 5.115v.31zm141.05 101.835c-8.473 0-13.69-3.668-15.654-11.005-5.27 7.75-13.537 11.625-24.8 11.625-8.37 0-15.06-2.067-20.073-6.2-5.012-4.133-7.518-9.662-7.518-16.585 0-8.577 3.67-14.88 11.005-18.91 2.79-1.55 5.193-2.557 7.208-3.023 2.015-.465 6.07-1.06 12.167-1.782 8.68-.93 14.338-2.222 16.973-3.875s3.952-4.702 3.952-9.145c0-4.237-1.472-7.57-4.417-9.998-2.945-2.428-7.052-3.642-12.323-3.642-4.65 0-8.99 1.292-13.02 3.875-1.55 1.033-2.325 2.118-2.325 3.255 0 .413.465.93 1.395 1.55 1.447 1.033 2.17 2.79 2.17 5.27 0 2.067-.75 3.772-2.247 5.115-1.498 1.343-3.384 2.015-5.658 2.015-2.686 0-4.934-.93-6.742-2.79-1.808-1.86-2.713-4.133-2.713-6.82 0-5.787 2.868-10.747 8.603-14.88 5.735-4.133 12.684-6.2 20.847-6.2 18.807 0 28.21 9.042 28.21 27.125v31.31c0 4.96.104 7.905.31 8.835.62 3.617 2.377 5.425 5.27 5.425 3.617 0 5.425-3.307 5.425-9.92v-7.595c0-3.307 1.602-4.96 4.805-4.96 3.41 0 5.115 2.48 5.115 7.44v.775l-.154 8.835c-.207 9.92-5.477 14.88-15.81 14.88zm-17.204-30.845l.154-11.005c-2.273 2.067-4.675 3.513-7.207 4.34s-7.052 1.55-13.563 2.17c-11.78 1.137-17.67 5.477-17.67 13.02 0 3.927 1.42 7.027 4.263 9.3 2.842 2.273 6.69 3.41 11.548 3.41 6.923 0 12.374-1.886 16.352-5.657 3.978-3.772 6.02-8.965 6.123-15.578zm80.6 7.44l.31-9.92c.103-4.237 1.963-6.355 5.58-6.355 3.616 0 5.424 2.377 5.424 7.13 0 11.263-1.446 19.117-4.34 23.56-3.926 5.993-10.384 8.99-19.375 8.99-8.266 0-14.156-2.635-17.67-7.905-2.583-3.823-3.875-10.333-3.875-19.53v-37.2c0-2.17-.98-3.255-2.945-3.255h-4.96c-1.653 0-3.022-.542-4.107-1.627-1.085-1.086-1.627-2.403-1.627-3.953 0-1.447.542-2.738 1.627-3.875s2.3-1.705 3.642-1.705h6.046c1.756 0 2.635-.982 2.635-2.945v-15.965c0-3.927 2.014-5.89 6.045-5.89 3.72 0 5.58 1.963 5.58 5.89v16.585c0 1.55.93 2.325 2.79 2.325h16.894c3.927 0 5.89 1.808 5.89 5.425 0 3.823-2.118 5.735-6.354 5.735h-17.05c-1.447 0-2.17 1.085-2.17 3.255v38.13c0 10.85 3.564 16.275 10.695 16.275 7.233 0 11.004-4.392 11.314-13.175zm36.424-61.38c0-7.75-2.634-11.625-7.904-11.625-.93 0-2.015.103-3.255.31-1.86.31-3.255.465-4.185.465-3.204 0-4.805-1.653-4.805-4.96 0-3.617 2.324-5.425 6.974-5.425.517 0 1.19.052 2.016.155l8.214 1.085c3.1.413 6.407.62 9.92.62 2.894 0 5.787-.155 8.68-.465l10.075-1.085c1.964-.207 4.547-.31 7.75-.31 9.404 0 17.257 1.343 23.56 4.03 8.267 3.513 14.803 9.61 19.608 18.29s7.207 18.755 7.207 30.225c0 10.127-1.91 19.246-5.735 27.358-3.823 8.11-9.04 14.08-15.654 17.902-7.957 4.65-17.567 6.975-28.83 6.975-2.274 0-4.6-.103-6.976-.31l-10.695-.93c-3.616-.31-7.388-.465-11.314-.465-3.41 0-6.2.155-8.37.465l-7.44 1.085c-.207 0-.57.052-1.086.155h-1.24c-4.443 0-6.664-1.808-6.664-5.425 0-1.447.464-2.66 1.394-3.642.93-.982 2.067-1.473 3.41-1.473 1.137 0 2.532.155 4.185.465.724.207 1.81.31 3.256.31 5.27 0 7.904-3.875 7.904-11.625V113.23zm13.02-1.55v65.565c0 4.753 2.325 7.647 6.976 8.68 1.55.413 5.89.62 13.02.62 12.4 0 21.39-3.358 26.97-10.075 6.716-8.06 10.075-18.703 10.075-31.93 0-10.333-2.04-19.09-6.123-26.272-4.082-7.182-9.687-11.806-16.817-13.873-4.547-1.343-10.024-2.015-16.43-2.015-8.164 0-13.15.465-14.958 1.395-1.808.93-2.712 3.565-2.712 7.905zm118.42 86.955c-10.85 0-19.53-3.746-26.04-11.237-6.51-7.492-9.764-17.54-9.764-30.148 0-12.607 3.28-22.656 9.842-30.147 6.562-7.492 15.37-11.238 26.428-11.238 11.263 0 20.15 3.668 26.66 11.005 6.51 7.337 9.764 17.308 9.764 29.915s-3.358 22.733-10.075 30.38c-6.716 7.647-15.654 11.47-26.814 11.47zm.775-72.54c-7.233 0-12.916 2.532-17.05 7.595-4.133 5.063-6.406 12.245-6.82 21.545v2.015c0 9.713 2.04 17.334 6.123 22.863 4.082 5.528 9.79 8.292 17.128 8.292 7.543 0 13.46-2.764 17.747-8.292 4.288-5.53 6.433-13.2 6.433-23.018 0-20.667-7.854-31-23.56-31zm97.495 49.445c0 7.75 2.635 11.625 7.905 11.625.827 0 2.067-.13 3.72-.387 1.654-.26 2.894-.388 3.72-.388 1.344 0 2.506.49 3.488 1.473.982.98 1.472 2.144 1.472 3.487 0 3.617-2.324 5.425-6.975 5.425h-.93c-.516-.103-.878-.155-1.085-.155l-7.594-1.085c-2.894-.413-6.15-.62-9.766-.62-3.926 0-7.388.207-10.385.62l-7.75 1.085c-.31 0-.67.052-1.084.155h-1.086c-4.546 0-6.82-1.808-6.82-5.425 0-3.307 1.654-4.96 4.96-4.96.827 0 2.067.13 3.72.388 1.654.258 2.894.387 3.72.387 5.167 0 7.75-3.875 7.75-11.625v-10.85l.155-13.64v-13.175l-.154-25.265c0-7.337-3.772-11.005-11.316-11.005h-4.804c-7.44 0-11.16 3.617-11.16 10.85 0 2.583.05 4.34.154 5.27l.62 5.735c.104.93.156 2.222.156 3.875 0 6.51-2.015 9.765-6.046 9.765-3.823 0-5.734-2.377-5.734-7.13 0-1.343.103-3.668.31-6.975.31-4.96.465-8.112.465-9.455 0-2.583-.104-5.27-.31-8.06-.414-5.477-.62-7.802-.62-6.975 0-4.34 1.963-6.51 5.89-6.51 1.446 0 4.804.155 10.074.465.517 0 4.754.103 12.71.31l17.67.31c2.067 0 7.595-.103 16.586-.31 1.963 0 5.32-.155 10.074-.465 4.237-.31 7.544-.465 9.92-.465 5.167 0 7.75 2.118 7.75 6.355v.31c0 1.033-.13 2.945-.387 5.735-.258 2.79-.542 5.787-.852 8.99v1.705c0 1.55.154 3.978.465 7.285.413 4.34.62 7.027.62 8.06 0 4.237-2.015 6.355-6.046 6.355-3.926 0-5.89-2.583-5.89-7.75 0-1.86.155-4.624.466-8.292.31-3.67.464-6.433.464-8.293 0-7.13-4.08-10.695-12.244-10.695h-4.34c-3.824 0-6.562.8-8.216 2.402-1.653 1.602-2.583 4.263-2.79 7.983l-.465 10.85-.154 52.7zm73.78-79.36l-.62 30.07c4.134-3.927 7.905-6.64 11.316-8.138 3.41-1.498 7.44-2.247 12.09-2.247 8.886 0 16.016 2.532 21.39 7.595 5.373 5.063 8.06 11.728 8.06 19.995v25.885c0 6.097.05 9.455.154 10.075.414 5.167 1.757 7.75 4.03 7.75.827 0 2.015-.207 3.566-.62.62-.103 1.446-.155 2.48-.155 3.823 0 5.735 1.705 5.735 5.115s-2.48 5.115-7.44 5.115c-1.344 0-3.307-.155-5.89-.465-4.34-.517-7.854-.775-10.54-.775-2.687 0-4.754.103-6.2.31-4.34.62-7.027.93-8.06.93-1.86 0-3.41-.542-4.65-1.627-1.24-1.086-1.86-2.455-1.86-4.108 0-1.343.542-2.48 1.627-3.41 1.085-.93 2.35-1.395 3.798-1.395 1.136 0 2.48.258 4.03.775.93.31 1.808.465 2.635.465 3.1 0 4.7-3.358 4.805-10.075 0-1.24.05-3.668.154-7.285l.155-6.665v-8.37c0-10.54-1.033-17.618-3.1-21.235-2.996-5.373-8.266-8.06-15.81-8.06-8.163 0-14.104 2.79-17.825 8.37-2.583 3.823-3.926 9.972-4.03 18.445l-.154 11.16c0 .62-.052 1.653-.155 3.1v2.945c0 5.89.05 9.3.154 10.23.517 5.063 2.015 7.595 4.495 7.595.827 0 1.99-.18 3.488-.542 1.498-.362 2.61-.543 3.332-.543 3.307 0 4.96 1.602 4.96 4.805 0 3.617-2.273 5.425-6.82 5.425-1.446 0-3.616-.155-6.51-.465-3.926-.413-7.284-.62-10.074-.62-1.757 0-4.185.155-7.286.465-4.133.413-6.768.62-7.904.62-4.237 0-6.356-1.86-6.356-5.58 0-3.1 1.964-4.65 5.89-4.65 1.344 0 2.325.103 2.946.31 1.756.31 2.996.465 3.72.465 1.653 0 2.764-1.576 3.332-4.727.568-3.152.904-9.585 1.008-19.298l.154-27.745c0-15.5-.31-25.29-.93-29.373-.62-4.08-2.066-6.122-4.34-6.122-.723 0-1.808.155-3.255.465-1.446.31-2.583.465-3.41.465-3.513 0-5.27-1.653-5.27-4.96 0-1.447.62-2.687 1.86-3.72 1.24-1.033 2.74-1.55 4.495-1.55.517 0 2.274.155 5.27.465 1.964.207 4.082.31 6.356.31.93 0 2.22-.103 3.875-.31 1.653-.207 2.84-.31 3.565-.31 2.376 0 3.564 1.705 3.564 5.115v.31zm144.77 54.25c0 3.927-.258 6.33-.774 7.207-.517.88-2.015 1.318-4.495 1.318h-49.29c-1.344 0-2.222.18-2.635.542-.414.362-.62.956-.62 1.783 0 7.75 2.324 14.208 6.974 19.375s10.437 7.75 17.36 7.75c4.547 0 8.706-1.24 12.478-3.72 3.772-2.48 6.226-5.632 7.362-9.455l1.395-4.495c.724-2.48 2.43-3.72 5.115-3.72 3.824 0 5.736 1.963 5.736 5.89 0 6.717-3.41 12.684-10.23 17.903-6.82 5.218-14.57 7.827-23.25 7.827-10.85 0-19.48-3.642-25.885-10.927-6.407-7.286-9.61-17.076-9.61-29.373 0-12.607 3.41-22.837 10.23-30.69 6.82-7.853 15.706-11.78 26.66-11.78 9.713 0 17.72 3.255 24.025 9.765 6.303 6.51 9.454 14.777 9.454 24.8zm-56.264-4.03c0 1.447 1.136 2.17 3.41 2.17h37.045c2.17 0 3.255-.723 3.255-2.17 0-5.477-2.067-10.23-6.2-14.26-4.134-4.03-8.99-6.045-14.57-6.045-5.787 0-11.057 2.092-15.81 6.278-4.754 4.185-7.13 8.86-7.13 14.027zm92.07-13.02l17.824 52.39 18.91-51.615c.517-1.447.776-2.583.776-3.41 0-1.757-1.19-2.635-3.566-2.635-1.24 0-2.22.103-2.944.31-1.654.207-2.74.31-3.255.31-3.41 0-5.115-1.653-5.115-4.96 0-3.513 2.22-5.27 6.664-5.27.62 0 1.654.103 3.1.31l5.58.775c1.447.207 2.997.31 4.65.31 1.757 0 4.34-.207 7.75-.62 3.41-.413 5.994-.62 7.75-.62 4.444 0 6.665 1.705 6.665 5.115 0 3.307-1.704 4.96-5.115 4.96-1.033 0-1.808-.103-2.325-.31-1.343-.31-2.273-.465-2.79-.465-1.963 0-3.978 2.635-6.044 7.905l-21.08 52.7c-4.65 11.677-9.042 20.15-13.175 25.42-7.027 8.99-15.81 13.485-26.35 13.485-6.304 0-11.6-1.602-15.888-4.805-4.288-3.203-6.433-7.078-6.433-11.625 0-3.203.93-5.812 2.79-7.827 1.86-2.016 4.29-3.023 7.285-3.023 2.377 0 4.34.697 5.89 2.093 1.55 1.395 2.326 3.125 2.326 5.192 0 3.307-1.5 5.425-4.495 6.355 1.55 2.273 4.494 3.41 8.834 3.41 5.477 0 10.41-2.04 14.803-6.123 4.392-4.08 6.588-8.654 6.588-13.717 0-2.583-1.395-7.388-4.186-14.415l-17.05-43.09-1.86-4.96c-1.756-4.65-3.77-6.975-6.045-6.975-.62 0-1.73.155-3.332.465-1.602.31-2.66.465-3.178.465-3.616 0-5.424-1.653-5.424-4.96 0-3.513 2.376-5.27 7.13-5.27 1.55 0 2.738.052 3.564.155l6.2.775h1.24c.724.103 1.344.155 1.86.155 3.72 0 7.7-.207 11.935-.62 3.204-.31 5.322-.465 6.356-.465 4.34 0 6.51 1.705 6.51 5.115s-1.964 5.115-5.89 5.115c-.62 0-1.602-.13-2.945-.387-1.344-.26-2.325-.388-2.946-.388-1.446 0-2.17.723-2.17 2.17 0 .827.207 1.86.62 3.1zm112.84-12.09v16.74l22.475-20.77c3.616-3.307 5.424-5.735 5.424-7.285 0-.827-.206-1.447-.62-1.86-.413-.413-1.084-.878-2.014-1.395-1.964-1.447-2.946-3.358-2.946-5.735 0-2.687.93-4.857 2.79-6.51 1.86-1.653 4.29-2.48 7.285-2.48 1.964 0 4.83.258 8.603.775 3.772.517 6.64.775 8.602.775 2.17 0 5.167-.31 8.99-.93 2.584-.413 4.805-.62 6.666-.62 3.41 0 6.122.956 8.137 2.867 2.015 1.912 3.023 4.52 3.023 7.828 0 2.997-.8 5.554-2.403 7.672-1.602 2.12-3.487 3.178-5.657 3.178-.724 0-1.73-.18-3.023-.543-1.292-.36-2.3-.542-3.023-.542-1.24 0-2.996.878-5.27 2.635l-2.79 2.17-15.034 13.175c-3.1 2.687-4.65 4.598-4.65 5.735 0 .62.568 1.912 1.705 3.875l4.03 7.13 11.005 18.755c4.03 6.923 7.233 10.385 9.61 10.385.62 0 1.68-.18 3.177-.542 1.498-.362 2.66-.543 3.487-.543 5.58 0 8.37 3.41 8.37 10.23 0 3.41-1.033 6.148-3.1 8.215-2.066 2.067-4.804 3.1-8.215 3.1-1.963 0-4.288-.207-6.975-.62-4.03-.62-7.646-.93-10.85-.93-1.86 0-4.624.258-8.292.775s-6.432.775-8.293.775c-2.686 0-4.96-.827-6.82-2.48-1.86-1.653-2.79-3.72-2.79-6.2 0-2.377 1.447-4.753 4.34-7.13 1.344-1.033 2.016-2.17 2.016-3.41 0-1.137-.827-3.152-2.48-6.045l-8.216-14.26c-1.86-3.307-3.15-4.96-3.875-4.96-.62 0-1.188.258-1.705.775l-1.55 1.55-9.144 7.595v10.695c.31 2.17 1.343 3.255 3.1 3.255.103 0 .36-.052.774-.155h.93c.31-.103.775-.155 1.395-.155 4.547 0 6.82 3.203 6.82 9.61 0 3.41-.93 6.148-2.79 8.215-1.86 2.067-4.39 3.1-7.594 3.1-1.447 0-3.565-.207-6.355-.62-3.204-.413-5.374-.672-6.51-.775-1.55-.103-3.36-.155-5.425-.155-2.377 0-5.813.258-10.308.775s-7.88.775-10.153.775c-3.306 0-5.993-1.033-8.06-3.1-2.066-2.067-3.1-4.805-3.1-8.215 0-2.997.8-5.45 2.403-7.363 1.602-1.91 3.642-2.867 6.122-2.867.827 0 2.04.18 3.643.543 1.602.36 2.816.542 3.643.542 2.79 0 4.185-3.513 4.185-10.54V122.84c0-3.307-.104-5.425-.31-6.355-.517-2.687-1.81-4.03-3.875-4.03-.827 0-2.04.18-3.643.543-1.602.36-2.867.542-3.798.542-2.376 0-4.365-.982-5.967-2.945-1.602-1.963-2.403-4.392-2.403-7.285 0-3.513 1.008-6.277 3.023-8.293 2.015-2.015 4.727-3.022 8.137-3.022 2.274 0 5.76.258 10.463.775 4.702.517 8.292.775 10.773.775 1.963 0 4.908-.258 8.834-.775 3.927-.517 6.872-.775 8.836-.775 3.1 0 5.58 1.033 7.44 3.1 1.86 2.067 2.79 4.857 2.79 8.37 0 6.2-2.274 9.3-6.82 9.3h-1.396c-.413-.103-1.033-.155-1.86-.155-1.653 0-2.634 1.085-2.944 3.255v5.425zm113.304 1.085v7.44c7.957-9.3 16.947-13.95 26.97-13.95 10.747 0 18.342 4.03 22.785 12.09 2.377 4.133 3.566 10.643 3.566 19.53v23.25c0 5.27 1.033 7.905 3.1 7.905.516 0 1.29-.155 2.324-.465.517-.207 1.292-.31 2.326-.31 4.546 0 6.82 2.687 6.82 8.06 0 7.13-3.1 10.695-9.3 10.695-1.654 0-4.134-.207-7.44-.62-3.307-.413-5.787-.62-7.44-.62-2.584 0-5.322.207-8.216.62-2.893.413-5.27.62-7.13.62-6.096 0-9.145-3.152-9.145-9.455 0-5.477 2.12-8.37 6.355-8.68 2.79-.207 4.185-1.498 4.185-3.875v-21.7c0-5.993-.774-10.204-2.324-12.632-1.55-2.43-4.185-3.643-7.905-3.643-4.237 0-7.725 1.447-10.463 4.34-2.738 2.893-4.108 6.562-4.108 11.005v16.12c0 4.65.207 7.466.62 8.448.414.98 1.602 1.627 3.565 1.937 3.72.517 5.58 3.307 5.58 8.37 0 6.51-2.738 9.765-8.215 9.765-1.55 0-3.46-.155-5.735-.465-3.823-.517-6.664-.775-8.524-.775-1.86 0-4.625.207-8.293.62-3.668.413-6.432.62-8.292.62-6.51 0-9.765-3.462-9.765-10.385 0-5.787 2.48-8.68 7.44-8.68.826 0 1.756.18 2.79.542 1.033.362 1.808.543 2.325.543 1.756 0 2.635-2.893 2.635-8.68v-25.11c0-5.89-.88-8.835-2.635-8.835-.414 0-1.215.18-2.403.543-1.188.36-2.092.542-2.712.542-4.96 0-7.44-2.842-7.44-8.525 0-3.1.852-5.632 2.557-7.595s3.952-2.945 6.743-2.945c.826 0 2.583.258 5.27.775 1.55.31 2.893.465 4.03.465 1.24 0 3.358-.207 6.354-.62 2.997-.413 4.65-.62 4.96-.62 2.79 0 4.185 1.447 4.185 4.34zm112.375 76.26c-12.813 0-22.707-3.617-29.682-10.85-6.975-7.233-10.463-17.412-10.463-30.535 0-13.02 3.462-23.172 10.385-30.457 6.924-7.286 16.637-10.928 29.14-10.928 12.297 0 21.985 3.617 29.063 10.85 7.078 7.233 10.618 17.153 10.618 29.76 0 13.227-3.436 23.56-10.308 31-6.872 7.44-16.456 11.16-28.753 11.16zm-.62-63.705c-4.546 0-8.137 1.99-10.772 5.968-2.635 3.978-3.952 9.43-3.952 16.352 0 7.027 1.317 12.503 3.952 16.43 2.635 3.927 6.33 5.89 11.082 5.89 9.61 0 14.415-7.44 14.415-22.32 0-14.88-4.908-22.32-14.725-22.32zm80.446 6.975l6.664 33.17 9.92-45.725c1.034-4.547 2.558-7.57 4.573-9.067 2.015-1.5 5.71-2.248 11.082-2.248 6.097 0 10.1.75 12.013 2.248 1.912 1.498 3.436 5.14 4.572 10.927l8.836 43.865 8.215-34.72c.206-.827.31-1.55.31-2.17 0-1.55-1.24-2.325-3.72-2.325-5.064-.103-7.595-2.997-7.595-8.68 0-6.097 2.944-9.145 8.835-9.145 1.756 0 4.34.207 7.75.62 3.41.413 5.993.62 7.75.62 1.653 0 4.133-.207 7.44-.62 3.306-.413 5.786-.62 7.44-.62 2.686 0 4.856.878 6.51 2.635 1.653 1.757 2.48 4.082 2.48 6.975 0 2.687-.672 4.882-2.016 6.587-1.343 1.706-3.048 2.558-5.115 2.558-.723 0-1.24-.052-1.55-.155-1.446-.207-2.22-.31-2.325-.31-1.343 0-2.53 1.86-3.564 5.58 0 .103-.466 1.55-1.395 4.34l-12.865 40.3c-2.067 6.613-4.805 9.92-8.216 9.92-1.033 0-2.583-.155-4.65-.465-2.066-.31-3.616-.465-4.65-.465-1.033 0-2.53.155-4.495.465-1.963.31-3.41.465-4.34.465-3.823 0-6.51-4.03-8.06-12.09l-7.594-40.765-8.99 39.525c-1.344 5.89-2.455 9.584-3.333 11.083-.878 1.498-2.402 2.247-4.572 2.247-1.137 0-2.687-.155-4.65-.465-1.964-.31-3.67-.465-5.115-.465-1.137 0-2.79.155-4.96.465-2.17.31-3.824.465-4.96.465-3.204 0-5.53-2.635-6.976-7.905l-12.4-47.12c-.723-3.203-2.118-4.805-4.184-4.805-.414 0-1.06.077-1.938.233-.878.155-1.524.232-1.938.232-4.34 0-6.51-2.997-6.51-8.99 0-6.717 3.05-10.075 9.146-10.075 1.653 0 4.107.207 7.362.62 3.255.413 5.71.62 7.362.62 1.757 0 4.444-.207 8.06-.62 3.617-.413 6.304-.62 8.06-.62 5.58 0 8.37 3.1 8.37 9.3 0 5.27-2.014 8.06-6.044 8.37-1.964.207-3.178.44-3.643.697-.465.26-.697.905-.697 1.938v1.395c0 .413.103 1.137.31 2.17z" fill="#FFF" fill-rule="evenodd"/></svg>