<svg width="1500" height="300" viewBox="0 0 1500 300" xmlns="http://www.w3.org/2000/svg"><g fill="none" fill-rule="evenodd"><path d="M363.158 267.94H106V139.36h257.158v128.58z" fill="#828282"/><path d="M108.707 272H360.45V148.835H108.708V272z" opacity=".5" fill="#5E5E5E"/><path d="M349.623 196.206H119.535V31.084h230.088v165.122z" fill="#FFF"/><path d="M238.64 70.334h-92.036V56.8h92.035v13.534zM322.554 104.17h-175.95V90.637h175.95v13.535zM322.554 138.007h-175.95v-13.534h175.95v13.534zM322.554 171.844h-175.95V158.31h175.95v13.534z" fill="#B5B5B5"/><path d="M322.554 211.094h-175.95v-20.302h175.95v20.302z" fill="#FFB491"/><path d="M106 267.94h257.158V139.36L106 240.87v27.07z" fill="#DBDBDB"/><path d="M234.58 190.115v73.764h128.577v-28.13L240.18 187.62l-5.6 2.495z" opacity=".1" fill="#231F1F"/><path d="M363.158 267.94H106V139.36l257.158 101.51v27.07z" fill="#F2F2F2"/><path d="M459.913 206.533h12.572l21.77-77.81 22.003 77.81H528.6l32.734-111.77 11.346-1.227v-7.59h-37.104v7.59l13.262 1.227-20.008 77.58-3.91 17.555-3.756-14.642-20.85-80.493 13.337-1.227v-7.59h-41.778v7.59l12.42 1.227 4.29 13.8-16.25 66.08-4.753 13.952c-1.61-4.983-3.144-9.89-4.678-14.872L438.908 94.84l14.488-1.304v-7.59h-41.013v7.59l9.966 1.227 37.563 111.77zM566.65 205h49.138v-6.516l-21.848-1.84v-59.948c4.676-2.913 9.89-5.366 18.168-5.366 7.053 0 10.273 1.303 13.57 2.606V118.22c-1.15-.383-4.064-.536-7.437-.536-9.35 0-22.384 7.513-26.217 13.34v-11.807l-3.603-1.533-20.238 6.056v4.753l10.886 5.98v62.4l-12.42 1.61V205zm84.698-105.408c5.75 0 11.5-4.37 11.5-11.115 0-5.213-2.99-9.506-9.737-9.506-5.442 0-11.42 4.83-11.42 11.193 0 5.903 4.675 9.43 9.658 9.43zM634.406 205h39.557v-6.516l-12.42-1.61v-77.657l-3.45-1.533-21.234 6.056v4.753l10.578 5.596v62.784l-13.032 1.61V205zm53.01-20.085c0 15.562 6.44 21.925 17.557 21.925 7.052 0 19.24-2.76 23.84-7.82l-2.375-6.746c-2.53 1.534-10.35 3.757-15.563 3.757-8.28 0-8.97-4.83-8.97-28.517v-38.637h25.76v-9.66h-25.76V98.75h-7.588c-.307 2.605-3.296 13.798-4.83 17.324-2.223 5.06-4.753 4.753-13.722 7.053v5.75h11.73c0 18.705-.078 37.333-.078 56.038zm46.51-22.538c0 26.908 13.876 44.463 38.56 44.463 11.576 0 25.375-3.22 31.354-8.586l-2.836-6.516c-4.293 2.53-14.796 4.6-22.692 4.6-13.108 0-28.824-6.593-29.667-31.355-.077-.613-.077-1.15-.077-1.763h56.806c.383-3.143.996-7.053.996-12.112 0-.843-.077-1.687-.077-2.53-.843-20.238-11.882-32.35-29.974-31.89-25.145.613-42.394 19.47-42.394 45.69zm14.796-8.203c1.61-21.08 12.112-29.284 23.61-29.284 4.294 0 7.667.92 10.273 2.607 6.517 4.14 8.203 12.65 8.203 21.388 0 1.763 0 3.526-.153 5.29h-41.933zM824.724 205h53.74v-6.516l-20.01-2.3V94.456l27.675 1.457 3.985 14.258 6.286-.69.155-23.533h-91.303l-1.916 23.304 6.976-.152 5.366-13.11 27.828-1.532v101.728l-18.782 2.3V205zm62.054-44.616c-.307 24.3 10.732 46.533 38.867 46.456 22-.077 39.786-18.552 40.016-45.766.23-24.685-12.11-44.693-38.1-44.387-21.234.23-40.4 16.252-40.782 43.697zm40.556 37.87c-16.25-.383-23.84-18.705-23.84-38.56 0-22.002 6.822-35.264 24.147-34.957 16.253.306 23.306 16.405 23.306 37.027 0 23.61-6.286 36.873-23.612 36.49zM978.092 205h53.74v-6.516l-20.01-2.3V94.456l27.675 1.457 3.986 14.258 6.286-.69.152-23.533H958.62l-1.916 23.304 6.976-.152 5.366-13.11 27.828-1.532v101.728l-18.782 2.3V205zm82.176 0h37.487v-6.516l-11.27-1.61v-61.558c7.13-5.06 15.563-6.44 22.386-6.44 16.943 0 18.016 12.343 18.016 36.107v31.89l-12.88 1.61V205h39.098v-6.516l-11.5-1.61v-38.407c.23-28.517-4.83-40.783-25.604-40.783-8.203 0-20.928 4.293-29.897 11.652l.23-13.262.153-33.884-3.603-1.763-24.225 3.22v6.67l13.11 2.76v103.797l-11.5 1.61V205zm93.79-42.623c0 26.908 13.877 44.463 38.56 44.463 11.577 0 25.376-3.22 31.355-8.586l-2.836-6.516c-4.293 2.53-14.796 4.6-22.692 4.6-13.11 0-28.824-6.593-29.667-31.355-.077-.613-.077-1.15-.077-1.763h56.806c.384-3.143.997-7.053.997-12.112 0-.843-.077-1.687-.077-2.53-.843-20.238-11.882-32.35-29.974-31.89-25.144.613-42.393 19.47-42.393 45.69zm14.796-8.203c1.61-21.08 12.113-29.284 23.612-29.284 4.293 0 7.666.92 10.272 2.607 6.516 4.14 8.203 12.65 8.203 21.388 0 1.763 0 3.526-.152 5.29h-41.934zM1232.748 205h36.72v-6.516l-11.422-1.61v-9.2c0-12.265.077-24.53.077-36.796v-14.03c7.742-5.288 15.102-7.665 20.62-7.972 15.563-.69 18.706 7.436 18.706 26.908v41.013l-11.5 1.687V205h37.947v-6.516l-11.73-1.533v-43.39c0-6.668-.69-13.338-1.762-18.167 6.593-3.757 13.57-6.21 20.468-6.517 15.562-.69 18.475 8.586 18.475 28.135v39.864l-10.426 1.61V205h38.1v-6.516l-12.955-1.61v-42.546c0-26.37-6.44-37.257-25.528-36.644-9.737.307-23.306 5.29-30.665 10.886-3.756-8.28-10.35-11.27-21.312-10.886-10.502.307-23.61 6.516-30.434 12.496v-10.963l-3.45-1.533-20.392 6.056v4.753l10.886 5.98v62.324l-10.426 1.687V205z" fill="#FFF"/></g></svg>