<svg width="1500" height="300" viewBox="0 0 1500 300" xmlns="http://www.w3.org/2000/svg"><g fill="#FFF" fill-rule="evenodd"><path d="M232.016 236.614c-15.894 0-30.814-4.14-43.767-11.358l40.362-41.23c.193-.184.323-.426.503-.62 3.283.823 6.656 1.375 10.18 1.375 23.648.064 42.86-18.893 42.933-42.342.027-3.74-.61-7.316-1.523-10.806l-22.55 22.245-24.926-5.35-5.25-24.768 22.598-22.264c-3.525-.974-7.18-1.662-11.026-1.666-23.637-.054-42.864 18.86-42.936 42.334-.018 4.99.993 9.688 2.57 14.134L158.26 198.07c-9.926-14.295-15.76-31.6-15.76-50.243 0-48.954 40.16-88.786 89.514-88.786 49.36 0 89.51 39.833 89.51 88.787 0 48.968-40.15 88.787-89.51 88.787m0-201.067c-62.42 0-113.2 50.374-113.2 112.276 0 61.91 50.78 112.285 113.2 112.285 62.41 0 113.188-50.374 113.188-112.285 0-61.902-50.778-112.276-113.188-112.276M415.487 96.57h-11.7V85.493h67.332c7.737 0 10.796 3.215 10.796 10.904v12.495h-11.7v-8.385c0-2.686-1.44-3.94-3.965-3.94h-38.166v47.15h45.91v11.075h-45.91v56.257h-12.597V96.57zM502.26 85.495h11.892v15.365H502.26V85.495zm.363 50.19c0-2.51-1.44-3.926-3.96-3.926h-7.564v-10.533h12.785c7.74 0 10.986 3.198 10.986 10.883v64.475c0 2.686 1.438 3.926 3.953 3.926h7.563v10.537H513.61c-7.744 0-10.987-3.21-10.987-10.89v-64.472zM566.175 164.264l-19.622-28.75c-2.156-3.048-4.676-3.753-8.282-3.753h-3.78v-10.536h6.664c9.185 0 11.525 1.415 16.92 9.814l12.97 20.012c1.436 2.31 3.062 5.345 3.062 5.345h.355s1.622-3.036 2.88-5.345l13.14-20.012c5.4-8.215 7.57-9.814 16.928-9.814h6.486v10.537h-3.61c-3.774 0-6.477.526-8.458 3.57l-19.622 28.934 31.69 46.79h-14.408L577.34 177.65c-1.433-2.327-2.88-5.003-2.88-5.003h-.354s-1.446 2.5-3.063 5.002l-22.15 33.4h-14.22l31.502-46.788zM621.09 199.965h6.664c2.52 0 3.78-1.24 3.96-3.912l8.826-110.555h12.778l33.482 73.04c3.063 6.436 6.305 14.82 6.305 14.82h.364s3.233-8.384 6.116-14.82l33.487-73.04h12.79l8.82 110.555c.18 2.672 1.434 3.912 3.958 3.912h6.828v11.084h-12.225c-7.748 0-10.443-3.216-10.986-10.892l-5.942-76.252c-.54-6.786-.54-17.502-.54-17.502h-.363s-3.417 11.067-6.476 17.502l-30.07 63.75h-11.343l-29.885-63.75c-2.88-6.26-6.66-17.86-6.66-17.86h-.355s0 11.074-.548 17.86l-5.942 76.252c-.54 7.676-3.234 10.89-10.976 10.89H621.09v-11.083zM789.976 237.653c7.927 0 13.317-6.43 16.743-14.632l5.402-12.327-31.874-74.824c-1.433-3.22-3.072-4.11-6.3-4.11h-1.802v-10.532h5.574c8.106 0 10.64 1.774 13.86 9.81l23.233 56.08c1.81 4.465 3.242 9.647 3.242 9.647h.364s1.248-5.182 3.062-9.647l22.317-56.08c3.066-8.036 5.77-9.81 14.047-9.81h5.578v10.532h-1.8c-3.248 0-5.044.89-6.293 4.11l-39.078 93.937c-4.675 11.426-13.86 18.742-25.923 18.742-12.61 0-19.62-8.75-19.62-8.75l5.752-8.928c0 .184 5.767 6.78 13.514 6.78M972.9 110.674c0 8.583-7.76 13.397-14.407 13.397-3.782 0-7.024-1.427-10.81-6.42-.894-1.263-1.617-2.498-2.7-3.756-3.97-5.183-10.796-8.57-21.05-8.57-12.777 0-21.625 4.65-21.625 12.85 0 2.866.907 5.538 3.602 7.69 2.708 2.142 7.2 3.386 16.038 5.708 27.89 7.504 30.787 8.223 37.26 12.323 7.746 5.013 16.02 14.47 16.02 29.112 0 13.043-6.302 23.386-14.763 30.006-10.442 8.035-23.952 10.712-37.264 10.712-13.14 0-24.66-2.143-34.213-6.782-19.083-9.467-20.345-21.603-20.345-24.827 0-8.754 7.208-14.107 14.057-14.107 5.94 0 9.714 3.744 13.86 9.825 3.956 5.888 8.64 12.5 26.83 12.5 4.127 0 8.627-.36 12.584-1.963 1.45-.54 9.548-3.75 9.548-13.043 0-4.995-2.155-7.86-5.214-9.99-3.62-2.505-6.292-3.228-23.242-7.508-20.866-5.538-44.27-11.794-44.27-37.682 0-22.864 18.006-38.215 50.773-38.215 31.496 0 49.33 16.065 49.33 28.74M1018.265 118.176c7.743 0 9.364 0 11.7 1.078 1.625.894 5.047 3.39 5.047 8.75 0 1.786-.552 3.39-1.27 4.83-2.69 5.17-6.297 5.17-15.477 5.17v44.468c0 7.86 2.88 8.763 9.364 8.763 7.382 0 8.82 5.528 8.82 9.27 0 10.904-12.423 11.623-19.452 11.623-24.293 0-24.836-14.12-24.836-24.828v-49.295c-3.06 0-5.947 0-8.466-1.25-.898-.533-4.855-2.68-4.855-8.752 0-1.604.18-3.207.9-4.478 2.514-5.35 7.917-5.35 12.422-5.35v-12.664c.184-4.118.184-8.94 3.418-12.503.723-.732 3.606-4.114 9.714-4.114 1.815 0 3.607.355 5.044.9 7.756 2.855 7.756 10.53 7.927 15.893v12.49zM1044.554 134.075c0-4.285 0-9.28 3.96-13.218 1.614-1.603 4.5-3.39 8.827-3.39 2.327 0 4.32.53 5.574 1.244 7.015 3.405 7.015 11.435 7.015 14.467v2.15c.91-2.86 1.984-5.537 3.597-8.034 3.98-6.966 11.17-10.54 18.733-10.54 9.714 0 13.325 5.892 13.325 11.964 0 3.39-1.073 6.43-3.067 8.394-2.69 2.687-6.288 3.217-9.544 3.392-2.515.175-4.86.175-7.19.543-13.87 2.313-14.04 16.425-14.233 26.427v28.038c0 4.105 0 9.468-3.597 13.038-2.16 2.318-5.753 3.755-9.535 3.755-1.077 0-2.703-.175-4.68-.72-9.004-2.51-9.184-10.54-9.184-16.073v-61.435zM1170.795 153.18c-.72-3.03-1.262-6.238-3.252-9.283-3.404-5-8.996-7.14-15.113-7.14-14.228 0-17.462 10.53-19.442 16.423h37.807zm-37.807 19.47c.548 4.293 1.437 9.647 5.757 14.11 5.767 6.073 12.432 6.073 14.583 6.073 7.213 0 10.81-2.677 12.787-4.464 1.073-1.07 1.967-2.157 3.247-3.028 2.69-2.33 5.398-3.045 7.72-3.045 6.33 0 11.718 5.358 11.718 11.785 0 3.74-1.796 7.684-7.208 11.434-8.273 5.893-18.724 8.026-28.987 8.026-35.094 0-47.346-25.887-47.346-48.2 0-27.517 18.18-48.954 47.71-48.954 33.122 0 42.85 26.444 42.85 43.942 0 11.96-6.48 12.15-11.332 12.32h-51.5zM1268.373 153.18c-.714-3.03-1.253-6.238-3.238-9.283-3.413-5-9-7.14-15.126-7.14-14.21 0-17.458 10.53-19.43 16.423h37.793zm-37.793 19.47c.53 4.293 1.428 9.647 5.758 14.11 5.753 6.073 12.418 6.073 14.57 6.073 7.212 0 10.814-2.677 12.78-4.464 1.08-1.07 1.986-2.157 3.262-3.028 2.69-2.33 5.398-3.045 7.73-3.045 6.305 0 11.703 5.358 11.703 11.785 0 3.74-1.8 7.684-7.2 11.434-8.285 5.893-18.72 8.026-28.985 8.026-35.1 0-47.356-25.887-47.356-48.2 0-27.517 18.194-48.954 47.706-48.954 33.13 0 42.846 26.444 42.846 43.942 0 11.96-6.463 12.15-11.33 12.32h-51.484zM1335.724 118.176c7.734 0 9.364 0 11.695 1.078 1.62.894 5.038 3.39 5.038 8.75 0 1.786-.548 3.39-1.262 4.83-2.694 5.17-6.305 5.17-15.472 5.17v44.468c0 7.86 2.874 8.763 9.364 8.763 7.37 0 8.812 5.528 8.812 9.27 0 10.904-12.423 11.623-19.447 11.623-24.288 0-24.832-14.12-24.832-24.828v-49.295c-3.062 0-5.954 0-8.478-1.25-.885-.533-4.855-2.68-4.855-8.752 0-1.604.188-3.207.902-4.478 2.52-5.35 7.922-5.35 12.43-5.35v-12.664c.176-4.118.176-8.94 3.41-12.503.714-.732 3.588-4.114 9.72-4.114 1.813 0 3.6.355 5.043.9 7.738 2.855 7.738 10.53 7.93 15.893v12.49z"/></g></svg>