<?xml version="1.0" encoding="UTF-8" standalone="no"?>
<svg width="1500px" height="300px" viewBox="0 0 1500 300" version="1.1" xmlns="http://www.w3.org/2000/svg" xmlns:xlink="http://www.w3.org/1999/xlink">
    <defs></defs>
    <g stroke="none" stroke-width="1" fill="none" fill-rule="evenodd">
        <g>
            <g transform="translate(106.000000, 31.083984)">
                <path d="M257.157545,236.855633 L0,236.855633 L0,108.276861 L257.157545,108.276861 L257.157545,236.855633 Z" fill="#828282"></path>
                <path d="M2.70692152,240.916016 L254.450623,240.916016 L254.450623,117.751086 L2.70692152,117.751086 L2.70692152,240.916016 Z" opacity="0.5" fill="#5E5E5E"></path>
                <path d="M243.622937,165.122213 L13.5346076,165.122213 L13.5346076,0 L243.622937,0 L243.622937,165.122213 Z" fill="#FFFFFF"></path>
                <path d="M132.639155,39.2503621 L40.6038229,39.2503621 L40.6038229,25.7157545 L132.639155,25.7157545 L132.639155,39.2503621 Z" fill="#B5B5B5"></path>
                <path d="M216.553722,73.0868811 L40.6038229,73.0868811 L40.6038229,59.5522735 L216.553722,59.5522735 L216.553722,73.0868811 Z" fill="#B5B5B5"></path>
                <path d="M216.553722,106.9234 L40.6038229,106.9234 L40.6038229,93.3887926 L216.553722,93.3887926 L216.553722,106.9234 Z" fill="#B5B5B5"></path>
                <path d="M216.553722,140.759919 L40.6038229,140.759919 L40.6038229,127.225312 L216.553722,127.225312 L216.553722,140.759919 Z" fill="#B5B5B5"></path>
                <path d="M216.553722,180.010281 L40.6038229,180.010281 L40.6038229,159.70837 L216.553722,159.70837 L216.553722,180.010281 Z" fill="#FFB491"></path>
                <path d="M0,236.855633 L257.157545,236.855633 L257.157545,108.276861 L0,209.786418 L0,236.855633 Z" fill="#DBDBDB"></path>
                <path d="M128.578502,159.031098 L128.578502,232.79471 L257.157274,232.79471 L257.157274,204.667088 L134.180476,156.53667 L128.578502,159.031098 Z" opacity="0.1" fill="#231F1F"></path>
                <path d="M257.157545,236.855633 L0,236.855633 L0,108.276861 L257.157545,209.786418 L257.157545,236.855633 Z" fill="#F2F2F2"></path>
            </g>
            <g transform="translate(412.000000, 57.000000)" font-size="157.077327" font-family="Merriweather" fill="#FFFFFF" font-weight="normal">
                <text>
                    <tspan x="0" y="147.116523">W</tspan>
                </text>
                <text>
                    <tspan x="146.396069" y="147.116523">r</tspan>
                </text>
                <text>
                    <tspan x="214.724706" y="147.116523">i</tspan>
                </text>
                <text>
                    <tspan x="255.250657" y="147.116523">t</tspan>
                </text>
                <text>
                    <tspan x="315.411273" y="147.116523">e</tspan>
                </text>
                <text>
                    <tspan x="389.394694" y="147.116523">T</tspan>
                </text>
                <text>
                    <tspan x="467.147971" y="147.116523">o</tspan>
                </text>
                <text>
                    <tspan x="542.859243" y="147.116523">T</tspan>
                </text>
                <text>
                    <tspan x="639.618877" y="147.116523">h</tspan>
                </text>
                <text>
                    <tspan x="734.964814" y="147.116523">e</tspan>
                </text>
                <text>
                    <tspan x="810.361931" y="147.116523">m</tspan>
                </text>
            </g>
        </g>
    </g>
</svg>