<svg width="160" height="160" viewBox="0 0 160 160" xmlns="http://www.w3.org/2000/svg"><title>Artboard</title><path d="M80.005 143.26c-11.234 0-21.778-2.95-30.932-8.092L77.6 105.792c.135-.13.227-.304.354-.442 2.32.586 4.704.98 7.196.98 16.712.044 30.29-13.463 30.342-30.17.02-2.666-.432-5.213-1.076-7.7L98.478 84.31 80.862 80.5l-3.71-17.65 15.972-15.86c-2.492-.696-5.076-1.185-7.793-1.188-16.705-.04-30.293 13.436-30.344 30.163-.013 3.555.702 6.902 1.816 10.07L27.88 115.798C20.863 105.613 16.74 93.283 16.74 80c0-34.88 28.384-63.26 63.265-63.26 34.884 0 63.26 28.38 63.26 63.26 0 34.89-28.376 63.26-63.26 63.26m0-143.26C35.89 0 0 35.89 0 79.997 0 124.11 35.89 160 80.005 160 124.113 160 160 124.11 160 79.997 160 35.89 124.113 0 80.005 0" fill="#FFD836" fill-rule="evenodd"/></svg>