<svg width="200" height="200" viewBox="0 0 200 200" xmlns="http://www.w3.org/2000/svg"><title>icon-people</title><g fill="none" fill-rule="evenodd"><path d="M116.923 121.234l-21.71-10.854c-2.804-1.403-4.577-4.27-4.577-7.405v-8.52c.61-.694 1.31-1.587 2.055-2.64 2.958-4.18 5.196-8.776 6.75-13.6 2.78-.858 4.833-3.43 4.833-6.488v-9.09c0-2-.89-3.79-2.273-5.04V44.456S104.698 24 77 24c-27.7 0-25 20.455-25 20.455v13.143c-1.384 1.25-2.273 3.038-2.273 5.038v9.09c0 2.397 1.26 4.504 3.143 5.722 2.27 9.89 8.22 17.007 8.22 17.007v8.306c0 3.033-1.654 5.82-4.315 7.272L36.5 121.092c-5.857 3.192-9.5 9.33-9.5 16.003V144.455c0 6.277 22.386 11.363 50 11.363s50-5.086 50-11.363v-6.913c0-6.908-3.902-13.22-10.077-16.308z" fill="#A3D5F6"/><path d="M174 159.814c0-6.907-3.902-13.22-10.077-16.307l-25.062-10.855c-1.37-.684-2.485-2.145-3.27-3.725-.71-1.43.35-3.11 1.942-3.11h17.65s6.473.622 11.463-1.522c2.923-1.256 3.932-4.925 2.103-7.53-5.348-7.61-16.4-25.533-16.757-44.042 0 0-.613-28.49-28.722-28.723-16.398.136-24.143 9.79-27.75 17.807-2.013 4.475-2.875 9.352-3.2 14.248-1.166 17.643-10.15 34.297-14.336 41.195-1.42 2.34-.734 5.452 1.616 6.857 3.85 2.302 8.563 1.71 8.563 1.71h18.067c1.762 0 2.54 2.226 1.155 3.317-1.127.89-2.2 1.693-2.782 2.01l-21.1 12.22c-5.857 3.193-9.5 9.33-9.5 16.004v5.087c0 6.277 22.386 11.363 50 11.363s50-5.086 50-11.363v-4.641" fill="#4FADED"/></g></svg>