<svg width="200" height="200" viewBox="0 0 200 200" xmlns="http://www.w3.org/2000/svg"><title>icon-star</title><defs><radialGradient fx="50%" fy="50%" r="27.897%" id="a"><stop stop-color="#FFF5C8" offset="0%"/><stop stop-color="#FFF5C8" offset="30.206%"/><stop stop-color="#FFF5C8" stop-opacity="0" offset="100%"/></radialGradient></defs><g fill="none" fill-rule="evenodd"><path d="M100.398 95.88l-.06-.262L209.877-38.495l-71.903-35.07L100 94.124 62.027-73.564l-71.903 35.07L99.66 95.617l-.058.263-.537.26-155.27-76.54L-74.2 97.55l171.837-.72-154.932 74.76 50.346 62.173L99.118 96.823l.69-.003L60 266h80L100.193 96.82l.69.003 106.066 136.94 50.345-62.172-154.932-74.76 171.838.72-17.995-77.95-155.27 76.54-.537-.26zm.1.448l.007.024.01-.005-.016-.02zm-.37.21l-.117-.492.32.392-.203.1zm-.14-.492l-.115.492-.204-.1.32-.392zm-.493.306l-.01-.005.016-.02-.005.025z" fill="url(#a)" transform="rotate(1 100 96.218)"/><path fill="#FFD836" d="M102.946 38.155l16.688 38.808 41.428 8.253-31.75 27.866 4.95 41.95-36.31-21.588-38.37 17.675 9.31-41.205-28.665-31.032 42.066-3.877 20.653-36.85"/></g></svg>