<svg width="200" height="200" viewBox="0 0 200 200" xmlns="http://www.w3.org/2000/svg"><title>icon-money</title><g fill="none" fill-rule="evenodd"><circle fill="#FFD947" cx="83" cy="41" r="13"/><circle fill="#FFD947" cx="114" cy="19" r="18"/><path d="M153.214 96.484l-.507 3.696c-.994 7.222-6.845 10.25-9.4 17.08l-1.37 3.665c-3.473-8.498-9.444-15.7-17.01-20.7 7.796-4.013 14.374-8.492 23.457-9.383l1.732-.17c-7.203-12.03-17.88-17.997-30.45-20.632.734 2.128 1.15 4.4 1.15 6.776 0 2.618-.514 5.11-1.403 7.413-4.883-2.702-10.658-4.446-16.756-4.945-1.935-.21-3.88-.23-5.82-.076-4.287.2-8.4.97-12.23 2.374-1.51.552-2.923 1.218-4.294 1.935-.72-2.107-1.13-4.355-1.13-6.704 0-2.375.417-4.648 1.152-6.776-12.57 2.635-23.248 8.6-30.45 20.633l1.73.17c9.084.89 15.662 5.37 23.46 9.383-7.568 4.998-13.54 12.2-17.01 20.7l-1.373-3.667c-2.554-6.83-8.405-9.858-9.396-17.08l-.51-3.696C42.46 105.62 40 116 40 127.02c0 20.645 8.59 39.076 22.04 51.2v-15.49c5.7 8.744 14.315 15.418 24.49 18.582v10.136c4.333 1.097 8.837 1.695 13.47 1.695 4.633 0 9.137-.598 13.47-1.695v-10.136c10.175-3.164 18.79-9.838 24.49-18.583v15.49c13.45-12.124 22.04-30.555 22.04-51.2 0-11.02-2.46-21.4-6.786-30.536" fill="#FFAEC9"/><path d="M145.306 138.04c0 25.022-20.285 45.307-45.306 45.307-25.02 0-45.306-20.285-45.306-45.306 0-25.02 20.285-45.305 45.306-45.305 25.02 0 45.306 20.285 45.306 45.306" fill="#F9C7DB"/><path d="M113.47 181.312v13.526c0 .416.337.754.756.754h18.367c2.964 0 5.366-2.403 5.366-5.366V162.73c-5.7 8.744-14.315 15.418-24.49 18.582M62.04 162.73v27.93c0 2.723 2.21 4.932 4.933 4.932h18.77c.435 0 .788-.353.788-.79v-13.49c-10.175-3.164-18.79-9.838-24.49-18.583M148.384 90.842c-9.083.89-15.66 5.37-23.458 9.384 7.567 4.998 13.538 12.2 17.01 20.7l1.372-3.667c2.554-6.83 8.405-9.858 9.4-17.08l1.358-9.894-5.682.556M58.064 120.925c3.472-8.498 9.443-15.7 17.01-20.7-7.797-4.013-14.375-8.492-23.458-9.383l-5.682-.556 1.362 9.894c.99 7.222 6.842 10.25 9.396 17.08l1.372 3.665M120.816 153.96c0 10.82-8.772 19.59-19.592 19.59-10.82 0-19.59-8.77-19.59-19.59s8.77-19.593 19.59-19.593 19.592 8.773 19.592 19.592" fill="#E584A4"/><path d="M87.755 117.224c-2.02 0-3.673 1.654-3.673 3.674s1.653 3.673 3.673 3.673 3.674-1.652 3.674-3.672c0-2.02-1.654-3.674-3.675-3.674M114.694 117.224c-2.02 0-3.674 1.654-3.674 3.674s1.653 3.673 3.674 3.673c2.02 0 3.673-1.652 3.673-3.672 0-2.02-1.653-3.674-3.673-3.674" fill="#556080"/><path d="M95.102 149.06c-2.02 0-3.673 1.654-3.673 3.675 0 2.02 1.652 3.673 3.672 3.673 2.02 0 3.674-1.653 3.674-3.673s-1.654-3.674-3.674-3.674M107.347 149.06c-2.02 0-3.674 1.654-3.674 3.675 0 2.02 1.654 3.673 3.674 3.673s3.673-1.653 3.673-3.673-1.653-3.674-3.673-3.674" fill="#FFAEC9"/><path d="M84.606 81.584c3.832-1.403 7.944-2.174 12.23-2.375 1.94-.155 3.886-.136 5.82.075 6.1.5 11.874 2.243 16.757 4.944.89-2.305 1.403-4.796 1.403-7.414C120.816 65.32 111.496 56 100 56c-11.496 0-20.816 9.32-20.816 20.816 0 2.35.41 4.597 1.13 6.703 1.37-.718 2.783-1.384 4.292-1.936" fill="#FFD947"/><path d="M126.456 91.868c-.627 0-1.254-.238-1.73-.715-5.996-5.995-15.626-9.57-25.77-9.57h-.038c-9.926.01-18.706 3.34-24.72 9.374-.956.96-2.508.962-3.463.005-.958-.953-.96-2.503-.008-3.463 6.94-6.964 16.952-10.806 28.188-10.816h.042c11.414 0 22.34 4.112 29.23 11.003.956.958.956 2.508 0 3.466-.477.477-1.104.715-1.73.715" fill="#FFAEC9"/></g></svg>