<svg width="200" height="200" viewBox="0 0 200 200" xmlns="http://www.w3.org/2000/svg"><title>icon-maps</title><g fill="none" fill-rule="evenodd"><path fill="#F1F3EB" d="M176.37 79.545H24.14l-12.095 95.97h174.63l-10.306-95.97"/><path d="M51.052 159.03c-.77 0-1.54-.048-2.307-.14-.65-.08-1.31-.202-1.96-.373-1.604-.414-2.567-2.05-2.153-3.654.414-1.605 2.05-2.58 3.654-2.15.396.098.792.173 1.19.224 1.21.15 2.43.11 3.643-.045 1.655-.195 3.146.957 3.353 2.6.207 1.645-.96 3.145-2.604 3.352-.94.12-1.885.186-2.818.186zm13.95-3.474c-1.203 0-2.337-.73-2.796-1.92-.597-1.545.17-3.285 1.716-3.88 1.776-.683 3.564-1.448 5.322-2.276 1.51-.705 3.288-.054 3.99 1.443.705 1.5.06 3.288-1.44 3.99-1.884.885-3.807 1.704-5.71 2.44-.356.137-.72.203-1.082.203zm-25.038-5.2c-1.52 0-2.826-1.148-2.982-2.693-.06-.59-.087-1.185-.087-1.776 0-.348.01-.696.027-1.04.07-1.405.297-2.827.675-4.22.43-1.604 2.09-2.555 3.675-2.11 1.6.43 2.547 2.075 2.112 3.677-.264.978-.42 1.97-.468 2.95-.012.245-.02.494-.02.743 0 .387.014.78.056 1.167.165 1.65-1.035 3.12-2.682 3.288-.105.01-.207.015-.306.015zm41.034-2.996c-.98 0-1.944-.48-2.52-1.365-.9-1.392-.504-3.25.882-4.152 1.608-1.038 3.2-2.157 4.743-3.32 1.332-.997 3.204-.724 4.203.587.996 1.326.732 3.207-.588 4.206-1.656 1.245-3.366 2.445-5.088 3.56-.507.33-1.07.484-1.632.484zm14.277-10.947c-.924 0-1.84-.43-2.427-1.233-.978-1.338-.68-3.216.657-4.194.627-.453 1.266-.897 1.923-1.323 1.13-.735 2.343-1.43 3.6-2.064 1.488-.742 3.285-.142 4.03 1.334.743 1.48.146 3.285-1.333 4.03-1.062.53-2.082 1.115-3.03 1.73-.567.37-1.116.75-1.656 1.146-.535.384-1.153.573-1.765.573zm-47.868-1.422c-1.065 0-2.097-.566-2.64-1.568-.79-1.455-.25-3.276 1.21-4.068 1.55-.843 3.212-1.368 4.928-1.557.87-.1 1.78-.096 2.673.024 1.64.217 2.796 1.723 2.58 3.367-.216 1.638-1.68 2.79-3.366 2.58-.4-.05-.816-.05-1.218-.006-.95.103-1.87.397-2.74.868-.455.246-.944.363-1.427.363zm64.302-5.552c-1.387 0-2.632-.966-2.932-2.373-.345-1.623.687-3.22 2.307-3.56 1.926-.412 4.005-.757 6.17-1.027 1.66-.243 3.142.963 3.346 2.61.208 1.64-.962 3.14-2.606 3.345-1.995.25-3.897.564-5.655.936-.214.047-.424.068-.63.068zm17.882-1.85c-1.602 0-2.93-1.264-2.994-2.878-.07-1.656 1.218-3.054 2.874-3.12l5.98-.246c1.65-.15 3.056 1.203 3.134 2.862.075 1.65-1.21 3.054-2.862 3.132l-6.006.246c-.042.003-.087.003-.126.003zm17.934-1.333c-1.395 0-2.643-.975-2.934-2.394-.336-1.622.708-3.21 2.33-3.542 1.735-.357 3.02-.858 4.042-1.578 1.308-1.023 3.303-.855 4.314.45 1.017 1.308.888 3.117-.42 4.134-.162.126-.33.25-.507.366-1.628 1.152-3.683 1.983-6.215 2.505-.204.04-.408.06-.61.06zm12.207-12.087c-.29 0-.59-.045-.885-.135-1.584-.49-2.472-2.172-1.98-3.753.16-.513.258-1.023.29-1.518l.013-.348c0-.687-.13-1.386-.39-2.082-.575-1.554.214-3.28 1.77-3.858 1.543-.573 3.283.216 3.856 1.77.507 1.365.765 2.77.765 4.17 0 .252-.008.5-.023.75-.066.972-.252 1.938-.546 2.892-.398 1.287-1.586 2.112-2.867 2.112zm-15.18-12.324c-1.308 0-2.51-.86-2.883-2.184-.45-1.593.474-3.252 2.07-3.7 2.34-.66 4.79-.86 7.158-.54 1.64.223 2.793 1.732 2.574 3.376-.222 1.64-1.7 2.793-3.375 2.57-1.566-.206-3.174-.068-4.728.364-.27.08-.544.114-.817.114z" fill="#9B9B9B"/><path d="M100.07 16c-24.625 0-30.895 17.546-32.467 29.543-.864 6.576-.38 13.257.99 19.746 7.524 35.678 26.127 57.068 30.53 61.73.517.55 1.375.55 1.89 0 4.402-4.662 23.005-26.052 30.53-61.73 1.37-6.49 1.853-13.17.992-19.747C130.96 33.546 124.69 16 100.07 16zm0 48.8c-8.325 0-15.072-6.75-15.072-15.072 0-8.324 6.747-15.07 15.07-15.07 8.322 0 15.07 6.746 15.07 15.07 0 8.322-6.748 15.07-15.07 15.07z" fill="#4FADED"/></g></svg>