<svg width="200" height="200" viewBox="0 0 200 200" xmlns="http://www.w3.org/2000/svg"><title>icon-tactics</title><g fill="none" fill-rule="evenodd"><path d="M180 100c0 44.184-35.818 80-80 80-44.183 0-80-35.816-80-80 0-44.18 35.817-80 80-80 44.182 0 80 35.82 80 80" fill="#62B356"/><path d="M129.563 71.907l-4.78 4.78c-1.044 1.04-1.044 2.73 0 3.772.52.52 1.202.78 1.884.78.683 0 1.366-.26 1.886-.78l4.78-4.783 4.782 4.782c.52.52 1.203.78 1.886.78.683 0 1.366-.26 1.886-.78 1.043-1.044 1.043-2.732 0-3.772l-4.78-4.78 4.78-4.783c1.043-1.042 1.043-2.73 0-3.77-1.043-1.043-2.728-1.043-3.77 0l-4.782 4.78-4.78-4.78c-1.044-1.043-2.73-1.043-3.772 0-1.043 1.04-1.043 2.728 0 3.77l4.78 4.782z" fill="#38454F"/><path d="M121.105 45.24l4.78-4.78c1.044-1.044 1.044-2.732 0-3.772-1.042-1.043-2.727-1.043-3.77 0l-4.78 4.78-4.782-4.78c-1.043-1.043-2.728-1.043-3.77 0-1.044 1.04-1.044 2.728 0 3.77l4.78 4.782-4.78 4.78c-1.044 1.04-1.044 2.73 0 3.772.52.52 1.202.78 1.884.78.683 0 1.366-.26 1.886-.78l4.78-4.78 4.782 4.78c.52.52 1.203.78 1.886.78.683 0 1.366-.26 1.886-.78 1.043-1.043 1.043-2.73 0-3.77l-4.78-4.782" fill="#94E389"/><path d="M81.563 45.24l-4.78 4.78c-1.044 1.04-1.044 2.73 0 3.772.52.52 1.202.78 1.884.78.683 0 1.366-.26 1.886-.78l4.78-4.78 4.782 4.78c.52.52 1.203.78 1.886.78.683 0 1.366-.26 1.886-.78 1.043-1.043 1.043-2.73 0-3.77l-4.78-4.782 4.78-4.78c1.043-1.044 1.043-2.732 0-3.772-1.043-1.043-2.728-1.043-3.77 0l-4.782 4.78-4.78-4.78c-1.044-1.043-2.73-1.043-3.772 0-1.043 1.04-1.043 2.728 0 3.77l4.78 4.782zM97.563 71.907l-4.78 4.78c-1.044 1.04-1.044 2.73 0 3.772.52.52 1.202.78 1.884.78.683 0 1.366-.26 1.886-.78l4.78-4.783 4.782 4.782c.52.52 1.203.78 1.886.78.683 0 1.366-.26 1.886-.78 1.043-1.044 1.043-2.732 0-3.772l-4.78-4.78 4.78-4.783c1.043-1.042 1.043-2.73 0-3.77-1.043-1.043-2.728-1.043-3.77 0l-4.782 4.78-4.78-4.78c-1.044-1.043-2.73-1.043-3.772 0-1.043 1.04-1.043 2.728 0 3.77l4.78 4.782zM65.563 71.907l-4.78 4.78c-1.044 1.04-1.044 2.73 0 3.772.52.52 1.202.78 1.884.78.683 0 1.366-.26 1.886-.78l4.78-4.783 4.782 4.782c.52.52 1.203.78 1.886.78.683 0 1.366-.26 1.886-.78 1.043-1.044 1.043-2.732 0-3.772l-4.78-4.78 4.78-4.783c1.043-1.042 1.043-2.73 0-3.77-1.043-1.043-2.728-1.043-3.77 0l-4.782 4.78-4.78-4.78c-1.044-1.043-2.73-1.043-3.772 0-1.043 1.04-1.043 2.728 0 3.77l4.78 4.782z" fill="#38454F"/><path d="M150.667 89.24c-7.352 0-13.333 5.98-13.333 13.333 0 7.352 5.98 13.334 13.333 13.334 7.352 0 13.334-5.982 13.334-13.334 0-7.352-5.98-13.333-13.333-13.333zm0 21.333c-4.41 0-8-3.59-8-8s3.59-8 8-8 8 3.59 8 8-3.59 8-8 8zM118.667 89.24c-7.352 0-13.333 5.98-13.333 13.333 0 7.352 5.98 13.334 13.333 13.334 7.352 0 13.334-5.982 13.334-13.334 0-7.352-5.98-13.333-13.333-13.333zm0 21.333c-4.41 0-8-3.59-8-8s3.59-8 8-8 8 3.59 8 8-3.59 8-8 8z" fill="#FFF"/><path d="M100 102.573c0-7.352-5.98-13.333-13.333-13.333-7.352 0-13.333 5.98-13.333 13.333 0 7.352 5.98 13.334 13.333 13.334 7.352 0 13.334-5.982 13.334-13.334zm-13.333 8c-4.41 0-8-3.59-8-8s3.59-8 8-8 8 3.59 8 8-3.59 8-8 8z" fill="#94E389"/><path d="M68 102.573c0-7.352-5.98-13.333-13.333-13.333-7.352 0-13.333 5.98-13.333 13.333 0 7.352 5.98 13.334 13.333 13.334 7.352 0 13.334-5.982 13.334-13.334zm-21.333 0c0-4.41 3.59-8 8-8s8 3.59 8 8-3.59 8-8 8-8-3.59-8-8z" fill="#FFF"/><path d="M102.667 118.573c-7.352 0-13.333 5.982-13.333 13.334 0 7.352 5.98 13.333 13.333 13.333 7.352 0 13.334-5.98 13.334-13.333 0-7.352-5.98-13.334-13.333-13.334zm0 21.334c-4.41 0-8-3.59-8-8s3.59-8 8-8 8 3.59 8 8-3.59 8-8 8z" fill="#E04B4B"/><path d="M68 118.573c-7.35 0-13.333 5.982-13.333 13.334 0 7.352 5.982 13.333 13.334 13.333 7.353 0 13.334-5.98 13.334-13.333 0-7.352-5.98-13.334-13.333-13.334zm0 21.334c-4.41 0-8-3.59-8-8s3.59-8 8-8 8 3.59 8 8-3.59 8-8 8z" fill="#FFF"/><path d="M161.286 134.573c-9.41 0-17.197 6.99-18.5 16.046l-85.452-.047C45.37 150.573 36 142.06 36 131.183V37.012l6.115 6.115c1.043 1.04 2.728 1.04 3.77 0 .52-.52.782-1.202.782-1.885s-.26-1.365-.78-1.885L35.218 28.688c-.003-.003-.003-.005-.006-.005-.475-.472-1.083-.73-1.7-.77h-.004c-.17-.01-.333-.006-.504.015H33c-.506.06-1 .272-1.41.63-.003 0-.003 0-.005.002-.05.045-.102.09-.15.14L20.782 39.356c-1.043 1.04-1.043 2.728 0 3.77 1.043 1.04 2.728 1.04 3.77 0l6.115-6.114v94.174c0 13.864 11.715 24.723 26.667 24.723l85.45.045c1.302 9.056 9.09 16.048 18.502 16.048 10.32 0 18.715-8.395 18.715-18.715 0-10.317-8.394-18.712-18.714-18.712zm0 32.094c-7.376 0-13.38-6.003-13.38-13.382 0-7.376 6.004-13.378 13.38-13.378 7.38 0 13.38 6.002 13.38 13.378 0 7.38-6 13.382-13.38 13.382z" fill="#38454F"/></g></svg>