<svg width="162" height="162" viewBox="0 0 162 162" xmlns="http://www.w3.org/2000/svg" style="background:#4FADED"><title>porthole-democracy</title><g fill="none" fill-rule="evenodd"><path fill="#62B355" d="M0 81h162v81H0z"/><path fill="#E3DBC7" d="M0 55h162v57H0z"/><path fill="#F3F1EC" d="M36.526 63l44.002-30.84L124.53 63"/><path fill="#E3DBC7" d="M40 110.758h80.027V65H40"/><path fill="#C6BFB5" d="M39.58 76.35l80.026 10.055.838-15.028-67.996-9.905"/><path fill="#F3F1EC" d="M37 114h9V63h-9M63 114h8V63h-8M90 114h8V63h-8M116 114h9V63h-9"/><path fill="#E3DBC7" d="M45.308 63.29l35.22-25.024 35.22 25.024"/><path fill="#F3F1EC" d="M36.764 71h88.07v-8h-88.07M84.203 52.022c0 2.11-1.71 3.82-3.82 3.82s-3.82-1.71-3.82-3.82 1.71-3.82 3.82-3.82 3.82 1.71 3.82 3.82M37 114h88.003v-8H37"/><path fill="#6C6B68" d="M76.645 105.968h8.42V95.226h-8.42"/><g fill="#AAA496"><path d="M9.87 79.89h3.62V63H9.87M3.437 79.89h3.62V63h-3.62M16.318 79.97h3.62V63.08h-3.62M22.753 79.97h3.62V63.08h-3.62M29.187 79.97h3.62V63.08h-3.62M9.87 102.89h3.62V86H9.87M3.437 102.89h3.62V86h-3.62M16.318 103.295h3.62v-16.89h-3.62M22.753 103.295h3.62v-16.89h-3.62M29.187 103.295h3.62v-16.89h-3.62"/></g><g fill="#AAA496"><path d="M129.207 79.97h3.62V63.08h-3.62M135.64 79.97h3.62V63.08h-3.62M142.075 79.97h3.62V63.08h-3.62M148.194 79.89h3.62V63h-3.62M154.312 79.89h3.62V63h-3.62M129.207 103.295h3.62v-16.89h-3.62M135.64 103.295h3.62v-16.89h-3.62M142.075 103.295h3.62v-16.89h-3.62M148.194 102.89h3.62V86h-3.62M154.312 102.89h3.62V86h-3.62"/></g><path fill="#6C6B68" opacity=".3" d="M141.488 114.154H125V62.68"/><path fill="#DE4B4B" d="M85.065 95.226H81v10.742h4.062"/><path d="M160.6 111.554c.186-.443.288-.93.288-1.443 0-2.045-1.63-3.703-3.645-3.703-.59 0-1.146.146-1.64.4.022-.23.035-.46.035-.696 0-3.926-3.134-7.11-7-7.11-1.692 0-3.244.61-4.454 1.625-.7-.28-1.457-.44-2.254-.44-2.808 0-5.17 1.922-5.892 4.54-.312-.06-.633-.096-.962-.096-2.82 0-5.076 2.32-5.076 5.184 0 2.403 1.787 4.417 3.82 5.006v.18h25.61c.1 0 .196-.014.292-.03.095.016.19.03.292.03.966 0 1.75-.796 1.75-1.778 0-.772-.487-1.42-1.163-1.668M25.6 111.554c.186-.443.288-.93.288-1.443 0-2.045-1.63-3.703-3.645-3.703-.59 0-1.146.146-1.64.4.022-.23.035-.46.035-.696 0-3.926-3.134-7.11-7-7.11-1.692 0-3.244.61-4.454 1.625-.7-.28-1.457-.44-2.254-.44-2.808 0-5.17 1.922-5.892 4.54-.312-.06-.633-.096-.962-.096-2.82 0-5.076 2.32-5.076 5.184 0 2.403 1.787 4.417 3.82 5.006v.18h25.61c.1 0 .196-.014.292-.03.095.016.19.03.292.03.966 0 1.75-.796 1.75-1.778 0-.772-.487-1.42-1.163-1.668" fill="#519446"/><path d="M40.043 112.82c.095-.267.147-.562.147-.87 0-1.236-.834-2.236-1.864-2.236-.3 0-.585.088-.837.24.01-.138.017-.278.017-.42 0-2.37-1.602-4.292-3.58-4.292-.864 0-1.657.368-2.275.98-.357-.17-.745-.265-1.152-.265-1.436 0-2.642 1.16-3.012 2.74-.16-.036-.324-.057-.492-.057-1.44 0-2.562 1.402-2.562 3.13 0 1.45.824 2.666 1.985 3.022v.176h13.024c.052 0 .1-.042.15-.052.048.01.098 0 .15 0 .493 0 .893-.488.893-1.08 0-.466-.248-.867-.594-1.015" fill="#519446"/><path d="M140.723 113.32c.105-.25.164-.524.164-.812 0-1.15-.932-2.083-2.083-2.083-.337 0-.655.082-.937.224.013-.13.02-.26.02-.392 0-2.21-1.79-4-4-4-.967 0-1.854.343-2.545.914-.4-.158-.833-.247-1.288-.247-1.605 0-2.954 1.08-3.367 2.553-.178-.034-.362-.053-.55-.053-1.61 0-2.9 1.306-2.9 2.916 0 1.352 1.02 2.486 2.182 2.817v.1h14.634c.057 0 .112-.007.167-.016.055.01.11.018.167.018.552 0 1-.448 1-1 0-.434-.278-.8-.664-.938" fill="#62B355"/><path fill="#AD3D3D" d="M81 98.71l4.065-3.484H81"/><path d="M76.562 114l-6.352 49.044c3.523.626 7.125.956 10.79.956 3.53 0 7-.307 10.4-.89L85.063 114h-8.502z" fill="#C9C9A3"/><path d="M36.97 113.695c.072-.2.112-.422.112-.655 0-.928-.627-1.68-1.4-1.68-.228 0-.44.066-.63.18.008-.103.013-.208.013-.314 0-1.782-1.204-3.226-2.69-3.226-.65 0-1.245.277-1.71.738-.268-.128-.56-.2-.866-.2-1.064 0-1.958.847-2.25 2.008.007-.095.015-.19.015-.288 0-2.21-1.79-4-4-4-.968 0-1.854.343-2.546.914-.4-.158-.833-.247-1.29-.247-1.603 0-2.952 1.08-3.365 2.553-.18-.034-.363-.053-.55-.053-1.24 0-2.285.773-2.704 1.86.58 1.296 1.194 2.57 1.843 3.824.048.016.095.033.144.047v.1H36.522c.038 0 .075-.005.11-.013.038.008.075.014.113.014.372 0 .673-.36.673-.806 0-.35-.187-.645-.447-.757" fill="#62B355"/></g></svg>