<svg width="162" height="162" viewBox="0 0 162 162" xmlns="http://www.w3.org/2000/svg" xmlns:xlink="http://www.w3.org/1999/xlink" style="background:#4faded"><title>porthole-cities</title><defs><path id="a" d="M.08 14.843h13.756V0H.08v14.843z"/><path id="c" d="M11.332 14.125H0V0h11.332v14.125z"/><path id="e" d="M0 110.607h61.442V0H0v110.607z"/><linearGradient x1="62.813%" y1="-8.011%" x2="50%" y2="107.245%" id="f"><stop stop-color="#FFF" offset="0%"/><stop stop-color="#FFF" stop-opacity="0" offset="100%"/></linearGradient><path id="h" d="M.111 0v46.697h29.291V0H.112z"/></defs><g fill="none" fill-rule="evenodd"><path d="M1.42 52.564A28.961 28.961 0 0 0-8 51c-16.016 0-29 12.984-29 29s12.984 29 29 29c6.03 0 11.63-1.84 16.269-4.99C13.58 110.706 21.789 115 31 115c6.8 0 13.055-2.34 18-6.26A28.877 28.877 0 0 0 67 115c10.594 0 19.86-5.68 24.921-14.161A29.33 29.33 0 0 0 95 101c7.623 0 14.56-2.942 19.736-7.751C119.713 102.055 129.162 108 140 108c15.96 0 28.909-12.893 29-28.831 7.531-2.342 13-9.367 13-17.669 0-10.217-8.283-18.5-18.5-18.5-6.388 0-12.02 3.238-15.345 8.162A29.01 29.01 0 0 0 140 50c-.85 0-1.692.037-2.524.108C135.504 42.011 128.204 36 119.5 36c-6.499 0-12.215 3.35-15.515 8.419A28.977 28.977 0 0 0 95 43a28.895 28.895 0 0 0-19.554 7.584A18.417 18.417 0 0 0 64.5 47c-8.826 0-16.209 6.18-18.055 14.45a28.837 28.837 0 0 0-8.493-3.611c.032-.442.048-.889.048-1.339C38 46.283 29.717 38 19.5 38c-8.867 0-16.276 6.238-18.08 14.564z" fill="#65965D"/><path d="M63.823 61.927c.326.074.65.152.973.234a23.853 23.853 0 0 1 10.035 3.554C77.594 55.508 86.92 48 98 48a23.898 23.898 0 0 1 14.85 5.144C119.557 46.854 128.578 43 138.5 43c20.71 0 37.5 16.79 37.5 37.5S159.21 118 138.5 118c-.974 0-1.94-.037-2.896-.11-6.57 10.855-18.49 18.11-32.104 18.11a37.348 37.348 0 0 1-24-8.685 37.348 37.348 0 0 1-24 8.685c-12.199 0-23.037-5.825-29.886-14.845A37.324 37.324 0 0 1 5.5 127C-15.21 127-32 110.21-32 89.5S-15.21 52 5.5 52c3.862 0 7.588.584 11.094 1.668C19.02 42.98 28.578 35 40 35c13.255 0 24 10.745 24 24 0 .99-.06 1.968-.177 2.927z" fill="#83B37C"/><path fill="#7C7B79" d="M-1 80h166v84H-1z"/><path fill="#FFD835" d="M30.751 120.203H-1.345l.176 4.612h33.454zM111.653 120.203h-59l-1.632 4.612h62.264zM132.021 124.815l31.324.185v-4.797h-29.79z"/><path fill="#529647" d="M49.004 71.488h63.704V48.427H49.004z"/><path fill="#62B355" d="M49.004 88.206h63.704v-23.06H49.004z"/><path d="M63.957 86.43c2.75 0 5.278-.955 7.272-2.55a11.605 11.605 0 0 0 7.272 2.55 11.65 11.65 0 0 0 9.914-5.525 11.618 11.618 0 0 0 9.24-3.221 11.653 11.653 0 0 0 15.053 4.88v-21.17a11.613 11.613 0 0 0-5.95-1.025 7.365 7.365 0 0 0-7.188-5.77 7.358 7.358 0 0 0-6.35 3.636 11.631 11.631 0 0 0-3.666-.592 11.616 11.616 0 0 0-7.833 3.023 7.33 7.33 0 0 0-4.49-1.53 7.365 7.365 0 0 0-7.173 5.7 11.6 11.6 0 0 0-3.413-1.41 7.364 7.364 0 0 0-14.57-2.01 11.61 11.61 0 0 0-3.071-.785v23.162a11.6 11.6 0 0 0 5.529-2.16 11.64 11.64 0 0 0 9.424 4.797" fill="#62B355"/><path fill="#484848" d="M49.004 146.434h63.704v-64.57H49.004z"/><path fill="#FFD835" d="M102.063 109.446H63.377l1.014-2.93h36.658z"/><path d="M62.288 90.297c-3.127 2.23-3.668 7.168.797 8.192 4.464 1.024 18.655-.293 22.322-1.463 3.667-1.17 16.104-1.755 13.234-4.389-2.87-2.633-13.234-4.68-19.771-4.388-6.537.292-13.713 0-16.582 2.048" fill="#8A836F"/><path d="M112.708 42.24a5.151 5.151 0 0 0-4.172-5.055h-55.36a5.151 5.151 0 0 0-4.172 5.056v7.05h63.704v-7.05z" fill="#FFD835"/><path fill="#FFF" d="M55.633 65.722h50.445v-9.224H55.633z"/><path d="M55.922 65.434h49.868v-8.648H55.922v8.648zm-.577.577h51.022V56.21H55.345v9.8z" fill="#9E9E9E"/><path d="M78.896 90.643c-6.537.319-13.712 0-16.582 2.232a6.503 6.503 0 0 0-2.218 3.291c.408 1.208 1.37 2.198 3.015 2.609 4.464 1.116 18.655-.319 22.322-1.595 2.501-.87 9.08-1.443 12.101-2.63-3.862-2.432-12.784-4.193-18.638-3.907" fill="#A69B80"/><path d="M80.16 37.473l-.024-12.395H52.762a7.794 7.794 0 0 0-7.794 7.794v132.57a73.45 73.45 0 0 0 3.459 1.785V41.28c0-2.156 1.747-3.808 3.903-3.808h27.83z" fill="#333"/><path d="M80 25.08l.024 12.395h27.935c2.146 0 3.885 1.652 3.885 3.808v124.08a72.92 72.92 0 0 0 3.156-1.607V32.874c0-4.305-3.473-7.794-7.757-7.794H80z" fill="#404040"/><path d="M8.38 324.778L-51 298.34 154.402-163l59.38 26.438z"/><path d="M108.228 37.473H52.33c-2.155 0-3.903 1.652-3.903 3.808v105.946c9.68 4.664 20.533 7.278 31.996 7.278 11.351 0 22.102-2.565 31.709-7.144V41.281c0-2.156-1.748-3.808-3.904-3.808" fill="#787774"/><path fill="#529647" d="M48.427 71.488h63.705V48.427H48.427z"/><path d="M63.38 86.43c2.751 0 5.278-.955 7.272-2.55a11.605 11.605 0 0 0 7.272 2.55 11.65 11.65 0 0 0 9.914-5.525 11.618 11.618 0 0 0 9.24-3.221 11.653 11.653 0 0 0 15.054 4.88v-21.17a11.613 11.613 0 0 0-5.95-1.025 7.365 7.365 0 0 0-7.189-5.77 7.358 7.358 0 0 0-6.35 3.636 11.631 11.631 0 0 0-3.666-.592 11.616 11.616 0 0 0-7.833 3.023 7.33 7.33 0 0 0-4.49-1.53 7.365 7.365 0 0 0-7.172 5.7 11.6 11.6 0 0 0-3.413-1.41 7.364 7.364 0 0 0-14.57-2.01 11.61 11.61 0 0 0-3.072-.785v23.162a11.6 11.6 0 0 0 5.53-2.16 11.64 11.64 0 0 0 9.423 4.797" fill="#62B355"/><path fill="#484848" d="M48 82v80.787l64 .69V82z"/><path d="M112.132 42.24a5.151 5.151 0 0 0-4.172-5.055H52.599a5.151 5.151 0 0 0-4.172 5.056v7.05h63.705v-7.05z" fill="#FFD835"/><path fill="#FFF" d="M55.057 65.722h50.445v-9.224H55.057z"/><path d="M55.345 65.434h49.869v-8.648H55.345v8.648zm-.576.577h51.021V56.21H54.769v9.8z" fill="#9E9E9E"/><path fill="#62B355" d="M48.427 82.153h63.705v-16.43H48.427z"/><path fill="#FFD835" d="M101.486 109.446H62.8l1.015-2.93h36.657z"/><path d="M61.711 90.297c-3.126 2.23-3.667 7.168.797 8.192 4.465 1.024 18.655-.293 22.323-1.463 3.667-1.17 16.104-1.755 13.233-4.389-2.87-2.633-13.233-4.68-19.77-4.388-6.538.292-13.713 0-16.583 2.048" fill="#8A836F"/><path d="M78.32 90.643c-6.538.319-13.713 0-16.583 2.232a6.503 6.503 0 0 0-2.217 3.291c.407 1.208 1.37 2.198 3.014 2.609C67 99.89 81.19 98.456 84.857 97.18c2.5-.87 9.079-1.443 12.1-2.63-3.861-2.432-12.783-4.193-18.638-3.907" fill="#A69B80"/><path d="M115.302 122.22c-3.799 2.527-10.088 0-10.088-6.053 0-5.945 3.796-8.36 8.359-8.36" fill="#333"/><g transform="translate(102.331 123.95)"><mask id="b" fill="#fff"><use xlink:href="#a"/></mask><path d="M13.836 11.53C11.1 15.963.905 16.73.112 8.93-.47 3.217 6.94.66 12.107 0" fill="#333" mask="url(#b)"/></g><g transform="translate(106.078 73.794)"><mask id="d" fill="#fff"><use xlink:href="#c"/></mask><path d="M9.224 7.206c.2 7.04 4.642 6.919 0 6.919S0 14.11 0 7.95C0 1.902 3.717 0 8.36 0c4.642 0 .664.16.864 7.206" fill="#333" mask="url(#d)"/></g><g opacity=".199" transform="translate(49.004 37.185)"><mask id="g" fill="#fff"><use xlink:href="#e"/></mask><path d="M61.442.839C60.62.279 59.624 0 58.553 0H41.327L0 92.727v17.842l12.549.038L61.442.839z" fill="url(#f)" mask="url(#g)"/></g><path d="M115.302 104.925c-4.442 1.823-9.224-.045-9.224-6.415 0-6.256 3.846-8.286 8.648-8.286" fill="#333"/><path d="M122.601 115.302c0 3.821-3.699 6.919-8.261 6.919-4.563 0-8.262-.865-8.262-6.919 0-5.945 3.7-6.918 8.262-6.918s8.261 3.098 8.261 6.918M122.02 129.624c.425 3.331.602 6.053-4.565 6.713-5.167.661-13.355 3.478-14.147-4.321-.581-5.713 7.438-7.082 12.605-7.742 5.168-.66 5.68 2.019 6.106 5.35" fill="#FFDFB4"/><g transform="translate(31.42 80.135)"><mask id="i" fill="#fff"><use xlink:href="#h"/></mask><path d="M5.082 33.932l-1.117-1.36c-2.806-3.414-5.725-10.56-2.31-13.365L15.203 1.82a8.002 8.002 0 0 1 11.262 1.102l1.117 1.36a8.002 8.002 0 0 1-1.102 11.262L14.914 29.69l-.608 17.007c-.705-.768-6.419-9.35-9.224-12.765" fill="#333" mask="url(#i)"/></g><path d="M32.825 114.438l-1.117-1.36c-2.805-3.414-3.414-12.371 0-15.177l13.548-17.387a8.002 8.002 0 0 1 11.263 1.102l1.117 1.36a8.002 8.002 0 0 1-1.102 11.262l-11.566 14.146v17.872c0 .024-9.337-8.404-12.143-11.818" fill="#FFDFB4"/><path d="M51.618 86.394c1.78-1.89 2.418-3.64.556-5.394l-.864-.576c-1.862-1.754-4.273-.161-6.054 1.729l-1.534 2.472a.832.832 0 0 0 .18 1.081l3.956 3.244a.967.967 0 0 0 1.3-.067l2.46-2.489z" fill="#FFECD4"/><path d="M123.754 80.88c.2 7.038-3.763 7.038-8.406 7.038-4.642 0-8.405-.88-8.405-7.039 0-6.049 3.763-7.039 8.405-7.039 4.643 0 8.206-.007 8.406 7.04M124.33 97.645c-.097 6.37-3.892 7.28-8.693 7.28-4.802 0-8.694-.91-8.694-7.28 0-6.256 3.892-7.28 8.694-7.28 4.801 0 8.782 1.503 8.693 7.28" fill="#FFDFB4"/><path d="M113.472 130.734c.338 2.645.538 4.798-1.736 5.088-2.274.29-5.799 2.147-6.499-4.036-.513-4.528 3.001-5.25 5.275-5.54 2.274-.29 2.622 1.843 2.96 4.488M115.302 115.302c0 3.025.048 5.477-2.738 5.477s-5.044-.684-5.044-5.477c0-4.706 2.258-5.476 5.044-5.476 2.786 0 2.738 2.452 2.738 5.476M117.105 97.645c0 3.35-.557 6.067-3.489 6.067-2.931 0-5.308-.758-5.308-6.067 0-5.214 2.377-6.067 5.308-6.067 2.932 0 3.489 2.716 3.489 6.067M116.768 80.88c0 3.239-.538 5.865-3.373 5.865-2.834 0-5.132-.733-5.132-5.866 0-5.04 2.298-5.865 5.132-5.865 2.835 0 3.373 2.626 3.373 5.865" fill="#FFECD4"/><path d="M79.062 125.836a8.12 8.12 0 0 0-10.87 3.7l-19.188 37.21c4.888 2.32 11.889 1.117 17.297 2.322l16.461-32.361a8.115 8.115 0 0 0-.563-8.139 8.077 8.077 0 0 0-3.137-2.732z" fill="#333" opacity=".271"/><path d="M71.058 122.836a8.12 8.12 0 0 0-10.87 3.7L41 163.747c4.888 2.32 11.89 1.117 17.297 2.322l16.462-32.361a8.115 8.115 0 0 0-.564-8.139 8.077 8.077 0 0 0-3.137-2.732z" fill="#FFDFB4"/><path d="M72.64 132.374c1.51-3.068.213-7.138-2.305-8.377l-.874-.43c-2.518-1.24-6.65-.056-8.16 3.013l-2.785 5.73 11.475 5.188 2.65-5.124z" fill="#FFECD4"/></g></svg>