<svg width="162" height="162" viewBox="0 0 162 162" xmlns="http://www.w3.org/2000/svg" xmlns:xlink="http://www.w3.org/1999/xlink" style="background:#4FADED"><title>porthole-figures</title><defs><path d="M52.5 139C65 139 105 103.108 105 65S78.838 0 51.5 0 0 26.892 0 65c0 38.108 40 74 52.5 74z" id="a"/></defs><g fill="none" fill-rule="evenodd"><g fill="#49A1DC"><path d="M7.9 171.043h6.53v-47.925H7.9M1.37 171.043H7.9v-36.735H1.37M-2.113 171.043H1.37v-43.98h-3.483M36.197 171.043h6.748v-41.98h-6.748"/><path d="M26.402 171.043h10.013v-35.456H26.402M61.883 171.043h1.74V137.72h-1.74"/><path d="M57.094 171.043h4.79v-48.67h-4.79M50.782 171.043h4.788v-51.277h-4.788M19.654 171.043h2.177v-40.998h-2.176M14.43 171.043h5.224V135.16H14.43"/><path d="M21.83 171.043h4.572v-49.097h-4.57M47.952 171.043h2.83v-43.98h-2.83M42.945 171.043h5.007v-36.735h-5.007M104.746 171.043h6.53v-47.925h-6.53M62.082 171.043h6.748v-30.296h-6.748"/><path d="M52.287 171.043H62.3v-35.456H52.287M98.216 171.043h6.53v-36.735h-6.53M94.734 171.043h3.482v-43.98h-3.482M91.25 171.043h3.483V137.72H91.25"/><path d="M87.768 171.043h3.483V137.72H87.77M82.98 171.043h4.788v-41.98h-4.79M73.837 171.043h2.83v-43.98h-2.83M68.83 171.043h5.007v-36.735H68.83M133.044 171.043h6.748v-41.98h-6.748"/><path d="M123.25 171.043h10.012v-35.456H123.25M158.73 171.043h1.74V137.72h-1.74M153.94 171.043h4.79v-48.67h-4.79M147.628 171.043h4.79v-51.277h-4.79M116.5 171.043h2.178v-40.998H116.5"/><path d="M111.277 171.043h5.224V135.16h-5.223M118.678 171.043h4.57v-49.097h-4.57M144.8 171.043h2.828v-43.98h-2.83"/><path d="M139.792 171.043h5.007v-36.735h-5.008"/></g><g fill="#479BD5"><path d="M75.452 160.49h9.918v-39.486h-9.918M10.648 160.49h10.25V120.52h-10.25"/><path d="M-4.23 160.49h15.21v-20.547H-4.23M65.533 160.49h9.92V138h-9.92M60.243 160.49h5.29v-33.497h-5.29M54.953 160.49h5.29v-17.31h-5.29M49.663 160.49h5.29v-17.31h-5.29M42.39 160.49h7.272v-30.46H42.39"/><path d="M51.23 158.026h3.638v-40.708H51.23M28.502 160.49h4.3v-33.497h-4.3M20.898 160.49h7.604V138h-7.604M118.433 160.49h10.25v-30.46h-10.25"/><path d="M103.555 160.49h15.21v-20.547h-15.21M157.447 160.49h2.646v-17.31h-2.646M150.174 160.49h7.273v-40.62h-7.273M140.585 160.49h7.274v-44.578h-7.275M93.305 160.49h3.307v-28.965h-3.307"/><path d="M85.37 160.49h7.936v-21.195H85.37M96.612 160.49h6.943v-41.267h-6.943M136.287 160.49h4.298v-33.497h-4.298M128.683 160.49h7.604V138h-7.604M56.964 117.76c0 .714-1.812 2.61-4.047 2.61-2.235 0-4.047-1.896-4.047-2.61 0-.715 1.812-.417 4.047-.417 2.235 0 4.047-.298 4.047.417"/><path d="M53.583 116.177c0 1.004-.333 1.82-.743 1.82s-.743-.816-.743-1.82c0-1.005.332-1.82.743-1.82.41 0 .743.815.743 1.82"/><path d="M53.788 114.038c0 .707-.45 1.28-1.005 1.28-.556 0-1.006-.573-1.006-1.28 0-.707.45-1.28 1.006-1.28.555 0 1.005.573 1.005 1.28"/><path d="M53.944 112.16c0 .466-.38.845-.846.845-.467 0-.846-.38-.846-.846 0-.468.38-.847.846-.847.467 0 .846.38.846.846"/></g><path d="M145.568 58.838c-.68-3.77-3.973-6.63-7.938-6.63-2.023 0-3.872.748-5.287 1.977-1.628-2.938-4.76-4.928-8.355-4.928-4.44 0-8.173 3.033-9.24 7.14-1.074-.763-2.385-1.212-3.803-1.212-3.634 0-6.58 3.012-6.58 6.646 0 3.636 2.946 6.648 6.58 6.648h34.06c2.635 0 4.772-2.202 4.772-4.838 0-2.444-1.84-4.522-4.21-4.802M38.83 84.526c-.42-2.33-2.458-4.098-4.908-4.098-1.25 0-2.393.46-3.268 1.222-1.006-1.816-2.94-3.047-5.164-3.047-2.745 0-5.052 1.875-5.71 4.414-.664-.472-1.475-.75-2.35-.75-2.248 0-4.07 1.827-4.07 4.074s1.822 4.074 4.07 4.074h21.05c1.63 0 2.95-1.326 2.95-2.955 0-1.512-1.137-2.762-2.6-2.934M46.813 98.18c.232-1.287 1.358-2.264 2.713-2.264.69 0 1.322.255 1.806.675.556-1.003 1.626-1.683 2.855-1.683 1.517 0 2.792 1.036 3.157 2.44.367-.26.815-.415 1.3-.415 1.24 0 2.248.983 2.248 2.225s-1.007 2.225-2.25 2.225H47.007c-.9 0-1.63-.706-1.63-1.607 0-.835.627-1.5 1.437-1.594M123.386 91.03c-.314-1.74-1.835-3.06-3.665-3.06-.934 0-1.786.344-2.44.912-.75-1.356-2.197-2.275-3.857-2.275-2.05 0-3.773 1.4-4.265 3.296-.496-.352-1.102-.56-1.756-.56-1.678 0-3.038 1.377-3.038 3.055 0 1.678 1.36 3.055 3.038 3.055h15.723c1.217 0 2.204-1.003 2.204-2.22 0-1.128-.85-2.074-1.944-2.203" fill="#FFF" opacity=".46"/><path fill="#479BD5" d="M94.466 107.928l-5.44-19.39.572-.16 5.44 19.39"/><path fill="#479BD5" d="M84.262 107.926l-.57-.157 5.334-19.392.572.157"/><path d="M94.247 116.293h-9.47c-1.01 0-1.832-.82-1.832-1.832v-8.852H96.08v8.853c0 1.012-.822 1.833-1.833 1.833" fill="#E3DBC7"/><path fill="#C6BFB5" d="M96.08 109.988l-13.135-1.648v-2.016H96.08"/><path d="M96.773 107.354H82.25c-.174 0-.315-.142-.315-.316v-1.548c0-.175.14-.316.316-.316h14.523c.175 0 .316.14.316.316v1.548c0 .174-.142.316-.317.316" fill="#E3DBC7"/><path d="M91.653 92.397c.358 2.31-.552 3.694-2.16 3.694-1.605 0-2.516-1.384-2.157-3.693.27-1.733 1.44-5.53 2.158-5.53s1.89 3.797 2.16 5.53" fill="#DE4B4B"/><path d="M91.003 93.256c.25 1.613-.386 2.58-1.508 2.58-1.122 0-1.76-.967-1.51-2.58.19-1.21 1.008-3.863 1.51-3.863.5 0 1.32 2.653 1.508 3.863" fill="#F8A041"/><path d="M90.32 94.1c.136.884-.212 1.413-.826 1.413s-.96-.53-.824-1.412c.103-.66.55-2.112.824-2.112.275 0 .722 1.45.825 2.113" fill="#FFD835"/><path d="M89.962 94.57c.078.5-.12.8-.467.8-.35 0-.546-.3-.468-.8.058-.377.312-1.2.468-1.2.155 0 .41.823.467 1.2" fill="#FFF"/><path d="M91.718 98.594h-4.636c-.203 0-.367-.164-.367-.366v-2.232c0-.202.164-.366.367-.366h4.636c.203 0 .367.164.367.366v2.232c0 .202-.164.366-.367.366" fill="#C6BFB5"/><g transform="translate(37 -48)"><mask id="b" fill="#fff"><use xlink:href="#a"/></mask><use fill="#D8D8D8" xlink:href="#a"/><path d="M108.705 138.554c0-.364.116-.74.116-1.13 0-.387-.115-.764-.115-1.128V130H-4.705v6.33c0 .353-.108.72-.108 1.095s.108.742.108 1.095v1.075h.43c.786 1.857 2.58 3.206 4.67 3.206s3.885-1.348 4.673-3.205h.992c.788 1.857 2.582 3.206 4.673 3.206 2.09 0 3.884-1.348 4.672-3.205h.992c.788 1.857 2.582 3.206 4.672 3.206s3.884-1.348 4.672-3.205h.992c.788 1.857 2.582 3.206 4.672 3.206s3.885-1.348 4.673-3.205h.99c.788 1.857 2.583 3.206 4.673 3.206s3.885-1.348 4.672-3.205h.993c.787 1.857 2.58 3.206 4.672 3.206 2.09 0 3.884-1.348 4.672-3.205h.992c.788 1.857 2.582 3.206 4.673 3.206 2.09 0 3.884-1.348 4.672-3.205h.99c.79 1.857 2.583 3.206 4.673 3.206s3.885-1.348 4.673-3.205h.992c.788 1.857 2.582 3.206 4.672 3.206s3.885-1.348 4.673-3.205h.992c.787 1.857 2.58 3.206 4.672 3.206 2.09 0 3.884-1.348 4.672-3.205h.99c.79 1.857 2.583 3.206 4.674 3.206 2.09 0 3.884-1.348 4.672-3.205h.27v-1.04z" fill="#62B355" mask="url(#b)"/><path d="M108.883 130.792c0-.37.117-.753.117-1.147 0-.393-.117-.777-.117-1.147V122H-4.892v6.533c0 .36-.108.73-.108 1.112 0 .382.108.754.108 1.113v.987h.43c.79 1.886 2.59 3.255 4.687 3.255 2.097 0 3.897-1.37 4.688-3.255h.995c.79 1.886 2.59 3.255 4.687 3.255 2.098 0 3.898-1.37 4.688-3.255h.995c.79 1.886 2.59 3.255 4.688 3.255 2.097 0 3.897-1.37 4.687-3.255h.995c.79 1.886 2.59 3.255 4.688 3.255 2.097 0 3.897-1.37 4.687-3.255h.995c.79 1.886 2.59 3.255 4.688 3.255 2.097 0 3.897-1.37 4.687-3.255h.996c.79 1.886 2.59 3.255 4.686 3.255 2.097 0 3.897-1.37 4.687-3.255h.996c.79 1.886 2.59 3.255 4.686 3.255 2.097 0 3.897-1.37 4.688-3.255h.995c.79 1.886 2.59 3.255 4.686 3.255 2.097 0 3.897-1.37 4.688-3.255h.995c.79 1.886 2.59 3.255 4.686 3.255 2.097 0 3.897-1.37 4.688-3.255h.995c.79 1.886 2.59 3.255 4.686 3.255 2.097 0 3.897-1.37 4.688-3.255h.995c.79 1.886 2.59 3.255 4.686 3.255 2.097 0 3.897-1.37 4.688-3.255h.27v-.953z" fill="#F4A13F" mask="url(#b)"/><path d="M108.883 121.792c0-.37.117-.753.117-1.147 0-.393-.117-.777-.117-1.147V113H-4.892v6.533c0 .36-.108.73-.108 1.112 0 .382.108.754.108 1.113v.987h.43c.79 1.886 2.59 3.255 4.687 3.255 2.097 0 3.897-1.37 4.688-3.255h.995c.79 1.886 2.59 3.255 4.687 3.255 2.098 0 3.898-1.37 4.688-3.255h.995c.79 1.886 2.59 3.255 4.688 3.255 2.097 0 3.897-1.37 4.687-3.255h.995c.79 1.886 2.59 3.255 4.688 3.255 2.097 0 3.897-1.37 4.687-3.255h.995c.79 1.886 2.59 3.255 4.688 3.255 2.097 0 3.897-1.37 4.687-3.255h.996c.79 1.886 2.59 3.255 4.686 3.255 2.097 0 3.897-1.37 4.687-3.255h.996c.79 1.886 2.59 3.255 4.686 3.255 2.097 0 3.897-1.37 4.688-3.255h.995c.79 1.886 2.59 3.255 4.686 3.255 2.097 0 3.897-1.37 4.688-3.255h.995c.79 1.886 2.59 3.255 4.686 3.255 2.097 0 3.897-1.37 4.688-3.255h.995c.79 1.886 2.59 3.255 4.686 3.255 2.097 0 3.897-1.37 4.688-3.255h.995c.79 1.886 2.59 3.255 4.686 3.255 2.097 0 3.897-1.37 4.688-3.255h.27v-.953z" fill="#FFD835" mask="url(#b)"/><path d="M108.883 112.53c0-.37.117-.753.117-1.147 0-.393-.117-.776-.117-1.146V104H-4.892v6.27c0 .36-.108.732-.108 1.113 0 .382.108.754.108 1.113v1.25h.43c.79 1.885 2.59 3.254 4.687 3.254 2.097 0 3.897-1.37 4.688-3.255h.995c.79 1.886 2.59 3.255 4.687 3.255 2.098 0 3.898-1.37 4.688-3.255h.995c.79 1.886 2.59 3.255 4.688 3.255 2.097 0 3.897-1.37 4.687-3.255h.995c.79 1.886 2.59 3.255 4.688 3.255 2.097 0 3.897-1.37 4.687-3.255h.995c.79 1.886 2.59 3.255 4.688 3.255 2.097 0 3.897-1.37 4.687-3.255h.996c.79 1.886 2.59 3.255 4.686 3.255 2.097 0 3.897-1.37 4.687-3.255h.996c.79 1.886 2.59 3.255 4.686 3.255 2.097 0 3.897-1.37 4.688-3.255h.995c.79 1.886 2.59 3.255 4.686 3.255 2.097 0 3.897-1.37 4.688-3.255h.995c.79 1.886 2.59 3.255 4.686 3.255 2.097 0 3.897-1.37 4.688-3.255h.995c.79 1.886 2.59 3.255 4.686 3.255 2.097 0 3.897-1.37 4.688-3.255h.995c.79 1.886 2.59 3.255 4.686 3.255 2.097 0 3.897-1.37 4.688-3.255h.27v-1.215z" fill="#A94CA6" mask="url(#b)"/><path d="M108.883 102.688c0-.37.117-.754.117-1.148 0-.393-.117-.776-.117-1.146V94H-4.892v6.428c0 .36-.108.73-.108 1.112 0 .382.108.754.108 1.113v1.092h.43c.79 1.886 2.59 3.255 4.687 3.255 2.097 0 3.897-1.37 4.688-3.255h.995c.79 1.886 2.59 3.255 4.687 3.255 2.098 0 3.898-1.37 4.688-3.255h.995c.79 1.886 2.59 3.255 4.688 3.255 2.097 0 3.897-1.37 4.687-3.255h.995c.79 1.886 2.59 3.255 4.688 3.255 2.097 0 3.897-1.37 4.687-3.255h.995c.79 1.886 2.59 3.255 4.688 3.255 2.097 0 3.897-1.37 4.687-3.255h.996c.79 1.886 2.59 3.255 4.686 3.255 2.097 0 3.897-1.37 4.687-3.255h.996c.79 1.886 2.59 3.255 4.686 3.255 2.097 0 3.897-1.37 4.688-3.255h.995c.79 1.886 2.59 3.255 4.686 3.255 2.097 0 3.897-1.37 4.688-3.255h.995c.79 1.886 2.59 3.255 4.686 3.255 2.097 0 3.897-1.37 4.688-3.255h.995c.79 1.886 2.59 3.255 4.686 3.255 2.097 0 3.897-1.37 4.688-3.255h.995c.79 1.886 2.59 3.255 4.686 3.255 2.097 0 3.897-1.37 4.688-3.255h.27v-1.057z" fill="#DE4B4B" mask="url(#b)"/><path d="M108.883 93.53c0-.37.117-.753.117-1.147 0-.393-.117-.776-.117-1.146V85H-4.892v6.27c0 .36-.108.732-.108 1.113 0 .382.108.754.108 1.113v1.25h.43C-3.672 96.63-1.872 98 .225 98c2.097 0 3.897-1.37 4.688-3.255h.995C6.698 96.63 8.498 98 10.595 98c2.098 0 3.898-1.37 4.688-3.255h.995c.79 1.886 2.59 3.255 4.688 3.255 2.097 0 3.897-1.37 4.687-3.255h.995c.79 1.886 2.59 3.255 4.688 3.255 2.097 0 3.897-1.37 4.687-3.255h.995c.79 1.886 2.59 3.255 4.688 3.255 2.097 0 3.897-1.37 4.687-3.255h.996C48.18 96.63 49.98 98 52.075 98c2.097 0 3.897-1.37 4.687-3.255h.996C58.55 96.63 60.35 98 62.445 98c2.097 0 3.897-1.37 4.688-3.255h.995C68.92 96.63 70.72 98 72.815 98c2.097 0 3.897-1.37 4.688-3.255h.995C79.29 96.63 81.09 98 83.185 98c2.097 0 3.897-1.37 4.688-3.255h.995C89.66 96.63 91.46 98 93.555 98c2.097 0 3.897-1.37 4.688-3.255h.995c.79 1.886 2.59 3.255 4.686 3.255 2.097 0 3.897-1.37 4.688-3.255h.27V93.53z" fill="#62B355" mask="url(#b)"/><path d="M108.883 85.687c0-.37.117-.753.117-1.147 0-.393-.117-.776-.117-1.146V77H-4.892v6.428c0 .36-.108.73-.108 1.112 0 .382.108.754.108 1.113v1.092h.43C-3.672 88.63-1.872 90 .225 90c2.097 0 3.897-1.37 4.688-3.255h.995C6.698 88.63 8.498 90 10.595 90c2.098 0 3.898-1.37 4.688-3.255h.995c.79 1.886 2.59 3.255 4.688 3.255 2.097 0 3.897-1.37 4.687-3.255h.995c.79 1.886 2.59 3.255 4.688 3.255 2.097 0 3.897-1.37 4.687-3.255h.995c.79 1.886 2.59 3.255 4.688 3.255 2.097 0 3.897-1.37 4.687-3.255h.996C48.18 88.63 49.98 90 52.075 90c2.097 0 3.897-1.37 4.687-3.255h.996C58.55 88.63 60.35 90 62.445 90c2.097 0 3.897-1.37 4.688-3.255h.995C68.92 88.63 70.72 90 72.815 90c2.097 0 3.897-1.37 4.688-3.255h.995C79.29 88.63 81.09 90 83.185 90c2.097 0 3.897-1.37 4.688-3.255h.995C89.66 88.63 91.46 90 93.555 90c2.097 0 3.897-1.37 4.688-3.255h.995c.79 1.886 2.59 3.255 4.686 3.255 2.097 0 3.897-1.37 4.688-3.255h.27v-1.058z" fill="#F4A13F" mask="url(#b)"/><path d="M108.883 76.95c0-.37.117-.754.117-1.148 0-.393-.117-.776-.117-1.146V68H-4.892v6.69c0 .36-.108.73-.108 1.112 0 .382.108.754.108 1.113v.83h.43C-3.672 79.63-1.872 81 .225 81c2.097 0 3.897-1.37 4.688-3.255h.995C6.698 79.63 8.498 81 10.595 81c2.098 0 3.898-1.37 4.688-3.255h.995c.79 1.886 2.59 3.255 4.688 3.255 2.097 0 3.897-1.37 4.687-3.255h.995c.79 1.886 2.59 3.255 4.688 3.255 2.097 0 3.897-1.37 4.687-3.255h.995c.79 1.886 2.59 3.255 4.688 3.255 2.097 0 3.897-1.37 4.687-3.255h.996C48.18 79.63 49.98 81 52.075 81c2.097 0 3.897-1.37 4.687-3.255h.996C58.55 79.63 60.35 81 62.445 81c2.097 0 3.897-1.37 4.688-3.255h.995C68.92 79.63 70.72 81 72.815 81c2.097 0 3.897-1.37 4.688-3.255h.995C79.29 79.63 81.09 81 83.185 81c2.097 0 3.897-1.37 4.688-3.255h.995C89.66 79.63 91.46 81 93.555 81c2.097 0 3.897-1.37 4.688-3.255h.995c.79 1.886 2.59 3.255 4.686 3.255 2.097 0 3.897-1.37 4.688-3.255h.27v-.796z" fill="#FFD835" mask="url(#b)"/><path d="M108.883 66.687c0-.37.117-.753.117-1.147 0-.393-.117-.776-.117-1.146V58H-4.892v6.428c0 .36-.108.73-.108 1.112 0 .382.108.754.108 1.113v1.092h.43C-3.672 69.63-1.872 71 .225 71c2.097 0 3.897-1.37 4.688-3.255h.995C6.698 69.63 8.498 71 10.595 71c2.098 0 3.898-1.37 4.688-3.255h.995c.79 1.886 2.59 3.255 4.688 3.255 2.097 0 3.897-1.37 4.687-3.255h.995c.79 1.886 2.59 3.255 4.688 3.255 2.097 0 3.897-1.37 4.687-3.255h.995c.79 1.886 2.59 3.255 4.688 3.255 2.097 0 3.897-1.37 4.687-3.255h.996C48.18 69.63 49.98 71 52.075 71c2.097 0 3.897-1.37 4.687-3.255h.996C58.55 69.63 60.35 71 62.445 71c2.097 0 3.897-1.37 4.688-3.255h.995C68.92 69.63 70.72 71 72.815 71c2.097 0 3.897-1.37 4.688-3.255h.995C79.29 69.63 81.09 71 83.185 71c2.097 0 3.897-1.37 4.688-3.255h.995C89.66 69.63 91.46 71 93.555 71c2.097 0 3.897-1.37 4.688-3.255h.995c.79 1.886 2.59 3.255 4.686 3.255 2.097 0 3.897-1.37 4.688-3.255h.27v-1.058z" fill="#A94CA6" mask="url(#b)"/><path d="M108.883 57.53c0-.37.117-.753.117-1.147 0-.393-.117-.777-.117-1.147V49H-4.892v6.27c0 .36-.108.732-.108 1.113 0 .382.108.754.108 1.113v1.25h.43C-3.672 60.63-1.872 62 .225 62c2.097 0 3.897-1.37 4.688-3.255h.995C6.698 60.63 8.498 62 10.595 62c2.098 0 3.898-1.37 4.688-3.255h.995c.79 1.886 2.59 3.255 4.688 3.255 2.097 0 3.897-1.37 4.687-3.255h.995c.79 1.886 2.59 3.255 4.688 3.255 2.097 0 3.897-1.37 4.687-3.255h.995c.79 1.886 2.59 3.255 4.688 3.255 2.097 0 3.897-1.37 4.687-3.255h.996C48.18 60.63 49.98 62 52.075 62c2.097 0 3.897-1.37 4.687-3.255h.996C58.55 60.63 60.35 62 62.445 62c2.097 0 3.897-1.37 4.688-3.255h.995C68.92 60.63 70.72 62 72.815 62c2.097 0 3.897-1.37 4.688-3.255h.995C79.29 60.63 81.09 62 83.185 62c2.097 0 3.897-1.37 4.688-3.255h.995C89.66 60.63 91.46 62 93.555 62c2.097 0 3.897-1.37 4.688-3.255h.995c.79 1.886 2.59 3.255 4.686 3.255 2.097 0 3.897-1.37 4.688-3.255h.27V57.53z" fill="#DE4B4B" mask="url(#b)"/><path d="M108.883 48.687c0-.37.117-.753.117-1.147 0-.393-.117-.776-.117-1.146V40H-4.892v6.428c0 .36-.108.73-.108 1.112 0 .382.108.754.108 1.113v1.092h.43C-3.672 51.63-1.872 53 .225 53c2.097 0 3.897-1.37 4.688-3.255h.995C6.698 51.63 8.498 53 10.595 53c2.098 0 3.898-1.37 4.688-3.255h.995c.79 1.886 2.59 3.255 4.688 3.255 2.097 0 3.897-1.37 4.687-3.255h.995c.79 1.886 2.59 3.255 4.688 3.255 2.097 0 3.897-1.37 4.687-3.255h.995c.79 1.886 2.59 3.255 4.688 3.255 2.097 0 3.897-1.37 4.687-3.255h.996C48.18 51.63 49.98 53 52.075 53c2.097 0 3.897-1.37 4.687-3.255h.996C58.55 51.63 60.35 53 62.445 53c2.097 0 3.897-1.37 4.688-3.255h.995C68.92 51.63 70.72 53 72.815 53c2.097 0 3.897-1.37 4.688-3.255h.995C79.29 51.63 81.09 53 83.185 53c2.097 0 3.897-1.37 4.688-3.255h.995C89.66 51.63 91.46 53 93.555 53c2.097 0 3.897-1.37 4.688-3.255h.995c.79 1.886 2.59 3.255 4.686 3.255 2.097 0 3.897-1.37 4.688-3.255h.27v-1.058z" fill="#62B355" mask="url(#b)"/></g></g></svg>