<svg width="162" height="162" viewBox="0 0 162 162" xmlns="http://www.w3.org/2000/svg" style="background:#62B355"><title>porthole-foi</title><g fill="none" fill-rule="evenodd"><path d="M111 109s.377-6.976.29-20.65c-.052-8.356-2.27-11.995-2.27-11.995h-1.352s1.834 8.255 1.927 14.913C109.705 99.17 109 109 109 109H88v31h74v-31h-51z" fill="#FFF"/><path d="M42.677 61.84c.41-12.097 17.258-32.405 17.258-32.405L6-5C-5.593 2.16-14.792 13.8-21 26c13.615 7.18 60.52 34.36 63.677 35.84z" fill="#F3F1EC"/><path d="M42.677 62.13s15.98-12.94 17.873-32.08C50.172 19.67 43.33 43.58 43.33 43.58l-3.69 16.607 3.037 1.942zM78 102v60h84v-36H84v-24h-6z" fill="#A09E9B"/><path d="M100.055 89.38s-6.426-2.72-7.442-10.702c-.135-1.058.157-2.095.447-3.067l-.018-.08.09-.156c1.395-4.316 5.443-7.438 10.223-7.438 4.644 0 8.6 2.947 10.098 7.073 0 0 .998 8.36-1.5 12.62.348 4.898 5.46 5.552 7.346 1.4 2.624-5.774 4.217-16.937-5.25-23.167 9.798 2.027 11.547 10.57 12.597 13.37.9 2.398 3.834 3.477 6.427 3.105.783-.112 1.362-.807 1.353-1.598-.066-6.013-6.986-12.005-5.68-12.005 1.4 0 3.757-.607 5.248-2.872.058-.627-9.776-8.06-10.77-8.66-2.645-1.594-13.578-6.587-23.848-7.68-.246-.028-.496-.014-.74.03-27.335 5.115-41.97-15.808-41.97-15.808s-7.697 9.797-13.645 25.193c25.892 5.248 51.745 36.6 54.194 37.65 2.45 1.05 10.48-.682 11.878-1.032 1.4-.35.583-4.024-1.516-5.773-.512-.427-1.118-.605-1.766-.65 0 0-2.017-.158-5.757.246" fill="#FFDFB4"/><path d="M106.992 95.898c1.426-.344 2.99-.79 2.768-1.71l-.077-.32c-.222-.922-2.192-2.512-3.618-2.17l-2.653.65 1.166 4.09 2.414-.54zM114.555 88.124c-.68 1.3-1.374 2.77-.535 3.21l.292.152c.84.44 3.333.003 4.013-1.297l1.258-2.425-3.847-1.814-1.18 2.174zM131.014 80.248c.615 1.332 1.158 2.086 2.018 1.688l.298-.138c.86-.398 1.503-1.812.887-3.143l-1.157-2.475-3.05 1.807 1.004 2.26z" fill="#FFECD4"/><path d="M59.935 37.503c-1.81.09-11.5 14.824-13 22.42-2.41-.65-2.67-.755-3.967-.988 4.69-12.73 13.645-25.258 13.645-25.258s2.094 2.628 3.322 3.826" fill="#D4B995"/><path d="M60.55 30.05S44.71 49.355 42.677 62.13c-9.635-4.51-14.724-6.863-14.724-6.863s7.688-28.753 19.68-35.058c7.075 2.92 12.917 9.84 12.917 9.84" fill="#FFF"/><path d="M41.484 56.19c0 .848-.688 1.537-1.538 1.537-.85 0-1.537-.69-1.537-1.538 0-.85.687-1.538 1.536-1.538.85 0 1.538.688 1.538 1.537" fill="#484848"/><path d="M84 126v38.71c3.845-.183 7.125-.563 10.602-1.12L84 126z" fill="#000"/><path d="M164.23 130H84v2h77.322c.99-.57 1.957-1.143 2.908-2" fill="#000"/></g></svg>