<svg width="162" height="162" viewBox="0 0 162 162" xmlns="http://www.w3.org/2000/svg" style="background:#62b355"><title>porthole-foi</title><g fill="none" fill-rule="evenodd"><path d="M111 109s.377-6.976.29-20.65c-.052-8.356-2.269-11.995-2.269-11.995h-1.353s1.834 8.255 1.927 14.913C109.705 99.17 109 109 109 109H88v31h74v-31h-51z" fill="#FFF"/><path d="M42.677 61.839c.41-12.096 17.258-32.404 17.258-32.404L6-5C-5.593 2.161-14.792 13.8-21 26c13.615 7.18 60.52 34.36 63.677 35.839z" fill="#F3F1EC"/><path d="M42.677 62.129s15.979-12.94 17.873-32.08C50.172 19.672 43.33 43.582 43.33 43.582l-3.691 16.606 3.038 1.942zM78 102v60h84v-36H84v-24h-6z" fill="#A09E9B"/><path d="M100.055 89.379s-6.426-2.718-7.442-10.701c-.135-1.058.157-2.095.447-3.067l-.018-.082.09-.155c1.395-4.316 5.443-7.438 10.223-7.438 4.644 0 8.6 2.947 10.098 7.073 0 0 .998 8.362-1.501 12.62.35 4.899 5.46 5.553 7.347 1.4 2.625-5.773 4.218-16.936-5.248-23.166 9.797 2.027 11.546 10.57 12.596 13.369.9 2.399 3.834 3.478 6.427 3.106a1.597 1.597 0 0 0 1.353-1.598c-.066-6.013-6.986-12.005-5.68-12.005 1.4 0 3.757-.607 5.248-2.872.058-.627-9.776-8.06-10.77-8.66-2.645-1.594-13.578-6.587-23.848-7.681a2.55 2.55 0 0 0-.739.032c-27.336 5.114-41.97-15.81-41.97-15.81s-7.698 9.798-13.646 25.194c25.892 5.248 51.745 36.6 54.194 37.65 2.45 1.05 10.479-.682 11.878-1.032 1.4-.35.583-4.024-1.516-5.773-.512-.427-1.118-.605-1.766-.65 0 0-2.017-.158-5.757.246" fill="#FFDFB4"/><path d="M106.992 95.898c1.426-.344 2.99-.79 2.768-1.711l-.077-.32c-.222-.921-2.192-2.511-3.618-2.168l-2.653.65 1.166 4.09 2.414-.541zM114.555 88.124c-.68 1.3-1.374 2.77-.535 3.21l.292.152c.84.44 3.333.003 4.013-1.297l1.258-2.424-3.847-1.814-1.181 2.173zM131.014 80.248c.615 1.332 1.158 2.086 2.018 1.688l.298-.138c.86-.398 1.503-1.812.887-3.143l-1.157-2.475-3.05 1.807 1.004 2.261z" fill="#FFECD4"/><path d="M59.935 37.503c-1.809.09-11.501 14.824-13.001 22.42-2.408-.651-2.67-.755-3.966-.988 4.69-12.73 13.645-25.258 13.645-25.258s2.094 2.628 3.322 3.826" fill="#D4B995"/><path d="M60.55 30.05S44.71 49.355 42.677 62.13c-9.635-4.511-14.724-6.863-14.724-6.863s7.688-28.753 19.681-35.058c7.074 2.922 12.916 9.841 12.916 9.841" fill="#FFF"/><path d="M41.484 56.19a1.538 1.538 0 1 1-3.075 0 1.538 1.538 0 0 1 3.075 0" fill="#484848"/><path d="M84 126v38.71c3.845-.183 7.125-.563 10.602-1.12L84 126z" fill="#000" opacity=".213"/><path d="M164.23 130H84v2h77.322c.99-.571 1.957-1.143 2.908-2" fill="#000" opacity=".33"/></g></svg>