<svg width="162" height="162" viewBox="0 0 162 162" xmlns="http://www.w3.org/2000/svg" xmlns:xlink="http://www.w3.org/1999/xlink" style="background:#4FADED"><title>porthole-cities</title><defs><path id="a" d="M0 110.607h61.442V0H0v110.607z"/><path id="c" d="M.08 14.843h13.756V0H.08v14.843z"/><path id="e" d="M11.332 14.125H0V0h11.332v14.125z"/><path id="g" d="M.11 0v46.697h29.292V0H.112z"/></defs><g fill="none" fill-rule="evenodd"><path d="M1.42 52.564C-1.534 51.55-4.703 51-8 51c-16.016 0-29 12.984-29 29s12.984 29 29 29c6.03 0 11.63-1.84 16.27-4.99C13.58 110.706 21.79 115 31 115c6.8 0 13.055-2.34 18-6.26 4.945 3.92 11.2 6.26 18 6.26 10.594 0 19.86-5.68 24.92-14.16 1.013.105 2.04.16 3.08.16 7.623 0 14.56-2.942 19.736-7.75C119.713 102.054 129.162 108 140 108c15.96 0 28.91-12.893 29-28.83 7.53-2.343 13-9.368 13-17.67 0-10.217-8.283-18.5-18.5-18.5-6.388 0-12.02 3.238-15.345 8.162C145.568 50.406 142.832 50 140 50c-.85 0-1.692.037-2.524.108C135.504 42.01 128.204 36 119.5 36c-6.5 0-12.215 3.35-15.515 8.42-2.83-.922-5.85-1.42-8.985-1.42-7.535 0-14.398 2.873-19.554 7.584C72.38 48.33 68.596 47 64.5 47c-8.826 0-16.21 6.18-18.055 14.45-2.584-1.63-5.444-2.86-8.493-3.61.032-.443.048-.89.048-1.34C38 46.283 29.717 38 19.5 38c-8.867 0-16.276 6.238-18.08 14.564z" fill="#65965D"/><path d="M63.823 61.927c.326.074.65.152.973.234 3.66.426 7.068 1.673 10.035 3.555C77.595 55.508 86.92 48 98 48c5.607 0 10.764 1.923 14.85 5.144C119.557 46.854 128.578 43 138.5 43c20.71 0 37.5 16.79 37.5 37.5S159.21 118 138.5 118c-.974 0-1.94-.037-2.896-.11-6.57 10.855-18.49 18.11-32.104 18.11-9.13 0-17.497-3.262-24-8.685-6.503 5.423-14.87 8.685-24 8.685-12.2 0-23.037-5.825-29.886-14.845C19.802 124.855 12.9 127 5.5 127-15.21 127-32 110.21-32 89.5S-15.21 52 5.5 52c3.862 0 7.588.584 11.094 1.668C19.02 42.98 28.578 35 40 35c13.255 0 24 10.745 24 24 0 .99-.06 1.968-.177 2.927z" fill="#83B37C"/><path fill="#7C7B79" d="M-1 80h166v84H-1z"/><path fill="#FFD835" d="M30.75 120.203H-1.344l.176 4.612h33.455M111.653 120.203h-59l-1.632 4.612h62.265M132.02 124.815l31.325.185v-4.797h-29.79"/><path fill="#529647" d="M49.004 71.488h63.704v-23.06H49.004"/><path fill="#62B355" d="M49.004 88.206h63.704v-23.06H49.004"/><path d="M63.957 86.43c2.75 0 5.278-.955 7.272-2.55 1.993 1.595 4.52 2.55 7.27 2.55 4.19 0 7.86-2.21 9.915-5.525.375.036.754.056 1.14.056 3.147 0 6.002-1.25 8.1-3.276 1.997 3.552 5.8 5.953 10.166 5.953 1.747 0 3.4-.386 4.888-1.074v-21.17c-1.487-.687-3.14-1.074-4.887-1.074-.357 0-.71.018-1.06.05-.73-3.3-3.67-5.77-7.19-5.77-2.706 0-5.07 1.46-6.35 3.635-1.153-.383-2.385-.592-3.666-.592-3.015 0-5.763 1.145-7.833 3.023-1.242-.958-2.8-1.53-4.49-1.53-3.494 0-6.417 2.435-7.172 5.7-1.04-.64-2.19-1.12-3.413-1.41.02-.213.03-.43.03-.65 0-4.066-3.296-7.363-7.363-7.363-3.602 0-6.598 2.587-7.236 6.004-.966-.395-1.998-.662-3.072-.786v23.163c2.052-.235 3.942-1.002 5.53-2.16 2.12 2.906 5.55 4.797 9.423 4.797" fill="#62B355"/><path fill="#484848" d="M49.004 146.434h63.704v-64.57H49.004"/><path fill="#FFD835" d="M102.063 109.446H63.377l1.014-2.93h36.66"/><path d="M62.288 90.297c-3.127 2.23-3.668 7.168.797 8.192 4.464 1.023 18.655-.294 22.322-1.464 3.667-1.17 16.104-1.755 13.234-4.39-2.87-2.632-13.233-4.68-19.77-4.387-6.537.29-13.713 0-16.582 2.047" fill="#8A836F"/><path d="M112.708 42.24c0-2.51-1.796-4.597-4.172-5.055h-55.36c-2.377.458-4.172 2.546-4.172 5.056v7.052h63.704v-7.05z" fill="#FFD835"/><path fill="#FFF" d="M55.633 65.722h50.445v-9.224H55.633"/><path d="M55.922 65.434h49.868v-8.648H55.922v8.648zm-.577.577h51.022v-9.8H55.345v9.8z" fill="#9E9E9E"/><path d="M78.896 90.643c-6.537.32-13.712 0-16.582 2.232-1.084.843-1.856 2.04-2.218 3.29.408 1.21 1.37 2.2 3.015 2.61 4.465 1.116 18.656-.32 22.323-1.595 2.5-.87 9.08-1.443 12.1-2.63-3.86-2.432-12.783-4.193-18.637-3.907" fill="#A69B80"/><g transform="translate(49.004 37.185)"><mask id="b" fill="#fff"><use xlink:href="#a"/></mask><path d="M61.442.84C60.62.28 59.624 0 58.552 0H41.328L0 92.727v17.842l12.55.037L61.44.84z" fill="#FFF" mask="url(#b)"/></g><path d="M80.16 37.473l-.024-12.395H52.762c-4.305 0-7.794 3.49-7.794 7.794v132.57c1.136.623 2.288 1.22 3.46 1.785V41.28c0-2.155 1.746-3.807 3.902-3.807h27.83z" fill="#333"/><path d="M80 25.08l.024 12.395h27.935c2.145 0 3.884 1.652 3.884 3.808v124.08c1.067-.51 2.12-1.046 3.156-1.607V32.874c0-4.305-3.473-7.794-7.757-7.794H80z" fill="#404040"/><path d="M108.228 37.473H52.33c-2.155 0-3.903 1.652-3.903 3.808v105.947c9.68 4.664 20.533 7.278 31.996 7.278 11.35 0 22.102-2.565 31.71-7.144V41.28c0-2.155-1.75-3.807-3.905-3.807" fill="#787774"/><path fill="#529647" d="M48.427 71.488h63.705v-23.06H48.427"/><path d="M63.38 86.43c2.75 0 5.278-.955 7.272-2.55 1.994 1.595 4.52 2.55 7.272 2.55 4.188 0 7.858-2.21 9.914-5.525.375.036.755.056 1.14.056 3.148 0 6.002-1.25 8.1-3.276 1.998 3.552 5.8 5.953 10.167 5.953 1.745 0 3.4-.386 4.887-1.074v-21.17c-1.487-.687-3.142-1.074-4.887-1.074-.36 0-.713.018-1.063.05-.728-3.3-3.67-5.77-7.19-5.77-2.705 0-5.07 1.46-6.348 3.635-1.153-.383-2.385-.592-3.667-.592-3.015 0-5.763 1.145-7.833 3.023-1.243-.958-2.8-1.53-4.49-1.53-3.494 0-6.417 2.435-7.172 5.7-1.04-.64-2.19-1.12-3.413-1.41.018-.213.03-.43.03-.65 0-4.066-3.298-7.363-7.365-7.363-3.6 0-6.597 2.587-7.236 6.004-.967-.395-1.998-.662-3.073-.786v23.163c2.052-.235 3.942-1.002 5.53-2.16 2.12 2.906 5.55 4.797 9.423 4.797" fill="#62B355"/><path fill="#484848" d="M48 82v80.787l64 .69V82"/><path d="M112.132 42.24c0-2.51-1.796-4.597-4.172-5.055H52.6c-2.377.458-4.173 2.546-4.173 5.056v7.052h63.705v-7.05z" fill="#FFD835"/><path fill="#FFF" d="M55.057 65.722h50.445v-9.224H55.057"/><path d="M55.345 65.434h49.87v-8.648h-49.87v8.648zm-.576.577h51.02v-9.8H54.77v9.8z" fill="#9E9E9E"/><path fill="#62B355" d="M48.427 82.153h63.705v-16.43H48.427"/><path fill="#FFD835" d="M101.486 109.446H62.8l1.015-2.93h36.657"/><path d="M61.71 90.297c-3.125 2.23-3.666 7.168.798 8.192 4.465 1.023 18.655-.294 22.323-1.464 3.668-1.17 16.105-1.755 13.234-4.39-2.87-2.632-13.233-4.68-19.77-4.387-6.538.29-13.713 0-16.583 2.047" fill="#8A836F"/><path d="M78.32 90.643c-6.538.32-13.713 0-16.583 2.232-1.083.843-1.856 2.04-2.217 3.29.407 1.21 1.37 2.2 3.014 2.61C67 99.89 81.19 98.455 84.857 97.18c2.5-.87 9.08-1.443 12.1-2.63-3.86-2.432-12.783-4.193-18.638-3.907" fill="#A69B80"/><path d="M115.302 122.22c-3.8 2.527-10.088 0-10.088-6.053 0-5.945 3.796-8.36 8.36-8.36" fill="#333"/><g transform="translate(102.33 123.95)"><mask id="d" fill="#fff"><use xlink:href="#c"/></mask><path d="M13.836 11.53C11.1 15.963.906 16.73.112 8.93-.468 3.217 6.94.66 12.107 0" fill="#333" mask="url(#d)"/></g><g transform="translate(106.078 73.794)"><mask id="f" fill="#fff"><use xlink:href="#e"/></mask><path d="M9.224 7.206c.2 7.04 4.642 6.92 0 6.92S0 14.11 0 7.95C0 1.902 3.717 0 8.36 0c4.642 0 .664.16.864 7.206" fill="#333" mask="url(#f)"/></g><path d="M115.302 104.925c-4.442 1.823-9.224-.045-9.224-6.415 0-6.256 3.846-8.286 8.648-8.286" fill="#333"/><path d="M122.6 115.302c0 3.82-3.698 6.92-8.26 6.92-4.563 0-8.262-.866-8.262-6.92 0-5.945 3.7-6.918 8.262-6.918s8.26 3.098 8.26 6.918M122.02 129.624c.425 3.33.602 6.053-4.565 6.713-5.167.66-13.355 3.478-14.147-4.32-.58-5.714 7.438-7.083 12.605-7.743 5.168-.66 5.68 2.02 6.106 5.35" fill="#FFDFB4"/><g transform="translate(31.42 80.135)"><mask id="h" fill="#fff"><use xlink:href="#g"/></mask><path d="M5.082 33.932l-1.117-1.36C1.16 29.16-1.76 22.013 1.655 19.208L15.203 1.82C18.617-.986 23.66-.492 26.465 2.922l1.117 1.36c2.806 3.414 2.313 8.456-1.102 11.262L14.914 29.69l-.608 17.007c-.705-.768-6.42-9.35-9.224-12.765" fill="#333" mask="url(#h)"/></g><path d="M32.825 114.438l-1.117-1.36c-2.805-3.414-3.414-12.37 0-15.177l13.548-17.386c3.415-2.806 8.457-2.312 11.263 1.102l1.116 1.36c2.806 3.414 2.312 8.456-1.102 11.262l-11.566 14.146v17.872c0 .024-9.337-8.404-12.143-11.818" fill="#FFDFB4"/><path d="M51.618 86.394c1.78-1.89 2.418-3.64.556-5.394l-.864-.576c-1.862-1.754-4.273-.16-6.054 1.73l-1.534 2.47c-.22.356-.143.818.18 1.082l3.956 3.244c.386.317.95.287 1.3-.067l2.46-2.49z" fill="#FFECD4"/><path d="M123.754 80.88c.2 7.038-3.763 7.038-8.406 7.038-4.642 0-8.405-.88-8.405-7.04 0-6.048 3.763-7.038 8.405-7.038 4.643 0 8.206-.007 8.406 7.04M124.33 97.645c-.097 6.37-3.892 7.28-8.693 7.28-4.802 0-8.694-.91-8.694-7.28 0-6.256 3.892-7.28 8.694-7.28 4.8 0 8.782 1.503 8.693 7.28" fill="#FFDFB4"/><path d="M113.472 130.734c.338 2.645.538 4.798-1.736 5.088-2.274.29-5.8 2.147-6.5-4.036-.512-4.528 3.002-5.25 5.276-5.54 2.274-.29 2.622 1.843 2.96 4.488M115.302 115.302c0 3.025.048 5.477-2.738 5.477s-5.044-.685-5.044-5.478c0-4.706 2.258-5.476 5.044-5.476 2.786 0 2.738 2.452 2.738 5.476M117.105 97.645c0 3.35-.557 6.067-3.49 6.067-2.93 0-5.307-.758-5.307-6.067 0-5.214 2.377-6.067 5.308-6.067 2.932 0 3.49 2.716 3.49 6.067M116.768 80.88c0 3.24-.538 5.865-3.373 5.865-2.834 0-5.132-.733-5.132-5.866 0-5.04 2.298-5.866 5.132-5.866 2.835 0 3.373 2.626 3.373 5.865" fill="#FFECD4"/><path d="M79.062 125.836c-4.024-1.98-8.89-.323-10.87 3.7l-19.188 37.21c4.888 2.32 11.89 1.117 17.297 2.322l16.462-32.36c1.334-2.712 1.015-5.804-.563-8.14-.766-1.13-1.825-2.086-3.138-2.732z" fill="#333"/><path d="M71.058 122.836c-4.023-1.98-8.89-.323-10.87 3.7L41 163.747c4.888 2.32 11.89 1.117 17.297 2.322l16.462-32.36c1.333-2.712 1.014-5.804-.565-8.14-.765-1.13-1.824-2.086-3.137-2.732z" fill="#FFDFB4"/><path d="M72.64 132.374c1.51-3.068.213-7.138-2.305-8.377l-.874-.43c-2.517-1.24-6.648-.056-8.16 3.013l-2.784 5.73 11.475 5.188 2.65-5.124z" fill="#FFECD4"/></g></svg>