<svg width="1600" height="800" viewBox="0 0 1600 800" xmlns="http://www.w3.org/2000/svg" xmlns:xlink="http://www.w3.org/1999/xlink"><title>rocket</title><defs><circle id="a" cx="160" cy="160" r="135"/><path d="M34 0c10 0 43 89 31 189-10-8-44-11-62 0C-10 93 24 0 34 0z" id="c"/></defs><g fill="none" fill-rule="evenodd"><g transform="translate(1212 44)"><circle fill-opacity=".1" fill="#FFF" cx="160" cy="160" r="160"/><mask id="b" fill="#fff"><use xlink:href="#a"/></mask><use fill="#FFF" xlink:href="#a"/><path d="M105 212c-2.266-.755-3.483 1.932-4 4-.483 1.932.817 1.988 1 4 .317 3.488-1.124 3.628 0 7 .876 2.628 2.812 2.387 4 5 1.312 2.887-.75 3.374 1 6 4 6 6.13 2.136 11 5 17 10 14.3 1.765 22 6 2.3 1.265-2.584 3.25-2 5 .416 1.25 3.578 3.406 5 3 2.078-.594-.098-5.7 2-5 5.402 1.8 5.46 5.076 12 9 .96.576 2.83-.677 3 0 .83 3.323-4.014 6.534-1 9 2.486 2.034 9.49-1.064 13 1 4.99 2.936-.886 5.25 4 8 3.114 1.75 6.22 1.006 11 0 4.72-.994 3.49-2.712 8-4 2.49-.712 3.777.996 6 0 12.277-5.504 19.448-9.093 23-13 1.448-1.593-7.39.13-13 2-7.89 2.63-6.26 4.537-14 7-3.26 1.037-5.066.978-8 0-3.066-1.022-.8-2.8-4-4-4.8-1.8-11.04-.08-12-2-1.04-2.08 6.88-2.642 8-6 1.38-4.142-.187-4.78-3-9-2.187-3.28-3.56-5-8-5-6.06 0-7.474 0-13 5-1.005.91-3.743.977-4 0-2.243-8.523 4.952-11.725-1-19-3.048-3.725-8-5-15-3-7.32 2.09-.223-6.14-3-11-1.223-2.14-5.662-3.67-7-3-1.662.83-.733 3.4 1 6 4 6-4 19-10 6-2.3-4.983-4-11-13-14zm40 64c15 4 10-4 4-7-6.243-3.12-4-7-15-7-3.165 0-.7 2.42-5 5-5 3-2.178 5.91 0 7 4.822 2.41 10.71.59 16 2zm46-185c-1.14-5.704-9.617-3.148-12-10-1.617-4.648 1.09-9.12 4-13 1.59-2.12 2.755 1.842 5 1 1.755-.658 1.23-4.56 3-4 7.73 2.44 10.242 3.09 16 10 1.742 2.09.403 4.96-1 8-1.597 3.46-5.8 2.28-5 5 1.7 5.78 4.715 10.61 10 12 4.215 1.11 6.175-1.632 9-7 2.175-4.132-.432-8.06 1-12 .568-1.56 2.26-.667 3 1 1.26 2.833-.358 4.83 1 8 1.642 3.83 3.158 6 5 6 1.158 0 1.728-4.058 1-6-.772-2.058-4-.592-4-2 0-1.592 1.89-4.563 4-4 5.39 1.437 5.44 4.21 11 8 5.44 3.71 6.036 2.39 11 7 2.036 1.89.946 4.288 3 6 3.946 3.288 5.325.08 9 4 3.825 4.08 2.405 7.424 6 12 1.905 2.424 3.385-.746 5 2 3.385 5.754 1.75 8.5 5 15 2.25 4.5 4.596 2.506 6 7 1.096 3.506-1.272 4.65-1 9 .228 3.65 1.742 3.383 2 7 .242 3.383-.778 3.452-1 7-.278 4.452 1.227 5.32 0 9-1.773 5.32-4.936 3.68-6 9-.936 4.68 3.29 6.097 2 11-3.71 14.097-6.394 16.09-13 26-1.394 2.09-1.16-3.4-3-2-8.66 6.6-7.92 12.016-17 19-3.92 3.016-9 3-9 1 0-2.788 5.225-3.86 10-10 2.225-2.86 2.124-4.482 4-8 2.124-3.982 6.8-6.87 5-7-5.2-.37-10.365-.136-19 6-10.365 7.364-8.963 12.82-19 21-3.463 2.82-4.016.262-8 1-9.516 1.762-10.28 5.744-19 4-3.78-.756-2.66-5.214-6-9-4.16-4.714-13-3-9-8 5.164-6.455 15.06-13.32 14-21-.94-6.82-18-.377-18-8 0-5 13-21 41-24 6.085-.652 7.09-7.424 8-15 .59-4.924-3.93-5-5-10-.43-2 3.32-3.366 2-4-11.18-5.366-10.552-5.022-24-7-3.552-.522-5.913 5.087-11 0-5-5 1.573-9.166-2-14-4.927-6.666-14.445-2.328-14-7 .555-5.828 11-8 16-14 1.614-1.937-4.702-3.19-4-6 1.298-5.19 8.86-5.704 8-10z" fill="#000" opacity=".05" mask="url(#b)"/><circle fill="#000" opacity=".05" mask="url(#b)" cx="218" cy="192" r="135"/></g><path d="M183.204 484.73c3.564-1.123 7.36-1.73 11.296-1.73 19.644 0 35.76 15.104 37.368 34.333C245.535 519.435 256 531.245 256 545.5c0 15.573-12.49 28.23-28 28.496V574H118v-.005c-.166.003-.333.005-.5.005-14.083 0-25.5-11.417-25.5-25.5 0-13.416 10.36-24.413 23.518-25.424-.34-2.142-.518-4.338-.518-6.576 0-22.92 18.58-41.5 41.5-41.5 10.17 0 19.486 3.66 26.704 9.73zM615.464 444.725c-3.112-1.117-6.467-1.725-9.964-1.725-15.57 0-28.32 12.06-29.423 27.35C565.8 472.2 558 481.19 558 492c0 12.15 9.85 22 22 22h86c11.046 0 20-8.954 20-20 0-10.142-7.55-18.52-17.334-19.824.22-1.527.334-3.088.334-4.676 0-17.95-14.55-32.5-32.5-32.5-8.023 0-15.367 2.907-21.036 7.725zM361.753 430.225c-2.44-.795-5.047-1.225-7.753-1.225-12.873 0-23.474 9.73-24.85 22.237C320.565 452.677 314 460.53 314 470c0 10.493 8.06 19 18 19h72v-.007c.166.005.333.007.5.007 9.113 0 16.5-7.387 16.5-16.5 0-8.766-6.836-15.936-15.468-16.468.307-1.63.468-3.312.468-5.032 0-14.912-12.088-27-27-27-6.558 0-12.57 2.338-17.247 6.225z" fill="#FFF"/><path fill="#F4A140" d="M970 323.258l-11 350.207h65L1013 320"/><path fill="#FFD836" d="M978 328.144l-6 337.176h40l-8-338.805"/><g transform="translate(957 156)"><mask id="d" fill="#fff"><use xlink:href="#c"/></mask><use fill="#FFF" xlink:href="#c"/><circle fill="#4A4A4A" mask="url(#d)" cx="33" cy="87" r="25"/><circle fill="#C7E9FF" mask="url(#d)" cx="33" cy="87" r="20"/><path d="M46.045 71.84C50.305 75.507 53 80.94 53 87c0 11.046-8.954 20-20 20-6.06 0-11.493-2.696-15.16-6.955L46.045 71.84z" fill="#B4DBF5" mask="url(#d)"/><path d="M.14 183H0v18h68v-18h-.14c.093-.33.14-.663.14-1 0-6.075-15.222-11-34-11s-34 4.925-34 11c0 .337.047.67.14 1z" fill="#4A4A4A" mask="url(#d)"/><path d="M57.37 47H58V-3H11v50h.63c2.447-5.733 11.758-10 22.87-10 11.112 0 20.423 4.267 22.87 10z" fill="#E04B4B" mask="url(#d)"/><path d="M34 0c8 15 41 93 6 185 5 3 19 10 36 11C86 132 71 6 34 0z" fill="#000" opacity=".1" mask="url(#d)"/></g><g fill="#E04B4B"><path d="M970 278c4 7 6 23 4 50-18.796 12-38 26-38 26s11-49 14-53 18-21 20-23zM1012.785 278c-4 7-6 23-4 50 18.796 12 38 26 38 26s-11-49-14-53-18-21-20-23zM991 279c5 3 9 52 0 83-9-31-5-80 0-83z"/></g><path d="M1104.644 584.668c-7.286-3.008-15.27-4.668-23.644-4.668-33.51 0-60.813 26.587-61.962 59.817-5.853 1.45-11.377 3.732-16.44 6.712C992.467 626.07 971.377 612 947 612c-7.34 0-14.382 1.276-20.917 3.617C913.21 605.224 896.833 599 879 599c-1.57 0-3.127.048-4.672.143C870.064 571.315 846.02 550 817 550c-15.104 0-28.86 5.774-39.18 15.234C771.272 561.888 763.856 560 756 560c-14.21 0-26.98 6.175-35.768 15.99C714.7 574.687 708.93 574 703 574c-16.672 0-32.073 5.44-44.526 14.64C649.618 583.163 639.18 580 628 580c-26.375 0-48.638 17.605-55.68 41.704-3.373-.464-6.82-.704-10.32-.704-13.438 0-26.05 3.534-36.96 9.724C516.265 619.336 502.49 612 487 612c-6.228 0-12.18 1.186-17.64 3.345C458.92 605.228 444.687 599 429 599c-21.217 0-39.773 11.392-49.885 28.393C367.945 620.79 354.915 617 341 617c-20.356 0-38.818 8.11-52.332 21.275C281.648 635.515 274 634 266 634c-14.344 0-27.55 4.87-38.054 13.05C214.683 635.2 197.183 628 178 628c-15.48 0-29.864 4.69-41.81 12.725C126.186 635.78 114.918 633 103 633c-16.918 0-32.527 5.6-45.075 15.05C53.518 646.718 48.843 646 44 646c-6.228 0-12.18 1.186-17.64 3.345C15.92 639.228 1.687 633-14 633c-32.033 0-58 25.967-58 58 0 31.363 24.894 56.912 56 57.966V800h1714V650h-9.747c-12.895-22.693-37.287-38-65.253-38-11.57 0-22.53 2.62-32.315 7.3-10.94-17.59-30.445-29.3-52.685-29.3-14.627 0-28.07 5.065-38.674 13.538-7.2-2.926-15.075-4.538-23.326-4.538-8.672 0-16.93 1.78-24.424 4.996-8.3-14.345-23.81-23.996-41.576-23.996-13.976 0-26.556 5.973-35.328 15.505C1362.024 585.78 1346.187 580 1329 580c-7.036 0-13.846.97-20.303 2.78-10.444-19.51-31.02-32.78-54.697-32.78-7.544 0-14.774 1.347-21.46 3.815C1224.103 546.457 1213.07 542 1201 542c-18.264 0-34.146 10.2-42.26 25.216-1.894-.143-3.808-.216-5.74-.216-18.426 0-35.3 6.644-48.356 17.668z" fill="#FFF"/></g></svg>