<svg enable-background="new 0 0 600 600" viewBox="0 0 600 600" xmlns="http://www.w3.org/2000/svg"><g fill-opacity=".05"><path d="m476.6 93.8c.7 1.9 2.7 3 4.7 2.6l9-1.6c1.9 1.2 3.9 2.1 5.9 2.9 1-3.4 2.6-6.5 4.6-9.2-6.2-1.9-11.1-6.7-13.5-12.8-4-10.8 1.2-22.7 11.6-26.6s22.2 1.7 26.2 12.5c1.4 3.9 1.7 8 .9 12 1.5-.2 3-.4 4.6-.5 1.9 0 3.8.1 5.7.4.7-5.1.2-10.4-1.7-15.5-4.7-12.6-16.7-20.9-29.7-20.6-13.1.3-24.3 9.1-27.9 21.9l-7.8 4.6c-1.8 1-2.5 3.2-1.8 5.1zm.2-14.2c-.4-1.1.1-2.3 1.2-2.7h.1l1.9-.7c1.1-.4 2.3.1 2.7 1.2s-.1 2.3-1.2 2.7c0 0 0 0-.1 0l-1.9.7c-1 .4-2.2-.2-2.7-1.2z"/><path d="m502.4 133.2c.7 1.9 2.7 3 4.7 2.6l9-1.6c11.1 7.3 25.4 6.6 35.4-1.7s13.6-22.4 8.9-35.1c-4.7-12.6-16.7-20.9-29.7-20.6-13.1.3-24.3 9.1-27.9 21.9l-7.8 4.6c-1.8 1-2.5 3.2-1.8 5.1zm.1-14.1c-.4-1.1.1-2.3 1.2-2.7h.1l1.9-.7c1.1-.4 2.3.1 2.7 1.2s-.1 2.3-1.2 2.7c0 0 0 0-.1 0l-1.9.7c-1.1.4-2.3-.2-2.7-1.2zm10.6-4c-4-10.8 1.2-22.7 11.6-26.6s22.2 1.7 26.2 12.5c4 10.8-1.2 22.7-11.6 26.6-10.4 3.9-22.2-1.7-26.2-12.5z"/><path d="m450.7 117.4c1.4 3.8 5.6 5.7 9.4 4.3.2-.1.4-.2.6-.3 1.7 1.6 3.7 2.9 5.8 3.9 0 .9.1 1.8.5 2.7 1.4 3.8 5.6 5.7 9.4 4.3 2.2-.8 3.7-2.6 4.4-4.6 2.2-.3 4.3-.8 6.3-1.6.4.6.8 1.2 1.4 1.7 1.7 1.4 4.1 1.8 6.2 1l2.9-1.1-1.5-3.9-2.9 1.1c-.7.3-1.5.1-2.1-.3-.6-.5-.8-1.2-.7-2 .1-.7.6-1.4 1.4-1.6l2.9-1.1-1.5-3.9-2.8 1.1c-2.1.8-3.7 2.6-4.1 4.8-1.7.8-3.6 1.4-5.4 1.6-.1-.2-.1-.4-.1-.6-1.4-3.8-5.6-5.7-9.4-4.3-1.4.5-2.6 1.5-3.4 2.7-1.4-.8-2.8-1.7-4-2.8 1.1-1.8 1.4-4.1.6-6.2-1.1-3-4-4.8-7-4.7-.3-1.2-.5-2.5-.5-3.7.3-.1.7-.1 1-.3 3.8-1.4 5.7-5.6 4.3-9.4-.4-1.1-1.1-2-1.9-2.8.6-.9 1.3-1.8 2-2.6 1.7 1.3 4 1.6 6 .9l2.9-1.1-1.5-3.9-2.9 1.1c-.7.3-1.5.1-2.1-.3-.6-.5-.8-1.2-.7-2 .1-.7.6-1.4 1.4-1.6l2.9-1.1-1.5-3.9-2.8 1.1c-2.1.8-3.7 2.6-4.1 4.8-.1.8-.1 1.6.1 2.4-1.3 1.3-2.5 2.8-3.5 4.4-1.2-.2-2.5-.1-3.7.3-3.8 1.4-5.7 5.6-4.3 9.4.7 2 2.3 3.5 4.2 4.2 0 1.8.3 3.6.7 5.4-2.9 2-4.1 5.4-2.9 8.5zm3.9-1.4c-.6-1.6.2-3.4 1.8-4s3.4.2 4 1.8-.2 3.4-1.8 4-3.4-.2-4-1.8zm-2.3-18.1c-.6-1.6.2-3.4 1.8-4s3.4.2 4 1.8-.2 3.4-1.8 4-3.4-.2-4-1.8zm18.5 28.7c-.6-1.6.2-3.4 1.8-4s3.4.2 4 1.8-.2 3.4-1.8 4c-1.6.7-3.3-.1-4-1.8z"/><path d="m323.2 539.2-1.7-6.8c-.2-.6-.5-1.1-1.1-1.4s-1.2-.4-1.8-.3l-2.6.6-4.1-16.3 12.8-3.2c1.3-.3 2-1.6 1.7-2.8-.3-1.3-1.6-2-2.8-1.7l-8.5 2.1-4.1-16.7 23.6-8c.1 0 .1-.1.2-.1.2-.1.3-.2.5-.3.1-.1.2-.2.3-.2.1-.1.1-.1.2-.1l11.5-14.4c.1-.1.1-.1.1-.2s.1-.1.1-.2 0-.1.1-.2c0-.1.1-.2.1-.3v-.1c0-.1 0-.2 0-.3s0-.1 0-.2 0-.1 0-.2 0-.2 0-.2c0-.1 0-.1-.1-.2 0-.1-.1-.2-.1-.2 0-.1-.1-.1-.1-.2s-.1-.1-.1-.2c0 0-.1-.1-.1-.1-.1-.1-.1-.2-.2-.2 0 0-.1-.1-.1-.1-.1-.1-.2-.1-.3-.2 0 0-.1-.1-.1-.1-.1 0-.2-.1-.2-.1-.1 0-.1-.1-.2-.1l-17.9-4.4c-.1 0-.2 0-.3 0 0 0 0 0-.1 0-.3 0-.6 0-.9.1h-.1l-21.6 7.3-5.5-22.2c-.1-.3-.2-.5-.4-.8 0 0 0 0-.1-.1s-.1-.2-.2-.3l-13.4-12.7c-.1 0-.1-.1-.2-.1-.1-.1-.1-.1-.2-.2 0 0-.1 0-.1-.1-.1-.1-.2-.1-.3-.1h-.1c-.1 0-.2-.1-.3-.1s-.1 0-.2 0-.2 0-.3 0-.1 0-.2 0-.2 0-.2 0c-.1 0-.1 0-.2.1-.1 0-.2.1-.2.1-.1 0-.1.1-.2.1s-.1.1-.2.1c-.1.1-.1.1-.2.2 0 0-.1.1-.1.1-.1.1-.1.1-.2.2 0 .1-.1.1-.1.2s-.1.1-.1.2-.1.2-.1.2l-5.9 17.5v.2c0 .1 0 .2-.1.4v.5.2l6 24.2-16.3 5.5-2.8-8.3c-.4-1.2-1.7-1.9-3-1.5-1.2.4-1.9 1.7-1.5 3l3.6 10.5.7 2-15.9 5.4-.9-2.5c-.2-.6-.6-1.1-1.2-1.3-.6-.3-1.2-.3-1.8-.1l-6.6 2.3c-1.2.4-1.9 1.7-1.5 3l6.8 19.9c.2.6.6 1 1.1 1.3.6.3 1.2.4 1.9.2l6.6-2.3c.6-.2 1.1-.6 1.3-1.2.3-.6.3-1.2.1-1.8l-.9-2.5 15.9-5.4 4.2 12.5c.2.6.6 1 1.1 1.3.6.3 1.2.4 1.9.2 1.2-.4 1.9-1.7 1.5-3l-2.8-8.3 14.3-4.9 3.7 14.7-8.5 2.1c-1.3.3-2 1.6-1.7 2.8.2.7.6 1.2 1.2 1.5.5.3 1.1.4 1.7.2l12.8-3.2 4.1 16.3-2.6.6c-1.3.3-2 1.6-1.7 2.8l1.7 6.8c.2.6.5 1.1 1.1 1.4h.1c.5.3 1.1.4 1.7.2l20.4-5.1c1.1-.1 1.9-1.4 1.5-2.7zm-12.5-28.6-2 .5-3 .8-3.9-15.9 5-1.7zm-30.2-58.4 4.5-13.4 10.2 9.7 5.5 21.9-14.4 4.9zm-35.3 58.7-5.2-15.5 2.2-.7.9 2.5 3.5 10.4.9 2.5zm5-7.1-2-5.9 15.9-5.4 2 5.9zm20-7.6 35.9-12.2c1.2-.4 1.9-1.7 1.5-3-.4-1.2-1.7-1.9-3-1.5l-35.9 12.2-1-3-.7-2 60.6-20.6 13.7 3.4-8.8 11-60.6 20.5zm22 3 5-1.7 3.9 15.5-5.1 1.3zm9.2 18.5 6.1-1.5 4.1 16.3-6.1 1.5zm.9 24.3-.6-2.3 2.6-.6 10.6-2.6 2.6-.6.6 2.3z"/><path d="m517.3 459.2c5.7-7.1 4.6-17.6-2.5-23.3s-17.6-4.6-23.3 2.5c-3.1 3.8-4.3 8.9-3.3 13.7-22 .4-41.6 13.2-49.3 33l-11.5-2.8-6.7 27.5 9.9 2.4.9 20.8 98.9 24.1 10.4-18.1 9.9 2.4 6.7-27.5-11.5-2.8c2.3-21-9.2-41.5-28.6-51.9zm25 68.5-107.8-26.3 1.3-5.3 107.8 26.3zm-42.9-80.2c.7-2.8 3.5-4.5 6.2-3.8 2.8.7 4.5 3.5 3.8 6.2s-3.5 4.5-6.2 3.8c-2.7-.7-4.4-3.5-3.8-6.2zm1.1 17.3c21.4 5.2 35.5 24 34.1 43.6l-84.4-20.6c7.7-18 28.9-28.2 50.3-23zm24.2 79.2-82.2-20.1-.5-8.9 87.2 21.3z"/><path d="m279.5 151.3c1.3 0 2.7 0 4-.1v5.5c0 10.5 22.6 13.3 35.9 13.3s35.9-2.8 35.9-13.3v-26.7c0-10.5-22.6-13.3-35.9-13.3-1.2 0-2.7 0-4 .1v-45.4c0-10.5-22.6-13.3-35.9-13.3s-35.9 2.8-35.9 13.3v66.5c0 10.6 22.6 13.4 35.9 13.4zm67.9-8.3c-1.3 1.7-10.8 5.6-27.9 5.6-17.2 0-26.6-3.9-27.9-5.6v-4.1c7.8 3.3 19.7 4.4 27.9 4.4s20.1-1.1 27.9-4.4zm-39.9-58.5c-1.3 1.7-10.8 5.6-27.9 5.6s-26.6-3.9-27.9-5.6v-4.1c7.8 3.3 19.7 4.4 27.9 4.4s20.1-1.1 27.9-4.4zm-28 13.5c8.2 0 20.1-1.1 27.9-4.4v4.1c-1.3 1.7-10.8 5.6-27.9 5.6s-26.6-3.9-27.9-5.6v-4.1c7.8 3.4 19.7 4.4 27.9 4.4zm0 13.3c8.2 0 20.1-1.1 27.9-4.4v4.1c-1.3 1.7-10.8 5.6-27.9 5.6s-26.6-3.9-27.9-5.6v-4c7.8 3.3 19.7 4.3 27.9 4.3zm0 13.3c2 0 4.3 0 6.5-.3-1.6 1.6-2.5 3.3-2.5 5.5-1.3 0-2.7.1-4 .1-17.2 0-26.6-3.9-27.9-5.6v-4.1c7.8 3.4 19.7 4.4 27.9 4.4zm-27.9 13.1v-4.1c7.8 3.3 19.7 4.4 27.9 4.4 1.3 0 2.7 0 4-.1v5.3c-1.3 0-2.7.1-4 .1-17.1 0-26.6-3.9-27.9-5.6zm67.8 24.2c-17.2 0-26.6-3.9-27.9-5.6v-4.1c7.8 3.3 19.7 4.4 27.9 4.4s20.1-1.1 27.9-4.4v4.1c-1.3 1.7-10.7 5.6-27.9 5.6zm27.7-31.9c-2.1 1.9-11.4 5.3-27.7 5.3s-25.5-3.5-27.7-5.3c2.1-1.9 11.4-5.3 27.7-5.3 16.3-.1 25.6 3.4 27.7 5.3zm-67.6-63.9c16.2 0 25.5 3.5 27.7 5.3-2.1 1.9-11.4 5.3-27.7 5.3-16.2 0-25.5-3.5-27.7-5.3 2.2-1.8 11.5-5.3 27.7-5.3z"/><path d="m321.2 266.9c-11.1-15.4-32.4-20.9-50.9-12.2s-27.8 28.8-23 47l-12.6 5.9 12.3 26.1 8.8-4.2c-3-6.2-.3-13.7 6-16.7s13.7-.3 16.7 6l36.2-17.1c-3-6.2-.3-13.7 6-16.7s13.7-.3 16.7 6l8.8-4.2-12.3-26.1zm-40.5 18.9-26.9 12.7c-2.9-13.5 3.5-28 16.1-35.6zm7-3.2-10.8-22.9c14-4.9 29.2-.6 37.8 10.2z"/><path d="m310.2 321.9-5.2-11-13.4 6.4 5.2 10.9-16.2 7.6-4.4 24.9 35.3-16.6 1.6-.8 35.3-16.6-22-12.5z"/><path d="m241.6 182.5c-2.8-.8-4.9-3-5.7-5.7-.1-.3-.6-.3-.7 0-.8 2.8-3 4.9-5.7 5.7-.3.1-.3.6 0 .7 2.8.8 4.9 3 5.7 5.7.1.3.6.3.7 0 .8-2.8 3-4.9 5.7-5.7.3-.1.3-.6 0-.7z"/><path d="m33.3 32.1c-2.8-.8-4.9-3-5.7-5.7-.1-.3-.6-.3-.7 0-.8 2.8-3 4.9-5.7 5.7-.3.1-.3.6 0 .7 2.8.8 4.9 3 5.7 5.7.1.3.6.3.7 0 .8-2.8 3-4.9 5.7-5.7.4-.1.4-.6 0-.7z"/><path d="m175.6 25.8c-2.8-.8-4.9-3-5.7-5.7-.1-.3-.6-.3-.7 0-.8 2.8-3 4.9-5.7 5.7-.3.1-.3.6 0 .7 2.8.8 4.9 3 5.7 5.7.1.3.6.3.7 0 .8-2.8 3-4.9 5.7-5.7.3-.1.3-.6 0-.7z"/><path d="m241.6 358.2c-2.8-.8-4.9-3-5.7-5.7-.1-.3-.6-.3-.7 0-.8 2.8-3 4.9-5.7 5.7-.3.1-.3.6 0 .7 2.8.8 4.9 3 5.7 5.7.1.3.6.3.7 0 .8-2.8 3-4.9 5.7-5.7.3-.2.3-.6 0-.7z"/><path d="m126.6 394.2c-2.8-.8-4.9-3-5.7-5.7-.1-.3-.6-.3-.7 0-.8 2.8-3 4.9-5.7 5.7-.3.1-.3.6 0 .7 2.8.8 4.9 3 5.7 5.7.1.3.6.3.7 0 .8-2.8 3-4.9 5.7-5.7.3-.2.3-.6 0-.7z"/><path d="m565.5 580.8c-2.8-.8-4.9-3-5.7-5.7-.1-.3-.6-.3-.7 0-.8 2.8-3 4.9-5.7 5.7-.3.1-.3.6 0 .7 2.8.8 4.9 3 5.7 5.7.1.3.6.3.7 0 .8-2.8 3-4.9 5.7-5.7.4-.1.4-.6 0-.7z"/><path d="m439.7 336.7c-4-1.2-7.2-4.4-8.4-8.4-.1-.5-.9-.5-1 0-1.2 4-4.4 7.2-8.4 8.4-.5.1-.5.9 0 1 4 1.2 7.2 4.4 8.4 8.4.1.5.9.5 1 0 1.2-4 4.4-7.2 8.4-8.4.5-.1.5-.8 0-1z"/><path d="m194.9 454c-4-1.2-7.2-4.4-8.4-8.4-.1-.5-.9-.5-1 0-1.2 4-4.4 7.2-8.4 8.4-.5.1-.5.9 0 1 4 1.2 7.2 4.4 8.4 8.4.1.5.9.5 1 0 1.2-4 4.4-7.2 8.4-8.4.5-.2.5-.9 0-1z"/><path d="m35.3 574.5c-4-1.2-7.2-4.4-8.4-8.4-.1-.5-.9-.5-1 0-1.2 4-4.4 7.2-8.4 8.4-.5.1-.5.9 0 1 4 1.2 7.2 4.4 8.4 8.4.1.5.9.5 1 0 1.2-4 4.4-7.2 8.4-8.4.5-.1.5-.9 0-1z"/><path d="m430.4 48.3c-4-1.2-7.2-4.4-8.4-8.4-.1-.5-.9-.5-1 0-1.2 4-4.4 7.2-8.4 8.4-.5.1-.5.9 0 1 4 1.2 7.2 4.4 8.4 8.4.1.5.9.5 1 0 1.2-4 4.4-7.2 8.4-8.4.5-.1.5-.8 0-1z"/><path d="m373.4 277.1c-4.9-1.4-8.7-5.3-10.2-10.2-.2-.6-1.1-.6-1.2 0-1.4 4.9-5.3 8.7-10.2 10.2-.6.2-.6 1.1 0 1.2 4.9 1.4 8.7 5.3 10.2 10.2.2.6 1.1.6 1.2 0 1.4-4.9 5.3-8.7 10.2-10.2.6-.2.6-1 0-1.2z"/><path d="m543 199.9c-4.9-1.4-8.7-5.3-10.2-10.2-.2-.6-1.1-.6-1.2 0-1.4 4.9-5.3 8.7-10.2 10.2-.6.2-.6 1.1 0 1.2 4.9 1.4 8.7 5.3 10.2 10.2.2.6 1.1.6 1.2 0 1.4-4.9 5.3-8.7 10.2-10.2.6-.2.6-1 0-1.2z"/><path d="m379.7 569.3c-4.9-1.4-8.7-5.3-10.2-10.2-.2-.6-1.1-.6-1.2 0-1.4 4.9-5.3 8.7-10.2 10.2-.6.2-.6 1.1 0 1.2 4.9 1.4 8.7 5.3 10.2 10.2.2.6 1.1.6 1.2 0 1.4-4.9 5.3-8.7 10.2-10.2.6-.1.6-1 0-1.2z"/><path d="m513.8 417.5c-4.9-1.4-8.7-5.3-10.2-10.2-.2-.6-1.1-.6-1.2 0-1.4 4.9-5.3 8.7-10.2 10.2-.6.2-.6 1.1 0 1.2 4.9 1.4 8.7 5.3 10.2 10.2.2.6 1.1.6 1.2 0 1.4-4.9 5.3-8.7 10.2-10.2.6-.1.6-1 0-1.2z"/><path d="m160 215.3c-4.9-1.4-8.7-5.3-10.2-10.2-.2-.6-1.1-.6-1.2 0-1.4 4.9-5.3 8.7-10.2 10.2-.6.2-.6 1.1 0 1.2 4.9 1.4 8.7 5.3 10.2 10.2.2.6 1.1.6 1.2 0 1.4-4.9 5.3-8.7 10.2-10.2.6-.1.6-1 0-1.2z"/><path d="m50 373.3c-4.9-1.4-8.7-5.3-10.2-10.2-.2-.6-1.1-.6-1.2 0-1.4 4.9-5.3 8.7-10.2 10.2-.6.2-.6 1.1 0 1.2 4.9 1.4 8.7 5.3 10.2 10.2.2.6 1.1.6 1.2 0 1.4-4.9 5.3-8.7 10.2-10.2.6-.1.6-1 0-1.2z"/><path d="m244 41.7c-4.9-1.4-8.7-5.3-10.2-10.2-.2-.6-1.1-.6-1.2 0-1.4 4.9-5.3 8.7-10.2 10.2-.6.2-.6 1.1 0 1.2 4.9 1.4 8.7 5.3 10.2 10.2.2.6 1.1.6 1.2 0 1.4-4.9 5.3-8.7 10.2-10.2.6-.2.6-1 0-1.2z"/><path d="m43.9 215.3c-4.9-1.4-8.7-5.3-10.2-10.2-.2-.6-1.1-.6-1.2 0-1.4 4.9-5.3 8.7-10.2 10.2-.6.2-.6 1.1 0 1.2 4.9 1.4 8.7 5.3 10.2 10.2.2.6 1.1.6 1.2 0 1.4-4.9 5.3-8.7 10.2-10.2.6-.1.6-1 0-1.2z"/></g><g opacity=".05" transform="translate(1 12)"><path clip-rule="evenodd" d="m456.6 275.3c-1 .4-1.5 1.5-1.1 2.6.4 1 1.5 1.5 2.5 1.2l57.8-22.9c1-.4 1.5-1.5 1-2.6s-1.5-1.5-2.5-1.2z" fill-rule="evenodd"/><path clip-rule="evenodd" d="m483.6 337.8c-7.7 3.1-16.5-.7-19.5-8.4l-18-45.4c-2.6-6.5-1.7-13.5 9.5-17.9l59.1-23.3c2-.8 4.1-.7 6.1.1 1.9.8 3.4 2.4 4.2 4.3l2.2 5.5c-.9.1-1.8.4-2.7.7l-1.5.6-2.1-5.2c-.7-1.8-2.8-2.7-4.6-2l-59.1 23.3c-5.7 2.3-7.9 8.1-3.9 11.7 2.1 1.8 5 2.3 7.5 1.2l65.2-25.8c2-.8 4.1-.7 6.1.1s3.4 2.4 4.2 4.3l3.2 8.1-14.4 5.7c-6.7 2.7-10.1 10.3-7.4 17s10.3 10 17 7.3l14.4-5.7 3.2 8.1c.8 2 .7 4.1-.1 6.1-.8 1.9-2.4 3.4-4.4 4.2zm17-47-3.6-9.1-9.2 3.6 3.6 9.1-10.2 4 4 10.1 10.2-4 3.6 9.1 9.2-3.6-3.6-9.1 9.2-3.6-4-10.1z" fill-rule="evenodd"/><path d="m543 273.4-16.1 6.4c-4.4 1.7-6.6 6.7-4.8 11.1 1.7 4.4 6.7 6.5 11.1 4.8l16.1-6.4c2.1-.8 3.1-3.2 2.3-5.3l-3.3-8.3c-.9-2.1-3.2-3.1-5.3-2.3zm-11.7 17.9c-2 .8-4.2-.2-5-2.1-.8-2 .2-4.2 2.2-4.9 2-.8 4.2.2 5 2.1.4.9.4 2-.1 2.9s-1.1 1.6-2.1 2z"/></g><g opacity=".05"><path d="m87.8 330.5c-17.1 0-33-10.8-38.7-27.9-7.1-21.3 4.5-44.4 25.8-51.5 21.3-7.1 44.4 4.5 51.5 25.8s-4.5 44.5-25.8 51.5c-4.2 1.4-8.5 2.1-12.8 2.1zm-7.8-64.3c-13 4.3-20 18.4-15.7 31.3 2.1 6.3 6.5 11.4 12.4 14.3 5.9 3 12.6 3.4 18.9 1.4 13-4.3 20-18.4 15.7-31.3s-18.4-20-31.3-15.7z"/><g transform="matrix(.9489 -.3156 .3156 .9489 -102.0887 50.4183)"><path d="m99.5 323.2h10.3v34.5h-10.3z"/><path d="m90.3 335.3h28.7v10.3h-28.7z"/></g></g><g opacity=".05" transform="translate(0 6)"><path d="m119.5 137.6c20.3-10.5 28.3-35.5 17.9-55.7s-35.4-28.1-55.8-17.6-28.4 35.4-17.9 55.7 35.4 28.1 55.8 17.6zm3 5.9c-23.6 12.2-52.6 3.1-64.7-20.4s-2.9-52.4 20.7-64.6 52.6-3.1 64.7 20.4 2.9 52.4-20.7 64.6z"/><ellipse cx="79.6" cy="100.3" rx="5" ry="5" transform="matrix(.8883 -.4593 .4593 .8883 -37.1539 47.7733)"/><ellipse cx="112.8" cy="83.1" rx="5" ry="5" transform="matrix(.8883 -.4593 .4593 .8883 -25.5802 61.088)"/><path d="m56.1 128.4 92.4-47.8 14.5 27.8-92.4 47.8z"/><g transform="translate(0 5.529412)"><g transform="matrix(-1 0 0 1 200 0)"><path d="m66.9 59.1c2 1.1 4.5.3 5.6-1.8 1-2 .2-4.5-1.8-5.6s-4.5-.3-5.6 1.8c-1 2-.2 4.5 1.8 5.6zm-2.2 4.4c-4.5-2.3-6.2-7.8-3.9-12.3 2.2-4.4 7.7-6.2 12.2-3.9s6.2 7.8 3.9 12.3-7.8 6.2-12.2 3.9z"/><path d="m82.2 51.2c2 1.1 4.5.3 5.6-1.8 1-2 .2-4.5-1.8-5.6s-4.5-.3-5.6 1.8c-1 2-.2 4.5 1.8 5.6zm-2.3 4.4c-4.5-2.3-6.2-7.8-3.9-12.3s7.8-6.2 12.3-3.9 6.2 7.8 3.9 12.3c-2.3 4.4-7.8 6.2-12.3 3.9z"/><path d="m99.3 47c2 1.1 4.5.3 5.6-1.8 1-2 .2-4.5-1.8-5.6s-4.5-.3-5.6 1.8c-1 2.1-.2 4.5 1.8 5.6zm-2.3 4.4c-4.5-2.3-6.2-7.8-3.9-12.3s7.8-6.2 12.3-3.9 6.2 7.8 3.9 12.3-7.8 6.2-12.3 3.9z"/><path d="m54.9 71.4c2 1.1 4.5.3 5.6-1.8 1-2 .2-4.5-1.8-5.6s-4.5-.3-5.6 1.8c-1 2.1-.2 4.6 1.8 5.6zm-2.2 4.4c-4.5-2.3-6.2-7.8-3.9-12.3s7.8-6.2 12.3-3.9 6.2 7.8 3.9 12.3c-2.4 4.5-7.9 6.3-12.3 3.9z"/><path d="m47 86.8c2 1.1 4.5.3 5.6-1.8 1-2 .2-4.5-1.8-5.6s-4.5-.3-5.6 1.8-.3 4.6 1.8 5.6zm-2.3 4.4c-4.5-2.3-6.2-7.8-3.9-12.3s7.8-6.2 12.3-3.9 6.2 7.8 3.9 12.3-7.8 6.2-12.3 3.9z"/><path d="m40.5 101.1c2 1.1 4.5.3 5.6-1.8 1-2 .2-4.5-1.8-5.6s-4.5-.3-5.6 1.8-.2 4.6 1.8 5.6zm-2.3 4.4c-4.5-2.3-6.2-7.8-3.9-12.3s7.8-6.2 12.3-3.9 6.2 7.8 3.9 12.3-7.8 6.3-12.3 3.9z"/><path d="m33.3 115.1c2 1.1 4.5.3 5.6-1.8s.2-4.5-1.8-5.6-4.5-.3-5.6 1.8c-1 2-.2 4.5 1.8 5.6zm-2.3 4.4c-4.5-2.3-6.2-7.8-3.9-12.3s7.8-6.2 12.3-3.9 6.2 7.8 3.9 12.3-7.8 6.2-12.3 3.9z"/></g><path d="m52 101c2-1.1 2.8-3.5 1.8-5.6-1-2-3.5-2.8-5.6-1.8s-2.8 3.5-1.8 5.6c1.1 2 3.6 2.8 5.6 1.8zm2.3 4.4c-4.5 2.3-10 .6-12.3-3.9s-.5-9.9 3.9-12.3c4.5-2.3 10-.6 12.3 3.9 2.4 4.5.6 9.9-3.9 12.3z"/><path d="m54.4 83.9c2-1.1 2.8-3.5 1.8-5.6-1-2-3.5-2.8-5.6-1.8-2 1.1-2.8 3.5-1.8 5.6 1.1 2.1 3.6 2.9 5.6 1.8zm2.3 4.4c-4.5 2.3-10 .6-12.3-3.9s-.5-9.9 3.9-12.3 10-.6 12.3 3.9.6 10-3.9 12.3z"/><path d="m60.9 67.6c2-1.1 2.8-3.5 1.8-5.6-1-2-3.5-2.8-5.6-1.8s-2.8 3.5-1.8 5.6c1.1 2 3.6 2.8 5.6 1.8zm2.3 4.4c-4.5 2.3-10 .6-12.3-3.9s-.5-9.9 3.9-12.3 10-.6 12.3 3.9.6 9.9-3.9 12.3z"/><path d="m55.2 117.9c2-1.1 2.8-3.5 1.8-5.6-1-2-3.5-2.8-5.6-1.8s-2.8 3.5-1.8 5.6c1.1 2.1 3.6 2.9 5.6 1.8zm2.3 4.4c-4.5 2.3-10 .6-12.3-3.9s-.5-9.9 3.9-12.3 10-.6 12.3 3.9.6 10-3.9 12.3z"/><path d="m63.2 133.3c2-1.1 2.8-3.5 1.8-5.6-1-2-3.5-2.8-5.6-1.8s-2.8 3.5-1.8 5.6 3.5 2.9 5.6 1.8zm2.2 4.4c-4.5 2.3-10 .6-12.3-3.9s-.5-9.9 3.9-12.3c4.5-2.3 10-.6 12.3 3.9 2.4 4.5.6 10-3.9 12.3z"/><path d="m71.1 146.8c2-1.1 2.8-3.5 1.8-5.6-1-2-3.5-2.8-5.6-1.8-2 1.1-2.8 3.5-1.8 5.6 1.1 2.1 3.6 2.9 5.6 1.8zm2.3 4.4c-4.5 2.3-10 .6-12.3-3.9s-.5-9.9 3.9-12.3c4.5-2.3 10-.6 12.3 3.9s.6 10-3.9 12.3z"/><path d="m78.3 160.8c2-1.1 2.8-3.5 1.8-5.6-1-2-3.5-2.8-5.6-1.8-2 1.1-2.8 3.5-1.8 5.6 1.1 2 3.6 2.8 5.6 1.8zm2.3 4.4c-4.5 2.3-10 .6-12.3-3.9s-.5-9.9 3.9-12.3c4.5-2.3 10-.6 12.3 3.9s.6 10-3.9 12.3z"/></g><path d="m87.9 53.5c.2 0 .4-.1.5-.2 1-.5 1.4-1.8.9-2.8-1.2-2.2-3.9-3.1-6.1-1.9l-14.7 7.6c-2.2 1.2-3.1 3.9-2 6.1.1.2.2.3.3.5.8.8 2 .8 2.8.1 3.6-3.4 6.2-5.5 8.2-6.6 1.9-1 5.1-1.8 10.1-2.8zm-7.7 7.2c-1.5.8-3.8 2.7-7.1 5.7-2.8 2.7-7.2 2.6-9.9-.2-.5-.5-.8-1-1.1-1.6-2.4-4.7-.6-10.4 4.1-12.8l14.8-7.7c4.7-2.4 10.4-.6 12.8 4.1 1.8 3.4.4 7.7-3 9.5-.6.3-1.2.5-1.9.7-4.6.8-7.5 1.6-8.7 2.3z"/></g><path d="m139.4 524.3 10.1-10.1-10.2-10.2 10.2-10.2-77.6-77.6-45.5 45.5 10.2 10.2-10 10.1 10.2 10.2-10.2 10.2 77.7 77.7 45.5-45.5zm-23.3-7.2c-1-.6-2.2-1.1-3.3-1.7-6.2-2.5-13.1-2.2-19.1.7-.5.3-1.1.5-1.7.8l-43.3-43.3c.3-.5.6-1 .8-1.7 2.9-6 3.2-12.9.7-19.1-.5-1.1-1-2.3-1.7-3.3l11.2-11.2c1 .6 2.2 1.1 3.3 1.7 6.2 2.5 13.1 2.2 19.1-.7.5-.3 1.1-.5 1.7-.8l43.4 43.4c-.3.5-.6 1-.8 1.7-2.9 6-3.2 12.9-.7 19.1.5 1.1 1 2.3 1.7 3.3l-11.2 11.2zm-5.4 5.4-6.7 6.7-6.7-6.7c.6-.2 1.2-.4 1.9-.6 2.5-.8 5.1-.9 7.7-.5 1.4.1 2.7.6 3.8 1.1zm22-22c-.5-1.1-.9-2.4-1.1-3.8-.5-2.6-.3-5.3.5-7.7.2-.6.4-1.2.6-1.9l6.7 6.7zm-54.1-67.4c-.6.2-1.1.5-1.9.6-2.5.8-5.3.9-7.7.5-1.2-.2-2.5-.6-3.8-1.1l6.7-6.7zm-35.3 21.9c.5 1.1.9 2.4 1.1 3.8.5 2.6.3 5.3-.5 7.7-.2.6-.4 1.2-.6 1.9l-6.7-6.7zm-1.6 22 62.4 62.4 30.2-30.2 5.1 5.1-35.3 35.3-67.4-67.6zm62.4 92.9-67.4-67.4 5.2-5.2 62.4 62.4 30.1-30.1 5.1 5.1z" opacity=".05"/><path d="m99.2 466.6c-6.2-6.2-16.1-6.2-22.3 0s-6.2 16.1 0 22.3 16.1 6.2 22.3 0c6.1-6 6.1-16.1 0-22.3zm-17.3 17.2c-3.3-3.3-3.4-8.8 0-12.2 3.3-3.3 8.8-3.4 12.2 0s3.4 8.8 0 12.2-8.8 3.4-12.2 0z" opacity=".05"/><path d="m71.3 456.1-6.9-6.9c-1.4-1.4-3.7-1.4-5.2 0-1.4 1.4-1.4 3.7 0 5.2l6.9 6.9c1.4 1.4 3.7 1.4 5.2 0 1.5-1.5 1.5-3.8 0-5.2z" opacity=".05"/><path d="m116.6 501.3-6.9-6.9c-1.4-1.4-3.7-1.4-5.2 0-1.4 1.4-1.4 3.7 0 5.2l6.9 6.9c1.4 1.4 3.7 1.4 5.2 0 1.4-1.5 1.4-3.7 0-5.2z" opacity=".05"/></svg>