<svg height="126" viewBox="0 0 154 126" width="154" xmlns="http://www.w3.org/2000/svg"><g fill="#e04b4b" fill-rule="evenodd" transform="matrix(.92050485 -.39073113 .39073113 .92050485 -16.389033 38.445327)"><path d="m6.12 77v-15.84h-5.37v-3.72h15.18v3.72h-5.37v15.84zm12.37 0v-19.56h4.41v7.53h6.75v-7.53h4.44v19.56h-4.44v-8.16h-6.75v8.16zm24.31-9.9-.48 1.8h4.17l-.45-1.8c-.2800014-.9800049-.5499987-2.0199945-.81-3.12s-.5199987-2.1599949-.78-3.18h-.12c-.2400012 1.0400052-.4849987 2.1049946-.735 3.195-.2500012 1.0900055-.5149986 2.1249951-.795 3.105zm-7.08 9.9 6.12-19.56h5.31l6.12 19.56h-4.68l-1.2-4.65h-5.97l-1.2 4.65zm19.18 0v-19.56h4.53l5.1 9.72 1.92 4.32h.12c-.1000005-1.0400052-.2149993-2.1999936-.345-3.48-.1300006-1.2800064-.195-2.4999942-.195-3.66v-6.9h4.2v19.56h-4.53l-5.1-9.75-1.92-4.26h-.12c.1000005 1.0800054.2149994 2.2399938.345 3.48.1300007 1.2400062.195 2.4399942.195 3.6v6.93zm19.45 0v-19.56h4.41v8.01h.12l5.82-8.01h4.86l-5.91 7.8 6.99 11.76h-4.83l-4.77-8.25-2.28 3v5.25zm26.78 0v-6.96l-5.91-12.6h4.74l1.74 4.5c.280001.7400037.544999 1.4549966.795 2.145s.514999 1.4149962.795 2.175h.12c.280001-.7600038.554999-1.4849966.825-2.175s.544999-1.4049963.825-2.145l1.77-4.5h4.62l-5.91 12.6v6.96zm19.3.36c-1.320007 0-2.524995-.2349976-3.615-.705-1.090005-.4700023-2.024996-1.1449956-2.805-2.025s-1.384998-1.9499937-1.815-3.21-.645-2.689992-.645-4.29.214998-3.0249937.645-4.275c.430002-1.2500062 1.034996-2.2999957 1.815-3.15.780004-.8500042 1.714995-1.4999977 2.805-1.95 1.090005-.4500022 2.294993-.675 3.615-.675s2.524995.2249978 3.615.675c1.090005.4500023 2.024996 1.1049957 2.805 1.965s1.384998 1.9149938 1.815 3.165c.430002 1.2500063.645 2.6649921.645 4.245 0 1.600008-.214998 3.0299937-.645 4.29s-1.034996 2.3299956-1.815 3.21-1.714995 1.5549977-2.805 2.025c-1.090005.4700024-2.294993.705-3.615.705zm0-3.81c1.340007 0 2.399996-.5749942 3.18-1.725.780004-1.1500057 1.17-2.7149901 1.17-4.695 0-1.9600098-.389996-3.4899945-1.17-4.59s-1.839993-1.65-3.18-1.65-2.399996.5499945-3.18 1.65-1.17 2.6299902-1.17 4.59c0 1.9800099.389996 3.5449943 1.17 4.695.780004 1.1500058 1.839993 1.725 3.18 1.725zm19.78 3.81c-2.540013 0-4.479993-.7499925-5.82-2.25s-2.01-3.8899836-2.01-7.17v-10.5h4.44v10.95c0 1.9200096.289997 3.2599962.87 4.02s1.419995 1.14 2.52 1.14c1.100006 0 1.949997-.3799962 2.55-1.14s.9-2.0999904.9-4.02v-10.95h4.26v10.5c0 3.2800164-.654993 5.6699925-1.965 7.17s-3.224987 2.25-5.745 2.25z"/><path d="m7.99989038 14c.63104158-.6035637 4.23329062-4.05182129 6.48529622-6.20600644 2.017605-1.93039358 1.9745649-4.7440138.1401603-6.48949616-1.8344045-1.74594158-4.80065196-1.73828797-6.62545652.01683794-1.82464456-1.75512591-4.79089197-1.76277952-6.62529655-.01683794-1.83440458 1.74548236-1.87728469 4.55910258.14016035 6.48949616 2.25184563 2.15418515 5.85457463 5.60244274 6.4851362 6.20600644z" transform="translate(67 28)"/><path d="m4.49993834 7c.35496089-.30178185 2.38122595-2.02591064 3.64797911-3.10300322 1.13490284-.96519679 1.11069278-2.3720069.0788402-3.24474808-1.03185258-.87297079-2.70036675-.86914398-3.72681931.00841897-1.02636256-.87756295-2.69487673-.88138976-3.72672931-.00841897-1.03185258.87274118-1.05597264 2.27955129.0788402 3.24474808 1.26666316 1.07709258 3.29319822 2.80122137 3.64788911 3.10300322z" transform="matrix(.95105652 -.30901699 .30901699 .95105652 53.138686 32.561879)"/><path d="m4.58894867 6.88351732c.36198214-.29676008 2.42832742-1.99219871 3.7201374-3.05136805 1.1573516-.94913555 1.13266266-2.3325358.08039968-3.19075424-1.05226298-.85844422-2.75378093-.85468109-3.80053708.00827888-1.04666437-.86295997-2.74818232-.8667231-3.8004453-.00827888-1.05226298.85821844-1.07686014 2.24161869.08039968 3.19075424 1.2917182 1.05916934 3.35833883 2.75460797 3.72004562 3.05136805z" transform="matrix(-.95105652 -.30901699 -.30901699 .95105652 96.093321 32.984382)"/><path d="m104.069385 83h6.430775c-8.007087 10.9143243-20.9261494 18-35.50016 18s-27.4930729-7.0856757-35.5001601-18h6.4307755c7.1411672 7.9787417 17.518887 13 29.0693846 13s21.9282174-5.0212583 29.069385-13zm9.471926-32c-2.886031-18.6905404-19.0425944-33-38.541311-33s-35.6552799 14.3094596-38.5413109 33h-5.0530141c2.92636-21.4621083 21.3290267-38 43.594325-38s40.667965 16.5378917 43.594325 38zm6.502015 32h5.694926c-9.45111 18.406529-28.6239998 31-50.738252 31s-41.2871417-12.593471-50.7382493-30.9999939l5.6949235-.0000061c8.9910553 15.5428421 25.7959905 26 45.0433258 26s36.05227-10.4571579 45.043317-25.9999855zm6.61426-32c-2.974794-25.8926296-24.968026-46-51.657586-46-26.6895602 0-48.6827925 20.1073704-51.6575857 46h-5.030391c2.9981797-28.6599884 27.2341835-51 56.6879767-51 29.453793 0 53.689797 22.3400116 56.687977 51z" fill-rule="nonzero"/></g></svg>