<svg version="1.1" id="Layer_1" xmlns="http://www.w3.org/2000/svg" xmlns:xlink="http://www.w3.org/1999/xlink" x="0" y="0" viewBox="0 0 84 84" enable-background="new 0 0 84 84" xml:space="preserve"><g><path d="M27,70c1,0,2,0,3-0.1V74c0,7.9,17,10,27,10s27-2.1,27-10V54c0-7.9-17-10-27-10c-0.9,0-2,0-3,0.1V10C54,2.1,37,0,27,0 S0,2.1,0,10v50C0,67.9,17,70,27,70z M78,63.8c-1,1.3-8.1,4.2-21,4.2s-20-2.9-21-4.2v-3.1c5.9,2.5,14.8,3.3,21,3.3s15.1-0.8,21-3.3 V63.8z M48,19.8c-1,1.3-8.1,4.2-21,4.2S7,21.1,6,19.8v-3.1c5.9,2.5,14.8,3.3,21,3.3s15.1-0.8,21-3.3V19.8z M27,30 c6.2,0,15.1-0.8,21-3.3v3.1c-1,1.3-8.1,4.2-21,4.2S7,31.1,6,29.8v-3.1C11.9,29.2,20.8,30,27,30z M27,40c6.2,0,15.1-0.8,21-3.3v3.1 c-1,1.3-8.1,4.2-21,4.2S7,41.1,6,39.8v-3.1C11.9,39.2,20.8,40,27,40z M27,50c1.5,0,3.2,0,4.9-0.2C30.7,51,30,52.3,30,53.9 c-1,0-2,0.1-3,0.1c-12.9,0-20-2.9-21-4.2v-3.1C11.9,49.2,20.8,50,27,50z M6,59.8v-3.1c5.9,2.5,14.8,3.3,21,3.3c1,0,2,0,3-0.1v4 c-1,0-2,0.1-3,0.1C14.1,64,7,61.1,6,59.8z M57,78c-12.9,0-20-2.9-21-4.2v-3.1c5.9,2.5,14.8,3.3,21,3.3s15.1-0.8,21-3.3v3.1 C77,75.1,69.9,78,57,78z M77.8,54c-1.6,1.4-8.6,4-20.8,4s-19.2-2.6-20.8-4c1.6-1.4,8.6-4,20.8-4S76.2,52.6,77.8,54z M27,6 c12.2,0,19.2,2.6,20.8,4c-1.6,1.4-8.6,4-20.8,4S7.8,11.4,6.2,10C7.8,8.6,14.8,6,27,6z"/></g></svg>