<svg height="200" viewBox="0 0 200 200" width="200" xmlns="http://www.w3.org/2000/svg"><g transform="translate(0 6)"><path d="m100 168.647059c38.353108 0 69.444444-30.945025 69.444444-69.1176472 0-38.1726224-31.091336-69.1176471-69.444444-69.1176471-38.3531076 0-69.4444444 30.9450247-69.4444444 69.1176471 0 38.1726222 31.0913368 69.1176472 69.4444444 69.1176472zm0 11.058823c-44.4896048 0-80.5555556-35.896228-80.5555556-80.1764702 0-44.280242 36.0659508-80.1764706 80.5555556-80.1764706 44.489605 0 80.555556 35.8962286 80.555556 80.1764706 0 44.2802422-36.065951 80.1764702-80.555556 80.1764702z"/><ellipse cx="69.444444" cy="82.470588" rx="8.333333" ry="8.294118"/><ellipse cx="131.944444" cy="82.470588" rx="8.333333" ry="8.294118"/><path d="m12.8888889 106.205882h174.2222221v52.529412h-174.2222221z"/><g transform="translate(0 5.529412)"><g transform="matrix(-1 0 0 1 200 0)"><path d="m23.6111111 64.9705882c3.8353108 0 6.9444445-3.0945024 6.9444445-6.9117647 0-3.8172622-3.1091337-6.9117647-6.9444445-6.9117647s-6.9444444 3.0945025-6.9444444 6.9117647c0 3.8172623 3.1091336 6.9117647 6.9444444 6.9117647zm0 8.2941177c-8.4376837 0-15.27777777-6.8079054-15.27777777-15.2058824 0-8.3979769 6.84009407-15.2058823 15.27777777-15.2058823s15.2777778 6.8079054 15.2777778 15.2058823c0 8.397977-6.8400941 15.2058824-15.2777778 15.2058824z"/><path d="m40.2777778 41.4705882c3.8353107 0 6.9444444-3.0945024 6.9444444-6.9117647 0-3.8172622-3.1091337-6.9117647-6.9444444-6.9117647-3.8353108 0-6.9444445 3.0945025-6.9444445 6.9117647 0 3.8172623 3.1091337 6.9117647 6.9444445 6.9117647zm0 8.2941177c-8.4376837 0-15.2777778-6.8079054-15.2777778-15.2058824 0-8.3979769 6.8400941-15.2058823 15.2777778-15.2058823s15.2777778 6.8079054 15.2777778 15.2058823c0 8.397977-6.8400941 15.2058824-15.2777778 15.2058824z"/><path d="m62.5 22.1176471c3.8353108 0 6.9444444-3.0945025 6.9444444-6.9117647 0-3.8172623-3.1091336-6.91176475-6.9444444-6.91176475s-6.9444444 3.09450245-6.9444444 6.91176475c0 3.8172622 3.1091336 6.9117647 6.9444444 6.9117647zm0 8.2941176c-8.4376837 0-15.2777778-6.8079054-15.2777778-15.2058823 0-8.39797698 6.8400941-15.2058824 15.2777778-15.2058824s15.2777778 6.80790542 15.2777778 15.2058824c0 8.3979769-6.8400941 15.2058823-15.2777778 15.2058823z"/><path d="m15.2777778 92.6176471c3.8353107 0 6.9444444-3.0945025 6.9444444-6.9117647 0-3.8172623-3.1091337-6.9117648-6.9444444-6.9117648-3.8353108 0-6.94444447 3.0945025-6.94444447 6.9117648 0 3.8172622 3.10913367 6.9117647 6.94444447 6.9117647zm0 8.2941179c-8.4376837 0-15.2777778-6.8079057-15.2777778-15.2058826 0-8.397977 6.8400941-15.2058824 15.2777778-15.2058824s15.2777778 6.8079054 15.2777778 15.2058824c0 8.3979769-6.8400941 15.2058826-15.2777778 15.2058826z"/><path d="m15.2777778 121.647059c3.8353107 0 6.9444444-3.094503 6.9444444-6.911765s-3.1091337-6.911765-6.9444444-6.911765c-3.8353108 0-6.94444447 3.094503-6.94444447 6.911765s3.10913367 6.911765 6.94444447 6.911765zm0 8.294117c-8.4376837 0-15.2777778-6.807905-15.2777778-15.205882s6.8400941-15.2058822 15.2777778-15.2058822 15.2777778 6.8079052 15.2777778 15.2058822-6.8400941 15.205882-15.2777778 15.205882z"/><path d="m16.6666667 147.911765c3.8353107 0 6.9444444-3.094503 6.9444444-6.911765s-3.1091337-6.911765-6.9444444-6.911765c-3.8353108 0-6.94444448 3.094503-6.94444448 6.911765s3.10913368 6.911765 6.94444448 6.911765zm0 8.294117c-8.43768371 0-15.27777781-6.807905-15.27777781-15.205882s6.8400941-15.205882 15.27777781-15.205882c8.4376836 0 15.2777777 6.807905 15.2777777 15.205882s-6.8400941 15.205882-15.2777777 15.205882z"/><path d="m16.6666667 174.176471c3.8353107 0 6.9444444-3.094503 6.9444444-6.911765s-3.1091337-6.911765-6.9444444-6.911765c-3.8353108 0-6.94444448 3.094503-6.94444448 6.911765s3.10913368 6.911765 6.94444448 6.911765zm0 8.294117c-8.43768371 0-15.27777781-6.807905-15.27777781-15.205882s6.8400941-15.205882 15.27777781-15.205882c8.4376836 0 15.2777777 6.807905 15.2777777 15.205882s-6.8400941 15.205882-15.2777777 15.205882z"/></g><path d="m23.6111111 64.9705882c3.8353108 0 6.9444445-3.0945024 6.9444445-6.9117647 0-3.8172622-3.1091337-6.9117647-6.9444445-6.9117647s-6.9444444 3.0945025-6.9444444 6.9117647c0 3.8172623 3.1091336 6.9117647 6.9444444 6.9117647zm0 8.2941177c-8.4376837 0-15.27777777-6.8079054-15.27777777-15.2058824 0-8.3979769 6.84009407-15.2058823 15.27777777-15.2058823s15.2777778 6.8079054 15.2777778 15.2058823c0 8.397977-6.8400941 15.2058824-15.2777778 15.2058824z"/><path d="m40.2777778 41.4705882c3.8353107 0 6.9444444-3.0945024 6.9444444-6.9117647 0-3.8172622-3.1091337-6.9117647-6.9444444-6.9117647-3.8353108 0-6.9444445 3.0945025-6.9444445 6.9117647 0 3.8172623 3.1091337 6.9117647 6.9444445 6.9117647zm0 8.2941177c-8.4376837 0-15.2777778-6.8079054-15.2777778-15.2058824 0-8.3979769 6.8400941-15.2058823 15.2777778-15.2058823s15.2777778 6.8079054 15.2777778 15.2058823c0 8.397977-6.8400941 15.2058824-15.2777778 15.2058824z"/><path d="m62.5 22.1176471c3.8353108 0 6.9444444-3.0945025 6.9444444-6.9117647 0-3.8172623-3.1091336-6.91176475-6.9444444-6.91176475s-6.9444444 3.09450245-6.9444444 6.91176475c0 3.8172622 3.1091336 6.9117647 6.9444444 6.9117647zm0 8.2941176c-8.4376837 0-15.2777778-6.8079054-15.2777778-15.2058823 0-8.39797698 6.8400941-15.2058824 15.2777778-15.2058824s15.2777778 6.80790542 15.2777778 15.2058824c0 8.3979769-6.8400941 15.2058823-15.2777778 15.2058823z"/><path d="m15.2777778 92.6176471c3.8353107 0 6.9444444-3.0945025 6.9444444-6.9117647 0-3.8172623-3.1091337-6.9117648-6.9444444-6.9117648-3.8353108 0-6.94444447 3.0945025-6.94444447 6.9117648 0 3.8172622 3.10913367 6.9117647 6.94444447 6.9117647zm0 8.2941179c-8.4376837 0-15.2777778-6.8079057-15.2777778-15.2058826 0-8.397977 6.8400941-15.2058824 15.2777778-15.2058824s15.2777778 6.8079054 15.2777778 15.2058824c0 8.3979769-6.8400941 15.2058826-15.2777778 15.2058826z"/><path d="m15.2777778 121.647059c3.8353107 0 6.9444444-3.094503 6.9444444-6.911765s-3.1091337-6.911765-6.9444444-6.911765c-3.8353108 0-6.94444447 3.094503-6.94444447 6.911765s3.10913367 6.911765 6.94444447 6.911765zm0 8.294117c-8.4376837 0-15.2777778-6.807905-15.2777778-15.205882s6.8400941-15.2058822 15.2777778-15.2058822 15.2777778 6.8079052 15.2777778 15.2058822-6.8400941 15.205882-15.2777778 15.205882z"/><path d="m16.6666667 147.911765c3.8353107 0 6.9444444-3.094503 6.9444444-6.911765s-3.1091337-6.911765-6.9444444-6.911765c-3.8353108 0-6.94444448 3.094503-6.94444448 6.911765s3.10913368 6.911765 6.94444448 6.911765zm0 8.294117c-8.43768371 0-15.27777781-6.807905-15.27777781-15.205882s6.8400941-15.205882 15.27777781-15.205882c8.4376836 0 15.2777777 6.807905 15.2777777 15.205882s-6.8400941 15.205882-15.2777777 15.205882z"/><path d="m16.6666667 174.176471c3.8353107 0 6.9444444-3.094503 6.9444444-6.911765s-3.1091337-6.911765-6.9444444-6.911765c-3.8353108 0-6.94444448 3.094503-6.94444448 6.911765s3.10913368 6.911765 6.94444448 6.911765zm0 8.294117c-8.43768371 0-15.27777781-6.807905-15.27777781-15.205882s6.8400941-15.205882 15.27777781-15.205882c8.4376836 0 15.2777777 6.807905 15.2777777 15.205882s-6.8400941 15.205882-15.2777777 15.205882z"/></g><path d="m83.5765511 8.43195558c-.3110527-.08920608-.6331527-.13451042-.9568608-.13451042-1.9070523 0-3.4530236 1.53869618-3.4530236 3.43677414v.0157807c0 4.1989885 3.420047 7.6029412 7.6388889 7.6029412h27.7777774c4.218842 0 7.638889-3.4039527 7.638889-7.6029412v-.0157807c0-.3154101-.044997-.6292223-.133645-.9320405-.517187-1.76669355-2.375419-2.78159925-4.150453-2.26685731-7.907282 2.29306421-13.447498 3.45281541-17.24368 3.45281541-3.4342666 0-8.8322816-1.1778933-17.1178929-3.55618132zm17.1178929-4.73793633c2.765253 0 7.736109-1.04056526 14.91257-3.12169579 6.193685-1.79610631 12.677589 1.74518336 14.482211 7.90971526.30932 1.05662726.466331 2.15161628.466331 3.25218058v.0157807c0 8.7797032-7.151008 15.8970588-15.972223 15.8970588h-27.7777774c-8.8212148 0-15.9722223-7.1173556-15.9722223-15.8970588v-.0157807c0-6.47879265 5.2769318-11.73089178 11.786357-11.73089178 1.104927 0 2.2043652.15463926 3.2660238.45937597 7.5051456 2.15418651 12.4413821 3.23131576 14.8087299 3.23131576z" transform="matrix(-1 0 0 -1 201.388888 27.650386)"/></g></svg>