<svg height="100" viewBox="0 0 100 100" width="100" xmlns="http://www.w3.org/2000/svg"><g fill-rule="evenodd" transform="translate(1 12)"><path d="m12.919657 9c-1.0601973 0-1.919657.8954305-1.919657 2s.8594597 2 1.919657 2h62.160686c1.0601973 0 1.919657-.8954305 1.919657-2s-.8594597-2-1.919657-2z"/><path d="m15.0524334 77c-8.31321514-.0000241-15.0524032-6.7210821-15.0524334-15.0119387v-48.8034689c0-6.98489184 3.40903542-13.18458149 15.4080977-13.1845924h63.5103384c2.1030174-.00002025 4.1199067.83314435 5.6069646 2.31620281 1.4870579 1.48305847 2.3224694 3.49452321 2.3224491 5.5918846v5.91328599c-.9099285-.2149783-1.8418887-.3234059-2.777001-.3230863h-1.597848v-5.59019969c0-1.95785203-1.5914328-3.5450047-3.5545647-3.5450047h-63.5103384c-6.15453752 0-10.3248404 4.58038605-7.954241 9.38359469 1.25202632 2.4233591 3.7705409 3.9321617 6.5037926 3.8963202h70.112937c2.1030175-.0000203 4.1199067.8331443 5.6069646 2.3162028 1.487058 1.4830584 2.3224694 3.4945232 2.3224491 5.5918846v8.6814438h-15.439881c-7.248487 0-13.1245468 5.860256-13.1245468 13.0892481 0 7.2289922 5.8760598 13.0892482 13.1245468 13.0892482h15.439881v8.6808875c.0000203 2.0973614-.8353911 4.1088261-2.3224491 5.5918846-1.4870579 1.4830585-3.5039471 2.3162231-5.6069646 2.3162028zm33.070905-37.4092239v-9.8169361h-9.8434101v9.8169361h-10.9371224v10.9077068h10.9371224v9.8169361h9.8434101v-9.8169361h9.8434101v-10.9077068z"/><path d="m93.9287857 39h-17.3573573c-4.7338692.0000001-8.5714284 3.8055797-8.5714284 8.5s3.8375592 8.4999999 8.5714284 8.5h17.3573573c2.2475166-.0027696 4.0687113-1.8090205 4.0712143-4.0378081v-8.9243732c-.0024971-2.2287918-1.8236935-4.0350491-4.0712143-4.0378187zm-17.3573573 12.2985862c-2.1155223-.0000352-3.8304666-1.7007357-3.8304429-3.7986287s1.7150063-3.7985555 3.8305286-3.7985437c2.1155223.0000117 3.8304857 1.7006932 3.8304858 3.7985862.0000227 1.0074657-.403549 1.9736737-1.1219272 2.6860535-.7183783.7123799-1.6927125 1.1125722-2.7086443 1.1125327z" fill-rule="nonzero"/></g></svg>