<svg enable-background="new 0 0 95.1 63.8" viewBox="0 0 95.1 63.8" xmlns="http://www.w3.org/2000/svg"><path d="m85.1 19.7v-9.8h-9.9v-9.9h-75.2v44.1h9.9v9.8h9.9v9.9h75.3v-44.1zm-14.8 7.8c-.8.2-1.6.5-2.4.8-4.2 1.8-7.4 5.3-8.9 9.6-.1.4-.3.8-.4 1.2h-42c-.1-.4-.2-.8-.4-1.2-1.5-4.3-4.7-7.8-8.9-9.6-.8-.3-1.6-.6-2.4-.8v-10.9c.8-.2 1.6-.5 2.4-.8 4.2-1.8 7.4-5.3 8.9-9.6.1-.4.3-.8.4-1.2h42.1c.1.4.2.8.4 1.2 1.5 4.3 4.7 7.8 8.9 9.6.8.3 1.6.6 2.4.8zm0 5.2v6.5h-6.5c.2-.4.4-.8.6-1.2.8-1.6 2-2.9 3.5-4 .8-.6 1.6-1 2.4-1.3zm0-21.3c-.8-.3-1.6-.7-2.4-1.3-1.5-1-2.7-2.4-3.5-4-.2-.4-.4-.8-.6-1.2h6.5zm-58.9-6.5c-.2.4-.3.8-.6 1.2-.8 1.6-2.1 3-3.5 4-.7.5-1.5.9-2.4 1.3v-6.5zm-6.5 27.8c.8.3 1.6.7 2.4 1.3 1.5 1 2.7 2.4 3.5 4l.6 1.2h-6.5zm9.9 11.4h60.5v-29.3h4.9v34.2h-65.4zm75.3 14.8h-65.4v-5h60.5v-29.2h4.9z"/><path d="m37.6 11.2c-6 0-10.8 4.8-10.8 10.8s4.8 10.8 10.8 10.8 10.8-4.8 10.8-10.8c.1-5.9-4.8-10.8-10.8-10.8zm0 16.7c-3.2 0-5.9-2.6-5.9-5.9 0-3.2 2.6-5.9 5.9-5.9s5.9 2.6 5.9 5.9-2.6 5.9-5.9 5.9z"/><path d="m19 19.6h-6.7c-1.4 0-2.5 1.1-2.5 2.5s1.1 2.5 2.5 2.5h6.7c1.4 0 2.5-1.1 2.5-2.5s-1.1-2.5-2.5-2.5z"/><path d="m62.9 19.6h-6.7c-1.4 0-2.5 1.1-2.5 2.5s1.1 2.5 2.5 2.5h6.7c1.4 0 2.5-1.1 2.5-2.5s-1.1-2.5-2.5-2.5z"/></svg>