<svg enable-background="new 0 0 93.6 80.9" viewBox="0 0 93.6 80.9" xmlns="http://www.w3.org/2000/svg"><path d="m57.3 16.5c2.7-5.8.2-12.7-5.6-15.4s-12.7-.2-15.4 5.6c-1.5 3.1-1.5 6.7 0 9.9-14.9 3.9-26.1 15.9-28 30.6h-8.3v19.8h7.1l4.1 14h71.2l4.1-14h7.1v-19.9h-8.3c-1.9-14.7-13.1-26.7-28-30.6zm28.3 42.4h-77.6v-3.8h77.6zm-42.4-47.4c0-2 1.6-3.6 3.6-3.6s3.6 1.6 3.6 3.6-1.6 3.6-3.6 3.6c-2 0-3.6-1.6-3.6-3.6zm3.6 11.6c15.4 0 28.1 10.4 30.4 24h-60.8c2.3-13.5 15-24 30.4-24zm29.6 49.8h-59.2l-1.8-6h62.8z"/></svg>