<svg xmlns="http://www.w3.org/2000/svg" width="600" height="200" viewBox="0 0 600 200">
  <g fill="none" fill-rule="evenodd">
    <rect width="600" height="200" fill="#FFF"/>
    <g fill-rule="nonzero" transform="translate(56 60)">
      <path fill="#E30D24" d="M40,0 C25.7093769,0 12.5042959,7.62395667 5.35898395,20 C-1.78632798,32.376043 -1.78632798,47.623957 5.35898395,60 C12.5042959,72.3760433 25.7093769,80 40,80 C62.0913904,80 80,62.0913898 80,40 C80,17.9086102 62.0913904,0 40,0"/>
      <path fill="#FFF" d="M63.691045,56.2033833 C62.9063126,55.7615102 63.1465368,55.9061232 59.3670092,53.6565872 C59.3670092,53.6565872 56.4843187,54.2109371 52.7448285,55.0223769 C52.7995578,55.0402567 52.8530563,55.0617271 52.904978,55.0866494 C52.9615687,55.1223394 53.015133,55.162646 53.0651275,55.2071602 C53.1228047,55.250351 53.1764124,55.2987581 53.2252769,55.3517733 C53.310978,55.4577243 53.37862,55.5771695 53.4254638,55.7052718 C53.4437784,55.7656759 53.4571683,55.8274739 53.4655011,55.8900551 L53.4815161,55.9703957 L53.4815161,56.0507363 C53.4833641,56.1021212 53.4779725,56.1535107 53.4655011,56.2033833 C53.4625244,56.2365749 53.4544201,56.2690999 53.4414787,56.299792 L53.4094488,56.3801326 L53.3133591,56.3801326 C53.3035723,56.3539208 53.2955469,56.3270805 53.2893367,56.299792 C53.2833606,56.2671803 53.2753372,56.23498 53.2653143,56.2033833 L53.2252769,56.0989406 C53.2089443,56.0577109 53.1902284,56.0174723 53.1692246,55.9784297 L53.1051648,55.8498848 L53.0250901,55.7213399 L52.9370079,55.592795 C52.9129855,55.5445906 52.8649406,55.5124544 52.8249032,55.4803182 L52.7127986,55.3758754 C52.6727612,55.3357052 52.6407313,55.311603 52.600694,55.2955349 C52.5648471,55.2666797 52.5274205,55.2398576 52.4885894,55.2151943 C52.4578075,55.1943795 52.42571,55.1755938 52.3924997,55.1589559 C52.3666086,55.1440164 52.3398716,55.1306036 52.3124249,55.1187856 L51.5116776,55.2955349 C51.5361582,55.2985584 51.5602919,55.3039393 51.5837448,55.311603 C51.6414922,55.3346551 51.6976657,55.3614932 51.7519018,55.3919436 C51.8116498,55.4235515 51.8679987,55.4612421 51.9200587,55.5044204 C51.9748487,55.5481159 52.0257539,55.5965019 52.0722007,55.6490334 C52.1167823,55.7047084 52.1569429,55.7638061 52.1923128,55.8257827 C52.2237941,55.8823942 52.2505762,55.9415104 52.2723876,56.0025319 C52.2898049,56.0631668 52.3031803,56.1248977 52.3124249,56.1873152 L52.3124249,56.3479964 C52.3181345,56.3960305 52.3181345,56.4445753 52.3124249,56.4926094 C52.3061784,56.528639 52.2954164,56.5637315 52.280395,56.5970522 C52.2710568,56.6243501 52.2603669,56.6511637 52.2483651,56.6773927 L52.1602829,56.6773927 L52.128253,56.5970522 C52.1228353,56.5643216 52.1148019,56.5320814 52.1042306,56.5006435 L52.0641932,56.3962007 L52.0081409,56.2756899 L51.9440811,56.1471449 C51.9195742,56.1029651 51.8928483,56.0600616 51.8640064,56.0186 L51.7759242,55.8900551 C51.7519018,55.8418508 51.7038569,55.8097145 51.671827,55.7775783 L51.5597224,55.6731356 C51.5276925,55.6329653 51.4796477,55.6088631 51.4396103,55.592795 C51.4062601,55.5643 51.3715182,55.5374867 51.3355131,55.5124544 L51.231416,55.456216 C51.20558,55.4411739 51.1788368,55.4277579 51.1513413,55.4160457 L51.0952889,55.3839095 L48.9653009,53.5682125 L49.0453757,53.0218967 L48.8211664,51.7525156 L49.0373682,51.2061997 L49.0373682,49.3905027 L46.7152009,51.4713236 L46.6511411,51.4070511 L53.4655011,43.3649598 L53.4094488,43.2203467 L51.4155879,42.8668482 L51.4235954,42.7704395 L54.9949286,42.7704395 C55.3632724,43.2364148 56.1560123,43.3649598 56.7325504,43.2042786 L56.7565728,43.123938 L56.0359002,41.9670338 L56.3321767,41.7661824 C56.6204457,41.5894331 56.8766849,41.6697737 57.1569465,42.0795106 C57.4211931,42.4651453 57.5493127,42.9632569 57.2370212,43.2685511 L57.2930735,43.3488916 C57.7601135,43.2858262 58.1847584,43.0440114 58.4781796,42.6740308 C58.8785533,42.143783 58.8144935,41.3323433 58.3180302,40.7458571 C57.8936341,40.2638136 57.1329241,39.5005782 57.1329241,39.5005782 C57.2129988,38.5846957 56.7325504,37.789324 55.8517283,37.4277914 C53.9299346,36.6565219 52.4645669,36.1021719 52.4645669,36.1021719 L47.8282397,36.0941379 L47.8122247,35.9896951 L52.4245296,35.4433792 L53.8098225,34.2222025 L59.0467103,32.1172795 C59.3863537,31.9847532 59.6501801,31.7082865 59.7673829,31.3620781 C60.4480182,29.4901428 62.5379688,23.8743367 62.5379688,23.8743367 L69,15.1332824 L68.9519552,15.0529418 L64.7079941,18.0898154 L64.6519418,18.025543 L66.4536234,14.4102172 L66.3735486,14.3620129 L63.5949553,18.3629734 L63.5148806,18.3308372 L63.8351795,14.3379107 L63.7390898,14.3138085 L62.7301481,18.3790415 L62.6340585,18.3790415 L61.0005338,14.3057744 L60.9044441,14.3459447 L62.1055652,19.1904813 L61.9614307,21.4721536 L61.8733485,21.4801876 L61.6091018,19.4716733 L58.7504337,14.6030346 L58.670359,14.6432049 L60.9685039,19.8010697 L61.1446684,23.6011788 L61.0485787,23.6011788 L60.5521153,20.0581595 L56.8046176,15.2939635 L56.7325504,15.358236 L59.9675697,20.3313174 L60.175764,25.5534547 L60.0876818,25.5614887 L59.431069,20.6205435 L55.2671827,16.2500163 L55.1951154,16.3142888 L58.7344188,20.9499398 L59.1508074,26.9594147 L59.0547177,26.9594147 L58.1018284,21.255234 L53.7777926,17.5354655 L53.7137328,17.607772 L57.453223,21.664971 L58.0938209,27.9315357 L58.0057387,27.9556378 L56.7405579,22.0506057 L52.3524623,19.0539023 L52.29641,19.1342429 L56.0439076,22.4603426 L57.0608568,28.6626349 L56.9647671,28.686737 L55.33925,22.8941817 L51.1753637,20.6044754 L51.1193114,20.684816 L54.6986521,23.3039186 L55.8677432,29.3133935 L55.7716535,29.3374957 L53.9059122,23.8261324 L49.9902576,22.3317977 L49.9502202,22.4282064 L53.2332844,24.3001417 L54.5945549,29.7874029 L54.5064727,29.8195391 L52.432537,24.894662 L48.7250767,24.2198012 L48.7090618,24.3162099 L51.7759242,25.4168757 L53.345389,30.2051739 L53.2653143,30.2453442 L50.8951021,26.164043 L47.7801948,25.9069532 L47.7641799,26.0033619 L50.2064594,26.8067676 L52.0481783,30.6791833 L51.9681036,30.7354217 L49.405712,27.6182074 L46.5870813,27.7869226 L46.5790738,27.8833313 L48.8211664,28.3011023 L50.8630722,31.3138738 L50.7990124,31.3781462 L48.1325237,29.1687805 L45.1217136,29.8436413 L45.1377285,29.948084 L47.6040304,29.948084 L49.8701455,32.0931773 L49.8221006,32.1735179 L47.0755372,30.8880687 L43.9286,31.3701122 L43.9286,31.4745549 L46.7312158,31.5870317 L49.1094355,33.0974345 L49.0774056,33.1858091 L46.4589617,32.2859947 L42.2310156,33.0894005 L42.2390231,33.1858091 L46.2027225,33.0974345 L48.6209796,34.2141685 L48.5889497,34.2945091 L46.058588,33.6999888 L39.6766315,34.7765525 L39.6766315,34.8729612 L44.6813025,35.2505619 L44.6973175,35.3389365 L40.6855732,36.0620017 L40.6855732,36.1503763 L43.4241292,36.3110574 L43.4241292,36.4074661 L40.293207,37.22694 L40.3092219,37.22694 L40.293207,37.22694 L41.6304551,38.9703304 L41.5503804,39.050671 L38.5075404,36.4637045 L30.6442013,25.5132844 L23.4935273,21.8336862 L17.8162285,16.7079576 L16.0946216,12 L15.998532,12.0241022 L16.6231149,17.3506822 L19.3776858,21.7854818 L19.2976111,21.8497543 L15.2938743,18.5156205 L13.3880956,14.8199541 L13.2839984,14.8440563 L13.9566262,19.1824472 L15.9104498,22.7415346 L15.84639,22.797773 L12.6594155,20.1947385 L11.0098759,17.7122148 L10.9137862,17.7604191 L11.6825037,21.110621 L13.716402,24.1153584 L13.6523422,24.1796309 L10.4893901,22.3558999 L9.08808221,20.5884073 L9,20.6366116 L9.90484452,23.2476802 L11.3702122,25.0955134 L11.3221674,25.1678199 L9.86480715,24.8866279 L9.82476979,24.9750026 L12.9316696,27.9074335 L12.8996397,27.9877741 L10.201121,27.8270929 L10.1770986,27.9636719 L14.0367009,30.357821 L14.020686,30.4461956 L12.2270119,30.5908086 L12.2190044,30.6872173 L16.6871747,32.3984715 L16.6871747,32.4788121 L14.9415454,33.0974345 L14.9575604,33.1938432 L25.7436274,33.9892149 L25.7436274,34.0695554 L19.7380222,34.1177598 L19.61791,35.3550046 L27.1449353,35.2344938 L27.1449353,35.3309024 L21.7559055,35.9093546 L21.5156813,37.3795871 L28.8425197,36.3672958 L28.8665421,36.4556705 L23.1492059,37.7732559 L23.0611237,39.476476 L30.5881489,37.4117233 L30.6201788,37.5000979 L24.4143868,39.9344173 L24.4464167,41.4849903 L32.0535166,38.3115377 L32.0855465,38.3918783 L25.9518217,41.709944 L26.160016,43.3006873 L33.6069665,39.5005782 L33.6550113,39.5809188 L27.5693314,43.4533344 L27.9136527,44.803056 L35.0963566,40.8422658 L35.1444014,40.9226063 L29.5711998,44.658443 L30.1077005,46.0965392 L36.033231,42.5454859 L36.0892833,42.6258265 L32.1976511,45.5180871 L32.8782864,46.8838769 L35.7609769,45.1163843 L35.8090218,45.1806567 L34.7280128,46.1206414 L35.2645135,47.2052392 L35.9051114,46.9722515 L36.809956,46.6508892 L37.3064193,46.4661059 C37.3864941,46.4420037 37.4665688,46.3937994 37.5466435,46.3616631 C37.6267183,46.3295269 37.706793,46.2813226 37.7868677,46.2331182 C37.9393649,46.1378145 38.0839666,46.0303465 38.2192713,45.9117559 L38.3233685,45.8314154 L38.4114507,45.7350067 C38.473488,45.6766827 38.5322974,45.614996 38.5876151,45.5502233 C38.6516749,45.4859509 38.6997197,45.4136444 38.7477646,45.3493719 L38.8918991,45.1565545 C38.9399439,45.0922821 38.9719738,45.0199756 39.0040037,44.9557031 L39.1000934,44.7628857 C39.1545208,44.6505174 39.2026409,44.5351824 39.2442279,44.4174213 C39.2842653,44.3129785 39.3082877,44.2165698 39.3243027,44.1362293 L39.3723475,43.9514459 L39.3883625,43.8871735 L39.4844522,43.9032416 L39.4844522,43.9675141 L39.4524223,44.1603314 C39.4444148,44.240672 39.4203924,44.3451148 39.380355,44.4575916 C39.3498554,44.5854093 39.3124316,44.7114634 39.2682504,44.8351922 L39.1801682,45.0440777 L39.076071,45.2609973 C39.0440411,45.3413379 38.9879888,45.4136444 38.9399439,45.4859509 L38.7878019,45.7109045 L38.619645,45.927824 L38.5235553,46.0322668 L38.4194582,46.1286755 C38.2804674,46.2690051 38.1305168,46.3979608 37.9710396,46.5143102 L37.7308154,46.6749914 L37.4665688,46.8196044 C37.0025795,47.0241526 36.5381449,47.2276826 36.0732684,47.4301928 L27.7855332,50.5393729 L22.356466,59.0795759 L22.676765,59.2964954 L28.7304151,52.2425931 L28.8104898,52.2988315 L25.2071267,57.6173774 L27.4171894,57.271913 L30.7482984,52.3309677 L30.8283731,52.3791721 L28.4021086,57.1674702 L30.4840518,57.0308913 L32.7341519,52.4032742 L32.8302416,52.4434445 L31.3008141,56.9826869 L33.4067797,56.8380739 L34.7200053,52.4916489 L34.8241025,52.507717 L34.0874149,56.7657674 L36.2334179,56.3479964 L36.6978513,52.4354105 L36.8019485,52.4354105 L36.8019485,56.155179 L38.3954357,55.2553646 L38.1552115,52.4434445 L38.2513012,52.4273764 L38.8118244,54.9982748 L39.380355,55.319637 L39.8047511,56.4765413 L40.429334,56.6934608 L41.6945149,57.7218202 L42.1749633,58.1074549 L42.1669558,58.1315571 L42.1349259,58.1877955 L41.3101561,57.8262629 C38.2394574,58.6700259 35.1828549,59.5646063 32.1415988,60.5096381 L32.1576138,60.5096381 L35.2565061,62.2931988 L36.7779261,63.1769451 L37.4825837,63.578648 L37.6507407,63.6670226 L37.7308154,63.7152269 L37.7708528,63.7393291 L37.7948752,63.7473632 L37.7948752,63.7553972 L37.8188976,63.7714653 C37.9227726,63.8388985 38.0193812,63.9169805 38.1071667,64.004453 C38.2679144,64.1593447 38.386453,64.3529552 38.4514881,64.566837 C38.4945007,64.7291795 38.5053824,64.8984065 38.483518,65.0649486 C38.4703235,65.1750071 38.4434219,65.2829706 38.4034432,65.3863109 L38.3634058,65.4827195 L38.2593087,65.4425493 L38.2913386,65.3381065 C38.3147447,65.2460972 38.3281684,65.1518189 38.331376,65.0569145 C38.3431844,64.9099587 38.3240878,64.7621531 38.2753236,64.6230754 C38.2087022,64.4457989 38.0985279,64.2882794 37.9550247,64.1651341 C37.8718511,64.0952251 37.7804112,64.0358616 37.6827706,63.9883849 L37.6587482,63.9723168 L37.6107033,63.9562487 L37.5306286,63.9241124 L37.3544642,63.8437719 C37.11424,63.7393291 36.8740157,63.6268523 36.6097691,63.5224096 L35.0002669,62.7993444 L33.9673028,62.3494372 L31.5890831,63.1126726 C30.572134,63.4340349 30.6361938,64.7998247 31.5970906,65.1533232 C33.2386227,65.7799797 33.9993327,66.0531376 35.9291339,66.7440665 C36.9650243,67.1475314 38.1256739,67.0710741 39.1000934,66.5351811 L42.9036434,64.7998247 C45.602162,63.3617284 49.405712,60.2927185 49.405712,60.2927185 L49.4697718,60.356991 L46.5070065,63.1930132 C48.5168824,62.2851647 50.4787135,61.4335547 51.7679167,60.9113409 C53.3011052,60.1306921 54.775698,59.2392401 56.1800347,58.2440339 L56.2440945,58.3083064 L54.2101962,60.1561395 C56.5163486,59.7142664 60.3038836,59.3527338 62.3537969,59.3527338 C65.0763379,59.3607679 65.1323902,57.0067891 63.691045,56.2033833 L63.691045,56.2033833 Z M56.7966102,39.9745876 C57.1569465,40.3280861 57.5332977,40.6655165 57.9016415,41.019015 C57.9422098,41.0674516 57.9796542,41.1184377 58.0137462,41.1716621 C58.0340121,41.1972956 58.0527297,41.2241238 58.0697985,41.2520027 L58.1098358,41.3323433 C58.1381844,41.3866206 58.1622796,41.4430294 58.1819031,41.5010585 C58.198132,41.5588248 58.2088568,41.6180069 58.213933,41.6778077 C58.2255451,41.7386921 58.2309114,41.8006096 58.229948,41.862591 C58.2318957,41.8920168 58.2318957,41.9215399 58.229948,41.9509657 C58.229948,41.9831019 58.213933,42.0152381 58.2059255,42.0393403 C58.1927158,42.0998654 58.1739517,42.1590342 58.1498732,42.2160896 C58.1498732,42.2401917 58.1258508,42.272328 58.1098358,42.2964301 L58.0697985,42.3687367 L57.9897237,42.3205323 L58.0217536,42.2401917 C58.0344895,42.2170619 58.0452062,42.1928694 58.0537835,42.1678852 C58.0686571,42.1179811 58.0793706,42.066923 58.0858134,42.0152381 C58.0874833,41.9884841 58.0874833,41.9616515 58.0858134,41.9348976 L58.0858134,41.854557 C58.0826164,41.803029 58.0745732,41.7519194 58.061791,41.7019099 C58.0479995,41.6519376 58.0292204,41.6034882 58.0057387,41.5572969 C57.9858915,41.5096732 57.9617698,41.4639587 57.9336714,41.4207179 C57.9218474,41.3983765 57.9084685,41.3768991 57.8936341,41.3564454 C57.8787671,41.3341812 57.8627294,41.3127267 57.8455892,41.292173 C57.8130082,41.2552966 57.7782464,41.2204194 57.7414921,41.1877302 C57.3411184,40.8904701 56.9407447,40.5771419 56.5243561,40.2798818 L56.7966102,39.9745876 Z M54.6105699,38.9944326 C54.6213919,38.9196815 54.6487523,38.8483084 54.6906446,38.7855471 C54.6980089,38.7743659 54.7060306,38.7636348 54.714667,38.7534109 C54.7258622,38.7356609 54.739322,38.7194555 54.7547044,38.7052065 L54.8267717,38.6489681 C54.8563036,38.6262224 54.888591,38.6073255 54.9228613,38.5927297 L54.9468838,38.5766616 L55.0589884,38.5605935 L55.0830108,38.5605935 L55.1470706,38.6811043 L55.1310557,38.6971725 C55.1061587,38.7232031 55.0793955,38.7473698 55.0509809,38.769479 C55.0501791,38.7780207 55.04744,38.7862651 55.0429734,38.7935811 L55.018951,38.8337514 L54.9949286,38.8739217 C54.9962726,38.8818992 54.9962726,38.8900464 54.9949286,38.8980239 C54.9904852,38.9091619 54.9851285,38.9199108 54.9789137,38.9301601 C54.9777057,38.9381485 54.9777057,38.9462739 54.9789137,38.9542623 C54.9801036,38.9649411 54.9801036,38.9757197 54.9789137,38.9863985 C54.9780224,38.9970919 54.9780224,39.0078413 54.9789137,39.0185348 L54.9789137,39.0346029 C54.975678,39.050507 54.975678,39.0669031 54.9789137,39.0828072 C54.9801666,39.1050526 54.9856003,39.1268598 54.9949286,39.1470797 L54.9949286,39.1551137 L55.0269585,39.195284 C55.0291434,39.2073058 55.0346988,39.2184535 55.0429734,39.2274202 C55.0532732,39.2327675 55.0616663,39.2411885 55.0669959,39.2515224 C55.08225,39.2595933 55.0958368,39.2704988 55.1070332,39.2836586 L55.1230482,39.2836586 L55.1550781,39.3077608 C55.188316,39.3211798 55.2234377,39.3293117 55.2591752,39.331863 C55.2945,39.3320253 55.3296297,39.3266028 55.3632724,39.3157949 L55.4113172,39.2997268 L55.4273322,39.2916927 L55.4593621,39.2675905 C55.4741985,39.2588948 55.4876871,39.2480681 55.4993994,39.2354543 C55.5069138,39.2269402 55.514936,39.2188914 55.5234219,39.2113521 C55.5305186,39.2046454 55.535996,39.196402 55.5394368,39.18725 L55.5474443,39.1631478 C55.556207,39.155909 55.5642518,39.1478374 55.5714667,39.1390456 L55.5874816,39.0908413 C55.5948709,39.0727451 55.6002419,39.0538842 55.6034966,39.0346029 L55.6034966,39.0024666 C55.6014716,38.975725 55.6014716,38.9488677 55.6034966,38.9221261 L55.6034966,38.8980239 L55.7156012,38.8498195 L55.7316162,38.8739217 C55.7527754,38.9045435 55.7715166,38.9367779 55.7876685,38.9703304 L55.8036834,39.0024666 C55.8155359,39.0362766 55.8235931,39.0713074 55.8277059,39.1069094 L55.8277059,39.18725 C55.8258059,39.214606 55.8204238,39.2416056 55.8116909,39.2675905 L55.8116909,39.2916927 C55.7955359,39.3676223 55.7627096,39.4389822 55.7156012,39.5005782 C55.6638487,39.5674251 55.5982878,39.6222406 55.5234219,39.6612593 L55.5074069,39.6853615 L55.475377,39.6933956 L55.4593621,39.7014296 L55.3953023,39.7255318 C55.3514093,39.7404532 55.3055074,39.7485804 55.2591752,39.749634 L55.2111304,39.749634 C55.122962,39.7471433 55.0360434,39.7280667 54.9548912,39.6933956 L54.9228613,39.6773275 C54.8886198,39.6594345 54.8564033,39.6378856 54.8267717,39.613055 C54.8065892,39.5988286 54.7878186,39.582686 54.7707193,39.5648506 C54.7503274,39.5479001 54.7315615,39.5290719 54.714667,39.5086122 C54.6817923,39.4699685 54.6548075,39.4266496 54.6345923,39.3800673 L54.6025624,39.3077608 L54.6025624,39.2836586 L54.5945549,39.2595565 L54.5945549,39.2354543 C54.5847644,39.1960069 54.5793928,39.1555864 54.57854,39.1149434 C54.5831464,39.0733914 54.5939433,39.0327686 54.6105699,38.9944326 L54.6105699,38.9944326 Z M54.4744428,41.6456715 C54.4977627,41.5733765 54.532945,41.5054935 54.57854,41.4448201 C54.5976024,41.4162793 54.6190317,41.3894038 54.6425998,41.3644795 L54.6746297,41.3323433 L54.6906446,41.3162751 L54.7066595,41.3162751 L54.7226745,41.292173 C54.7874538,41.2508227 54.8574788,41.2183962 54.9308688,41.1957643 C55.0315029,41.1616459 55.1395755,41.1560854 55.2431603,41.1796962 C55.2760922,41.1835386 55.3083902,41.1916399 55.33925,41.2037983 L55.4193247,41.2439686 C55.4412959,41.2563401 55.462673,41.2697451 55.4833845,41.2841389 C55.5056516,41.2989468 55.527041,41.3150421 55.5474443,41.3323433 L55.5954891,41.3885817 L55.6355265,41.436786 C55.6416421,41.4498508 55.6469896,41.4632639 55.6515414,41.4769563 L55.6835713,41.5572969 L55.6115041,41.6215693 C55.5866325,41.6068175 55.5625749,41.5907258 55.5394368,41.573365 C55.5290522,41.567442 55.5183604,41.5620784 55.5074069,41.5572969 L55.4673695,41.5412287 C55.4387952,41.53054 55.4093138,41.522473 55.3792873,41.5171266 C55.3534909,41.5079853 55.3265289,41.502575 55.2992126,41.5010585 L55.2671827,41.5010585 C55.2486786,41.4973783 55.2296345,41.4973783 55.2111304,41.5010585 L55.1470706,41.5010585 C55.1083872,41.5104182 55.0708071,41.5238842 55.034966,41.5412287 C54.9984736,41.5530705 54.9635258,41.5692538 54.9308688,41.5894331 L54.9148539,41.6055012 L54.882824,41.6376374 C54.8675746,41.6489707 54.8540824,41.6625077 54.8427866,41.6778077 C54.8162899,41.7051444 54.7921791,41.7347109 54.7707193,41.7661824 C54.7627119,41.7822505 54.7627119,41.8063526 54.7466969,41.8224208 C54.7373736,41.8397867 54.7319101,41.8589727 54.730682,41.8786592 C54.7168745,41.9124282 54.7061538,41.9473862 54.6986521,41.9831019 C54.6948819,42.0178134 54.6948819,42.0528331 54.6986521,42.0875446 L54.6986521,42.1277149 C54.7003715,42.1412781 54.7030474,42.1547019 54.7066595,42.1678852 C54.713858,42.1942581 54.7192094,42.2211038 54.7226745,42.2482258 L54.6666222,42.2883961 C54.6414133,42.2712327 54.6173404,42.2524471 54.5945549,42.2321577 L54.562525,42.1919874 L54.5304951,42.143783 L54.4984652,42.0875446 C54.488765,42.0640423 54.4807374,42.0398795 54.4744428,42.0152381 L54.4504204,41.9348976 L54.4504204,41.8465229 C54.4489004,41.7787685 54.4569888,41.7111414 54.4744428,41.6456715 L54.4744428,41.6456715 Z M18.7370879,18.7566422 L18.8572001,18.6763016 L22.052182,22.9423861 L27.2970773,25.4650801 L27.22501,25.6096931 L21.5877486,23.4324636 L18.7370879,18.7566422 Z M13.6123048,22.3157296 L13.716402,22.2032528 L17.1355932,25.4329438 L24.0700654,27.6824799 L24.0220206,27.8270929 L16.6871747,25.9551576 L13.6123048,22.3157296 Z M11.8506606,24.1876649 L11.9467503,24.0912563 L15.6301882,27.0959937 L23.8298412,29.3455297 L23.7898038,29.5062109 L15.2698519,27.6583777 L11.8506606,24.1876649 Z M12.5072735,28.6385327 L12.5553183,28.4939197 L23.9019084,30.8398644 L23.8698786,31.0005456 L15.4620312,29.7150964 L12.5072735,28.6385327 Z M24.6225811,32.599323 L18.6490057,32.0530071 L15.6301882,31.1692608 L15.6702255,31.0166137 L24.638596,32.4466759 L24.6225811,32.599323 Z M24.8628053,26.4130988 L18.8171627,24.3965504 L16.3108234,20.9338717 L16.4149206,20.8454971 L19.3216335,23.9466432 L24.9348725,26.2765198 L24.8628053,26.4130988 Z M25.6315228,28.5903284 L25.5274256,28.542124 L25.5354331,27.2325727 L25.6635526,27.2165046 L25.8076872,28.0038422 L28.4741759,26.6380524 L28.5382357,26.7505292 L25.6315228,28.5903284 Z M25.9998665,30.6229449 L26.0158815,29.3133935 L26.1440011,29.2973254 L26.2881356,30.084663 L29.811424,28.2127277 L29.8674763,28.3171704 L26.1039637,30.6711492 L25.9998665,30.6229449 Z M27.1209129,32.4868462 L27.0088082,32.4306078 L27.0328306,31.1130224 L27.1529427,31.0969542 L27.2970773,31.8923259 L31.0205525,29.8677435 L31.0846123,29.9721862 L27.1209129,32.4868462 Z M28.6022955,34.013317 L28.4901908,33.9651127 L28.5062058,32.6555614 L28.6343254,32.6394932 L28.7784599,33.4348649 L32.4218604,31.5227593 L32.4859202,31.627202 L28.6022955,34.013317 Z M30.4600294,35.3469706 L30.3639397,35.2826981 L30.3799546,33.9811808 L30.5080742,33.9570786 L30.6522087,34.7524503 L33.8551982,33.0733323 L33.9352729,33.1777751 L30.4600294,35.3469706 Z M32.4618978,36.6083176 L32.3658081,36.5601132 L32.3898305,35.274664 L32.5019351,35.2505619 L32.6540771,36.0298654 L35.3125584,34.6640757 L35.3766182,34.7685184 L32.4618978,36.6083176 Z M34.4317363,37.8214602 L34.3276391,37.7732559 L34.3516616,36.5199429 L34.4717737,36.5199429 L34.6159082,37.2430081 L36.5136794,36.3431937 L36.5777392,36.4476364 L34.4317363,37.8214602 Z M36.049246,39.0426369 L35.9611638,38.9863985 L36.0092086,37.9419711 L36.1213132,37.9419711 L36.2414253,38.488287 L37.5946884,37.8937667 L37.6507407,37.9901754 L36.049246,39.0426369 Z M37.2743894,40.3602223 L37.1782997,40.2959499 L37.2904044,39.339897 L37.4105165,39.3559652 L37.4585613,39.8219405 L39.1081009,39.0908413 L39.1721607,39.195284 L37.2743894,40.3602223 Z M38.2593087,43.3328235 L38.1712265,43.2685511 L38.2993461,42.5133497 L38.4114507,42.5133497 L38.4354731,42.8025757 L39.2202055,42.4812135 L39.2842653,42.5856562 L38.2593087,43.3328235 Z M37.9470172,41.7501142 L37.8509275,41.6938758 L37.9710396,40.9306404 L38.0911517,40.9306404 L38.1311891,41.2279005 L39.2922728,40.6655165 L39.3563326,40.7619252 L37.9470172,41.7501142 Z M33.462832,50.6759519 L33.3987722,50.6197135 L33.5829441,50.2742491 L33.2306152,50.121602 L33.2466302,50.0332273 L34.1594822,50.0332273 L34.1835046,50.1135679 L33.462832,50.6759519 Z M36.0252235,50.6759519 L35.9611638,50.6197135 L36.1453356,50.2742491 L35.7930068,50.121602 L35.8090218,50.0332273 L36.7218737,50.0332273 L36.7539036,50.1135679 L36.0252235,50.6759519 Z M36.6978513,65.6192985 L35.7769919,65.2979362 L34.8561324,64.9926421 L33.0144135,64.4061559 L32.9983985,64.3981218 C32.9344345,64.3798127 32.8809,64.3357139 32.8505475,64.2763301 C32.8201951,64.2169464 32.815742,64.147594 32.838249,64.0847936 C32.8615385,64.007761 32.9216209,63.9474793 32.9983985,63.9241124 L34.8961698,63.4018987 L34.9281997,63.4822393 L33.6790338,64.141032 L34.9602295,64.71145 C35.2645135,64.839995 35.5527826,64.984608 35.8410516,65.1131529 L36.7218737,65.5309239 L36.6978513,65.6192985 Z M46.4269318,49.4547752 L46.3468571,49.4065709 L46.515014,48.9325615 L46.0345656,48.8120506 L46.0345656,48.73171 L47.1556119,48.5388927 L47.1956493,48.6192332 L46.4269318,49.4547752 Z M44.4731082,46.6589233 L44.4731082,46.5785827 L46.1546777,46.0161987 L46.21073,46.0804711 L45.2178033,47.5667717 L45.1377285,47.5346355 L45.2898705,46.7312298 L44.4731082,46.6589233 Z M43.7524356,50.129636 L43.7524356,50.0412614 L44.6492727,49.8805802 L44.68931,49.9609208 L44.0727346,50.6438157 L43.9926598,50.5956113 L44.1207794,50.2260447 L43.7524356,50.129636 Z M43.8245029,43.9273438 L43.8164954,43.8389691 L45.5220873,43.3408576 L45.5781396,43.4131641 L44.5291605,44.8592944 L44.4490858,44.8191241 L44.6252502,44.0237525 L43.8245029,43.9273438 Z M48.2446283,47.3578862 L48.1645536,47.317716 L48.3247031,46.8356725 L47.8442546,46.7231957 L47.8442546,46.626787 L48.9653009,46.4420037 L49.0053383,46.5223443 L48.2446283,47.3578862 Z M49.6219138,42.9953931 L49.8221006,42.5374519 L49.3496597,42.3767707 L49.3656746,42.2964301 L50.4947284,42.1919874 L50.5347658,42.272328 L49.693981,43.0516315 L49.6219138,42.9953931 Z M51.1032964,37.9901754 L52.0161484,37.9901754 L52.0401708,38.070516 L51.3194982,38.6329 L51.2554384,38.5766616 L51.4396103,38.2311971 L51.0872815,38.070516 L51.1032964,37.9901754 Z M50.6468704,44.6745111 L50.0222875,45.3413379 L49.9422127,45.3011676 L50.0703323,44.9316009 L49.7019885,44.8351922 L49.7019885,44.7468176 L50.5988256,44.5941705 L50.6468704,44.6745111 Z M50.5908181,39.6773275 L49.4697718,40.5530397 L49.405712,40.4968013 L49.709996,39.9344173 L49.1254504,39.6773275 L49.1414654,39.5889528 L50.5667957,39.5889528 L50.5908181,39.6773275 Z M48.5008675,37.4277914 L49.6379287,37.4277914 L49.6619512,37.508132 L48.7651141,38.207095 L48.7010543,38.1508566 L48.9412785,37.7089834 L48.4768451,37.516166 L48.5008675,37.4277914 Z M48.3807554,43.9112757 L47.4839183,45.0119415 L47.4038436,44.9717712 L47.580008,44.3611829 L46.9554251,44.240672 L46.9554251,44.1362293 L48.3487255,43.8309351 L48.3807554,43.9112757 Z M48.2606433,41.155594 L48.3006806,41.2279005 L47.1796343,42.5213837 L47.0995596,42.4812135 L47.3397838,41.7420802 L46.5790738,41.581399 L46.5790738,41.4849903 L48.2606433,41.155594 Z M47.6520753,39.0908413 L46.531029,39.9585195 L46.4509542,39.9022811 L46.7712532,39.339897 L46.1787001,39.0908413 L46.2027225,39.0024666 L47.6280528,39.0024666 L47.6520753,39.0908413 Z M45.5060723,37.4277914 L46.4189243,37.4277914 L46.4429468,37.508132 L45.7222741,38.070516 L45.6582143,38.0142776 L45.8423862,37.6688131 L45.4820499,37.508132 L45.5060723,37.4277914 Z M45.0976912,40.7779933 L45.1377285,40.8583339 L43.9045776,42.143783 L43.8245029,42.0955787 L44.1047644,41.3323433 L43.320032,41.1234578 L43.320032,41.0350831 L45.0976912,40.7779933 Z M42.2790605,48.2496666 L42.2790605,48.1532579 L43.6803683,47.8640319 L43.7204057,47.9443724 L42.7995462,49.0289702 L42.7194715,48.9887999 L42.9036434,48.3701775 L42.2790605,48.2496666 Z M42.9196583,38.6409341 L44.3369812,38.6409341 L44.3690111,38.7212746 L43.2479648,39.5969869 L43.1758975,39.5327144 L43.4801815,38.9703304 L42.8956359,38.7293087 L42.9196583,38.6409341 Z M42.8395836,45.6144958 L41.9827839,46.7553319 L41.9027092,46.7151617 L42.0468437,46.0885052 L41.4222608,46.0081646 L41.4222608,45.9037219 L42.7835313,45.5261212 L42.8395836,45.6144958 Z M42.40718,43.3247895 L41.5263579,44.3692169 L41.4462832,44.3210126 L41.6144401,43.7345264 L41.0218871,43.6140155 L41.0218871,43.5256409 L42.3591352,43.2444489 L42.40718,43.3247895 Z M40.8056853,41.2761049 L41.9267316,41.0913215 L41.966769,41.1716621 L41.1980515,42.0072041 L41.1179768,41.9589997 L41.2781263,41.4930244 L40.7976778,41.3725135 L40.8056853,41.2761049 Z M37.8669425,49.1816173 L37.7948752,49.1253789 L37.9870546,48.7799144 L37.6267183,48.6192332 L37.6507407,48.5388927 L38.5635927,48.5388927 L38.5876151,48.6192332 L37.8669425,49.1816173 Z M38.6116375,51.1981656 L38.5475777,51.1419272 L38.7317496,50.8044968 L38.3794208,50.6438157 L38.3954357,50.5634751 L39.3082877,50.5634751 L39.3323102,50.6438157 L38.6116375,51.1981656 Z M39.6526091,47.8238616 L39.5725344,47.7676232 L39.8127586,47.317716 L39.3403176,47.1409667 L39.3563326,47.044558 L40.4933938,47.0124218 L40.5254237,47.0927624 L39.6526091,47.8238616 Z M40.3572668,49.7359672 L40.2851995,49.6797288 L40.5254237,49.2378557 L40.0689977,49.0450383 L40.0930202,48.9566637 L41.2300814,48.9566637 L41.2541038,49.0370042 L40.3572668,49.7359672 Z M41.4622981,51.3749149 L41.3902309,51.3186765 L41.5824102,50.973212 L41.2220739,50.8125309 L41.2460964,50.7321903 L42.1589484,50.7321903 L42.1829708,50.8125309 L41.4622981,51.3749149 Z M37.554651,60.8470685 L37.2423595,60.9434772 L37.0021353,61.0157837 L36.7779261,61.0800561 L36.4576271,61.1764648 L36.4095823,61.0398859 L36.4336047,61.0238177 L36.7218737,60.9113409 L37.0421727,60.774762 L37.1302549,60.7426257 L37.4745763,60.6060468 C37.7548378,60.49357 38.0751368,60.365025 38.4274656,60.2445142 L38.5475777,60.2043439 L38.7878019,60.1159693 C39.1081009,60.0034925 39.4444148,59.8749475 39.7887362,59.7624707 L41.0459095,59.3607679 L41.2140665,59.3045295 L41.6144401,59.1840186 L42.1429334,59.0474396 L42.7835313,58.8867585 L42.9276658,58.8465882 L43.2319498,58.7823157 L43.2559722,58.7823157 L43.3040171,58.9188947 L43.2719872,58.9269288 L42.9837181,59.0394056 L42.7835313,59.1117121 L42.2230081,59.3045295 L41.7105298,59.4732447 L41.5904177,59.513415 L41.1339917,59.6740961 C40.733618,59.8106751 40.3172294,59.9472541 39.8928333,60.075799 L39.5725344,60.1882758 L38.6516749,60.49357 L38.2112638,60.6301489 L37.554651,60.8470685 L37.554651,60.8470685 Z M47.3237689,59.0313715 L47.0114774,59.1358143 L46.2667823,59.4009382 L46.0986254,59.4571766 L45.5621246,59.6419599 C45.3058855,59.7223005 45.0416389,59.8267432 44.7853997,59.9151178 L43.0798078,60.5257062 L41.9827839,60.9274091 L41.3822234,61.1443286 C41.1980515,61.2246692 41.0218871,61.2809076 40.8457227,61.34518 L40.6054985,61.4255206 L40.1090351,61.6103039 L39.9008408,61.6906445 L39.1481383,61.9557684 L38.8518617,62.0682452 L38.4514881,62.2048242 L38.4194582,62.2128582 L38.3634058,62.0762792 L38.3954357,62.0602111 L38.7878019,61.89953 L39.076071,61.7709851 L39.8127586,61.4576568 L39.9568931,61.4014184 L40.5014013,61.1764648 L40.749633,61.0800561 L41.2781263,60.8711706 L41.8866942,60.638183 L42.9757107,60.2364801 L44.68931,59.6419599 L45.0896837,59.5053809 L45.4740424,59.38487 L46.1947151,59.1679505 L46.9394101,58.951031 L47.2597091,58.8546223 L47.7001201,58.7260773 L47.748165,58.8706904 L47.3237689,59.0313715 Z M43.4001068,57.2638789 L43.4081142,57.1674702 C43.4398333,57.1603869 43.4719097,57.1550231 43.5042039,57.1514021 C43.5387664,57.1470332 43.5737386,57.1470332 43.6083011,57.1514021 C43.6534684,57.1452315 43.6992609,57.1452315 43.7444281,57.1514021 L43.776458,57.1514021 L43.8245029,57.1674702 C43.8516063,57.1740562 43.8783366,57.1821019 43.9045776,57.1915724 C43.9648114,57.2085682 44.0236965,57.2300521 44.080742,57.2558449 C44.1400779,57.2881433 44.1963622,57.3257907 44.248899,57.3683217 C44.3065199,57.4115813 44.3601215,57.459983 44.4090484,57.5129347 L44.4490858,57.5691731 C44.4791482,57.6041306 44.505952,57.6417805 44.5291605,57.6816499 C44.5607831,57.7409731 44.5875624,57.8027697 44.6092353,57.8664332 C44.6309727,57.9263852 44.6470581,57.9882506 44.6572801,58.0512165 L44.6732951,58.1315571 L44.6732951,58.2118977 C44.6736452,58.2605663 44.6682697,58.3091063 44.6572801,58.3565107 C44.657069,58.391924 44.6516731,58.4271141 44.6412652,58.4609535 L44.6092353,58.541294 L44.5131456,58.541294 L44.4891232,58.4609535 C44.481444,58.430487 44.4707128,58.400878 44.4570933,58.3725788 C44.4460772,58.3342924 44.4327058,58.2967281 44.4170559,58.260102 C44.401415,58.2185763 44.3826779,58.178292 44.3610036,58.1395912 C44.3395844,58.0953252 44.3155181,58.0523986 44.2889363,58.0110462 L44.2088616,57.8905354 L44.1127719,57.7700245 L44.0326972,57.689684 C44.0264177,57.677775 44.0183113,57.6669305 44.0086748,57.6575477 L43.8965701,57.553105 C43.8645402,57.5209687 43.8164954,57.4888325 43.776458,57.4727644 C43.7403336,57.4467741 43.7029172,57.4226409 43.6643534,57.4004579 L43.5602562,57.3442195 L43.4801815,57.3040492 L43.4001068,57.2638789 L43.4001068,57.2638789 Z M46.1787001,56.5408138 C46.189496,56.5429881 46.2001844,56.5456691 46.21073,56.5488478 C46.2711988,56.5684198 46.3300912,56.5925922 46.3868944,56.6211543 C46.4466137,56.6528108 46.5029578,56.6904982 46.5550514,56.7336311 C46.6124135,56.7742406 46.6660132,56.8199516 46.7152009,56.8702101 C46.7614452,56.9246303 46.8017147,56.9838883 46.835313,57.0469594 C46.8667621,57.1035872 46.8935429,57.1627007 46.9153877,57.2237086 C46.9362492,57.283931 46.9523146,57.3457194 46.9634325,57.4084919 L46.9794475,57.4888325 L46.9794475,57.5691731 C46.9812584,57.6175223 46.9785777,57.6659357 46.97144,57.7137861 C46.9684233,57.7495693 46.9603343,57.7847378 46.9474176,57.8182289 L46.9153877,57.8985694 L46.8273055,57.8985694 C46.8152914,57.8723457 46.8046012,57.8455315 46.7952756,57.8182289 C46.7952756,57.7860926 46.7792606,57.7539564 46.7632457,57.7218202 L46.7232083,57.6173774 C46.7069096,57.5761331 46.6881928,57.5358925 46.667156,57.4968666 C46.648164,57.4528741 46.6267786,57.4099612 46.6030962,57.3683217 L46.5230215,57.2478108 L46.4269318,57.1192659 C46.3949019,57.0710615 46.3548645,57.0389253 46.3148272,57.0067891 L46.2027225,56.9103804 C46.1666898,56.8817723 46.1292764,56.8549597 46.0906179,56.8300398 C46.0226554,56.7805944 45.9502798,56.7375628 45.8744161,56.7014949 C45.8486533,56.6839224 45.8219189,56.6678285 45.7943414,56.6532906 C45.7834696,56.6514675 45.7727593,56.648781 45.7623115,56.6452565 L45.0736688,56.8139717 L44.9775791,56.8380739 L45.0576538,56.862176 C45.1180845,56.8850109 45.1769356,56.9118502 45.2338182,56.9425166 C45.2902336,56.9724102 45.3438356,57.0073671 45.3939677,57.0469594 C45.4523042,57.0893378 45.5059886,57.1378142 45.5541172,57.1915724 C45.598911,57.2442444 45.639097,57.3006916 45.6742293,57.3602876 C45.709015,57.4191279 45.7384928,57.4809681 45.7623115,57.5450709 C45.7823007,57.6055556 45.7983495,57.6672802 45.8103563,57.7298542 L45.8263713,57.8101948 L45.8263713,57.8905354 C45.8276571,57.9362086 45.8249778,57.9819074 45.8183638,58.0271144 C45.8134646,58.0625755 45.8054254,58.097528 45.7943414,58.1315571 C45.7857674,58.1591337 45.7750582,58.1859957 45.7623115,58.2118977 L45.6662218,58.2118977 L45.6421994,58.1315571 C45.6334894,58.1014184 45.6227891,58.0718949 45.6101695,58.0431825 L45.5701321,57.9387397 L45.5140798,57.8101948 L45.45002,57.689684 L45.3699453,57.561139 C45.3459229,57.5129347 45.297878,57.4807985 45.2738556,57.4406282 C45.2388375,57.4008499 45.2013976,57.3632858 45.161751,57.3281514 L45.0496463,57.2237086 C45.0176164,57.1835383 44.9695716,57.1674702 44.9375417,57.1433681 L44.8254371,57.0710615 L44.7213399,57.0148231 L44.6412652,56.9746529 L44.5691979,56.9425166 L43.336047,55.5124544 L42.7354865,52.089946 L42.8475911,52.0337076 L45.2017883,54.9099001 L46.0185506,54.893832 L48.1165087,56.0668044 L46.1787001,56.5488478 L46.1787001,56.5408138 Z M49.9101828,55.6490334 L49.9181903,55.5686928 L50.01428,55.5606588 C50.0488694,55.5567448 50.0837877,55.5567448 50.1183772,55.5606588 C50.1636783,55.5569672 50.2092031,55.5569672 50.2545042,55.5606588 L50.2625117,55.5606588 L50.3345789,55.5767269 L50.4146537,55.6008291 C50.5382876,55.6423264 50.6525663,55.7078454 50.7509676,55.7936464 C50.7947428,55.8269075 50.834992,55.8645981 50.8710797,55.9061232 L50.9031096,55.9382595 C50.9484249,55.9905205 50.988646,56.047017 51.0232217,56.1069747 C51.0544115,56.166507 51.0811759,56.2282694 51.1032964,56.291758 C51.1217883,56.3521156 51.1351814,56.4139285 51.1433338,56.4765413 L51.1513413,56.5568819 L51.1513413,56.6372224 C51.1548958,56.6855716 51.1522044,56.7341789 51.1433338,56.7818355 C51.1395801,56.8174988 51.1315133,56.852571 51.1193114,56.8862782 L51.0872815,56.9666188 L50.9911918,56.9666188 L50.9671694,56.8862782 C50.9591461,56.853315 50.9484333,56.82107 50.9351395,56.7898695 L50.8951021,56.6854268 L50.8470573,56.5649159 L50.7829975,56.436371 L50.7029227,56.3078261 C50.6733472,56.263185 50.6412655,56.2202674 50.606833,56.1792812 L50.5027359,56.0668044 C50.4857858,56.0488112 50.4669986,56.0326544 50.4466836,56.0186 L50.3906313,55.9623616 L50.2785266,55.8820211 L50.166422,55.8016805 L50.0623248,55.7454421 L49.9822501,55.7052718 L49.9021754,55.6651015 L49.9101828,55.6490334 Z M52.8409182,57.5450709 L52.6967837,57.5932753 L52.584679,57.6254115 L52.3124249,57.7057521 C51.9305287,57.8196571 51.5429752,57.9135151 51.1513413,57.9869441 L51.0392366,58.0110462 C50.6752245,58.0988236 50.3094746,58.1791807 49.9422127,58.252068 L49.6539437,58.2922383 L49.5498465,58.3083064 L49.3896971,58.3324085 L49.3656746,58.3324085 L49.3336447,58.1877955 L49.3576672,58.1797614 L49.5018017,58.1315571 L49.5818764,58.0994209 L49.8861604,58.0030122 C50.2384893,57.8905354 50.6708928,57.7700245 51.0552516,57.6816499 L51.6958495,57.553105 L52.2563726,57.4566963 L52.5446417,57.4245601 L52.6567463,57.4084919 L52.8168958,57.3924238 L52.8409182,57.3924238 L52.8649406,57.5370369 L52.8409182,57.5450709 Z M54.2021887,56.1873152 L54.1781663,56.1873152 L54.1461364,56.0427022 L54.1701588,56.0427022 L54.3623382,55.9864638 L54.5064727,55.9462935 C55.1244483,55.7945997 55.7466157,55.6606441 56.3722141,55.5445906 L56.388229,55.5365566 L57.1889764,55.3919436 L57.8535967,55.2955349 L57.9016415,55.2955349 L58.2860003,55.2473305 L58.4061124,55.2312624 L58.5982917,55.2151943 L58.6303216,55.2151943 L58.6543441,55.3598073 L58.6223142,55.3598073 L58.4381423,55.4160457 L58.3020152,55.448182 L57.9416789,55.5285225 L57.5573202,55.6088631 L57.2370212,55.6811696 L56.556386,55.8177486 L56.4282664,55.8418508 C55.7984966,55.9605424 55.1656808,56.0623434 54.5304951,56.1471449 L54.3943681,56.1632131 L54.2021887,56.1953493 L54.2021887,56.1873152 Z M60.4480182,56.3720986 L60.191779,56.4122688 L59.7513679,56.4926094 C59.4238045,56.5506575 59.0954676,56.6042229 58.7664487,56.6532906 L58.2059255,56.7336311 L58.0938209,56.7496992 L57.6373949,56.8220058 L57.1969839,56.8782442 L56.5083411,56.9826869 L56.1159749,57.0389253 L55.9878553,57.0549934 L55.5234219,57.1192659 L55.0429734,57.1835383 L54.8267717,57.2076405 L54.5304951,57.2397767 L54.5064727,57.0951637 L54.7947418,57.0308913 L54.9949286,56.9826869 L55.4833845,56.8862782 L55.7396236,56.8300398 L55.947818,56.7898695 L56.1560123,56.7496992 L56.4602963,56.6934608 C56.6284532,56.6613246 56.8206326,56.6211543 57.0208194,56.5970522 L57.5893501,56.5086775 L58.1658882,56.428337 L58.7264113,56.3479964 L59.3830242,56.2837239 L59.7113306,56.2435536 L60.3359135,56.1873152 L60.4159883,56.1873152 L60.6882424,56.1712471 L60.7122648,56.1712471 L60.7282797,56.3158602 L60.4480182,56.3720986 Z"/>
    </g>
    <path fill="#1C1B19" fill-rule="nonzero" d="M0,0.892254272 L1.54109589,1.2025197 C5.17808219,1.88510366 5.60958904,4.05696168 5.60958904,6.04266045 L5.60958904,31.2982667 C5.60958904,33.3460185 5.11643836,35.3937704 1.54109589,36.1384074 L0,36.4486728 L0,37.255363 L17.8767123,37.255363 L17.8767123,36.4486728 L16.3356164,36.1384074 C12.760274,35.3937704 12.2671233,33.3460185 12.2671233,31.2982667 L12.2671233,6.04266045 C12.2671233,4.05696168 12.760274,1.88510366 16.3356164,1.2025197 L17.8767123,0.892254272 L17.8767123,0.0855641471 L0,0.0855641471 L0,0.892254272 M363.267123,0.0855641471 L363.267123,12.5582345 L364.006849,12.5582345 L365.856164,7.96630613 C367.705479,3.37437773 369.554795,0.892254272 374.363014,0.892254272 L376.335616,0.892254272 L376.335616,31.2982667 C376.335616,33.2839654 375.90411,35.6419827 372.267123,36.2004605 L370.726027,36.4486728 L370.726027,37.255363 L388.60274,37.255363 L388.60274,36.4486728 L387,36.2004605 C383.424658,35.5799296 382.931507,33.2839654 382.931507,31.2362136 L382.931507,0.954307358 L384.965753,0.954307358 C389.712329,0.954307358 391.623288,3.43643082 393.410959,8.02835922 L395.260274,12.6202876 L396,12.6202876 L396,0.0855641471 L363.267123,0.0855641471 M347.30137,0.892254272 L348.780822,1.07841353 C351.493151,1.45073205 354.020548,2.81589995 354.082192,9.88995181 L354.205479,26.8304444 L339.90411,9.76584564 C335.589041,4.67749255 333.863014,2.50563452 332.630137,0.20967032 L332.506849,0.0855641471 L319.438356,0.0855641471 L319.438356,0.892254272 L319.684932,0.892254272 C322.39726,1.38867896 324.061644,2.50563452 326.89726,5.60828885 L327.452055,6.22881971 L327.452055,25.7134889 C327.452055,34.0286025 324.863014,35.3937704 321.719178,36.2004605 L320.609589,36.4486728 L320.609589,37.255363 L335.280822,37.255363 L335.280822,36.4486728 L334.232877,36.2004605 C331.458904,35.4558235 328.561644,34.6491333 328.5,25.6514358 L328.376712,7.22166909 L354.267123,37.9379469 L354.267123,38 L355.130137,38 L355.130137,9.88995181 C355.130137,2.81589995 357.780822,1.45073205 360.431507,1.07841353 L361.849315,0.892254272 L361.849315,0.0855641471 L347.30137,0.0855641471 L347.30137,0.892254272 M197.19863,30.5536296 C194.732877,34.8352926 191.712329,36.3866198 186.10274,36.3866198 L184.5,36.3866198 C181.417808,36.3866198 180,34.8352926 180,31.4223728 L180,18.5153308 L182.280822,18.5773839 C187.890411,18.7014901 189.493151,18.9497024 191.219178,24.4103741 L191.835616,26.3960728 L192.636986,26.3960728 L192.636986,9.70379255 L191.835616,9.70379255 L191.219178,11.7515444 C189.493151,17.212216 187.828767,17.4604284 182.280822,17.5845345 L180,17.5845345 L180,1.01636044 L183.945205,1.01636044 C190.60274,1.01636044 193.561644,2.38152835 195.780822,6.47703206 L198.308219,11.0689605 L199.047945,11.0689605 L199.047945,0.0855641471 L167.794521,0.0855641471 L167.794521,0.892254272 L169.335616,1.2025197 C172.726027,1.82305057 173.40411,3.4984839 173.40411,5.91855428 L173.40411,31.2982667 C173.40411,33.2839654 172.910959,35.6419827 169.335616,36.2004605 L167.794521,36.4486728 L167.794521,37.255363 L200.465753,37.255363 L200.465753,26.2719667 L199.726027,26.2719667 L197.19863,30.6156827 M314.075342,30.5536296 C311.609589,34.8352926 308.589041,36.3866198 302.979452,36.3866198 L301.438356,36.3866198 C298.294521,36.3866198 296.876712,34.8352926 296.876712,31.4223728 L296.876712,18.5153308 L299.157534,18.5773839 C304.828767,18.7014901 306.369863,18.9497024 308.09589,24.4103741 L308.712329,26.3960728 L309.513699,26.3960728 L309.513699,9.70379255 L308.650685,9.70379255 L308.034247,11.7515444 C306.308219,17.212216 304.643836,17.4604284 299.09589,17.5845345 L296.938356,17.5845345 L296.938356,1.01636044 L300.883562,1.01636044 C307.541096,1.01636044 310.5,2.38152835 312.719178,6.47703206 L315.246575,11.0689605 L315.986301,11.0689605 L315.986301,0.0855641471 L284.732877,0.0855641471 L284.732877,0.892254272 L286.273973,1.2025197 C289.664384,1.82305057 290.342466,3.4984839 290.342466,5.91855428 L290.342466,31.2982667 C290.342466,33.2839654 289.849315,35.6419827 286.273973,36.2004605 L284.732877,36.4486728 L284.732877,37.255363 L317.40411,37.255363 L317.40411,26.2719667 L316.664384,26.2719667 L314.19863,30.6156827 M72.8630137,31.2362136 L72.8630137,0.954307358 L77.5479452,0.954307358 C86.9178082,0.954307358 92.4657534,7.53193453 92.4657534,18.639437 C92.4657534,29.9330988 87.2260274,36.3866198 78.0410959,36.3866198 L76.869863,36.3866198 C73.5410959,36.3866198 72.8630137,34.3388679 72.8630137,31.2362136 M79.1506849,0.0855641471 L46.1712329,0.0855641471 L46.1712329,0.892254272 L47.6506849,1.07841353 C50.9178082,1.57483822 52.890411,2.94000613 52.890411,8.83504934 L53.0753425,26.8304444 L38.7739726,9.76584564 C34.5821918,4.86365181 32.7328767,2.50563452 31.5,0.20967032 L31.3767123,0.0855641471 L18.3082192,0.0855641471 L18.3082192,0.892254272 L18.5547945,0.892254272 C21.2054795,1.38867896 22.869863,2.50563452 25.7671233,5.60828885 L26.3219178,6.22881971 L26.3219178,25.7134889 C26.3219178,34.0286025 23.6712329,35.3937704 20.5273973,36.2004605 L19.4794521,36.4486728 L19.4794521,37.255363 L34.1506849,37.255363 L34.1506849,36.4486728 L33.1027397,36.2004605 C30.3287671,35.4558235 27.4315068,34.6491333 27.369863,25.6514358 L27.1849315,7.22166909 L53.1986301,38 L54,38 L54,7.96630613 C54,3.31232465 56.0342466,0.954307358 60.1643836,0.954307358 C64.1712329,0.954307358 66.2671233,3.31232465 66.2671233,7.96630613 L66.2671233,31.2982667 C66.2671233,33.4701247 65.7739726,35.5799296 62.1369863,36.2004605 L60.6575342,36.4486728 L60.6575342,37.255363 L79.1506849,37.255363 C85.5,37.255363 90.8630137,35.2696642 94.5616438,31.4844259 C97.9732747,28.0236232 99.8611471,23.3285026 99.8013699,18.4532778 C99.8013699,13.4890308 97.9520548,8.89710243 94.5616438,5.60828885 C90.3536141,1.77991292 84.8172223,-0.226420235 79.1506849,0.0235110606 M257.054795,31.2362136 L257.054795,0.954307358 L261.739726,0.954307358 C271.109589,0.954307358 276.657534,7.53193453 276.657534,18.639437 C276.657534,29.9330988 271.417808,36.3866198 262.232877,36.3866198 L261.061644,36.3866198 C257.732877,36.3866198 257.054795,34.3388679 257.054795,31.2362136 M263.342466,0.0855641471 L230.363014,0.0855641471 L230.363014,0.892254272 L231.842466,1.07841353 C235.171233,1.57483822 237.082192,2.94000613 237.143836,8.83504934 L237.267123,26.8304444 L222.965753,9.76584564 C220.255999,6.81098483 217.821145,3.61219829 215.691781,0.20967032 L215.568493,0.0855641471 L202.5,0.0855641471 L202.5,0.892254272 L202.746575,0.892254272 C205.458904,1.38867896 207.123288,2.50563452 209.958904,5.60828885 L210.513699,6.22881971 L210.513699,25.7134889 C210.513699,34.0286025 207.924658,35.3937704 204.780822,36.2004605 L203.671233,36.4486728 L203.671233,37.255363 L218.342466,37.255363 L218.342466,36.4486728 L217.294521,36.2004605 C214.520548,35.4558235 211.623288,34.6491333 211.561644,25.6514358 L211.438356,7.22166909 L237.328767,37.9379469 L237.390411,38 L238.191781,38 L238.191781,7.96630613 C238.191781,3.31232465 240.226027,0.954307358 244.356164,0.954307358 C248.424658,0.954307358 250.520548,3.31232465 250.520548,7.96630613 L250.520548,31.2982667 C250.520548,33.4701247 249.965753,35.5799296 246.328767,36.2004605 L244.849315,36.4486728 L244.849315,37.255363 L263.342466,37.255363 C269.691781,37.255363 275.054795,35.2696642 278.753425,31.4844259 C282.165055,28.0236232 284.052928,23.3285026 283.993151,18.4532778 C283.993151,13.4890308 282.143836,8.89710243 278.815068,5.60828885 C274.591622,1.76447033 269.030007,-0.242973691 263.342466,0.0235110606 M152.753425,0.0855641471 L136.787671,0.0855641471 L136.787671,0.892254272 L138.328767,1.2025197 C141.90411,1.88510366 142.39726,3.93285551 142.39726,5.98060736 L142.39726,31.2982667 C142.39726,33.3460185 141.90411,35.3937704 138.328767,36.1384074 L136.787671,36.4486728 L136.787671,37.255363 L155.280822,37.255363 L155.280822,36.4486728 L154.047945,36.2004605 C149.856164,35.2696642 149.116438,34.4629741 149.116438,30.7397889 L149.116438,0.954307358 L150.657534,0.954307358 C156.328767,0.954307358 159.719178,4.80159872 159.719178,11.3171728 C159.719178,17.7706938 156.328767,21.6179852 150.657534,21.6179852 L150.226027,21.6179852 L150.226027,22.5487815 L152.753425,22.5487815 C161.075342,22.5487815 166.931507,17.8948 166.931507,11.3171728 C166.869863,4.67749255 161.075342,0.0855641471 152.691781,0.0855641471 M129.883562,30.5536296 C127.417808,34.8352926 124.39726,36.3866198 118.787671,36.3866198 L117.184932,36.3866198 C114.10274,36.3866198 112.684932,34.8352926 112.684932,31.4223728 L112.684932,18.5153308 L114.965753,18.5773839 C120.575342,18.7014901 122.116438,18.9497024 123.90411,24.4103741 L124.520548,26.3960728 L125.321918,26.3960728 L125.321918,9.70379255 L124.520548,9.70379255 L123.90411,11.7515444 C122.178082,17.212216 120.513699,17.4604284 114.965753,17.5845345 L112.684932,17.5845345 L112.684932,1.01636044 L116.630137,1.01636044 C123.287671,1.01636044 126.246575,2.38152835 128.465753,6.47703206 L130.993151,11.0689605 L131.732877,11.0689605 L131.732877,0.0855641471 L100.479452,0.0855641471 L100.479452,0.892254272 L102.020548,1.2025197 C105.410959,1.82305057 106.089041,3.4984839 106.089041,5.91855428 L106.089041,31.2982667 C106.089041,33.2839654 105.59589,35.6419827 102.020548,36.2004605 L100.479452,36.4486728 L100.479452,37.255363 L133.150685,37.255363 L133.150685,26.2719667 L132.349315,26.2719667 L129.821918,30.6156827" transform="translate(149 81)"/>
  </g>
</svg>
