<svg xmlns="http://www.w3.org/2000/svg" width="600" height="200" viewBox="0 0 600 200">
  <g fill="none" fill-rule="evenodd">
    <rect width="600" height="200" fill="#FFF"/>
    <g fill-rule="nonzero" transform="translate(93 43)">
      <path fill="#575756" d="M127.731471,23.0701956 L104.235742,23.0701956 L104.235742,44.4280783 L127.362041,44.4280783 L127.362041,50.6881473 L104.235742,50.6881473 L104.235742,78.8952819 L95,78.8952819 L95,16.9574223 L127.805357,16.9574223 L127.805357,23.0701956 L127.731471,23.0701956 Z M201.395752,47.6685846 C201.395752,56.7272727 198.366428,64.3130035 192.307781,70.3521289 C186.027476,76.6858458 177.900023,79.8527043 167.851535,79.8527043 C158.320249,79.8527043 150.414454,76.7594937 143.986377,70.4994246 C137.632187,64.2393556 134.455091,56.6536249 134.455091,47.6685846 C134.455091,39.1254315 137.632187,31.6869965 143.986377,25.4269275 C150.340568,19.1668585 157.95082,16 166.891018,16 C177.382822,16 185.805819,19.0195627 192.233895,25.132336 C198.292542,30.9505178 201.395752,38.4626007 201.395752,47.6685846 Z M190.903948,47.6685846 C190.903948,40.4510932 189.130686,34.6329114 185.510275,30.0667434 C181.298776,24.8377445 175.166243,22.1864212 167.03879,22.1864212 C160.093512,22.1864212 154.552066,24.8377445 150.414454,30.0667434 C146.646271,34.853855 144.725237,40.7456847 144.725237,47.6685846 C144.725237,55.1070196 146.867929,61.2934407 151.153313,66.2278481 C155.438698,71.1622555 160.980143,73.5926352 167.851535,73.5926352 C174.796814,73.5926352 180.412145,71.2359033 184.623644,66.5224396 C188.761256,61.8089758 190.903948,55.4752589 190.903948,47.6685846 L190.903948,47.6685846 Z M254.593627,77.127733 L245.357885,79.8527043 L229.694066,53.1921749 L219.867236,53.1921749 L219.867236,78.8952819 L210.70538,78.8952819 L210.70538,16.9574223 L230.876241,16.9574223 C235.826599,16.9574223 239.890326,18.2094361 243.141307,20.6398159 C246.17063,22.9228999 248.017779,25.8688147 248.682752,29.4775604 C248.90441,30.7295742 249.052182,31.981588 249.052182,33.2336018 C249.052182,36.4741082 248.313323,39.420023 246.835604,42.1449942 C245.357885,44.8699655 243.141307,47.3003452 240.259755,49.3624856 L237.895405,50.9827388 L254.593627,77.127733 L254.593627,77.127733 Z M239.225352,33.0863061 C239.225352,29.7721519 238.190949,27.2681243 236.048257,25.5742232 C233.905565,23.8803222 230.950127,22.9965478 227.108058,22.9965478 L219.867236,22.9965478 L219.867236,47.0794016 L226.221427,47.0794016 C229.98961,47.0794016 233.092819,45.8273878 235.604941,43.3233602 C237.969291,40.8193326 239.225352,37.4315305 239.225352,33.0863061 Z M316.2145,22.260069 L312.298545,27.41542 L308.087047,25.2059839 C306.313784,24.2485616 304.171092,23.5857307 301.65897,23.1438435 C299.146848,22.7019563 296.191411,22.4810127 292.940429,22.4810127 C285.921265,22.4810127 280.158162,25.132336 275.65112,30.3613349 C271.291849,35.443038 269.149157,41.6294591 269.149157,49.0678941 C269.149157,55.6962025 271.439621,61.4407365 276.02055,66.301496 C280.74925,71.3095512 286.586239,73.8135788 293.383745,73.8135788 C296.634726,73.8135788 299.590164,73.5926352 302.250058,73.0771001 C304.909952,72.6352129 307.052644,71.8987342 308.825906,70.9413119 L312.076888,69.2474108 L315.623413,74.4027618 L312.667975,75.7284235 C309.12145,77.4223245 305.796583,78.5270426 302.767259,79.1162255 C299.737936,79.7054085 296.043639,80 291.758254,80 C282.448626,80 274.690603,76.9804373 268.484184,71.0149597 C262.277765,65.0494822 259.174556,57.6110472 259.174556,48.7733026 C259.174556,39.7882624 262.573309,32.1288838 269.296929,25.7951669 C276.02055,19.4614499 284.148003,16.2945915 293.679289,16.2945915 C297.743015,16.2945915 301.215655,16.589183 304.097206,17.1783659 C306.978758,17.7675489 309.934195,18.872267 312.815747,20.3452244 L316.2145,22.260069 L316.2145,22.260069 Z M363.575387,78.8952819 L326.262988,78.8952819 L326.262988,16.9574223 L359.290002,16.9574223 L359.290002,23.0701956 L335.49873,23.0701956 L335.49873,43.2497123 L358.846687,43.2497123 L358.846687,49.5097814 L335.49873,49.5097814 L335.49873,72.6352129 L363.575387,72.6352129 L363.575387,78.8952819 Z M414.778342,65.2704258 C414.261141,69.5420023 412.118448,73.0034522 408.27638,75.8020713 C404.434311,78.6006904 399.927269,80 394.681367,80 C387.218887,80 381.012468,78.4533947 376.209882,75.433832 L374.214962,74.2554661 L378.574232,68.7318757 L382.194643,70.7940161 C383.746248,71.6777906 385.593396,72.4142693 387.736089,73.0034522 C389.878781,73.5926352 391.947587,73.8872267 393.942508,73.8872267 C396.676287,73.8872267 399.040637,73.2243959 401.109444,71.8987342 C403.17825,70.5730725 404.434311,68.7318757 404.80374,66.3751438 C404.877626,66.0069045 404.877626,65.6386651 404.951512,65.2704258 C405.025398,64.9021864 405.025398,64.5339471 405.025398,64.0920598 C405.025398,61.8826237 404.360425,59.8941312 403.030478,58.0529344 C401.922189,56.579977 400.296698,55.0333717 398.227892,53.4867664 C396.0852,51.9401611 394.016393,50.4672037 392.021473,49.0678941 C389.731009,47.5212888 387.514431,45.9010357 385.297853,44.2807825 C382.711845,42.29229 380.864696,40.4510932 379.608635,38.6835443 C378.057031,36.4004603 377.244285,33.8227848 377.244285,31.0241657 C377.244285,26.6789413 379.16532,23.0701956 383.081275,20.1979287 C386.775571,17.4729574 391.282614,16.1472957 396.454629,16.1472957 C399.779497,16.1472957 402.513276,16.3682394 404.729855,16.8837745 C406.946433,17.3993096 409.236897,18.4303797 411.527361,19.976985 L413.891711,21.5235903 L409.015239,26.4579977 L406.724775,24.9850403 C405.17317,24.027618 403.621565,23.3647871 402.069961,22.9228999 C400.518356,22.4810127 398.597322,22.3337169 396.380743,22.3337169 C393.868622,22.3337169 391.652043,23.0701956 389.804895,24.6168009 C387.957746,26.0897583 387.071115,28.004603 387.071115,30.2140391 C387.071115,33.3808976 389.139921,36.4004603 393.35142,39.420023 C395.494112,40.8929804 397.562918,42.3659379 399.705611,43.8388953 C404.360425,47.3003452 406.872547,49.141542 407.168091,49.3624856 C409.754098,51.424626 411.675133,53.4131185 412.783422,55.3279632 C414.261141,57.6846951 415,60.2623705 415,63.2082854 L415,64.5339471 C414.778342,64.8285386 414.778342,65.12313 414.778342,65.2704258 L414.778342,65.2704258 Z"/>
      <path fill="#9D9D9C" d="M110.670128,104.70428 L108.822236,104.70428 L97.2913867,90.5836576 L97.2913867,104.70428 L95,104.70428 L95,86.4435798 L96.7739768,86.4435798 L108.526573,100.785992 L108.526573,86.4435798 L110.744044,86.4435798 L110.744044,104.70428 L110.670128,104.70428 Z M143.193036,104.70428 L132.253513,104.70428 L132.253513,86.4435798 L141.936469,86.4435798 L141.936469,88.2178988 L134.988393,88.2178988 L134.988393,94.1322957 L141.862553,94.1322957 L141.862553,95.9805447 L134.988393,95.9805447 L134.988393,102.782101 L143.193036,102.782101 L143.193036,104.70428 Z M179.337813,88.2918288 L173.128894,88.2918288 L173.128894,104.70428 L170.394013,104.70428 L170.394013,88.2918288 L164.037263,88.2918288 L164.037263,86.4435798 L179.337813,86.4435798 L179.337813,88.2918288 Z M225.904704,86.4435798 L219.843616,104.70428 L217.55223,104.70428 L212.821625,90.2140078 L208.164936,104.70428 L205.725718,104.70428 L199.886378,86.7392996 L202.473427,86.1478599 L207.130116,101.303502 L211.934637,86.3696498 L214.078192,86.3696498 L218.956628,101.229572 L223.761148,86 L225.904704,86.4435798 L225.904704,86.4435798 Z M266.558338,95.463035 C266.558338,98.1245136 265.67135,100.342412 263.897373,102.116732 C262.049481,103.964981 259.684178,104.92607 256.72755,104.92607 C253.918754,104.92607 251.627367,104.038911 249.705559,102.190661 C247.857666,100.342412 246.896762,98.1245136 246.896762,95.463035 C246.896762,92.9494163 247.857666,90.7315175 249.705559,88.8832685 C251.553451,87.0350195 253.770922,86.07393 256.431888,86.07393 C259.536347,86.07393 261.975565,86.9610895 263.897373,88.7354086 C265.67135,90.5836576 266.558338,92.8015564 266.558338,95.463035 L266.558338,95.463035 Z M263.453879,95.463035 C263.453879,93.3190661 262.936469,91.618677 261.901649,90.2879377 C260.645082,88.7354086 258.871106,87.9961089 256.505803,87.9961089 C254.510079,87.9961089 252.883934,88.7354086 251.627367,90.2879377 C250.518632,91.692607 249.927306,93.3929961 249.927306,95.463035 C249.927306,97.6809339 250.518632,99.4552529 251.775199,100.933852 C253.031765,102.412451 254.657911,103.077821 256.653635,103.077821 C258.723274,103.077821 260.34942,102.412451 261.532071,101.007782 C262.862553,99.6770428 263.453879,97.8287938 263.453879,95.463035 Z M301.446549,104.18677 L298.711668,105 L294.128894,97.1634241 L291.246182,97.1634241 L291.246182,104.70428 L288.585217,104.70428 L288.585217,86.4435798 L294.498473,86.4435798 C295.976787,86.4435798 297.159438,86.8132296 298.120342,87.5525292 C299.00733,88.2178988 299.52474,89.1050584 299.746487,90.1400778 C299.820403,90.5097276 299.820403,90.8793774 299.820403,91.2490272 C299.820403,92.2101167 299.598656,93.0972763 299.155162,93.9105058 C298.711668,94.7237354 298.046426,95.3891051 297.233354,96.0544747 L296.568112,96.4980545 L301.446549,104.18677 L301.446549,104.18677 Z M296.937691,91.1750973 C296.937691,90.2140078 296.642028,89.4747082 295.976787,88.9571984 C295.385461,88.4396887 294.498473,88.2178988 293.389737,88.2178988 L291.246182,88.2178988 L291.246182,95.3151751 L293.094075,95.3151751 C294.20281,95.3151751 295.089798,94.9455253 295.828955,94.2062257 C296.568112,93.4669261 296.937691,92.5058366 296.937691,91.1750973 Z M337,103.891051 L334.339035,104.92607 L325.616982,95.2412451 L325.616982,104.70428 L322.808186,104.70428 L322.808186,86.4435798 L325.616982,86.4435798 L325.616982,94.5758755 L334.043372,86.07393 L335.891265,87.1828794 L328.277947,94.6498054 L337,103.891051 L337,103.891051 Z"/>
      <polygon fill="#1A1C39" points="8 45 82 45 82 68 8 68"/>
      <polygon fill="#6398AA" points="0 8 0 37 58 37"/>
      <polygon fill="#D80F16" points="9 8.263 66.686 37 83 37 83 36.854 9 0"/>
      <path fill="#6398AA" d="M83,24.1301084 L83,15 L64.6004515,15 L83,24.1301084 Z M83,87.5954962 L83,104 L50,104 L83,87.5954962 Z"/>
      <polygon fill="#D80F16" points="4 115 20.53 115 83 82.56 83 74 4 114.85"/>
      <polygon fill="#6398AA" points="29 74 29 88 58 74"/>
    </g>
  </g>
</svg>
