<svg xmlns="http://www.w3.org/2000/svg" width="540" height="350" viewBox="0 0 540 350">
  <g fill="none" fill-rule="evenodd">
    <rect width="540" height="350" fill="#283B45"/>
    <g fill-rule="nonzero" transform="translate(165 70)">
      <rect width="113" height="113" x="47" y="47" fill="#FFF" rx="14.308"/>
      <circle cx="49" cy="49" r="49" fill="#46B592"/>
      <circle cx="162" cy="49" r="49" fill="#EE7374"/>
      <circle cx="49" cy="162" r="49" fill="#FDC853"/>
      <circle cx="162" cy="162" r="49" fill="#48B8E0"/>
      <path fill="#8CCCEA" d="M160,128.254996 L160,113 C134.042579,113 113,134.042579 113,160 L128.254996,160 C136.680188,160.019262 144.765878,156.680931 150.723405,150.723405 C156.680931,144.765878 160.019262,136.680188 160,128.254996 Z"/>
      <path fill="#FED785" d="M51,113 L51,128.278638 C51,145.797862 65.2021376,160 82.7213622,160 L98,160 C97.9600735,134.087554 76.9851086,113.08007 51.0727554,113 L51,113 Z"/>
      <path fill="#F39D96" d="M128.278638,47 L113,47 L113,47.777439 C113.040063,75.4968417 134.05923,97.95719 160,98 L160,80.8963415 C160,62.175909 145.797862,47 128.278638,47 Z"/>
      <path fill="#89C9AE" d="M51,80.9483581 L51,98 C63.4778179,98 75.4434382,92.7060136 84.2597129,83.2847951 C93.0759877,73.8635765 98.0192293,61.0884864 98,47.7751638 L98,47 L82.744966,47 C74.3197838,46.9794476 66.2341035,50.5413351 60.2765843,56.8978151 C54.3190652,63.254295 50.9807375,71.8814541 51,80.8708506 L51,80.9483581 Z"/>
    </g>
  </g>
</svg>
