<svg xmlns="http://www.w3.org/2000/svg" width="128" height="128" viewBox="0 0 128 128">
  <g fill="none" fill-rule="evenodd">
    <path fill="#355C7D" d="M127.672852,67.8313558 C127.830109,65.2770078 126.602306,63.3463688 125.508821,61.9998753 C126.51653,60.5981922 127.629299,58.603387 127.320769,56.0696519 C127.010577,53.5266078 125.445652,51.8513039 124.122764,50.7282286 C124.85519,49.1606442 125.583294,46.9899636 124.807647,44.5536416 C124.029673,42.1110026 122.181153,40.7568623 120.673745,39.8974338 C121.103958,38.2234597 121.417475,35.9517091 120.205964,33.7025662 C118.993122,31.4500987 116.930161,30.4613403 115.294421,29.8951481 C115.409122,28.1686442 115.298743,25.8819325 113.692592,23.8857974 C112.089434,21.8999688 109.881849,21.3058494 108.172634,21.048187 C107.969164,19.3316571 107.4432,17.1077818 105.508239,15.4437818 C104.267803,14.376561 102.70321,13.7781195 100.855688,13.6630857 C100.399875,13.6371532 99.9653403,13.6371532 99.5530805,13.6537766 C99.0380883,11.9987532 98.109839,9.90553766 95.8902857,8.62221299 C94.9294545,8.06632727 93.8505974,7.74915325 92.6862961,7.67800519 C91.5964675,7.61117922 90.5974026,7.76710649 89.7166961,7.96625455 C88.9044779,6.43524156 87.6061922,4.54749091 85.1968,3.6987013 C84.5853922,3.48226494 83.9404052,3.3536 83.2794597,3.31237403 C81.6134649,3.21063896 80.1715532,3.68307532 78.9989403,4.19141818 C77.9154286,2.83694545 76.2899948,1.22447792 73.7549299,0.832498701 C73.5481351,0.799251948 73.3410078,0.778638961 73.1318857,0.766005195 C70.8724364,0.626036364 69.0917403,1.56824935 67.7661922,2.46458182 C66.4489558,1.31457662 64.5658597,0.0335792208 62.0148364,0.107719481 C59.4571636,0.184519481 57.6475429,1.58387532 56.4057766,2.79605195 C55.3043117,2.14674286 53.9318857,1.50175584 52.265226,1.39802597 C51.6052779,1.35812987 50.9496519,1.40766753 50.324613,1.54364675 C47.8214649,2.08989091 46.299761,3.80542338 45.3040208,5.22472727 C44.4545662,4.91852468 43.4820987,4.63991688 42.3926026,4.57309091 C41.2263065,4.50061299 40.1168623,4.68347013 39.0902026,5.11833766 C36.7353351,6.1174026 35.5580675,8.08095584 34.8442597,9.65984416 C34.4366545,9.59368312 34.0014545,9.53616623 33.550961,9.51023377 C31.7051013,9.3961974 30.0796675,9.79648831 28.7168831,10.7004675 C26.588426,12.1151169 25.7934961,14.2588675 25.3805714,15.938826 C23.6537351,15.9833766 21.3883013,16.3015481 19.5487584,18.0819117 C17.7142026,19.860613 17.3255481,22.1140779 17.2271377,23.8419117 C15.5348779,24.2006442 13.3648623,24.9290805 11.883387,27.0146494 C10.4019117,29.1012156 10.4351584,31.3892571 10.6552519,33.1061195 C9.05275844,33.7743792 7.05163636,34.8894753 5.98674286,37.2107636 C4.91287273,39.5357091 5.36901818,41.7815273 5.90296104,43.428239 C4.45207273,44.380426 2.69365195,45.8492675 2.07060779,48.3351273 C1.44989091,50.8106805 2.31064935,52.9294961 3.13849351,54.4472104 C1.88808312,55.6487481 0.431875325,57.4144831 0.275283117,59.9671688 C0.117028571,62.5221818 1.34483117,64.4538182 2.43798442,65.8013091 C1.42894545,67.2046545 0.313849351,69.2007896 0.625703896,71.736187 C0.937558442,74.2802286 2.50281558,75.9532052 3.8257039,77.0772779 C3.09228052,78.6435325 2.36417662,80.8145455 3.13915844,83.2468779 C3.91547013,85.6911792 5.76332468,87.0476468 7.27172987,87.9064104 C6.84118442,89.5830442 6.52866494,91.8494753 7.74150649,94.0999481 C8.95301818,96.3520831 11.0153143,97.3435013 12.6523844,97.9070338 C12.5380156,99.6318753 12.6470649,101.917257 14.2462338,103.905081 C15.8493922,105.900883 18.0599688,106.49733 19.773839,106.752997 C19.9753143,108.472852 20.5009455,110.69839 22.436239,112.35973 C23.6773403,113.426951 25.2439273,114.024062 27.0931117,114.139429 C27.5482597,114.168021 27.9821299,114.165361 28.3923948,114.150068 C28.9070545,115.805091 29.8353039,117.899304 32.0515325,119.179304 C33.013361,119.735522 34.0928831,120.054691 35.2591792,120.126171 C36.3480104,120.191003 37.3470753,120.035075 38.2267844,119.836592 C39.04,121.370265 40.3389506,123.258348 42.7526649,124.104478 C43.3620779,124.320582 44.0047377,124.450577 44.6636883,124.49147 C46.3296831,124.594203 47.7729247,124.119439 48.9465351,123.611096 C50.0280519,124.965236 51.6528208,126.575044 54.190213,126.971678 C54.3960104,127.004592 54.6038026,127.0272 54.8125922,127.040831 C57.0717091,127.179803 58.8534026,126.236925 60.1786182,125.339595 C61.3854753,126.392852 63.0375065,127.549174 65.2976208,127.686483 C65.5047481,127.700275 65.7132052,127.704769 65.9386182,127.696125 C68.4929662,127.616 70.3009247,126.216312 71.5410286,125.0048 C72.642826,125.655771 74.0152519,126.302753 75.6825766,126.404821 C76.3401974,126.446047 76.9938286,126.396842 77.6182026,126.259865 C80.1223481,125.715616 81.6457143,123.999418 82.641787,122.579449 C83.4909091,122.885652 84.4630442,123.16426 85.5512104,123.230753 C86.7168416,123.302899 87.8266182,123.120042 88.8492883,122.684509 C91.207813,121.687771 92.3864104,119.724551 93.1008831,118.145662 C93.5084883,118.210826 93.9383688,118.266681 94.3951792,118.295605 C96.2427013,118.408977 97.8707948,118.008353 99.2302545,117.101714 C101.357382,115.688395 102.151979,113.545642 102.566234,111.863356 C104.29573,111.82213 106.560499,111.502961 108.390732,109.728914 C110.23227,107.948883 110.623252,105.691096 110.720997,103.962597 C112.413257,103.602203 114.579948,102.874764 116.061423,100.791855 C117.543231,98.7046234 117.510649,96.4139221 117.290223,94.6987221 C118.892384,94.0321247 120.892177,92.9160312 121.964717,90.5880935 C123.034265,88.2641455 122.579117,86.0203221 122.044177,84.3742753 C123.49573,83.4220883 125.254483,81.950587 125.8752,79.4653922 C126.494587,76.9895065 125.633496,74.8713558 124.806317,73.3576312 C126.057392,72.1531013 127.514597,70.3863688 127.672852,67.8313558 Z"/>
    <path fill="#AE3640" d="M122.171512,67.4939013 C122.062462,69.2536519 118.717174,70.6536727 118.453195,72.3645506 C118.184894,74.1050182 120.948696,76.4469195 120.530119,78.1285403 C120.103231,79.8337662 116.558795,80.5984416 115.981964,82.2328519 C115.40214,83.8895377 117.684862,86.7045403 116.958088,88.2827636 C116.224665,89.8779429 112.599106,89.9653818 111.728374,91.4731221 C110.848665,92.9901714 112.576831,96.1808623 111.567792,97.6004987 C110.555096,99.0264519 106.97841,98.4472935 105.841039,99.7728416 C104.703668,101.100384 105.817101,104.551397 104.562036,105.763574 C103.306639,106.980405 99.8945247,105.759252 98.5327377,106.85307 C97.1729455,107.949881 97.6377351,111.542192 96.1795325,112.511335 C94.7279792,113.478483 91.5964675,111.652571 90.0524883,112.48241 C88.5181506,113.30826 88.3153455,116.928831 86.702213,117.609725 C85.0990545,118.287958 82.3578597,115.920457 80.686213,116.4544 C79.0305247,116.983023 78.1614545,120.501527 76.4472519,120.873226 C74.7503377,121.246587 72.4962078,118.407647 70.7470961,118.625081 C69.0272416,118.837195 67.5258182,122.130618 65.7647377,122.187714 C64.0325818,122.237008 62.3366649,119.036675 60.5765818,118.927958 C58.8141714,118.817912 56.7365818,121.785849 55.0260364,121.524197 C53.2849039,121.250909 52.1990649,117.797901 50.518774,117.375668 C48.814213,116.944457 46.2226286,119.484177 44.5842286,118.905018 C42.9282078,118.326192 42.5006545,114.727896 40.9220987,113.998462 C39.3279169,113.266369 36.3144312,115.275803 34.8073558,114.4064 C33.290639,113.531678 33.5376623,109.912769 32.1150338,108.904062 C30.6870857,107.893361 27.3547636,109.320644 26.0305455,108.181278 C24.7026701,107.040914 25.6073143,103.531719 24.3914805,102.277652 C23.1746494,101.022255 19.6381922,101.816187 18.5430442,100.454068 C17.4475636,99.0936104 18.9775792,95.8088312 18.0094338,94.3506286 C17.0449455,92.8957506 13.4227117,93.0287377 12.5932052,91.4884156 C11.7673558,89.9540779 13.8708779,87.0027636 13.188987,85.3896312 C12.5080935,83.7848104 8.92276364,83.2525299 8.39281039,81.5812156 C7.86485195,79.9228675 10.4773818,77.4120727 10.1033558,75.6965403 C9.73265455,74.0016208 6.30956883,72.8080623 6.09512727,71.0626078 C5.88334545,69.3427532 8.91711169,67.3592519 8.86424935,65.5985039 C8.81271688,63.8676779 5.66657662,62.0676987 5.77496104,60.3049558 C5.88401039,58.5458701 9.22796883,57.1485091 9.49194805,55.4359688 C9.75958442,53.6971636 6.99478442,51.3542649 7.41535584,49.6719792 C7.84290909,47.9667532 11.387013,47.2040727 11.9638442,45.5693299 C12.5456623,43.9113143 10.2609455,41.0976416 10.9890494,39.521413 C11.7214753,37.9268987 15.345039,37.8358026 16.2180987,36.3290597 C17.0931532,34.8093506 15.3689766,31.6236468 16.3766857,30.2013506 C17.3897143,28.7760623 20.9673974,29.353226 22.1037714,28.0296727 C23.2434701,26.6998026 22.1313662,23.2517818 23.3847688,22.036613 C24.6404987,20.8217766 28.052613,22.0409351 29.4124052,20.9441247 C30.7735273,19.8503065 30.3094026,16.2569974 31.7662753,15.2895169 C33.2201558,14.3243636 36.3516675,16.1496104 37.8919896,15.3201039 C39.4283221,14.494587 39.6291325,10.8736831 41.2406026,10.1914597 C42.8440935,9.51156364 45.5869506,11.8820571 47.2592623,11.3481143 C48.9159481,10.818826 49.7850182,7.30131948 51.4988883,6.92662857 C53.1964675,6.5526026 55.4539221,9.39187532 57.1957195,9.17676883 C58.9182338,8.96531948 60.4203221,5.66724156 62.1810701,5.61381723 C63.9112312,5.56517403 65.6088104,8.76317922 67.3718857,8.87023377 C69.1313039,8.97961558 71.2075636,6.01533506 72.9201039,6.27731948 C74.6612364,6.54695065 75.7464104,10.0042805 77.4273662,10.424187 C79.1362494,10.8534026 81.7225143,8.31468052 83.3599169,8.8945039 C85.0166026,9.47532468 85.4461506,13.0739532 87.0223792,13.8040519 C88.616561,14.5381403 91.6280519,12.5227221 93.1374545,13.3944519 C94.6555013,14.2701714 94.4081455,17.8890805 95.8304416,18.8961247 C97.2610494,19.9108156 100.592706,18.4835325 101.914265,19.6215688 C103.242473,20.7609351 102.340156,24.2688 103.555325,25.5212052 C104.770826,26.7779325 108.307283,25.9859948 109.402764,27.3471169 C110.499574,28.7069091 108.969558,31.9916883 109.935377,33.4522182 C110.902525,34.9047688 114.524426,34.7737766 115.35227,36.3117714 C116.178119,37.8471065 114.071605,40.7970909 114.757153,42.4122182 C115.436052,44.0147117 119.022712,44.5499844 119.555657,46.223626 C120.082951,47.8773195 117.470421,50.3881143 117.842452,52.1069714 C118.213153,53.801226 121.636904,54.9921247 121.850016,56.7372468 C122.05947,58.4577662 119.028364,60.4432623 119.080561,62.2020156 C119.131429,63.9345039 122.281226,65.7314909 122.171512,67.4939013 Z"/>
    <g transform="translate(5.652 5.32)">
      <path d="M113.428613,56.8835325 C113.376416,55.1244468 116.407522,53.1389506 116.198068,51.4187636 C115.984623,49.6736416 112.560873,48.4827429 112.190504,46.7884883 C111.818473,45.0699636 114.431003,42.5591688 113.903709,40.9054753 C113.371096,39.2318338 109.784104,38.696561 109.105205,37.0940675 C108.419657,35.4786078 110.526171,32.5286234 109.700322,30.9936208 C108.872478,29.4552935 105.250577,29.5866182 104.283429,28.1340675 C103.31761,26.6738701 104.847626,23.3887584 103.750816,22.0289662 C102.655335,20.6678442 99.1188779,21.4597818 97.9033766,20.2030545 C96.6882078,18.9506494 97.5905247,15.4431169 96.2623169,14.3034182 C94.9407584,13.1650494 91.6091013,14.5926649 90.1784935,13.577974 C88.7561974,12.5709299 89.0038857,8.95235325 87.4855065,8.0763013 C85.9761039,7.20457143 82.964613,9.21998961 81.3704312,8.4859013 C79.7938701,7.75613506 79.3646545,4.15717403 77.7079688,3.57635325 C76.0708987,2.99652987 73.4843013,5.53525195 71.7754182,5.10603636 C70.0944623,4.68612987 69.0092883,1.2288 67.2681558,0.959168831 C65.5552831,0.697184416 63.4793558,3.6617974 61.7199377,3.55208312 C59.9568623,3.4446961 58.2592831,0.246690909 56.5291221,0.295658996 C54.768374,0.349090909 53.2662857,3.64716883 51.5437714,3.85861818 C49.801974,4.07372468 47.5445195,1.23445195 45.8469403,1.60847792 C44.1330701,1.98316883 43.264,5.50067532 41.6073143,6.02996364 C39.9350026,6.56390649 37.1921455,4.19341299 35.5886545,4.87330909 C33.9771844,5.55553247 33.776374,9.1761039 32.2400416,10.0019532 C30.7000519,10.8314597 27.5682078,9.00621299 26.1143273,9.97136623 C24.6574545,10.9388468 25.1215792,14.5318234 23.7604571,15.625974 C22.4006649,16.7227844 18.9885506,15.503626 17.7328208,16.7184623 C16.4797506,17.9339636 17.5915221,21.3816519 16.4518234,22.7115221 C15.3154494,24.0347429 11.7374338,23.4579117 10.7247377,24.8828675 C9.7166961,26.3051636 11.4412052,29.4908675 10.5661506,31.0105766 C9.69309091,32.516987 6.06952727,32.6084156 5.3371013,34.2029299 C4.6089974,35.7791584 6.89371429,38.5928312 6.3118961,40.2508468 C5.73506494,41.8855896 2.19096104,42.6482701 1.76340779,44.3534961 C1.34283636,46.0354494 4.1073039,48.3783481 3.84,50.1174857 C3.57602078,51.830026 0.23172987,53.227387 0.123012987,54.9864727 C0.0146285714,56.7492156 3.16076883,58.5491948 3.2123013,60.2800208 C3.26516364,62.0407688 0.23172987,64.0242701 0.443179221,65.7441247 C0.657620779,67.4895792 4.08070649,68.6831377 4.45140779,70.3780571 C4.8251013,72.0932571 2.21257143,74.6040519 2.74086234,76.2627325 C3.27081558,77.9340468 6.85614545,78.4663273 7.53703896,80.0711481 C7.62747013,80.2852571 7.6667013,80.5243013 7.67235325,80.7793039 L38.6932364,82.6943169 L76.3581506,85.0189299 L105.853673,86.840187 C105.890909,86.5878442 105.959397,86.3557818 106.076426,86.1543065 C106.947491,84.6465662 110.573049,84.5591273 111.30614,82.9639481 C112.032914,81.3857247 109.750192,78.5703896 110.330016,76.9140364 C110.906847,75.2792935 114.451616,74.5149506 114.878171,72.8097247 C115.296748,71.1281039 112.532945,68.7862026 112.801247,67.0457351 C113.064894,65.3348571 116.410514,63.9348364 116.519564,62.1750857 C116.629278,60.4120104 113.479481,58.6150234 113.428613,56.8835325 Z"/>
      <path fill="#1A1363" fill-rule="nonzero" d="M7.67235325,80.778639 C7.70958961,82.4436364 6.22512208,84.8387325 6.94125714,86.1692675 C7.77076364,87.7095896 11.3929974,87.5766026 12.3574857,89.0314805 C13.3256312,90.4896831 11.7956156,93.7744623 12.8910961,95.1349195 C13.9862442,96.497039 17.5227013,95.7031065 18.7395325,96.9585039 C19.9556987,98.2125714 19.0507221,101.721766 20.3785974,102.86213 C21.7028156,104.001829 25.0354701,102.574545 26.4630857,103.584914 C27.8857143,104.593621 27.6386909,108.21253 29.1554078,109.087252 C30.6624831,109.956655 33.6759688,107.947221 35.2701506,108.679314 C35.9965922,109.014774 36.4790026,109.958317 36.9497766,110.935106 L38.6929039,82.6933195 L7.67235325,80.778639 Z"/>
      <path fill="#FAF9DA" fill-rule="nonzero" d="M38.6932364,82.6936519 L36.9501091,110.935439 C37.5023377,112.081455 38.0386078,113.273683 38.932613,113.586203 C40.5713455,114.165361 43.1629299,111.625974 44.8671584,112.056852 C46.5474494,112.479086 47.6332883,115.932094 49.3744208,116.205382 C51.0849662,116.466701 53.1625558,113.499096 54.9249662,113.609143 C56.6850494,113.71786 58.3809662,116.918192 60.1131221,116.868322 C61.8742026,116.811803 63.375626,113.518379 65.0954805,113.306265 C66.8445922,113.088831 69.0987221,115.927439 70.7956364,115.55441 C72.4044468,115.205319 73.2688623,112.085444 74.7380364,111.265912 L76.3584831,85.0185974 L38.6932364,82.6936519 Z"/>
      <path fill="#CC4039" fill-rule="nonzero" d="M74.7380364,111.265912 C74.8341195,111.212384 74.9328623,111.167834 75.0345974,111.135584 C76.7062442,110.601642 79.4471065,112.969143 81.0505974,112.290909 C82.6637299,111.610016 82.8665351,107.989777 84.4008727,107.163595 C85.9448519,106.333756 89.0763636,108.16 90.5279169,107.192519 C91.9861195,106.223709 91.5216623,102.631065 92.8811221,101.534255 C94.2429091,100.440436 97.6550234,101.66159 98.9104208,100.444758 C100.165486,99.2322494 99.0517195,95.7815688 100.189423,94.454026 C101.326462,93.1281455 104.903481,93.7076364 105.916177,92.2816831 C106.791564,91.0505558 105.609974,88.488561 105.854338,86.8398545 L76.3588156,85.0185974 L74.7380364,111.265912 Z"/>
    </g>
    <path fill="#F9F9DB" d="M66.9303688 25.3343584L67.9247792 25.3968623 67.5587325 31.3324052 66.5639896 31.2715636C66.237174 31.2512831 65.986826 30.9680208 66.006774 30.6418701L66.3000104 25.891574C66.3202909 25.5654234 66.6048831 25.3144104 66.9303688 25.3343584zM88.3974649 26.6761974L89.4301091 26.7400312C89.7562597 26.7603117 90.0072727 27.043574 89.9873247 27.3697247L89.6940883 32.1200208C89.6731429 32.445839 89.3898805 32.6975169 89.0633974 32.6752416L88.0300883 32.6114078 88.3974649 26.6761974zM69.7726338 42.4371532L85.9302234 43.4345558C88.3020468 43.5808416 90.1239688 45.6414753 89.9770182 48.0132987L89.7103792 52.3264 64.9269195 50.7970494 65.1935584 46.4839481C65.3395117 44.1117922 67.4004779 42.2888727 69.7726338 42.4371532z"/>
    <path fill="#355C7D" d="M71.3671481 18.2012675C71.3847688 17.9502545 71.4279896 17.7009039 71.5004675 17.4498909 72.0500364 15.5524987 74.0325403 14.4613403 75.9289351 15.0119065 76.1463688 15.0737455 76.3544935 15.1565299 76.5496519 15.2559377L75.2094753 13.430026 76.6018494 12.8265974 77.0603221 15.124613C78.2176416 13.6002494 80.2347221 12.866161 82.1823169 13.4303584 84.6232935 14.1378494 86.0642078 16.6273662 85.5020052 19.0736623 80.7892779 18.7840831 76.0785455 18.4928416 71.3671481 18.2012675zM69.4810597 42.4185351L86.2211325 43.4528416C87.9044156 43.5559065 89.2888104 44.6919481 89.7964883 46.2036779L65.5958442 44.7105662C66.2843844 43.2726442 67.7991065 42.3138078 69.4810597 42.4185351L69.4810597 42.4185351zM89.9853299 47.8646857L65.2025351 46.3336727 65.0589091 48.6542961 89.8420364 50.1836468 89.9853299 47.8646857z"/>
    <path fill="#AE3640" d="M73.6415584,41.6698182 L81.1842494,42.1369351 C81.3328623,42.1452468 81.4465662,42.2732468 81.4359273,42.4215273 L81.3425039,43.9415688 C81.2829922,44.9270026 80.4278857,45.6823688 79.4434494,45.6208623 L74.9408416,45.3432519 C73.9557403,45.2824104 73.200374,44.4269714 73.2618805,43.4435325 L73.3559688,41.9224935 C73.3642805,41.774213 73.4932779,41.6615065 73.6415584,41.6698182 Z"/>
    <path fill="#AE3640" d="M74.0345351,39.0675948 L80.8843636,39.4918234 L80.7467221,41.7236779 C80.6709195,42.9504831 79.6046961,43.8930286 78.377226,43.8168935 L75.9901091,43.6706078 C74.762639,43.5944727 73.820426,42.5292468 73.8962286,41.3004468 L74.0345351,39.0675948 Z"/>
    <path fill="#F9F9DB" d="M70.2786494,21.0249143 L86.7361247,22.0402701 C87.1477195,22.0665351 87.4635636,22.4226078 87.4376312,22.8358649 L86.6064623,36.2998026 C86.4139636,39.4053818 83.7176519,41.7875117 80.6140675,41.5956779 L74.2875429,41.205361 C70.9216416,40.9992312 68.3377039,38.0751792 68.5464935,34.7089455 L69.3394286,21.8544208 C69.3700156,21.3683532 69.7919169,20.9943273 70.2786494,21.0249143 Z"/>
    <path fill="#355C7D" d="M82.2847169 27.4455273C83.0071688 27.4910753 83.5574026 28.1107948 83.5128519 28.8339117 83.4683013 29.5570286 82.8462545 30.1075948 82.1234701 30.0610494 81.4006857 30.0161662 80.8507844 29.3957818 80.8953351 28.6726649 80.9398857 27.9495481 81.5619325 27.3989818 82.2847169 27.4455273zM83.4782753 30.9563844C83.8080831 30.9773299 84.0577662 31.2612571 84.0378182 31.5890701 84.0175377 31.9185455 83.7339429 32.1702234 83.4044675 32.1492779 83.0746597 32.1283325 82.8249766 31.8470649 82.8442597 31.5172571 82.8638753 31.1867844 83.1481351 30.9364364 83.4782753 30.9563844zM74.3497143 27.0711688C73.6265974 27.0272831 73.0052156 27.5751896 72.9606649 28.2983065 72.9151169 29.0214234 73.4656831 29.6434701 74.1884675 29.6883532 74.9115844 29.732239 75.5323013 29.1823377 75.5778494 28.4592208 75.6220675 27.7380987 75.0724987 27.1160519 74.3497143 27.0711688zM72.7339221 30.4084779C72.4044468 30.3905247 72.1208519 30.6392104 72.100239 30.9686857 72.0799584 31.298161 72.3309714 31.5807584 72.6607792 31.6017039 72.9895896 31.6223169 73.2725195 31.3726338 73.2931325 31.0431584 73.313413 30.7133506 73.0627325 30.4290909 72.7339221 30.4084779zM87.075574 20.4015377C87.1849558 20.7363325 87.234826 21.0980571 87.2112208 21.4717506 87.1134753 23.0559584 85.7520208 24.2601558 84.167813 24.1620779 83.317361 24.1088831 82.5776208 23.6919688 82.088561 23.0715844 81.4345974 24.0457143 80.2975584 24.6567896 79.0424935 24.5803221 78.2927792 24.5324468 77.6145455 24.2485195 77.0779429 23.8023481 76.2550857 24.913787 74.9046026 25.5990026 73.4224623 25.5072416 71.0945247 25.3632831 69.3251325 23.3598338 69.468426 21.0328935 69.5063273 20.4224831 69.6712312 19.8509714 69.9372052 19.3432935L87.075574 20.4015377z"/>
    <path fill="#AE3640" d="M78.5584208 46.0015377L77.8761974 46.5487792C77.7199377 46.6747844 77.7136208 46.8918857 77.8196779 47.0624416L79.4733714 49.6939221C79.579761 49.8628156 79.8291117 49.8757818 79.9853714 49.7487792L81.2703584 48.7194597C81.4266182 48.5934545 81.4718338 48.3437714 81.3265455 48.2057974L79.0717506 46.0567273C78.9261299 45.9187532 78.7143481 45.8758649 78.5584208 46.0015377zM76.257413 45.8582442L76.866826 46.4866078C77.0071273 46.6299013 76.9865143 46.8463377 76.8598442 47.0019325L74.8959584 49.4106597C74.7686234 49.5659221 74.5192727 49.5476364 74.3796364 49.4053403L73.231626 48.2234182C73.0919896 48.0781299 73.0786909 47.8261195 73.2396052 47.7074286L75.7417558 45.8515948C75.9023377 45.7312416 76.1171117 45.7156156 76.257413 45.8582442z"/>
    <path fill="#AE3640" d="M77.5098182,42.8364468 C78.7000519,42.9102545 79.605361,43.9352519 79.5318857,45.1238234 C79.4587429,46.315387 78.4337455,47.2210286 77.2435117,47.1462234 C76.0532779,47.0740779 75.1483013,46.049413 75.2217766,44.8578494 C75.294587,43.6689455 76.3195844,42.7623065 77.5098182,42.8364468 Z"/>
    <path fill="#355C7D" d="M80.8850286,36.2828468 C80.9049766,35.9370805 81.2035325,35.6747636 81.5489662,35.6967065 C81.8947325,35.7176519 82.1577143,36.0158753 82.1367688,36.3616416 C82.1005299,36.9604156 81.8212571,37.4903688 81.4016831,37.8604052 C80.9841039,38.2291117 80.4232312,38.4418909 79.8251221,38.4033247 L75.7108364,38.1496519 C75.1130597,38.1144104 74.5837714,37.8344727 74.2134026,37.4168935 L74.2110753,37.4145662 C73.841039,36.9959896 73.6302545,36.4347844 73.6671584,35.8386701 C73.6887688,35.492239 73.9866597,35.230587 74.332426,35.2515325 C74.6781922,35.2724779 74.941174,35.569039 74.9198961,35.9144727 C74.9046026,36.1694753 74.9937039,36.4071896 75.1496312,36.5840623 L75.1519584,36.5870545 C75.3095481,36.7642597 75.5339636,36.8822857 75.7876364,36.8975792 L79.9019221,37.1512519 C80.1559273,37.1658805 80.3933091,37.0767792 80.5718442,36.9208519 C80.7500468,36.7616 80.8687377,36.5375169 80.8850286,36.2828468 Z"/>
    <path fill="#F9F9DB" d="M28.0203636,81.0752 C30.1248831,78.2099948 32.1037299,75.3803636 33.9246545,72.4682805 L32.9970701,70.6141091 C32.8404779,70.2989299 33.3438338,70.0046961 33.7168623,70.0296312 L35.3426286,70.1280416 C36.8377351,67.5723636 38.2088312,64.9282494 39.428987,62.126213 L38.947574,60.3172571 C38.8661195,60.0090597 39.1640104,59.7008623 39.3791169,59.714826 L40.4021195,59.7786597 C43.5741922,51.7026909 45.5417351,42.2090805 45.8067117,29.6404779 L44.9137039,29.5859532 C44.4841558,29.5590234 44.1540156,29.1853299 44.180613,28.7544519 L44.2976416,26.8504104 C44.3252364,26.4215273 44.6976,26.0907221 45.127813,26.1176519 L45.8861714,26.1641974 C45.8692156,26.1126649 45.8612364,26.0574753 45.865226,26.0006234 L45.9310545,24.9201039 C45.947013,24.6750753 46.1584623,24.4888935 46.402161,24.5045195 L47.2805403,24.5580468 C47.6751792,22.8471688 48.3055377,20.9946597 48.3424416,18.9087584 C48.8886857,18.9293714 48.1270026,18.872187 48.6745766,18.8941299 C48.5665247,21.0548364 48.9797818,22.9658597 49.1320519,24.6714182 L49.7860156,24.7119792 C50.0297143,24.7272727 50.216561,24.9403844 50.2016,25.1827532 L50.1351065,26.2656 C50.1317818,26.3224519 50.1174857,26.3766442 50.0952104,26.4238545 L51.0846338,26.485361 C51.5151792,26.5122909 51.8443221,26.8843221 51.8177247,27.3152 L51.7016935,29.2192416 C51.6737662,29.6491221 51.3010701,29.9789299 50.8705247,29.9526649 L49.8591584,29.890826 C49.2115117,43.126026 49.265039,52.0271792 51.0254545,60.4332883 L52.1767896,60.5057662 C52.3287273,60.5147429 52.4979532,60.7424831 52.4264727,60.9649039 L51.7758338,62.9979429 L51.6159169,62.9876364 C52.3111065,65.7248416 53.1997922,68.4514078 54.3192104,71.2996571 L55.956613,71.4010597 C56.2209247,71.4173506 56.5238026,71.6527377 56.4104312,71.874161 L55.3781195,73.8759481 C56.6032623,76.7315117 58.0564779,79.7423377 59.771013,83.035761 L55.0592831,82.7451844 C53.3693506,79.1335896 51.7641974,76.0832 44.6221299,75.3959896 C38.1114182,75.2008312 34.8103481,78.8110961 33.8801039,81.4355948 L28.0203636,81.0752 L28.0203636,81.0752 Z M43.5489247,63.8065039 L41.5813818,69.9328831 L48.5189818,70.3680831 L47.5711169,64.0438857 L43.5489247,63.8065039 L43.5489247,63.8065039 Z M45.9722805,52.930826 L44.6327688,58.4717299 L47.4544208,58.6512623 L46.7010494,52.9660675 L45.9722805,52.930826 Z"/>
    <path fill="#F9F9DB" d="M21.1911481,50.8432623 L28.7431481,51.3093818 C31.3732987,51.4702961 33.2381091,52.3034597 34.3405714,53.8022234 C35.4420364,55.3036468 35.9074909,57.4334338 35.7376,60.1882597 C35.5849974,62.6678026 34.8263065,64.5558857 33.464187,65.8551688 C32.1014026,67.1544519 30.2056727,67.7286234 27.7756675,67.5780156 L24.4320416,67.3722182 L23.5586494,81.5356675 L19.313039,81.2740156 L21.1911481,50.8432623 L21.1911481,50.8432623 Z M26.5744623,64.4504935 C27.8268675,64.5266286 28.804987,64.4488312 29.5114805,64.2157714 C30.217974,63.9827117 30.7416104,63.5368727 31.0837195,62.8792519 C31.4258286,62.2222961 31.6369455,61.2538182 31.7154078,59.9781403 C31.8121558,58.4245195 31.7689351,57.277174 31.5880727,56.5371013 C31.4078753,55.7983584 30.9946182,55.2577662 30.3492987,54.9149922 C29.7039792,54.5732156 28.6680104,54.358774 27.2400623,54.2713351 L25.2492468,54.1469922 L24.6205506,64.3291429 L26.5744623,64.4504935 L26.5744623,64.4504935 Z M65.0356364,53.5485506 L71.1606857,53.9265662 C74.2406649,54.1170701 76.4618805,54.8883948 77.824,56.2422026 C79.1877818,57.5963429 79.7805714,59.7008623 79.6033662,62.5560935 C79.3616623,66.4632519 77.962639,68.7529558 75.406961,69.4255377 L78.7864935,84.945787 L74.6914909,84.6927792 L71.5908987,70.1712623 L68.2845091,69.9657974 L67.4024727,84.2436156 L63.1568623,83.9809662 L65.0356364,53.5485506 L65.0356364,53.5485506 Z M70.0871481,67.0234597 C71.9160519,67.1361662 73.2472519,66.8535688 74.0810805,66.1769974 C74.9145766,65.4977662 75.3906701,64.2064623 75.5076987,62.3050805 C75.5854961,61.0506805 75.5090286,60.0599273 75.2769662,59.3288312 C75.0452364,58.5980675 74.5890909,58.0418494 73.9078649,57.6595117 C73.2279688,57.2791688 72.2488519,57.0497662 70.9711792,56.9709714 L69.0927377,56.8549403 L68.4706909,66.9240519 L70.0871481,67.0234597 L70.0871481,67.0234597 Z M84.7606026,54.7660468 L88.9307429,55.0233766 L87.0513039,85.4561247 L82.8818286,85.1991273 L84.7606026,54.7660468 L84.7606026,54.7660468 Z M99.1288519,86.5406338 C96.5741714,86.3823792 94.6747844,85.4740779 93.4323532,83.8137351 C92.1899221,82.1513974 91.5778494,79.9401558 91.5987948,77.174026 L95.4178494,76.3927273 C95.4231688,78.3542857 95.7074286,79.9567792 96.2719584,81.1968831 C96.8361558,82.4396468 97.8568312,83.1055792 99.3356468,83.1976727 C100.437777,83.2648312 101.288561,83.010826 101.891325,82.4300052 C102.492094,81.8521766 102.828218,80.9867636 102.900031,79.8337662 C102.976831,78.582026 102.777683,77.5261091 102.303252,76.667013 C101.827823,75.8082494 101.044862,74.8420987 99.9550338,73.7702234 L95.1242805,68.9444571 C94.1521455,67.9796364 93.4672623,66.9636156 93.0676364,65.8957299 C92.6680104,64.8288416 92.5150753,63.5421922 92.6081662,62.0384416 C92.7458078,59.8112416 93.4912,58.121974 94.8446753,56.9729662 C96.1974857,55.8256208 97.9771844,55.3179429 100.180114,55.4539221 C102.584852,55.6035325 104.361558,56.3545766 105.509901,57.7063896 C106.657912,59.0608623 107.275304,61.0852571 107.360083,63.779574 L103.692634,64.5339429 C103.67734,62.7482597 103.417351,61.3568831 102.914327,60.3568208 C102.408977,59.3580883 101.431522,58.8135065 99.9789714,58.7237403 C98.9017766,58.6572468 98.057974,58.8873143 97.4472312,59.4156052 C96.8358234,59.9448935 96.497039,60.7584416 96.4278857,61.8609039 C96.3726961,62.7635532 96.475761,63.5302234 96.7387429,64.1622442 C97.0010597,64.7936 97.4768208,65.4455688 98.1643636,66.1164883 L103.033018,70.9429195 C104.288083,72.2013091 105.268197,73.5448104 105.972031,74.9710961 C106.6752,76.3983792 106.973091,77.9862442 106.866036,79.7400104 C106.727065,81.9695377 105.942442,83.6940468 104.509506,84.9125403 C103.076571,86.1316987 101.282909,86.6736208 99.1288519,86.5406338 Z"/>
  </g>
</svg>
