<svg xmlns="http://www.w3.org/2000/svg" width="128" height="188" viewBox="0 0 128 188">
  <g fill="none" fill-rule="evenodd">
    <polygon fill="#355C7D" points="10.381 6.025 117.747 6.025 117.747 179.918 10.381 179.918" transform="rotate(173.149 64.064 92.971)"/>
    <polygon fill="#C5D9D0" points="14.344 10.533 113.784 10.533 113.784 175.411 14.344 175.411" transform="rotate(173.149 64.064 92.972)"/>
    <polygon fill="#AE3640" points="44.611 33.433 96.971 33.433 96.971 43.093 44.611 43.093" transform="rotate(173.149 70.791 38.263)"/>
    <path fill="#CC4139" d="M41.3396,30.3648 C49.7472,23.6376 57.5784,18.9144 68.33,17.7064 C82.2624,16.142 90.1844,19.0312 97.832,23.5788 L98.6792,30.632 L42.1868,37.418 L41.3396,30.3648 Z"/>
    <path fill="#AE3640" d="M45.0012,30.0836 C52.5056,25.2836 59.4572,21.8692 68.8808,20.7944 C81.0928,19.4012 87.948,21.1972 94.528,24.1344 L95.106,28.9452 L45.5792,34.8948 L45.0012,30.0836 Z"/>
    <polygon fill="#CC4139" points="51.001 35.762 91.094 35.762 91.094 41.002 51.001 41.002" transform="rotate(173.149 71.048 38.382)"/>
    <path fill="#CC4139" d="M44.946,45.8432 L100.1056,39.2172 C101.2624,39.0784 102.324,39.9116 102.4632,41.0692 L117.0288,162.3216 C117.0912,162.8424 116.7172,163.3208 116.1952,163.3836 L58.8256,170.2752 C58.2476,170.3448 57.7172,169.9264 57.6476,169.3488 L43.0948,48.2012 C42.9552,47.0432 43.7872,45.9824 44.946,45.8432 Z"/>
    <polygon fill="#AE3640" points="59.437 51.139 101.423 51.139 101.423 167.455 59.437 167.455" transform="rotate(173.149 80.43 109.297)"/>
    <path fill="#F0EDCA" d="M85.8864,118.2668 L77.0416,119.3292 L78.6964,133.1044 L87.5412,132.042 L85.8864,118.2668 L85.8864,118.2668 Z M69.542,56.8996 L71.4624,72.8856 L80.3072,71.8232 L78.3868,55.8372 L69.542,56.8996 L69.542,56.8996 Z M79.6528,55.6848 L81.5732,71.6708 L91.1576,70.5196 L89.2372,54.5336 L79.6528,55.6848 L79.6528,55.6848 Z M91.3096,71.7856 L81.7252,72.9368 L83.3276,86.2768 L92.912,85.1256 L91.3096,71.7856 L91.3096,71.7856 Z M93.0644,86.392 L83.48,87.5432 L85.1588,101.5192 L94.7432,100.368 L93.0644,86.392 L93.0644,86.392 Z M94.8952,101.634 L85.3108,102.7852 L87.0004,116.8508 L96.5848,115.6996 L94.8952,101.634 L94.8952,101.634 Z M96.7368,116.9636 L87.1524,118.1148 L88.8072,131.89 L98.3916,130.7388 L96.7368,116.9636 L96.7368,116.9636 Z M98.5436,132.0056 L88.9592,133.1568 L90.2528,143.9248 L99.8372,142.7736 L98.5436,132.0056 L98.5436,132.0056 Z M88.9868,144.0772 L87.6932,133.3092 L78.8484,134.3716 L80.142,145.1396 L88.9868,144.0772 L88.9868,144.0772 Z M78.8756,145.2916 L77.582,134.5236 L68.2276,135.6472 L69.5212,146.4152 L78.8756,145.2916 L78.8756,145.2916 Z M68.0752,134.3804 L77.4296,133.2568 L75.7748,119.4816 L66.4204,120.6052 L68.0752,134.3804 L68.0752,134.3804 Z M66.2688,119.3412 L75.6232,118.2176 L73.9336,104.152 L64.5792,105.2756 L66.2688,119.3412 L66.2688,119.3412 Z M64.4268,104.0096 L73.7812,102.886 L72.1024,88.91 L62.748,90.0336 L64.4268,104.0096 L64.4268,104.0096 Z M62.596,88.7676 L71.9504,87.644 L70.348,74.304 L60.9936,75.4276 L62.596,88.7676 L62.596,88.7676 Z M60.8412,74.1612 L70.1956,73.0376 L68.2752,57.0516 L58.9208,58.1752 L60.8412,74.1612 L60.8412,74.1612 Z M75.048,102.734 L83.8928,101.6716 L82.214,87.6956 L73.3692,88.758 L75.048,102.734 L75.048,102.734 Z M84.0448,102.9376 L75.2,104 L76.8896,118.0656 L85.7344,117.0032 L84.0448,102.9376 L84.0448,102.9376 Z M71.6144,74.1516 L73.2168,87.4916 L82.0616,86.4292 L80.4592,73.0892 L71.6144,74.1516 Z"/>
    <polygon fill="#CC4139" points="70.565 149.739 101.101 149.739 101.101 158.819 70.565 158.819" transform="rotate(173.149 85.833 154.279)"/>
    <path fill="#AE3640" d="M54.5956,173.7992 L120.8652,165.8384 C121.3356,165.782 121.6748,165.3528 121.618,164.8824 L121.4384,163.386 C121.2832,162.0952 120.0988,161.1648 118.8056,161.32 L55.5972,168.9128 C54.3056,169.068 53.3752,170.2528 53.53,171.5436 L53.7184,173.112 C53.7704,173.5408 54.1652,173.8508 54.5956,173.7992 Z"/>
    <path fill="#355C7D" d="M51.3052,174.5988 L32.1456,176.9004 L31.518,171.6744 L46.2024,169.9104 L45.4236,163.426 L49.8988,162.8884 L51.3052,174.5988 L51.3052,174.5988 Z M37.7468,142.2844 C39.1256,142.1188 40.4476,142.2176 41.7084,142.5796 C42.9756,142.9384 44.1412,143.548 45.2096,144.4024 C46.268,145.2656 47.1252,146.2964 47.7904,147.488 C48.4508,148.6836 48.8616,149.956 49.0236,151.3056 C49.188,152.6752 49.092,154.02 48.7324,155.3304 C48.368,156.6448 47.7772,157.8296 46.9504,158.8948 C46.1164,159.9948 45.1244,160.8712 43.9728,161.5304 C42.8228,162.186 41.568,162.5952 40.2056,162.7588 C38.834,162.9236 37.518,162.8232 36.2452,162.4588 C34.9772,162.0904 33.8076,161.4736 32.738,160.6024 C31.6812,159.7636 30.826,158.7524 30.1612,157.5616 C29.5028,156.3736 29.0908,155.0896 28.926,153.72 C28.7628,152.3628 28.8596,151.0184 29.2164,149.698 C29.5796,148.3768 30.1696,147.182 30.9968,146.11 C31.8236,145.0344 32.8124,144.1744 33.9644,143.5152 C35.1152,142.858 36.3752,142.4492 37.7468,142.2844 L37.7468,142.2844 Z M44.6028,151.8464 C44.4288,150.3976 43.7548,149.2652 42.578,148.4452 C41.3964,147.6264 39.996,147.3148 38.3744,147.5096 C36.7696,147.7024 35.4892,148.3408 34.528,149.432 C33.5712,150.5204 33.1768,151.7768 33.3476,153.1988 C33.5212,154.6452 34.2024,155.7772 35.3832,156.596 C36.5648,157.4148 37.9668,157.7256 39.5784,157.532 C41.2164,157.3352 42.5108,156.708 43.4516,155.6484 C44.398,154.5884 44.7796,153.3188 44.6028,151.8464 L44.6028,151.8464 Z M46.8932,137.8692 L27.7336,140.1708 L27.1284,135.132 L36.1116,126.7056 C36.2948,126.5424 36.6744,126.266 37.2428,125.8764 C37.8076,125.4828 38.4888,125.0484 39.2832,124.5636 C38.5004,124.7596 37.8044,124.9208 37.1888,125.044 C36.5736,125.1684 36.0272,125.256 35.55,125.3132 L26.0852,126.45 L25.4836,121.4404 L44.6432,119.1388 L45.2448,124.1484 L36.2232,132.5772 C36.0396,132.7524 35.6612,133.0344 35.096,133.4228 C34.528,133.8172 33.8544,134.2484 33.0768,134.7212 C33.8676,134.5212 34.57,134.3624 35.184,134.2372 C35.7996,134.1144 36.3456,134.0244 36.824,133.9668 L46.2876,132.83 L46.8932,137.8692 L46.8932,137.8692 Z M44.1504,115.038 L24.9908,117.3396 L24.5116,113.3492 C24.154,110.3732 24.0396,108.2532 24.1732,106.9864 C24.3016,105.7156 24.6408,104.5804 25.1804,103.5664 C25.884,102.2508 26.8584,101.1996 28.1,100.4176 C29.3472,99.628 30.8192,99.1344 32.5124,98.9312 C34.2048,98.728 35.7468,98.8596 37.1436,99.3312 C38.5416,99.796 39.7376,100.5868 40.7324,101.6984 C41.4864,102.5468 42.0736,103.5468 42.4916,104.7008 C42.9072,105.8504 43.266,107.6736 43.5656,110.1676 L43.6712,111.048 L44.1504,115.038 L44.1504,115.038 Z M39.2424,110.3824 L39.1372,109.5068 C38.8908,107.4564 38.2908,106.0056 37.3332,105.1644 C36.3812,104.3252 34.9884,104.016 33.1528,104.2364 C31.3216,104.4564 30.0376,105.0872 29.2944,106.13 C28.554,107.1752 28.3048,108.728 28.5512,110.7784 L28.6564,111.654 L39.2424,110.3824 L39.2424,110.3824 Z M29.7824,75.9856 C31.1612,75.82 32.4832,75.9188 33.744,76.2796 C35.0112,76.6392 36.1768,77.2472 37.2452,78.1016 C38.304,78.9664 39.1608,79.996 39.8264,81.19 C40.4864,82.3836 40.8972,83.6572 41.0592,85.0056 C41.224,86.3768 41.1276,87.7204 40.7684,89.0324 C40.404,90.3452 39.8132,91.5304 38.986,92.5948 C38.1524,93.696 37.16,94.572 36.0084,95.2312 C34.8584,95.886 33.6032,96.2944 32.2412,96.4584 C30.8696,96.6232 29.5536,96.5236 28.2808,96.1596 C27.0128,95.7912 25.8432,95.1748 24.7736,94.3024 C23.7168,93.464 22.8616,92.4524 22.1968,91.2636 C21.538,90.074 21.1264,88.7916 20.9616,87.4204 C20.7984,86.0632 20.8952,84.7196 21.252,83.3988 C21.6152,82.078 22.2052,80.8836 23.0324,79.8096 C23.8596,78.7364 24.8484,77.8748 26,77.2148 C27.1512,76.5592 28.4108,76.1504 29.7824,75.9856 L29.7824,75.9856 Z M36.6384,85.546 C36.4644,84.0984 35.7904,82.9656 34.6136,82.1456 C33.4324,81.3272 32.0316,81.0152 30.41,81.21 C28.8052,81.4028 27.5248,82.0416 26.5636,83.1312 C25.6068,84.2196 25.2128,85.4768 25.3832,86.898 C25.5572,88.3448 26.238,89.4764 27.4188,90.2952 C28.6,91.1136 30.0024,91.4256 31.614,91.232 C33.252,91.0352 34.5464,90.4088 35.4872,89.3484 C36.434,88.2888 36.8156,87.02 36.6384,85.546 L36.6384,85.546 Z M38.9288,71.5704 L19.7692,73.872 L19.164,68.834 L28.1472,60.406 C28.3308,60.2432 28.71,59.9668 29.2784,59.5768 C29.8432,59.1828 30.5244,58.748 31.3188,58.2624 C30.5364,58.4612 29.84,58.6216 29.2248,58.7452 C28.6096,58.8688 28.0632,58.9576 27.586,59.0148 L18.1212,60.1516 L17.5192,55.1408 L36.6788,52.8392 L37.2808,57.85 L28.2588,66.2776 C28.0752,66.4532 27.6968,66.7348 27.132,67.1236 C26.564,67.5184 25.8904,67.948 25.1128,68.422 C25.904,68.2228 26.606,68.0612 27.22,67.9376 C27.8356,67.8144 28.382,67.7256 28.8604,67.6684 L38.324,66.5316 L38.9288,71.5704 Z"/>
    <path fill="#CC4139" d="M15.8284 52.6612C15.496 52.9436 14.9964 52.9036 14.714 52.57 14.4304 52.2376 14.472 51.738 14.8056 51.4552 15.2112 51.1076 15.6632 50.772 16.1568 50.452 15.3352 49.8708 14.7528 49.0732 14.4168 48.2296 14.216 47.722 14.1032 47.198 14.0796 46.6916 14.0564 46.1664 14.1304 45.6548 14.3024 45.1924 14.5832 44.4388 15.118 43.8296 15.9156 43.5132 16.3188 43.3528 16.7808 43.2732 17.3068 43.2944 17.358 43.2968 17.4096 43.2992 17.4608 43.304 17.4352 42.6432 17.5188 42.004 17.7148 41.4256 17.972 40.6624 18.4228 39.9992 19.072 39.5192 20.2964 38.6124 22.1832 38.4012 24.7292 39.5068 26.9416 37.8296 28.8244 37.588 30.2296 38.1788 30.974 38.4916 31.5688 39.0292 31.9988 39.71 32.326 40.2256 32.5588 40.8268 32.6904 41.4748 32.7404 41.458 32.7896 41.4432 32.8392 41.4288 33.3436 41.2836 33.814 41.2516 34.242 41.312 35.0908 41.4304 35.7552 41.8956 36.2068 42.5612 36.482 42.9696 36.676 43.4492 36.7772 43.9652 36.876 44.4628 36.8908 44.9984 36.8156 45.5392 36.7044 46.3256 36.402 47.1216 35.8872 47.8172 37.0116 48.1616 38.0092 48.6004 38.8404 49.1212 39.2112 49.3512 39.3248 49.8396 39.0928 50.2104 38.8612 50.5804 38.374 50.694 38.0032 50.4632 36.7348 49.668 34.9888 49.086 32.9444 48.7768 30.944 48.4748 28.6608 48.4388 26.2584 48.7272 24.0684 48.9904 22.0376 49.492 20.2752 50.1612 18.4688 50.8456 16.946 51.7056 15.8284 52.6612L15.8284 52.6612zM18.094 47.4792C17.6764 47.5292 17.3792 47.9076 17.4292 48.3248 17.4792 48.7424 17.858 49.04 18.2756 48.99 18.6928 48.94 18.99 48.5608 18.94 48.1432 18.8896 47.7264 18.5112 47.4292 18.094 47.4792L18.094 47.4792zM22.9216 45.5444C22.504 45.5944 22.2068 45.9732 22.2568 46.3904 22.3068 46.808 22.6856 47.1064 23.1032 47.056 23.52 47.006 23.818 46.6264 23.7676 46.2088 23.7176 45.7916 23.3388 45.4944 22.9216 45.5444L22.9216 45.5444zM27.9432 44.906C27.5256 44.956 27.228 45.3348 27.2784 45.7524 27.3284 46.1696 27.7072 46.4672 28.1248 46.4172 28.5424 46.3672 28.8408 45.988 28.7904 45.5708 28.74 45.1532 28.3604 44.8556 27.9432 44.906L27.9432 44.906zM33.3052 45.3312C32.8892 45.3812 32.59 45.76 32.6404 46.1772 32.6904 46.5948 33.0708 46.892 33.4868 46.842 33.9052 46.7916 34.2028 46.4128 34.1524 45.9956 34.102 45.578 33.7236 45.2808 33.3052 45.3312L33.3052 45.3312zM24.3048 34.6496C23.2572 34.7756 22.5088 35.7264 22.6348 36.7744 22.7608 37.8224 23.7132 38.5696 24.7608 38.444 25.8092 38.318 26.5572 37.3664 26.4312 36.3184 26.3048 35.2704 25.3528 34.5236 24.3048 34.6496L24.3048 34.6496zM25.8452 40.6448L26.6196 47.0916C27.4824 47.0036 28.3308 46.9568 29.158 46.9472 30.7768 45.7204 31.396 43.7876 31.202 42.162 31.1316 41.5616 30.9468 41.0084 30.66 40.5568 30.3964 40.14 30.0456 39.8164 29.6192 39.6368 28.7284 39.2628 27.4564 39.4684 25.8452 40.6448L25.8452 40.6448zM24.8652 47.3224L24.1004 40.9552C22.1556 40.1096 20.8112 40.1976 20.01 40.7912 19.6384 41.0668 19.3736 41.4644 19.2156 41.9316 19.0448 42.438 18.9968 43.0192 19.0704 43.6192 19.2736 45.2892 20.384 47.0724 22.3444 47.8492 23.154 47.6404 23.9964 47.4628 24.8652 47.3224L24.8652 47.3224zM32.8032 43.1272C32.7264 44.4568 32.2548 45.8464 31.3348 47.01 31.9704 47.0544 32.5856 47.1228 33.1816 47.2128 33.5096 47.2624 33.8316 47.3188 34.1484 47.3824 34.7896 46.8164 35.1424 46.0632 35.246 45.3216 35.2976 44.9592 35.2884 44.6012 35.2216 44.2704 35.1612 43.9576 35.0508 43.6764 34.8968 43.448 34.6884 43.1416 34.3928 42.93 34.0228 42.8788 33.8052 42.8476 33.5532 42.8672 33.2696 42.9492 33.1224 42.9904 32.9664 43.05 32.8032 43.1272L32.8032 43.1272zM17.7632 49.5352C18.3744 49.2284 19.0288 48.9416 19.7172 48.6796 19.8916 48.614 20.0716 48.5484 20.2512 48.4848 18.9916 47.5612 18.1508 46.2688 17.7424 44.9364 17.5656 44.9004 17.4 44.8792 17.2456 44.874 16.9524 44.8616 16.7044 44.902 16.4976 44.984 16.1516 45.1212 15.9148 45.3972 15.7848 45.744 15.688 46.0024 15.6484 46.3016 15.6624 46.62 15.6772 46.9568 15.7524 47.3072 15.888 47.6472 16.2016 48.436 16.832 49.1648 17.7632 49.5352zM12.8748 32.1616L13.0928 32.1356 12.834 29.982C12.7792 29.5264 12.9672 29.0948 13.2948 28.818 13.4908 26.8 13.3396 24.844 13.5552 22.8228 13.6388 22.03 14.1896 21.2996 15.1764 21.1812 20.1784 20.5804 25.5816 19.9312 30.5844 19.3304 33.1696 19.02 33.448 18.7672 33.8336 21.9772L33.9308 22.7852 34.0072 23.4208 34.326 26.076 34.3332 26.0752 34.7488 29.534 34.7656 29.532C34.8448 29.5224 34.916 29.5792 34.9256 29.6576L35.04 30.6088C35.0496 30.6876 34.994 30.7592 34.9144 30.7688L31.324 31.2C31.3252 31.1076 31.32 31.0144 31.3088 30.9204 31.168 29.7488 30.1056 28.9136 28.934 29.0544 27.7628 29.1952 26.9268 30.2584 27.0676 31.43 27.0788 31.524 27.0972 31.6156 27.12 31.7052L20.1916 32.5376C20.1924 32.4452 20.1884 32.352 20.1772 32.258 20.0364 31.0864 18.9728 30.2512 17.8012 30.392 16.6296 30.5328 15.7952 31.596 15.936 32.7676 15.9472 32.8616 15.9644 32.9536 15.9872 33.0428L13.0232 33.3988C12.9436 33.4084 12.8724 33.3516 12.8632 33.2732L12.7488 32.322C12.7396 32.2432 12.7952 32.1712 12.8748 32.1616L12.8748 32.1616zM29.2352 31.5632C29.4308 31.5396 29.5696 31.3624 29.5464 31.1668 29.5232 30.9724 29.346 30.8332 29.1504 30.8564 28.9552 30.88 28.816 31.0572 28.8392 31.2516 28.8628 31.4472 29.04 31.5868 29.2352 31.5632L29.2352 31.5632zM29.3796 32.7648C30.2384 32.6616 30.8512 31.8824 30.748 31.0228 30.6448 30.1644 29.8648 29.5524 29.006 29.6556 28.1476 29.7588 27.5344 30.5384 27.6372 31.3968 27.7408 32.2556 28.5212 32.8676 29.3796 32.7648L29.3796 32.7648zM29.2692 31.846C29.6204 31.8036 29.8716 31.4844 29.8296 31.1332 29.7872 30.782 29.468 30.532 29.1164 30.5744 28.7648 30.6168 28.514 30.9348 28.5564 31.2864 28.5984 31.6372 28.918 31.888 29.2692 31.846L29.2692 31.846zM18.0984 32.8652C18.294 32.8416 18.4332 32.6644 18.41 32.4696 18.3864 32.274 18.2092 32.1352 18.0136 32.1584 17.8184 32.182 17.6788 32.3588 17.7024 32.5544 17.7256 32.7492 17.9032 32.8888 18.0984 32.8652L18.0984 32.8652zM18.2428 34.0668C19.1008 33.9636 19.7144 33.184 19.6112 32.3256 19.508 31.4664 18.7272 30.854 17.8692 30.9572 17.0104 31.0604 16.3976 31.84 16.5008 32.6992 16.604 33.5576 17.384 34.1696 18.2428 34.0668L18.2428 34.0668zM18.1324 33.148C18.4836 33.1056 18.7348 32.7864 18.6928 32.436 18.6504 32.0848 18.3308 31.8336 17.9796 31.8756 17.6284 31.9176 17.3772 32.2376 17.4192 32.5888 17.4616 32.9392 17.7812 33.19 18.1324 33.148L18.1324 33.148zM30.7672 23.6664C30.6052 23.686 30.4892 23.8336 30.5084 23.9948L31.0512 28.5124 33.542 28.2132 32.9992 23.6956C32.98 23.5344 32.832 23.4184 32.6712 23.4376L30.7672 23.6664 30.7672 23.6664zM33.6076 28.7616L31.1168 29.0608 31.164 29.452C31.1832 29.6132 31.3312 29.7296 31.4932 29.71L33.3972 29.4812C33.558 29.462 33.6744 29.314 33.6548 29.1524L33.6076 28.7616 33.6076 28.7616zM17.4816 25.2624C17.3008 25.284 17.1708 25.45 17.1924 25.6304L17.2384 26.0128 21.1476 25.5432 21.1016 25.1608C21.08 24.9804 20.9144 24.85 20.7336 24.872L17.4816 25.2624 17.4816 25.2624zM21.1776 25.7908L17.2684 26.2604 17.4492 27.7656C17.4708 27.946 17.636 28.0764 17.8172 28.0548L21.0692 27.664C21.25 27.6424 21.38 27.4764 21.3584 27.296L21.1776 25.7908 21.1776 25.7908zM21.896 24.7324C21.716 24.754 21.5856 24.92 21.6072 25.1004L21.6532 25.4828 25.562 25.0132 25.516 24.6308C25.4944 24.4504 25.3292 24.32 25.148 24.3416L21.896 24.7324 21.896 24.7324zM25.5916 25.2604L21.6828 25.73 21.8636 27.2352C21.8852 27.4156 22.0512 27.546 22.2312 27.5244L25.4832 27.1336C25.664 27.112 25.794 26.946 25.7724 26.7656L25.5916 25.2604 25.5916 25.2604zM26.3672 24.1816C26.186 24.2032 26.0564 24.3684 26.0784 24.5496L26.126 24.9448 30.0352 24.4752 29.9876 24.08C29.966 23.8988 29.7988 23.7692 29.6192 23.7908L26.3672 24.1816 26.3672 24.1816zM30.0648 24.7232L26.1556 25.1928 26.3348 26.6848C26.3564 26.8652 26.5216 26.9952 26.7028 26.9736L29.9548 26.5828C30.1344 26.5612 30.2656 26.3956 30.244 26.2152L30.0648 24.7232 30.0648 24.7232zM22.3004 21.4252C22.17 21.4408 22.0772 21.56 22.0928 21.6896L22.1284 21.9848 25.3728 21.5952 25.3372 21.3C25.3216 21.1704 25.2036 21.0768 25.074 21.0924L22.3004 21.4252 22.3004 21.4252zM25.4024 21.8416L22.158 22.2312 22.2768 23.2208C22.2924 23.3508 22.4104 23.4436 22.5412 23.428L25.3148 23.0948C25.4444 23.0792 25.5372 22.9612 25.5216 22.8312L25.4024 21.8416 25.4024 21.8416zM25.9212 20.99C25.792 21.0056 25.698 21.1248 25.7136 21.2544L25.7492 21.5496 28.994 21.16 28.9584 20.8648C28.9428 20.7352 28.8248 20.6416 28.6952 20.6572L25.9212 20.99 25.9212 20.99zM29.0236 21.4064L25.7788 21.796 25.8976 22.7856C25.9132 22.9156 26.0328 23.0084 26.162 22.9928L28.936 22.6596C29.0656 22.644 29.1584 22.526 29.1428 22.396L29.0236 21.4064 29.0236 21.4064zM29.562 20.5528C29.4324 20.5684 29.3388 20.6876 29.3544 20.8172L29.39 21.1124 32.6348 20.7228 32.5992 20.4276C32.5836 20.298 32.4648 20.2044 32.3356 20.22L29.562 20.5528 29.562 20.5528zM32.6644 20.9692L29.4196 21.3588 29.5384 22.3484C29.554 22.4784 29.6732 22.5712 29.8028 22.5556L32.5764 22.2224C32.7056 22.2068 32.7988 22.0888 32.7832 21.9588L32.6644 20.9692 32.6644 20.9692zM18.6416 21.8644C18.512 21.88 18.4196 21.9988 18.4352 22.1284L18.4708 22.4236 21.714 22.034 21.6784 21.7388C21.6628 21.6092 21.5448 21.5156 21.414 21.5312L18.6416 21.8644 18.6416 21.8644zM21.7436 22.2808L18.5004 22.6704 18.6192 23.66C18.6348 23.79 18.7528 23.8828 18.8824 23.8672L21.6548 23.534C21.7856 23.5184 21.878 23.4 21.8624 23.2704L21.7436 22.2808 21.7436 22.2808zM15.1816 22.2528C15.0508 22.2684 14.968 22.3872 14.9716 22.5184L14.9836 22.8428 18.0176 22.4784 17.9792 22.1572C17.9636 22.0272 17.8424 21.9332 17.7116 21.9488L15.1816 22.2528 15.1816 22.2528zM18.0468 22.7252L14.9936 23.092 15.03 24.0808C15.036 24.2124 15.1668 24.3052 15.2972 24.2896L17.954 23.9704C18.0848 23.9548 18.18 23.8348 18.1644 23.7044L18.0468 22.7252 18.0468 22.7252zM14.4076 28.4684L16.8312 28.1772 16.5124 25.522 14.4692 25.7676 14.4076 28.4684z"/>
  </g>
</svg>
