<svg xmlns="http://www.w3.org/2000/svg" width="280" height="350"><g fill="none" fill-rule="evenodd"><path fill="#000" d="M105.6 288.8c9.6 0 17.6 3.6 24.1 11l-8.1 9.1a19 19 0 0 0-15.4-7.7 18 18 0 0 0-12.6 4.8 16.7 16.7 0 0 0-5.2 13c0 5.4 1.6 9.8 5 13 3.2 3.4 7.2 5 11.9 5 6.4 0 11.6-2.5 15.7-7.6l8.4 8.6a30.4 30.4 0 0 1-23.5 11.2c-9 0-16.4-2.8-22.2-8.5a28.8 28.8 0 0 1-8.8-21.5 30 30 0 0 1 30.7-30.4zm92.3 14c6.2 0 11.5 1.9 15.8 5.6 4.3 3.8 6.5 8.9 6.5 15.4v6.7h-32.8a9 9 0 0 0 3.8 6 14.4 14.4 0 0 0 18.2-2l7 7.5c-5 4.8-11 7.2-17.8 7.2A22.2 22.2 0 0 1 175 326c0-7.1 2.3-12.7 6.8-17a23 23 0 0 1 16.1-6.2zm58-14c9.6 0 17.6 3.6 24.1 11l-8 9.1a19 19 0 0 0-15.5-7.7A18 18 0 0 0 244 306a16.7 16.7 0 0 0-5.2 13c0 5.4 1.7 9.8 5 13 3.2 3.4 7.2 5 11.9 5 6.4 0 11.7-2.5 15.7-7.6l8.4 8.6a30.4 30.4 0 0 1-23.5 11.2c-9 0-16.4-2.8-22.2-8.5a28.8 28.8 0 0 1-8.7-21.5 30 30 0 0 1 30.7-30.4zM46.5 290v11.3H30v47.1H17v-47.1H.3v-11.3h46.1zm21 0v58.4H54.3v-58.4h13zm113.4 0v11.3h-16.5v47.1h-13v-47.1h-16.6v-11.3h46.1zm17.2 23c-2.5 0-4.7.8-6.8 2.3a8.6 8.6 0 0 0-3.6 6.1h19.7a9 9 0 0 0-3-6.1 9.5 9.5 0 0 0-6.3-2.2z"/><path fill="#FFFFFE" d="M35.7 66.6l98.5-56.9c3.8-2.2 8.6-2.2 12.4 0l98.5 56.9c3.8 2.2 6.2 6.3 6.2 10.7v113.8c0 4.4-2.4 8.5-6.2 10.7l-98.5 56.9a12.4 12.4 0 0 1-12.4 0l-98.5-56.9a12.4 12.4 0 0 1-6.2-10.7V77.3c0-4.4 2.4-8.5 6.2-10.7"/><path stroke="#000" stroke-linecap="round" stroke-linejoin="round" stroke-width="12.4" d="M35.7 66.6l98.5-56.9c3.8-2.2 8.6-2.2 12.4 0l98.5 56.9c3.8 2.2 6.2 6.3 6.2 10.7v113.8c0 4.4-2.4 8.5-6.2 10.7l-98.5 56.9a12.4 12.4 0 0 1-12.4 0l-98.5-56.9a12.4 12.4 0 0 1-6.2-10.7V77.3c0-4.4 2.4-8.5 6.2-10.7z"/><path fill="#CF4748" d="M140.4 51.4a19 19 0 1 1 0 38 19 19 0 0 1 0-38"/><path fill="#5AA1CC" d="M140.4 178.2a19 19 0 1 1 0 38 19 19 0 0 1 0-38"/><path fill="#E99A47" d="M185.8 70.5a19 19 0 1 1 0 38 19 19 0 0 1 0-38"/><path fill="#51336C" d="M108.3 191.7a19 19 0 0 1-26.5-27.2 19 19 0 1 1 26.5 27.2"/><path fill="#FAD443" d="M203.8 114.3a19 19 0 1 1 0 38 19 19 0 0 1 0-38"/><path fill="#99498C" d="M77 115.3a19 19 0 1 1 0 38 19 19 0 0 1 0-38"/><path fill="#5BAB53" d="M171.8 192a19 19 0 1 1 27-26.8 19 19 0 0 1-27 26.9"/></g></svg>