<?xml version="1.0" encoding="UTF-8"?>
<svg width="600px" height="315px" viewBox="0 0 600 315" version="1.1" xmlns="http://www.w3.org/2000/svg" xmlns:xlink="http://www.w3.org/1999/xlink">
    <title>alaveteli-stamp</title>
    <g id="alaveteli-stamp" stroke="none" stroke-width="1" fill="none" fill-rule="evenodd">
        <rect fill="#E2D0E0" x="0" y="0" width="600" height="315"></rect>
        <g id="stamp" transform="translate(301.500000, 159.000000) rotate(9.000000) translate(-301.500000, -159.000000) translate(204.711754, 35.337492)">
            <path d="M186.030088,226.391311 C186.030088,222.177383 189.497355,218.711088 193.576491,218.643121 L193.576491,213.681561 C189.497355,213.545628 186.030088,210.1473 186.030088,205.933372 C186.030088,201.719444 189.497355,198.253149 193.576491,198.185183 L193.576491,193.223623 C189.497355,193.08769 186.030088,189.689361 186.030088,185.475433 C186.030088,181.261506 189.497355,177.79521 193.576491,177.727244 L193.576491,172.765684 C189.497355,172.629751 186.030088,169.231422 186.030088,165.017495 C186.030088,160.803567 189.497355,157.337272 193.576491,157.269305 L193.576491,152.171812 C189.497355,152.035879 186.030088,148.63755 186.030088,144.423623 C186.030088,140.209695 189.497355,136.7434 193.576491,136.675433 L193.576491,131.713873 C189.497355,131.57794 186.030088,128.179612 186.030088,123.965684 C186.030088,119.751756 189.497355,116.285461 193.576491,116.217495 L193.576491,111.255935 C189.497355,111.120002 186.030088,107.721673 186.030088,103.507745 C186.030088,99.2938177 189.497355,95.8275225 193.576491,95.7595559 L193.576491,90.797996 C189.497355,90.6620629 186.030088,87.2637342 186.030088,83.0498066 C186.030088,78.835879 189.497355,75.3695837 193.576491,75.3016172 L193.576491,70.3400573 C189.497355,70.2041241 186.030088,66.8057954 186.030088,62.5918679 C186.030088,58.3779403 189.497355,54.911645 193.576491,54.8436785 L193.576491,49.8821186 C189.497355,49.7461854 186.030088,46.3478567 186.030088,42.1339292 C186.030088,37.9200016 189.497355,34.4537063 193.576491,34.3857397 L193.576491,29.1523136 C189.497355,29.0163804 186.030088,25.6180517 186.030088,21.4041241 C186.030088,17.1901966 189.497355,13.7239013 193.576491,13.6559347 L193.576491,3.3250155 L189.089441,3.3250155 C189.021455,7.40300993 185.622175,11.0052383 181.339081,11.0052383 C177.055988,11.0052383 173.588721,7.40300993 173.588721,3.3250155 L168.625772,3.3250155 C168.557786,7.40300993 165.158506,11.0052383 160.875412,11.0052383 C156.592319,11.0052383 153.125052,7.40300993 153.125052,3.3250155 L148.162103,3.3250155 C148.094117,7.40300993 144.694837,11.0052383 140.411743,11.0052383 C136.128649,11.0052383 132.661383,7.40300993 132.661383,3.3250155 L127.698434,3.3250155 C127.630448,7.40300993 124.231167,11.0052383 119.948074,11.0052383 C115.529009,11.0052383 112.061743,7.40300993 111.993757,3.3250155 L107.030808,3.3250155 C106.962822,7.40300993 103.563542,11.0052383 99.2804481,11.0052383 C94.9973545,11.0052383 91.5300883,7.40300993 91.5300883,3.3250155 L86.5671387,3.3250155 C86.4991531,7.40300993 83.0998725,11.0052383 78.816779,11.0052383 C74.4656999,11.0052383 70.9984337,7.40300993 70.9984337,3.3250155 L66.035484,3.3250155 C65.9674984,7.40300993 62.5002322,11.0052383 58.2851243,11.0052383 C54.0020308,11.0052383 50.5347646,7.40300993 50.466779,3.3250155 L45.5038294,3.3250155 C45.4358437,7.40300993 42.0365632,11.0052383 37.7534696,11.0052383 C33.4703761,11.0052383 30.0031099,7.40300993 30.0031099,3.3250155 L24.9721747,3.3250155 C24.9721747,7.40300993 21.5049085,11.0052383 17.221815,11.0052383 C12.9387214,11.0052383 9.47145525,7.40300993 9.47145525,3.3250155 L4.57649122,3.3250155 L4.57649122,13.5879681 C4.57649122,13.5879681 4.78044806,13.5879681 4.84843367,13.5879681 C9.13152719,13.5879681 12.666779,17.0542634 12.666779,21.3361576 C12.666779,25.6860183 9.13152719,29.1523136 4.84843367,29.1523136 C4.78044806,29.1523136 4.57649122,29.1523136 4.57649122,29.1523136 L4.57649122,34.1138734 C4.57649122,34.1138734 4.78044806,34.1138734 4.84843367,34.1138734 C9.13152719,34.1138734 12.666779,37.5801687 12.666779,41.8620629 C12.666779,46.143957 9.13152719,49.6102523 4.84843367,49.6102523 C4.78044806,49.6102523 4.57649122,49.6102523 4.57649122,49.6102523 L4.57649122,54.5718122 C4.57649122,54.5718122 4.78044806,54.5718122 4.84843367,54.5718122 C9.13152719,54.5718122 12.666779,58.0381074 12.666779,62.3200016 C12.666779,66.6018957 9.13152719,70.068191 4.84843367,70.068191 C4.78044806,70.068191 4.57649122,70.068191 4.57649122,70.068191 L4.57649122,75.0297509 C4.57649122,75.0297509 4.78044806,75.0297509 4.84843367,75.0297509 C9.13152719,75.0297509 12.666779,78.4960461 12.666779,82.7779403 C12.666779,87.0598344 9.13152719,90.5261297 4.84843367,90.5261297 C4.78044806,90.5261297 4.57649122,90.5261297 4.57649122,90.5261297 L4.57649122,95.4876896 C4.57649122,95.4876896 4.78044806,95.4876896 4.84843367,95.4876896 C9.13152719,95.4876896 12.666779,98.9539849 12.666779,103.235879 C12.666779,107.517773 9.13152719,110.984068 4.84843367,110.984068 C4.78044806,110.984068 4.57649122,110.984068 4.57649122,110.984068 L4.57649122,115.945628 C4.57649122,115.945628 4.78044806,115.945628 4.84843367,115.945628 C9.13152719,115.945628 12.666779,119.411924 12.666779,123.693818 C12.666779,127.975712 9.13152719,131.442007 4.84843367,131.442007 C4.78044806,131.442007 4.57649122,131.442007 4.57649122,131.442007 L4.57649122,136.403567 C4.57649122,136.403567 4.78044806,136.403567 4.84843367,136.403567 C9.13152719,136.403567 12.666779,139.869862 12.666779,144.151756 C12.666779,148.433651 9.13152719,151.899946 4.84843367,151.899946 C4.78044806,151.899946 4.57649122,151.899946 4.57649122,151.899946 L4.57649122,156.861506 C4.57649122,156.861506 4.78044806,156.861506 4.84843367,156.861506 C9.13152719,156.861506 12.666779,160.327801 12.666779,164.609695 C12.666779,168.891589 9.13152719,172.357885 4.84843367,172.357885 C4.78044806,172.357885 4.57649122,172.357885 4.57649122,172.357885 L4.57649122,177.319444 C4.57649122,177.319444 4.78044806,177.319444 4.84843367,177.319444 C9.13152719,177.319444 12.666779,180.78574 12.666779,185.067634 C12.666779,189.349528 9.13152719,192.815823 4.84843367,192.815823 C4.78044806,192.815823 4.57649122,192.815823 4.57649122,192.815823 L4.57649122,197.777383 C4.57649122,197.777383 4.78044806,197.777383 4.84843367,197.777383 C9.13152719,197.777383 12.666779,201.243678 12.666779,205.525573 C12.666779,209.807467 9.13152719,213.273762 4.84843367,213.273762 C4.78044806,213.273762 4.57649122,213.273762 4.57649122,213.273762 L4.57649122,218.235322 C4.57649122,218.235322 4.78044806,218.235322 4.84843367,218.235322 C9.13152719,218.235322 12.666779,221.701617 12.666779,225.983511 C12.666779,230.265405 9.13152719,233.731701 4.84843367,233.731701 C4.78044806,233.731701 4.57649122,233.731701 4.57649122,233.731701 L4.57649122,247.325016 L9.47145525,247.325016 C9.47145525,246.64535 9.47145525,247.121116 9.47145525,247.121116 C9.47145525,242.839222 12.9387214,239.236993 17.221815,239.236993 C21.5049085,239.236993 24.9721747,242.839222 24.9721747,247.121116 C24.9721747,247.121116 24.9721747,246.64535 24.9721747,247.325016 L29.9351243,247.325016 C29.9351243,246.64535 29.9351243,247.121116 29.9351243,247.121116 C29.9351243,242.839222 33.4023905,239.236993 37.685484,239.236993 C41.9685776,239.236993 45.4358437,242.839222 45.4358437,247.121116 C45.4358437,247.121116 45.4358437,246.64535 45.4358437,247.325016 L50.3987934,247.325016 C50.3987934,246.64535 50.3987934,247.121116 50.3987934,247.121116 C50.3987934,242.839222 53.8660596,239.236993 58.1491531,239.236993 C62.4322466,239.236993 65.8995128,242.839222 65.8995128,247.121116 C65.8995128,247.121116 65.8995128,246.64535 65.8995128,247.325016 L70.8624624,247.325016 C70.8624624,246.64535 70.8624624,247.121116 70.8624624,247.121116 C70.8624624,242.839222 74.3297286,239.236993 78.6128222,239.236993 C82.8959157,239.236993 86.3631819,242.839222 86.3631819,247.121116 C86.3631819,247.121116 86.3631819,246.64535 86.3631819,247.325016 L91.3261315,247.325016 C91.3261315,246.64535 91.3261315,247.121116 91.3261315,247.121116 C91.3261315,242.839222 94.7933977,239.236993 99.0764912,239.236993 C103.359585,239.236993 106.826851,242.839222 106.826851,247.121116 C106.826851,247.121116 106.826851,246.64535 106.826851,247.325016 L111.789801,247.325016 C111.789801,246.64535 111.789801,247.121116 111.789801,247.121116 C111.789801,242.839222 115.257067,239.236993 119.54016,239.236993 C123.823254,239.236993 127.29052,242.839222 127.29052,247.121116 C127.29052,247.121116 127.29052,246.64535 127.29052,247.325016 L132.25347,247.325016 C132.25347,246.64535 132.25347,247.121116 132.25347,247.121116 C132.25347,242.839222 135.720736,239.236993 140.003829,239.236993 C144.286923,239.236993 147.754189,242.839222 147.754189,247.121116 C147.754189,247.121116 147.754189,246.64535 147.754189,247.325016 L152.717139,247.325016 C152.717139,246.64535 152.717139,247.121116 152.717139,247.121116 C152.717139,242.839222 156.184405,239.236993 160.467498,239.236993 C164.750592,239.236993 168.217858,242.839222 168.217858,247.121116 C168.217858,247.121116 168.217858,246.64535 168.217858,247.325016 L173.180808,247.325016 C173.180808,246.64535 173.180808,247.121116 173.180808,247.121116 C173.180808,242.839222 176.648074,239.236993 180.931167,239.236993 C185.214261,239.236993 188.681527,242.839222 188.681527,247.121116 C188.681527,247.121116 188.681527,246.64535 188.681527,247.325016 L193.168578,247.325016 L193.168578,234.207467 C189.497355,234.071534 186.030088,230.673205 186.030088,226.391311 Z" id="Path" fill-opacity="0.1" fill="#000000" fill-rule="nonzero"></path>
            <path d="M181.453597,223.066295 C181.453597,218.852368 184.920863,215.386072 189,215.318106 L189,210.356546 C184.920863,210.220613 181.453597,206.822284 181.453597,202.608357 C181.453597,198.394429 184.920863,194.928134 189,194.860167 L189,189.898607 C184.920863,189.762674 181.453597,186.364345 181.453597,182.150418 C181.453597,177.93649 184.920863,174.470195 189,174.402228 L189,169.440669 C184.920863,169.304735 181.453597,165.906407 181.453597,161.692479 C181.453597,157.478552 184.920863,154.012256 189,153.94429 L189,148.846797 C184.920863,148.710864 181.453597,145.312535 181.453597,141.098607 C181.453597,136.88468 184.920863,133.418384 189,133.350418 L189,128.388858 C184.920863,128.252925 181.453597,124.854596 181.453597,120.640669 C181.453597,116.426741 184.920863,112.960446 189,112.892479 L189,107.930919 C184.920863,107.794986 181.453597,104.396657 181.453597,100.18273 C181.453597,95.9688022 184.920863,92.502507 189,92.4345404 L189,87.4729805 C184.920863,87.3370474 181.453597,83.9387187 181.453597,79.7247911 C181.453597,75.5108635 184.920863,72.0445682 189,71.9766017 L189,67.0150418 C184.920863,66.8791086 181.453597,63.4807799 181.453597,59.2668524 C181.453597,55.0529248 184.920863,51.5866295 189,51.518663 L189,46.5571031 C184.920863,46.4211699 181.453597,43.0228412 181.453597,38.8089136 C181.453597,34.5949861 184.920863,31.1286908 189,31.0607242 L189,25.8272981 C184.920863,25.6913649 181.453597,22.2930362 181.453597,18.0791086 C181.453597,13.8651811 184.920863,10.3988858 189,10.3309192 L189,6.75436844e-14 L184.51295,6.75436844e-14 C184.444964,4.07799443 181.045683,7.68022284 176.76259,7.68022284 C172.479496,7.68022284 169.01223,4.07799443 169.01223,6.75436844e-14 L164.049281,6.75436844e-14 C163.981295,4.07799443 160.582014,7.68022284 156.298921,7.68022284 C152.015827,7.68022284 148.548561,4.07799443 148.548561,6.75436844e-14 L143.585612,6.75436844e-14 C143.517626,4.07799443 140.118345,7.68022284 135.835252,7.68022284 C131.552158,7.68022284 128.084892,4.07799443 128.084892,6.75436844e-14 L123.121942,6.75436844e-14 C123.053957,4.07799443 119.654676,7.68022284 115.371583,7.68022284 C110.952518,7.68022284 107.485252,4.07799443 107.417266,6.75436844e-14 L102.454317,6.75436844e-14 C102.386331,4.07799443 98.9870504,7.68022284 94.7039568,7.68022284 C90.4208633,7.68022284 86.9535971,4.07799443 86.9535971,6.75436844e-14 L81.9906475,6.75436844e-14 C81.9226619,4.07799443 78.5233813,7.68022284 74.2402878,7.68022284 C69.8892086,7.68022284 66.4219424,4.07799443 66.4219424,6.75436844e-14 L61.4589928,6.75436844e-14 C61.3910072,4.07799443 57.923741,7.68022284 53.7086331,7.68022284 C49.4255396,7.68022284 45.9582734,4.07799443 45.8902878,6.75436844e-14 L40.9273381,6.75436844e-14 C40.8593525,4.07799443 37.4600719,7.68022284 33.1769784,7.68022284 C28.8938849,7.68022284 25.4266187,4.07799443 25.4266187,6.75436844e-14 L20.3956835,6.75436844e-14 C20.3956835,4.07799443 16.9284173,7.68022284 12.6453237,7.68022284 C8.36223022,7.68022284 4.89496403,4.07799443 4.89496403,6.75436844e-14 L-5.18944412e-14,6.75436844e-14 L-5.18944412e-14,10.2629526 C-5.18944412e-14,10.2629526 0.203956835,10.2629526 0.271942446,10.2629526 C4.55503597,10.2629526 8.09028777,13.7292479 8.09028777,18.0111421 C8.09028777,22.3610028 4.55503597,25.8272981 0.271942446,25.8272981 C0.203956835,25.8272981 -5.18944412e-14,25.8272981 -5.18944412e-14,25.8272981 L-5.18944412e-14,30.7888579 C-5.18944412e-14,30.7888579 0.203956835,30.7888579 0.271942446,30.7888579 C4.55503597,30.7888579 8.09028777,34.2551532 8.09028777,38.5370474 C8.09028777,42.8189415 4.55503597,46.2852368 0.271942446,46.2852368 C0.203956835,46.2852368 -5.18944412e-14,46.2852368 -5.18944412e-14,46.2852368 L-5.18944412e-14,51.2467967 C-5.18944412e-14,51.2467967 0.203956835,51.2467967 0.271942446,51.2467967 C4.55503597,51.2467967 8.09028777,54.7130919 8.09028777,58.9949861 C8.09028777,63.2768802 4.55503597,66.7431755 0.271942446,66.7431755 C0.203956835,66.7431755 -5.18944412e-14,66.7431755 -5.18944412e-14,66.7431755 L-5.18944412e-14,71.7047354 C-5.18944412e-14,71.7047354 0.203956835,71.7047354 0.271942446,71.7047354 C4.55503597,71.7047354 8.09028777,75.1710306 8.09028777,79.4529248 C8.09028777,83.7348189 4.55503597,87.2011142 0.271942446,87.2011142 C0.203956835,87.2011142 -5.18944412e-14,87.2011142 -5.18944412e-14,87.2011142 L-5.18944412e-14,92.1626741 C-5.18944412e-14,92.1626741 0.203956835,92.1626741 0.271942446,92.1626741 C4.55503597,92.1626741 8.09028777,95.6289694 8.09028777,99.9108635 C8.09028777,104.192758 4.55503597,107.659053 0.271942446,107.659053 C0.203956835,107.659053 -5.18944412e-14,107.659053 -5.18944412e-14,107.659053 L-5.18944412e-14,112.620613 C-5.18944412e-14,112.620613 0.203956835,112.620613 0.271942446,112.620613 C4.55503597,112.620613 8.09028777,116.086908 8.09028777,120.368802 C8.09028777,124.650696 4.55503597,128.116992 0.271942446,128.116992 C0.203956835,128.116992 -5.18944412e-14,128.116992 -5.18944412e-14,128.116992 L-5.18944412e-14,133.078552 C-5.18944412e-14,133.078552 0.203956835,133.078552 0.271942446,133.078552 C4.55503597,133.078552 8.09028777,136.544847 8.09028777,140.826741 C8.09028777,145.108635 4.55503597,148.57493 0.271942446,148.57493 C0.203956835,148.57493 -5.18944412e-14,148.57493 -5.18944412e-14,148.57493 L-5.18944412e-14,153.53649 C-5.18944412e-14,153.53649 0.203956835,153.53649 0.271942446,153.53649 C4.55503597,153.53649 8.09028777,157.002786 8.09028777,161.28468 C8.09028777,165.566574 4.55503597,169.032869 0.271942446,169.032869 C0.203956835,169.032869 -5.18944412e-14,169.032869 -5.18944412e-14,169.032869 L-5.18944412e-14,173.994429 C-5.18944412e-14,173.994429 0.203956835,173.994429 0.271942446,173.994429 C4.55503597,173.994429 8.09028777,177.460724 8.09028777,181.742618 C8.09028777,186.024513 4.55503597,189.490808 0.271942446,189.490808 C0.203956835,189.490808 -5.18944412e-14,189.490808 -5.18944412e-14,189.490808 L-5.18944412e-14,194.452368 C-5.18944412e-14,194.452368 0.203956835,194.452368 0.271942446,194.452368 C4.55503597,194.452368 8.09028777,197.918663 8.09028777,202.200557 C8.09028777,206.482451 4.55503597,209.948747 0.271942446,209.948747 C0.203956835,209.948747 -5.18944412e-14,209.948747 -5.18944412e-14,209.948747 L-5.18944412e-14,214.910306 C-5.18944412e-14,214.910306 0.203956835,214.910306 0.271942446,214.910306 C4.55503597,214.910306 8.09028777,218.376602 8.09028777,222.658496 C8.09028777,226.94039 4.55503597,230.406685 0.271942446,230.406685 C0.203956835,230.406685 -5.18944412e-14,230.406685 -5.18944412e-14,230.406685 L-5.18944412e-14,244 L4.89496403,244 C4.89496403,243.320334 4.89496403,243.7961 4.89496403,243.7961 C4.89496403,239.514206 8.36223022,235.911978 12.6453237,235.911978 C16.9284173,235.911978 20.3956835,239.514206 20.3956835,243.7961 C20.3956835,243.7961 20.3956835,243.320334 20.3956835,244 L25.3586331,244 C25.3586331,243.320334 25.3586331,243.7961 25.3586331,243.7961 C25.3586331,239.514206 28.8258993,235.911978 33.1089928,235.911978 C37.3920863,235.911978 40.8593525,239.514206 40.8593525,243.7961 C40.8593525,243.7961 40.8593525,243.320334 40.8593525,244 L45.8223022,244 C45.8223022,243.320334 45.8223022,243.7961 45.8223022,243.7961 C45.8223022,239.514206 49.2895683,235.911978 53.5726619,235.911978 C57.8557554,235.911978 61.3230216,239.514206 61.3230216,243.7961 C61.3230216,243.7961 61.3230216,243.320334 61.3230216,244 L66.2859712,244 C66.2859712,243.320334 66.2859712,243.7961 66.2859712,243.7961 C66.2859712,239.514206 69.7532374,235.911978 74.0363309,235.911978 C78.3194245,235.911978 81.7866906,239.514206 81.7866906,243.7961 C81.7866906,243.7961 81.7866906,243.320334 81.7866906,244 L86.7496403,244 C86.7496403,243.320334 86.7496403,243.7961 86.7496403,243.7961 C86.7496403,239.514206 90.2169065,235.911978 94.5,235.911978 C98.7830935,235.911978 102.25036,239.514206 102.25036,243.7961 C102.25036,243.7961 102.25036,243.320334 102.25036,244 L107.213309,244 C107.213309,243.320334 107.213309,243.7961 107.213309,243.7961 C107.213309,239.514206 110.680576,235.911978 114.963669,235.911978 C119.246763,235.911978 122.714029,239.514206 122.714029,243.7961 C122.714029,243.7961 122.714029,243.320334 122.714029,244 L127.676978,244 C127.676978,243.320334 127.676978,243.7961 127.676978,243.7961 C127.676978,239.514206 131.144245,235.911978 135.427338,235.911978 C139.710432,235.911978 143.177698,239.514206 143.177698,243.7961 C143.177698,243.7961 143.177698,243.320334 143.177698,244 L148.140647,244 C148.140647,243.320334 148.140647,243.7961 148.140647,243.7961 C148.140647,239.514206 151.607914,235.911978 155.891007,235.911978 C160.174101,235.911978 163.641367,239.514206 163.641367,243.7961 C163.641367,243.7961 163.641367,243.320334 163.641367,244 L168.604317,244 C168.604317,243.320334 168.604317,243.7961 168.604317,243.7961 C168.604317,239.514206 172.071583,235.911978 176.354676,235.911978 C180.63777,235.911978 184.105036,239.514206 184.105036,243.7961 C184.105036,243.7961 184.105036,243.320334 184.105036,244 L188.592086,244 L188.592086,230.882451 C184.920863,230.746518 181.453597,227.348189 181.453597,223.066295 Z" id="Path" fill="#F2E8F2" fill-rule="nonzero"></path>
            <rect id="Rectangle" fill="#8F4A8B" fill-rule="nonzero" x="15.0720614" y="15.9156269" width="160" height="213"></rect>
            <rect id="Rectangle" fill="#A94CA6" fill-rule="nonzero" x="22.9938442" y="22.9217828" width="144" height="198"></rect>
            <path d="M41.1272988,139.611763 C41.1272988,116.61599 59.0967644,106.175772 84.2812428,106.175772 C93.4701741,106.175772 99.7322606,106.994613 106.606943,108.700531 L106.606943,97.168526 C106.606943,86.1141782 100.549055,80.8599512 87.6164845,80.8599512 C74.4797161,80.8599512 67.8092326,85.9094681 62.36394,90.6860381 L48.4103777,90.6860381 L48.4103777,68.3043956 C58.6203013,63.7325357 72.3696652,59.9112797 93.6743726,59.9112797 C122.05796,59.9112797 137.032515,69.1232362 137.032515,94.2343473 L137.032515,148.823719 C137.032515,151.348478 139.755161,154.077946 142.273609,154.077946 L148.127299,154.077946 L148.127299,168.74884 C143.975263,171.273599 137.713177,172.91128 129.749436,172.91128 C117.021065,172.91128 110.55478,167.861763 107.832133,159.127463 C99.6641945,169.15826 89.4542708,172.70657 76.1133039,172.70657 C55.6934565,172.638333 41.1272988,161.379275 41.1272988,139.611763 Z M106.606943,146.913091 L106.606943,123.507898 C101.842312,122.689057 96.3970189,122.279637 90.5433293,122.279637 C78.2233548,122.279637 70.7360774,127.329154 70.7360774,138.383502 C70.7360774,149.43785 77.2023624,154.692077 87.4122861,154.692077 C95.1037619,154.62384 101.365848,151.757898 106.606943,146.913091 Z" id="Shape" fill="#FFFFFF" fill-rule="nonzero"></path>
            <g id="Group" transform="translate(1.144123, 0.831254)">
                <path d="M183.293314,207.773816 C176.771387,207.09415 172.015816,205.530919 167.192308,204.035655 C161.213875,202.132591 155.507189,200.36546 147.015097,200.36546 C138.047448,200.36546 128.672178,202.404457 119.704529,204.307521 C110.668943,206.278552 102.584472,208.113649 93.6847592,208.113649 L93.6847592,204.035655 C101.837168,204.035655 109.921639,202.268524 118.685478,200.297493 C127.856937,198.326462 137.436017,196.219499 146.94716,196.219499 C156.11862,196.219499 162.504673,198.190529 168.618979,200.093593 C172.491373,201.316992 176.499641,202.54039 181.323149,203.288022 C181.323149,203.016156 181.255212,202.812256 181.255212,202.54039 C181.255212,200.569359 182.002516,198.802228 183.225377,197.442897 C176.703451,196.763231 172.015816,195.2 167.192308,193.704735 C161.213875,191.801671 155.507189,190.03454 147.015097,190.03454 C138.047448,190.03454 128.808052,192.073538 119.840403,193.976602 C114.541337,195.132033 109.106398,196.287465 103.807333,197.035097 L103.127965,192.957103 C108.223221,192.277437 113.318476,191.122006 118.753415,189.966574 C127.924874,187.995543 137.436017,185.888579 146.94716,185.888579 C156.11862,185.888579 162.436736,187.85961 168.551042,189.762674 C174.257728,191.529805 180.304098,193.364903 188.728253,193.636769 L188.728253,189.762674 C186.554277,189.694708 184.584112,188.743175 183.157441,187.179944 C176.635514,186.500279 171.879942,184.937047 167.056434,183.441783 C161.078001,181.538719 155.371316,179.771588 146.879224,179.771588 C137.911574,179.771588 128.672178,181.810585 119.704529,183.713649 C116.103882,184.529248 112.299425,185.344847 108.698778,185.956546 L107.8156,181.946518 C111.348311,181.334819 114.948958,180.51922 118.685478,179.703621 C127.856937,177.732591 137.368081,175.625627 146.879224,175.625627 C156.050683,175.625627 162.368799,177.596657 168.483106,179.499721 C172.3555,180.72312 176.363767,181.946518 181.119339,182.69415 C181.119339,182.490251 181.051402,182.218384 181.051402,181.946518 C181.051402,179.975487 181.798706,178.208357 183.021567,176.849025 C176.499641,176.169359 171.812006,174.606128 166.988497,173.110864 C161.010065,171.207799 155.303379,169.440669 146.811287,169.440669 C137.843638,169.440669 128.604242,171.479666 119.636592,173.38273 C116.035945,174.198329 112.231488,175.013928 108.630841,175.625627 L107.747664,171.615599 C111.280374,171.0039 114.881021,170.188301 118.617541,169.372702 C127.789001,167.401671 137.300144,165.294708 146.811287,165.294708 C155.982746,165.294708 162.300863,167.265738 168.415169,169.168802 C174.121855,170.935933 180.168224,172.771031 188.59238,173.042897 L188.59238,169.168802 C186.418404,169.100836 184.448239,168.149304 183.021567,166.586072 C176.499641,165.906407 171.744069,164.343175 166.920561,162.847911 C160.942128,160.944847 155.235442,159.177716 146.74335,159.177716 C137.775701,159.177716 128.536305,161.216713 119.568656,163.119777 C115.968009,163.935376 112.163551,164.750975 108.562904,165.362674 L107.679727,161.352646 C111.212437,160.740947 114.813084,159.925348 118.549605,159.109749 C127.721064,157.138719 137.232207,155.031755 146.74335,155.031755 C155.914809,155.031755 162.232926,157.002786 168.347232,158.90585 C172.219626,160.129248 176.227894,161.352646 180.983465,162.100279 C180.983465,161.896379 180.915528,161.624513 180.915528,161.352646 C180.915528,159.381616 181.662832,157.614485 182.885694,156.255153 C176.363767,155.575487 171.676132,154.012256 166.852624,152.516992 C160.874191,150.613928 155.167505,148.846797 146.675413,148.846797 C137.707764,148.846797 128.468368,150.885794 119.500719,152.788858 C114.133717,153.94429 108.494968,155.167688 103.127965,155.91532 L102.448598,151.837326 C107.61179,151.15766 112.842919,150.002228 118.413731,148.77883 C127.585191,146.807799 137.096334,144.700836 146.607477,144.700836 C155.778936,144.700836 162.097052,146.671866 168.211359,148.57493 C173.918045,150.342061 179.964414,152.177159 188.388569,152.449025 L188.388569,148.846797 C186.214594,148.77883 184.244428,147.827298 182.817757,146.264067 C176.29583,145.584401 171.540259,144.02117 166.716751,142.525905 C160.738318,140.622841 155.031632,138.85571 146.53954,138.85571 C137.571891,138.85571 128.196621,140.894708 119.228972,142.797772 C110.193386,144.768802 102.108914,146.6039 93.209202,146.6039 L93.209202,142.525905 C101.36161,142.525905 109.446082,140.758774 118.209921,138.787744 C127.38138,136.816713 136.96046,134.709749 146.471603,134.709749 C155.643063,134.709749 162.029116,136.68078 168.143422,138.583844 C172.015816,139.807242 176.024083,141.030641 180.847592,141.778273 C180.847592,141.506407 180.779655,141.302507 180.779655,141.030641 C180.779655,136.816713 184.244428,133.350418 188.320633,133.282451 L188.320633,128.320891 C184.244428,128.184958 180.779655,124.78663 180.779655,120.572702 C180.779655,116.358774 184.244428,112.892479 188.320633,112.824513 L188.320633,107.862953 C184.244428,107.727019 180.779655,104.328691 180.779655,100.114763 C180.779655,95.9008357 184.244428,92.4345404 188.320633,92.3665738 L188.320633,87.4050139 C184.244428,87.2690808 180.779655,83.8707521 180.779655,79.6568245 C180.779655,75.4428969 184.244428,71.9766017 188.320633,71.9086351 L188.320633,66.9470752 C184.244428,66.8111421 180.779655,63.4128134 180.779655,59.1988858 C180.779655,54.9849582 184.244428,51.518663 188.320633,51.4506964 L188.320633,46.4891365 C184.244428,46.3532033 180.779655,42.9548747 180.779655,38.7409471 C180.779655,34.5270195 184.244428,31.0607242 188.320633,30.9927577 L188.320633,25.8272981 C184.244428,25.6913649 180.779655,22.2930362 180.779655,18.0791086 C180.779655,13.8651811 184.244428,10.3988858 188.320633,10.3309192 L188.320633,0 L183.836808,0 C183.768871,4.07799443 180.372035,7.68022284 176.09202,7.68022284 C171.812006,7.68022284 168.347232,4.07799443 168.347232,0 L163.38785,0 C163.319914,4.07799443 159.923077,7.68022284 155.643063,7.68022284 C151.363048,7.68022284 147.898275,4.07799443 147.898275,0 L142.938893,0 C142.870956,4.07799443 139.474119,7.68022284 135.194105,7.68022284 C130.914091,7.68022284 127.449317,4.07799443 127.449317,0 L122.489935,0 C122.421999,4.07799443 119.025162,7.68022284 114.745147,7.68022284 C110.872753,7.68022284 107.40798,4.07799443 107.340043,0 L102.380661,0 C102.312725,4.07799443 98.9158879,7.68022284 94.6358735,7.68022284 C90.3558591,7.68022284 86.8910855,4.07799443 86.8910855,0 L81.9317038,0 C81.8637671,4.07799443 78.4669303,7.68022284 74.1869159,7.68022284 C69.8389648,7.68022284 66.3741912,4.07799443 66.3741912,0 L61.4148095,0 C61.3468728,4.07799443 57.8820992,7.68022284 53.6700216,7.68022284 C49.3900072,7.68022284 45.9252336,4.07799443 45.8572969,0 L40.8979152,0 C40.8299784,4.07799443 37.4331416,7.68022284 33.1531272,7.68022284 C28.8731129,7.68022284 25.4083393,4.07799443 25.4083393,0 L20.3810208,0 C20.3810208,4.07799443 16.9162473,7.68022284 12.6362329,7.68022284 C8.35621855,7.68022284 4.891445,4.07799443 4.891445,0 L0,0 L0,10.2629526 C0,10.2629526 0.203810208,10.2629526 0.271746945,10.2629526 C4.55176132,10.2629526 8.0844716,13.7292479 8.0844716,18.0111421 C8.0844716,22.3610028 4.55176132,25.8272981 0.271746945,25.8272981 C0.203810208,25.8272981 0,25.8272981 0,25.8272981 L0,30.7888579 C0,30.7888579 0.203810208,30.7888579 0.271746945,30.7888579 C4.55176132,30.7888579 8.0844716,34.2551532 8.0844716,38.5370474 C8.0844716,42.8189415 4.55176132,46.2852368 0.271746945,46.2852368 C0.203810208,46.2852368 0,46.2852368 0,46.2852368 L0,51.2467967 C0,51.2467967 0.203810208,51.2467967 0.271746945,51.2467967 C4.55176132,51.2467967 8.0844716,54.7130919 8.0844716,58.9949861 C8.0844716,63.2768802 4.55176132,66.7431755 0.271746945,66.7431755 C0.203810208,66.7431755 0,66.7431755 0,66.7431755 L0,71.7047354 C0,71.7047354 0.203810208,71.7047354 0.271746945,71.7047354 C4.55176132,71.7047354 8.0844716,75.1710306 8.0844716,79.4529248 C8.0844716,83.7348189 4.55176132,87.2011142 0.271746945,87.2011142 C0.203810208,87.2011142 0,87.2011142 0,87.2011142 L0,92.1626741 C0,92.1626741 0.203810208,92.1626741 0.271746945,92.1626741 C4.55176132,92.1626741 8.0844716,95.6289694 8.0844716,99.9108635 C8.0844716,104.192758 4.55176132,107.659053 0.271746945,107.659053 C0.203810208,107.659053 0,107.659053 0,107.659053 L0,112.620613 C0,112.620613 0.203810208,112.620613 0.271746945,112.620613 C4.55176132,112.620613 8.0844716,116.086908 8.0844716,120.368802 C8.0844716,124.650696 4.55176132,128.116992 0.271746945,128.116992 C0.203810208,128.116992 0,128.116992 0,128.116992 L0,133.078552 C0,133.078552 0.203810208,133.078552 0.271746945,133.078552 C4.55176132,133.078552 8.0844716,136.544847 8.0844716,140.826741 C8.0844716,145.108635 4.55176132,148.57493 0.271746945,148.57493 C0.203810208,148.57493 0,148.57493 0,148.57493 L0,153.53649 C0,153.53649 0.203810208,153.53649 0.271746945,153.53649 C4.55176132,153.53649 8.0844716,157.002786 8.0844716,161.28468 C8.0844716,165.566574 4.55176132,169.032869 0.271746945,169.032869 C0.203810208,169.032869 0,169.032869 0,169.032869 L0,173.994429 C0,173.994429 0.203810208,173.994429 0.271746945,173.994429 C4.55176132,173.994429 8.0844716,177.460724 8.0844716,181.742618 C8.0844716,186.024513 4.55176132,189.490808 0.271746945,189.490808 C0.203810208,189.490808 0,189.490808 0,189.490808 L0,194.452368 C0,194.452368 0.203810208,194.452368 0.271746945,194.452368 C4.55176132,194.452368 8.0844716,197.918663 8.0844716,202.200557 C8.0844716,206.482451 4.55176132,209.948747 0.271746945,209.948747 C0.203810208,209.948747 0,209.948747 0,209.948747 L0,214.910306 C0,214.910306 0.203810208,214.910306 0.271746945,214.910306 C4.55176132,214.910306 8.0844716,218.376602 8.0844716,222.658496 C8.0844716,226.94039 4.55176132,230.406685 0.271746945,230.406685 C0.203810208,230.406685 0,230.406685 0,230.406685 L0,244 L4.75557153,244 C4.75557153,243.864067 4.75557153,243.7961 4.75557153,243.728134 C4.75557153,239.44624 8.28828181,235.911978 12.5682962,235.911978 C16.8483106,235.911978 20.3810208,239.514206 20.3810208,243.728134 C20.3810208,243.7961 20.3810208,243.864067 20.3810208,244 L25.1365924,244 C25.1365924,243.864067 25.1365924,243.7961 25.1365924,243.728134 C25.1365924,239.44624 28.6693027,235.911978 32.949317,235.911978 C37.2293314,235.911978 40.7620417,239.514206 40.7620417,243.728134 C40.7620417,243.7961 40.7620417,243.864067 40.7620417,244 L46.1969806,244 C46.1969806,243.864067 46.1969806,243.7961 46.1969806,243.728134 C46.1969806,239.44624 49.3900072,235.911978 53.6700216,235.911978 C57.9500359,235.911978 61.1430625,239.514206 61.1430625,243.728134 C61.1430625,243.7961 61.1430625,243.864067 61.1430625,244 L66.5780014,244 C66.5780014,243.864067 66.5780014,243.7961 66.5780014,243.728134 C66.5780014,239.44624 70.1107117,235.911978 74.3907261,235.911978 C78.6707405,235.911978 82.2034508,239.514206 82.2034508,243.728134 C82.2034508,243.7961 82.2034508,243.864067 82.2034508,244 L86.9590223,244 C86.9590223,243.864067 86.9590223,243.7961 86.9590223,243.728134 C86.9590223,239.44624 90.4917326,235.911978 94.7717469,235.911978 C99.0517613,235.911978 102.584472,239.514206 102.584472,243.728134 C102.584472,243.7961 102.584472,243.864067 102.584472,244 L107.340043,244 C107.340043,243.864067 107.340043,243.7961 107.340043,243.728134 C107.340043,239.44624 110.872753,235.911978 115.152768,235.911978 C119.432782,235.911978 122.965492,239.514206 122.965492,243.728134 C122.965492,243.7961 122.965492,243.864067 122.965492,244 L127.721064,244 C127.721064,243.864067 127.721064,243.7961 127.721064,243.728134 C127.721064,239.44624 131.253774,235.911978 135.533789,235.911978 C139.813803,235.911978 143.346513,239.514206 143.346513,243.728134 C143.346513,243.7961 143.346513,243.864067 143.346513,244 L148.102085,244 C148.102085,243.864067 148.102085,243.7961 148.102085,243.728134 C148.102085,239.44624 151.634795,235.911978 155.914809,235.911978 C160.194824,235.911978 163.727534,239.514206 163.727534,243.728134 C163.727534,243.7961 163.727534,243.864067 163.727534,244 L169.162473,244 C169.162473,243.864067 169.162473,243.7961 169.162473,243.728134 C169.162473,239.44624 172.3555,235.911978 176.635514,235.911978 C180.915528,235.911978 184.108555,239.514206 184.108555,243.728134 C184.108555,243.7961 184.108555,243.864067 184.108555,244 L188.864127,244 L188.864127,230.882451 C184.787922,230.746518 181.323149,227.348189 181.323149,223.134262 C181.323149,218.920334 184.787922,215.454039 188.864127,215.386072 L188.864127,210.424513 C186.690151,210.288579 184.719986,209.269081 183.293314,207.773816 Z" id="Path"></path>
                <path d="M147.015097,134.709749 C137.503954,134.709749 127.924874,136.748747 118.753415,138.787744 C109.989576,140.690808 101.905104,142.525905 93.7526959,142.525905 L93.7526959,146.6039 C102.652408,146.6039 110.73688,144.768802 119.772466,142.797772 C128.740115,140.826741 138.115385,138.85571 147.083034,138.85571 C155.575126,138.85571 161.213875,140.622841 167.260244,142.525905 C172.083753,144.02117 176.771387,145.584401 183.361251,146.264067 C182.274263,145.040669 181.526959,143.545404 181.391086,141.84624 C176.567577,141.098607 172.55931,139.875209 168.686916,138.651811 C162.57261,136.68078 156.186556,134.709749 147.015097,134.709749 Z" id="Path" fill="#7D387B" fill-rule="nonzero"></path>
                <path d="M147.083034,144.972702 C137.571891,144.972702 128.060748,147.011699 118.889288,149.050696 C113.318476,150.274095 108.087347,151.429526 102.924155,152.109192 L103.603523,156.187187 C108.970525,155.439554 114.541337,154.216156 119.976276,153.060724 C128.943925,151.089694 138.183321,149.118663 147.150971,149.118663 C155.643063,149.118663 161.281812,150.885794 167.328181,152.788858 C172.151689,154.284123 176.839324,155.847354 183.361251,156.527019 C184.787922,154.963788 186.758088,153.94429 189,153.876323 L189,152.788858 C180.575845,152.516992 174.529475,150.681894 168.822789,148.914763 C162.57261,146.943733 156.254493,144.972702 147.083034,144.972702 Z" id="Path" fill="#7D387B" fill-rule="nonzero"></path>
                <path d="M147.083034,155.235655 C137.571891,155.235655 128.060748,157.274652 118.889288,159.313649 C115.152768,160.129248 109.581955,160.87688 105.981308,161.556546 L106.864486,165.566574 C110.53307,164.886908 116.307692,164.071309 119.908339,163.323677 C128.875988,161.352646 138.115385,159.381616 147.083034,159.381616 C155.575126,159.381616 161.213875,161.148747 167.260244,163.051811 C172.083753,164.547075 176.771387,166.110306 183.361251,166.789972 C182.274263,165.566574 181.526959,164.071309 181.391086,162.372145 C176.567577,161.624513 172.55931,160.401114 168.754853,159.177716 C162.57261,157.206685 156.254493,155.235655 147.083034,155.235655 Z" id="Path" fill="#7D387B" fill-rule="nonzero"></path>
                <path d="M147.083034,165.498607 C137.571891,165.498607 128.060748,167.537604 118.889288,169.576602 C115.152768,170.392201 111.620058,171.139833 108.01941,171.819499 L108.902588,175.829526 C112.571172,175.149861 116.307692,174.334262 119.908339,173.58663 C128.875988,171.615599 138.115385,169.644568 147.083034,169.644568 C155.575126,169.644568 161.213875,171.411699 167.260244,173.314763 C172.083753,174.810028 176.771387,176.373259 183.293314,177.052925 C184.719986,175.489694 186.690151,174.470195 188.932063,174.402228 L188.932063,173.314763 C180.507908,173.042897 174.461538,171.207799 168.754853,169.440669 C162.57261,167.469638 156.254493,165.498607 147.083034,165.498607 Z" id="Path" fill="#7D387B" fill-rule="nonzero"></path>
                <path d="M147.083034,175.76156 C137.571891,175.76156 128.060748,177.800557 118.889288,179.839554 C115.152768,180.655153 111.620058,181.402786 108.01941,182.082451 L108.902588,186.092479 C112.571172,185.412813 116.307692,184.597214 119.908339,183.849582 C128.875988,181.878552 138.115385,179.907521 147.083034,179.907521 C155.575126,179.907521 161.213875,181.674652 167.260244,183.577716 C172.083753,185.072981 176.771387,186.636212 183.361251,187.315877 C182.274263,186.092479 181.526959,184.597214 181.391086,182.89805 C176.567577,182.150418 172.55931,180.927019 168.754853,179.703621 C162.57261,177.732591 156.254493,175.76156 147.083034,175.76156 Z" id="Path" fill="#7D387B" fill-rule="nonzero"></path>
                <path d="M147.083034,186.024513 C137.571891,186.024513 128.060748,188.06351 118.889288,190.102507 C113.454349,191.257939 108.291157,192.41337 103.263839,193.093036 L103.943206,197.171031 C109.174335,196.423398 114.677211,195.267967 119.976276,194.112535 C128.943925,192.141504 138.183321,190.170474 147.150971,190.170474 C155.643063,190.170474 161.281812,191.937604 167.328181,193.840669 C172.151689,195.335933 176.839324,196.899164 183.361251,197.57883 C184.787922,196.015599 186.758088,194.9961 189,194.928134 L189,193.840669 C180.575845,193.568802 174.529475,191.733705 168.822789,189.966574 C162.57261,187.995543 156.254493,186.024513 147.083034,186.024513 Z" id="Path" fill="#7D387B" fill-rule="nonzero"></path>
                <path d="M147.015097,196.287465 C137.503954,196.287465 127.924874,198.326462 118.753415,200.36546 C109.989576,202.268524 101.905104,204.103621 93.7526959,204.103621 L93.7526959,208.181616 C102.652408,208.181616 110.73688,206.346518 119.772466,204.375487 C128.740115,202.404457 138.115385,200.433426 147.083034,200.433426 C155.575126,200.433426 161.213875,202.200557 167.260244,204.103621 C172.083753,205.598886 176.771387,207.162117 183.361251,207.841783 C182.274263,206.618384 181.526959,205.12312 181.391086,203.423955 C176.567577,202.676323 172.55931,201.452925 168.686916,200.229526 C162.57261,198.190529 156.186556,196.287465 147.015097,196.287465 Z" id="Path" fill="#7D387B" fill-rule="nonzero"></path>
            </g>
            <path d="M68.1572827,201.793718 C53.7730276,201.793718 42.090041,190.178133 42.090041,175.793718 C42.090041,161.476835 53.7730276,149.793718 68.089751,149.793718 C82.4064744,149.793718 94.0897522,161.476835 94.0897522,175.793718 C94.1569926,190.178133 82.4740061,201.793718 68.1572827,201.793718 Z M68.1572827,150.739172 C54.3132813,150.739172 43.035485,162.017094 43.035485,175.86125 C43.035485,189.705406 54.3132813,200.983328 68.1572827,200.983328 C82.0012841,200.983328 93.2790804,189.705406 93.2790804,175.86125 C93.2115487,161.949562 81.9337524,150.739172 68.1572827,150.739172 Z" id="Shape" fill="#7D387B" fill-rule="nonzero"></path>
            <path d="M68.6621024,199.709345 C55.6965852,199.709345 45.1621024,189.174862 45.1621024,176.209345 C45.1621024,163.243827 55.6965852,152.709345 68.6621024,152.709345 C81.6276197,152.709345 92.1621024,163.243827 92.1621024,176.209345 C92.1621024,189.174862 81.6276197,199.709345 68.6621024,199.709345 Z M68.6621024,153.722276 C56.2368151,153.722276 46.1750335,163.784057 46.1750335,176.209345 C46.1750335,188.634632 56.2368151,198.696414 68.6621024,198.696414 C81.0873898,198.696414 91.1491714,188.634632 91.1491714,176.209345 C91.1491714,163.784057 81.0198611,153.722276 68.6621024,153.722276 Z" id="Shape" fill="#7D387B" fill-rule="nonzero"></path>
            <path d="M68.6621024,213.709345 C48.0030115,213.709345 31.1621024,196.868436 31.1621024,176.209345 C31.1621024,155.550254 48.0030115,138.709345 68.6621024,138.709345 C89.3211933,138.709345 106.162102,155.550254 106.162102,176.209345 C106.162102,196.868436 89.3211933,213.709345 68.6621024,213.709345 Z M68.6621024,139.868436 C48.6166479,139.868436 32.2530115,156.16389 32.2530115,176.277526 C32.2530115,196.391163 48.5484661,212.686617 68.6621024,212.686617 C88.707557,212.686617 105.071193,196.391163 105.071193,176.277526 C105.071193,156.16389 88.707557,139.868436 68.6621024,139.868436 Z" id="Shape" fill="#7D387B" fill-rule="nonzero"></path>
            <path d="M68.6621024,218.709345 C45.2091519,218.709345 26.1621024,199.677472 26.1621024,176.243209 C26.1621024,152.808946 45.2091519,133.709345 68.6621024,133.709345 C92.115053,133.709345 111.162102,152.741217 111.162102,176.243209 C111.162102,199.609743 92.115053,218.709345 68.6621024,218.709345 Z M68.6621024,137.77309 C47.445994,137.77309 30.2290881,154.976277 30.2290881,176.17548 C30.2290881,197.374683 47.445994,214.577871 68.6621024,214.577871 C89.8782109,214.577871 107.095117,197.374683 107.095117,176.17548 C107.095117,154.976277 89.8104278,137.77309 68.6621024,137.77309 Z" id="Shape" fill="#7D387B" fill-rule="nonzero"></path>
            <g id="Group" transform="translate(33.162102, 140.709345)" fill="#7D387B" fill-rule="nonzero">
                <polygon id="Path" points="62.04009 17.6817308 62.9292414 18.9788462 62.04009 19.5932692 61.1509387 18.2961538 58.4834845 20.0711538 57.799522 19.0471154 64.2287703 14.8144231 66.0070731 17.4769231 65.1179217 18.0913462 64.0235816 16.4528846"></polygon>
                <path d="M60.8773536,24.2355769 C61.0141461,24.0990385 61.1509387,24.0307692 61.6981087,23.7576923 L62.7924489,23.2115385 C63.4080152,22.8701923 63.5448077,22.5971154 63.339619,22.0509615 L63.1344302,21.6413462 L60.2617873,23.0067308 L59.7146172,21.9144231 L66.6910357,18.5692308 L67.5117908,20.2076923 C68.0589608,21.3682692 67.7853758,22.0509615 66.6910357,22.5971154 L66.1438656,22.8701923 C65.3915067,23.2115385 64.8443367,23.2115385 64.3655628,22.8019231 C64.3655628,23.4846154 63.9551853,23.8942308 63.2028264,24.2355769 L62.1084863,24.7817308 C61.766505,24.9182692 61.49292,25.0548077 61.2877312,25.3278846 L60.8773536,24.2355769 Z M66.2806581,20.2076923 L64.1603741,21.2317308 L64.3655628,21.6413462 C64.5707516,22.0509615 64.8443367,22.1875 65.3915067,21.9144231 L66.0754693,21.5730769 C66.5542431,21.3682692 66.6910357,21.0269231 66.5542431,20.6855769 L66.2806581,20.2076923 Z" id="Shape"></path>
                <polygon id="Path" points="66.1438656 25.6009615 66.6226394 27.1711538 65.5966955 27.5125 65.1179217 25.9423077 62.9292414 26.625 63.5448077 28.6048077 62.5188638 28.9461538 61.5613162 25.8057692 68.9481122 23.4846154 69.9056599 26.625 68.879716 26.9663462 68.2641496 24.9865385"></polygon>
                <polygon id="Path" points="67.2382057 29.9019231 67.5117908 31.5403846 66.4174506 31.7451923 66.1438656 30.1067308 63.886789 30.4480769 64.2287703 32.4961538 63.1344302 32.7009615 62.5872601 29.4240385 70.2476411 28.1951923 70.7948112 31.4721154 69.7004711 31.6769231 69.3584898 29.6288462"></polygon>
                <path d="M70.9316037,32.9740385 L71,34.8855769 C71,36.1144231 70.3844337,36.7288462 69.153301,36.7288462 L65.2547142,36.7971154 C64.0235816,36.7971154 63.339619,36.2509615 63.2712227,35.0221154 L63.2028264,33.1105769 L70.9316037,32.9740385 Z M69.8372636,34.2028846 L64.2971666,34.3394231 L64.2971666,35.0221154 C64.2971666,35.4317308 64.5023554,35.6365385 65.0495254,35.6365385 L69.0849047,35.5682692 C69.6320748,35.5682692 69.8372636,35.2951923 69.8372636,34.9538462 L69.8372636,34.2028846 Z" id="Shape"></path>
                <path d="M69.0849047,38.0259615 C70.3160374,38.1625 70.9316037,38.9134615 70.7948112,40.0740385 C70.6580187,41.2346154 69.8372636,41.7807692 68.6061309,41.6442308 L64.6391479,41.0980769 C63.4080152,40.9615385 62.7924489,40.2105769 62.9292414,39.05 C63.0660339,37.8894231 63.886789,37.3432692 65.1179217,37.4798077 L69.0849047,38.0259615 Z M64.8443367,38.7086538 C64.2971666,38.6403846 64.0235816,38.8451923 64.0235816,39.2548077 C64.0235816,39.6644231 64.1603741,39.9375 64.7075441,40.0057692 L68.879716,40.5519231 C69.426886,40.6201923 69.7004711,40.4153846 69.7004711,40.0057692 C69.7688673,39.5961538 69.5636786,39.3230769 69.0165085,39.2548077 L64.8443367,38.7086538 Z" id="Shape"></path>
                <polygon id="Path" points="64.0919778 44.5115385 69.0849047 46.9692308 68.6061309 48.6076923 61.2193349 46.2865385 61.5613162 45.1942308 66.8278282 46.8326923 61.766505 44.375 62.1084863 43.2826923 67.580187 44.0336538 62.3820713 42.3951923 62.7240526 41.3711538 70.1108486 43.6923077 69.6320748 45.3307692"></polygon>
                <path d="M65.3231105,51.1336538 C66.4174506,51.7480769 66.6910357,52.7038462 66.0754693,53.7278846 C65.459903,54.7519231 64.5023554,54.9567308 63.4764115,54.3423077 L59.9882023,52.2942308 C58.8938621,51.6798077 58.6202771,50.7240385 59.2358434,49.7 C59.8514097,48.6759615 60.8089574,48.4711538 61.8349013,49.0855769 L65.3231105,51.1336538 Z M61.1509387,50.0413462 C60.6721648,49.7682692 60.3985798,49.8365385 60.193391,50.1778846 C59.9882023,50.5192308 60.0565985,50.7923077 60.5353723,51.1336538 L64.0919778,53.25 C64.5707516,53.5230769 64.8443367,53.4548077 65.0495254,53.1134615 C65.2547142,52.7721154 65.186318,52.4990385 64.7075441,52.1576923 L61.1509387,50.0413462 Z" id="Shape"></path>
                <polygon id="Path" points="60.6721648 55.2980769 59.7146172 56.5269231 58.8254658 55.8442308 59.7830135 54.6153846 57.3207481 52.6355769 58.073107 51.6798077 64.0919778 56.5269231 62.1084863 59.0528846 61.2193349 58.3701923 62.4504676 56.8"></polygon>
                <polygon id="Path" points="59.7830135 61.3057692 58.8938621 62.125 53.6957464 56.3903846 54.5848978 55.5711538"></polygon>
                <polygon id="Path" points="55.6108417 62.0567308 52.3278212 57.4826923 53.2169726 56.8682692 57.7311257 63.1490385 56.499993 64.0365385 52.806595 61.0326923 55.5424454 64.7875 54.653294 65.4019231 50.1391409 59.1211538 51.1650848 58.3701923"></polygon>
                <polygon id="Path" points="50.4811222 63.7634615 49.113197 64.5144231 48.6344232 63.5586538 50.0023484 62.8076923 48.4976307 60.0086538 49.5919708 59.4625 53.1485763 66.2894231 50.2759334 67.7913462 49.7971596 66.8355769 51.5754624 65.8798077"></polygon>
                <path d="M48.4976307,66.4942308 C48.9080082,67.6548077 48.5660269,68.5423077 47.4032905,68.9519231 C46.3089504,69.3615385 45.419799,68.8836538 45.0094215,67.7230769 L43.6414963,63.9682692 C43.2311187,62.8076923 43.5731,61.9201923 44.7358364,61.5105769 C45.8301766,61.1009615 46.7193279,61.5788462 47.1297055,62.7394231 L48.4976307,66.4942308 Z M45.9669691,63.0807692 C45.7617803,62.5346154 45.4881953,62.4663462 45.146214,62.6028846 C44.8042327,62.7394231 44.5990439,63.0125 44.8042327,63.5586538 L46.1721579,67.5182692 C46.3773466,68.0644231 46.6509317,68.1326923 46.992913,67.9961538 C47.3348943,67.8596154 47.5400831,67.5865385 47.3348943,67.0403846 L45.9669691,63.0807692 Z" id="Shape"></path>
                <path d="M40.0164945,62.8759615 C40.153287,63.0807692 40.153287,63.1490385 40.2900796,63.7634615 L40.4952683,64.9240385 C40.6320609,65.6067308 40.9056459,65.8115385 41.452816,65.7432692 L41.8631935,65.675 L41.2476272,62.6028846 L42.4103636,62.3980769 L43.9150813,69.9759615 L42.1367786,70.3173077 C40.9056459,70.5903846 40.2216833,70.1125 40.0164945,68.8836538 L39.879702,68.2692308 C39.7429095,67.5182692 39.879702,66.9038462 40.3584758,66.5625 C39.7429095,66.4259615 39.4009282,65.8798077 39.2641357,65.1288462 L39.0589469,63.9682692 C38.9905506,63.6269231 38.9221544,63.3538462 38.7169656,63.0807692 L40.0164945,62.8759615 Z M42.6155524,69.0884615 L42.1367786,66.7673077 L41.6580048,66.8355769 C41.1792309,66.9038462 40.9740422,67.1769231 41.1108347,67.7913462 L41.2476272,68.5423077 C41.3844197,69.0884615 41.5896085,69.2932692 41.9999861,69.225 L42.6155524,69.0884615 Z" id="Shape"></path>
                <polygon id="Path" points="35.9811152 65.4701923 35.2287564 71 33.5188499 71 33.3820574 63.2855769 34.5447938 63.2855769 34.61319 68.8153846 35.3655489 63.2855769 36.5282853 63.2855769 37.5542292 68.7471154 37.4858329 63.2855769 38.5801731 63.2855769 38.7169656 71 37.0070591 71"></polygon>
                <path d="M28.9363005,62.5346154 L30.1674332,62.7394231 L30.1674332,64.1730769 L31.6721509,64.3778846 L32.0825285,63.0125 L33.1768686,63.2173077 L30.7146033,70.6586538 L28.9363005,70.3855769 L28.9363005,62.5346154 Z M31.3301696,65.4019231 L30.1674332,65.1971154 L30.0990369,69.1567308 L31.3301696,65.4019231 Z" id="Shape"></path>
                <polygon id="Path" points="27.1579978 70.0442308 23.532996 68.9519231 23.8749773 67.8596154 25.10611 68.2009615 27.0212053 61.8519231 28.1839417 62.1932692 26.2688464 68.5423077 27.4999791 68.8836538"></polygon>
                <polygon id="Path" points="22.5754484 68.5423077 21.4811083 68.0644231 24.4221474 60.8961538 25.5164876 61.3740385"></polygon>
                <path d="M21.0023344,65.8798077 C20.3867681,66.9721154 19.4976167,67.2451923 18.4716728,66.6990385 C17.445729,66.1528846 17.1721439,65.1971154 17.7877103,64.1048077 L19.7028055,60.5548077 C20.3183718,59.4625 21.2075232,59.1894231 22.2334671,59.7355769 C23.259411,60.2817308 23.532996,61.2375 22.9174297,62.3298077 L21.0023344,65.8798077 Z M21.8914858,61.7153846 C22.1650709,61.2375 22.0282783,60.9644231 21.686297,60.7596154 C21.3443157,60.5548077 21.0023344,60.6230769 20.7971457,61.1009615 L18.8136541,64.7875 C18.5400691,65.2653846 18.6768616,65.5384615 19.0188429,65.7432692 C19.3608242,65.9480769 19.7028055,65.8798077 19.9079943,65.4019231 L21.8914858,61.7153846 Z" id="Shape"></path>
                <polygon id="Path" points="15.872615 62.4663462 19.292428 58.0288462 20.1815793 58.7115385 15.4622374 64.8557692 14.2311048 63.9 16.0778038 59.4625 13.2735571 63.1490385 12.3844058 62.4663462 17.1037477 56.3221154 18.1296916 57.0730769"></polygon>
                <polygon id="Path" points="9.16978158 53.7961538 8.28063021 52.4990385 9.16978158 51.8846154 10.058933 53.1817308 12.6579908 51.4067308 13.3419534 52.4307692 6.98110128 56.8 5.13440228 54.1375 6.02355365 53.5230769 7.18629006 55.1615385"></polygon>
                <path d="M10.2641217,47.1740385 C10.1273292,47.3105769 10.058933,47.4471154 9.44336662,47.7201923 L8.34902647,48.2663462 C7.73346014,48.6076923 7.59666762,48.9490385 7.80185639,49.4269231 L8.00704517,49.7682692 L10.8112918,48.3346154 L11.3584619,49.4269231 L4.45043969,52.9086538 L3.62968458,51.2701923 C3.0825145,50.1778846 3.35609954,49.4269231 4.38204343,48.8807692 L4.9292135,48.6076923 C5.6131761,48.2663462 6.22874243,48.2663462 6.70751625,48.6076923 C6.63911999,47.925 7.1178938,47.5153846 7.80185639,47.1740385 L8.89619654,46.6278846 C9.23817784,46.4913462 9.44336662,46.3548077 9.6485554,46.0817308 L10.2641217,47.1740385 Z M4.9292135,51.3384615 L7.04949754,50.2461538 L6.84430876,49.8365385 C6.63911999,49.4269231 6.36553495,49.2903846 5.81836487,49.5634615 L5.13440228,49.9048077 C4.65562847,50.1778846 4.51883595,50.4509615 4.72402473,50.7923077 L4.9292135,51.3384615 Z" id="Shape"></path>
                <polygon id="Path" points="4.99760976 45.9451923 4.45043969 44.375 5.47638358 44.0336538 6.02355365 45.6038462 8.14383769 44.9211538 7.4598751 42.9413462 8.48581899 42.6 9.51176288 45.7403846 2.26175939 48.1298077 1.2358155 44.9894231 2.26175939 44.6480769 2.94572198 46.6278846"></polygon>
                <polygon id="Path" points="3.83487335 41.7125 3.56128832 40.0740385 4.65562847 39.8692308 4.9292135 41.5076923 7.18629006 41.0980769 6.7759125 39.05 7.87025265 38.8451923 8.48581899 42.1221154 0.893834204 43.4875 0.27826787 40.2105769 1.37260802 40.0057692 1.78298558 42.0538462"></polygon>
                <path d="M0.0730790922,38.6403846 L0.00468283291,36.7288462 C-0.0637134264,35.5 0.620249167,34.8855769 1.85138183,34.8173077 L5.74996862,34.6807692 C6.98110128,34.6125 7.66506388,35.2269231 7.73346014,36.3875 L7.80185639,38.2990385 L0.0730790922,38.6403846 Z M1.09902298,37.4115385 L6.63911999,37.2067308 L6.63911999,36.5240385 C6.63911999,36.1144231 6.43393121,35.9096154 5.88676113,35.9096154 L1.85138183,36.0461538 C1.30421176,36.0461538 1.09902298,36.3192308 1.09902298,36.6605769 L1.09902298,37.4115385 Z" id="Shape"></path>
                <path d="M1.85138183,33.5884615 C0.620249167,33.4519231 0.00468283291,32.7009615 0.141475352,31.5403846 C0.27826787,30.3798077 1.03062672,29.7653846 2.26175939,29.9019231 L6.22874243,30.3798077 C7.4598751,30.5163462 8.07544143,31.2673077 7.93864891,32.4278846 C7.80185639,33.5884615 7.04949754,34.2028846 5.81836487,34.0663462 L1.85138183,33.5884615 Z M6.02355365,32.8375 C6.57072373,32.9057692 6.7759125,32.7009615 6.84430876,32.2913462 C6.91270502,31.8817308 6.70751625,31.6086538 6.16034617,31.6086538 L1.98817435,31.1307692 C1.44100428,31.0625 1.2358155,31.2673077 1.16741924,31.6769231 C1.09902298,32.0865385 1.30421176,32.3596154 1.85138183,32.3596154 L6.02355365,32.8375 Z" id="Shape"></path>
                <polygon id="Path" points="6.70751625 27.0346154 1.64619306 24.7134615 2.12496687 23.075 9.58015914 25.2596154 9.23817784 26.3519231 3.90326961 24.7817308 8.9645928 27.1711538 8.62261151 28.2634615 3.15091076 27.5807692 8.41742273 29.1509615 8.14383769 30.175 0.688645426 27.9903846 1.16741924 26.3519231"></polygon>
                <path d="M5.33959106,20.4125 C4.24525091,19.7980769 3.97166587,18.9105769 4.58723221,17.8182692 C5.20279854,16.7259615 6.09194991,16.5894231 7.18629006,17.2038462 L10.6744993,19.1836538 C11.7688394,19.7980769 12.0424245,20.6855769 11.4268581,21.7778846 C10.8112918,22.8019231 9.92214043,23.0067308 8.82780028,22.3923077 L5.33959106,20.4125 Z M9.51176288,21.4365385 C9.99053669,21.7096154 10.2641217,21.5730769 10.4693105,21.3 C10.6744993,20.9586538 10.606103,20.6173077 10.1273292,20.3442308 L6.50232747,18.2961538 C6.02355365,18.0230769 5.74996862,18.1596154 5.54477984,18.4326923 C5.33959106,18.7740385 5.40798732,19.1153846 5.88676113,19.3884615 L9.51176288,21.4365385 Z" id="Shape"></path>
                <polygon id="Path" points="9.99053669 16.1115385 10.9480843 14.8826923 11.8372357 15.5653846 10.8796881 16.7942308 13.4103497 18.7740385 12.6579908 19.7298077 6.50232747 15.0192308 8.48581899 12.4932692 9.37497036 13.1759615 8.14383769 14.7461538"></polygon>
                <polygon id="Path" points="10.6744993 10.1721154 11.5636507 9.35288462 16.8985589 14.9509615 16.0094075 15.7701923"></polygon>
                <polygon id="Path" points="14.8466711 9.35288462 18.1980878 13.8586538 17.3089364 14.5413462 12.6579908 8.32884615 13.8891235 7.44134615 17.6509177 10.3769231 14.8466711 6.69038462 15.7358225 6.07596154 20.3867681 12.2884615 19.3608242 13.0394231"></polygon>
                <polygon id="Path" points="19.9763906 7.50961538 21.3443157 6.75865385 21.8914858 7.71442308 20.5235606 8.46538462 22.0282783 11.2644231 20.9339382 11.8105769 17.2405402 5.05192308 20.0447868 3.55 20.5919569 4.50576923 18.8136541 5.46153846"></polygon>
                <path d="M21.8914858,4.71057692 C21.4811083,3.55 21.8230896,2.6625 22.9174297,2.25288462 C24.0117699,1.84326923 24.9009212,2.25288462 25.3112988,3.41346154 L26.7476202,7.16826923 C27.1579978,8.32884615 26.8160165,9.21634615 25.7216763,9.62596154 C24.6273362,10.0355769 23.7381848,9.62596154 23.3278073,8.46538462 L21.8914858,4.71057692 Z M24.4905437,8.12403846 C24.6957324,8.67019231 24.9693175,8.73846154 25.379695,8.60192308 C25.7900726,8.46538462 25.9268651,8.19230769 25.7216763,7.64615385 L24.2169586,3.75480769 C24.0117699,3.20865385 23.7381848,3.14038462 23.3278073,3.27692308 C22.9174297,3.41346154 22.7806372,3.68653846 22.985826,4.23269231 L24.4905437,8.12403846 Z" id="Shape"></path>
                <path d="M30.4410182,8.26057692 C30.3042257,8.05576923 30.2358294,7.9875 30.1674332,7.37307692 L29.8938482,6.2125 C29.7570556,5.52980769 29.4834706,5.325 28.9363005,5.39326923 L28.525923,5.46153846 L29.2098856,8.53365385 L28.0471492,8.80673077 L26.4056389,1.22884615 L28.1839417,0.819230769 C29.4150743,0.546153846 30.0990369,1.02403846 30.3042257,2.18461538 L30.4410182,2.79903846 C30.5778107,3.55 30.4410182,4.16442308 29.9622444,4.50576923 C30.5778107,4.64230769 30.919792,5.18846154 31.1249808,5.93942308 L31.3985659,7.1 C31.4669621,7.44134615 31.5353584,7.71442308 31.7405472,7.9875 L30.4410182,8.26057692 Z M27.7051679,2.04807692 L28.1839417,4.36923077 L28.6627155,4.30096154 C29.073093,4.23269231 29.3466781,3.95961538 29.2098856,3.34519231 L29.073093,2.59423077 C28.9363005,2.04807692 28.7311117,1.84326923 28.3207342,1.91153846 L27.7051679,2.04807692 Z" id="Shape"></path>
                <polygon id="Path" points="34.4763975 5.59807692 35.0919639 0.0682692308 36.8018703 -1.42018165e-14 37.0754554 7.71442308 35.912719 7.78269231 35.7075302 2.25288462 35.0235676 7.85096154 33.8608312 7.91923077 32.766491 2.45769231 32.9716798 7.91923077 31.8773397 7.9875 31.6721509 0.204807692 33.3820574 0.136538462"></polygon>
                <path d="M41.5212122,8.39711538 L40.2900796,8.19230769 L40.2900796,6.75865385 L38.7853619,6.55384615 L38.3749843,7.91923077 L37.2806442,7.78269231 L39.606117,0.273076923 L41.3844197,0.546153846 L41.5212122,8.39711538 Z M39.1273432,5.59807692 L40.2900796,5.73461538 L40.2900796,1.775 L39.1273432,5.59807692 Z" id="Shape"></path>
                <polygon id="Path" points="43.1627225 0.8875 46.7877242 1.91153846 46.5141392 3.00384615 45.2830065 2.6625 43.5047038 9.01153846 42.3419673 8.67019231 44.1202701 2.32115385 42.8891374 1.97980769"></polygon>
                <polygon id="Path" points="47.8136681 2.25288462 48.9764045 2.6625 46.1721579 9.83076923 45.0094215 9.42115385"></polygon>
                <path d="M49.3867821,4.91538462 C49.9339521,3.82307692 50.8914998,3.48173077 51.9174437,4.02788462 C52.9433875,4.57403846 53.2169726,5.52980769 52.6698025,6.62211538 L50.8231035,10.1721154 C50.2759334,11.2644231 49.3183858,11.6057692 48.2924419,11.0596154 C47.266498,10.5134615 46.992913,9.55769231 47.5400831,8.46538462 L49.3867821,4.91538462 Z M48.5660269,9.07980769 C48.2924419,9.55769231 48.4292344,9.89903846 48.7712157,10.0355769 C49.113197,10.2403846 49.4551783,10.1721154 49.6603671,9.62596154 L51.5754624,5.93942308 C51.8490474,5.46153846 51.7122549,5.12019231 51.3702736,4.98365385 C51.0282923,4.77884615 50.686311,4.84711538 50.4811222,5.39326923 L48.5660269,9.07980769 Z" id="Shape"></path>
                <polygon id="Path" points="54.5848978 8.19230769 51.2334811 12.6980769 50.3443297 12.0153846 54.9268791 5.80288462 56.1580117 6.69038462 54.379709 11.1278846 57.1155594 7.37307692 58.0047107 7.9875 53.4221614 14.2 52.3962175 13.4490385"></polygon>
            </g>
            <g id="Group" transform="translate(51.162102, 158.709345)" fill="#7D387B" fill-rule="nonzero">
                <path d="M18.1176471,19.9705882 C17.9803922,19.7647059 17.7058824,19.627451 17.4313725,19.627451 C17.1568627,19.627451 16.9509804,19.7647059 16.745098,19.9705882 C16.6764706,20.0392157 16.6764706,20.1078431 16.6764706,20.1764706 C16.6764706,20.245098 16.6078431,20.3137255 16.6078431,20.3823529 C16.6078431,20.5196078 16.6764706,20.7254902 16.745098,20.8627451 C16.8823529,21.0686275 17.1568627,21.2058824 17.4313725,21.2058824 C17.7058824,21.2058824 17.9117647,21.0686275 18.1176471,20.8627451 C18.1862745,20.7254902 18.254902,20.5882353 18.254902,20.3823529 C18.254902,20.3137255 18.254902,20.245098 18.1862745,20.1764706 C18.1862745,20.1078431 18.1862745,20.0392157 18.1176471,19.9705882 Z" id="Path"></path>
                <path d="M17.5,0 C7.82352941,0 0,7.82352941 0,17.5 C0,27.1764706 7.82352941,35 17.5,35 C27.1764706,35 35,27.1764706 35,17.5 C35,7.82352941 27.1764706,0 17.5,0 Z M23.745098,26.0784314 C21.4117647,26.0784314 19.4215686,24.6372549 18.5294118,22.6470588 C18.1862745,22.7843137 17.8431373,22.9215686 17.4313725,22.9215686 C17.0196078,22.9215686 16.6764706,22.8529412 16.3333333,22.6470588 C15.4411765,24.7058824 13.4509804,26.0784314 11.1176471,26.0784314 C8.02941176,26.0784314 5.49019608,23.5392157 5.49019608,20.4509804 C5.49019608,18.9411765 6.10784314,17.5686275 7.06862745,16.5392157 L8.92156863,13.3823529 C8.99019608,13.1764706 9.12745098,13.0392157 9.26470588,12.8333333 C9.26470588,12.8333333 9.26470588,12.7647059 9.33333333,12.7647059 C9.88235294,12.0784314 10.5686275,11.5294118 11.3921569,11.254902 C11.4607843,10.0196078 12.4901961,9.05882353 13.7941176,9.05882353 C15.0980392,9.05882353 16.1960784,10.1568627 16.1960784,11.4607843 C16.1960784,11.8039216 16.127451,12.1470588 15.9901961,12.4215686 C16.3333333,12.8333333 16.6078431,13.245098 16.8137255,13.7254902 C17.0196078,13.6568627 17.2941176,13.5882353 17.5,13.5882353 C17.7745098,13.5882353 17.9803922,13.6568627 18.1862745,13.7254902 C18.3921569,13.245098 18.6666667,12.8333333 18.9411765,12.4901961 C18.8039216,12.1470588 18.6666667,11.8039216 18.6666667,11.4607843 C18.6666667,10.1568627 19.7647059,9.05882353 21.0686275,9.05882353 C22.3039216,9.05882353 23.3333333,10.0196078 23.4705882,11.254902 C24.3627451,11.5294118 25.1176471,12.0784314 25.5980392,12.8333333 C25.5980392,12.8333333 25.6666667,12.9019608 25.6666667,12.9019608 C25.8039216,13.0392157 25.872549,13.245098 26.0098039,13.4509804 L27.8627451,16.6078431 C28.8235294,17.6372549 29.4411765,19.0098039 29.4411765,20.5196078 C29.4411765,23.5392157 26.9019608,26.0784314 23.745098,26.0784314 Z" id="Shape"></path>
                <path d="M11.1862745,16.745098 C10.3627451,16.745098 9.60784314,17.0196078 9.05882353,17.4313725 C8.16666667,18.1176471 7.54901961,19.1470588 7.54901961,20.3823529 C7.54901961,22.372549 9.19607843,24.0196078 11.1862745,24.0196078 C13.1764706,24.0196078 14.8235294,22.372549 14.8235294,20.3823529 C14.8235294,19.9705882 14.754902,19.5588235 14.6176471,19.1470588 C14.1372549,17.7745098 12.7647059,16.745098 11.1862745,16.745098 Z M11.1862745,18.872549 C10.9803922,18.872549 10.7745098,18.9411765 10.5686275,19.0098039 C10.5686275,19.0098039 10.5686275,19.0098039 10.5,19.0098039 C10.1568627,19.1470588 9.95098039,19.4215686 9.74509804,19.7647059 C9.67647059,19.9705882 9.60784314,20.1764706 9.60784314,20.3823529 C9.60784314,20.6568627 9.40196078,20.8627451 9.12745098,20.8627451 C8.85294118,20.8627451 8.64705882,20.6568627 8.64705882,20.3823529 C8.64705882,19.5588235 9.05882353,18.8039216 9.74509804,18.3235294 C10.1568627,18.0490196 10.6372549,17.8431373 11.1862745,17.8431373 C11.4607843,17.8431373 11.6666667,18.0490196 11.6666667,18.3235294 C11.6666667,18.6666667 11.4607843,18.872549 11.1862745,18.872549 Z" id="Shape"></path>
                <path d="M25.9411765,17.4313725 C25.3235294,17.0196078 24.5686275,16.745098 23.8137255,16.745098 C22.2352941,16.745098 20.8627451,17.7745098 20.3823529,19.1470588 C20.245098,19.5588235 20.1764706,19.9705882 20.1764706,20.3823529 C20.1764706,22.372549 21.8235294,24.0196078 23.8137255,24.0196078 C25.8039216,24.0196078 27.4509804,22.372549 27.4509804,20.3823529 C27.4509804,19.1470588 26.8333333,18.1176471 25.9411765,17.4313725 Z M23.6764706,18.872549 C23.4705882,18.872549 23.1960784,18.9411765 23.0588235,19.0098039 C22.7843137,19.1470588 22.5784314,19.3529412 22.4411765,19.5588235 C22.4411765,19.627451 22.372549,19.6960784 22.372549,19.6960784 C22.3039216,19.9019608 22.2352941,20.1078431 22.2352941,20.3137255 C22.2352941,20.5882353 22.0294118,20.7941176 21.754902,20.7941176 C21.4803922,20.7941176 21.2745098,20.5882353 21.2745098,20.3137255 C21.2745098,19.9705882 21.3431373,19.6960784 21.4117647,19.4215686 C21.754902,18.4607843 22.7156863,17.7745098 23.745098,17.7745098 C24.0196078,17.7745098 24.2254902,17.9803922 24.2254902,18.254902 C24.2254902,18.6666667 23.9509804,18.872549 23.6764706,18.872549 Z" id="Shape"></path>
            </g>
        </g>
    </g>
</svg>