<svg xmlns="http://www.w3.org/2000/svg" viewBox="0 0 408.79 408.79"><path d="M353.7 0H55.1A55.09 55.09 0 0 0 0 55.09V353.7A55.08 55.08 0 0 0 55.1 408.8h147.27l.25-146.08h-37.95a8.95 8.95 0 0 1-8.95-8.92l-.18-47.09a8.95 8.95 0 0 1 8.95-8.99h37.88v-45.5c0-52.8 32.25-81.55 79.35-81.55h38.65c4.95 0 8.96 4.01 8.96 8.96v39.7c0 4.95-4.01 8.95-8.95 8.96h-23.72c-25.62 0-30.58 12.18-30.58 30.04v39.4h56.29a8.95 8.95 0 0 1 8.89 10l-5.58 47.09a8.96 8.96 0 0 1-8.9 7.9h-50.45l-.25 146.08h87.63a55.08 55.08 0 0 0 55.09-55.09V55.08A55.09 55.09 0 0 0 353.7 0z" fill="#fff"/></svg>