<svg fill="none" height="411" viewBox="0 0 600 411" width="600" xmlns="http://www.w3.org/2000/svg" xmlns:xlink="http://www.w3.org/1999/xlink"><filter id="a" color-interpolation-filters="sRGB" filterUnits="userSpaceOnUse" height="410.666" width="360.352" x="109" y=".00293"><feFlood flood-opacity="0" result="BackgroundImageFix"/><feColorMatrix in="SourceAlpha" result="hardAlpha" type="matrix" values="0 0 0 0 0 0 0 0 0 0 0 0 0 0 0 0 0 0 127 0"/><feOffset dy="4"/><feGaussianBlur stdDeviation="2"/><feComposite in2="hardAlpha" operator="out"/><feColorMatrix type="matrix" values="0 0 0 0 0 0 0 0 0 0 0 0 0 0 0 0 0 0 0.25 0"/><feBlend in2="BackgroundImageFix" mode="normal" result="effect1_dropShadow_69_97"/><feColorMatrix in="SourceAlpha" result="hardAlpha" type="matrix" values="0 0 0 0 0 0 0 0 0 0 0 0 0 0 0 0 0 0 127 0"/><feOffset dy="-4"/><feGaussianBlur stdDeviation="10.5"/><feComposite in2="hardAlpha" operator="out"/><feColorMatrix type="matrix" values="0 0 0 0 0 0 0 0 0 0 0 0 0 0 0 0 0 0 0.3 0"/><feBlend in2="effect1_dropShadow_69_97" mode="normal" result="effect2_dropShadow_69_97"/><feBlend in="SourceGraphic" in2="effect2_dropShadow_69_97" mode="normal" result="shape"/></filter><path d="m0 15h600v389h-600z" fill="#e2d0e1"/><g filter="url(#a)"><path d="m431.866 306.304c-1.421-5.265 1.74-10.767 6.812-12.228l-1.674-6.2c-5.14 1.206-10.617-1.871-12.038-7.137-1.422-5.266 1.74-10.767 6.811-12.228l-1.673-6.2c-5.141 1.206-10.617-1.871-12.039-7.137-1.421-5.266 1.74-10.767 6.812-12.228l-1.674-6.201c-5.14 1.207-10.617-1.871-12.038-7.137s1.74-10.767 6.811-12.228l-1.719-6.37c-5.14 1.206-10.617-1.871-12.038-7.137-1.422-5.266 1.74-10.767 6.811-12.228l-1.673-6.2c-5.141 1.206-10.617-1.871-12.039-7.137-1.421-5.266 1.74-10.767 6.812-12.228l-1.674-6.201c-5.14 1.206-10.617-1.871-12.038-7.137-1.422-5.266 1.74-10.767 6.811-12.228l-1.673-6.2c-5.141 1.206-10.617-1.871-12.039-7.137-1.421-5.266 1.74-10.767 6.812-12.228l-1.674-6.2c-5.14 1.206-10.617-1.872-12.038-7.137-1.421-5.2664 1.74-10.7676 6.812-12.2284l-1.674-6.2003c-5.14 1.206-10.617-1.8712-12.039-7.1371-1.421-5.266 1.74-10.7672 6.812-12.228l-1.765-6.54c-5.141 1.206-10.617-1.8712-12.039-7.1372-1.421-5.2659 1.74-10.7671 6.812-12.2279l-3.485-12.9101-5.604 1.5135c1.291 5.119-1.74 10.7671-7.089 12.2118s-10.895-1.8874-12.27-6.9835l-6.199 1.674c1.291 5.1191-1.74 10.7672-7.089 12.2119s-10.895-1.8874-12.27-6.9835l-6.199 1.674c1.291 5.1191-1.74 10.7672-7.089 12.2119-5.35 1.4447-10.895-1.8874-12.271-6.9835l-6.198 1.674c1.291 5.1191-1.74 10.7672-7.089 12.2119-5.519 1.4905-11.065-1.8415-12.525-6.9147l-6.199 1.674c1.291 5.1191-1.74 10.7672-7.089 12.2119s-10.895-1.8874-12.27-6.9835l-6.199 1.674c1.291 5.1191-1.74 10.7672-7.089 12.2119-5.434 1.4676-10.98-1.8645-12.355-6.9605l-6.199 1.674c1.291 5.119-1.825 10.79-7.089 12.2118-5.349 1.4447-10.895-1.8874-12.355-6.9605l-6.199 1.674c1.291 5.119-1.74 10.7671-7.089 12.2118s-10.895-1.8873-12.27-6.9834l-6.284 1.6969c1.376 5.0961-1.74 10.7672-7.089 12.2119-5.349 1.4446-10.895-1.8874-12.27-6.9835l-6.114 1.6511 3.462 12.8253s.254-.069.339-.092c5.35-1.445 10.934 1.695 12.378 7.046 1.468 5.435-1.778 10.96-7.128 12.404-.085.023-.339.092-.339.092l1.673 6.2s.255-.069.34-.092c5.349-1.444 10.934 1.695 12.378 7.046s-1.802 10.875-7.151 12.32c-.085.023-.34.091-.34.091l1.673 6.201s.255-.069.34-.092c5.349-1.445 10.934 1.694 12.378 7.045 1.445 5.351-1.802 10.875-7.151 12.32-.085.023-.34.092-.34.092l1.674 6.2s.255-.069.34-.092c5.349-1.444 10.933 1.695 12.378 7.046 1.444 5.351-1.802 10.875-7.152 12.319-.084.023-.339.092-.339.092l1.673 6.2s.255-.068.34-.091c5.349-1.445 10.934 1.694 12.378 7.045s-1.802 10.875-7.151 12.32c-.085.023-.34.091-.34.091l1.674 6.201s.254-.069.339-.092c5.35-1.445 10.934 1.695 12.379 7.045 1.444 5.351-1.802 10.875-7.152 12.32-.085.023-.339.092-.339.092l1.673 6.2s.255-.069.34-.092c5.349-1.444 10.934 1.695 12.378 7.046s-1.802 10.875-7.151 12.319c-.085.023-.34.092-.34.092l1.674 6.2s.254-.068.339-.091c5.35-1.445 10.934 1.694 12.378 7.045 1.445 5.351-1.802 10.875-7.151 12.32-.085.023-.34.092-.34.092l1.674 6.2s.255-.069.34-.092c5.349-1.445 10.934 1.695 12.378 7.046 1.444 5.35-1.802 10.875-7.151 12.319-.085.023-.34.092-.34.092l1.673 6.2s.255-.069.34-.092c5.349-1.444 10.934 1.695 12.378 7.046 1.445 5.351-1.802 10.875-7.151 12.32-.085.023-.34.091-.34.091l1.674 6.201s.255-.069.34-.092c5.349-1.445 10.933 1.694 12.378 7.045 1.444 5.351-1.802 10.875-7.152 12.32-.085.023-.339.092-.339.092l4.585 16.987 6.113-1.651c-.229-.85-.068-.255-.068-.255-1.445-5.351 1.671-11.022 7.02-12.467 5.349-1.444 10.895 1.888 12.339 7.238 0 0-.16-.594.069.255l6.198-1.674c-.229-.849-.068-.255-.068-.255-1.445-5.35 1.671-11.022 7.02-12.466 5.349-1.445 10.895 1.887 12.339 7.238 0 0-.16-.595.069.255l6.198-1.674c-.229-.85-.068-.255-.068-.255-1.445-5.351 1.671-11.022 7.02-12.467 5.35-1.444 10.895 1.888 12.339 7.239 0 0-.16-.595.069.254l6.199-1.674c-.23-.849-.069-.254-.069-.254-1.444-5.351 1.671-11.022 7.02-12.467 5.35-1.445 10.895 1.887 12.339 7.238 0 0-.16-.594.069.255l6.199-1.674c-.23-.849-.069-.255-.069-.255-1.444-5.351 1.671-11.022 7.02-12.466 5.35-1.445 10.895 1.887 12.339 7.238 0 0-.16-.595.069.255l6.199-1.674c-.23-.85-.069-.255-.069-.255-1.444-5.351 1.671-11.022 7.02-12.467 5.35-1.444 10.895 1.888 12.34 7.238 0 0-.161-.594.068.255l6.199-1.674c-.229-.849-.069-.255-.069-.255-1.444-5.35 1.671-11.022 7.021-12.466 5.349-1.445 10.894 1.887 12.339 7.238 0 0-.161-.594.068.255l6.199-1.674c-.229-.849-.069-.255-.069-.255-1.444-5.351 1.671-11.022 7.021-12.467 5.349-1.444 10.894 1.888 12.339 7.239 0 0-.161-.595.068.254l6.199-1.674c-.229-.849-.069-.254-.069-.254-1.444-5.351 1.671-11.022 7.021-12.467 5.349-1.445 10.895 1.887 12.339 7.238 0 0-.161-.594.069.255l5.604-1.513-4.425-16.393c-4.631 1.069-10.108-2.009-11.552-7.36z" fill="#f2e8f2"/><path d="m353.264 48.5043-200.389 54.1187 71.984 266.695 200.389-54.118z" fill="#8f4a8b"/><path d="m345.596 60.599-180.01 48.615 66.941 248.01 180.01-48.615z" fill="#a94ca6"/><path d="m228.174 248.956c-7.725-28.623 11.183-47.672 42.6-56.156 11.463-3.096 19.55-4.187 28.699-4.379l-3.874-14.354c-3.714-13.76-13.036-18.259-29.169-13.902-16.388 4.426-23.013 12.958-28.201 20.738l-17.406 4.701-7.52-27.858c11.201-9.131 27.069-18.519 53.646-25.697 35.408-9.562 57.183-3.141 65.619 28.115l18.34 67.948c.848 3.143 5.162 5.623 8.304 4.774l7.302-1.972 4.929 18.261c-4.332 4.541-11.593 8.69-21.528 11.373-15.878 4.288-25.641.181-31.972-9.773-6.819 15.237-18.364 23.093-35.006 27.588-25.496 6.794-47.45-2.312-54.763-29.407zm84.137-12.972-7.863-29.132c-6.219.586-13.149 1.91-20.452 3.883-15.368 4.15-23.012 12.958-19.298 26.717 3.714 13.76 13.545 18.121 26.282 14.681 9.572-2.676 16.421-8.353 21.331-16.149z" fill="#fff"/><g fill="#7d387b"><path d="m359.184 207.47c-11.888 3.21-23.172 8.991-33.948 14.635-10.311 5.337-19.796 10.359-29.986 13.111l1.376 5.096c11.123-3.004 20.608-8.027 31.237-13.54 10.543-5.49 21.596-11.117 32.804-14.144 10.614-2.867 18.258-2.562 26.456-2.224 6.533.24 12.92.611 21.385-.764-1.771-1.162-3.209-2.778-3.952-4.856-6.281.694-11.704.518-16.956.297-8.307-.4-16.953-.707-28.416 2.389z"/><path d="m362.73 220.272c-11.887 3.21-23.087 8.969-33.862 14.612-6.55 3.41-12.698 6.619-18.922 9.211l2.224 4.867c6.456-2.746 13.006-6.155 19.409-9.433 10.544-5.49 21.427-11.072 32.635-14.099 10.614-2.867 18.257-2.562 26.456-2.224 6.533.24 12.919.611 21.3-.741 1.256-2.435 3.374-4.374 6.153-5.216l-.366-1.359c-10.621 2.504-18.797 2.252-26.526 1.97-8.476-.354-17.038-.684-28.501 2.412z"/><path d="m366.192 233.097c-11.887 3.211-23.087 8.969-33.862 14.613-4.395 2.28-11.106 5.095-15.377 7.16l2.457 4.713c4.356-2.088 11.298-5.056 15.546-7.206 10.543-5.49 21.426-11.072 32.634-14.099 10.614-2.866 18.258-2.561 26.457-2.224 6.533.24 12.919.612 21.385-.763-1.772-1.162-3.21-2.779-3.953-4.856-6.281.694-11.703.518-16.871.273-8.392-.376-16.953-.707-28.416 2.389z"/><path d="m369.654 245.922c-11.888 3.211-23.087 8.969-33.863 14.613-4.395 2.28-8.558 4.407-12.829 6.472l2.457 4.713c4.356-2.088 8.751-4.368 12.999-6.518 10.543-5.49 21.426-11.072 32.634-14.099 10.614-2.866 18.258-2.561 26.457-2.224 6.533.241 12.919.612 21.299-.74 1.256-2.435 3.375-4.374 6.154-5.216l-.367-1.359c-10.621 2.504-18.797 2.251-26.525 1.969-8.392-.376-16.953-.706-28.416 2.389z"/><path d="m373.115 258.747c-11.887 3.211-23.087 8.969-33.862 14.613-4.395 2.281-8.558 4.407-12.829 6.472l2.456 4.713c4.356-2.088 8.751-4.368 12.999-6.518 10.544-5.49 21.427-11.072 32.635-14.099 10.614-2.866 18.257-2.561 26.456-2.224 6.533.241 12.919.612 21.385-.763-1.771-1.162-3.21-2.778-3.953-4.856-6.28.694-11.703.518-16.87.274-8.392-.377-16.954-.707-28.417 2.388z"/><path d="m376.577 271.572c-11.887 3.211-23.087 8.969-33.862 14.613-6.403 3.279-12.467 6.465-18.521 9.012l2.225 4.866c6.286-2.7 12.774-6.001 19.007-9.234 10.543-5.49 21.426-11.072 32.634-14.098 10.614-2.867 18.258-2.562 26.457-2.225 6.533.241 12.919.612 21.3-.74 1.255-2.435 3.374-4.374 6.153-5.216l-.367-1.359c-10.62 2.504-18.796 2.252-26.525 1.97-8.476-.354-17.038-.684-28.501 2.411z"/><path d="m379.954 284.421c-11.888 3.21-23.172 8.991-33.947 14.635-10.312 5.337-19.797 10.359-29.987 13.11l1.376 5.097c11.123-3.005 20.609-8.027 31.237-13.54 10.543-5.49 21.596-11.117 32.804-14.144 10.614-2.867 18.258-2.562 26.457-2.225 6.533.241 12.919.612 21.384-.763-1.771-1.162-3.209-2.778-3.952-4.856-6.281.694-11.703.518-16.956.297-8.33-.485-16.953-.707-28.416 2.389z"/><path d="m282.704 318.339c-18.086 4.885-36.719-5.757-41.602-23.848-4.86-18.006 5.864-36.667 23.865-41.529 18.001-4.861 36.656 5.865 41.517 23.872 4.967 18.068-5.779 36.644-23.78 41.505zm-17.331-64.21c-17.407 4.7-27.759 22.714-23.059 40.126 4.7 17.411 22.708 27.766 40.115 23.065s27.758-22.715 23.059-40.126c-4.808-17.474-22.794-27.744-40.115-23.065z"/><path d="m281.856 315.196c-16.303 4.403-33.125-5.269-37.527-21.577-4.402-16.307 5.268-33.134 21.571-37.537s33.125 5.269 37.527 21.577c4.401 16.307-5.268 33.135-21.571 37.537zm-15.612-57.84c-15.624 4.219-24.86 20.291-20.641 35.919 4.218 15.628 20.285 24.867 35.909 20.647 15.623-4.219 24.859-20.291 20.641-35.919s-20.371-24.844-35.909-20.647z"/><path d="m286.487 332.353c-25.728 6.949-52.364-8.366-59.31-34.102-6.946-25.735 8.364-52.378 34.092-59.326s52.363 8.367 59.31 34.102c6.946 25.735-8.364 52.378-34.092 59.326zm-24.828-91.984c-24.964 6.742-39.863 32.545-33.1 57.6 6.762 25.056 32.535 39.875 57.584 33.11 24.963-6.742 39.863-32.545 33.1-57.6-6.763-25.056-32.62-39.852-57.584-33.11z"/><path d="m288.275 338.978c-29.379 7.935-59.681-9.488-67.613-38.876-7.932-29.387 9.463-59.783 38.842-67.717s59.681 9.489 67.636 38.961c7.909 29.303-9.486 59.698-38.865 67.632zm-27.396-101.497c-26.577 7.178-42.321 34.576-35.145 61.16 7.175 26.585 34.565 42.334 61.142 35.156 26.577-7.177 42.322-34.575 35.146-61.16-7.175-26.585-34.65-42.31-61.143-35.156z"/><path d="m300.84 254.574 1.539 1.315-.897 1.063-1.54-1.316-2.715 3.103-1.193-1.045 6.56-7.421 3.102 2.716-.898 1.062-1.908-1.671z"/><path d="m301.597 263.118c.124-.216.271-.347.858-.87l1.176-1.047c.649-.631.727-1.016.289-1.627l-.392-.441-3.108 2.662-1.046-1.175 7.538-6.501 1.569 1.763c1.069 1.26.958 2.202-.217 3.248l-.587.523c-.82.677-1.499.86-2.231.511.229.85-.143 1.497-.962 2.174l-1.175 1.046c-.379.285-.673.546-.836.955zm5.355-6.823-2.288 1.985.392.44c.393.441.778.519 1.366-.004l.734-.654c.526-.415.581-.886.296-1.264z"/><path d="m308.594 263.05 1.121 1.793-1.159.769-1.121-1.793-2.488 1.583 1.429 2.257-1.159.769-2.244-3.586 8.391-5.365 2.244 3.586-1.159.769-1.429-2.257z"/><path d="m311.396 268.034.89 1.947-1.289.622-.89-1.947-2.688 1.182 1.113 2.433-1.29.622-1.78-3.894 9.097-4.097 1.78 3.894-1.29.621-1.112-2.433z"/><path d="m317.013 270.618.727 2.355c.413 1.529-.145 2.5-1.673 2.913l-4.817 1.392c-1.529.413-2.561-.038-3.059-1.543l-.727-2.356zm-.946 1.896-6.831 2.027.229.85c.137.509.461.695 1.14.512l4.987-1.438c.679-.184.842-.592.728-1.017z"/><path d="m316.417 277.522c1.574-.243 2.591.485 2.811 1.975s-.616 2.445-2.19 2.687l-5.108.651c-1.575.243-2.591-.485-2.811-1.975s.616-2.444 2.19-2.687zm-5.035 2.271c-.702.099-.973.446-.836.955.138.51.4.804 1.102.705l5.363-.719c.702-.099.973-.445.835-.955-.052-.532-.399-.803-1.101-.705z"/><path d="m312.397 287.265 7.023 1.384-.044 2.199-9.95-.411.058-1.474 7.088.273-7.108-1.361.057-1.474 7.046-.9-7.004-.296.081-1.388 9.95.411-.045 2.199z"/><path d="m316.149 295.091c1.565.398 2.225 1.495 1.805 2.975-.42 1.481-1.54 2.057-3.02 1.636l-5.019-1.378c-1.565-.398-2.225-1.495-1.805-2.976.421-1.48 1.541-2.056 3.021-1.635zm-5.547.04c-.686-.179-1.002-.002-1.143.491-.14.493.037.81.746 1.074l5.126 1.441c.686.179 1.003.002 1.143-.491s-.037-.81-.746-1.074z"/><path d="m311.773 301.832-.776 1.849-1.333-.551.776-1.85-3.721-1.637.613-1.442 9.099 4.013-1.614 3.807-1.333-.551 1.001-2.366z"/><path d="m312.687 309.604-.829 1.317-8.379-5.392.829-1.317z"/><path d="m307.759 311.937-5.611-4.59.897-1.063 7.713 6.301-1.23 1.517-5.594-2.499 4.657 3.754-.897 1.063-7.713-6.301 1.021-1.278z"/><path d="m301.964 315.78-1.446 1.393-.915-1.028 1.446-1.393-2.808-2.978 1.175-1.046 6.708 7.301-3.062 2.831-.915-1.028 1.886-1.786z"/><path d="m300.419 319.843c.899 1.306.772 2.525-.533 3.424-1.221.877-2.486.58-3.385-.726l-2.959-4.213c-.899-1.306-.773-2.525.533-3.424 1.221-.877 2.486-.58 3.385.726zm-4.288-3.399c-.438-.61-.801-.603-1.18-.319-.378.285-.541.693-.103 1.304l3.028 4.467c.438.611.8.604 1.179.32.379-.285.542-.693.104-1.304z"/><path d="m288.675 318.185c.238.209.261.294.638 1.012l.644 1.375c.399.804.808.967 1.464.698l.486-.222-1.795-3.616 1.374-.644 4.413 8.923-2.093 1.021c-1.437.752-2.446.387-3.114-1.073l-.376-.719c-.422-.888-.458-1.698.021-2.283-.81.036-1.418-.529-1.84-1.417l-.644-1.375c-.2-.402-.376-.719-.723-.99zm5.313 6.857-1.374-2.727-.572.246c-.571.245-.734.654-.358 1.372l.422.889c.353.633.677.819 1.163.597z"/><path d="m284.536 322.765.923 7.132-2.123.574-2.76-9.552 1.444-.39 1.941 6.857-.923-7.132 1.444-.39 3.108 6.451-1.919-6.772 1.358-.367 2.761 9.552-2.123.573z"/><path d="m274.805 321.475 1.597-.158.481 1.784 1.937-.25.051-1.836 1.427-.113-.558 10.084-2.299.256zm3.934 2.765-1.512.135 1.245 4.949z"/><path d="m275.119 331.414-4.867-.144.058-1.473 1.643.012.245-8.541 1.558.034-.245 8.541 1.643.012z"/><path d="m268.925 331.082-1.519-.228 1.244-9.904 1.519.228z"/><path d="m266.078 328.297c-.397 1.565-1.409 2.203-2.866 1.867-1.457-.335-2.118-1.432-1.72-2.998l1.185-5.059c.397-1.565 1.41-2.203 2.867-1.867 1.457.335 2.117 1.433 1.72 2.998zm-.294-5.479c.179-.687-.082-.981-.576-1.121-.493-.14-.895.06-.989.723l-1.224 5.252c-.18.686.082.98.575 1.12.494.14.895-.06.989-.723z"/><path d="m258.564 325.77 2.755-6.668 1.333.552-3.795 9.226-1.85-.776.803-6.14-2.243 5.527-1.334-.552 3.796-9.226 1.526.59z"/><path d="m247.331 317.231-1.539-1.316.897-1.063 1.54 1.316 2.63-3.08 1.193 1.045-6.429 7.569-3.187-2.694.898-1.062 1.993 1.648z"/><path d="m246.466 308.625c-.124.215-.163.408-.836.954l-1.175 1.047c-.649.631-.704 1.101-.289 1.627l.369.356 3-2.724 1.046 1.176-7.407 6.647-1.569-1.763c-1.046-1.175-.958-2.201.132-3.225l.587-.523c.735-.654 1.499-.86 2.208-.596-.314-.827.143-1.497.877-2.151l1.175-1.046c.379-.285.588-.523.751-.932zm-5.225 6.969 2.266-2.069-.392-.441c-.393-.441-.778-.519-1.366.004l-.734.654c-.503.5-.581.886-.212 1.242z"/><path d="m239.515 308.862-1.206-1.77 1.159-.769 1.206 1.77 2.403-1.56-1.514-2.234 1.159-.769 2.329 3.563-8.199 5.404-2.328-3.563 1.159-.769 1.514 2.234z"/><path d="m236.651 303.987-.89-1.947 1.29-.622.89 1.947 2.664-1.266-1.197-2.411 1.29-.622 1.864 3.871-8.966 4.244-1.865-3.87 1.29-.622 1.197 2.41z"/><path d="m230.949 301.426-.727-2.356c-.497-1.505.145-2.499 1.651-2.997l4.794-1.477c1.505-.498 2.561.038 3.035 1.459l.727 2.355zm.861-1.873 6.809-2.112-.229-.85c-.138-.509-.461-.695-1.141-.512l-4.964 1.523c-.679.183-.842.592-.727 1.017z"/><path d="m231.46 294.544c-1.574.243-2.59-.485-2.81-1.975-.22-1.489.507-2.506 2.082-2.749l5.085-.735c1.574-.243 2.591.485 2.81 1.974.22 1.49-.507 2.507-2.082 2.75zm4.927-2.333c.703-.098.889-.422.836-.955-.053-.532-.399-.803-1.078-.62l-5.34.805c-.703.098-.889.422-.836.954.053.533.399.804 1.078.62z"/><path d="m235.288 284.762-7.063-1.191.045-2.199 9.988.219-.057 1.473-7.151-.165 7.086 1.276-.058 1.474-7.022.985 7.066.188.004 1.365-9.989-.218.044-2.199z"/><path d="m231.366 276.981c-1.565-.397-2.203-1.409-1.805-2.975.397-1.565 1.455-2.033 3.02-1.636l4.995 1.294c1.565.397 2.203 1.41 1.805 2.975-.42 1.481-1.455 2.034-3.02 1.636zm5.523-.124c.686.179.98-.083 1.143-.491.14-.494-.059-.895-.745-1.075l-5.188-1.332c-.686-.18-.98.082-1.143.491-.14.493.059.895.745 1.074z"/><path d="m235.695 270.071.777-1.85 1.333.552-.776 1.85 3.806 1.614-.613 1.442-9.224-3.797 1.614-3.808 1.334.551-1.002 2.367z"/><path d="m234.55 262.453.829-1.318 8.503 5.176-.829 1.318z"/><path d="m239.455 260.035 5.673 4.482-.874 1.147-7.86-6.17 1.23-1.516 5.656 2.391-4.719-3.647.897-1.062 7.86 6.169-1.021 1.279z"/><path d="m245.204 256.021 1.446-1.392 1 1.005-1.446 1.393 2.808 2.978-1.175 1.046-6.855-7.17 2.977-2.809 1 1.006-1.886 1.785z"/><path d="m246.641 251.897c-.899-1.306-.772-2.525.449-3.401 1.221-.877 2.462-.665 3.361.641l3.044 4.19c.9 1.306.773 2.525-.448 3.401-1.221.877-2.462.665-3.362-.641zm4.373 3.376c.438.61.801.603 1.265.296.463-.308.541-.693.103-1.304l-3.175-4.337c-.438-.61-.8-.603-1.264-.296-.463.307-.542.693-.103 1.304z"/><path d="m258.447 253.447c-.238-.209-.346-.271-.637-1.012l-.73-1.352c-.399-.804-.807-.967-1.463-.698l-.487.222 1.881 3.593-1.352.729-4.583-8.877 2.071-1.106c1.436-.752 2.446-.387 3.09.988l.376.719c.422.888.459 1.698-.021 2.283.81-.036 1.418.529 1.925 1.394l.729 1.352c.2.402.377.719.723.99zm-5.482-6.811 1.374 2.727.571-.246c.487-.222.735-.654.358-1.372l-.422-.889c-.353-.633-.676-.819-1.163-.597z"/><path d="m262.563 248.782-1.093-7.086 2.1-.659 2.93 9.506-1.42.475-2.112-6.811 1.031 7.194-1.421.475-3.192-6.428 2.089 6.726-1.336.452-2.868-9.614 2.1-.658z"/><path d="m272.249 249.902-1.597.158-.482-1.784-1.937.25-.051 1.836-1.404.197.365-10.122 2.3-.257zm-3.912-2.68 1.489-.22-1.329-4.926z"/><path d="m271.765 240.009 4.844.059.027 1.45-1.643-.012-.075 8.496-1.559-.035.076-8.495-1.643-.012z"/><path d="m277.997 240.148 1.581.12-1.074 9.859-1.581-.12z"/><path d="m280.844 242.933c.313-1.542 1.387-2.288 2.844-1.952 1.457.335 2.118 1.433 1.805 2.975l-1.1 5.036c-.313 1.542-1.387 2.288-2.844 1.952-1.457-.335-2.118-1.433-1.805-2.975zm.38 5.456c-.179.687.105 1.066.575 1.121.494.14.895-.06.967-.808l1.139-5.228c.179-.687-.105-1.066-.575-1.121-.494-.14-.895.06-.967.808z"/><path d="m288.398 245.268-2.648 6.729-1.333-.551 3.603-9.266 1.826.692-.717 6.117 2.135-5.589 1.311.466-3.603 9.266-1.526-.591z"/><path d="m275.468 288.49c-.239-.209-.624-.287-.964-.195s-.549.33-.735.654c-.062.108-.039.193-.016.278s-.039.193-.016.278c.046.169.199.401.33.548.239.209.624.287.964.196.34-.092.549-.331.735-.654.039-.193.078-.386.009-.641-.023-.085-.046-.17-.153-.232-.023-.085-.046-.17-.154-.232z"/><path d="m268.032 263.981c-11.972 3.233-19.039 15.53-15.806 27.506 3.232 11.976 15.525 19.044 27.498 15.811 11.972-3.234 19.039-15.531 15.806-27.506-3.232-11.976-15.526-19.045-27.498-15.811zm16.438 30.188c-2.887.78-5.83-.339-7.599-2.504-.379.285-.757.569-1.267.707-.509.138-.957.167-1.45.027-.416 2.846-2.42 5.21-5.307 5.99-3.821 1.032-7.811-1.263-8.843-5.085-.504-1.868-.198-3.773.647-5.368l1.238-4.526c.016-.278.14-.494.241-.795 0 0-.023-.085.062-.107.45-1.033 1.116-1.942 2.043-2.557-.328-1.552.625-3.085 2.238-3.52 1.613-.436 3.339.556 3.774 2.17.115.424.145.872.066 1.258.563.394 1.04.812 1.455 1.338.232-.154.548-.33.803-.399.34-.092.618-.076.895-.06.094-.663.297-1.264.522-1.781-.285-.378-.569-.757-.684-1.182-.436-1.614.556-3.34 2.17-3.775 1.528-.413 3.123.432 3.705 1.915 1.196.042 2.313.469 3.16 1.243l.107.062c.216.124.37.356.608.565l3.347 3.287c1.533.953 2.756 2.446 3.26 4.314 1.009 3.737-1.285 7.728-5.191 8.783z"/><path d="m265.814 286.815c-1.019.275-1.861.867-2.403 1.56-.875 1.147-1.295 2.628-.882 4.157.665 2.463 3.253 3.951 5.715 3.286s3.95-3.254 3.285-5.717c-.137-.51-.36-.996-.667-1.46-1.053-1.538-3.095-2.354-5.048-1.826zm.711 2.633c-.255.068-.487.222-.719.376 0 0 0 0-.085.023-.378.284-.541.693-.681 1.186-.017.278-.033.556.036.811.092.339-.094.663-.434.755-.339.091-.663-.095-.755-.434-.275-1.02-.017-2.091.671-2.915.418-.478.943-.893 1.623-1.076.339-.092.663.094.755.434.114.424-.072.748-.411.84z"/><path d="m284.299 282.734c-.902-.304-1.927-.391-2.861-.139-1.953.528-3.308 2.26-3.444 4.119-.032.556.021 1.088.158 1.598.665 2.463 3.253 3.951 5.716 3.286 2.462-.665 3.95-3.254 3.285-5.717-.413-1.528-1.521-2.596-2.854-3.147zm-2.321 2.54c-.254.069-.571.245-.718.376-.294.262-.48.585-.581.886.023.085-.039.193-.039.193-.016.278-.032.555.037.81.091.34-.095.664-.434.755-.34.092-.663-.094-.755-.434-.115-.424-.121-.787-.128-1.15.103-1.304 1.063-2.474 2.336-2.818.34-.092.664.094.755.434.138.51-.133.856-.473.948z"/></g></g></svg>