<?xml version="1.0" encoding="UTF-8"?>
<svg width="600px" height="315px" viewBox="0 0 600 315" version="1.1" xmlns="http://www.w3.org/2000/svg" xmlns:xlink="http://www.w3.org/1999/xlink">
    <title>noiseworks</title>
    <g id="noiseworks" stroke="none" stroke-width="1" fill="none" fill-rule="evenodd">
        <rect fill="#E3E7FB" x="0" y="0" width="600" height="315"></rect>
        <g id="noiseworks-logo-full-colour-dark" transform="translate(59.000000, 101.000000)" fill-rule="nonzero">
            <path d="M94.12,72.93 L94.07,72.7 L94.07,53.7 L94.16,53.61 L94.07,53.53 L94.12,53.48 L84.75,9.48 L40.25,0 L0,39.51 L0,58.9 L0,58.9 L0,58.9 L0,59 L9.37,103 L53.86,112.5 L94.16,73.06 L94.07,73 L94.12,72.93 Z M32.12,60.06 L44.59,47.82 L62.11,51.57 L62.39,52.9 L50,65.14 L32.43,61.39 L32.12,60.06 Z" id="Shape" fill="#8976B4"></path>
            <path d="M44.59,28.4 L28.74,44 L28.74,44 L28.74,44 L32.43,61.36 L50,65.14 L65.8,49.55 L65.8,49.55 L65.8,49.55 L62.11,32.15 L44.59,28.4 Z M40.25,0 L84.75,9.5 L94.12,53.5 L94.07,53.55 L94.16,53.63 L53.9,93.16 L9.41,83.66 L0,39.65 L0,39.65 L0,39.51 L40.25,0 Z" id="Shape" fill="#3B3F44"></path>
            <g id="Noise" transform="translate(116.087000, 19.239825)" fill="#3B3F44">
                <path d="M6.09205,1.57435 C6.59401667,1.57435 7.016125,1.59716667 7.358375,1.6428 C7.700625,1.68843333 8.00865,1.77399583 8.28245,1.8994875 C8.55625,2.02497917 8.81864167,2.20180833 9.069625,2.429975 C9.32060833,2.65814167 9.60581667,2.96616667 9.92525,3.35405 L33.60895,33.300925 C33.5176833,32.342625 33.4492333,31.4128458 33.4036,30.5115875 C33.3579667,29.6103292 33.33515,28.7604083 33.33515,27.961825 L33.33515,1.57435 L43.5342,1.57435 L43.5342,51.440175 L37.5106,51.440175 C36.62075,51.440175 35.8678,51.303275 35.25175,51.029475 C34.6357,50.755675 34.0424667,50.2537083 33.47205,49.523575 L9.959475,19.816275 C10.027925,20.6833083 10.0849667,21.5332292 10.1306,22.3660375 C10.1762333,23.1988458 10.19905,23.9803167 10.19905,24.71045 L10.19905,51.440175 L-2.84217094e-14,51.440175 L-2.84217094e-14,1.57435 L6.09205,1.57435 Z" id="Path"></path>
                <path d="M67.56015,15.40125 C70.2525167,15.40125 72.7053083,15.8233583 74.918525,16.667575 C77.1317417,17.5117917 79.0312292,18.721075 80.6169875,20.295425 C82.2027458,21.869775 83.4348458,23.7806708 84.3132875,26.0281125 C85.1917292,28.2755542 85.63095,30.8025 85.63095,33.60895 C85.63095,36.4382167 85.1917292,38.9879792 84.3132875,41.2582375 C83.4348458,43.5284958 82.2027458,45.4565042 80.6169875,47.0422625 C79.0312292,48.6280208 77.1317417,49.8487125 74.918525,50.7043375 C72.7053083,51.5599625 70.2525167,51.987775 67.56015,51.987775 C64.8449667,51.987775 62.3750625,51.5599625 60.1504375,50.7043375 C57.9258125,49.8487125 56.0092125,48.6280208 54.4006375,47.0422625 C52.7920625,45.4565042 51.5485542,43.5284958 50.6701125,41.2582375 C49.7916708,38.9879792 49.35245,36.4382167 49.35245,33.60895 C49.35245,30.8025 49.7916708,28.2755542 50.6701125,26.0281125 C51.5485542,23.7806708 52.7920625,21.869775 54.4006375,20.295425 C56.0092125,18.721075 57.9258125,17.5117917 60.1504375,16.667575 C62.3750625,15.8233583 64.8449667,15.40125 67.56015,15.40125 Z M67.56015,44.116025 C70.0015333,44.116025 71.7983458,43.2546958 72.9505875,41.5320375 C74.1028292,39.8093792 74.67895,37.1911667 74.67895,33.6774 C74.67895,30.1636333 74.1028292,27.551125 72.9505875,25.839875 C71.7983458,24.128625 70.0015333,23.273 67.56015,23.273 C65.0503167,23.273 63.213575,24.128625 62.049925,25.839875 C60.886275,27.551125 60.30445,30.1636333 60.30445,33.6774 C60.30445,37.1911667 60.886275,39.8093792 62.049925,41.5320375 C63.213575,43.2546958 65.0503167,44.116025 67.56015,44.116025 Z" id="Shape"></path>
                <path d="M102.4012,15.94885 L102.4012,51.440175 L91.79145,51.440175 L91.79145,15.94885 L102.4012,15.94885 Z M103.6333,6.22895 C103.6333,7.07316667 103.462175,7.86604583 103.119925,8.6075875 C102.777675,9.34912917 102.309933,9.99940417 101.7167,10.5584125 C101.123467,11.1174208 100.433262,11.5623458 99.6460875,11.8931875 C98.8589125,12.2240292 98.0204,12.38945 97.13055,12.38945 C96.2635167,12.38945 95.453525,12.2240292 94.700575,11.8931875 C93.947625,11.5623458 93.2802375,11.1174208 92.6984125,10.5584125 C92.1165875,9.99940417 91.6602542,9.34912917 91.3294125,8.6075875 C90.9985708,7.86604583 90.83315,7.07316667 90.83315,6.22895 C90.83315,5.36191667 90.9985708,4.551925 91.3294125,3.798975 C91.6602542,3.046025 92.1165875,2.38434167 92.6984125,1.813925 C93.2802375,1.24350833 93.947625,0.798583333 94.700575,0.47915 C95.453525,0.159716667 96.2635167,0 97.13055,0 C98.0204,0 98.8589125,0.159716667 99.6460875,0.47915 C100.433262,0.798583333 101.123467,1.24350833 101.7167,1.813925 C102.309933,2.38434167 102.777675,3.046025 103.119925,3.798975 C103.462175,4.551925 103.6333,5.36191667 103.6333,6.22895 Z" id="Shape"></path>
                <path d="M132.6561,23.717925 C132.3823,24.1514417 132.091387,24.4594667 131.783362,24.642 C131.475337,24.8245333 131.08175,24.9158 130.6026,24.9158 C130.100633,24.9158 129.598667,24.8074208 129.0967,24.5906625 C128.594733,24.3739042 128.052837,24.1400333 127.471012,23.88905 C126.889187,23.6380667 126.233208,23.4041958 125.503075,23.1874375 C124.772942,22.9706792 123.940133,22.8623 123.00465,22.8623 C121.658467,22.8623 120.626012,23.1189875 119.907287,23.6323625 C119.188562,24.1457375 118.8292,24.8587583 118.8292,25.771425 C118.8292,26.4331083 119.063071,26.9807083 119.530812,27.414225 C119.998554,27.8477417 120.620308,28.2299208 121.396075,28.5607625 C122.171842,28.8916042 123.050283,29.2053333 124.0314,29.50195 C125.012517,29.7985667 126.01645,30.1294083 127.0432,30.494475 C128.06995,30.8595417 129.073883,31.2873542 130.055,31.7779125 C131.036117,32.2684708 131.914558,32.8731125 132.690325,33.5918375 C133.466092,34.3105625 134.087846,35.1833 134.555587,36.21005 C135.023329,37.2368 135.2572,38.4689 135.2572,39.90635 C135.2572,41.6632333 134.937767,43.2832167 134.2989,44.7663 C133.660033,46.2493833 132.707437,47.5271167 131.441112,48.5995 C130.174787,49.6718833 128.611846,50.5046917 126.752287,51.097925 C124.892729,51.6911583 122.753667,51.987775 120.3351,51.987775 C119.125817,51.987775 117.916533,51.8736917 116.70725,51.645525 C115.497967,51.4173583 114.328612,51.1093333 113.199187,50.72145 C112.069762,50.3335667 111.0259,49.8715292 110.0676,49.3353375 C109.1093,48.7991458 108.2879,48.223025 107.6034,47.606975 L110.0676,43.705325 C110.364217,43.2489917 110.717875,42.8896292 111.128575,42.6272375 C111.539275,42.3648458 112.075467,42.23365 112.73715,42.23365 C113.3532,42.23365 113.906504,42.37055 114.397062,42.64435 C114.887621,42.91815 115.418108,43.2147667 115.988525,43.5342 C116.558942,43.8536333 117.226329,44.15025 117.990687,44.42405 C118.755046,44.69785 119.71905,44.83475 120.8827,44.83475 C121.7041,44.83475 122.400008,44.7491875 122.970425,44.5780625 C123.540842,44.4069375 123.997175,44.1730667 124.339425,43.87645 C124.681675,43.5798333 124.932658,43.2489917 125.092375,42.883925 C125.252092,42.5188583 125.33195,42.1423833 125.33195,41.7545 C125.33195,41.0471833 125.092375,40.4653583 124.613225,40.009025 C124.134075,39.5526917 123.506617,39.1591042 122.73085,38.8282625 C121.955083,38.4974208 121.070937,38.1893958 120.078412,37.9041875 C119.085887,37.6189792 118.07625,37.2938417 117.0495,36.928775 C116.02275,36.5637083 115.013112,36.1244875 114.020587,35.6111125 C113.028062,35.0977375 112.143917,34.4474625 111.36815,33.6602875 C110.592383,32.8731125 109.964925,31.9091083 109.485775,30.768275 C109.006625,29.6274417 108.76705,28.2470333 108.76705,26.62705 C108.76705,25.12115 109.057962,23.6894042 109.639787,22.3318125 C110.221612,20.9742208 111.09435,19.78205 112.258,18.7553 C113.42165,17.72855 114.881917,16.9128542 116.6388,16.3082125 C118.395683,15.7035708 120.449183,15.40125 122.7993,15.40125 C124.077033,15.40125 125.314837,15.5153333 126.512712,15.7435 C127.710587,15.9716667 128.834308,16.2911 129.883875,16.7018 C130.933442,17.1125 131.891742,17.5973542 132.758775,18.1563625 C133.625808,18.7153708 134.390167,19.3257167 135.05185,19.9874 L132.6561,23.717925 Z" id="Path"></path>
                <path d="M156.27135,15.40125 C158.621467,15.40125 160.771937,15.7663167 162.722762,16.49645 C164.673587,17.2265833 166.350612,18.2875583 167.753837,19.679375 C169.157062,21.0711917 170.252262,22.7767375 171.039437,24.7960125 C171.826612,26.8152875 172.2202,29.1026583 172.2202,31.658125 C172.2202,32.4567083 172.185975,33.1069833 172.117525,33.60895 C172.049075,34.1109167 171.923583,34.5102083 171.74105,34.806825 C171.558517,35.1034417 171.313237,35.3087917 171.005212,35.422875 C170.697187,35.5369583 170.3036,35.594 169.82445,35.594 L149.3579,35.594 C149.70015,38.5601667 150.601408,40.7106375 152.061675,42.0454125 C153.521942,43.3801875 155.404317,44.047575 157.7088,44.047575 C158.9409,44.047575 160.001875,43.8992667 160.891725,43.60265 C161.781575,43.3060333 162.574454,42.9751917 163.270362,42.610125 C163.966271,42.2450583 164.605137,41.9142167 165.186962,41.6176 C165.768787,41.3209833 166.379133,41.172675 167.018,41.172675 C167.862217,41.172675 168.501083,41.4807 168.9346,42.09675 L172.01485,45.895725 C170.91965,47.1506417 169.738887,48.1716875 168.472562,48.9588625 C167.206237,49.7460375 165.905687,50.3620875 164.570912,50.8070125 C163.236137,51.2519375 161.901362,51.5599625 160.566587,51.7310875 C159.231812,51.9022125 157.959783,51.987775 156.7505,51.987775 C154.263483,51.987775 151.930479,51.5827792 149.751487,50.7727875 C147.572496,49.9627958 145.667304,48.7592167 144.035912,47.16205 C142.404521,45.5648833 141.115379,43.5798333 140.168487,41.2069 C139.221596,38.8339667 138.74815,36.07315 138.74815,32.92445 C138.74815,30.5515167 139.153146,28.304075 139.963137,26.182125 C140.773129,24.060175 141.936779,22.2006167 143.454087,20.60345 C144.971396,19.0062833 146.808137,17.7399583 148.964312,16.804475 C151.120487,15.8689917 153.556167,15.40125 156.27135,15.40125 Z M156.4767,22.7254 C154.446017,22.7254 152.860258,23.3015208 151.719425,24.4537625 C150.578592,25.6060042 149.825642,27.2659167 149.460575,29.4335 L162.70565,29.4335 C162.70565,28.5892833 162.597271,27.7678833 162.380512,26.9693 C162.163754,26.1707167 161.810096,25.4576958 161.319537,24.8302375 C160.828979,24.2027792 160.184408,23.6951083 159.385825,23.307225 C158.587242,22.9193417 157.617533,22.7254 156.4767,22.7254 Z" id="Shape"></path>
            </g>
            <g id="Works" transform="translate(292.289150, 20.266575)" fill="#8976B4">
                <path d="M0,1.369 L5.510225,1.369 C6.10345833,1.369 6.59401667,1.51730833 6.9819,1.813925 C7.36978333,2.11054167 7.632175,2.48701667 7.769075,2.94335 L17.899675,37.03145 C18.0822083,37.6475 18.2476292,38.3091833 18.3959375,39.0165 C18.5442458,39.7238167 18.68685,40.4653583 18.82375,41.241125 C18.9834667,40.4653583 19.1431833,39.7181125 19.3029,38.9993875 C19.4626167,38.2806625 19.64515,37.6246833 19.8505,37.03145 L31.384325,2.94335 C31.521225,2.55546667 31.7893208,2.19610417 32.1886125,1.8652625 C32.5879042,1.53442083 33.0727583,1.369 33.643175,1.369 L35.559775,1.369 C36.1530083,1.369 36.6378625,1.51730833 37.0143375,1.813925 C37.3908125,2.11054167 37.6589083,2.48701667 37.818625,2.94335 L49.284,37.03145 C49.6947,38.2179167 50.0597667,39.5755083 50.3792,41.104225 C50.5161,40.351275 50.6415917,39.63255 50.755675,38.94805 C50.8697583,38.26355 51.0180667,37.6246833 51.2006,37.03145 L61.365425,2.94335 C61.4795083,2.53265 61.7361958,2.16758333 62.1354875,1.84815 C62.5347792,1.52871667 63.0196333,1.369 63.59005,1.369 L68.758025,1.369 L53.45945,50.413425 L47.5043,50.413425 L35.080625,13.0055 C34.8296417,12.2981833 34.601475,11.4767833 34.396125,10.5413 C34.2820417,10.9976333 34.1736625,11.4368542 34.0709875,11.8589625 C33.9683125,12.2810708 33.8599333,12.66325 33.74585,13.0055 L21.253725,50.413425 L15.298575,50.413425 L0,1.369 Z" id="Path"></path>
                <path d="M81.45995,15.1959 C83.9926,15.1959 86.2799708,15.6180083 88.3220625,16.462225 C90.3641542,17.3064417 92.0982208,18.5043167 93.5242625,20.05585 C94.9503042,21.6073833 96.0455042,23.4840542 96.8098625,25.6858625 C97.5742208,27.8876708 97.9564,30.3461667 97.9564,33.06135 C97.9564,35.79935 97.5742208,38.26355 96.8098625,40.45395 C96.0455042,42.64435 94.9503042,44.5153167 93.5242625,46.06685 C92.0982208,47.6183833 90.3641542,48.8105542 88.3220625,49.6433625 C86.2799708,50.4761708 83.9926,50.892575 81.45995,50.892575 C78.9273,50.892575 76.6399292,50.4761708 74.5978375,49.6433625 C72.5557458,48.8105542 70.815975,47.6183833 69.378525,46.06685 C67.941075,44.5153167 66.8344667,42.64435 66.0587,40.45395 C65.2829333,38.26355 64.89505,35.79935 64.89505,33.06135 C64.89505,30.3461667 65.2829333,27.8876708 66.0587,25.6858625 C66.8344667,23.4840542 67.941075,21.6073833 69.378525,20.05585 C70.815975,18.5043167 72.5557458,17.3064417 74.5978375,16.462225 C76.6399292,15.6180083 78.9273,15.1959 81.45995,15.1959 Z M81.45995,46.1353 C84.88245,46.1353 87.4379167,44.9887625 89.12635,42.6956875 C90.8147833,40.4026125 91.659,37.202575 91.659,33.095575 C91.659,28.9657583 90.8147833,25.7486083 89.12635,23.444125 C87.4379167,21.1396417 84.88245,19.9874 81.45995,19.9874 C79.7258833,19.9874 78.2199833,20.2840167 76.94225,20.87725 C75.6645167,21.4704833 74.5978375,22.3261083 73.7422125,23.444125 C72.8865875,24.5621417 72.2477208,25.9368458 71.8256125,27.5682375 C71.4035042,29.1996292 71.19245,31.042075 71.19245,33.095575 C71.19245,35.149075 71.4035042,36.9858167 71.8256125,38.6058 C72.2477208,40.2257833 72.8865875,41.5890792 73.7422125,42.6956875 C74.5978375,43.8022958 75.6645167,44.6522167 76.94225,45.24545 C78.2199833,45.8386833 79.7258833,46.1353 81.45995,46.1353 Z" id="Shape"></path>
                <path d="M105.4859,50.413425 L105.4859,15.7435 L108.97685,15.7435 C109.638533,15.7435 110.094867,15.8689917 110.34585,16.119975 C110.596833,16.3709583 110.767958,16.804475 110.859225,17.420525 L111.269925,22.828075 C112.456392,20.4095083 113.922362,18.5214292 115.667837,17.1638375 C117.413312,15.8062458 119.461108,15.12745 121.811225,15.12745 C122.769525,15.12745 123.636558,15.2358292 124.412325,15.4525875 C125.188092,15.6693458 125.906817,15.9716667 126.5685,16.35955 L125.781325,20.911475 C125.621608,21.4818917 125.26795,21.7671 124.72035,21.7671 C124.400917,21.7671 123.910358,21.6587208 123.248675,21.4419625 C122.586992,21.2252042 121.662917,21.116825 120.47645,21.116825 C118.3545,21.116825 116.580504,21.732875 115.154462,22.964975 C113.728421,24.197075 112.53625,25.9881833 111.57795,28.3383 L111.57795,50.413425 L105.4859,50.413425 Z" id="Path"></path>
                <path d="M139.402875,0 L139.402875,29.673075 L140.977225,29.673075 C141.433558,29.673075 141.810033,29.6103292 142.10665,29.4848375 C142.403267,29.3593458 142.734108,29.1026583 143.099175,28.714775 L154.051175,16.9756 C154.393425,16.6105333 154.735675,16.3139167 155.077925,16.08575 C155.420175,15.8575833 155.876508,15.7435 156.446925,15.7435 L161.991375,15.7435 L149.22545,29.330825 C148.906017,29.7187083 148.592287,30.0609583 148.284262,30.357575 C147.976237,30.6541917 147.628283,30.9165833 147.2404,31.14475 C147.6511,31.41855 148.021871,31.7322792 148.352712,32.0859375 C148.683554,32.4395958 148.997283,32.8445917 149.2939,33.300925 L162.847,50.413425 L157.371,50.413425 C156.869033,50.413425 156.441221,50.3164542 156.087562,50.1225125 C155.733904,49.9285708 155.397358,49.62625 155.077925,49.21555 L143.681,35.012175 C143.33875,34.533025 142.9965,34.2192958 142.65425,34.0709875 C142.312,33.9226792 141.798625,33.848525 141.114125,33.848525 L139.402875,33.848525 L139.402875,50.413425 L133.2766,50.413425 L133.2766,0 L139.402875,0 Z" id="Path"></path>
                <path d="M184.6782,21.459075 C184.4044,21.9610417 183.982292,22.212025 183.411875,22.212025 C183.069625,22.212025 182.681742,22.0865333 182.248225,21.83555 C181.814708,21.5845667 181.284221,21.3050625 180.656763,20.9970375 C180.029304,20.6890125 179.282058,20.4038042 178.415025,20.1414125 C177.547992,19.8790208 176.521242,19.747825 175.334775,19.747825 C174.308025,19.747825 173.38395,19.8790208 172.56255,20.1414125 C171.74115,20.4038042 171.039538,20.7631667 170.457713,21.2195 C169.875888,21.6758333 169.430963,22.2063208 169.122938,22.8109625 C168.814913,23.4156042 168.6609,24.0715833 168.6609,24.7789 C168.6609,25.66875 168.917588,26.4102917 169.430963,27.003525 C169.944338,27.5967583 170.623133,28.1101333 171.46735,28.54365 C172.311567,28.9771667 173.269867,29.3593458 174.34225,29.6901875 C175.414633,30.0210292 176.515538,30.3746875 177.644963,30.7511625 C178.774388,31.1276375 179.875292,31.5440417 180.947675,32.000375 C182.020058,32.4567083 182.978358,33.027125 183.822575,33.711625 C184.666792,34.396125 185.345588,35.2346375 185.858963,36.2271625 C186.372338,37.2196875 186.629025,38.4118583 186.629025,39.803675 C186.629025,41.4008417 186.343817,42.8782208 185.7734,44.2358125 C185.202983,45.5934042 184.358767,46.7684625 183.24075,47.7609875 C182.122733,48.7535125 180.753733,49.5349833 179.13375,50.1054 C177.513767,50.6758167 175.6428,50.961025 173.52085,50.961025 C171.102283,50.961025 168.911883,50.5674375 166.94965,49.7802625 C164.987417,48.9930875 163.3218,47.98345 161.9528,46.75135 L163.39025,44.42405 C163.572783,44.1274333 163.789542,43.8992667 164.040525,43.73955 C164.291508,43.5798333 164.62235,43.499975 165.03305,43.499975 C165.44375,43.499975 165.877267,43.6596917 166.3336,43.979125 C166.789933,44.2985583 167.343238,44.6522167 167.993513,45.0401 C168.643788,45.4279833 169.430963,45.7816417 170.355038,46.101075 C171.279113,46.4205083 172.437058,46.580225 173.828875,46.580225 C175.015342,46.580225 176.0535,46.4262125 176.94335,46.1181875 C177.8332,45.8101625 178.574742,45.3937583 179.167975,44.868975 C179.761208,44.3441917 180.200429,43.73955 180.485638,43.05505 C180.770846,42.37055 180.91345,41.6404167 180.91345,40.86465 C180.91345,39.90635 180.656763,39.1134708 180.143388,38.4860125 C179.630013,37.8585542 178.951217,37.3223625 178.107,36.8774375 C177.262783,36.4325125 176.298779,36.0446292 175.214988,35.7137875 C174.131196,35.3829458 173.024588,35.0349917 171.895163,34.669925 C170.765738,34.3048583 169.659129,33.8884542 168.575338,33.4207125 C167.491546,32.9529708 166.527542,32.3654417 165.683325,31.658125 C164.839108,30.9508083 164.160313,30.0780708 163.646938,29.0399125 C163.133563,28.0017542 162.876875,26.7411333 162.876875,25.25805 C162.876875,23.9346833 163.150675,22.6626542 163.698275,21.4419625 C164.245875,20.2212708 165.044458,19.1488875 166.094025,18.2248125 C167.143592,17.3007375 168.432733,16.5649 169.96145,16.0173 C171.490167,15.4697 173.235642,15.1959 175.197875,15.1959 C177.479542,15.1959 179.527338,15.5552625 181.341263,16.2739875 C183.155188,16.9927125 184.723833,17.9795333 186.0472,19.23445 L184.6782,21.459075 Z" id="Path"></path>
            </g>
        </g>
    </g>
</svg>