<svg xmlns="http://www.w3.org/2000/svg" width="18" height="18" viewBox="0 0 18 18"><path fill="#1DA1F2" d="M17.59 9.41c0-1.294-.715-2.415-1.757-2.946.126-.356.195-.74.195-1.146 0-1.808-1.399-3.27-3.124-3.27-.384 0-.752.068-1.093.204C11.306 1.158 10.235.409 9 .409c-1.235 0-2.304.75-2.812 1.841a2.95 2.95 0 00-1.093-.205c-1.727 0-3.124 1.465-3.124 3.273 0 .404.068.789.194 1.146-1.04.531-1.757 1.65-1.757 2.945 0 1.223.64 2.29 1.59 2.852-.017.14-.027.278-.027.42 0 1.809 1.397 3.274 3.124 3.274.384 0 .753-.07 1.092-.205.507 1.091 1.576 1.84 2.812 1.84 1.237 0 2.306-.749 2.812-1.84.34.133.708.203 1.093.203 1.727 0 3.124-1.465 3.124-3.273 0-.142-.01-.281-.027-.42.948-.562 1.59-1.628 1.59-2.85zM12.179 6.68L8.632 12a.613.613 0 01-.852.17l-.094-.076-1.976-1.976a.613.613 0 11.867-.867l1.449 1.445L11.156 6a.614.614 0 011.022.681v.001z"/></svg>