<?xml version="1.0" encoding="UTF-8"?>
<svg width="600px" height="315px" viewBox="0 0 600 315" version="1.1" xmlns="http://www.w3.org/2000/svg" xmlns:xlink="http://www.w3.org/1999/xlink">
    <title>wasteworks</title>
    <g id="wasteworks" stroke="none" stroke-width="1" fill="none" fill-rule="evenodd">
        <rect fill="#DCFAF4" x="0" y="0" width="600" height="315"></rect>
        <g id="wasteworks-logo-full-colour-dark" transform="translate(46.000000, 101.000000)" fill-rule="nonzero">
            <path d="M117.58,20.27 L127.3,20.27 C128.189087,20.2396835 129.066853,20.4765411 129.82,20.95 C130.467584,21.375018 130.937139,22.0224357 131.14,22.77 L137.98,48.77 C138.213333,49.61 138.443333,50.51 138.67,51.47 C138.894723,52.4599232 139.064979,53.4614275 139.18,54.47 C139.41,53.4 139.66,52.39 139.93,51.47 C140.2,50.55 140.47,49.62 140.72,48.78 L148.8,22.78 C149.035516,22.0620684 149.494562,21.4383262 150.11,21 C150.819833,20.4810184 151.680898,20.2103978 152.56,20.23 L156,20.23 C156.878996,20.1933536 157.748082,20.427204 158.49,20.9 C159.13728,21.3363693 159.614124,21.9827589 159.84,22.73 L167.84,48.73 C168.093333,49.53 168.353333,50.38 168.62,51.28 C168.912775,52.2294122 169.153138,53.1942011 169.34,54.17 C169.52,53.17 169.71,52.17 169.91,51.3 C170.11,50.43 170.3,49.53 170.51,48.73 L177.35,22.73 C177.570406,22.0151406 178.029253,21.3974631 178.65,20.98 C179.370786,20.4699239 180.237293,20.2068146 181.12,20.23 L190.22,20.23 L174.82,70.1 L164.33,70.1 L155,39.23 C154.84,38.75 154.67,38.23 154.5,37.66 C154.33,37.09 154.16,36.48 154,35.84 C153.84,36.48 153.68,37.09 153.51,37.66 C153.34,38.23 153.17,38.75 153.01,39.23 L143.5,70.14 L133,70.14 L117.58,20.27 Z" id="Path" fill="#3B3F44"></path>
            <path d="M215.06,70.14 C214.278383,70.1837048 213.497424,70.0432692 212.78,69.73 C212.165242,69.3196178 211.712642,68.7079012 211.5,68 L210.75,66 C209.86,66.76 209,67.42 208.18,68 C207.375599,68.5594543 206.522101,69.0447768 205.63,69.45 C204.73188,69.8568905 203.788604,70.1556505 202.82,70.34 C201.732285,70.5454722 200.62688,70.6426139 199.52,70.63 C198.023091,70.6476878 196.532356,70.4352074 195.1,70 C193.859908,69.6153161 192.712617,68.9786887 191.73,68.13 C190.793659,67.277735 190.062093,66.2248273 189.59,65.05 C189.065894,63.6990988 188.81111,62.258719 188.84,60.81 C188.874435,59.4575187 189.216415,58.1306385 189.84,56.93 C190.61364,55.455577 191.757838,54.2079876 193.16,53.31 C195.114418,52.0545048 197.263601,51.1319783 199.52,50.58 C202.82444,49.7752981 206.219806,49.4055057 209.62,49.48 L209.62,48 C209.62,45.91 209.19,44.39 208.34,43.46 C207.382853,42.4877412 206.051824,41.9772094 204.69,42.06 C203.648072,42.0321758 202.608366,42.1705781 201.61,42.47 C200.871605,42.7188051 200.155694,43.0299251 199.47,43.4 C198.85,43.74 198.24,44.05 197.64,44.32 C196.970972,44.6073095 196.247909,44.7471471 195.52,44.73 C194.860257,44.7487522 194.21077,44.5636833 193.66,44.2 C193.15488,43.8624227 192.736821,43.4100964 192.44,42.88 L190.52,39.56 C192.605804,37.7063434 195.030284,36.2733876 197.66,35.34 C200.34311,34.4204663 203.163885,33.9672481 206,34 C207.97955,33.9586067 209.948604,34.2980989 211.8,35 C213.450536,35.6470861 214.943841,36.6392134 216.18,37.91 C217.416753,39.1753549 218.377055,40.6839143 219,42.34 C219.667512,44.1382468 220.006235,46.0418694 220.000085,47.96 L220.000085,70.14 L215.06,70.14 Z M202.87,63.67 C204.108294,63.6970616 205.337368,63.4512468 206.47,62.95 C207.6355,62.3620726 208.688268,61.5733433 209.58,60.62 L209.58,55.76 C207.823818,55.7288441 206.068798,55.8695136 204.34,56.18 C203.216766,56.3662599 202.123653,56.7026025 201.09,57.18 C200.415632,57.4901444 199.840863,57.9818144 199.43,58.6 C199.127942,59.1228486 198.969263,59.7161714 198.97,60.32 C198.866512,61.2881878 199.239349,62.2463799 199.97,62.89 C200.82865,63.4528336 201.844862,63.7261596 202.87,63.67 L202.87,63.67 Z" id="Shape" fill="#3B3F44"></path>
            <path d="M249.15,42.41 C248.931564,42.7831558 248.630528,43.101297 248.27,43.34 C247.90749,43.5328361 247.500296,43.6260077 247.09,43.61 C246.573599,43.6050153 246.063478,43.4961895 245.59,43.29 L244,42.58 C243.347223,42.3087292 242.679466,42.0750142 242,41.88 C241.185801,41.6565987 240.344218,41.548876 239.5,41.56 C238.415001,41.4892246 237.334918,41.7583714 236.41,42.33 C235.704792,42.8091334 235.296538,43.61808 235.33,44.47 C235.312272,45.0927297 235.568061,45.6920062 236.03,46.11 C236.583623,46.5965846 237.215973,46.985463 237.9,47.26 C238.759358,47.6197996 239.637268,47.9335773 240.53,48.2 C241.53,48.49 242.53,48.82 243.53,49.2 C244.556142,49.5625902 245.558168,49.990121 246.53,50.48 C247.493022,50.9564212 248.382198,51.5694138 249.17,52.3 C249.948906,53.0384325 250.571259,53.9260496 251,54.91 C251.500491,56.0742554 251.742717,57.3331489 251.71,58.6 C251.715677,60.2716561 251.375198,61.926384 250.71,63.46 C250.070562,64.9463226 249.090915,66.2616521 247.85,67.3 C246.466631,68.4318595 244.872558,69.2781796 243.16,69.79 C241.079195,70.4182241 238.913231,70.7184902 236.74,70.68 C235.52532,70.6808941 234.313271,70.5670552 233.12,70.34 C231.929337,70.1184159 230.756272,69.810946 229.61,69.42 C228.553344,69.0377863 227.532677,68.5625905 226.56,68 C225.673651,67.5189874 224.844976,66.9385797 224.09,66.27 L226.56,62.37 C226.831108,61.9376071 227.19275,61.5691416 227.62,61.29 C228.109426,61.0114695 228.667366,60.8763164 229.23,60.9 C229.809072,60.8943433 230.38015,61.0353926 230.89,61.31 L232.48,62.2 C233.120459,62.5523693 233.789497,62.8500912 234.48,63.09 C235.413666,63.3871469 236.390527,63.5257326 237.37,63.5 C238.075755,63.51847 238.780282,63.4308255 239.46,63.24 C239.961772,63.1081117 240.429109,62.8693264 240.83,62.54 C241.462893,62.0178899 241.829606,61.2404588 241.83,60.42 C241.850903,59.7606165 241.588881,59.1237581 241.11,58.67 C240.55798,58.1686709 239.921468,57.7691578 239.23,57.49 C238.366606,57.1286593 237.481562,56.8213989 236.58,56.57 C235.58,56.28 234.58,55.96 233.58,55.57 C232.550979,55.2030594 231.548584,54.7653471 230.58,54.26 C229.597813,53.7355464 228.703678,53.060728 227.93,52.26 C227.120256,51.4231624 226.47865,50.4386884 226.04,49.36 C225.039921,46.6284179 225.096989,43.6216658 226.2,40.93 C226.791273,39.5538366 227.687095,38.3297737 228.82,37.35 C230.092018,36.2965567 231.555468,35.49862 233.13,35 C235.119886,34.3633625 237.20115,34.0592817 239.29,34.1 C240.534652,34.0953987 241.776917,34.2092451 243,34.44 C244.15163,34.669254 245.27972,35.0039987 246.37,35.44 C247.37594,35.8261102 248.340741,36.3118609 249.25,36.89 C250.076496,37.4164696 250.84421,38.0299704 251.54,38.72 L249.15,42.41 Z" id="Path" fill="#3B3F44"></path>
            <path d="M270,70.68 C268.481248,70.7107938 266.969682,70.4633851 265.54,69.95 C264.313544,69.5001681 263.200715,68.7867292 262.28,67.86 C261.386257,66.9262608 260.704122,65.8109691 260.28,64.59 C259.811903,63.2123066 259.581946,61.7649323 259.6,60.31 L259.6,42 L256.6,42 C256.078889,42.0138409 255.572968,41.8236717 255.19,41.47 C254.77921,41.0589575 254.567514,40.4895683 254.61,39.91 L254.61,35.74 L260.26,34.64 L262.36,26 C262.59006,24.9337774 263.598108,24.221192 264.68,24.36 L270.23,24.36 L270.23,34.71 L278.85,34.71 L278.85,42 L270.23,42 L270.23,59.59 C270.208976,60.3039411 270.419453,61.0055303 270.83,61.59 C271.232127,62.1357408 271.883326,62.440637 272.56,62.4 C272.897456,62.4101666 273.23453,62.3697177 273.56,62.28 C273.794784,62.207745 274.022412,62.1140156 274.24,62 L274.79,61.73 C274.978705,61.6462488 275.183598,61.6052702 275.39,61.61 C275.664197,61.5938112 275.935744,61.6713958 276.16,61.83 C276.40087,62.0249398 276.604193,62.2621494 276.76,62.53 L279.98,67.53 C278.590437,68.5699313 277.025683,69.3523083 275.36,69.84 C273.625544,70.3871111 271.818673,70.6702774 270,70.68 Z" id="Path" fill="#3B3F44"></path>
            <path d="M300.14,34.1 C302.338066,34.0723437 304.523082,34.4415944 306.59,35.19 C308.464471,35.8811054 310.169319,36.965389 311.59,38.37 C313.035089,39.8258554 314.156244,41.5706316 314.88,43.49 C315.698515,45.6828491 316.098759,48.0096899 316.06,50.35 C316.069832,51.0014963 316.036425,51.6529271 315.96,52.3 C315.917291,52.721894 315.787923,53.1304239 315.58,53.5 C315.412022,53.7856581 315.150659,54.0046379 314.84,54.12 C314.459238,54.2435393 314.06015,54.3010351 313.66,54.29 L293.23,54.29 C293.57,57.2566667 294.47,59.4066667 295.93,60.74 C297.483012,62.1136228 299.508656,62.8306647 301.58,62.74 C302.656482,62.7604401 303.729512,62.6119705 304.76,62.3 C305.57721,62.0266162 306.372774,61.692346 307.14,61.3 L309.06,60.3 C309.62632,60.009864 310.253686,59.8590219 310.89,59.86 C311.642567,59.8175356 312.364083,60.165072 312.8,60.78 L315.88,64.58 C314.86433,65.7759242 313.670296,66.8080553 312.34,67.64 C311.119958,68.4127675 309.810309,69.0340112 308.44,69.49 C307.140862,69.9320761 305.800911,70.2436148 304.44,70.42 C303.173204,70.5837153 301.897328,70.667215 300.62,70.67 C298.233015,70.6893382 295.861987,70.2794891 293.62,69.46 C291.481431,68.6767695 289.534712,67.4460073 287.91,65.85 C286.205246,64.1501886 284.885482,62.1040418 284.04,59.85 C283.043051,57.2057882 282.561058,54.3952944 282.62,51.57 C282.605722,49.2680661 283.01591,46.983221 283.83,44.83 C285.407789,40.5957953 288.664626,37.2014476 292.83,35.45 C295.147431,34.5004881 297.63629,34.0408493 300.14,34.1 L300.14,34.1 Z M300.35,41.42 C298.592777,41.3164254 296.870655,41.9423227 295.59,43.15 C294.334587,44.5407964 293.544524,46.2887218 293.33,48.15 L306.580024,48.15 C306.581914,47.3155508 306.470907,46.4846796 306.25,45.68 C306.042388,44.906362 305.68197,44.1821261 305.19,43.55 C304.673559,42.8926438 304.013322,42.3624015 303.26,42 C302.346704,41.5879631 301.351479,41.3896021 300.35,41.42 L300.35,41.42 Z" id="Shape" fill="#3B3F44"></path>
            <path d="M320.54,21.09 L326.05,21.09 C326.57998,21.0686792 327.101587,21.2272759 327.53,21.54 C327.904742,21.8187088 328.178544,22.2118596 328.31,22.66 L338.44,56.75 C338.63,57.37 338.79,58.03 338.94,58.75 C339.09,59.47 339.23,60.2 339.37,60.97 C339.53,60.2 339.69,59.45 339.85,58.73 C339.994924,58.0543543 340.175171,57.3867713 340.39,56.73 L351.93,22.64 C352.095977,22.2180957 352.372278,21.8485437 352.73,21.57 C353.141649,21.2348825 353.659336,21.0575923 354.19,21.07 L356.1,21.07 C356.624042,21.0468049 357.139945,21.205816 357.56,21.52 C357.931588,21.8059755 358.209998,22.1957487 358.36,22.64 L369.83,56.73 C370.277526,58.0660997 370.641561,59.4287275 370.92,60.81 C371.06,60.05 371.19,59.33 371.3,58.65 C371.402957,57.9998786 371.553359,57.3581644 371.75,56.73 L381.91,22.64 C382.041319,22.2026071 382.311642,21.8199433 382.68,21.55 C383.095243,21.2235968 383.61208,21.053678 384.14,21.07 L389.3,21.07 L374,70.14 L368.05,70.14 L355.63,32.73 C355.347052,31.9223839 355.116572,31.0973326 354.94,30.26 L354.62,31.58 C354.51,32 354.4,32.38 354.29,32.73 L341.8,70.14 L335.8,70.14 L320.54,21.09 Z" id="Path" fill="#60BB99"></path>
            <path d="M402,34.92 C404.347208,34.885604 406.678217,35.3137485 408.86,36.18 C410.839604,36.9835049 412.618279,38.212532 414.07,39.78 C415.539557,41.4106334 416.656246,43.3273891 417.35,45.41 C418.145888,47.784314 418.534699,50.2760829 418.5,52.78 C418.537899,55.2939511 418.149049,57.7961151 417.35,60.18 C416.65402,62.2556306 415.537428,64.1654122 414.07,65.79 C412.619933,67.3544967 410.840393,68.5772901 408.86,69.37 C404.436022,71.0229412 399.563978,71.0229412 395.14,69.37 C393.159298,68.5724541 391.377487,67.3504455 389.92,65.79 C388.440082,64.1676437 387.309963,62.258016 386.6,60.18 C385.793174,57.7977766 385.400822,55.2948402 385.44,52.78 C385.404251,50.2752078 385.796558,47.7827079 386.6,45.41 C387.307485,43.3248807 388.43773,41.4082301 389.92,39.78 C391.37927,38.2167251 393.160196,36.9885006 395.14,36.18 C397.321783,35.3137485 399.652792,34.885604 402,34.92 Z M402,65.86 C405.42,65.86 407.976667,64.7133333 409.67,62.42 C411.363333,60.1266667 412.206667,56.9266667 412.200039,52.82 C412.200039,48.6933333 411.356667,45.4766667 409.67,43.17 C407.983333,40.8633333 405.426667,39.71 402,39.71 C400.446639,39.6755999 398.904365,39.9792777 397.48,40.6 C396.219635,41.1827657 395.121019,42.0650916 394.28,43.17 C393.373001,44.4010647 392.723403,45.8022926 392.37,47.29 C391.920236,49.0982303 391.705135,50.9568398 391.73,52.82 C391.705073,54.6765683 391.920188,56.5285737 392.37,58.33 C392.725371,59.8078256 393.374973,61.1988596 394.28,62.42 C395.127383,63.5136843 396.22475,64.3881483 397.48,64.97 C398.904365,65.5907223 400.446639,65.8944001 402,65.86 L402,65.86 Z" id="Shape" fill="#60BB99"></path>
            <path d="M424.66,70.14 L424.66,35.47 L428.15,35.47 C428.637006,35.415891 429.126448,35.5480761 429.52,35.84 C429.819477,36.2106719 429.997546,36.6645729 430.03,37.14 L430.44,42.55 C431.45575,40.3524197 432.960815,38.4163591 434.84,36.89 C436.598178,35.5416476 438.76498,34.8358488 440.98,34.89 C441.860293,34.8813179 442.737878,34.9889145 443.59,35.21 C444.342584,35.420284 445.06513,35.7261061 445.74,36.12 L445,40.63 C444.927668,41.1507381 444.464466,41.5265438 443.94,41.49 C443.436641,41.4515226 442.941505,41.3403696 442.47,41.16 C441.567432,40.9176688 440.634047,40.8098409 439.7,40.84 C437.758142,40.7725186 435.861011,41.4322352 434.38,42.69 C432.779569,44.1723642 431.552786,46.0125389 430.8,48.06 L430.8,70.14 L424.66,70.14 Z" id="Path" fill="#60BB99"></path>
            <path d="M457.21,19.72 L457.21,49.4 L458.78,49.4 C459.165376,49.4098577 459.549039,49.3453479 459.91,49.21 C460.290446,49.0211442 460.630185,48.7595457 460.91,48.44 L471.91,36.7 C472.207865,36.3657306 472.543433,36.0670751 472.91,35.81 C473.323195,35.5641643 473.799809,35.4458804 474.28,35.47 L479.83,35.47 L467,49.05 C466.705742,49.4007639 466.391909,49.7346288 466.06,50.05 C465.758106,50.3508571 465.422561,50.6159375 465.06,50.84 C465.47254,51.1034069 465.849037,51.4193951 466.18,51.78 C466.51993,52.1604816 466.827655,52.5685523 467.1,53 L480.65,70.12 L475.18,70.12 C474.731267,70.1334906 474.286733,70.0301106 473.89,69.82 C473.498905,69.5911613 473.158628,69.2849122 472.89,68.92 L461.49,54.73 C461.238844,54.3393616 460.895412,54.0165356 460.49,53.79 C459.994521,53.6227662 459.472485,53.5481897 458.95,53.57 L457.24,53.57 L457.24,70.14 L451.11,70.14 L451.11,19.72 L457.21,19.72 Z" id="Path" fill="#60BB99"></path>
            <path d="M505.23,41.18 C504.990758,41.6577777 504.493909,41.9511921 503.96,41.93 C503.547626,41.9102519 503.147648,41.7826725 502.8,41.56 C502.36,41.31 501.8,41.03 501.2,40.72 C500.477378,40.3742531 499.728337,40.0866751 498.96,39.86 C497.957529,39.5820688 496.920106,39.4507068 495.88,39.47 C494.942115,39.4569394 494.007818,39.588483 493.11,39.86 C492.35119,40.0993991 491.637947,40.4644712 491,40.94 C490.447917,41.3686385 489.994352,41.9108699 489.67,42.53 C489.355978,43.1492204 489.198063,43.8358089 489.21,44.53 C489.180238,45.3432506 489.454788,46.1383769 489.98,46.76 C490.545195,47.3931367 491.223442,47.9153872 491.98,48.3 C492.906233,48.7603139 493.86965,49.1416662 494.86,49.44 C495.93,49.77 497.03,50.13 498.16,50.5 C499.29,50.87 500.39,51.3 501.46,51.75 C502.493764,52.1854506 503.46282,52.7608275 504.34,53.46 C505.168652,54.1576333 505.848765,55.0145753 506.34,55.98 C506.879696,57.0944374 507.143772,58.3222189 507.11,59.56 C507.122468,61.0793195 506.830033,62.5857033 506.25,63.99 C505.686694,65.3412291 504.821206,66.5453867 503.72,67.51 C502.517804,68.5558984 501.121163,69.3544648 499.61,69.86 C497.801356,70.4578452 495.904565,70.7452378 494,70.71 C491.754431,70.7436055 489.523528,70.3429258 487.43,69.53 C485.596468,68.8388554 483.902672,67.8225779 482.43,66.53 L483.87,64.21 C484.030082,63.932598 484.252641,63.6963434 484.52,63.52 C484.823117,63.344995 485.170473,63.2616296 485.52,63.28 C485.992376,63.3025456 486.446319,63.4701555 486.82,63.76 C487.28,64.08 487.82,64.43 488.48,64.82 C489.228754,65.2523146 490.019478,65.6074701 490.84,65.88 C491.965951,66.2292034 493.141558,66.391356 494.32,66.36 C495.375055,66.381015 496.426204,66.2255397 497.43,65.9 C498.247905,65.6331276 499.005534,65.2084473 499.66,64.65 C500.249024,64.1421007 500.708402,63.5010277 501,62.78 C501.289084,62.0863252 501.435332,61.3414826 501.43,60.59 C501.460818,59.7308551 501.18822,58.8882796 500.66,58.21 C500.110716,57.5419396 499.429959,56.9939304 498.66,56.6 C497.737188,56.1191699 496.76916,55.7306189 495.77,55.44 C494.69,55.11 493.58,54.76 492.45,54.44 C491.32,54.12 490.22,53.66 489.13,53.19 C488.084068,52.7511681 487.109892,52.1578984 486.24,51.43 C485.402052,50.7018063 484.721504,49.8102881 484.24,48.81 C483.69771,47.6254416 483.434292,46.3322986 483.47,45.03 C483.475517,42.3396985 484.650773,39.7847951 486.69,38.03 C487.827064,37.0529989 489.140728,36.3028185 490.56,35.82 C492.242883,35.2466295 494.012389,34.9691925 495.79,35 C497.868075,34.9475196 499.937453,35.2867619 501.89,36 C503.638457,36.6816835 505.23552,37.7010857 506.59,39 L505.23,41.18 Z" id="Path" fill="#60BB99"></path>
            <path d="M94.12,72.93 L94.07,72.7 L94.07,53.7 L94.16,53.61 L94.07,53.53 L94.12,53.48 L84.75,9.48 L40.25,0 L0,39.51 L0,58.9 L0,58.9 L0,58.9 L0,59 L9.37,103 L53.86,112.5 L94.16,73.06 L94.07,73 L94.12,72.93 Z M32.12,60.06 L44.59,47.82 L62.11,51.57 L62.39,52.9 L50,65.14 L32.43,61.39 L32.12,60.06 Z" id="Shape" fill="#60BB99"></path>
            <path d="M44.59,28.4 L28.74,44 L28.74,44 L28.74,44 L32.43,61.36 L50,65.14 L65.8,49.55 L65.8,49.55 L65.8,49.55 L62.11,32.15 L44.59,28.4 Z M40.25,0 L84.75,9.5 L94.12,53.5 L94.07,53.55 L94.16,53.63 L53.9,93.16 L9.41,83.66 L0,39.65 L0,39.65 L0,39.51 L40.25,0 Z" id="Shape" fill="#3B3F44"></path>
        </g>
    </g>
</svg>